<svg width="759" height="471" viewBox="0 0 759 471" fill="none" xmlns="http://www.w3.org/2000/svg"><path d="M404.413 368.85s-12.528-115.924-122.851-141.041C171.24 202.693 68.953 252.38 28.472 365.497c-40.481 113.118 4.074 90.429 195.926 94.138 191.852 3.709 197.024 9.579 180.015-90.785zM257.278 141.211c0-2.525-.018-5.044 0-7.572 0-.766-.211-1.164-.985-1.526-3.395-1.59-6.73-3.305-10.089-4.979a3.038 3.038 0 01-.517-.273c-2.166-1.78-2.133-2.347.158-3.264 4.017-1.603 8.077-3.101 12.127-4.623.757-.297 1.235-.546 1.413-1.543.994-5.594 2.151-11.158 4.35-16.431a15.772 15.772 0 011.78-3.175c.995-1.353 2.179-1.41 3.291-.199 3.784 4.116 7.579 8.223 11.253 12.434 1.51 1.727 2.937 2.427 5.386 1.884 4.667-1.033 9.439-1.629 14.187-2.243 1.848-.241 3.751-.033 5.638-.054 1.617-.018 2.513.831 1.528 3.107a38.11 38.11 0 01-3.825 6.68c-2.006 2.851-4.273 5.525-6.433 8.27-.463.593-.57 1.029-.021 1.78a508.797 508.797 0 019.036 12.517 24.717 24.717 0 012.219 4.255c.724 1.647.149 2.626-1.549 2.335a118.43 118.43 0 01-10.638-2.314c-3.798-1.027-7.534-2.297-11.276-3.54-.932-.297-1.484-.104-2.193.525-4.748 4.234-9.35 8.668-14.979 11.766a20.38 20.38 0 01-4.294 1.724c-1.781.492-3.374-.469-3.997-2.505a43.051 43.051 0 01-1.508-6.635c-.296-2.107-.24-4.261-.341-6.398l.279-.003zm2.141-86.206c4.452-.38 7.217 3.14 7.107 7.25-.115 4.45-2.561 7.22-6.899 7.3-4.267.08-7.154-2.285-7.32-7.315-.137-4.116 2.667-7.617 7.112-7.235zm81.215 135.249c-.16-4.252 3.036-7.229 7.06-7.211 4.217.018 6.959 2.967 7.021 7.419.053 3.768-2.7 7.4-7.472 7.296-3.291-.062-7.018-3.249-6.609-7.504z" fill="#F2F1F1"/><path d="M345.254 272.209v.145" stroke="#1B1B1A" stroke-width="2.077" stroke-miterlimit="10" stroke-linecap="round"/><path d="M347.669 283.943c5.383 18.324 22.315 50.651 74.054 40.695 71.067-13.674 46.173-86.99 46.173-86.99s-9.27-44.564-59.206-49.045c-49.935-4.481-106.613 8.481-134.5-2.499-27.888-10.979-50.378-35-38.683-80.562 11.694-45.561 72.404-66.766 125.269-36.828 52.864 29.938 69.986 64.17 111.346 68.639 38.914 4.214 73.069 1.516 87.461-26.279" stroke="#1B1B1A" stroke-width="2.077" stroke-miterlimit="10" stroke-linecap="round" stroke-dasharray="0.3 11.85"/><path d="M562.007 105.677c.018-.044.035-.092.05-.136" stroke="#1B1B1A" stroke-width="2.077" stroke-miterlimit="10" stroke-linecap="round"/><path d="M59.219 381.471c2.54.246 3.37 1.187 3.16 3.632l-1.187 13.742c-.181 2.077-1.306 3.175-3.077 2.997-1.715-.172-2.606-1.525-2.436-3.602.371-4.521.736-9.04 1.095-13.559.121-1.584.786-2.777 2.445-3.21z" fill="#EC6A14"/><path d="M43.465 327.785c1.923-.128 3.036.836 3.535 2.626l-2.879 14.056c-.08.501-.19.997-.329 1.484-.52 1.525-1.635 2.246-3.21 1.962-1.63-.297-2.452-1.508-2.17-3.039a325.116 325.116 0 013.098-14.971c.193-.827 1.282-1.424 1.956-2.118z" fill="#EC6913"/><path d="M49.382 364.13c2.338.036 4.68.047 7.02.107 1.992.056 3.164 1.104 3.185 2.768.018 1.733-1.232 2.819-3.327 2.805-4.676-.03-9.359-.072-14.035-.155-1.974-.029-3.096-1.136-3.054-2.857.042-1.721 1.151-2.671 3.196-2.671 2.338 0 4.677.068 7.015.104v-.101z" fill="#EC6B15"/><path d="M45.003 387.621c.036 2.587-2.181 4.086-3.962 2.911-4.344-2.819-8.581-5.799-12.798-8.807-1.246-.891-1.353-2.291-.54-3.561.875-1.374 2.312-1.781 3.63-.891 4.314 2.858 8.554 5.837 12.759 8.846.54.398.754 1.238.911 1.502z" fill="#EC6911"/><path d="M16.656 396.896c1.092.52 1.754.736 2.306 1.113 3.81 2.6 7.606 5.219 11.389 7.858 1.656 1.154 2.077 2.861 1.124 4.217-.952 1.356-2.552 1.51-4.187.391-3.919-2.67-7.82-5.36-11.703-8.068-1.13-.786-1.881-1.944-1.21-3.24.474-.92 1.507-1.544 2.281-2.271z" fill="#EC6912"/><path d="M17.63 370.22c-.555-.573-1.704-1.235-1.89-2.11-.188-.875.237-2.504.934-2.929 4.416-2.703 8.947-5.214 13.51-7.668 1.3-.697 2.636-.231 3.437 1.101.801 1.333.57 2.787-.682 3.535-4.496 2.67-9.11 5.181-13.69 7.715-.317.187-.732.175-1.62.356z" fill="#EC6911"/><path d="M96.683 413.002c2.338.035 4.677.05 7.012.104 1.819.026 3.003 1.121 3.021 2.67.018 1.549-1.146 2.671-2.968 2.671a852.86 852.86 0 01-14.395-.074c-2.011-.03-3.103-1.104-3.062-2.825.042-1.721 1.229-2.689 3.208-2.671 2.386.027 4.783.089 7.184.125z" fill="#EC670E"/><path d="M30.273 439.73c.338-4.22.644-8.44 1.018-12.653.186-2.095 1.376-3.146 3.16-2.968 1.644.169 2.543 1.392 2.374 3.451-.378 4.724-.789 9.443-1.232 14.155-.169 1.798-1.397 2.878-2.967 2.739-1.528-.137-2.457-1.276-2.451-3.03l.024-1.703.074.009z" fill="#EC6911"/><path d="M84.248 391.488c-.772.653-1.54 1.716-2.561 2.078-1.416.498-2.525-.386-3.083-1.781a2842.007 2842.007 0 01-4.897-12.288c-1.08-2.733-.76-4.341.968-5.045 1.813-.724 3.11.161 4.205 2.92 1.537 3.864 3.063 7.733 4.578 11.609.226.659.407 1.326.79 2.507z" fill="#EC6A14"/><path d="M45.64 424.92c.297-.38.754-1.371 1.511-1.822 4.178-2.469 8.416-4.822 12.665-7.169 1.602-.867 3.181-.484 3.973.854.85 1.436.392 3.024-1.288 3.988a1128.102 1128.102 0 01-12.51 7.045c-2.107 1.163-4.368-.077-4.35-2.896z" fill="#EC6913"/><path d="M574.317 182.803c2.543.246 3.374 1.187 3.161 3.632l-1.187 13.745c-.178 2.077-1.303 3.172-3.075 2.994-1.715-.172-2.605-1.525-2.436-3.602.372-4.519.737-9.037 1.095-13.556.119-1.587.787-2.777 2.442-3.213z" fill="#EC6A14"/><path d="M558.559 129.115c1.926-.128 3.036.839 3.537 2.629l-2.878 14.053c-.08.501-.19.997-.329 1.484-.523 1.525-1.638 2.247-3.211 1.962-1.629-.297-2.451-1.508-2.169-3.039.92-5.012 1.94-10.009 3.098-14.971.19-.827 1.279-1.424 1.952-2.118z" fill="#EC6913"/><path d="M564.497 165.461c2.338.036 4.68.047 7.021.107 1.991.056 3.163 1.104 3.184 2.768.018 1.733-1.231 2.819-3.326 2.805-4.677-.028-9.356-.08-14.036-.155-1.974-.029-3.095-1.136-3.054-2.854.042-1.719 1.152-2.671 3.196-2.671 2.336 0 4.677.068 7.015.104v-.104z" fill="#EC6B15"/><path d="M560.104 188.949c.035 2.59-2.181 4.086-3.965 2.911-4.341-2.819-8.582-5.798-12.795-8.807-1.247-.891-1.353-2.291-.54-3.561.89-1.374 2.311-1.781 3.629-.89 4.314 2.857 8.555 5.839 12.76 8.845.54.398.753 1.241.911 1.502z" fill="#EC6911"/><path d="M531.754 198.227c1.089.519 1.751.735 2.306 1.112 3.81 2.6 7.606 5.219 11.389 7.858 1.653 1.157 2.077 2.861 1.124 4.217-.952 1.356-2.552 1.51-4.187.391-3.919-2.67-7.82-5.36-11.703-8.068-1.131-.786-1.884-1.944-1.211-3.24.475-.92 1.508-1.543 2.282-2.27z" fill="#EC6912"/><path d="M532.727 171.549c-.555-.573-1.703-1.234-1.89-2.107-.187-.872.238-2.507.935-2.932 4.415-2.703 8.947-5.213 13.51-7.664 1.3-.701 2.633-.235 3.437 1.097.804 1.333.569 2.787-.683 3.535-4.495 2.67-9.11 5.181-13.691 7.715-.318.19-.73.175-1.618.356z" fill="#EC6911"/><path d="M611.779 214.329c2.338.035 4.677.053 7.012.104 1.819.029 3.003 1.121 3.021 2.67.018 1.549-1.146 2.671-2.982 2.686-4.8.014-9.598-.011-14.395-.074-2.012-.03-3.104-1.104-3.063-2.825.042-1.721 1.229-2.689 3.208-2.671 2.401.015 4.798.074 7.199.11z" fill="#EC670E"/><path d="M545.369 241.054c.339-4.22.644-8.439 1.018-12.653.184-2.095 1.377-3.146 3.161-2.968 1.644.173 2.543 1.395 2.374 3.455a913.917 913.917 0 01-1.232 14.151c-.166 1.798-1.395 2.878-2.967 2.739-1.532-.136-2.457-1.276-2.451-3.03l.023-1.703.074.009z" fill="#EC6911"/><path d="M599.346 192.816c-.771.656-1.543 1.716-2.561 2.078-1.415.498-2.525-.386-3.083-1.781a2617.577 2617.577 0 01-4.896-12.288c-1.08-2.733-.76-4.341.967-5.044 1.811-.725 3.107.16 4.205 2.922 1.537 3.864 3.064 7.733 4.579 11.606.225.659.404 1.326.789 2.507z" fill="#EC6A14"/><path d="M560.736 226.25c.297-.377.757-1.371 1.514-1.822 4.175-2.469 8.415-4.822 12.662-7.169 1.602-.867 3.184-.484 3.976.854.849 1.44.392 3.024-1.288 3.989a1124.524 1124.524 0 01-12.513 7.044c-2.104 1.163-4.365-.077-4.351-2.896z" fill="#EC6913"/><path d="M363.353 262.993c-3.116 5.398 27.923 1.312 42.766 3.264 1.484.196 4.451 2.606 3.077 3.167-7.418 2.736-14.33 7.029-22.315 8.083-7.193.938-14.424 1.78-21.662 2.033-5.828.219-10.638 2.934-15.787 4.931-.967.377-1.032.808-.376 1.526.312.428.651.837 1.014 1.222 1.505 1.258 1.164 2.06-.465 3.021-12.944 7.603-25.817 15.318-38.761 22.926-4.635 2.727-9.495 5.095-14.071 7.911-11.11 6.825-23.303 7.742-35.832 6.745-9.528-.78-18.863-2.67-28.57-4.558 3.247 5.561 7.653 9.446 12.6 12.728a56.956 56.956 0 0017.243 7.928c2.695.701 3.383 1.929 2.968 4.354-.048.644-.048 1.29 0 1.934 2.967-2.077 5.668-4.089 8.501-6.015 15.116-10.385 30.743-19.771 48.126-25.938 10.964-3.89 22.119-5.157 33.659-2.997 14.095 2.632 23.538 10.707 28.713 23.932 3.911 9.98 5.43 20.458 6.374 31.039 1.11 12.434 1.581 24.9 1.483 37.39 0 1.484.555 1.979 1.891 2.216a28689.02 28689.02 0 0152.906 9.725l64.375 11.869c1.071.193 2.632.08 2.282 2.06-.128.679.51.819 1.068.86 1.935.172 3.875.324 5.813.517.926.089 1.261-.297 1.261-1.187a5.787 5.787 0 012.941-4.799c12.629-7.943 21.579-19.846 32.279-29.867a566.672 566.672 0 017.834-7.154c.789-.712 1.704-1.558 2.81-.864 1.262.787.736 2.078.386 3.149-2.671 7.955-6.231 15.537-9.751 23.146-3.893 8.403-7.766 16.816-11.89 25.104-2.742 5.493-1.695 6.193-9.448 11.338.074.113.13.315.225.342 3.006.735 2.878 2.341 1.62 4.715a102.711 102.711 0 00-4.486 9.863c-.938 2.374-2.374 2.79-4.57 1.953-4.988-1.89-9.448-4.748-13.997-7.469-.594-.353-1.187-.694-2.185-1.261.63 2.884-1.038 2.62-2.67 2.626-18.063.095-36.134.083-54.167.359a9598.84 9598.84 0 00-79.628 1.594c-25.816.632-51.704.789-77.559.632-19.469-.095-38.911-1.009-58.336-2.446-12.546-.925-25.131-.353-37.686-.504-16.641-.193-33.286.056-49.903-1.018-1.442-.089-3.638.193-3.858-1.261-.169-1.122 2.116-1.51 3.445-1.89 11.199-3.199 22.674-4.407 34.277-5.045 2.374-.136 4.769-.231 7.603-.365-4.585-2.027-8.82-3.777-13.001-5.768a170.307 170.307 0 01-45.757-31.769c-2.288-2.217-4.617-4.41-6.715-6.79a3.962 3.962 0 00-.297-.297c-2.077-2.409-4.285-4.611-5.303-5.801-13.187-15.439-24.048-32.354-31.763-51.179a6.076 6.076 0 00-2.395-3.062c-.37-.478-.712-.988-1.121-1.484-9.68-10.46-18.92-21.294-26.843-33.173-7.087-10.617-13.315-21.679-15.873-34.377-1.914-9.516-1.341-18.668 4.908-26.73a69.113 69.113 0 0110.706-11.054c18.297-15.045 39.541-22.849 62.883-25.52 1.694-.19 2.21.342 2.13 1.941-.065 1.187.383 1.781 1.718 1.14 4.523-2.042 9.315-2.671 14.244-2.552a3.373 3.373 0 002.261-.49c8.27-5.976 17.529-10.223 26.535-14.89 6.528-3.357 11.16-8.232 13.679-15.116.336-.891.724-1.802 1.146-2.671 1.552-3.199 2.81-3.344 5.234-.629a11.81 11.81 0 012.704 4.516v.297a9.28 9.28 0 01.219 5.228c-.151.781-.276 1.205.695 1.564 4.86 1.802 4.225 5.152 1.341 8.508-.623.724-1.781 1.222-1.781 2.217.152 4.044-2.255 6.528-5.044 8.854-.416.347-1.273.947-.416 1.653a32.869 32.869 0 004.662 3.487c1.252.706 2.077-1.063 3.282-1.214a5.119 5.119 0 011.033-.196c.623.069 1.543-.442 1.73.629.145.852-.086 1.505-1.187 1.65-.804.122-1.745.264-2.19 1.261 1.145.891 2.015 2.336 3.858 1.315.427-.231 1.51-.297 1.139.733-.706 1.988.831 2.599 1.89 3.537 2.324 2.077 4.715 4.045 6.926 6.205 2.344 2.3 2.294 4.567.071 6.973a8.61 8.61 0 01-1.555 1.442c-1.115.713-1.014 1.33-.258 2.312 2.431 3.154 4.781 6.374 7.104 9.606 5.045 6.997 3.784 12.558-3.825 16.537-2.789 1.463-5.736 2.608-9.181 4.154 8.632.638 16.724 2.03 24.689 3.781 1.622.356 3.24.727 4.855 1.113.439.103 2.374.578 4.896 1.187.328.142.669.253 1.018.332 9.694 2.329 19.261 5.125 28.973 7.418 6.232 1.484 12.069.484 17.944-1.436 15.885-5.196 31.096-12.03 46.212-19.077 2.11-.982 3.513-1.211 4.679 1.015 1.505 2.878 3.665 3.388 6.431 1.78.397-.207.82-.359 1.258-.454 3.068-.813 5.424-2.042 6.395-5.638.792-2.908 3.311-4.837 6.196-6.184 3.353-1.57 6.528-3.502 9.813-5.223 1.311-.685 2.905-1.751 4.119-.359 1.213 1.392.424 3.039-.629 4.347-1.116 1.431-4.659 3.784-4.659 3.784l-1.35 1.053z" fill="#1E1E1C"/><path d="M190.999 278.895c3.888-1.522 7.615-1.113 11.277-.92 13.314.712 26.157 4.006 39 7.306 9.309 2.395 18.505 5.234 28.016 6.861 4.988.854 9.661-.164 14.326-1.606 16.143-4.988 31.493-11.967 46.778-19.03 1.891-.89 2.799-.629 4.075.991 3.857 4.956 7.911 9.754 11.967 14.567.858 1.027.959 1.52-.32 2.288-18.17 10.908-36.292 21.9-55.043 31.793-8.691 4.591-18.101 5.113-27.623 4.629-11.784-.629-23.241-3.377-34.811-5.38a4.348 4.348 0 00-.78.083c2.296 5.668 6.02 10.128 10.581 13.947 6.529 5.454 14.051 9.083 22.107 11.665 1.039.326 1.977.398 1.888 1.941-.629 18.22-1.674 36.383-6.437 54.107-6.296 23.369-19.706 41.571-39.68 55.079a3.728 3.728 0 01-3.388.632c-31.66-8.333-58.708-24.458-81.248-48.102-16.348-17.137-29.297-36.487-38.235-58.446-.49-1.205-1.41-2.009-2.246-2.905-13.544-14.523-26.333-29.6-35.77-47.235-4.187-7.825-7.474-15.98-8.501-24.906-.932-8.107.753-15.43 6.083-21.804 11.217-13.416 25.742-21.849 41.87-27.864 8.309-3.098 16.914-4.989 25.674-6.342 2.436-.374 3.389.202 3.62 2.745.594 6.528 1.374 13.018 2.199 19.526.235 1.89-.258 2.709-2.166 3.338-9.199 3.048-18.442 6.151-26.573 11.665-11.3 7.644-12.523 15.89-3.561 27.448 5.323 6.87 12.404 7.274 20.092 5.742 3.983-.792 7.994-1.454 11.968-2.317 1.448-.315 2.047.101 2.519 1.424 1.813 4.882 3.781 9.692 5.567 14.582.499 1.377 1.134 1.887 2.608 1.938 2.294.05 4.579.421 6.873.629 1.454.116 2.228.576 1.938 2.288-.25 1.483-.113 3.148-.974 4.344-1.507 2.077-.89 3.415.629 5.19 9.849 11.573 22.125 19.985 35.087 27.564 5.57 3.264 11.181 6.425 16.742 9.68 1.341.78 1.89.786 2.054-1.015a1288.176 1288.176 0 003.857-52.648c.113-2.127-.19-3.816-2.181-4.863-1.694-.891-1.409-2.404-.955-3.683 1.145-3.214.421-5.638-2.173-7.893-2.365-2.06-4.299-4.496-6.73-7.033z" fill="#fff"/><path d="M219.008 458.159a125.174 125.174 0 0015.828-13.457c12.597-12.971 20.196-28.571 24.392-45.995 3.445-14.336 4.585-28.971 5.241-43.621.05-1.104.145-1.959 1.186-2.715 16.704-12.27 34.066-23.38 53.497-30.912 11.148-4.32 22.517-6.3 34.517-4.154 13.65 2.43 22.849 9.953 27.893 22.793 3.858 9.908 5.342 20.306 6.3 30.786 1.051 11.722 1.392 23.481 1.422 35.271 0 2.03 0 2.905-2.671 2.374-11.87-2.374-23.79-4.451-35.707-6.573-1.694-.297-2.475-.941-2.671-2.798a88.261 88.261 0 00-2.839-15.885 23.757 23.757 0 00-1.819-4.667c-1.532-2.834-3.858-3.149-5.885-.629a74.902 74.902 0 00-4.54 6.528 508.984 508.984 0 00-7.122 11.172c-.706 1.154-1.362 1.436-2.759 1.134-4.226-.92-8.511-1.588-12.76-2.312-.629-.113-1.579-.748-1.807.668-.229 1.415.555 1.368 1.513 1.543a36558.22 36558.22 0 0160.191 11.119l72.968 13.472c21.621 3.997 43.239 8.047 64.874 11.964 2.039.368 2.519 1.066 2.519 3.018a820.799 820.799 0 000 23.38c0 1.891-.323 2.52-2.4 2.52-9.561-.078-19.128 0-28.683.139-27.713.427-55.426.748-83.088 1.442-37.615.938-75.235 1.41-112.853.787-18.398-.297-36.778-1.045-54.98-4.095a64.38 64.38 0 01-9.757-2.297zm-38.855-157.734c-10.831-6.825-19.724-15.392-25.033-27.3-.991-2.21-1.041-4.635-1.78-6.89-.404-1.214.691-1.484 1.353-1.959 3.614-2.519 7.255-5.044 11.024-7.62a21.04 21.04 0 01-7.039-8.914 8.177 8.177 0 01-.632-3.086c0-1.258.273-2.291 1.395-2.953a2.927 2.927 0 013.463.315 12.825 12.825 0 012.929 2.644c1.258 1.828 2.7 1.104 3.934.415 1.235-.688 0-1.667-.258-2.448-1.258-3.394-2.644-6.715-3.495-10.249a5.333 5.333 0 01.789-4.534c3.917-5.57 9.617-9.033 15.193-12.645.908-.593 1.306.167 1.781.543 8.012 6.116 16.13 12.113 23.638 18.897 3.401 3.065 3.368 4.786-.594 6.997-2.284 1.258-2.267 2.172-.703 3.89 1.258 1.368 2.178 3.012 3.401 4.41 1.222 1.398.629 2.131-.695 2.84-1.946 1.065-4.086 1.059-6.19 1.187-.919.05-1.498.19-1.483 1.323.015 1.134.718 1.027 1.43 1.015 2.855-.05 5.668-.297 8.095-2.009 1-.712 1.573-.834 2.267.327 1.113 1.89 2.712 3.427 3.205 5.718.792 3.703.24 5.561-2.941 7.685-4.982 3.318-10.706 4.944-16.276 6.897-.977.41-1.995.718-3.036.919-4.673.567-6.878 3.496-8.249 7.716-1.599 4.949-3.202 9.893-4.617 14.902a4.152 4.152 0 01-.876 1.967zm-74.494-11.231c-2.828.276-4.899-1.362-6.885-2.935a22.28 22.28 0 01-8.308-14.003c-.63-3.546 1.311-6.297 3.56-8.736 4.238-4.579 9.763-7.229 15.33-9.712a149.293 149.293 0 0117.636-6.46c1.638-.499 2.468-1.134 1.83-2.905a1.727 1.727 0 01-.13-.781c.157-1.258-1.187-2.917.439-3.709 1.463-.712 4.353 1.187 4.89 2.789 2.644 8.012 7.514 14.57 13.603 20.232 2.131 1.976 2.828 4.35 3.282 6.997a2.378 2.378 0 01-.932 2.52c-2.846 2.391-5.51 4.982-7.193 8.382a2.372 2.372 0 01-1.632 1.167c-11.6 3.581-23.353 6.329-35.49 7.154zm458.883 106.158c-1.508 3.633-2.935 7.294-4.529 10.882a1080.701 1080.701 0 01-17.724 37.79 15.433 15.433 0 01-6.76 7.169c-2.946 1.573-3.003 3.092-.207 4.819.94.594.946 1.012.537 1.887-1.463 3.107-2.905 6.232-4.241 9.386-.51 1.202-1.187 1.365-2.261.914-5.045-2.142-9.686-5.044-14.359-7.881-.914-.552-.87-1.214-.549-1.997 1.676-4.063 3.78-7.695 8.05-9.704 3.238-1.519 4.597-4.774 5.668-7.955.632-1.819-.78-2.57-2.285-3.238-3.264-1.448-3.78-4.516-.78-6.492 14.181-9.273 24.309-22.849 36.662-34.069.703-.629 1.421-1.258 2.134-1.89l.644.379zm-380.396-49.638c-13.505-7.513-26.235-16.024-36.499-27.819-1.015-1.166-1.695-1.985-.763-3.81 1.151-2.25.994-4.983 1.258-7.558.107-1.054-.282-1.342-1.258-1.437-2.727-.258-5.436-.75-8.187-.931-1.507-.101-2.332-.478-2.872-2.042-1.543-4.409-3.265-8.742-5.045-13.056-.555-1.36-.297-1.757 1.134-2.078a65.664 65.664 0 007.896-2.198c1.552-.541 2.282-.214 3.196 1.154 5.46 8.187 10.825 16.457 17.899 23.303 3.956 3.822 6.46 8.309 8.439 13.226 3.514 8.685 9.119 15.872 15.499 22.552.101.582-.113.834-.697.694z" fill="#fff"/><path d="M151.655 274.082c.775.068.736.736.944 1.187 5.638 11.801 14.599 20.475 25.591 27.202 1.644 1 1.887 1.84 1.258 3.525-1.187 3.152-2.229 6.3-3.232 9.517-.46 1.484-1 1.644-2.374.914-6.721-3.561-11.905-8.816-16.558-14.65-4.282-5.398-8.243-11.027-12.148-16.704-.89-1.258-.959-2.279-.152-3.587a29.532 29.532 0 015.9-6.766c.252-.249.531-.448.771-.638zm187.78.847c2.967-1.095 5.75-2.154 8.561-3.148a3.206 3.206 0 002.317-2.52 11.417 11.417 0 017.122-8.243c3.214-1.312 6.172-3.232 9.792-5.178a8.352 8.352 0 01-2.311 3.412 25.5 25.5 0 01-2.796 2.425c-1.406 1.047-1.587 1.78-.314 3.347 2.267 2.807 4.855 3.677 8.433 3.602 11.14-.24 22.294-.089 34.161-.089-8.516 3.879-16.374 7.217-25.312 7.508-6.261.202-12.496 1.095-18.745 1.682-4.338.41-7.917 2.879-11.801 4.484-1.781.736-2.843.629-3.983-.952-1.534-2.11-3.291-4.086-5.124-6.33zm-152.342 39.659c1.161.78 1.891 1.555 2.193-.359.837-4.965 1.887-9.882 2.968-14.808.296-1.323-.164-2.142-1.158-2.935-1.65-1.335-3.151-2.842-4.825-4.154-1.187-.932-1.62-1.745-1.003-3.326 1.149-2.935 2.024-5.965 3.585-9.045 2.967 3.193 5.775 6.232 8.605 9.252 1.644 1.781.214 3.603-.112 5.247-.404 2.035-.214 3.415 1.599 4.409 1.57.891 1.935 2.199 1.801 3.994-.955 13.226-1.813 26.452-2.715 39.681-.062.866-.27 1.724-.522 3.329-3.588-10.703-6.908-20.754-10.416-31.285z" fill="#fff"/><path d="M169.393 316.679c2.014 1.021 3.652 1.78 5.231 2.671 1.579.89 2.709.795 3.152-1.303a6.826 6.826 0 011.578-3.149l6.3 26.559c-7.76-6.656-12.472-15.11-16.261-24.778zM512.895 455.54v-17.754c0-1.083.391-1.324 1.412-1.259 3.858.193 7.626.63 10.864 3.06.593.448.943.673.528 1.403-1.258 2.276-2.19 4.831-4.905 5.965-3.718 1.549-5.626 4.864-7.899 8.585zM140.522 220.548c-5.567 4.989-8.816 10.277-7.602 17.398-4.775-.107-5.045-.38-5.466-4.825-.246-2.632-.505-5.264-.89-7.878-.152-1.048 0-1.632 1.026-2.077a28.396 28.396 0 0112.932-2.618zm47.008 90.458c-6.567-4.451-6.632-9.285-3.457-17.508 1.757 1.549 3.457 3.051 5.172 4.549.395.353.793.68.629 1.321-.753 3.839-1.537 7.688-2.344 11.638z" fill="#FEFEFE"/><path d="M184.142 345.715l.709-.674 2.427 2.116a4.453 4.453 0 01-3.136-1.442z" fill="#D4D3D2"/><path d="M189.577 225.517c.178.751-.146 1.116-.89 1.312a6.99 6.99 0 00-4.452 3.513c-.629 1.152-1.32.89-2.109.454-1.113-.629-.158-1.261.121-1.727a9.915 9.915 0 015.718-4.451c.831-.228 1.638-.409 1.612.899z" fill="#272726"/><path d="M187.858 232.156c.196-1.802 1.359-2.671 3.066-2.968.448-.071 1.16-.397 1.299.371.095.549.354 1.567-.24 1.656-1.403.205-2.406 2.056-4.125.941z" fill="#222221"/><path d="M549.549 137.597a.374.374 0 00-.149 0 3.214 3.214 0 01-.555.033h-.124l-.208-.051h-.062l-.057-.032a2.893 2.893 0 01-.163-.095 1.597 1.597 0 01-.261-.249l-.054-.078c-.038-.062-.077-.121-.112-.187a1.518 1.518 0 01-.152-.362 4.223 4.223 0 01-.207-.976c-.175-1.685.142-3.412.552-5.044a23.698 23.698 0 011.872-5.11c.377-.733.795-1.603 1.576-1.977a2.394 2.394 0 012.32.267c.695.481.891 1.463.891 2.291a5.76 5.76 0 01-.182 1.606 251.84 251.84 0 00-1.756 3.436c-1.08 2.131-2.125 4.332-3.169 6.528z" fill="#fff"/><path d="M447.163 97.847c1.003.25 2.609.62 4.178 1.086a78.628 78.628 0 015.045 1.683c.825.296 1.404.077 2.021-.44 2.374-2.006 4.748-4.041 7.222-5.934.953-.73 2.134-1.187 3.265-1.641.842-.336 1.332.118 1.365 1.02.083 2.259.16 4.514.252 6.769.071 1.89.104 3.783.297 5.659.041.433.56.941 1.003 1.187 2.739 1.59 5.531 3.083 8.273 4.685a7.28 7.28 0 011.911 1.686c.89 1.107.842 1.614-.433 2.184-1.983.89-4.054 1.596-6.113 2.297a27.782 27.782 0 01-3.808 1.003c-.89.169-1.056.593-1.136 1.418-.249 2.76-.594 5.516-.982 8.276a8.618 8.618 0 01-.733 2.217c-.629 1.43-1.534 1.78-2.718.78a60.695 60.695 0 01-5.146-4.908 47.705 47.705 0 01-3.279-4.154c-.709-.953-1.641-.422-2.374-.297a63.614 63.614 0 01-12.629.923h-.371c-2.638-.16-3.338-1.353-1.78-3.439 2.302-3.089 4.765-6.057 7.24-9.012.721-.864 1.101-1.434.454-2.647-1.255-2.345-2.199-4.858-3.228-7.318a3.656 3.656 0 01-.181-1.33c-.048-1.58.163-1.768 2.385-1.753zm2.308 123.273c-.448-2.623-.891-4.902-1.187-7.205-.101-.753.175-1.554.279-2.335.733.143 1.557.116 2.181.457 2.077 1.143 4.077 2.463 6.166 3.605a2.34 2.34 0 001.78.045c2.968-1.217 5.84-2.671 8.84-3.769 1.962-.727 2.508-.092 2.009 1.902-.679 2.73-1.311 5.478-2.125 8.167-.35 1.154.146 1.65.891 2.326 2.205 2.045 4.4 4.107 6.451 6.297 1.291 1.374.869 2.481-1.033 2.804-2.854.487-5.736.89-8.623 1.122-1.187.095-1.659.49-2.077 1.555-1.223 3.166-2.576 6.282-3.935 9.392-.19.433-.715.718-1.086 1.074-.344-.368-.843-.677-1.009-1.11-1.223-3.169-2.424-6.35-3.531-9.561-.339-.985-.79-1.273-1.837-1.347-3.522-.255-7.089-.413-10.365-1.959-1.781-.842-2.122-1.738-.819-3.264 1.528-1.801 3.335-3.374 5.101-4.955 1.08-.968 2.32-1.757 3.466-2.653a2.36 2.36 0 00.463-.588z" fill="#F2F1F1"/><path d="M681.23 51.853c.161.201.284.43.362.674.043.142.077.285.104.43 0 .063.021.128.027.193 0 .157.032.32.032.481 0 .16-.017.335-.032.498a1.35 1.35 0 01-.024.179c-.027.15-.063.3-.107.448a2.004 2.004 0 01-.356.676.979.979 0 01-.234.202.35.35 0 01-.107.056.805.805 0 01-.264.05.838.838 0 01-.273-.07 1.086 1.086 0 01-.241-.172.64.64 0 01-.101-.098 2.198 2.198 0 01-.382-.704 3.114 3.114 0 01-.116-.466 3.723 3.723 0 01-.048-.516 1.534 1.534 0 01.057-.457c.022-.134.067-.264.133-.383a.576.576 0 01.208-.243.325.325 0 01.249-.104.577.577 0 01.46.347l.101.24c.057.193.087.393.089.594v.039l-.024-.318c.006.073.017.145.033.217l-.065-.282c.016.065.037.128.062.19l-.101-.24c.027.06.059.117.095.172l-.13-.187a.69.69 0 00.133.145l-.154-.122c.043.035.094.06.148.075l-.172-.042a.29.29 0 00.131 0l-.172.045a.37.37 0 00.106-.057l-.154.122a.47.47 0 00.095-.107l-.131.187a.779.779 0 00.078-.142l-.101.24a2.01 2.01 0 00.062-.202l-.065.282a2.33 2.33 0 00.038-.264l-.023.317a2.118 2.118 0 000-.276l.023.315a2.603 2.603 0 00-.038-.264l.065.297a1.74 1.74 0 00-.059-.187l.101.24a.785.785 0 00-.078-.142l.134.187-.027-.033a.847.847 0 01-.181-.297 1.323 1.323 0 01-.116-.403 1.716 1.716 0 010-.475c.003-.15.029-.298.078-.44a.889.889 0 01.385-.545.401.401 0 01.499.118l-.012-.018zm-24.263-.913c.161.2.283.428.359.673.042.141.077.285.104.43 0 .063.023.128.029.193 0 .158.03.32.03.48 0 .161-.015.336-.03.5a.65.65 0 01-.026.178c-.025.151-.06.3-.104.448a2.142 2.142 0 01-.356.676 1.045 1.045 0 01-.238.202.287.287 0 01-.107.056.766.766 0 01-.261.05.836.836 0 01-.273-.07 1.115 1.115 0 01-.243-.173.64.64 0 01-.101-.097 2.274 2.274 0 01-.383-.704 3.108 3.108 0 01-.115-.466 3.72 3.72 0 01-.045-.516 1.566 1.566 0 01.053-.457 1.16 1.16 0 01.134-.383.586.586 0 01.211-.243.319.319 0 01.249-.104.57.57 0 01.457.347l.101.24c.06.193.09.393.089.594v.039l-.021-.318c.004.073.015.146.033.217l-.066-.297a.912.912 0 00.063.19l-.104-.24c.027.06.058.117.095.172l-.131-.187a.723.723 0 00.134.145l-.155-.121c.044.034.095.06.149.074l-.172-.042c.043.01.087.01.13 0l-.172.045a.294.294 0 00.107-.057l-.154.122a.53.53 0 00.098-.107l-.134.187a.774.774 0 00.077-.142l-.101.24a1.42 1.42 0 00.063-.202l-.066.297c.021-.087.034-.175.039-.264l-.024.317a2.117 2.117 0 000-.276l.024.315a1.96 1.96 0 00-.039-.264l.066.297a1.23 1.23 0 00-.06-.187l.101.24a.837.837 0 00-.074-.143l.131.188-.024-.033a.811.811 0 01-.184-.297 1.322 1.322 0 01-.116-.404 1.716 1.716 0 010-.474c.004-.15.03-.298.077-.44a.892.892 0 01.389-.545.401.401 0 01.499.118l-.012-.017zM579.33 93.261c-.02.116.036.077-.047-.02a2.977 2.977 0 00-.235-.24 3.45 3.45 0 00-.73-.464c-.457-.225-.997-.368-1.454-.062a2.277 2.277 0 00-.744 1.065.704.704 0 00-.051.125l-.074.205a18.02 18.02 0 00-.187.554 31.563 31.563 0 00-1.107 5.241 32.238 32.238 0 00-.297 5.956c.031.834.135 1.664.312 2.48a8.29 8.29 0 00.41 1.309c0 .027.065.139 0 .03a4.729 4.729 0 00.275.51c.137.229.315.43.526.593-.06-.041.121.078.157.098.036.021.128.066.196.098-.146-.065.041 0 .098.027.071.02.143.036.216.048.164.032-.065.014.11 0h.243c.048 0 .297-.036.143 0 .089 0 .178-.036.267-.06a4.076 4.076 0 001.166-.507c.692-.407 1.347.653.656 1.056-1.383.81-3.163 1.187-4.383-.11-1.219-1.296-1.484-3.264-1.611-4.923a31.934 31.934 0 01.264-6.691 30.072 30.072 0 011.249-5.79c.392-1.157.971-2.445 2.315-2.685a3.311 3.311 0 012.341.594c.644.415 1.324 1.017 1.169 1.86-.142.786-1.35.484-1.208-.297h.015z" fill="#000"/><path d="M574.71 96.437c-.529.1-1.025.33-1.442.671-.405.407-.71.903-.89 1.448a14.75 14.75 0 00-.816 3.804 17.149 17.149 0 00.196 4.787c.16.827.403 1.635.727 2.412a5.633 5.633 0 001.258 1.994c1.187 1.095 2.816.686 3.626-.638.415-.679 1.508-.083 1.089.594-.914 1.484-2.626 2.374-4.338 1.703-1.781-.688-2.671-2.653-3.214-4.371a17.42 17.42 0 01.157-10.279 5.604 5.604 0 011.208-2.234 4.227 4.227 0 012.077-1.09c.778-.186 1.14 1.004.359 1.188l.003.011z" fill="#000"/><path d="M571.16 102.433c-.792.341-1.208 1.376-1.415 2.243a12.206 12.206 0 00-.226 3.617c.068 1.048.166 2.247.594 3.214a3.208 3.208 0 002.463 1.78 3.76 3.76 0 003.184-.89c.575-.555 1.483.297.89.858-1.997 1.929-5.609 1.78-7.27-.514-.772-1.059-.947-2.51-1.078-3.777a14.343 14.343 0 01.161-4.347c.296-1.392.94-2.769 2.314-3.357a.628.628 0 01.775.416.632.632 0 01-.416.774l.024-.017z" fill="#000"/><path d="M570.111 111.778c-.436 2.807-.593 5.934.593 8.555.713 1.563 1.796 2.587 2.879 3.905a5.77 5.77 0 011.214 2.166c.204.771-.986 1.133-1.187.359a4.266 4.266 0 00-.167-.493c-.065-.166.033.051-.047-.107-.045-.083-.086-.166-.134-.249a6.502 6.502 0 00-.593-.86l-.089-.107c-.056-.065-.11-.131-.166-.193-.131-.151-.264-.297-.398-.451a44.182 44.182 0 01-.783-.89 11.404 11.404 0 01-2.561-5.974 21.764 21.764 0 01.231-5.949c.125-.79 1.33-.487 1.208.296v-.008z" fill="#000"/><path d="M680.986 72.791a13.818 13.818 0 01-15.248 3.44 13.813 13.813 0 01-4.601-3.015c-.57-.564.296-1.466.857-.89a12.634 12.634 0 0014.54 2.302 12.8 12.8 0 003.561-2.67c.546-.594 1.446.27.891.857v-.024z" fill="#1B1B1A" stroke="#000" stroke-width=".297" stroke-miterlimit="10"/><path d="M685.795 52.516a12.412 12.412 0 01-8.012-.09.851.851 0 01-.593-1.005.833.833 0 011.006-.594c2.295.833 4.802.871 7.122.11 1.015-.335 1.483 1.252.48 1.588l-.003-.01zm-24.291-.79a8.657 8.657 0 01-8.659-1.448.829.829 0 111.142-1.202 7.003 7.003 0 007.036 1.062.833.833 0 011.033.555.845.845 0 01-.552 1.033zm-60.388 99.354a.625.625 0 01-1.187.029 160.908 160.908 0 01-3.905-16.13 240.401 240.401 0 01-1.756-9.986c0-.086-.036-.175-.042-.261 0 .095.039.214 0 .033l-.089-.478-.415-2.214.611.439c-2.899.419-5.745 1.25-8.591 1.938l-10.95 2.644a47.13 47.13 0 00-2.997.852l.416-.775c.641 2.419.923 4.914 1.353 7.38a234.44 234.44 0 006.896 28.775 243.449 243.449 0 003.104 9.371c.991 2.796 1.968 5.623 3.193 8.327 1.976 4.347 5.172 9.039 10.487 9.027a13.275 13.275 0 004.525-.891 14.134 14.134 0 002.356-1.065l3.781-2.231.317-.19c.692-.407 1.345.65.656 1.059l-3.356 1.956a18.696 18.696 0 01-5.751 2.311c-2.792.564-5.665.211-8.053-1.403-2.078-1.395-3.618-3.425-4.828-5.585-1.348-2.401-2.318-4.988-3.265-7.564a241.575 241.575 0 01-3.317-9.543 233.32 233.32 0 01-7.448-29.372 230.052 230.052 0 01-.867-4.979c-.228-1.4-.388-2.733-.715-4.077-.077-.323-.16-.647-.246-.967a.63.63 0 01.415-.775c2.594-.804 5.238-1.395 7.876-2.03l11.03-2.67a44.68 44.68 0 013.964-.793.62.62 0 01.611.443c.19 1.017.407 2.032.564 3.056.051.323.098.647.151.97 0 .063.018.128.03.19-.021-.13 0 .018 0 .069l.08.486.178 1.077a242.927 242.927 0 002.745 13.947c.712 3.11 1.502 6.205 2.433 9.255l-1.187.03" fill="#000"/><path d="M590.867 121.699a12.564 12.564 0 003.94-4.707c.89-1.833 1.46-3.813 2.166-5.724.707-1.911 1.704-3.742 1.781-5.831.053-1.65-.537-3.614-2.493-3.709-1.282-.065-2.489.665-3.528 1.329a8.619 8.619 0 00-1.881 1.71 29.676 29.676 0 00-2.606 3.561 17.816 17.816 0 00-1.044 2.023 11.604 11.604 0 00-.709 1.905 6.097 6.097 0 00-.098.431c-.028.102-.04.208-.036.314v.19c0 .062.021.149 0 .036.011.052.025.104.042.154 0 0-.06-.068 0 .027.059.095-.089-.039.017.015h.048c.053 0 .127 0 0 0h.113c.284-.021.565-.081.833-.178a9.212 9.212 0 002.107-1.134c1.434-.97 2.891-2.187 3.858-3.626.092-.131.175-.264.252-.401.033-.059.065-.115.095-.175.03-.059.104-.231.062-.124a.64.64 0 01.754-.454.62.62 0 01.454.753c-.664 1.704-2.231 3.066-3.62 4.184a15.507 15.507 0 01-2.502 1.674c-.703.365-1.498.724-2.305.724-1.763 0-1.546-1.961-1.187-3.134a19.532 19.532 0 011.617-3.584 24.861 24.861 0 011.926-2.793c.598-.828 1.27-1.6 2.006-2.308a10.72 10.72 0 013.104-1.923c1.237-.516 2.644-.647 3.857 0a3.836 3.836 0 011.781 2.187c.682 1.988.202 4.314-.594 6.193-.931 2.208-1.638 4.49-2.516 6.718-.813 2.059-1.92 3.973-3.561 5.496-.477.44-.981.851-1.507 1.231-.647.472-1.297-.593-.653-1.059l.027.009z" fill="#000"/><path d="M589.153 104.878c2.427-4.425 4.807-8.95 6.486-13.721.403-1.12.741-2.261 1.012-3.419.116-.51.196-1.024.297-1.537.1-.434.178-.873.234-1.315a1.723 1.723 0 00-.213-1.186 1.658 1.658 0 00-1.131-.594c-1.258-.113-2.047 1.43-2.59 2.309a182.69 182.69 0 00-7.763 13.899 394.795 394.795 0 00-3.392 6.994c-.625 1.312-1.249 2.623-1.872 3.935-.261.546-.525 1.089-.778 1.638-.068.145.027-.08 0 .018l-.053.142-.134.386c-.943 2.831-1.679 5.742-2.448 8.623-.018.074-.038.146-.056.217l-.932-.68a55.435 55.435 0 005.398-4.748 37.778 37.778 0 004.644-5.433.643.643 0 01.846-.243.625.625 0 01.243.846c-2.795 4.1-6.561 7.623-10.484 10.629-.442.341-1.062-.187-.932-.68.73-2.756 1.46-5.522 2.315-8.246.638-2.03 1.679-3.911 2.59-5.828 1.187-2.481 2.357-4.959 3.576-7.419a180.22 180.22 0 018.012-14.46c.721-1.169 1.484-2.537 2.858-3.015a2.829 2.829 0 013.142 1.06c.612.89.41 2.056.208 3.053-.22 1.092-.407 2.178-.709 3.25-1.454 5.121-3.953 9.964-6.466 14.635-.271.502-.543 1.003-.816 1.501-.386.7-1.484.104-1.089-.593l-.003-.018z" fill="#000"/><path d="M589.756 102.544c-.018-.056-.051-.127 0-.032a2.887 2.887 0 00-.243-.404c-.018-.023-.107-.133-.039-.053l-.116-.131a4.133 4.133 0 00-.255-.258 5.384 5.384 0 00-1.22-.84 5.1 5.1 0 00-1.382-.522c-.119-.027-.238-.047-.357-.068-.118-.021.033 0-.035 0h-.169a2.15 2.15 0 00-.321 0c-.021 0-.187.024-.095 0s-.092.021-.107.027a.637.637 0 01-.777-.416.628.628 0 01.415-.777c1.152-.297 2.413.133 3.428.667 1.015.534 2.077 1.336 2.472 2.445a.626.626 0 01-.878.689.621.621 0 01-.309-.327h-.012z" fill="#000"/><path d="M585.509 96.67c.549-.79.686-1.906.674-2.844-.012-.937-.235-2.023-1.009-2.56a2.67 2.67 0 00-2.597-.297c-.872.418-1.338 1.388-1.759 2.21a26.42 26.42 0 00-2.095 5.713c-.454 1.819-.81 3.753-.614 5.638.033.37.109.736.228 1.089.039.142.097.279.172.406.039.072.083.14.125.208l.062.086c.098.14-.083-.086.027.039.05.056.104.109.16.16.071.065.154.119.107.089.062.041.127.077.193.113.148.08-.033 0 .133.053l.232.056c.118.024 0 0 .139.015.208.006.415-.006.62-.035a.624.624 0 01.638.593.634.634 0 01-.593.638 2.794 2.794 0 01-2.255-.593 3.612 3.612 0 01-1.069-1.971c-.463-2.053-.101-4.285.359-6.305a28.232 28.232 0 012.318-6.529c.516-1.017 1.113-2.121 2.145-2.691a3.862 3.862 0 013.6.02c1.282.653 1.843 1.956 1.967 3.336.113 1.264-.059 2.884-.804 3.959a.636.636 0 01-.843.243.629.629 0 01-.246-.846l-.015.006zm85.866 91.333a35.005 35.005 0 01-14.107.256 43.898 43.898 0 01-13.454-4.864 19.826 19.826 0 01-4.128-3.119c-.576-.555.279-1.454.858-.89.955.97 2.023 1.822 3.181 2.537a44.704 44.704 0 006.157 2.968 38.976 38.976 0 0013.428 2.733 31.987 31.987 0 007.697-.802c.775-.181 1.14 1.009.359 1.187l.009-.006zm-9.985-16.417c-2.229-1.602-5.045-2.116-7.647-2.781a28.244 28.244 0 01-4.009-1.261 12.577 12.577 0 01-3.6-2.341c-1.053-.961-1.97-2.059-2.985-3.059a15.464 15.464 0 00-1.733-1.511c-.427-.311-.97-.664-1.421-.641l-.196.018c.142-.018-.104.024-.136.033a.767.767 0 00-.238.104c-.196.142-.196.421-.228.646-.057.417-.066.84-.027 1.259.133 1.549.92 3.095 1.872 4.302 1.06 1.351 2.496 2.374 3.962 3.241a52.58 52.58 0 005.466 2.67c.73.324.127 1.413-.594 1.092-3.228-1.427-6.712-2.893-9.175-5.513a10.618 10.618 0 01-2.546-4.496 7.003 7.003 0 01-.193-2.566c.083-.733.252-1.41.959-1.781a2.715 2.715 0 012.712.261c1.347.876 2.472 2.033 3.561 3.199s2.121 2.264 3.433 3.095a14.894 14.894 0 003.985 1.653c3.143.89 6.668 1.326 9.383 3.279a.64.64 0 01.246.843.624.624 0 01-.845.246l-.006.009z" fill="#000"/><path d="M638.275 161.529a2.445 2.445 0 00-1.101-.16c-.3.022-.589.125-.836.297a2.06 2.06 0 00-.27.258 1.58 1.58 0 00-.199.401c-.112.444-.104.91.024 1.35.397 1.596 1.483 2.967 2.391 4.297a17.863 17.863 0 001.615 2.121 20.133 20.133 0 002.062 1.876 35.312 35.312 0 005.148 3.519c.698.392.101 1.484-.593 1.089a37.165 37.165 0 01-5.178-3.516 21.576 21.576 0 01-2.291-2.078 19.872 19.872 0 01-1.813-2.373c-.997-1.484-2.202-2.998-2.57-4.778-.225-1.083-.11-2.297.783-3.053.894-.757 2.095-.814 3.134-.46.751.255.46 1.465-.297 1.207l-.009.003z" fill="#000"/><path d="M644.805 179.571c-2.994-1.661-5.982-3.403-8.131-6.133a19.465 19.465 0 01-2.053-3.181c-.517-1.012-1.018-2.149-1.039-3.303a2.283 2.283 0 011.956-2.41.647.647 0 01.768.404.629.629 0 01-.415.775 2.675 2.675 0 00-.549.151 1.045 1.045 0 00-.324.243c-.169.254-.24.561-.199.864.039.949.493 1.937.941 2.786a17.02 17.02 0 004.849 5.76 41.206 41.206 0 004.789 2.943c.698.389.101 1.484-.593 1.09v.011z" fill="#000"/><path d="M640.188 180.74a25.84 25.84 0 01-3.694-3.611 18.884 18.884 0 01-1.914-2.537 5.384 5.384 0 01-.891-2.374 1.954 1.954 0 011.342-1.979c.745-.297 1.098.89.359 1.187-.106.043-.206.1-.297.169.11-.086-.027.032-.053.065-.069.089 0 0 0-.018a.931.931 0 00-.072.116c-.056.107-.017.036-.017.041-.015.06-.03.119-.042.181-.012.063 0-.115 0-.023a.568.568 0 000 .101v.231c0 .122 0 .024 0 0 0 .036 0 .074.021.11.021.036.038.151.062.228.055.186.122.367.202.543.161.329.341.647.537.956a23.64 23.64 0 003.629 4.237 20.153 20.153 0 001.653 1.466.618.618 0 01.196.441.624.624 0 01-.616.642.632.632 0 01-.449-.172h.044z" fill="#000"/><path d="M655.73 168.698a136.835 136.835 0 014.614-30.291 31.34 31.34 0 011.217-3.176l.246.846-15.822-6.528-21.843-9.033c-3.184-1.317-6.442-2.525-9.54-4.042l.905-.394c-1.16 3.881-1.745 7.955-2.241 11.964-.611 4.932-.922 9.897-1.124 14.861-.404 9.882-.344 19.79-1.152 29.653a119.13 119.13 0 01-2.406 16.514l-.297-.697a358.773 358.773 0 0119.496 9.012 353.25 353.25 0 0118.911 10.166 359.183 359.183 0 0110.413 6.232l-.917.572.335-20.267.095-5.831c0-.798 1.258-.834 1.244-.033l-.333 20.268-.098 5.831a.617.617 0 01-.3.542.632.632 0 01-.62.019 365.798 365.798 0 00-18.564-10.805 348.777 348.777 0 00-19.178-9.668 358.003 358.003 0 00-11.083-4.949.63.63 0 01-.266-.297.632.632 0 01-.031-.398c2.187-9.706 2.763-19.665 3.056-29.585.297-9.872.33-19.766 1.41-29.594.51-4.623 1.122-9.344 2.457-13.81a.635.635 0 01.905-.395c2.653 1.3 5.433 2.345 8.163 3.472l10.914 4.511 21.832 9.021 6.282 2.599c.338.14.356.561.246.846-.347.872-.775 1.745-1.05 2.641-.68 2.199-1.155 4.519-1.641 6.777a139.123 139.123 0 00-2.374 15.051c-.285 2.78-.483 5.568-.594 8.365-.033.795-1.276.831-1.243.03h-.024z" fill="#000"/><path d="M649.976 130.565c.323 1.11.297 2.392-.688 3.161-1.039.816-2.579.643-3.731.192-.679-.264-1.142-.685-1.712-1.121a6.106 6.106 0 00-1.676-.778 1.783 1.783 0 00-1.484.03c-.546.297-.433.938-.516 1.484a1.488 1.488 0 01-1.324 1.317c-.804.071-1.516-.463-2.154-.872l-4.594-2.968c-.664-.427-1.528-.822-2.029-1.448a1.714 1.714 0 01-.368-1.044c0-.377.121-.763.071-1.14-.166-1.246-1.87-1.581-2.861-1.739-1.558-.246-3.098-.558-3.931-2.038a7.241 7.241 0 01-.864-3.947c.056-.792 1.3-.831 1.243-.033a6.289 6.289 0 00.558 3.095c.177.424.469.789.843 1.054a5.18 5.18 0 001.973.593c1.247.202 2.534.419 3.475 1.345.429.408.709.95.792 1.537.023.331.008.663-.044.991a.714.714 0 00.329.777c1.345.971 2.804 1.807 4.199 2.704l2.157 1.388c.297.19 1.161.864 1.303.232.128-.573.042-1.134.374-1.653a2.3 2.3 0 011.377-.956 3.014 3.014 0 011.668.051c.598.181 1.178.418 1.733.706.593.335 1.032.873 1.649 1.187a3.82 3.82 0 001.923.389 1.311 1.311 0 001.14-.632c.222-.46.119-1.012-.021-1.484-.223-.768.967-1.131 1.187-.362l.003-.018zm5.914 306.473a211.371 211.371 0 00-13.802 7.715 217.915 217.915 0 00-13.136 8.662 214.187 214.187 0 00-12.511 9.647c-.489.409-.991.813-1.469 1.24-.43.345-.778.781-1.021 1.276-.451 1.089.891 1.291 1.653 1.368 2.843.273 5.69.485 8.541.635 5.673.299 11.353.349 17.038.152a196.77 196.77 0 0017.069-1.342c2.062-.252 4.668-.412 6.036-2.219 1.095-1.448 1.362-3.439 2.857-4.597 1.968-1.525 4.389-.101 5.659 1.603 1.27 1.703 2.003 4.071 4.291 4.748 1.902.554 4.089-.03 5.597-1.279 1.756-1.454 2.741-3.63 3.311-5.79 1.288-4.893 1.006-10.246-.475-15.062a27.972 27.972 0 00-1.335-3.508.652.652 0 01.202-.857.63.63 0 01.857.201 30.03 30.03 0 012.632 15.662c-.477 4.532-2.038 9.98-6.825 11.653-2.023.71-4.382.579-6.127-.745-.953-.724-1.594-1.762-2.193-2.78-.6-1.018-1.202-2.077-2.211-2.733-.831-.543-1.86-.742-2.691-.089-.686.543-1.054 1.445-1.413 2.217-.415.89-.834 1.81-1.516 2.537a6.392 6.392 0 01-2.935 1.665c-1.19.299-2.401.505-3.623.617-1.456.18-2.915.343-4.377.489a193.87 193.87 0 01-8.861.689 195.817 195.817 0 01-26.481-.347c-1.338-.11-2.748-.131-4.065-.407-1.089-.228-2.077-1.012-1.953-2.225.125-1.214 1.116-2.107 1.991-2.846a212.905 212.905 0 019.612-7.641 214.503 214.503 0 0113.353-9.253 209.48 209.48 0 0114.104-8.243c1.171-.625 2.35-1.241 3.537-1.849.71-.362 1.368.695.653 1.06l.027-.024z" fill="#000"/><path d="M643.898 439.358c-3.819 1.41-7.635 2.834-11.329 4.552a100.178 100.178 0 00-27.612 19.013c-.374.365-.751.73-1.116 1.103-.267.273-.718.71-.715 1.128 0 .365.404.457.692.519.556.111 1.119.187 1.685.229 2.377.231 4.772.193 7.14-.116a.62.62 0 01.599.606.624.624 0 01-.567.637 31.375 31.375 0 01-6.739.155c-.97-.083-2.101-.095-3.006-.49a1.67 1.67 0 01-.952-2.077c.297-.926 1.104-1.599 1.78-2.255a115.31 115.31 0 012.172-2.077 103.901 103.901 0 014.413-3.858 101.54 101.54 0 0119.968-12.834c4.299-2.077 8.753-3.795 13.237-5.448.754-.276 1.107.914.359 1.187l-.009.026zm49.314 1.665l16.321-164.738a.642.642 0 00-.593-.689.642.642 0 00-.48.137.638.638 0 00-.241.436l-16.208 163.442-41.648-4.748-7.57-158.11a.667.667 0 00-.691-.601.666.666 0 00-.635.661l7.62 159.186 44.125 5.024z" fill="#000"/><path d="M649.75 440.197l.169-1.318-12.588-1.614-16.49-166.05-1.32.13 16.593 167.101 13.636 1.751zm33.878-345.8c7.555 1.136 14.816 4.783 21.134 9.629 6.466 4.961 12.107 11.231 17.051 18.101a136.518 136.518 0 0113.819 24c3.964 8.858 6.953 18.294 8.335 28.119.362 2.436.598 4.888.707 7.348.092 2.397-.054 4.84-.891 7.065-1.436 3.882-4.896 5.861-8.347 6.638a27.526 27.526 0 01-5.593.594c-2.49.041-4.98-.066-7.46-.258-4.867-.377-9.719-1.048-14.568-1.647l-29.617-3.668-3.683-.457c-.937-.116-4.199-.418-4.199-.418s.122-2.104.048-3.303c-.083-1.312-.033-2.647 0-3.959.051-2.787.204-5.568.457-8.341.124-1.377.267-2.754.439-4.125.148-1.187.442-4.154.442-4.154s2.499.255 3.433.389l3.665.534 7.419 1.08 14.751 2.142 3.664.534c.891.131 2.131.52 2.938-.124 1.122-.89.561-3.066.175-4.261a30.62 30.62 0 00-1.335-3.119l-1.706-3.769-3.413-7.555-3.332-7.356c-.428-.944.801-1.819 1.231-.866 2.249 4.961 4.498 9.925 6.745 14.89l1.706 3.766c.478 1.056 1 2.101 1.389 3.207.558 1.591.941 3.561.297 5.179a2.953 2.953 0 01-1.834 1.712c-1.086.332-2.273.018-3.368-.14l-7.157-1.041-14.487-2.107-7.333-1.068c-.718-.104-2.136-.244-2.136-.244s-.235 1.991-.297 2.564a114.543 114.543 0 00-.902 14.285c0 .938.243 3.641.243 3.641s1.712.261 2.442.35l3.683.457 7.282.891 14.558 1.804 14.463 1.78c4.781.594 9.579 1.095 14.386 1.086 3.514 0 7.353-.175 10.454-2.267a8.386 8.386 0 003.265-4.267c.727-2.128.741-4.493.617-6.745-.531-9.653-2.938-19.157-6.318-28.009a132.935 132.935 0 00-12.861-24.926c-4.546-6.992-9.736-13.508-15.703-18.956-5.798-5.294-12.419-9.543-19.621-11.686a39.032 39.032 0 00-5.305-1.187c-.389-.06-.618-.608-.532-1.009a.733.733 0 01.318-.488.734.734 0 01.573-.105l-.131-.16zm-29.76 3.137a86.3 86.3 0 00-14.816 5.341c-4.727 2.22-9.324 4.822-13.353 8.17-2.342 1.943-4.529 4.065-6.739 6.154-.772.73-1.98-.409-1.187-1.145 1.982-1.873 3.946-3.769 6.015-5.543a53.663 53.663 0 016.504-4.796 81.57 81.57 0 0114.422-7.012 87.071 87.071 0 018.682-2.76c1.03-.272 1.514 1.315.481 1.588l-.009.003zm-39.943 28.307a245.489 245.489 0 01-4.05 11.991 235.258 235.258 0 01-2.309 6.039c-.685 1.73-1.341 3.489-2.181 5.151-.872 1.73-2.035 3.35-3.709 4.377a.849.849 0 01-.356.115.852.852 0 01-.682-.259.851.851 0 01-.191-.322 79.54 79.54 0 01-1.27-4.015c-.296-1.027 1.294-1.507 1.588-.481.396 1.35.819 2.688 1.27 4.015l-1.231-.466c1.344-.824 2.258-2.103 2.967-3.48a52.47 52.47 0 002.151-4.991 235.19 235.19 0 004.226-11.446c.75-2.2 1.467-4.409 2.151-6.629.315-1.015 1.926-.623 1.612.401h.014z" fill="#000"/><path d="M609.14 186.426a.52.52 0 00.042-.213c.855-4.52 1.462-9.083 1.816-13.668.807-9.864.748-19.769 1.151-29.654.199-4.964.514-9.929 1.125-14.857 0-.063 0-.128.024-.19.213-.671.43-1.345.638-2.018a.705.705 0 00-.264-.825 63.853 63.853 0 011.641-8.208c2.225 1.05 4.522 1.964 6.81 2.884a7.242 7.242 0 00.863 3.908c.834 1.484 2.374 1.781 3.932 2.036.991.16 2.695.493 2.861 1.739.05.38-.08.763-.072 1.142.004.379.133.745.368 1.042.502.626 1.365 1.021 2.03 1.448l4.594 2.967c.638.41 1.35.944 2.154.873a1.483 1.483 0 001.312-1.338c.083-.532-.03-1.167.516-1.469a1.769 1.769 0 011.484-.03c.594.173 1.16.436 1.676.777a6.843 6.843 0 001.712 1.122c1.152.451 2.692.623 3.73-.193.781-.611.959-1.552.834-2.472l11.179 4.638a20.785 20.785 0 00-.956 2.541 136.822 136.822 0 00-4.57 29.605c-1.065-.264-2.13-.504-3.154-.795a14.848 14.848 0 01-3.985-1.653c-1.312-.831-2.374-1.967-3.434-3.095-1.059-1.127-2.216-2.323-3.561-3.199a2.714 2.714 0 00-2.715-.261 1.666 1.666 0 00-.854 1.187 3.142 3.142 0 00-2.612.594c-.89.759-1.009 1.97-.783 3.053.065.303.153.601.264.89a2.276 2.276 0 00-1.341 2.217c.021 1.154.522 2.291 1.035 3.303l.083.148a1.903 1.903 0 00-1.011 1.825 5.37 5.37 0 00.89 2.374 18.675 18.675 0 001.914 2.537 26.267 26.267 0 003.679 3.603 19.1 19.1 0 003.641 2.67 44.22 44.22 0 0012.814 4.748.503.503 0 00-.015.122l-.098 5.831c-.103 6.382-.208 12.765-.315 19.148a368.497 368.497 0 00-9.495-5.685 360.122 360.122 0 00-18.918-10.166 338.375 338.375 0 00-10.089-4.828.531.531 0 00-.213-.098 351.941 351.941 0 00-8.796-3.905c.154-.739.306-1.446.439-2.152z" fill="#303030"/><path d="M645.934 129.498l2.79 1.154a.638.638 0 00.023.234c.137.472.244 1.024.021 1.484a1.317 1.317 0 01-1.14.629 3.749 3.749 0 01-1.922-.388c-.618-.297-1.054-.837-1.65-1.173a10.093 10.093 0 00-1.736-.706 2.967 2.967 0 00-1.665-.05 2.277 2.277 0 00-1.377.955c-.332.52-.246 1.08-.374 1.65-.142.635-1.006-.038-1.302-.231-.722-.459-1.442-.921-2.158-1.386-1.394-.89-2.854-1.736-4.199-2.703a.72.72 0 01-.329-.778c.052-.328.067-.66.045-.991a2.633 2.633 0 00-.793-1.537c-.94-.926-2.228-1.146-3.475-1.344a5.147 5.147 0 01-1.973-.594 2.416 2.416 0 01-.843-1.053 6.146 6.146 0 01-.569-2.52l.795.324 21.831 9.024zm-66.649-36.141a28.967 28.967 0 00-1.953 5.795c-.46 2.018-.822 4.249-.359 6.303a3.592 3.592 0 001.068 1.97 2.67 2.67 0 001.781.617c-.342.689-.68 1.377-1 2.078a.592.592 0 00-.312.086 4.544 4.544 0 01-.819.403 3.522 3.522 0 01-.576.157l-.181.018h-.353c-.074-.015-.145-.026-.216-.047l-.146-.054c-.05-.023-.101-.044-.148-.071l-.166-.107a2.127 2.127 0 01-.517-.593 3.724 3.724 0 01-.261-.478l-.029-.062a4.212 4.212 0 01-.095-.238 8.271 8.271 0 01-.315-1.071 14.271 14.271 0 01-.297-2.481 35.584 35.584 0 011.404-11.196c.059-.184.122-.37.187-.551.024-.072.05-.14.074-.208l.027-.072.021-.05c.141-.42.401-.79.747-1.065.457-.297.997-.166 1.454.062.263.122.508.278.73.463.084.073.162.154.232.24.022.02.038.048.044.078a.107.107 0 00-.026.074z" fill="#fff"/><path d="M580.431 106.787a.447.447 0 00-.163 0c-.205.03-.413.042-.62.036-.158 0-.021 0-.14-.018-.118-.018-.154-.036-.231-.056l-.071-.015-.063-.039a2.659 2.659 0 01-.184-.104 1.906 1.906 0 01-.276-.258l-.014-.023-.063-.087a2.903 2.903 0 01-.124-.207 1.72 1.72 0 01-.173-.407 4.936 4.936 0 01-.231-1.089c-.193-1.884.163-3.816.617-5.638a26.625 26.625 0 012.092-5.71c.425-.821.89-1.78 1.763-2.21a2.67 2.67 0 012.596.297c.775.537.997 1.635 1.009 2.56a6.584 6.584 0 01-.204 1.796c-.671 1.27-1.326 2.55-1.965 3.84-1.22 2.409-2.386 4.863-3.555 7.332zm-9.556 2.028c.531 1.715 1.424 3.683 3.213 4.371h.018a4.003 4.003 0 01-1.561.053 3.206 3.206 0 01-2.46-1.78c-.439-.967-.537-2.166-.593-3.214a12.192 12.192 0 01.225-3.62c.104-.455.266-.895.484-1.309a16.653 16.653 0 00.674 5.499zm17.566-9.113a5.636 5.636 0 00-2.837-.754c.258-.51.517-1.02.778-1.528a.8.8 0 00.178-.184c.25-.375.439-.788.558-1.223a176.833 176.833 0 016.089-10.64c.543-.891 1.332-2.425 2.591-2.312.44.04.847.253 1.13.593.211.357.287.779.214 1.187-.056.442-.134.88-.235 1.315-.098.513-.178 1.03-.296 1.54a30.724 30.724 0 01-1.009 3.415c-1.297 3.686-3.015 7.223-4.846 10.683-.478-.926-1.413-1.617-2.315-2.092zm-7.273 16.105a58.068 58.068 0 01-3.991 3.62c.626-2.374 1.258-4.73 2.029-7.044l.134-.386.053-.14c.256-.548.52-1.092.781-1.638.623-1.311 1.247-2.623 1.872-3.934a427.493 427.493 0 012.932-6.06.646.646 0 00.389.018l.113-.024h.092c.106-.006.213-.006.32 0h.19c.122.021.24.039.359.066.484.108.949.285 1.383.525a5.245 5.245 0 011.475 1.095l.095.107.059.077c.063.086.12.176.172.27.018.029.033.062.051.095.017.032.017.044.026.074a.673.673 0 00.433.415 194.96 194.96 0 01-1.041 1.917l-.211.27a26.113 26.113 0 00-1.926 2.796 21.88 21.88 0 00-1.264 2.611 38.002 38.002 0 01-4.525 5.27z" fill="#fff"/><path d="M573.167 106.227c.136 1.674.418 3.644 1.611 4.926a2.6 2.6 0 001.392.789 2.193 2.193 0 01-2.457-.424 5.665 5.665 0 01-1.258-1.994 12.391 12.391 0 01-.727-2.412 16.999 16.999 0 01-.196-4.787c.103-1.298.377-2.578.816-3.804a3.618 3.618 0 01.89-1.448c.199-.18.428-.324.677-.425a39.651 39.651 0 00-.475 2.888 31.938 31.938 0 00-.273 6.691z" fill="#fff"/><path d="M637.548 446.032a215.476 215.476 0 00-13.372 9.255 226.132 226.132 0 00-6.468 5.045 229.895 229.895 0 00-3.14 2.596c-.872.736-1.869 1.614-1.991 2.825a31.473 31.473 0 01-7.122.113 15.158 15.158 0 01-1.685-.229c-.297-.062-.692-.157-.695-.519 0-.421.451-.854.718-1.127.365-.377.742-.742 1.116-1.107a100.367 100.367 0 0127.612-19.013c3.641-1.691 7.398-3.097 11.16-4.486l4.089.525a219.905 219.905 0 00-10.222 6.122z" fill="#fff" stroke="#000" stroke-width=".593" stroke-miterlimit="10"/><path d="M614.924 464.25c.478-.425.977-.828 1.469-1.238a218.574 218.574 0 0112.511-9.65 205.874 205.874 0 0113.134-8.658 214.954 214.954 0 0113.804-7.716.508.508 0 00.297-.457l27.92 3.353a.796.796 0 00.077.333 28.221 28.221 0 011.336 3.51c1.483 4.813 1.762 10.167.474 15.06-.569 2.163-1.555 4.335-3.311 5.789-1.508 1.252-3.695 1.837-5.597 1.282-2.288-.668-2.997-3.006-4.291-4.748-1.293-1.742-3.691-3.127-5.659-1.605-1.483 1.157-1.762 3.151-2.857 4.599-1.368 1.805-3.974 1.968-6.039 2.22a195.437 195.437 0 01-42.644.552c-.772-.074-2.104-.276-1.653-1.368a3.765 3.765 0 011.029-1.258z" fill="#fff" stroke="#000" stroke-width=".593" stroke-miterlimit="10"/><path d="M576.631 113.201a.573.573 0 00.116-.152c.49-.245.925-.59 1.276-1.011-.074.21-.148.424-.217.638-.854 2.724-1.584 5.486-2.314 8.246-.131.493.489 1.018.931.68a51.858 51.858 0 008.698-8.241c.086.703.46 1.273 1.406 1.273.808 0 1.603-.356 2.306-.721a15.198 15.198 0 002.499-1.677c1.391-1.115 2.967-2.477 3.623-4.184a.631.631 0 00-.454-.753.647.647 0 00-.754.454c.042-.104-.05.104-.062.124-.012.021-.062.119-.095.178-.077.137-.163.27-.252.401-.983 1.439-2.44 2.653-3.858 3.623a9.212 9.212 0 01-2.107 1.134c-.267.1-.548.16-.834.178h-.16c-.071-.095 0-.027 0-.027s-.021-.083-.03-.128a.64.64 0 010-.062v-.19a1.127 1.127 0 01.036-.317c.027-.143.059-.297.098-.428.1-.38.225-.754.374-1.118l.092-.134a.474.474 0 00.08-.297c.053-.124.107-.246.163-.371.305-.696.654-1.372 1.045-2.023a30.57 30.57 0 011.917-2.727l.014-.018c.22-.276.446-.549.674-.816a8.603 8.603 0 011.881-1.712c1.039-.665 2.247-1.392 3.529-1.33 1.955.098 2.546 2.063 2.492 3.712-.068 2.078-1.062 3.914-1.78 5.831-.718 1.917-1.27 3.888-2.166 5.725a12.562 12.562 0 01-3.941 4.706.622.622 0 00-.223.297l-.296.071-11.033 2.67c-1.564.38-3.131.742-4.689 1.14a6.573 6.573 0 00-1.026-1.617c-1.081-1.318-2.164-2.342-2.876-3.902-.982-2.158-1.053-4.659-.804-7.042 1.769 1.691 4.908 1.665 6.721-.083zm98.25-26.389c2.92-.119 5.872-1.985 8.22-3.113-.383 1.997-1.502 9.2 1.952 11.276 0 .027-.018.048-.024.075a.9.9 0 00.202.777c-.872 3.039-9.386 11.401-17.54 18.416-4.57-5.089-11.831-13.849-12.712-17.327a5.54 5.54 0 003.026-1.579c2.024-1.973 3.003-5.418 2.92-10.231 3.666 1.274 8.018 1.85 13.057 1.73.305 0 .602-.012.899-.024zm-4.482 100.137a31.135 31.135 0 01-7.122.63 38.97 38.97 0 01-13.427-2.733 45.06 45.06 0 01-6.158-2.968 14.88 14.88 0 01-2.626-2.015.635.635 0 00-.062-.065l-.048-.036-.454-.43a.589.589 0 00-.231-.142c-.315-.279-.62-.567-.92-.855a23.879 23.879 0 01-3.638-4.231 9.283 9.283 0 01-.537-.959 4.343 4.343 0 01-.205-.54c-.021-.077-.038-.154-.059-.228l-.018-.095v-.247a.441.441 0 010-.089c0-.056.024-.112.039-.172 0 0-.039.068.017-.038a.727.727 0 01.054-.089l.092-.092c.053-.04.11-.075.169-.104.416.679.871 1.334 1.362 1.961 2.151 2.73 5.14 4.469 8.134 6.134.703.389 1.299-.703.593-1.089a41.677 41.677 0 01-4.786-2.944 17.02 17.02 0 01-4.849-5.76c-.448-.848-.89-1.839-.941-2.786a1.25 1.25 0 01.199-.864.994.994 0 01.407-.276c.522.965 1.187 1.87 1.78 2.757a20.202 20.202 0 001.816 2.374 21.225 21.225 0 002.291 2.062 36.818 36.818 0 005.202 3.502c.7.395 1.297-.697.593-1.089a35.135 35.135 0 01-5.151-3.516 20.551 20.551 0 01-2.059-1.876 17.527 17.527 0 01-1.615-2.124c-.905-1.339-1.994-2.698-2.394-4.294a2.598 2.598 0 01-.021-1.35c.046-.142.112-.277.196-.401.083-.094.174-.181.273-.258.247-.172.536-.274.836-.297.247-.02.495-.001.736.056a7.009 7.009 0 00.235 1.923 10.597 10.597 0 002.546 4.496c2.463 2.623 5.935 4.089 9.175 5.513.73.324 1.332-.765.594-1.089a52.186 52.186 0 01-5.466-2.67c-1.469-.864-2.903-1.891-3.965-3.241-.949-1.207-1.736-2.754-1.869-4.303a5.458 5.458 0 01.026-1.258c.033-.225.033-.504.229-.647a.628.628 0 01.237-.103c.027 0 .169-.033.181-.039h.149c.451-.027.997.329 1.424.641.613.461 1.192.964 1.733 1.507 1.012 1.003 1.932 2.098 2.985 3.063a12.61 12.61 0 003.6 2.338c1.302.52 2.641.942 4.006 1.264 2.587.656 5.377 1.187 7.596 2.742a50.343 50.343 0 002.104 2.027c.594.543 1.445-.356.858-.89-1.733-1.597-3.478-3.232-4.748-5.238-1.063-1.685-1.742-3.653-1.632-5.662a6.58 6.58 0 01.252-1.466c.036-.121.095-.498.217-.572.059-.039.219.08.329.154.814.62 1.545 1.342 2.175 2.148 3.083 3.612 6.131 7.25 9.199 10.873a.63.63 0 00.69.119.624.624 0 00.319-.324c-.042.35-.086.701-.122 1.054a103.58 103.58 0 00-.552 8.341c-.032 1.312-.098 2.65 0 3.959-.013.305-.004.612.027.916z" fill="#fff"/><path d="M671.491 174.573c-3.066-3.623-7.508-8.926-10.591-12.534a11.844 11.844 0 00-2.175-2.151c-.11-.075-.27-.19-.329-.155-.122.074-.181.451-.217.573a6.628 6.628 0 00-.252 1.466c-.107 2.012.572 3.976 1.635 5.665 1.261 2.003 3.006 3.641 4.748 5.234.593.543-.27 1.445-.858.89-3.294-3.032-6.861-6.679-6.769-11.495a8.166 8.166 0 01.196-1.671 3.62 3.62 0 01.573-1.484c.855-1.065 2.077-.059 2.807.594a27.174 27.174 0 012.43 2.691l2.546 3.009 5.728 6.775c.219.258 1.121 1.267.875 1.531s.297 1.187.068.929l-.415.133z" fill="#000"/><path d="M646.484 38.836s-.653 29.834 15.618 46.567c13.822 14.214 31.994-15.415 31.994-15.415" stroke="#000" stroke-width="1.187" stroke-miterlimit="10"/><path d="M668.27 51.957l-2.67 14.404a.807.807 0 00.457.888c.108.05.227.077.347.076h4.647" stroke="#000" stroke-width=".89" stroke-miterlimit="10" stroke-linecap="round"/><path d="M692.911 29.041s-18.291 20.114-46.855 9.793c0 0 2.196 30.327 10.95 39.802l4.192 5.389-1.712 2.326s-13.335 4.976-16.353-3.303c0 0-2.261-4.22 1.51-7.377l2.175-1.647s-14.086-26.41-5.489-50.03C649.925.374 671.543-1.398 683.608.614c12.066 2.012 27.22 12.822 28.318 28.157 1.098 15.336.594 21.262-2.67 35.268l-1.508 5.71s5.383 2.67 5.457 8.878c.074 6.208-8.403 18.276-27.834 3 0 0 12.822-12.128 13.828-34.253-.003.006-8.291 3.033-6.288-18.333z" fill="#000"/><path d="M652.293 44.006s4.003-2.626 9.421-.41m15.391-.143s4.452-1.733 9.3 1.564" stroke="#000" stroke-width="1.78" stroke-miterlimit="10" stroke-linecap="round"/><path d="M667.594 115.219l.074-.062c.763-.65 18.671-15.932 18.291-19.938a.937.937 0 00-.495-.778c-3.703-2.1-1.813-9.887-1.781-9.97h-.296c-.08.347-1.825 7.973 2.006 10.145a.745.745 0 01.394.623c.359 3.778-16.872 18.612-18.148 19.707-.994-1.101-12.944-14.401-13.244-18.466a4.892 4.892 0 003.264-1.484c2-1.953 2.926-5.469 2.757-10.451h-.199c.166 4.852-.765 8.412-2.694 10.3a4.68 4.68 0 01-3.223 1.436h-.107v.107c.104 4.154 12.825 18.175 13.354 18.769l.047.062z" fill="#000"/><path d="M667.553 115.909l.439-.373c3.151-2.671 18.855-16.265 18.466-20.366a1.433 1.433 0 00-.745-1.163c-2.65-1.501-2.178-6.825-1.558-9.418l.89-2.968-1.296.273-.858 2.448c-.199.852-1.929 8.324 2.14 10.63.086.047 0 .225 0 .365.231 2.436-8.65 11.403-17.363 18.899-4.57-5.086-11.831-13.849-12.709-17.327a5.563 5.563 0 003.027-1.579c2.104-2.053 3.08-5.697 2.905-10.825v-.495l-1.187.041.018.496c.16 4.706-.719 8.14-2.544 9.926-1.362 1.335-2.795 1.297-2.854 1.294l-.89.166.279.445c.106 4.276 12.124 17.588 13.495 19.092l.345.439z" fill="#1B1B1A"/><path d="M617.711 192.547l-2.374 76.378s21.439 14.837 97.856 6.763l-.76-79.806" stroke="#000" stroke-width=".89" stroke-miterlimit="10" stroke-linecap="round"/><path d="M661.319 171.596l.072.072-.072-.072zm-10.967 263.319l41.647 4.748 16.155-162.911c-14.205 1.353-26.374 1.884-36.701 1.884-11.869 0-21.324-.697-28.662-1.635l7.561 157.914zm12.212-349.932c2.671 2.754 5.722 3.962 9.048 3.59 10.938-1.213 21.796-18.712 21.902-18.89l.039.024a56.187 56.187 0 005.638-22.28s-8.294 3.019-6.285-18.353c0 0-17.825 19.585-45.763 10.184-.012 3.434.492 30.372 15.421 45.725zm-5.092-32.22a4.886 4.886 0 01-.029.499c0 .059 0 .118-.024.178a4.06 4.06 0 01-.107.448 2.073 2.073 0 01-.356.676.976.976 0 01-.234.202.39.39 0 01-.107.056.805.805 0 01-.264.05.824.824 0 01-.273-.07 1.098 1.098 0 01-.244-.172.636.636 0 01-.101-.098 2.25 2.25 0 01-.382-.704 3.552 3.552 0 01-.116-.466 3.72 3.72 0 01-.045-.516 1.534 1.534 0 01.057-.457c.019-.135.064-.265.133-.383a.578.578 0 01.116-.163 8.674 8.674 0 01-2.671-1.516.825.825 0 01-.283-.588.838.838 0 01.229-.611.827.827 0 01.925-.192.827.827 0 01.275.189 6.993 6.993 0 007.033 1.062.84.84 0 011.035.552.85.85 0 01-.555 1.036 8.306 8.306 0 01-4.044.522c.017.152.032.309.032.466zm23.621 20.178a14.133 14.133 0 01-7.499 4.214c-.9.183-1.817.276-2.736.276a14.095 14.095 0 01-5.837-1.282 13.815 13.815 0 01-4.017-2.78.744.744 0 01-.211-.733.87.87 0 01.593-.594.731.731 0 01.712.202 12.51 12.51 0 0014.354 2.273 12.662 12.662 0 003.498-2.647.738.738 0 01.707-.231.871.871 0 01.617.575.745.745 0 01-.181.745v-.018zm4.685-20.389c-1.313.43-2.689.639-4.071.618a.036.036 0 000 .02c0 .158.03.32.03.481 0 .16 0 .335-.03.499a.61.61 0 01-.027.178 3.438 3.438 0 01-.103.448 2.094 2.094 0 01-.359.676.965.965 0 01-.235.202.294.294 0 01-.107.056.78.78 0 01-.261.05.83.83 0 01-.273-.07 1.115 1.115 0 01-.243-.172.641.641 0 01-.101-.098 2.254 2.254 0 01-.383-.704 3.244 3.244 0 01-.116-.465 3.881 3.881 0 01-.044-.517 1.5 1.5 0 01.053-.457c.021-.116.059-.23.113-.335a11.805 11.805 0 01-1.855-.499.853.853 0 01-.593-1.006.833.833 0 011.006-.593 10.91 10.91 0 007.122.11c1.015-.336 1.492 1.252.477 1.587v-.009zm-9.047-9.988c.202-.08 5.012-1.884 10.22 1.668a.997.997 0 01-1.122 1.647c-4.315-2.944-8.22-1.52-8.383-1.46a.995.995 0 01-.715-1.855zm-11.632 23.74l2.67-14.404a.508.508 0 01.207-.32.496.496 0 01.77.5l-2.671 14.404a.32.32 0 00.297.377h4.655a.5.5 0 01.496.298.507.507 0 01-.118.565.505.505 0 01-.378.131h-4.647a1.311 1.311 0 01-1.269-.981 1.308 1.308 0 01-.021-.57h.009zm-13.36-23.081c.181-.119 4.511-2.887 10.345-.499a.996.996 0 01-.754 1.843c-4.834-1.98-8.356.228-8.502.32a.994.994 0 11-1.089-1.664zm10.557 129.338c.024.026.05.05.077.077-.027-.027-.053-.051-.077-.077z" fill="#fff"/><path d="M637.312 437.314l12.463 1.599c.632-.347 1.264-.7 1.899-1.038.796-.427 1.6-.84 2.401-1.255l-5.009-.567-7.62-159.187v-.056a135.945 135.945 0 01-5.935-.938c-6.623-1.187-11.362-2.587-14.606-3.774l16.407 165.216zm-43.094-312.476a.121.121 0 000 .038c.009.029.011.029 0-.038zm-.008-.068v.069a.794.794 0 010-.069zm62.761 43.604c.736.199 1.463.424 2.169.691a13.29 13.29 0 01-2-3.745 120.644 120.644 0 00-.169 3.054z" fill="#fff"/><path d="M736.863 152.936a132.922 132.922 0 00-12.858-24.926c-4.546-6.994-9.739-13.508-15.703-18.956-5.799-5.297-11.386-10.166-18.588-12.306a17.056 17.056 0 00-3.354-.789c-1.243 4.81-15.403 17.057-18.38 19.585l-.442.374-.386-.428c-1.267-1.391-11.614-12.851-13.267-17.961h-.03a86.232 86.232 0 00-14.816 5.341c-4.724 2.22-9.32 4.822-13.353 8.169-2.303 1.914-4.451 4-6.638 6.06 1.43.593 2.872 1.16 4.303 1.751l10.914 4.51 21.828 9.021 6.285 2.596c.335.14.356.564.243.846-.347.89-.771 1.748-1.05 2.644-.68 2.199-1.155 4.519-1.638 6.775a138.966 138.966 0 00-2.196 13.398c.822-.544 1.849.296 2.495.89a27.03 27.03 0 012.428 2.691l2.546 3.009 5.73 6.772.044.056c.084-.791.174-1.582.27-2.374.146-1.187.443-4.154.443-4.154s2.498.255 3.43.389l3.668.534 7.418 1.077 14.757 2.166 3.665.534c.89.131 2.13.52 2.935-.124 1.124-.891.56-3.069.175-4.262a29.49 29.49 0 00-1.336-3.121 748.307 748.307 0 00-1.706-3.766 3726.245 3726.245 0 00-3.412-7.534l-3.33-7.356c-.43-.947.798-1.819 1.232-.867l6.742 14.888 1.706 3.768c.48 1.057 1 2.101 1.389 3.208.56 1.591.943 3.561.296 5.175-.16.403-.407.766-.724 1.062-.316.297-.694.52-1.107.653-1.089.33-2.276.018-3.368-.142l-7.157-1.039-14.49-2.107-7.332-1.068c-.715-.104-2.134-.243-2.134-.243s-.234 1.991-.297 2.564c-.083.65-.157 1.299-.228 1.949a108.837 108.837 0 00-.594 8.205c-.05 1.374-.074 2.754-.077 4.131 0 .937.247 3.641.247 3.641s1.712.261 2.442.35l3.682.457 7.279.89 14.561 1.801c4.819.594 9.642 1.205 14.461 1.781 4.819.575 9.578 1.098 14.389 1.089 3.51 0 7.353-.178 10.451-2.267a8.398 8.398 0 003.264-4.267c.727-2.131.739-4.493.614-6.745-.555-9.641-2.958-19.149-6.341-27.998zM678.2 190.299l-3.686-.454c-.937-.116-4.195-.419-4.195-.419s.029-.531.05-1.207a35.191 35.191 0 01-12.525.139l-.333 20.134-.095 5.834a.626.626 0 01-.61.633.621.621 0 01-.313-.072 356.543 356.543 0 00-37.739-20.472l-.594-.279-2.329 74.52c1.157.701 6.929 3.858 19.992 6.214 13.062 2.356 36.101 4.318 72.769.78a.717.717 0 01.336-.056.15.15 0 01.086.018c1.206-.119 2.428-.242 3.664-.371l-.747-78.808-.161-1.965-3.949-.498-29.621-3.671zm-66.729-56.986a230.918 230.918 0 01-3.911 10.558c-.686 1.73-1.345 3.493-2.184 5.154-.873 1.73-2.033 3.348-3.707 4.377a.83.83 0 01-.727.063.832.832 0 01-.504-.529 81.26 81.26 0 01-1.267-4.015.797.797 0 01-.018-.4c-1.249-4.451-2.246-9-3.139-13.546a246.413 246.413 0 01-1.757-9.986c0-.05-.018-.104-.024-.157-.006-.053 0-.036 0-.059-.033-.161-.059-.321-.092-.481-.104-.561-.211-1.125-.314-1.688-2.725.439-5.401 1.207-8.078 1.851l-10.952 2.644c-.819.199-1.627.436-2.434.68.54 2.231.813 4.519 1.205 6.78a235.192 235.192 0 006.899 28.775 232.257 232.257 0 003.101 9.368c.991 2.796 1.968 5.638 3.196 8.327 1.973 4.35 5.172 9.041 10.484 9.03a13.316 13.316 0 004.528-.891c.817-.28 1.605-.636 2.356-1.062l3.778-2.234.083-.048c1.682-8.763 2.175-17.703 2.442-26.612.246-8.65.306-17.297 1.036-25.899z" fill="#FF8025"/></svg>