<svg width="759" height="471" viewBox="0 0 759 471" fill="none" xmlns="http://www.w3.org/2000/svg">
<path d="M574.317 182.803C576.86 183.049 577.691 183.99 577.478 186.435L576.291 200.18C576.113 202.257 574.988 203.352 573.216 203.174C571.501 203.002 570.611 201.649 570.78 199.572C571.152 195.053 571.517 190.535 571.875 186.016C571.994 184.429 572.662 183.239 574.317 182.803Z" fill="#EC6A14"/>
<path d="M558.559 129.115C560.485 128.987 561.595 129.954 562.096 131.744L559.218 145.797C559.138 146.298 559.028 146.794 558.889 147.281C558.366 148.806 557.251 149.528 555.678 149.243C554.049 148.946 553.227 147.735 553.509 146.204C554.429 141.192 555.449 136.195 556.607 131.233C556.797 130.406 557.886 129.809 558.559 129.115Z" fill="#EC6913"/>
<path d="M564.497 165.461C566.835 165.497 569.177 165.508 571.518 165.568C573.509 165.624 574.681 166.672 574.702 168.336C574.72 170.069 573.471 171.155 571.376 171.141C566.699 171.113 562.02 171.061 557.34 170.986C555.366 170.957 554.245 169.85 554.286 168.132C554.328 166.413 555.438 165.461 557.482 165.461C559.818 165.461 562.159 165.529 564.497 165.565V165.461Z" fill="#EC6B15"/>
<path d="M560.104 188.949C560.139 191.539 557.923 193.035 556.139 191.86C551.798 189.041 547.557 186.062 543.344 183.053C542.097 182.162 541.991 180.762 542.804 179.492C543.694 178.118 545.115 177.711 546.433 178.602C550.747 181.459 554.988 184.441 559.193 187.447C559.733 187.845 559.946 188.688 560.104 188.949Z" fill="#EC6911"/>
<path d="M531.754 198.227C532.843 198.746 533.505 198.962 534.06 199.339C537.87 201.939 541.666 204.558 545.449 207.197C547.102 208.354 547.526 210.058 546.573 211.414C545.621 212.77 544.021 212.924 542.386 211.805C538.467 209.135 534.566 206.445 530.683 203.737C529.552 202.951 528.799 201.793 529.472 200.497C529.947 199.577 530.98 198.954 531.754 198.227Z" fill="#EC6912"/>
<path d="M532.727 171.549C532.172 170.976 531.024 170.315 530.837 169.442C530.65 168.57 531.075 166.935 531.772 166.51C536.187 163.807 540.719 161.297 545.282 158.846C546.582 158.145 547.915 158.611 548.719 159.943C549.523 161.276 549.288 162.73 548.036 163.478C543.541 166.148 538.926 168.659 534.345 171.193C534.027 171.383 533.615 171.368 532.727 171.549Z" fill="#EC6911"/>
<path d="M611.779 214.329C614.117 214.364 616.456 214.382 618.791 214.433C620.61 214.462 621.794 215.554 621.812 217.103C621.83 218.652 620.666 219.774 618.83 219.789C614.03 219.803 609.232 219.778 604.435 219.715C602.423 219.685 601.331 218.611 601.372 216.89C601.414 215.169 602.601 214.201 604.58 214.219C606.981 214.234 609.378 214.293 611.779 214.329Z" fill="#EC670E"/>
<path d="M545.369 241.054C545.708 236.834 546.013 232.615 546.387 228.401C546.571 226.306 547.764 225.255 549.548 225.433C551.192 225.606 552.091 226.828 551.922 228.888C551.548 233.608 551.137 238.325 550.69 243.039C550.524 244.837 549.295 245.917 547.723 245.778C546.191 245.642 545.266 244.502 545.272 242.748L545.295 241.045L545.369 241.054Z" fill="#EC6911"/>
<path d="M599.346 192.816C598.575 193.472 597.803 194.532 596.785 194.894C595.37 195.392 594.26 194.508 593.702 193.113C592.06 189.021 590.428 184.925 588.806 180.825C587.726 178.092 588.046 176.484 589.773 175.781C591.584 175.056 592.88 175.941 593.978 178.703C595.515 182.567 597.042 186.436 598.557 190.309C598.782 190.968 598.961 191.635 599.346 192.816Z" fill="#EC6A14"/>
<path d="M560.736 226.25C561.033 225.873 561.493 224.879 562.25 224.428C566.425 221.959 570.665 219.606 574.912 217.259C576.514 216.392 578.096 216.775 578.888 218.113C579.737 219.553 579.28 221.137 577.6 222.102C573.444 224.477 569.273 226.825 565.087 229.146C562.983 230.309 560.722 229.069 560.736 226.25Z" fill="#EC6913"/>
<path d="M549.549 137.597C549.5 137.587 549.449 137.587 549.4 137.597C549.216 137.624 549.031 137.635 548.845 137.63H548.721L548.513 137.579H548.451L548.394 137.547C548.339 137.517 548.284 137.485 548.231 137.452C548.135 137.379 548.047 137.296 547.97 137.203L547.916 137.125C547.878 137.063 547.839 137.004 547.804 136.938C547.738 136.824 547.687 136.703 547.652 136.576C547.545 136.26 547.475 135.932 547.445 135.6C547.27 133.915 547.587 132.188 547.997 130.556C548.423 128.786 549.051 127.072 549.869 125.446C550.246 124.713 550.664 123.843 551.445 123.469C551.822 123.312 552.234 123.254 552.64 123.3C553.046 123.347 553.433 123.497 553.765 123.736C554.46 124.217 554.656 125.199 554.656 126.027C554.671 126.568 554.61 127.109 554.474 127.633C553.88 128.774 553.295 129.919 552.718 131.069C551.638 133.2 550.593 135.401 549.549 137.597Z" fill="white"/>
<path d="M447.163 97.847C448.166 98.097 449.772 98.467 451.341 98.933C453.041 99.4369 454.724 99.9982 456.386 100.616C457.211 100.912 457.79 100.693 458.407 100.176C460.781 98.17 463.155 96.135 465.629 94.242C466.582 93.512 467.763 93.055 468.894 92.601C469.736 92.265 470.226 92.719 470.259 93.621C470.342 95.88 470.419 98.135 470.511 100.39C470.582 102.28 470.615 104.173 470.808 106.049C470.849 106.482 471.368 106.99 471.811 107.236C474.55 108.826 477.342 110.319 480.084 111.921C480.815 112.366 481.462 112.937 481.995 113.607C482.885 114.714 482.837 115.221 481.562 115.791C479.579 116.681 477.508 117.387 475.449 118.088C474.205 118.512 472.932 118.847 471.641 119.091C470.751 119.26 470.585 119.684 470.505 120.509C470.256 123.269 469.911 126.025 469.523 128.785C469.38 129.554 469.134 130.3 468.79 131.002C468.161 132.432 467.256 132.782 466.072 131.782C464.262 130.248 462.544 128.609 460.926 126.874C459.757 125.551 458.662 124.164 457.647 122.72C456.938 121.767 456.006 122.298 455.273 122.423C451.105 123.15 446.874 123.459 442.644 123.346H442.273C439.635 123.186 438.935 121.993 440.493 119.907C442.795 116.818 445.258 113.85 447.733 110.895C448.454 110.031 448.834 109.461 448.187 108.248C446.932 105.903 445.988 103.39 444.959 100.93C444.817 100.502 444.756 100.051 444.778 99.6C444.73 98.02 444.941 97.832 447.163 97.847ZM449.471 221.12C449.023 218.497 448.58 216.218 448.284 213.915C448.183 213.162 448.459 212.361 448.563 211.58C449.296 211.723 450.12 211.696 450.744 212.037C452.821 213.18 454.821 214.5 456.91 215.642C457.474 215.891 458.114 215.907 458.69 215.687C461.658 214.47 464.53 213.016 467.53 211.918C469.492 211.191 470.038 211.826 469.539 213.82C468.86 216.55 468.228 219.298 467.414 221.987C467.064 223.141 467.56 223.637 468.305 224.313C470.51 226.358 472.705 228.42 474.756 230.61C476.047 231.984 475.625 233.091 473.723 233.414C470.869 233.901 467.987 234.304 465.1 234.536C463.913 234.631 463.441 235.026 463.023 236.091C461.8 239.257 460.447 242.373 459.088 245.483C458.898 245.916 458.373 246.201 458.002 246.557C457.658 246.189 457.159 245.88 456.993 245.447C455.77 242.278 454.569 239.097 453.462 235.886C453.123 234.901 452.672 234.613 451.625 234.539C448.103 234.284 444.536 234.126 441.26 232.58C439.479 231.738 439.138 230.842 440.441 229.316C441.969 227.515 443.776 225.942 445.542 224.361C446.622 223.393 447.862 222.604 449.008 221.708C449.193 221.538 449.349 221.339 449.471 221.12Z" fill="#F2F1F1"/>
<path d="M681.23 51.8531C681.391 52.0541 681.514 52.2831 681.592 52.5271C681.635 52.6691 681.669 52.8121 681.696 52.9571C681.696 53.0201 681.717 53.0851 681.723 53.1501C681.723 53.3071 681.755 53.4701 681.755 53.6311C681.755 53.7911 681.738 53.9661 681.723 54.1291C681.719 54.1892 681.711 54.249 681.699 54.3081C681.672 54.4581 681.636 54.6081 681.592 54.7561C681.518 55.0021 681.397 55.2316 681.236 55.4321C681.169 55.5114 681.09 55.5795 681.002 55.6341C680.97 55.6588 680.934 55.6777 680.895 55.6901C680.81 55.7214 680.721 55.7383 680.631 55.7401C680.537 55.7323 680.444 55.7086 680.358 55.6701C680.27 55.624 680.189 55.5661 680.117 55.4981C680.08 55.4692 680.046 55.4363 680.016 55.4001C679.847 55.1908 679.717 54.9521 679.634 54.6961C679.583 54.5439 679.545 54.3881 679.518 54.2301C679.49 54.0594 679.474 53.887 679.47 53.7141C679.466 53.5597 679.485 53.4057 679.527 53.2571C679.549 53.1231 679.594 52.9931 679.66 52.8741C679.705 52.7751 679.777 52.6908 679.868 52.6311C679.9 52.5969 679.938 52.5699 679.981 52.552C680.024 52.5341 680.07 52.5256 680.117 52.5271C680.217 52.5395 680.313 52.5781 680.393 52.639C680.474 52.6999 680.537 52.781 680.577 52.8741L680.678 53.1141C680.735 53.3071 680.765 53.5071 680.767 53.7081V53.7471L680.743 53.4291C680.749 53.5021 680.76 53.5741 680.776 53.6461L680.711 53.3641C680.727 53.4291 680.748 53.4921 680.773 53.5541L680.672 53.3141C680.699 53.3741 680.731 53.4311 680.767 53.4861L680.637 53.2991C680.674 53.3535 680.719 53.4023 680.77 53.4441L680.616 53.3221C680.659 53.3571 680.71 53.3821 680.764 53.3971L680.592 53.3551C680.635 53.3651 680.68 53.3651 680.723 53.3551L680.551 53.4001C680.589 53.387 680.625 53.3677 680.657 53.3431L680.503 53.4651C680.54 53.4345 680.572 53.3984 680.598 53.3581L680.467 53.5451C680.498 53.5006 680.524 53.453 680.545 53.4031L680.444 53.6431C680.468 53.5769 680.489 53.5094 680.506 53.4411L680.441 53.7231C680.459 53.6359 680.471 53.5477 680.479 53.4591L680.456 53.7761C680.462 53.6842 680.462 53.592 680.456 53.5001L680.479 53.8151C680.471 53.7265 680.458 53.6384 680.441 53.5511L680.506 53.8481C680.49 53.7847 680.47 53.7222 680.447 53.6611L680.548 53.9011C680.527 53.8512 680.501 53.8036 680.47 53.7591L680.604 53.9461L680.577 53.9131C680.497 53.8276 680.435 53.7265 680.396 53.6161C680.336 53.4888 680.297 53.3527 680.28 53.2131C680.258 53.0555 680.258 52.8956 680.28 52.7381C680.283 52.5881 680.309 52.4401 680.358 52.2981C680.411 52.0733 680.549 51.8778 680.743 51.7531C680.827 51.7114 680.923 51.7003 681.014 51.7219C681.105 51.7434 681.186 51.7962 681.242 51.8711L681.23 51.8531ZM656.967 50.9401C657.128 51.1401 657.25 51.3681 657.326 51.6131C657.368 51.7541 657.403 51.8981 657.43 52.0431C657.43 52.1061 657.453 52.1711 657.459 52.2361C657.459 52.3941 657.489 52.5561 657.489 52.7161C657.489 52.8771 657.474 53.0521 657.459 53.2161C657.459 53.2763 657.45 53.3362 657.433 53.3941C657.408 53.5451 657.373 53.6941 657.329 53.8421C657.252 54.0869 657.131 54.3159 656.973 54.5181C656.904 54.5969 656.824 54.665 656.735 54.7201C656.704 54.7461 656.667 54.7652 656.628 54.7761C656.544 54.8078 656.456 54.8247 656.367 54.8261C656.273 54.8183 656.18 54.7947 656.094 54.7561C656.006 54.7095 655.924 54.6514 655.851 54.5831C655.814 54.5545 655.78 54.522 655.75 54.4861C655.582 54.2759 655.452 54.0376 655.367 53.7821C655.317 53.6299 655.278 53.4741 655.252 53.3161C655.225 53.1453 655.21 52.9729 655.207 52.8001C655.202 52.6459 655.22 52.492 655.26 52.3431C655.282 52.2085 655.327 52.0789 655.394 51.9601C655.44 51.861 655.513 51.7768 655.605 51.7171C655.636 51.6826 655.675 51.6554 655.718 51.6374C655.761 51.6195 655.807 51.6111 655.854 51.6131C655.954 51.6253 656.049 51.6639 656.129 51.7249C656.21 51.7858 656.272 51.867 656.311 51.9601L656.412 52.2001C656.472 52.3931 656.502 52.5931 656.501 52.7941V52.8331L656.48 52.5151C656.484 52.5881 656.495 52.6611 656.513 52.7321L656.447 52.4351C656.461 52.5005 656.482 52.5642 656.51 52.6251L656.406 52.3851C656.433 52.4451 656.464 52.5021 656.501 52.5571L656.37 52.3701C656.408 52.4243 656.453 52.4731 656.504 52.5151L656.349 52.3941C656.393 52.4281 656.444 52.4541 656.498 52.4681L656.326 52.4261C656.369 52.4361 656.413 52.4361 656.456 52.4261L656.284 52.4711C656.323 52.4597 656.36 52.4403 656.391 52.4141L656.237 52.5361C656.274 52.5051 656.307 52.4691 656.335 52.4291L656.201 52.6161C656.231 52.5715 656.257 52.524 656.278 52.4741L656.177 52.7141C656.203 52.6484 656.224 52.5809 656.24 52.5121L656.174 52.8091C656.195 52.7221 656.208 52.6341 656.213 52.5451L656.189 52.8621C656.195 52.7702 656.195 52.678 656.189 52.5861L656.213 52.9011C656.206 52.8123 656.193 52.7241 656.174 52.6371L656.24 52.9341C656.225 52.8702 656.205 52.8077 656.18 52.7471L656.281 52.9871C656.261 52.9371 656.236 52.8892 656.207 52.8441L656.338 53.0321L656.314 52.9991C656.232 52.9146 656.169 52.8133 656.13 52.7021C656.07 52.5744 656.031 52.4381 656.014 52.2981C655.992 52.1408 655.992 51.9813 656.014 51.8241C656.018 51.6741 656.044 51.5261 656.091 51.3841C656.145 51.1588 656.284 50.9633 656.48 50.8391C656.564 50.7974 656.66 50.7863 656.751 50.8079C656.842 50.8294 656.923 50.8822 656.979 50.9571L656.967 50.9401ZM579.33 93.2611C579.31 93.3771 579.366 93.3381 579.283 93.2411C579.209 93.1567 579.131 93.0766 579.048 93.0011C578.825 92.8164 578.58 92.6605 578.318 92.5371C577.861 92.3121 577.321 92.1691 576.864 92.4751C576.518 92.7503 576.259 93.1203 576.12 93.5401C576.099 93.58 576.082 93.6219 576.069 93.6651L575.995 93.8701C575.93 94.0537 575.867 94.2384 575.808 94.4241C575.291 96.1365 574.921 97.8898 574.701 99.6651C574.418 101.637 574.319 103.631 574.404 105.621C574.435 106.455 574.539 107.285 574.716 108.101C574.816 108.548 574.953 108.986 575.126 109.41C575.126 109.437 575.191 109.549 575.126 109.44C575.207 109.616 575.299 109.786 575.401 109.95C575.538 110.179 575.716 110.38 575.927 110.543C575.867 110.502 576.048 110.621 576.084 110.641C576.12 110.662 576.212 110.707 576.28 110.739C576.134 110.674 576.321 110.739 576.378 110.766C576.449 110.786 576.521 110.802 576.594 110.814C576.758 110.846 576.529 110.828 576.704 110.814H576.947C576.995 110.814 577.244 110.778 577.09 110.814C577.179 110.814 577.268 110.778 577.357 110.754C577.77 110.647 578.163 110.476 578.523 110.247C579.215 109.84 579.87 110.9 579.179 111.303C577.796 112.113 576.016 112.49 574.796 111.193C573.577 109.897 573.312 107.929 573.185 106.27C573.038 104.037 573.127 101.794 573.449 99.5791C573.674 97.6127 574.092 95.6733 574.698 93.7891C575.09 92.6321 575.669 91.3441 577.013 91.1041C577.84 91.0002 578.676 91.2124 579.354 91.6981C579.998 92.1131 580.678 92.7151 580.523 93.5581C580.381 94.3441 579.173 94.0421 579.315 93.2611H579.33Z" fill="black"/>
<path d="M574.71 96.4369C574.181 96.5369 573.685 96.7669 573.268 97.1079C572.863 97.5149 572.558 98.0109 572.378 98.5559C571.939 99.7823 571.665 101.061 571.562 102.36C571.403 103.957 571.469 105.568 571.758 107.147C571.918 107.974 572.161 108.782 572.485 109.559C572.759 110.305 573.188 110.984 573.743 111.553C574.93 112.648 576.559 112.239 577.369 110.915C577.784 110.236 578.877 110.832 578.458 111.509C577.544 112.993 575.832 113.883 574.12 113.212C572.339 112.524 571.449 110.559 570.906 108.841C569.923 105.477 569.978 101.894 571.063 98.5619C571.289 97.7346 571.703 96.9703 572.271 96.3279C572.847 95.7759 573.567 95.398 574.348 95.2379C575.126 95.0519 575.488 96.2419 574.707 96.4259L574.71 96.4369Z" fill="black"/>
<path d="M571.16 102.433C570.368 102.774 569.952 103.809 569.745 104.676C569.49 105.864 569.414 107.083 569.519 108.293C569.587 109.341 569.685 110.54 570.113 111.507C570.344 111.984 570.691 112.396 571.12 112.707C571.55 113.018 572.05 113.217 572.576 113.287C573.139 113.391 573.719 113.365 574.271 113.211C574.823 113.056 575.332 112.778 575.76 112.397C576.335 111.842 577.243 112.694 576.65 113.255C574.653 115.184 571.041 115.035 569.38 112.741C568.608 111.682 568.433 110.231 568.302 108.964C568.134 107.515 568.189 106.049 568.463 104.617C568.759 103.225 569.403 101.848 570.777 101.26C570.935 101.214 571.105 101.232 571.249 101.31C571.394 101.387 571.503 101.519 571.552 101.676C571.597 101.834 571.578 102.003 571.501 102.147C571.423 102.291 571.292 102.4 571.136 102.45L571.16 102.433Z" fill="black"/>
<path d="M570.111 111.778C569.675 114.585 569.518 117.712 570.704 120.333C571.417 121.896 572.5 122.92 573.583 124.238C574.14 124.863 574.554 125.603 574.797 126.404C575.001 127.175 573.811 127.537 573.61 126.763C573.564 126.596 573.509 126.431 573.443 126.27C573.378 126.104 573.476 126.321 573.396 126.163C573.351 126.08 573.31 125.997 573.262 125.914C573.088 125.612 572.889 125.324 572.669 125.054L572.58 124.947C572.524 124.882 572.47 124.816 572.414 124.754C572.283 124.603 572.15 124.457 572.016 124.303C571.751 124.01 571.49 123.713 571.233 123.413C569.818 121.712 568.928 119.637 568.672 117.439C568.476 115.455 568.554 113.453 568.903 111.49C569.028 110.7 570.233 111.003 570.111 111.786V111.778Z" fill="black"/>
<path d="M680.986 72.791C679.089 74.8368 676.617 76.2603 673.895 76.8743C671.174 77.4883 668.33 77.2641 665.738 76.2311C664.018 75.5447 662.453 74.5194 661.137 73.2161C660.567 72.6521 661.433 71.75 661.994 72.326C663.873 74.181 666.286 75.4006 668.894 75.8135C671.502 76.2264 674.174 75.8118 676.534 74.628C677.868 73.9528 679.073 73.0492 680.095 71.958C680.641 71.364 681.541 72.228 680.986 72.8151V72.791Z" fill="#1B1B1A" stroke="black" stroke-width="0.297" stroke-miterlimit="10"/>
<path d="M685.795 52.5159C683.188 53.3724 680.37 53.3408 677.783 52.4259C677.575 52.3655 677.397 52.2278 677.287 52.041C677.177 51.8543 677.142 51.6324 677.19 51.4209C677.246 51.2097 677.383 51.0291 677.571 50.918C677.76 50.8069 677.984 50.7742 678.196 50.8269C680.491 51.6599 682.998 51.6979 685.318 50.9369C686.333 50.6019 686.801 52.1889 685.798 52.5249L685.795 52.5159ZM661.504 51.7259C660.063 52.2785 658.5 52.4356 656.977 52.181C655.455 51.9264 654.028 51.2693 652.845 50.2779C652.766 50.2029 652.703 50.1131 652.658 50.0136C652.614 49.9142 652.59 49.8069 652.587 49.6981C652.584 49.5893 652.603 49.481 652.642 49.3794C652.681 49.2777 652.74 49.1848 652.815 49.1059C652.89 49.027 652.98 48.9636 653.079 48.9194C653.179 48.8752 653.286 48.851 653.395 48.8482C653.504 48.8454 653.612 48.8641 653.713 48.9031C653.815 48.9422 653.908 49.0009 653.987 49.0759C654.958 49.8654 656.123 50.3804 657.36 50.5671C658.597 50.7539 659.862 50.6057 661.023 50.1379C661.234 50.0756 661.46 50.0989 661.654 50.2028C661.847 50.3068 661.992 50.4829 662.056 50.6929C662.115 50.903 662.091 51.128 661.988 51.3206C661.885 51.5131 661.712 51.6584 661.504 51.7259ZM601.116 151.08C601.078 151.206 601.001 151.317 600.896 151.396C600.792 151.476 600.664 151.521 600.533 151.524C600.401 151.527 600.272 151.489 600.164 151.414C600.055 151.34 599.973 151.233 599.929 151.109C598.351 145.803 597.047 140.419 596.024 134.979C595.368 131.663 594.783 128.334 594.268 124.993C594.268 124.907 594.232 124.818 594.226 124.732C594.226 124.827 594.265 124.946 594.226 124.765L594.137 124.287L593.722 122.073L594.333 122.512C591.434 122.931 588.588 123.762 585.742 124.45L574.792 127.094C573.784 127.345 572.784 127.629 571.795 127.946L572.211 127.171C572.852 129.59 573.134 132.085 573.564 134.551C575.254 144.278 577.558 153.889 580.46 163.326C581.431 166.47 582.466 169.595 583.564 172.697C584.555 175.493 585.532 178.32 586.757 181.024C588.733 185.371 591.929 190.063 597.244 190.051C598.793 190.02 600.324 189.719 601.769 189.16C602.585 188.878 603.374 188.521 604.125 188.095L607.906 185.864L608.223 185.674C608.915 185.267 609.568 186.324 608.879 186.733L605.523 188.689C603.748 189.774 601.804 190.555 599.772 191C596.98 191.564 594.107 191.211 591.719 189.597C589.641 188.202 588.101 186.172 586.891 184.012C585.543 181.611 584.573 179.024 583.626 176.448C582.454 173.29 581.348 170.109 580.309 166.905C577.192 157.286 574.705 147.475 572.861 137.533C572.554 135.876 572.265 134.217 571.994 132.554C571.766 131.154 571.606 129.821 571.279 128.477C571.202 128.154 571.119 127.83 571.033 127.51C570.987 127.352 571.005 127.183 571.083 127.038C571.16 126.893 571.291 126.785 571.448 126.735C574.042 125.931 576.686 125.34 579.324 124.705L590.354 122.035C591.663 121.711 592.985 121.446 594.318 121.242C594.454 121.238 594.588 121.28 594.699 121.36C594.809 121.44 594.89 121.554 594.929 121.685C595.119 122.702 595.336 123.717 595.493 124.741C595.544 125.064 595.591 125.388 595.644 125.711C595.644 125.774 595.662 125.839 595.674 125.901C595.653 125.771 595.674 125.919 595.674 125.97L595.754 126.456L595.932 127.533C596.711 132.208 597.626 136.859 598.677 141.48C599.389 144.59 600.179 147.685 601.11 150.735L599.923 150.765" fill="black"/>
<path d="M590.867 121.699C592.549 120.48 593.903 118.863 594.807 116.992C595.697 115.159 596.267 113.179 596.973 111.268C597.68 109.357 598.677 107.526 598.754 105.437C598.807 103.787 598.217 101.823 596.261 101.728C594.979 101.663 593.772 102.393 592.733 103.057C592.025 103.531 591.391 104.107 590.852 104.767C589.896 105.888 589.025 107.078 588.246 108.328C587.855 108.979 587.507 109.655 587.202 110.351C586.91 110.964 586.673 111.602 586.493 112.256C586.455 112.399 586.422 112.542 586.395 112.687C586.367 112.789 586.355 112.895 586.359 113.001V113.191C586.359 113.253 586.38 113.34 586.359 113.227C586.37 113.279 586.384 113.331 586.401 113.381C586.401 113.381 586.341 113.313 586.401 113.408C586.46 113.503 586.312 113.369 586.418 113.423H586.466C586.593 113.423 586.519 113.423 586.466 113.423H586.579C586.863 113.402 587.144 113.342 587.412 113.245C588.161 112.96 588.869 112.579 589.519 112.111C590.953 111.141 592.41 109.924 593.377 108.485C593.469 108.354 593.552 108.221 593.629 108.084C593.662 108.025 593.694 107.969 593.724 107.909C593.754 107.85 593.828 107.678 593.786 107.785C593.83 107.627 593.932 107.492 594.073 107.408C594.213 107.323 594.38 107.296 594.54 107.331C594.619 107.35 594.694 107.385 594.76 107.434C594.826 107.482 594.881 107.543 594.924 107.613C594.966 107.683 594.994 107.761 595.006 107.842C595.018 107.922 595.014 108.005 594.994 108.084C594.33 109.788 592.763 111.15 591.374 112.268C590.596 112.906 589.758 113.467 588.872 113.942C588.169 114.307 587.374 114.666 586.567 114.666C584.804 114.666 585.021 112.705 585.38 111.532C585.797 110.286 586.339 109.085 586.997 107.948C587.575 106.974 588.218 106.041 588.923 105.155C589.521 104.327 590.193 103.555 590.929 102.847C591.846 102.033 592.896 101.383 594.033 100.924C595.27 100.408 596.677 100.277 597.89 100.924C598.74 101.4 599.377 102.182 599.671 103.111C600.353 105.099 599.873 107.425 599.077 109.304C598.146 111.512 597.439 113.794 596.561 116.022C595.748 118.081 594.641 119.995 593 121.518C592.523 121.958 592.019 122.369 591.493 122.749C590.846 123.221 590.196 122.156 590.84 121.69L590.867 121.699Z" fill="black"/>
<path d="M589.153 104.878C591.58 100.453 593.96 95.9281 595.639 91.1571C596.042 90.0371 596.38 88.8961 596.651 87.7381C596.767 87.2281 596.847 86.7141 596.948 86.2011C597.048 85.7671 597.126 85.3281 597.182 84.8861C597.256 84.478 597.18 84.0569 596.969 83.7001C596.829 83.5312 596.657 83.3917 596.463 83.2898C596.269 83.1878 596.056 83.1254 595.838 83.1061C594.58 82.9931 593.791 84.5361 593.248 85.4151C590.46 89.9331 587.869 94.5705 585.485 99.3141C584.331 101.634 583.201 103.966 582.093 106.308C581.468 107.62 580.844 108.931 580.221 110.243C579.96 110.789 579.696 111.332 579.443 111.881C579.375 112.026 579.47 111.801 579.443 111.899L579.39 112.041L579.256 112.427C578.313 115.258 577.577 118.169 576.808 121.05C576.79 121.124 576.77 121.196 576.752 121.267L575.82 120.587C577.72 119.123 579.523 117.537 581.218 115.839C582.934 114.179 584.489 112.36 585.862 110.406C585.946 110.266 586.08 110.162 586.237 110.117C586.394 110.072 586.562 110.088 586.708 110.163C586.852 110.244 586.958 110.378 587.004 110.536C587.049 110.695 587.03 110.865 586.951 111.009C584.156 115.109 580.39 118.632 576.467 121.638C576.025 121.979 575.405 121.451 575.535 120.958C576.265 118.202 576.995 115.436 577.85 112.712C578.488 110.682 579.529 108.801 580.44 106.884C581.627 104.403 582.797 101.925 584.016 99.4651C586.464 94.5251 589.137 89.7 592.028 85.0051C592.749 83.8361 593.512 82.4681 594.886 81.9901C595.455 81.8137 596.064 81.8212 596.629 82.0115C597.193 82.2018 597.682 82.5653 598.028 83.0501C598.64 83.9401 598.438 85.1061 598.236 86.1031C598.016 87.1951 597.829 88.2811 597.527 89.3531C596.073 94.4741 593.574 99.3171 591.061 103.988C590.79 104.49 590.518 104.991 590.245 105.489C589.859 106.189 588.761 105.593 589.156 104.896L589.153 104.878Z" fill="black"/>
<path d="M589.756 102.544C589.738 102.488 589.705 102.417 589.756 102.512C589.686 102.371 589.605 102.236 589.513 102.108C589.495 102.085 589.406 101.975 589.474 102.055L589.358 101.924C589.277 101.834 589.192 101.748 589.103 101.666C588.737 101.331 588.326 101.049 587.883 100.826C587.45 100.586 586.985 100.41 586.501 100.304C586.382 100.277 586.263 100.257 586.144 100.236C586.026 100.215 586.177 100.236 586.109 100.236H585.94C585.833 100.228 585.726 100.228 585.619 100.236C585.598 100.236 585.432 100.26 585.524 100.236C585.616 100.212 585.432 100.257 585.417 100.263C585.259 100.307 585.09 100.289 584.945 100.211C584.8 100.134 584.691 100.003 584.64 99.8471C584.593 99.689 584.611 99.519 584.688 99.3736C584.766 99.2282 584.898 99.1192 585.055 99.0701C586.207 98.7731 587.468 99.2031 588.483 99.7371C589.498 100.271 590.56 101.073 590.955 102.182C590.977 102.295 590.968 102.413 590.928 102.521C590.888 102.629 590.818 102.725 590.727 102.796C590.636 102.867 590.528 102.912 590.413 102.925C590.298 102.939 590.182 102.92 590.077 102.871C589.937 102.805 589.827 102.688 589.768 102.544H589.756Z" fill="black"/>
<path d="M585.509 96.6701C586.058 95.8801 586.195 94.7641 586.183 93.8261C586.171 92.8891 585.948 91.8031 585.174 91.2661C584.803 90.9981 584.369 90.83 583.914 90.778C583.459 90.726 582.999 90.7918 582.577 90.9691C581.705 91.3871 581.239 92.3571 580.818 93.1791C579.902 94.9963 579.199 96.9134 578.723 98.8921C578.269 100.711 577.913 102.645 578.109 104.53C578.142 104.9 578.218 105.266 578.337 105.619C578.376 105.761 578.434 105.898 578.509 106.025C578.548 106.097 578.592 106.165 578.634 106.233L578.696 106.319C578.794 106.459 578.613 106.233 578.723 106.358C578.773 106.414 578.827 106.467 578.883 106.518C578.954 106.583 579.037 106.637 578.99 106.607C579.052 106.648 579.117 106.684 579.183 106.72C579.331 106.8 579.15 106.72 579.316 106.773L579.548 106.829C579.666 106.853 579.548 106.829 579.687 106.844C579.895 106.85 580.102 106.838 580.307 106.809C580.47 106.805 580.627 106.865 580.747 106.976C580.866 107.087 580.937 107.24 580.945 107.402C580.946 107.564 580.886 107.72 580.775 107.839C580.665 107.958 580.514 108.03 580.352 108.04C579.956 108.109 579.549 108.092 579.16 107.99C578.77 107.888 578.408 107.702 578.097 107.447C577.541 106.92 577.166 106.23 577.028 105.476C576.565 103.423 576.927 101.191 577.387 99.1711C577.889 96.9078 578.667 94.715 579.705 92.6421C580.221 91.6251 580.818 90.5211 581.85 89.9511C582.406 89.6618 583.025 89.5124 583.652 89.5159C584.28 89.5194 584.897 89.6756 585.45 89.9711C586.732 90.6241 587.293 91.9271 587.417 93.3071C587.53 94.5711 587.358 96.1911 586.613 97.2661C586.53 97.4071 586.397 97.5109 586.24 97.5562C586.083 97.6014 585.915 97.5846 585.77 97.5091C585.626 97.4284 585.52 97.2945 585.474 97.1363C585.428 96.9781 585.446 96.8082 585.524 96.6631L585.509 96.6701ZM671.375 188.003C666.739 189.045 661.939 189.132 657.268 188.259C652.547 187.384 648.002 185.741 643.814 183.395C642.308 182.54 640.92 181.492 639.686 180.276C639.11 179.721 639.965 178.822 640.544 179.386C641.499 180.356 642.567 181.208 643.725 181.923C645.699 183.068 647.757 184.06 649.882 184.891C654.161 186.588 658.708 187.513 663.31 187.624C665.899 187.669 668.483 187.4 671.007 186.822C671.782 186.641 672.147 187.831 671.366 188.009L671.375 188.003ZM661.39 171.586C659.161 169.984 656.345 169.47 653.743 168.805C652.377 168.485 651.037 168.063 649.734 167.544C648.409 166.976 647.191 166.184 646.134 165.203C645.081 164.242 644.164 163.144 643.149 162.144C642.61 161.598 642.03 161.093 641.416 160.633C640.989 160.322 640.446 159.969 639.995 159.992L639.799 160.01C639.941 159.992 639.695 160.034 639.663 160.043C639.578 160.064 639.498 160.099 639.425 160.147C639.229 160.289 639.229 160.568 639.197 160.793C639.14 161.21 639.131 161.633 639.17 162.052C639.303 163.601 640.09 165.147 641.042 166.354C642.102 167.705 643.538 168.728 645.004 169.595C646.773 170.59 648.598 171.481 650.47 172.265C651.2 172.589 650.597 173.678 649.876 173.357C646.648 171.93 643.164 170.464 640.701 167.844C639.495 166.578 638.621 165.034 638.155 163.348C637.933 162.512 637.867 161.642 637.962 160.782C638.045 160.049 638.214 159.372 638.921 159.001C639.356 158.802 639.836 158.721 640.312 158.767C640.788 158.813 641.244 158.983 641.633 159.262C642.98 160.138 644.105 161.295 645.194 162.461C646.283 163.627 647.315 164.725 648.627 165.556C649.868 166.298 651.21 166.854 652.612 167.209C655.755 168.099 659.28 168.535 661.995 170.488C662.136 170.571 662.24 170.704 662.285 170.861C662.331 171.017 662.315 171.186 662.241 171.331C662.161 171.475 662.028 171.582 661.869 171.628C661.711 171.674 661.541 171.656 661.396 171.577L661.39 171.586Z" fill="black"/>
<path d="M638.275 161.529C637.925 161.392 637.548 161.337 637.174 161.369C636.874 161.391 636.585 161.494 636.338 161.666C636.24 161.744 636.15 161.83 636.068 161.924C635.983 162.048 635.916 162.183 635.869 162.325C635.757 162.769 635.765 163.235 635.893 163.675C636.29 165.271 637.376 166.642 638.284 167.972C638.769 168.718 639.309 169.427 639.899 170.093C640.542 170.765 641.231 171.392 641.961 171.969C643.57 173.292 645.293 174.469 647.109 175.488C647.807 175.88 647.21 176.972 646.516 176.577C644.694 175.553 642.962 174.377 641.338 173.061C640.526 172.424 639.76 171.73 639.047 170.983C638.384 170.239 637.778 169.445 637.234 168.61C636.237 167.126 635.032 165.612 634.664 163.832C634.439 162.749 634.554 161.535 635.447 160.779C636.341 160.022 637.542 159.965 638.581 160.319C639.332 160.574 639.041 161.784 638.284 161.526L638.275 161.529Z" fill="black"/>
<path d="M644.805 179.571C641.811 177.91 638.823 176.168 636.674 173.438C635.888 172.447 635.2 171.381 634.621 170.257C634.104 169.245 633.603 168.108 633.582 166.954C633.544 166.38 633.725 165.812 634.087 165.365C634.45 164.919 634.968 164.625 635.538 164.544C635.693 164.504 635.858 164.523 636 164.598C636.142 164.673 636.251 164.797 636.306 164.948C636.352 165.106 636.334 165.275 636.256 165.42C636.179 165.565 636.048 165.674 635.891 165.723C635.703 165.754 635.519 165.804 635.342 165.874C635.219 165.933 635.109 166.016 635.018 166.117C634.849 166.371 634.778 166.678 634.819 166.981C634.858 167.93 635.312 168.918 635.76 169.767C636.926 172.025 638.583 173.993 640.609 175.527C642.136 176.616 643.737 177.599 645.398 178.47C646.096 178.859 645.499 179.954 644.805 179.56V179.571Z" fill="black"/>
<path d="M640.188 180.74C638.839 179.663 637.602 178.453 636.494 177.129C635.786 176.339 635.146 175.49 634.58 174.592C634.098 173.883 633.793 173.069 633.689 172.218C633.662 171.786 633.779 171.357 634.022 170.999C634.265 170.641 634.62 170.374 635.031 170.239C635.776 169.942 636.129 171.129 635.39 171.426C635.284 171.469 635.184 171.526 635.093 171.595C635.203 171.509 635.066 171.627 635.04 171.66C634.971 171.749 635.04 171.66 635.04 171.642C635.013 171.679 634.989 171.718 634.968 171.758C634.912 171.865 634.951 171.794 634.951 171.799C634.936 171.859 634.921 171.918 634.909 171.98C634.897 172.043 634.909 171.865 634.909 171.957C634.906 171.991 634.906 172.024 634.909 172.058V172.289C634.909 172.411 634.909 172.313 634.909 172.289C634.909 172.325 634.909 172.363 634.93 172.399C634.951 172.435 634.968 172.55 634.992 172.627C635.047 172.813 635.114 172.994 635.194 173.17C635.355 173.499 635.535 173.817 635.731 174.126C636.769 175.677 637.987 177.099 639.36 178.363C639.884 178.881 640.436 179.371 641.013 179.829C641.074 179.886 641.122 179.954 641.156 180.03C641.189 180.105 641.208 180.187 641.209 180.27C641.211 180.353 641.197 180.435 641.167 180.512C641.138 180.59 641.093 180.66 641.035 180.72C640.978 180.78 640.91 180.828 640.834 180.86C640.758 180.893 640.676 180.911 640.593 180.912C640.427 180.916 640.265 180.854 640.144 180.74H640.188Z" fill="black"/>
<path d="M655.73 168.698C656.129 158.46 657.677 148.299 660.344 138.407C660.692 137.327 661.098 136.267 661.561 135.231L661.807 136.077L645.985 129.549L624.142 120.516C620.958 119.199 617.7 117.991 614.602 116.474L615.507 116.08C614.347 119.961 613.762 124.035 613.266 128.044C612.655 132.976 612.344 137.941 612.142 142.905C611.738 152.787 611.798 162.695 610.99 172.558C610.575 178.112 609.771 183.63 608.584 189.072L608.287 188.375C614.874 191.184 621.376 194.189 627.783 197.387C634.188 200.583 640.495 203.973 646.694 207.553C650.2 209.572 653.671 211.649 657.107 213.785L656.19 214.357L656.525 194.09L656.62 188.259C656.62 187.461 657.878 187.425 657.864 188.226L657.531 208.494L657.433 214.325C657.435 214.434 657.409 214.541 657.356 214.636C657.303 214.732 657.226 214.811 657.133 214.867C657.04 214.923 656.934 214.954 656.825 214.958C656.717 214.961 656.609 214.936 656.513 214.886C650.432 211.103 644.241 207.5 637.949 204.081C631.657 200.662 625.261 197.438 618.771 194.413C615.105 192.701 611.41 191.051 607.688 189.464C607.569 189.396 607.476 189.292 607.422 189.167C607.369 189.041 607.358 188.902 607.391 188.769C609.578 179.063 610.154 169.104 610.447 159.184C610.744 149.312 610.777 139.418 611.857 129.59C612.367 124.967 612.979 120.246 614.314 115.78C614.339 115.689 614.384 115.604 614.446 115.533C614.508 115.461 614.585 115.404 614.672 115.366C614.759 115.329 614.853 115.311 614.948 115.314C615.042 115.317 615.135 115.341 615.219 115.385C617.872 116.685 620.652 117.73 623.382 118.857L634.296 123.368L656.128 132.389L662.41 134.988C662.748 135.128 662.766 135.549 662.656 135.834C662.309 136.706 661.881 137.579 661.606 138.475C660.926 140.674 660.451 142.994 659.965 145.252C658.899 150.222 658.107 155.246 657.591 160.303C657.306 163.083 657.108 165.871 656.997 168.668C656.964 169.463 655.721 169.499 655.754 168.698H655.73Z" fill="black"/>
<path d="M649.976 130.565C650.299 131.675 650.273 132.957 649.288 133.726C648.249 134.542 646.709 134.369 645.557 133.918C644.878 133.654 644.415 133.233 643.845 132.797C643.329 132.454 642.764 132.192 642.169 132.019C641.934 131.917 641.68 131.867 641.424 131.872C641.168 131.877 640.916 131.938 640.685 132.049C640.139 132.346 640.252 132.987 640.169 133.533C640.132 133.871 639.98 134.186 639.739 134.425C639.498 134.665 639.183 134.815 638.845 134.85C638.041 134.921 637.329 134.387 636.691 133.978L632.097 131.01C631.433 130.583 630.569 130.188 630.068 129.562C629.833 129.264 629.704 128.897 629.7 128.518C629.7 128.141 629.821 127.755 629.771 127.378C629.605 126.132 627.901 125.797 626.91 125.639C625.352 125.393 623.812 125.081 622.979 123.601C622.322 122.394 622.023 121.025 622.115 119.654C622.171 118.862 623.415 118.823 623.358 119.621C623.279 120.683 623.471 121.748 623.916 122.716C624.093 123.14 624.385 123.505 624.759 123.77C625.37 124.098 626.041 124.299 626.732 124.363C627.979 124.565 629.266 124.782 630.207 125.708C630.636 126.116 630.916 126.658 630.999 127.245C631.022 127.576 631.007 127.908 630.955 128.236C630.92 128.384 630.933 128.539 630.992 128.678C631.052 128.818 631.154 128.935 631.284 129.013C632.629 129.984 634.088 130.82 635.483 131.717L637.64 133.105C637.937 133.295 638.801 133.969 638.943 133.337C639.071 132.764 638.985 132.203 639.317 131.684C639.639 131.204 640.131 130.862 640.694 130.728C641.244 130.588 641.822 130.605 642.362 130.779C642.96 130.96 643.54 131.197 644.095 131.485C644.688 131.82 645.127 132.358 645.744 132.672C646.34 132.967 647.003 133.101 647.667 133.061C647.896 133.064 648.121 133.008 648.321 132.897C648.521 132.786 648.689 132.625 648.807 132.429C649.029 131.969 648.926 131.417 648.786 130.945C648.563 130.177 649.753 129.814 649.973 130.583L649.976 130.565ZM655.89 437.038C651.195 439.437 646.591 442.01 642.088 444.753C637.606 447.481 633.225 450.371 628.952 453.415C624.664 456.476 620.491 459.694 616.441 463.062C615.952 463.471 615.45 463.875 614.972 464.302C614.542 464.647 614.194 465.083 613.951 465.578C613.5 466.667 614.842 466.869 615.604 466.946C618.447 467.219 621.294 467.431 624.145 467.581C629.818 467.88 635.498 467.93 641.183 467.733C646.889 467.534 652.585 467.086 658.252 466.391C660.314 466.139 662.92 465.979 664.288 464.172C665.383 462.724 665.65 460.733 667.145 459.575C669.113 458.05 671.534 459.474 672.804 461.178C674.074 462.881 674.807 465.249 677.095 465.926C678.997 466.48 681.184 465.896 682.692 464.647C684.448 463.193 685.433 461.017 686.003 458.857C687.291 453.964 687.009 448.611 685.528 443.795C685.162 442.597 684.716 441.425 684.193 440.287C684.113 440.145 684.09 439.978 684.127 439.819C684.165 439.661 684.26 439.522 684.395 439.43C684.536 439.345 684.704 439.318 684.864 439.356C685.025 439.394 685.164 439.492 685.252 439.631C687.519 444.521 688.428 449.931 687.884 455.293C687.407 459.825 685.846 465.273 681.059 466.946C679.036 467.656 676.677 467.525 674.932 466.201C673.979 465.477 673.338 464.439 672.739 463.421C672.139 462.403 671.537 461.344 670.528 460.688C669.697 460.145 668.668 459.946 667.837 460.599C667.151 461.142 666.783 462.044 666.424 462.816C666.009 463.706 665.59 464.626 664.908 465.353C664.096 466.161 663.083 466.736 661.973 467.018C660.783 467.317 659.572 467.523 658.35 467.635C656.894 467.815 655.435 467.978 653.973 468.124C651.025 468.421 648.071 468.651 645.112 468.813C636.287 469.295 627.44 469.179 618.631 468.466C617.293 468.356 615.883 468.335 614.566 468.059C613.477 467.831 612.489 467.047 612.613 465.834C612.738 464.62 613.729 463.727 614.604 462.988C617.734 460.349 620.939 457.801 624.216 455.347C628.549 452.095 633.003 449.009 637.569 446.094C642.161 443.164 646.866 440.414 651.673 437.851C652.844 437.226 654.023 436.61 655.21 436.002C655.92 435.64 656.578 436.697 655.863 437.062L655.89 437.038Z" fill="black"/>
<path d="M643.898 439.358C640.079 440.768 636.263 442.192 632.569 443.91C622.362 448.652 613.028 455.079 604.957 462.923C604.583 463.288 604.206 463.653 603.841 464.026C603.574 464.299 603.123 464.736 603.126 465.154C603.126 465.519 603.53 465.611 603.818 465.673C604.374 465.784 604.937 465.86 605.503 465.902C607.88 466.133 610.275 466.095 612.643 465.786C612.801 465.791 612.952 465.857 613.063 465.97C613.175 466.083 613.239 466.234 613.242 466.392C613.246 466.55 613.19 466.704 613.084 466.822C612.979 466.941 612.833 467.015 612.675 467.029C610.441 467.323 608.181 467.374 605.936 467.184C604.966 467.101 603.835 467.089 602.93 466.694C602.537 466.534 602.22 466.23 602.043 465.844C601.866 465.458 601.843 465.019 601.978 464.617C602.275 463.691 603.082 463.018 603.758 462.362C604.473 461.66 605.197 460.968 605.93 460.285C607.364 458.958 608.836 457.671 610.343 456.427C616.474 451.383 623.176 447.076 630.311 443.593C634.61 441.516 639.064 439.798 643.548 438.145C644.302 437.869 644.655 439.059 643.907 439.332L643.898 439.358ZM693.212 441.023L709.533 276.285C709.539 276.201 709.529 276.116 709.503 276.036C709.476 275.956 709.435 275.881 709.379 275.817C709.324 275.753 709.257 275.701 709.182 275.663C709.106 275.625 709.024 275.602 708.94 275.596C708.855 275.586 708.769 275.592 708.686 275.616C708.604 275.639 708.527 275.679 708.46 275.733C708.393 275.786 708.337 275.852 708.295 275.927C708.254 276.001 708.228 276.084 708.219 276.169L692.011 439.611L650.363 434.863L642.793 276.753C642.776 276.584 642.695 276.427 642.567 276.315C642.438 276.203 642.272 276.145 642.102 276.152C641.932 276.16 641.771 276.233 641.653 276.356C641.535 276.479 641.468 276.642 641.467 276.813L649.087 435.999L693.212 441.023Z" fill="black"/>
<path d="M649.75 440.197L649.919 438.879L637.331 437.265L620.841 271.215L619.521 271.345L636.114 438.446L649.75 440.197ZM683.628 94.397C691.183 95.533 698.444 99.18 704.762 104.026C711.228 108.987 716.869 115.257 721.813 122.127C727.221 129.638 731.851 137.679 735.632 146.127C739.596 154.985 742.585 164.421 743.967 174.246C744.329 176.682 744.565 179.134 744.674 181.594C744.766 183.991 744.62 186.434 743.783 188.659C742.347 192.541 738.887 194.52 735.436 195.297C733.597 195.685 731.723 195.884 729.843 195.891C727.353 195.932 724.863 195.825 722.383 195.633C717.516 195.256 712.664 194.585 707.815 193.986L678.198 190.318L674.515 189.861C673.578 189.745 670.316 189.443 670.316 189.443C670.316 189.443 670.438 187.339 670.364 186.14C670.281 184.828 670.331 183.493 670.364 182.181C670.415 179.394 670.568 176.613 670.821 173.84C670.945 172.463 671.088 171.086 671.26 169.715C671.408 168.528 671.702 165.561 671.702 165.561C671.702 165.561 674.201 165.816 675.135 165.95L678.8 166.484L686.219 167.564L700.97 169.706L704.634 170.24C705.525 170.371 706.765 170.76 707.572 170.116C708.694 169.226 708.133 167.05 707.747 165.855C707.36 164.791 706.914 163.75 706.412 162.736L704.706 158.967L701.293 151.412L697.961 144.056C697.533 143.112 698.762 142.237 699.192 143.19C701.441 148.151 703.69 153.115 705.937 158.08L707.643 161.846C708.121 162.902 708.643 163.947 709.032 165.053C709.59 166.644 709.973 168.614 709.329 170.232C709.168 170.634 708.92 170.997 708.603 171.292C708.286 171.588 707.908 171.811 707.495 171.944C706.409 172.276 705.222 171.962 704.127 171.804L696.97 170.763L682.483 168.656L675.15 167.588C674.432 167.484 673.014 167.344 673.014 167.344C673.014 167.344 672.779 169.335 672.717 169.908C672.119 174.646 671.818 179.417 671.815 184.193C671.815 185.131 672.058 187.834 672.058 187.834C672.058 187.834 673.77 188.095 674.5 188.184L678.183 188.641L685.465 189.532L700.023 191.336L714.486 193.116C719.267 193.71 724.065 194.211 728.872 194.202C732.386 194.202 736.225 194.027 739.326 191.935C740.853 190.909 742 189.41 742.591 187.668C743.318 185.54 743.332 183.175 743.208 180.923C742.677 171.27 740.27 161.766 736.89 152.914C733.494 144.175 729.183 135.82 724.029 127.988C719.483 120.996 714.293 114.48 708.326 109.032C702.528 103.738 695.907 99.489 688.705 97.346C686.966 96.8275 685.194 96.4309 683.4 96.159C683.011 96.099 682.782 95.551 682.868 95.15C682.885 95.0512 682.922 94.957 682.976 94.873C683.031 94.7891 683.102 94.7173 683.186 94.662C683.269 94.6063 683.363 94.5683 683.462 94.5502C683.56 94.5321 683.661 94.5344 683.759 94.557L683.628 94.397ZM653.868 97.534C648.777 98.859 643.817 100.647 639.052 102.875C634.325 105.095 629.728 107.697 625.699 111.045C623.357 112.988 621.17 115.11 618.96 117.199C618.188 117.929 616.98 116.79 617.773 116.054C619.755 114.181 621.719 112.285 623.788 110.511C625.832 108.751 628.006 107.148 630.292 105.715C634.857 102.91 639.688 100.561 644.714 98.703C647.558 97.6321 650.456 96.7108 653.396 95.943C654.426 95.671 654.91 97.258 653.877 97.531L653.868 97.534ZM613.925 125.841C612.678 129.872 611.328 133.87 609.875 137.832C609.133 139.855 608.363 141.869 607.566 143.871C606.881 145.601 606.225 147.36 605.385 149.022C604.513 150.752 603.35 152.372 601.676 153.399C601.567 153.463 601.446 153.503 601.32 153.514C601.194 153.524 601.068 153.506 600.95 153.461C600.832 153.416 600.725 153.346 600.638 153.255C600.551 153.163 600.486 153.053 600.447 152.933C599.988 151.606 599.565 150.267 599.177 148.918C598.881 147.891 600.471 147.411 600.765 148.437C601.161 149.787 601.584 151.125 602.035 152.452L600.804 151.986C602.148 151.162 603.062 149.883 603.771 148.506C604.574 146.881 605.292 145.215 605.922 143.515C607.429 139.737 608.838 135.92 610.148 132.069C610.898 129.869 611.615 127.66 612.299 125.44C612.614 124.425 614.225 124.817 613.911 125.841H613.925Z" fill="black"/>
<path d="M609.14 186.426C609.169 186.359 609.183 186.286 609.182 186.213C610.037 181.693 610.644 177.13 610.998 172.545C611.805 162.681 611.746 152.776 612.149 142.891C612.348 137.927 612.663 132.962 613.274 128.034C613.274 127.971 613.274 127.906 613.298 127.844C613.511 127.173 613.728 126.499 613.936 125.826C613.99 125.679 613.993 125.518 613.946 125.368C613.898 125.219 613.801 125.09 613.672 125.001C614.039 122.232 614.587 119.49 615.313 116.793C617.538 117.843 619.835 118.757 622.123 119.677C622.038 121.035 622.337 122.389 622.986 123.585C623.82 125.069 625.36 125.366 626.918 125.621C627.909 125.781 629.613 126.114 629.779 127.36C629.829 127.74 629.699 128.123 629.707 128.502C629.711 128.881 629.84 129.247 630.075 129.544C630.577 130.17 631.44 130.565 632.105 130.992L636.699 133.959C637.337 134.369 638.049 134.903 638.853 134.832C639.192 134.794 639.508 134.64 639.747 134.396C639.986 134.153 640.134 133.834 640.165 133.494C640.248 132.962 640.135 132.327 640.681 132.025C640.911 131.913 641.163 131.852 641.42 131.847C641.676 131.842 641.93 131.892 642.165 131.995C642.759 132.168 643.325 132.431 643.841 132.772C644.352 133.23 644.929 133.608 645.553 133.894C646.705 134.345 648.245 134.517 649.283 133.701C650.064 133.09 650.242 132.149 650.117 131.229L661.296 135.867C660.922 136.692 660.603 137.541 660.34 138.408C657.738 148.079 656.205 158.007 655.77 168.013C654.705 167.749 653.64 167.509 652.616 167.218C651.214 166.864 649.872 166.307 648.631 165.565C647.319 164.734 646.257 163.598 645.197 162.47C644.138 161.343 642.981 160.147 641.636 159.271C641.247 158.992 640.79 158.82 640.314 158.775C639.837 158.729 639.356 158.81 638.921 159.01C638.698 159.13 638.505 159.299 638.357 159.505C638.209 159.71 638.11 159.947 638.067 160.197C637.615 160.097 637.146 160.099 636.694 160.202C636.243 160.304 635.82 160.506 635.455 160.791C634.565 161.55 634.446 162.761 634.672 163.844C634.737 164.147 634.825 164.445 634.936 164.734C634.513 164.923 634.159 165.237 633.919 165.633C633.68 166.029 633.566 166.489 633.595 166.951C633.616 168.105 634.117 169.242 634.63 170.254L634.713 170.402C634.385 170.575 634.115 170.839 633.935 171.164C633.755 171.488 633.674 171.857 633.702 172.227C633.805 173.078 634.11 173.892 634.592 174.601C635.157 175.499 635.797 176.348 636.506 177.138C637.611 178.457 638.844 179.663 640.185 180.741C641.289 181.772 642.511 182.668 643.826 183.411C647.825 185.648 652.148 187.25 656.64 188.159C656.63 188.199 656.625 188.24 656.625 188.281L656.527 194.112C656.424 200.494 656.319 206.877 656.212 213.26C653.076 211.318 649.91 209.422 646.717 207.575C640.513 203.999 634.205 200.609 627.799 197.409C624.463 195.744 621.099 194.135 617.71 192.581C617.647 192.533 617.574 192.499 617.497 192.483C614.583 191.141 611.651 189.839 608.701 188.578C608.855 187.839 609.007 187.132 609.14 186.426Z" fill="#303030"/>
<path d="M645.934 129.498L648.724 130.652C648.717 130.731 648.725 130.81 648.747 130.886C648.884 131.358 648.991 131.91 648.768 132.37C648.649 132.565 648.481 132.725 648.281 132.835C648.081 132.946 647.856 133.002 647.628 132.999C646.964 133.043 646.301 132.909 645.706 132.611C645.088 132.314 644.652 131.774 644.056 131.438C643.501 131.149 642.919 130.913 642.32 130.732C641.781 130.557 641.203 130.539 640.655 130.682C640.091 130.814 639.599 131.155 639.278 131.637C638.946 132.157 639.032 132.717 638.904 133.287C638.762 133.922 637.898 133.249 637.602 133.056C636.88 132.597 636.16 132.135 635.444 131.67C634.05 130.78 632.59 129.934 631.245 128.967C631.115 128.889 631.014 128.771 630.954 128.631C630.895 128.492 630.882 128.337 630.916 128.189C630.968 127.861 630.983 127.529 630.961 127.198C630.877 126.611 630.598 126.07 630.168 125.661C629.228 124.735 627.94 124.515 626.693 124.317C626.002 124.254 625.331 124.052 624.72 123.723C624.345 123.459 624.052 123.094 623.877 122.67C623.511 121.88 623.317 121.021 623.308 120.15L624.103 120.474L645.934 129.498ZM579.285 93.3571C578.431 95.2145 577.777 97.1569 577.332 99.1521C576.872 101.17 576.51 103.401 576.973 105.455C577.11 106.209 577.484 106.899 578.041 107.425C578.54 107.84 579.173 108.06 579.822 108.042C579.48 108.731 579.142 109.419 578.822 110.12C578.712 110.119 578.604 110.149 578.51 110.206C578.251 110.368 577.977 110.503 577.691 110.609C577.504 110.678 577.311 110.73 577.115 110.766L576.934 110.784H576.581C576.507 110.769 576.436 110.758 576.365 110.737L576.219 110.683C576.169 110.66 576.118 110.639 576.071 110.612L575.905 110.505C575.697 110.341 575.522 110.14 575.388 109.912C575.289 109.759 575.202 109.6 575.127 109.434L575.098 109.372C575.064 109.294 575.032 109.214 575.003 109.134C574.874 108.785 574.769 108.427 574.688 108.063C574.517 107.246 574.417 106.416 574.391 105.582C574.261 101.799 574.735 98.0197 575.795 94.3861C575.854 94.2021 575.917 94.0161 575.982 93.8351C576.006 93.7631 576.032 93.6951 576.056 93.6271L576.083 93.5551L576.104 93.5051C576.245 93.0851 576.505 92.7151 576.851 92.4401C577.308 92.1431 577.848 92.2741 578.305 92.5021C578.568 92.6241 578.813 92.7801 579.035 92.9651C579.119 93.0381 579.197 93.1191 579.267 93.2051C579.289 93.2251 579.305 93.2531 579.311 93.2831C579.293 93.3036 579.284 93.33 579.285 93.3571Z" fill="white"/>
<path d="M580.431 106.787C580.377 106.777 580.322 106.777 580.268 106.787C580.063 106.817 579.855 106.829 579.648 106.823C579.49 106.823 579.627 106.823 579.508 106.805C579.39 106.787 579.354 106.769 579.277 106.749L579.206 106.734L579.143 106.695C579.08 106.663 579.019 106.628 578.959 106.591C578.859 106.514 578.766 106.428 578.683 106.333L578.669 106.31L578.606 106.223C578.562 106.156 578.52 106.087 578.482 106.016C578.407 105.888 578.349 105.752 578.309 105.609C578.191 105.256 578.114 104.891 578.078 104.52C577.885 102.636 578.241 100.704 578.695 98.8821C579.172 96.9051 579.874 94.9893 580.787 93.1721C581.212 92.3511 581.677 91.3921 582.55 90.9621C582.972 90.785 583.432 90.7193 583.887 90.7713C584.341 90.8233 584.775 90.9913 585.146 91.2591C585.921 91.7961 586.143 92.8941 586.155 93.8191C586.17 94.4243 586.101 95.0286 585.951 95.6151C585.28 96.8851 584.625 98.1651 583.986 99.4551C582.766 101.864 581.6 104.318 580.431 106.787ZM570.875 108.815C571.406 110.53 572.299 112.498 574.088 113.186H574.106C573.594 113.306 573.064 113.324 572.545 113.239C572.02 113.169 571.52 112.969 571.091 112.659C570.662 112.348 570.316 111.936 570.085 111.459C569.646 110.492 569.548 109.293 569.492 108.245C569.386 107.034 569.462 105.814 569.717 104.625C569.821 104.17 569.983 103.73 570.201 103.316C570.117 105.174 570.345 107.033 570.875 108.815ZM588.441 99.7021C587.579 99.2046 586.6 98.9444 585.604 98.9481C585.862 98.4381 586.121 97.9281 586.382 97.4201C586.451 97.3687 586.511 97.3066 586.56 97.2361C586.81 96.8611 586.999 96.4481 587.118 96.0131C589.024 92.3971 591.055 88.8483 593.207 85.3731C593.75 84.4821 594.539 82.9481 595.798 83.0611C596.238 83.1011 596.645 83.3141 596.928 83.6541C597.139 84.0111 597.215 84.4331 597.142 84.8411C597.086 85.2831 597.008 85.7211 596.907 86.1561C596.809 86.6691 596.729 87.1861 596.611 87.6961C596.341 88.853 596.004 89.9932 595.602 91.1111C594.305 94.7971 592.587 98.3341 590.756 101.794C590.278 100.868 589.343 100.177 588.441 99.7021ZM581.168 115.807C579.894 117.075 578.563 118.283 577.177 119.427C577.803 117.053 578.435 114.697 579.206 112.383L579.34 111.997L579.393 111.857C579.649 111.309 579.913 110.765 580.174 110.219C580.797 108.908 581.421 107.596 582.046 106.285C583.007 104.257 583.985 102.237 584.978 100.225C585.103 100.271 585.239 100.277 585.367 100.243L585.48 100.219H585.572C585.678 100.213 585.785 100.213 585.892 100.219H586.082C586.204 100.24 586.322 100.258 586.441 100.285C586.925 100.393 587.39 100.57 587.824 100.81C588.376 101.085 588.876 101.456 589.299 101.905L589.394 102.012L589.453 102.089C589.516 102.175 589.573 102.265 589.625 102.359C589.643 102.388 589.658 102.421 589.676 102.454C589.693 102.486 589.693 102.498 589.702 102.528C589.737 102.626 589.795 102.714 589.87 102.786C589.945 102.858 590.036 102.912 590.135 102.943C589.792 103.584 589.445 104.223 589.094 104.86L588.883 105.13C588.181 106.019 587.538 106.953 586.957 107.926C586.478 108.768 586.056 109.64 585.693 110.537C584.349 112.428 582.834 114.192 581.168 115.807Z" fill="white"/>
<path d="M573.167 106.227C573.303 107.901 573.585 109.871 574.778 111.153C575.148 111.556 575.635 111.832 576.17 111.942C575.766 112.129 575.314 112.189 574.875 112.113C574.436 112.037 574.031 111.83 573.713 111.518C573.158 110.949 572.73 110.269 572.455 109.524C572.131 108.747 571.888 107.939 571.728 107.112C571.437 105.534 571.371 103.922 571.532 102.325C571.635 101.027 571.909 99.747 572.348 98.521C572.526 97.9745 572.831 97.4781 573.238 97.0729C573.437 96.8929 573.666 96.7489 573.915 96.6479C573.721 97.6044 573.563 98.5678 573.44 99.5359C573.115 101.751 573.023 103.993 573.167 106.227Z" fill="white"/>
<path d="M637.548 446.032C632.976 448.948 628.515 452.035 624.176 455.287C621.99 456.929 619.833 458.611 617.708 460.332C616.654 461.188 615.607 462.053 614.568 462.928C613.696 463.664 612.699 464.542 612.577 465.753C610.215 466.06 607.826 466.098 605.455 465.866C604.889 465.821 604.327 465.745 603.77 465.637C603.473 465.575 603.078 465.48 603.075 465.118C603.075 464.697 603.526 464.264 603.793 463.991C604.158 463.614 604.535 463.249 604.909 462.884C612.982 455.043 622.316 448.616 632.521 443.871C636.162 442.18 639.919 440.774 643.681 439.385L647.77 439.91C644.308 441.858 640.899 443.899 637.548 446.032Z" fill="white" stroke="black" stroke-width="0.593" stroke-miterlimit="10"/>
<path d="M614.924 464.25C615.402 463.825 615.901 463.422 616.393 463.012C620.446 459.646 624.619 456.427 628.904 453.362C633.17 450.31 637.551 447.422 642.038 444.704C646.543 441.964 651.148 439.39 655.842 436.988C655.93 436.948 656.004 436.884 656.057 436.803C656.11 436.722 656.138 436.628 656.139 436.531L684.059 439.884C684.06 439.999 684.086 440.113 684.136 440.217C684.659 441.356 685.105 442.529 685.472 443.727C686.955 448.54 687.234 453.894 685.946 458.787C685.377 460.95 684.391 463.122 682.635 464.576C681.127 465.828 678.94 466.413 677.038 465.858C674.75 465.19 674.041 462.852 672.747 461.11C671.454 459.368 669.056 457.983 667.088 459.505C665.605 460.662 665.326 462.656 664.231 464.104C662.863 465.909 660.257 466.072 658.192 466.324C644.04 468.063 629.74 468.248 615.548 466.876C614.776 466.802 613.444 466.6 613.895 465.508C614.142 465.019 614.493 464.589 614.924 464.25Z" fill="white" stroke="black" stroke-width="0.593" stroke-miterlimit="10"/>
<path d="M576.631 113.201C576.678 113.157 576.717 113.106 576.747 113.049C577.237 112.804 577.672 112.459 578.023 112.038C577.949 112.248 577.875 112.462 577.806 112.676C576.952 115.4 576.222 118.162 575.492 120.922C575.361 121.415 575.981 121.94 576.423 121.602C579.631 119.2 582.55 116.435 585.121 113.361C585.207 114.064 585.581 114.634 586.527 114.634C587.335 114.634 588.13 114.278 588.833 113.913C589.719 113.438 590.557 112.876 591.332 112.236C592.723 111.121 594.299 109.759 594.955 108.052C594.992 107.892 594.965 107.724 594.881 107.583C594.796 107.443 594.66 107.341 594.501 107.299C594.341 107.266 594.175 107.294 594.035 107.378C593.895 107.462 593.792 107.596 593.747 107.753C593.789 107.649 593.697 107.857 593.685 107.877C593.673 107.898 593.623 107.996 593.59 108.055C593.513 108.192 593.427 108.325 593.338 108.456C592.355 109.895 590.898 111.109 589.48 112.079C588.83 112.547 588.122 112.928 587.373 113.213C587.106 113.313 586.825 113.373 586.539 113.391H586.379C586.308 113.296 586.379 113.364 586.379 113.364C586.379 113.364 586.358 113.281 586.349 113.236C586.348 113.215 586.348 113.195 586.349 113.174V112.984C586.346 112.877 586.358 112.77 586.385 112.667C586.412 112.524 586.444 112.37 586.483 112.239C586.583 111.859 586.708 111.485 586.857 111.121L586.949 110.987C587.008 110.9 587.036 110.795 587.029 110.69C587.082 110.566 587.136 110.444 587.192 110.319C587.497 109.623 587.846 108.947 588.237 108.296C588.826 107.353 589.466 106.442 590.154 105.569L590.168 105.551C590.388 105.275 590.614 105.002 590.842 104.735C591.381 104.074 592.015 103.497 592.723 103.023C593.762 102.358 594.97 101.631 596.252 101.693C598.207 101.791 598.798 103.756 598.744 105.405C598.676 107.483 597.682 109.319 596.964 111.236C596.246 113.153 595.694 115.124 594.798 116.961C593.894 118.831 592.54 120.448 590.857 121.667C590.754 121.741 590.676 121.845 590.634 121.964L590.338 122.035L579.305 124.705C577.741 125.085 576.174 125.447 574.616 125.845C574.355 125.259 574.009 124.714 573.59 124.228C572.509 122.91 571.426 121.886 570.714 120.326C569.732 118.168 569.661 115.667 569.91 113.284C571.679 114.975 574.818 114.949 576.631 113.201ZM674.881 86.812C677.801 86.693 680.753 84.827 683.101 83.699C682.718 85.696 681.599 92.899 685.053 94.975C685.053 95.002 685.035 95.023 685.029 95.05C685 95.1863 685.004 95.3274 685.039 95.4622C685.074 95.5971 685.14 95.7219 685.231 95.827C684.359 98.866 675.845 107.228 667.691 114.243C663.121 109.154 655.86 100.394 654.979 96.916C656.129 96.7212 657.188 96.1687 658.005 95.337C660.029 93.364 661.008 89.919 660.925 85.106C664.591 86.38 668.943 86.956 673.982 86.836C674.287 86.836 674.584 86.824 674.881 86.812ZM670.399 186.949C668.057 187.432 665.667 187.643 663.277 187.579C658.675 187.468 654.129 186.543 649.85 184.846C647.725 184.014 645.667 183.022 643.692 181.878C642.744 181.306 641.864 180.63 641.066 179.863C641.047 179.84 641.026 179.818 641.004 179.798L640.956 179.762L640.502 179.332C640.437 179.267 640.358 179.219 640.271 179.19C639.956 178.911 639.651 178.623 639.351 178.335C637.977 177.072 636.756 175.652 635.713 174.104C635.515 173.795 635.336 173.475 635.176 173.145C635.096 172.97 635.027 172.789 634.971 172.605C634.95 172.528 634.933 172.451 634.912 172.377L634.894 172.282V172.035C634.891 172.005 634.891 171.976 634.894 171.946C634.894 171.89 634.918 171.834 634.933 171.774C634.933 171.774 634.894 171.842 634.95 171.736C634.966 171.705 634.984 171.675 635.004 171.647L635.096 171.555C635.149 171.515 635.206 171.48 635.265 171.451C635.681 172.13 636.136 172.785 636.627 173.412C638.778 176.142 641.767 177.881 644.761 179.546C645.464 179.935 646.06 178.843 645.354 178.457C643.694 177.584 642.095 176.601 640.568 175.513C638.542 173.979 636.885 172.011 635.719 169.753C635.271 168.905 634.829 167.914 634.778 166.967C634.737 166.664 634.807 166.357 634.977 166.103C635.087 165.978 635.227 165.883 635.384 165.827C635.906 166.792 636.571 167.697 637.164 168.584C637.71 169.419 638.317 170.213 638.98 170.958C639.693 171.7 640.458 172.389 641.271 173.02C642.902 174.333 644.643 175.505 646.473 176.522C647.173 176.917 647.77 175.825 647.066 175.433C645.248 174.416 643.524 173.239 641.915 171.917C641.187 171.339 640.499 170.712 639.856 170.041C639.264 169.375 638.725 168.665 638.241 167.917C637.336 166.578 636.247 165.219 635.847 163.623C635.721 163.183 635.714 162.717 635.826 162.273C635.872 162.131 635.938 161.996 636.022 161.872C636.105 161.778 636.196 161.691 636.295 161.614C636.542 161.442 636.831 161.34 637.131 161.317C637.378 161.297 637.626 161.316 637.867 161.373C637.856 162.022 637.935 162.669 638.102 163.296C638.567 164.982 639.441 166.526 640.648 167.792C643.111 170.415 646.583 171.881 649.823 173.305C650.553 173.629 651.155 172.54 650.417 172.216C648.545 171.433 646.72 170.542 644.951 169.546C643.482 168.682 642.048 167.655 640.986 166.305C640.037 165.098 639.25 163.551 639.117 162.002C639.077 161.583 639.086 161.161 639.143 160.744C639.176 160.519 639.176 160.24 639.372 160.097C639.443 160.047 639.524 160.012 639.609 159.994C639.636 159.994 639.778 159.961 639.79 159.955H639.939C640.39 159.928 640.936 160.284 641.363 160.596C641.976 161.057 642.555 161.56 643.096 162.103C644.108 163.106 645.028 164.201 646.081 165.166C647.139 166.145 648.356 166.936 649.681 167.504C650.983 168.024 652.322 168.446 653.687 168.768C656.274 169.424 659.064 169.955 661.283 171.51C661.965 172.206 662.666 172.882 663.387 173.537C663.981 174.08 664.832 173.181 664.245 172.647C662.512 171.05 660.767 169.415 659.497 167.409C658.434 165.724 657.755 163.756 657.865 161.747C657.893 161.25 657.978 160.759 658.117 160.281C658.153 160.16 658.212 159.783 658.334 159.709C658.393 159.67 658.553 159.789 658.663 159.863C659.477 160.483 660.208 161.205 660.838 162.011C663.921 165.623 666.969 169.261 670.037 172.884C670.127 172.97 670.241 173.027 670.364 173.048C670.487 173.069 670.613 173.054 670.727 173.003C670.87 172.939 670.984 172.823 671.046 172.679C671.004 173.029 670.96 173.38 670.924 173.733C670.628 176.505 670.444 179.287 670.372 182.074C670.34 183.386 670.274 184.724 670.372 186.033C670.359 186.338 670.368 186.645 670.399 186.949Z" fill="white"/>
<path d="M671.491 174.573C668.425 170.95 663.983 165.647 660.9 162.039C660.271 161.231 659.54 160.508 658.725 159.888C658.615 159.813 658.455 159.698 658.396 159.733C658.274 159.807 658.215 160.184 658.179 160.306C658.04 160.784 657.956 161.275 657.927 161.772C657.82 163.784 658.499 165.748 659.562 167.437C660.823 169.44 662.568 171.078 664.31 172.671C664.903 173.214 664.04 174.116 663.452 173.561C660.158 170.529 656.591 166.882 656.683 162.066C656.691 161.504 656.756 160.944 656.879 160.395C656.958 159.864 657.153 159.357 657.452 158.911C658.307 157.846 659.529 158.852 660.259 159.505C661.128 160.347 661.94 161.246 662.689 162.196L665.235 165.205L670.963 171.98C671.182 172.238 672.084 173.247 671.838 173.511C671.592 173.775 672.135 174.698 671.906 174.44L671.491 174.573Z" fill="black"/>
<path d="M646.484 38.8359C646.484 38.8359 645.831 68.6699 662.102 85.4029C675.924 99.6169 694.096 69.9879 694.096 69.9879" stroke="black" stroke-width="1.187" stroke-miterlimit="10"/>
<path d="M668.27 51.957L665.6 66.361C665.565 66.5389 665.592 66.7231 665.675 66.8842C665.758 67.0453 665.892 67.1738 666.057 67.249C666.165 67.299 666.284 67.326 666.404 67.325H671.051" stroke="black" stroke-width="0.89" stroke-miterlimit="10" stroke-linecap="round"/>
<path d="M692.911 29.041C692.911 29.041 674.62 49.155 646.056 38.834C646.056 38.834 648.252 69.161 657.006 78.636L661.198 84.025L659.486 86.351C659.486 86.351 646.151 91.327 643.133 83.048C643.133 83.048 640.872 78.828 644.643 75.671L646.818 74.024C646.818 74.024 632.732 47.614 641.329 23.994C649.925 0.37401 671.543 -1.39799 683.608 0.614012C695.674 2.62601 710.828 13.436 711.926 28.771C713.024 44.107 712.52 50.033 709.256 64.039L707.748 69.749C707.748 69.749 713.131 72.419 713.205 78.627C713.279 84.835 704.802 96.903 685.371 81.627C685.371 81.627 698.193 69.499 699.199 47.374C699.196 47.38 690.908 50.407 692.911 29.041Z" fill="black"/>
<path d="M652.293 44.0061C652.293 44.0061 656.296 41.3801 661.714 43.5961M677.105 43.4531C677.105 43.4531 681.557 41.7201 686.405 45.0171" stroke="black" stroke-width="1.78" stroke-miterlimit="10" stroke-linecap="round"/>
<path d="M667.594 115.219L667.668 115.157C668.431 114.507 686.339 99.2249 685.959 95.2189C685.951 95.0576 685.901 94.9012 685.814 94.7648C685.727 94.6285 685.607 94.5169 685.464 94.4409C681.761 92.3409 683.651 84.5539 683.683 84.4709H683.387C683.307 84.8179 681.562 92.4439 685.393 94.6159C685.507 94.6767 685.603 94.7661 685.672 94.8753C685.742 94.9845 685.781 95.1098 685.787 95.2389C686.146 99.0169 668.915 113.851 667.639 114.946C666.645 113.845 654.695 100.545 654.395 96.4799C655.632 96.4162 656.798 95.8859 657.659 94.9959C659.659 93.0429 660.585 89.5269 660.416 84.5449H660.217C660.383 89.3969 659.452 92.9569 657.523 94.8449C656.677 95.7258 655.521 96.2411 654.3 96.2809H654.193V96.3879C654.297 100.542 667.018 114.563 667.547 115.157L667.594 115.219Z" fill="black"/>
<path d="M667.553 115.909L667.992 115.536C671.143 112.865 686.847 99.2711 686.458 95.1701C686.442 94.9292 686.365 94.6962 686.235 94.4929C686.105 94.2896 685.925 94.1225 685.713 94.0071C683.063 92.5061 683.535 87.1821 684.155 84.5891L685.045 81.6211L683.749 81.8941L682.891 84.3421C682.692 85.1941 680.962 92.6661 685.031 94.9721C685.117 95.0191 685.031 95.1971 685.031 95.3371C685.262 97.7731 676.381 106.74 667.668 114.236C663.098 109.15 655.837 100.387 654.959 96.9091C656.109 96.713 657.168 96.1607 657.986 95.3301C660.09 93.2771 661.066 89.6331 660.891 84.5051V84.0101L659.704 84.0511L659.722 84.5471C659.882 89.2531 659.003 92.6871 657.178 94.4731C655.816 95.8081 654.383 95.7701 654.324 95.7671L653.434 95.9331L653.713 96.3781C653.819 100.654 665.837 113.966 667.208 115.47L667.553 115.909Z" fill="#1B1B1A"/>
<path d="M617.711 192.547L615.337 268.925C615.337 268.925 636.776 283.762 713.193 275.688L712.433 195.882" stroke="black" stroke-width="0.89" stroke-miterlimit="10" stroke-linecap="round"/>
<path d="M650.352 434.915L691.999 439.663L708.154 276.752C693.949 278.105 681.78 278.636 671.453 278.636C659.584 278.636 650.129 277.939 642.791 277.001L650.352 434.915ZM662.564 84.983C665.235 87.737 668.286 88.945 671.612 88.573C682.55 87.36 693.408 69.861 693.514 69.683L693.553 69.707C696.947 62.7481 698.867 55.1628 699.191 47.427C699.191 47.427 690.897 50.446 692.906 29.074C692.906 29.074 675.081 48.659 647.143 39.258C647.131 42.692 647.635 69.63 662.564 84.983ZM657.472 52.763C657.471 52.9297 657.461 53.0962 657.443 53.262C657.443 53.321 657.443 53.38 657.419 53.44C657.392 53.5912 657.356 53.7408 657.312 53.888C657.236 54.1334 657.116 54.3626 656.956 54.564C656.889 54.6433 656.81 54.7115 656.722 54.766C656.689 54.7901 656.653 54.809 656.615 54.822C656.53 54.8533 656.441 54.8702 656.351 54.872C656.257 54.8645 656.164 54.8408 656.078 54.802C655.989 54.756 655.907 54.6982 655.834 54.63C655.797 54.6011 655.763 54.5683 655.733 54.532C655.565 54.322 655.435 54.0836 655.351 53.828C655.302 53.6754 655.263 53.5197 655.235 53.362C655.208 53.1912 655.193 53.0188 655.19 52.846C655.186 52.6916 655.205 52.5376 655.247 52.389C655.266 52.254 655.311 52.124 655.38 52.006C655.409 51.9453 655.448 51.8902 655.496 51.843C654.523 51.5005 653.618 50.9872 652.825 50.327C652.74 50.2534 652.672 50.1632 652.623 50.0621C652.574 49.961 652.547 49.8511 652.542 49.739C652.537 49.627 652.555 49.5152 652.595 49.4103C652.634 49.3053 652.694 49.2093 652.771 49.128C652.887 49.0053 653.038 48.9212 653.203 48.8869C653.369 48.8526 653.541 48.8697 653.696 48.936C653.8 48.9796 653.893 49.0439 653.971 49.125C654.941 49.9149 656.105 50.4301 657.342 50.6169C658.579 50.8037 659.844 50.6552 661.004 50.187C661.214 50.1258 661.44 50.1493 661.634 50.2524C661.827 50.3555 661.973 50.5301 662.039 50.739C662.098 50.9499 662.073 51.1754 661.969 51.3684C661.866 51.5614 661.692 51.707 661.484 51.775C660.2 52.2823 658.81 52.4617 657.44 52.297C657.457 52.449 657.472 52.606 657.472 52.763ZM681.093 72.941C679.092 75.0907 676.471 76.5636 673.594 77.155C672.694 77.338 671.777 77.431 670.858 77.431C668.843 77.4258 666.853 76.9886 665.021 76.149C663.527 75.4683 662.167 74.5269 661.004 73.369C660.906 73.2772 660.835 73.1606 660.797 73.0316C660.76 72.9025 660.759 72.7658 660.793 72.636C660.834 72.495 660.909 72.3666 661.013 72.2627C661.117 72.1589 661.245 72.0829 661.386 72.042C661.512 72.0092 661.644 72.0107 661.769 72.0462C661.895 72.0817 662.008 72.15 662.098 72.244C663.956 74.0704 666.338 75.2711 668.911 75.6786C671.484 76.0861 674.121 75.68 676.452 74.517C677.763 73.8449 678.947 72.9491 679.95 71.87C680.037 71.7723 680.148 71.6995 680.272 71.6589C680.396 71.6183 680.529 71.6114 680.657 71.639C680.8 71.6747 680.932 71.7462 681.04 71.8468C681.148 71.9474 681.228 72.0737 681.274 72.214C681.314 72.3429 681.319 72.4803 681.287 72.6115C681.255 72.7428 681.188 72.8629 681.093 72.959V72.941ZM685.778 52.552C684.465 52.982 683.089 53.191 681.707 53.17C681.705 53.1765 681.705 53.1834 681.707 53.19C681.707 53.348 681.737 53.51 681.737 53.671C681.737 53.831 681.737 54.006 681.707 54.17C681.707 54.2303 681.698 54.2903 681.68 54.348C681.656 54.4994 681.621 54.6491 681.577 54.796C681.5 55.0415 681.378 55.2706 681.218 55.472C681.151 55.5515 681.072 55.6197 680.983 55.674C680.952 55.6998 680.915 55.7189 680.876 55.73C680.792 55.7614 680.704 55.7784 680.615 55.78C680.521 55.7724 680.428 55.7487 680.342 55.71C680.254 55.6638 680.172 55.6059 680.099 55.538C680.062 55.5091 680.028 55.4762 679.998 55.44C679.829 55.2301 679.7 54.9916 679.615 54.736C679.565 54.584 679.526 54.4286 679.499 54.271C679.473 54.0998 679.458 53.9271 679.455 53.754C679.449 53.5998 679.467 53.4457 679.508 53.297C679.529 53.181 679.567 53.067 679.621 52.962C678.99 52.8463 678.37 52.6794 677.766 52.463C677.558 52.4021 677.381 52.2642 677.27 52.0774C677.16 51.8905 677.125 51.6686 677.173 51.457C677.229 51.246 677.367 51.0656 677.555 50.9547C677.743 50.8438 677.967 50.8112 678.179 50.864C680.474 51.6964 682.982 51.7351 685.301 50.974C686.316 50.638 686.793 52.226 685.778 52.561V52.552ZM676.731 42.564C676.933 42.484 681.743 40.68 686.951 44.232C687.16 44.3847 687.301 44.6125 687.345 44.8674C687.389 45.1222 687.332 45.3841 687.186 45.5978C687.041 45.8115 686.818 45.9603 686.564 46.0128C686.311 46.0652 686.047 46.0173 685.829 45.879C681.514 42.935 677.609 44.359 677.446 44.419C677.203 44.5004 676.938 44.4849 676.706 44.3759C676.474 44.2668 676.294 44.0725 676.201 43.8334C676.109 43.5943 676.113 43.3289 676.212 43.0924C676.31 42.856 676.496 42.6667 676.731 42.564ZM665.099 66.304L667.769 51.9C667.794 51.7705 667.868 51.6557 667.976 51.58C668.057 51.5239 668.153 51.4931 668.251 51.4916C668.35 51.4901 668.446 51.5179 668.529 51.5715C668.611 51.6252 668.676 51.7021 668.715 51.7927C668.754 51.8832 668.764 51.9832 668.746 52.08L666.075 66.484C666.067 66.5286 666.068 66.5745 666.079 66.6186C666.09 66.6626 666.11 66.7038 666.138 66.7395C666.167 66.7752 666.202 66.8044 666.242 66.8254C666.282 66.8463 666.327 66.8585 666.372 66.861H671.027C671.13 66.8531 671.234 66.8776 671.323 66.9309C671.411 66.9843 671.481 67.064 671.523 67.159C671.563 67.254 671.573 67.359 671.552 67.4599C671.531 67.5609 671.48 67.653 671.405 67.724C671.354 67.7704 671.295 67.806 671.23 67.8285C671.165 67.851 671.096 67.86 671.027 67.855H666.38C666.09 67.855 665.808 67.7587 665.578 67.5812C665.348 67.4037 665.184 67.1549 665.111 66.874C665.062 66.6878 665.055 66.4932 665.09 66.304H665.099ZM651.739 43.223C651.92 43.104 656.25 40.336 662.084 42.724C662.321 42.8287 662.509 43.0219 662.606 43.2626C662.703 43.5032 662.702 43.7722 662.604 44.0124C662.506 44.2526 662.318 44.4449 662.08 44.5485C661.842 44.6521 661.573 44.6587 661.33 44.567C656.496 42.587 652.974 44.795 652.828 44.887C652.607 45.0314 652.338 45.0822 652.08 45.0283C651.822 44.9744 651.596 44.8201 651.451 44.5995C651.307 44.3788 651.256 44.1098 651.31 43.8517C651.364 43.5935 651.518 43.3674 651.739 43.223Z" fill="white"/>
<path d="M637.312 437.314L649.775 438.913C650.407 438.566 651.039 438.213 651.674 437.875C652.47 437.448 653.274 437.035 654.075 436.62L649.066 436.053L641.446 276.866V276.81C639.461 276.541 637.482 276.228 635.511 275.872C628.888 274.685 624.149 273.285 620.905 272.098L637.312 437.314ZM594.218 124.838C594.216 124.851 594.216 124.863 594.218 124.876C594.227 124.905 594.229 124.905 594.218 124.838ZM594.21 124.77V124.839C594.209 124.816 594.209 124.793 594.21 124.77ZM656.971 168.374C657.707 168.573 658.434 168.798 659.14 169.065C658.277 167.932 657.602 166.667 657.14 165.32C657.071 166.337 657.014 167.355 656.971 168.374Z" fill="white"/>
<path d="M736.863 152.936C733.468 144.197 729.158 135.842 724.005 128.01C719.459 121.016 714.266 114.502 708.302 109.054C702.503 103.757 696.916 98.888 689.714 96.748C688.626 96.3724 687.502 96.1081 686.36 95.959C685.117 100.769 670.957 113.016 667.98 115.544L667.538 115.918L667.152 115.49C665.885 114.099 655.538 102.639 653.885 97.529H653.855C648.764 98.8537 643.804 100.641 639.039 102.87C634.315 105.09 629.719 107.692 625.686 111.039C623.383 112.953 621.235 115.039 619.048 117.099C620.478 117.692 621.92 118.259 623.351 118.85L634.265 123.36L656.093 132.381L662.378 134.977C662.713 135.117 662.734 135.541 662.621 135.823C662.274 136.713 661.85 137.571 661.571 138.467C660.891 140.666 660.416 142.986 659.933 145.242C658.983 149.67 658.25 154.141 657.737 158.64C658.559 158.096 659.586 158.936 660.232 159.53C661.101 160.372 661.912 161.271 662.66 162.221L665.206 165.23L670.936 172.002L670.98 172.058C671.064 171.267 671.154 170.476 671.25 169.684C671.396 168.497 671.693 165.53 671.693 165.53C671.693 165.53 674.191 165.785 675.123 165.919L678.791 166.453L686.209 167.53L700.966 169.696L704.631 170.23C705.521 170.361 706.761 170.75 707.566 170.106C708.69 169.215 708.126 167.037 707.741 165.844C707.356 164.779 706.91 163.737 706.405 162.723C705.84 161.466 705.271 160.211 704.699 158.957C703.564 156.444 702.427 153.933 701.287 151.423L697.957 144.067C697.527 143.12 698.755 142.248 699.189 143.2L705.931 158.088L707.637 161.856C708.117 162.913 708.637 163.957 709.026 165.064C709.586 166.655 709.969 168.625 709.322 170.239C709.162 170.642 708.915 171.005 708.598 171.301C708.282 171.598 707.904 171.821 707.491 171.954C706.402 172.284 705.215 171.972 704.123 171.812L696.966 170.773L682.476 168.666L675.144 167.598C674.429 167.494 673.01 167.355 673.01 167.355C673.01 167.355 672.776 169.346 672.713 169.919C672.63 170.569 672.556 171.218 672.485 171.868C672.184 174.595 671.986 177.331 671.891 180.073C671.841 181.447 671.817 182.827 671.814 184.204C671.814 185.141 672.061 187.845 672.061 187.845C672.061 187.845 673.773 188.106 674.503 188.195L678.185 188.652L685.464 189.542L700.025 191.343C704.844 191.937 709.667 192.548 714.486 193.124C719.305 193.699 724.064 194.222 728.875 194.213C732.385 194.213 736.228 194.035 739.326 191.946C740.852 190.919 741.999 189.42 742.59 187.679C743.317 185.548 743.329 183.186 743.204 180.934C742.649 171.293 740.246 161.785 736.863 152.936ZM678.2 190.299L674.514 189.845C673.577 189.729 670.319 189.426 670.319 189.426C670.319 189.426 670.348 188.895 670.369 188.219C666.236 189.014 661.994 189.061 657.844 188.358L657.511 208.492L657.416 214.326C657.418 214.49 657.355 214.649 657.241 214.768C657.127 214.886 656.971 214.955 656.806 214.959C656.697 214.963 656.589 214.938 656.493 214.887C644.336 207.311 631.734 200.475 618.754 194.415L618.16 194.136L615.831 268.656C616.988 269.357 622.76 272.514 635.823 274.87C648.885 277.226 671.924 279.188 708.592 275.65C708.698 275.605 708.813 275.585 708.928 275.594C708.958 275.591 708.988 275.598 709.014 275.612C710.22 275.493 711.442 275.37 712.678 275.241L711.931 196.433L711.77 194.468L707.821 193.97L678.2 190.299ZM611.471 133.313C610.253 136.864 608.949 140.384 607.56 143.871C606.874 145.601 606.215 147.364 605.376 149.025C604.503 150.755 603.343 152.373 601.669 153.402C601.561 153.467 601.439 153.507 601.313 153.518C601.187 153.529 601.06 153.511 600.942 153.465C600.823 153.421 600.716 153.35 600.629 153.259C600.542 153.167 600.476 153.057 600.438 152.936C599.981 151.609 599.559 150.27 599.171 148.921C599.131 148.791 599.125 148.654 599.153 148.521C597.904 144.07 596.907 139.521 596.014 134.975C595.36 131.659 594.774 128.329 594.257 124.989C594.257 124.939 594.239 124.885 594.233 124.832C594.227 124.779 594.233 124.796 594.233 124.773C594.2 124.612 594.174 124.452 594.141 124.292C594.037 123.731 593.93 123.167 593.827 122.604C591.102 123.043 588.426 123.811 585.749 124.455L574.797 127.099C573.978 127.298 573.17 127.535 572.363 127.779C572.903 130.01 573.176 132.298 573.568 134.559C575.261 144.286 577.566 153.897 580.467 163.334C581.434 166.478 582.468 169.602 583.568 172.702C584.559 175.498 585.536 178.34 586.764 181.029C588.737 185.379 591.936 190.07 597.248 190.059C598.798 190.028 600.33 189.726 601.776 189.168C602.593 188.888 603.381 188.532 604.132 188.106L607.91 185.872L607.993 185.824C609.675 177.061 610.168 168.121 610.435 159.212C610.681 150.562 610.741 141.915 611.471 133.313Z" fill="#FF8025"/>
</svg>
