<svg width="760" height="636" viewBox="0 0 760 636" fill="none" xmlns="http://www.w3.org/2000/svg">
<path d="M0 226.951C3.5039 225.093 7.29322 224.202 10.9448 222.811C21.1169 218.989 31.3136 215.234 41.4956 211.44C43.1048 210.841 44.2465 211.187 45.0782 213.002C47.2091 217.664 48.2327 222.701 48.9364 227.781C49.7956 233.852 50.2545 239.984 50.3095 246.13C50.3636 253.981 47.6225 260.657 44.0251 267.024C42.5192 269.69 40.8214 272.22 39.2269 274.826C38.8824 275.376 38.7348 275.992 37.8293 275.678C31.5548 273.479 25.3786 271.01 19.8817 266.908C15.054 263.312 12.0373 257.885 9.0058 252.552C5.22194 245.847 2.19692 238.644 0 231.108V226.951Z" fill="#F2F1F0"/>
<path d="M468.171 246.29C470.214 245.74 471.385 246.389 471.183 247.984C471.021 249.254 470.199 250.068 469.126 249.606C467.768 249.006 467.817 249.815 467.738 250.81C467.044 259.574 466.36 268.344 465.632 277.109C464.382 292.103 462.778 307.048 460.898 321.954C458.531 340.648 455.706 359.294 451.917 377.724C448.964 392.152 445.519 406.432 440.76 420.266C440.229 421.805 440.312 422.393 441.927 422.828C449.5 424.862 456.976 427.303 464.564 429.31C469.441 430.603 473.993 429.734 478.585 428.057C490.996 423.521 502.881 417.555 514.691 411.402C516.34 410.544 517.438 410.346 518.348 412.287C519.524 414.8 521.212 415.245 523.373 413.854C523.683 413.674 524.014 413.541 524.357 413.458C526.753 412.749 528.594 411.677 529.352 408.543C529.972 406.003 531.94 404.32 534.194 403.143C536.812 401.774 539.297 400.086 541.861 398.585C542.885 397.986 544.13 397.057 545.08 398.272C546.03 399.487 545.41 400.922 544.588 402.066C543.717 403.314 542.767 404.491 541.714 405.882H557.462C556.792 403.226 562.416 405.436 559.636 405.882C557.908 406.162 562.194 407.108 561.116 405.882C560.039 404.655 562.093 407.971 562.103 405.981C562.138 399.256 562.746 412.601 563.09 405.882C561.284 406.08 563.194 403.886 563.09 405.882C555.005 406.074 571.146 405.002 563.09 405.882C566.619 405.799 565.982 406.085 569.506 405.981C571.474 405.92 570.493 405.773 573.454 405.882C577.402 405.981 575.709 405.981 579.105 405.882C581.844 405.981 579.87 405.981 581.844 405.981C582.172 406.246 594.393 405.808 594.793 405.882C597.293 406.424 593.246 404.982 595.662 405.882C596.359 406.1 592.162 410.931 596.155 405.773C596.049 404.973 596.634 406.38 596.155 405.773C596.859 409.495 596.046 402.007 596.322 405.773C596.386 406.686 598.178 405.877 597.194 405.773C597.607 405.773 594.851 405.524 597.194 405.773C594.241 405.586 598.593 401.038 598.17 405.981H607.825C610.665 405.981 613.504 405.981 616.339 405.981C616.797 405.981 617.363 405.81 617.579 406.497C617.746 407.047 617.353 407.328 617.087 407.68C615.355 409.978 613.534 411.358 610.458 411.27C600.015 410.957 589.558 411.16 579.105 411.133C577.94 411.157 576.789 411.422 575.709 411.913C569.907 414.3 564.514 418.05 558.274 418.968C552.654 419.787 547.004 420.513 541.35 420.744C536.798 420.936 533.038 423.306 529.017 425.049C528.259 425.379 528.21 425.753 528.722 426.38C528.966 426.753 529.23 427.11 529.514 427.446C530.69 428.546 530.425 429.244 529.15 430.086C519.037 436.722 508.973 443.458 498.865 450.1C495.243 452.481 491.454 454.548 487.871 457.006C479.19 462.961 469.662 463.763 459.874 462.895C452.428 462.213 445.135 460.563 437.552 458.914C440.086 463.769 443.531 467.162 447.394 470.026C451.508 473.159 456.062 475.498 460.868 476.949C462.975 477.559 463.511 478.631 463.186 480.748C463.15 481.31 463.15 481.874 463.186 482.436C465.494 480.611 467.615 478.868 469.83 477.185C481.641 468.113 493.85 459.926 507.433 454.543C516.001 451.145 524.716 450.039 533.732 451.925C544.745 454.224 552.122 461.273 556.167 472.819C559.223 481.529 560.409 490.678 561.148 499.916C562.014 510.769 562.383 521.651 562.309 532.543C562.309 533.846 562.742 534.27 563.785 534.479C577.565 537.294 591.344 540.124 605.124 542.968C621.888 546.414 638.655 549.87 655.423 553.338C656.26 553.509 657.48 553.41 657.205 555.136C657.106 555.73 657.603 555.851 658.041 555.889C659.552 556.038 661.068 556.17 662.584 556.34C663.307 556.417 663.568 556.076 663.568 555.296C663.6 554.436 663.828 553.601 664.23 552.868C664.632 552.134 665.195 551.528 665.866 551.106C675.733 544.172 682.726 533.78 691.087 525.032C693.105 522.926 695.152 520.854 697.209 518.786C697.824 518.165 698.538 517.428 699.404 518.033C700.388 518.72 699.98 519.836 699.704 520.782C697.617 527.727 694.837 534.347 692.086 540.978C689.045 548.313 686.018 555.658 682.795 562.894C680.654 567.689 681.471 568.299 675.413 572.792C675.472 572.891 675.516 573.067 675.59 573.088C677.938 573.732 677.839 575.134 676.855 577.207C675.552 580.006 674.382 582.88 673.351 585.817C672.618 587.879 671.501 588.253 669.778 587.522C665.881 585.872 662.397 583.382 658.843 581.001C658.381 580.693 657.913 580.396 657.136 579.901C657.628 582.419 656.324 582.188 655.054 582.194C640.94 582.276 626.821 582.265 612.732 582.507C591.987 582.874 571.248 583.338 550.513 583.898C530.336 584.448 510.115 584.586 489.913 584.448C474.702 584.366 459.51 583.568 444.333 582.315C434.53 581.507 424.697 582.007 414.88 581.875C401.878 581.705 388.871 581.924 375.889 580.984C374.762 580.907 373.044 581.155 372.872 579.885C372.739 578.906 374.526 578.565 375.564 578.235C384.314 575.442 393.28 574.386 402.345 573.836C404.206 573.715 406.071 573.633 408.285 573.517C404.703 571.747 401.396 570.218 398.128 568.481C384.929 561.491 372.85 552.121 362.375 540.747C360.589 538.811 358.768 536.898 357.129 534.819C356.145 533.593 355.618 533.626 354.511 534.655C336.977 550.958 318.675 566.203 299.684 580.324C297.898 581.716 295.764 582.441 293.587 582.397C276.628 582.315 259.67 582.397 242.711 582.337C228.932 582.271 215.164 582.108 201.408 581.847C197.062 581.77 192.697 581.693 188.371 581.034C187.815 580.946 187.062 580.935 186.939 580.346C186.757 579.472 187.609 579.296 188.155 579.065C192.83 577.058 197.766 576.349 202.668 575.464C214.267 573.374 225.846 575.095 237.421 575.783C248.248 576.421 259.074 577.35 269.901 578.263C278.164 578.966 286.431 579.725 294.847 580.693C293.907 579.912 292.986 579.104 292.032 578.35C277.327 566.677 262.598 555.048 248.445 542.534C224.37 521.249 201.619 498.387 181.841 472.055C172.737 459.926 163.879 447.576 157.845 433.066C152.107 419.254 148.003 404.809 144.612 390.107C139.627 368.503 136.148 346.576 133.293 324.505C129.991 298.816 127.634 273.018 125.808 247.153C124.292 225.677 123.144 204.178 122.363 182.657C121.848 167.995 121.436 153.332 121.128 138.67C120.857 125.534 120.857 112.393 120.636 99.257C120.606 97.3875 121.128 96.9861 122.713 97.0026C152.535 97.305 182.358 97.7064 212.185 97.6514C226.717 97.6514 241.255 97.9594 255.782 97.7449C275.226 97.459 294.66 97.0906 314.103 97.393C335.484 97.7266 356.867 97.8585 378.251 97.7889C396.45 97.7522 414.648 97.6533 432.847 97.492C445.573 97.393 458.301 97.2244 471.031 96.9861C472.812 96.9476 473.216 97.536 473.191 99.3834C473.004 112.981 472.93 126.584 472.728 140.182C472.448 158.948 471.793 177.697 470.957 196.441C470.238 212.475 469.451 228.508 468.201 244.509C468.132 244.97 468.171 245.515 468.171 246.29Z" fill="#222221"/>
<path d="M667.528 183.787C669.497 183.842 670.894 184.826 672.371 185.437C681.372 189.104 690.377 192.766 699.339 196.549C708.886 200.579 718.384 204.758 728.039 208.459C729.698 209.096 730.357 210.839 730.008 212.956C728.807 220.445 725.731 227.115 722.533 233.674C719.299 240.208 715.699 246.507 711.755 252.534C706.037 261.392 698.96 268.105 689.772 272.141C684.241 274.571 678.581 276.479 672.917 278.398C671.544 278.866 670.747 278.503 669.925 277.123C665.004 268.831 660.23 260.468 657.356 250.928C655.137 243.588 655.235 236.154 655.717 228.566C656.177 221.523 657.064 214.522 658.37 207.612C659.674 200.607 661.116 193.602 664.275 187.268C665.082 185.613 665.998 184.068 667.528 183.787Z" fill="#F2F1F0"/>
<path d="M47.3535 524.663C47.3535 504.22 61.7874 488.236 80.2469 488.236C97.8697 488.236 112.505 504.731 112.5 524.57C112.512 534.222 109.09 543.484 102.989 550.318C96.8886 557.152 88.6078 560.998 79.9688 561.01C71.3298 561.023 63.0402 557.2 56.9236 550.384C50.8071 543.567 47.3646 534.315 47.3535 524.663V524.663Z" fill="#FF8025"/>
<path d="M614.017 350.284C613.559 350.251 613.387 349.784 613.107 349.47C612.752 349.075 613.018 348.767 613.254 348.525C615.666 346.127 618.092 343.746 620.498 341.344C620.991 340.882 621.227 341.245 621.483 341.58C621.739 341.915 622.186 342.306 621.763 342.735C619.263 345.253 616.729 347.733 614.204 350.218C614.189 350.262 614.106 350.257 614.017 350.284Z" fill="#282827"/>
<path d="M592.402 326.653C591.944 329.111 591.501 331.448 591.088 333.801C590.945 334.609 590.596 334.741 589.916 334.565C589.237 334.389 589.154 334.015 589.321 333.284C589.813 331.041 590.212 328.77 590.615 326.499C590.743 325.784 590.758 325.114 591.732 325.4C592.476 325.636 592.554 326.065 592.402 326.653Z" fill="#2B2B2A"/>
<path d="M558.249 336.287C557.595 336.485 557.511 335.852 557.393 335.374C556.837 333.175 556.325 330.975 555.759 328.776C555.567 328.023 555.759 327.715 556.414 327.429C557.196 327.077 557.398 327.533 557.551 328.171C558.102 330.453 558.569 332.768 559.224 335.017C559.573 336.226 558.746 335.995 558.249 336.287Z" fill="#2E2D2C"/>
<path d="M529.959 354.952C531.927 355.65 533.896 356.321 535.81 357.053C536.46 357.294 536.209 357.932 536.081 358.422C535.953 358.911 535.648 359.103 535.146 358.916C533.331 358.246 531.509 357.601 529.678 356.981C529.559 356.966 529.445 356.919 529.347 356.842C529.248 356.766 529.168 356.663 529.115 356.543C529.061 356.424 529.035 356.291 529.038 356.157C529.042 356.023 529.076 355.892 529.137 355.777C529.275 355.315 529.417 354.875 529.959 354.952Z" fill="#2A2A29"/>
<path d="M625.752 372.754C626.367 372.633 626.805 372.71 626.903 373.584C627.002 374.458 626.696 374.607 626.032 374.722C624.344 375.014 622.661 375.349 620.998 375.773C620.265 375.965 619.989 375.701 619.871 374.959C619.753 374.216 620.019 373.859 620.703 373.721C622.391 373.425 624.069 373.078 625.752 372.754Z" fill="#2E2E2C"/>
<path d="M536.066 385.579C536.647 385.491 537.129 385.485 537.218 386.392C537.301 387.212 537.011 387.492 536.357 387.563C534.925 387.761 533.502 388.014 532.075 388.24C531.549 388.322 531.126 388.24 531.042 387.497C530.958 386.755 531.012 386.282 531.775 386.183C533.207 385.996 534.654 385.782 536.066 385.579Z" fill="#2D2D2C"/>
<path d="M369.048 622.264C368.905 623.27 368.502 624.073 367.395 624.111C366.194 624.155 365.579 623.385 365.593 622.165C365.583 621.913 365.621 621.661 365.706 621.428C365.79 621.194 365.919 620.983 366.083 620.81C366.247 620.637 366.442 620.505 366.656 620.424C366.87 620.342 367.096 620.314 367.321 620.339C368.399 620.334 368.896 621.076 369.048 622.264Z" fill="#2F2E2D"/>
<path d="M758.13 522.938C759.453 522.938 760 523.74 760 524.824C760 526.077 759.291 526.77 758.134 526.699C757.909 526.704 757.686 526.655 757.48 526.553C757.274 526.451 757.09 526.3 756.943 526.109C756.795 525.919 756.687 525.695 756.626 525.453C756.565 525.211 756.552 524.956 756.589 524.708C756.648 523.625 757.224 522.872 758.13 522.938Z" fill="#2E2E2D"/>
<path d="M470.363 18.7207C471.347 18.9352 472.125 19.5895 472.125 20.6617C472.143 20.9311 472.108 21.2016 472.02 21.4534C471.933 21.7053 471.796 21.9321 471.62 22.1172C471.444 22.3023 471.233 22.441 471.003 22.5231C470.773 22.6052 470.529 22.6287 470.289 22.5918C470.066 22.6012 469.843 22.5559 469.637 22.4592C469.431 22.3624 469.246 22.2165 469.096 22.0316C468.945 21.8467 468.833 21.6274 468.766 21.3889C468.699 21.1503 468.68 20.8984 468.71 20.6507C468.725 19.441 469.482 18.9736 470.363 18.7207Z" fill="#313130"/>
<path d="M68.1996 474.865C68.1701 476.706 67.5254 477.399 66.5412 477.399C66.2986 477.421 66.0548 477.381 65.8278 477.284C65.6008 477.186 65.3963 477.032 65.2296 476.834C65.0628 476.636 64.938 476.399 64.8643 476.14C64.7906 475.881 64.77 475.607 64.804 475.337C64.8532 474.111 65.5864 473.55 66.5756 473.583C67.5648 473.616 68.2242 474.249 68.1996 474.865Z" fill="#2C2C2B"/>
<path d="M37.3522 31.4343C37.1997 32.5339 36.8158 33.3807 35.7381 33.4796C35.4996 33.5295 35.254 33.5173 35.0204 33.4439C34.7868 33.3706 34.5714 33.2381 34.391 33.0568C34.2107 32.8755 34.0701 32.6502 33.9802 32.3984C33.8904 32.1465 33.8537 31.875 33.8729 31.6047C33.8477 31.3549 33.8721 31.102 33.9444 30.8639C34.0166 30.6259 34.135 30.4085 34.291 30.2274C34.447 30.0463 34.6368 29.9058 34.847 29.816C35.0571 29.7262 35.2824 29.6892 35.5068 29.7078C36.5845 29.6638 37.0865 30.4006 37.3522 31.4343Z" fill="#2D2D2C"/>
<path d="M604.804 5.87689C604.745 7.06454 604.13 7.72984 603.111 7.70234C602.092 7.67485 601.428 7.08653 601.428 5.8439C601.401 5.57498 601.429 5.30278 601.511 5.04794C601.592 4.79311 601.724 4.56233 601.898 4.37313C602.071 4.18394 602.28 4.04129 602.51 3.95602C602.74 3.87074 602.984 3.84508 603.224 3.88099C603.45 3.8779 603.675 3.92934 603.882 4.03181C604.088 4.13428 604.273 4.28537 604.423 4.47478C604.573 4.6642 604.685 4.88749 604.75 5.12944C604.816 5.3714 604.834 5.62634 604.804 5.87689V5.87689Z" fill="#2D2D2C"/>
<path d="M515.406 7.06224C515.16 8.16191 514.693 8.93718 513.6 8.89319C512.405 8.84371 511.868 8.00796 511.952 6.78732C512.035 5.56668 512.7 5.03334 513.773 5.13781C514.845 5.24228 515.264 6.01205 515.406 7.06224Z" fill="#2D2C2C"/>
<path d="M115.443 560.561C115.228 560.556 115.016 560.503 114.821 560.404C114.625 560.305 114.45 560.163 114.305 559.986C114.16 559.81 114.048 559.602 113.978 559.375C113.907 559.149 113.878 558.909 113.892 558.669C113.892 557.427 114.581 556.718 115.748 556.784C115.972 556.774 116.195 556.821 116.401 556.92C116.607 557.019 116.79 557.169 116.938 557.357C117.086 557.546 117.194 557.769 117.254 558.01C117.315 558.252 117.326 558.505 117.288 558.752C117.234 559.874 116.648 560.561 115.443 560.561Z" fill="#2D2C2B"/>
<path d="M684.249 48.8159C682.841 48.7774 682.28 48.0682 682.28 46.9465C682.28 45.7039 682.92 44.9727 684.101 45.0551C684.326 45.048 684.549 45.0955 684.755 45.1946C684.962 45.2936 685.146 45.4417 685.296 45.6285C685.446 45.8154 685.558 46.0365 685.623 46.2764C685.689 46.5164 685.707 46.7695 685.676 47.018C685.617 48.1396 684.997 48.8049 684.249 48.8159Z" fill="#2C2C2B"/>
<path d="M255.804 633.407C254.583 633.374 254.062 632.61 254.032 631.51C254.004 631.261 254.027 631.009 254.097 630.771C254.167 630.533 254.284 630.316 254.439 630.135C254.594 629.954 254.784 629.813 254.993 629.724C255.203 629.635 255.428 629.599 255.651 629.619C256.827 629.619 257.472 630.344 257.428 631.582C257.434 631.822 257.396 632.062 257.317 632.286C257.237 632.509 257.118 632.713 256.966 632.884C256.814 633.054 256.633 633.189 256.433 633.279C256.233 633.369 256.019 633.412 255.804 633.407V633.407Z" fill="#2C2C2B"/>
<path d="M716.301 159.828C716.252 161.01 715.735 161.736 714.652 161.775C714.425 161.804 714.196 161.777 713.979 161.697C713.762 161.617 713.563 161.486 713.396 161.312C713.229 161.138 713.098 160.925 713.011 160.689C712.925 160.453 712.885 160.199 712.895 159.944C712.876 159.688 712.905 159.432 712.979 159.189C713.054 158.947 713.173 158.725 713.328 158.537C713.484 158.348 713.672 158.198 713.883 158.096C714.093 157.994 714.32 157.941 714.549 157.942C715.533 157.915 716.193 158.64 716.301 159.828Z" fill="#313130"/>
<path d="M117.968 298.317C117.959 298.561 117.905 298.8 117.81 299.02C117.715 299.239 117.58 299.435 117.414 299.594C117.249 299.753 117.055 299.872 116.846 299.943C116.638 300.015 116.418 300.038 116.201 300.011C115.977 300.035 115.751 300.002 115.54 299.916C115.329 299.829 115.138 299.691 114.981 299.511C114.824 299.331 114.706 299.114 114.634 298.876C114.562 298.638 114.539 298.385 114.567 298.136C114.567 296.805 115.31 296.145 116.383 296.228C117.362 296.305 117.958 297.058 117.968 298.317Z" fill="#2E2E2D"/>
<path d="M324.811 631.364C324.823 631.612 324.791 631.86 324.715 632.093C324.639 632.326 324.521 632.539 324.368 632.719C324.215 632.9 324.032 633.043 323.828 633.141C323.624 633.239 323.404 633.289 323.182 633.289C322.961 633.327 322.735 633.311 322.52 633.242C322.305 633.173 322.107 633.052 321.938 632.888C321.769 632.724 321.635 632.521 321.543 632.293C321.452 632.065 321.407 631.818 321.41 631.568C321.336 630.265 321.961 629.517 323.088 629.523C323.312 629.504 323.538 629.538 323.749 629.623C323.961 629.708 324.154 629.841 324.316 630.015C324.479 630.189 324.607 630.399 324.692 630.631C324.777 630.864 324.818 631.113 324.811 631.364V631.364Z" fill="#2B2B2A"/>
<path d="M347.13 627.789C346.957 628.834 346.579 629.636 345.461 629.686C344.344 629.735 343.769 629.136 343.709 627.965C343.641 626.689 344.236 625.925 345.397 625.908C346.475 625.892 346.943 626.689 347.13 627.789Z" fill="#2E2D2C"/>
<path d="M561.363 468.318C561.299 469.615 560.659 470.259 559.655 470.275C559.429 470.294 559.202 470.259 558.989 470.174C558.776 470.088 558.581 469.953 558.418 469.778C558.254 469.602 558.126 469.391 558.041 469.156C557.955 468.922 557.915 468.67 557.923 468.417C557.903 468.146 557.937 467.874 558.022 467.621C558.108 467.367 558.243 467.137 558.418 466.949C558.593 466.761 558.803 466.618 559.033 466.531C559.263 466.445 559.507 466.416 559.748 466.448C559.966 466.447 560.181 466.494 560.382 466.588C560.582 466.683 560.763 466.821 560.914 466.996C561.065 467.171 561.183 467.378 561.26 467.606C561.337 467.833 561.372 468.075 561.363 468.318V468.318Z" fill="#30302F"/>
<path d="M376.737 86.2006C376.745 86.4489 376.706 86.6962 376.624 86.9271C376.542 87.1579 376.418 87.3673 376.26 87.5419C376.102 87.7165 375.913 87.8526 375.705 87.9416C375.498 88.0307 375.276 88.0707 375.054 88.0591C373.942 88.0591 373.302 87.3278 373.361 86.0137C373.42 84.6995 374.124 84.2706 375.128 84.2981C376.132 84.3256 376.688 85.0349 376.737 86.2006Z" fill="#2E2E2D"/>
<path d="M493.479 13.4231C493.513 13.9729 492.883 14.6547 491.894 14.7261C490.812 14.8031 490.059 14.1763 490.059 12.8348C490.037 12.5848 490.066 12.3327 490.142 12.0964C490.218 11.8601 490.34 11.6455 490.499 11.468C490.658 11.2904 490.85 11.1543 491.061 11.0693C491.273 10.9843 491.498 10.9526 491.722 10.9764C492.75 10.9544 493.4 11.5097 493.479 13.4231Z" fill="#2E2D2C"/>
<path d="M647.897 20.2376C647.641 21.2879 647.158 21.9917 646.061 21.9697C644.964 21.9477 644.412 21.2384 644.432 20.1057C644.412 19.8359 644.448 19.5645 644.536 19.3124C644.624 19.0603 644.763 18.834 644.942 18.651C645.12 18.468 645.334 18.3329 645.566 18.2563C645.799 18.1796 646.044 18.1633 646.282 18.2087C647.321 18.3022 647.774 19.1379 647.897 20.2376Z" fill="#2D2C2B"/>
<path d="M621.2 436.653C621.426 436.635 621.654 436.671 621.867 436.758C622.08 436.846 622.274 436.983 622.436 437.161C622.598 437.339 622.724 437.553 622.807 437.79C622.889 438.027 622.925 438.28 622.912 438.534C622.912 439.727 622.258 440.497 621.067 440.442C619.954 440.387 619.467 439.612 619.512 438.49C619.502 438.241 619.539 437.994 619.622 437.763C619.704 437.532 619.828 437.323 619.988 437.149C620.147 436.976 620.337 436.842 620.546 436.757C620.755 436.671 620.978 436.636 621.2 436.653V436.653Z" fill="#2D2D2C"/>
<path d="M703.4 179.658C704.468 179.807 705.177 180.362 705.236 181.511C705.273 181.779 705.254 182.053 705.181 182.312C705.108 182.571 704.982 182.807 704.815 183.004C704.647 183.2 704.441 183.35 704.213 183.443C703.984 183.536 703.74 183.569 703.499 183.54C703.275 183.561 703.051 183.526 702.841 183.439C702.631 183.351 702.441 183.213 702.285 183.034C702.129 182.854 702.01 182.639 701.938 182.402C701.865 182.165 701.84 181.914 701.865 181.665C701.855 180.422 702.554 179.955 703.4 179.658Z" fill="#2C2C2B"/>
<path d="M580.67 455.467C580.621 456.743 579.947 457.403 578.977 457.403C577.885 457.403 577.22 456.671 577.275 455.346C577.329 454.021 578.037 453.587 579.036 453.62C579.256 453.607 579.475 453.646 579.68 453.734C579.885 453.823 580.07 453.959 580.225 454.133C580.379 454.308 580.498 454.517 580.575 454.747C580.652 454.977 580.684 455.222 580.67 455.467Z" fill="#2E2D2C"/>
<path d="M410.41 57.0452C409.401 56.8198 408.707 56.2645 408.712 55.0825C408.712 53.7519 409.48 53.1527 410.577 53.2131C411.674 53.2736 412.132 53.9939 412.093 55.1924C412.053 56.391 411.31 56.8473 410.41 57.0452Z" fill="#2E2E2D"/>
<path d="M699.365 63.377C699.581 63.3776 699.795 63.4267 699.994 63.5214C700.193 63.6161 700.373 63.7545 700.523 63.9284C700.673 64.1022 700.79 64.308 700.868 64.5335C700.945 64.759 700.981 64.9996 700.974 65.241C700.991 65.5117 700.954 65.7831 700.866 66.0362C700.779 66.2893 700.643 66.5179 700.468 66.706C700.293 66.8941 700.083 67.0372 699.854 67.1251C699.624 67.2131 699.38 67.2438 699.138 67.215C698.913 67.2127 698.691 67.1577 698.487 67.0535C698.282 66.9494 698.099 66.7983 697.949 66.6102C697.8 66.4221 697.688 66.2011 697.62 65.9615C697.551 65.7219 697.529 65.4689 697.554 65.219C697.598 64.0203 698.248 63.4539 699.365 63.377Z" fill="#313130"/>
<path d="M211.805 619.686C212.024 619.683 212.241 619.731 212.442 619.826C212.644 619.921 212.826 620.061 212.977 620.238C213.128 620.415 213.244 620.624 213.32 620.854C213.395 621.083 213.427 621.328 213.414 621.572C213.432 621.842 213.395 622.113 213.307 622.366C213.219 622.618 213.081 622.845 212.905 623.031C212.728 623.216 212.516 623.355 212.285 623.438C212.054 623.52 211.809 623.544 211.569 623.507C211.343 623.503 211.121 623.447 210.916 623.341C210.711 623.235 210.528 623.083 210.379 622.893C210.23 622.703 210.119 622.481 210.051 622.24C209.984 621.999 209.963 621.745 209.989 621.495C210.039 620.335 210.683 619.73 211.805 619.686Z" fill="#313030"/>
<path d="M24.5767 79.5157C24.5767 80.8958 23.9468 81.4951 22.9133 81.4786C21.8799 81.4621 21.1958 80.8518 21.2007 79.6586C21.1792 79.3881 21.2121 79.1157 21.2968 78.8611C21.3815 78.6066 21.516 78.3763 21.6904 78.1872C21.8649 77.9981 22.0749 77.8549 22.3052 77.7679C22.5355 77.681 22.7802 77.6526 23.0216 77.6847C23.9517 77.7507 24.6653 78.416 24.5767 79.5157Z" fill="#2E2E2D"/>
<path d="M171.906 602.427C171.842 603.593 171.296 604.384 170.311 604.483C170.072 604.526 169.828 604.508 169.596 604.431C169.364 604.353 169.151 604.218 168.972 604.036C168.793 603.854 168.654 603.629 168.563 603.378C168.473 603.127 168.435 602.856 168.451 602.586C168.429 602.336 168.455 602.084 168.529 601.846C168.603 601.608 168.722 601.392 168.878 601.211C169.035 601.03 169.225 600.89 169.435 600.8C169.645 600.71 169.87 600.672 170.095 600.69C171.148 600.635 171.694 601.327 171.906 602.427Z" fill="#2F2F2E"/>
<path d="M601.353 445.481C601.127 446.493 600.748 447.323 599.631 447.345C598.415 447.345 597.864 446.63 597.893 445.366C597.88 445.115 597.916 444.864 598 444.63C598.083 444.397 598.212 444.187 598.376 444.016C598.541 443.845 598.737 443.716 598.952 443.64C599.166 443.563 599.393 443.54 599.616 443.573C600.659 443.606 601.176 444.359 601.353 445.481Z" fill="#2D2D2C"/>
<path d="M427.641 591.687C427.418 591.694 427.196 591.647 426.991 591.548C426.786 591.45 426.602 591.303 426.453 591.117C426.304 590.931 426.193 590.711 426.128 590.472C426.063 590.234 426.045 589.982 426.076 589.735C426.101 588.503 426.662 587.893 427.759 587.92C427.986 587.899 428.214 587.933 428.428 588.022C428.641 588.11 428.834 588.251 428.993 588.432C429.152 588.614 429.273 588.833 429.348 589.074C429.422 589.314 429.447 589.57 429.423 589.823C429.403 590.972 428.743 591.626 427.641 591.687Z" fill="#2C2C2A"/>
<path d="M647.377 223.304C647.154 223.343 646.926 223.328 646.71 223.259C646.493 223.19 646.292 223.069 646.121 222.905C645.95 222.741 645.814 222.537 645.72 222.308C645.627 222.079 645.579 221.829 645.58 221.578C645.545 221.31 645.565 221.037 645.638 220.779C645.711 220.521 645.835 220.285 646.001 220.088C646.167 219.891 646.371 219.739 646.597 219.643C646.824 219.546 647.067 219.509 647.308 219.532C647.532 219.511 647.757 219.545 647.968 219.632C648.179 219.718 648.371 219.856 648.529 220.034C648.688 220.212 648.81 220.427 648.886 220.663C648.962 220.899 648.991 221.152 648.971 221.402C649.007 221.65 648.991 221.904 648.925 222.145C648.859 222.385 648.745 222.606 648.591 222.789C648.437 222.973 648.248 223.115 648.037 223.204C647.827 223.293 647.601 223.327 647.377 223.304Z" fill="#2E2E2D"/>
<path d="M491.958 244.96C493.051 244.96 493.632 245.581 493.636 246.752C493.641 247.923 493.144 248.682 492.072 248.737C491.83 248.77 491.586 248.742 491.355 248.656C491.125 248.57 490.915 248.427 490.74 248.239C490.566 248.05 490.431 247.82 490.346 247.566C490.262 247.311 490.229 247.039 490.251 246.769C490.235 246.518 490.27 246.267 490.351 246.033C490.433 245.799 490.56 245.588 490.723 245.415C490.886 245.242 491.081 245.112 491.295 245.033C491.509 244.954 491.735 244.929 491.958 244.96V244.96Z" fill="#2E2E2D"/>
<path d="M538.664 244.089C538.482 245.133 537.911 245.925 536.903 245.87C536.66 245.88 536.419 245.829 536.196 245.721C535.973 245.613 535.775 245.451 535.616 245.247C535.456 245.042 535.34 244.801 535.274 244.539C535.209 244.278 535.197 244.004 535.239 243.737C535.242 243.485 535.293 243.237 535.39 243.009C535.486 242.782 535.626 242.581 535.799 242.42C535.973 242.259 536.175 242.142 536.393 242.077C536.61 242.011 536.838 242 537.06 242.043C538.093 242.12 538.615 242.868 538.664 244.089Z" fill="#2E2E2D"/>
<path d="M302.384 633.097C302.34 634.274 301.784 634.955 300.746 635.01C299.707 635.065 299.048 634.538 298.989 633.301C298.925 631.981 299.565 631.255 300.677 631.244C301.681 631.233 302.286 631.932 302.384 633.097Z" fill="#2E2E2D"/>
<path d="M583.369 238.601C583.232 239.761 582.749 240.454 581.637 240.415C581.414 240.435 581.189 240.4 580.978 240.314C580.768 240.229 580.576 240.093 580.416 239.918C580.256 239.742 580.132 239.53 580.051 239.297C579.971 239.063 579.936 238.812 579.949 238.562C579.93 238.293 579.967 238.022 580.055 237.77C580.144 237.518 580.283 237.292 580.461 237.109C580.639 236.926 580.852 236.79 581.084 236.712C581.316 236.634 581.56 236.616 581.799 236.66C582.902 236.715 583.296 237.529 583.369 238.601Z" fill="#2D2D2C"/>
<path d="M132.469 573.293C133.61 573.463 134.191 574.046 134.176 575.261C134.194 575.511 134.163 575.763 134.085 575.999C134.008 576.234 133.886 576.448 133.727 576.626C133.569 576.804 133.378 576.942 133.167 577.03C132.957 577.118 132.732 577.154 132.508 577.136C131.44 577.136 130.766 576.388 130.825 575.052C130.884 573.716 131.627 573.425 132.469 573.293Z" fill="#2D2D2C"/>
<path d="M390.429 614.457C390.212 615.584 389.676 616.315 388.598 616.266C387.521 616.216 386.999 615.491 387.038 614.286C387.078 613.082 387.678 612.472 388.761 612.516C389.843 612.56 390.311 613.357 390.429 614.457Z" fill="#2B2B2A"/>
<path d="M514.55 247.457C514.328 247.501 514.1 247.49 513.882 247.423C513.665 247.356 513.464 247.236 513.293 247.071C513.123 246.906 512.988 246.7 512.898 246.469C512.808 246.238 512.765 245.988 512.773 245.736C512.756 245.481 512.785 245.226 512.858 244.984C512.932 244.743 513.047 244.52 513.199 244.329C513.35 244.139 513.534 243.984 513.74 243.874C513.946 243.764 514.17 243.701 514.397 243.69C514.625 243.678 514.853 243.717 515.067 243.805C515.281 243.894 515.477 244.029 515.644 244.203C515.811 244.378 515.944 244.588 516.037 244.821C516.129 245.054 516.179 245.305 516.184 245.56C516.202 245.808 516.173 246.058 516.098 246.292C516.023 246.527 515.905 246.741 515.75 246.921C515.596 247.1 515.409 247.241 515.202 247.333C514.995 247.426 514.772 247.468 514.55 247.457V247.457Z" fill="#2C2C2B"/>
<path d="M754.288 500.584C754.295 500.833 754.256 501.081 754.172 501.312C754.088 501.543 753.962 501.752 753.802 501.925C753.641 502.098 753.45 502.232 753.24 502.317C753.031 502.402 752.808 502.438 752.585 502.421C751.517 502.421 750.838 501.673 750.897 500.342C750.956 499.011 751.685 498.571 752.664 498.621C753.643 498.67 754.278 499.347 754.288 500.584Z" fill="#2D2D2C"/>
<path d="M625.858 226.885C626.916 226.956 627.521 227.644 627.507 228.765C627.53 229.034 627.497 229.305 627.41 229.556C627.324 229.808 627.186 230.034 627.008 230.216C626.83 230.399 626.617 230.532 626.385 230.607C626.153 230.681 625.908 230.695 625.671 230.646C624.579 230.569 624.086 229.805 624.131 228.677C624.175 227.55 624.785 226.918 625.858 226.885Z" fill="#2C2C2B"/>
<path d="M643.429 432.789C644.438 432.899 645.068 433.471 645.088 434.659C645.114 434.907 645.091 435.158 645.021 435.396C644.951 435.633 644.836 435.851 644.684 436.033C644.531 436.216 644.344 436.359 644.137 436.453C643.93 436.547 643.707 436.59 643.484 436.578C642.371 436.621 641.707 435.923 641.717 434.609C641.727 433.295 642.43 432.91 643.429 432.789Z" fill="#2C2C2B"/>
<path d="M73.5281 353.419C73.3903 354.617 72.972 355.415 71.8549 355.464C70.7378 355.514 70.1669 354.947 70.1227 353.705C70.0784 352.462 70.6148 351.791 71.6827 351.714C72.7506 351.637 73.2525 352.451 73.5281 353.419Z" fill="#2C2B2B"/>
<path d="M449.741 32.344C448.619 32.3111 447.999 31.6898 447.964 30.4966C447.938 30.2419 447.962 29.984 448.034 29.7406C448.106 29.4973 448.225 29.2743 448.382 29.0871C448.538 28.8999 448.73 28.753 448.942 28.6566C449.155 28.5601 449.384 28.5163 449.613 28.5283C449.842 28.5141 450.071 28.5522 450.286 28.6403C450.501 28.7284 450.698 28.8647 450.864 29.0407C451.03 29.2168 451.163 29.4289 451.253 29.6641C451.344 29.8993 451.39 30.1527 451.39 30.4087C451.414 31.5523 450.735 32.2396 449.741 32.344Z" fill="#2E2E2D"/>
<path d="M29.2545 55.0395C29.161 56.2326 28.5311 56.9969 27.5617 56.9914C27.3201 57.0134 27.0773 56.9747 26.8509 56.8782C26.6245 56.7817 26.4203 56.6299 26.2532 56.4337C26.0862 56.2376 25.9605 56.0022 25.8855 55.7448C25.8104 55.4874 25.7879 55.2144 25.8196 54.946C25.8786 53.7639 26.5528 53.1811 27.5813 53.1976C28.6099 53.2141 29.1414 53.9674 29.2545 55.0395Z" fill="#2F2F2E"/>
<path d="M98.6496 311.846C99.7372 311.989 100.421 312.61 100.426 313.743C100.426 314.98 99.7815 315.695 98.6004 315.651C97.4193 315.607 97.0059 314.864 97.0059 313.765C96.998 313.517 97.0346 313.27 97.1135 313.039C97.1924 312.808 97.3119 312.596 97.4652 312.417C97.6184 312.239 97.8021 312.096 98.0056 311.998C98.209 311.899 98.428 311.848 98.6496 311.846V311.846Z" fill="#2C2C2B"/>
<path d="M58.2986 403.252C57.3143 403.043 56.6746 402.433 56.7041 401.273C56.7336 400.112 57.2553 399.441 58.3724 399.463C59.4895 399.485 60.1785 400.233 60.1145 401.449C60.0506 402.548 59.3321 403.164 58.2986 403.252Z" fill="#2C2C2B"/>
<path d="M62.2661 451.251C62.0446 452.505 61.3803 453.247 60.4059 453.22C60.1772 453.227 59.9499 453.18 59.7394 453.08C59.5288 452.98 59.3402 452.83 59.1864 452.641C59.0325 452.452 58.9172 452.228 58.8482 451.984C58.7792 451.74 58.7583 451.483 58.7868 451.229C58.7701 450.975 58.805 450.719 58.8889 450.482C58.9728 450.244 59.1035 450.031 59.2714 449.857C59.4393 449.684 59.64 449.555 59.8585 449.481C60.0771 449.406 60.3079 449.387 60.5338 449.426C61.6017 449.481 62.0692 450.273 62.2661 451.251Z" fill="#2E2E2D"/>
<path d="M665.988 33.8857C665.004 33.6933 664.276 33.0995 664.246 31.9833C664.212 30.7462 664.916 30.0039 666.052 30.0259C667.11 30.0259 667.667 30.7791 667.667 31.9393C667.667 33.0995 666.928 33.6273 665.988 33.8857Z" fill="#2F2F2E"/>
<path d="M727.908 460.997C726.825 460.92 726.166 460.205 726.161 459.127C726.136 458.858 726.166 458.587 726.248 458.333C726.33 458.078 726.462 457.848 726.635 457.658C726.807 457.469 727.015 457.325 727.244 457.238C727.473 457.15 727.717 457.121 727.957 457.153C729.02 457.203 729.551 457.956 729.541 459.1C729.532 460.244 728.892 460.87 727.908 460.997Z" fill="#2B2B2A"/>
<path d="M106.786 177.099C105.826 176.956 105.127 176.423 105.147 175.219C105.126 174.949 105.158 174.677 105.243 174.423C105.327 174.168 105.461 173.939 105.635 173.749C105.809 173.56 106.018 173.417 106.248 173.33C106.478 173.242 106.722 173.213 106.963 173.245C107.187 173.251 107.408 173.31 107.611 173.418C107.814 173.525 107.995 173.679 108.142 173.869C108.289 174.059 108.398 174.281 108.464 174.521C108.53 174.761 108.55 175.013 108.523 175.263C108.498 176.483 107.834 177 106.786 177.099Z" fill="#302F2E"/>
<path d="M84.9424 167.89C85.1623 167.871 85.3833 167.905 85.5903 167.991C85.7973 168.076 85.9854 168.21 86.1418 168.384C86.2983 168.557 86.4194 168.767 86.4969 168.997C86.5744 169.228 86.6065 169.475 86.591 169.721C86.6196 169.969 86.5996 170.222 86.5323 170.461C86.4651 170.7 86.3523 170.919 86.2017 171.105C86.051 171.291 85.8661 171.437 85.6598 171.535C85.4534 171.633 85.2305 171.68 85.0064 171.673C84.7657 171.705 84.5217 171.678 84.2918 171.592C84.0618 171.506 83.8517 171.365 83.6766 171.178C83.5015 170.99 83.3658 170.762 83.2791 170.509C83.1925 170.256 83.1572 169.985 83.1757 169.715C83.1806 168.61 83.8794 167.967 84.9424 167.89Z" fill="#2D2C2B"/>
<path d="M431.348 41.8737C431.279 43.1053 430.733 43.7981 429.69 43.8366C429.466 43.866 429.24 43.8424 429.025 43.7672C428.811 43.692 428.613 43.567 428.445 43.4003C428.277 43.2336 428.142 43.0291 428.049 42.8001C427.957 42.5711 427.909 42.3228 427.908 42.0716C427.879 41.8026 427.904 41.5297 427.982 41.2731C428.06 41.0164 428.189 40.7826 428.358 40.5889C428.528 40.3952 428.734 40.2466 428.962 40.1539C429.19 40.0613 429.434 40.027 429.675 40.0537C430.718 40.0647 431.25 40.796 431.348 41.8737Z" fill="#2E2E2D"/>
<path d="M30.708 130.194C29.8025 130.078 29.0692 129.693 29.0102 128.434C28.9511 127.175 29.5023 126.471 30.4865 126.378C30.7245 126.33 30.969 126.343 31.2017 126.416C31.4345 126.489 31.6496 126.619 31.8308 126.798C32.0121 126.977 32.1548 127.199 32.2484 127.448C32.342 127.697 32.384 127.967 32.3714 128.236C32.4304 129.446 31.7611 130.007 30.708 130.194Z" fill="#2B2B2A"/>
<path d="M717.927 112.375C717.704 112.374 717.483 112.32 717.281 112.214C717.079 112.109 716.899 111.956 716.755 111.766C716.611 111.575 716.505 111.352 716.446 111.112C716.387 110.872 716.375 110.62 716.411 110.374C716.465 109.142 717.085 108.532 718.153 108.603C718.381 108.593 718.608 108.638 718.818 108.737C719.028 108.835 719.216 108.983 719.37 109.171C719.523 109.359 719.638 109.583 719.706 109.826C719.773 110.068 719.793 110.325 719.762 110.577C719.703 111.732 719.049 112.348 717.927 112.375Z" fill="#2A2A29"/>
<path d="M23.4272 106.575C22.3888 106.537 21.6999 105.965 21.631 104.821C21.595 104.553 21.614 104.28 21.6865 104.021C21.7589 103.762 21.883 103.525 22.0492 103.328C22.2155 103.13 22.4197 102.978 22.6465 102.881C22.8732 102.785 23.1166 102.747 23.3583 102.771C23.789 102.796 24.1951 103.003 24.495 103.349C24.7949 103.695 24.9665 104.155 24.9752 104.637C24.9839 105.119 24.8292 105.587 24.542 105.946C24.2549 106.306 23.8566 106.53 23.4272 106.575V106.575Z" fill="#2D2D2C"/>
<path d="M150.69 587.9C151.699 588.049 152.392 588.571 152.422 589.797C152.452 591.024 151.891 591.667 150.793 591.694C149.696 591.722 149.09 591.145 149.056 589.907C149.022 588.67 149.691 588.126 150.69 587.9Z" fill="#2A2A29"/>
<path d="M744.279 478.073C744.062 479.228 743.57 479.915 742.477 479.893C741.385 479.871 740.799 479.195 740.814 478.062C740.792 477.792 740.826 477.521 740.913 477.268C740.999 477.014 741.136 476.786 741.313 476.601C741.489 476.416 741.702 476.278 741.933 476.197C742.165 476.117 742.41 476.097 742.65 476.138C743.688 476.209 744.146 477.056 744.279 478.073Z" fill="#2C2C2B"/>
<path d="M46.3676 11.2889C45.1028 11.2889 44.5664 10.4641 44.5664 9.41939C44.5745 9.17027 44.6264 8.92536 44.7192 8.69866C44.812 8.47195 44.9438 8.26789 45.1072 8.09812C45.2705 7.92834 45.4622 7.79619 45.6713 7.70919C45.8804 7.62219 46.1028 7.58206 46.3257 7.59109C46.5487 7.60011 46.7679 7.65812 46.9708 7.7618C47.1737 7.86547 47.3563 8.01278 47.5082 8.19532C47.6602 8.37786 47.7784 8.59205 47.8563 8.82566C47.9342 9.05927 47.9701 9.30773 47.962 9.55686C47.903 10.7061 47.3026 11.3659 46.3676 11.2889Z" fill="#2D2D2C"/>
<path d="M279.916 633.267C279.704 634.399 279.143 635.191 278.134 635.136C277.893 635.145 277.652 635.093 277.43 634.985C277.208 634.877 277.01 634.716 276.85 634.512C276.691 634.309 276.574 634.069 276.507 633.808C276.441 633.548 276.427 633.275 276.466 633.008C276.468 632.757 276.519 632.509 276.615 632.281C276.711 632.054 276.85 631.853 277.023 631.691C277.196 631.53 277.398 631.413 277.615 631.348C277.833 631.283 278.06 631.272 278.282 631.315C279.301 631.403 279.822 632.167 279.916 633.267Z" fill="#2D2D2C"/>
<path d="M721.088 136.061C721.044 136.732 720.463 137.408 719.405 137.375C719.177 137.382 718.95 137.333 718.74 137.234C718.53 137.134 718.342 136.985 718.188 136.796C718.034 136.608 717.918 136.385 717.848 136.143C717.778 135.9 717.755 135.644 717.781 135.39C717.781 134.236 718.45 133.592 719.548 133.62C720.645 133.647 721.162 134.313 721.088 136.061Z" fill="#2A2A29"/>
<path d="M711.036 445.142C710.903 446.335 710.317 447.061 709.298 447.055C709.075 447.05 708.854 446.996 708.649 446.896C708.445 446.796 708.259 446.651 708.105 446.471C707.95 446.291 707.828 446.078 707.747 445.845C707.665 445.613 707.626 445.364 707.63 445.114C707.635 444.865 707.683 444.618 707.773 444.389C707.863 444.16 707.992 443.953 708.153 443.78C708.315 443.607 708.505 443.471 708.713 443.38C708.921 443.29 709.144 443.245 709.367 443.25C710.376 443.316 710.913 444.075 711.036 445.142Z" fill="#2D2D2C"/>
<path d="M688.133 438.939C687.065 438.774 686.43 438.126 686.416 436.987C686.391 436.738 686.415 436.486 686.487 436.248C686.558 436.01 686.676 435.793 686.83 435.611C686.985 435.429 687.174 435.288 687.382 435.196C687.591 435.104 687.816 435.064 688.04 435.079C688.281 435.049 688.525 435.081 688.754 435.171C688.983 435.261 689.191 435.408 689.362 435.6C689.534 435.792 689.664 436.026 689.743 436.282C689.823 436.538 689.849 436.811 689.821 437.081C689.782 438.236 689.068 438.785 688.133 438.939Z" fill="#2D2D2B"/>
<path d="M59.3831 426.487C59.1666 427.587 58.6449 428.379 57.5721 428.313C56.4993 428.247 55.9875 427.521 56.0023 426.317C56.017 425.112 56.647 424.513 57.7198 424.557C58.7926 424.601 59.2699 425.354 59.3831 426.487Z" fill="#292928"/>
<path d="M603.741 232.453C605.011 232.574 605.587 233.289 605.552 234.433C605.563 234.686 605.524 234.939 605.437 235.174C605.35 235.409 605.218 235.619 605.051 235.79C604.883 235.961 604.684 236.089 604.467 236.164C604.25 236.239 604.02 236.26 603.795 236.225C602.678 236.192 602.186 235.477 602.196 234.295C602.183 234.059 602.214 233.823 602.286 233.601C602.358 233.378 602.469 233.175 602.614 233.002C602.758 232.83 602.933 232.692 603.127 232.598C603.321 232.503 603.53 232.454 603.741 232.453V232.453Z" fill="#282827"/>
<path d="M559.45 239.748C559.876 239.757 560.282 239.95 560.583 240.288C560.883 240.626 561.054 241.081 561.059 241.557C561.072 242.063 560.904 242.554 560.592 242.922C560.281 243.289 559.851 243.503 559.398 243.517C558.945 243.531 558.506 243.343 558.177 242.995C557.848 242.647 557.656 242.168 557.644 241.662C557.629 240.523 558.234 239.831 559.45 239.748Z" fill="#2D2C2B"/>
<path d="M64.133 159.141C64.3442 159.139 64.5532 159.188 64.7461 159.284C64.939 159.38 65.1112 159.521 65.2512 159.698C65.3911 159.874 65.4955 160.082 65.5573 160.308C65.6191 160.534 65.6369 160.771 65.6094 161.005C65.6223 161.26 65.586 161.514 65.503 161.752C65.42 161.989 65.2922 162.204 65.1283 162.381C64.9644 162.559 64.7683 162.695 64.5533 162.78C64.3382 162.865 64.1093 162.897 63.882 162.875C62.8584 162.875 62.2383 162.187 62.2482 160.956C62.258 159.724 62.8092 159.119 64.133 159.141Z" fill="#292928"/>
<path d="M559.959 1.32384C559.959 2.97347 559.428 3.7103 558.374 3.75429C558.148 3.78366 557.919 3.75819 557.702 3.67964C557.486 3.60108 557.287 3.47128 557.119 3.29907C556.951 3.12686 556.819 2.91629 556.731 2.68171C556.642 2.44713 556.6 2.19404 556.608 1.9397C556.578 1.6876 556.599 1.43127 556.669 1.18925C556.738 0.947237 556.855 0.725588 557.011 0.540345C557.167 0.355101 557.358 0.210897 557.57 0.118162C557.782 0.0254269 558.01 -0.0135192 558.237 0.00414436C559.329 -0.0453444 559.91 0.543022 559.959 1.32384Z" fill="#292928"/>
<path d="M83.7188 334.36C82.5918 334.239 82.0161 333.563 82.0407 332.409C82.0256 332.157 82.0587 331.904 82.1378 331.668C82.2169 331.432 82.3401 331.217 82.4994 331.038C82.6587 330.859 82.8502 330.72 83.0613 330.63C83.2725 330.54 83.4983 330.502 83.7237 330.517C83.9665 330.496 84.2105 330.536 84.4373 330.635C84.6642 330.734 84.8681 330.889 85.0338 331.088C85.1995 331.288 85.3227 331.526 85.3941 331.786C85.4655 332.046 85.4833 332.321 85.4461 332.59C85.4393 332.834 85.3888 333.074 85.2978 333.296C85.2067 333.517 85.0769 333.716 84.916 333.881C84.7551 334.046 84.5663 334.174 84.3607 334.256C84.1551 334.338 83.9369 334.374 83.7188 334.36V334.36Z" fill="#2D2D2C"/>
<path d="M409.123 605.632C408.04 605.577 407.406 605.027 407.396 603.79C407.37 603.541 407.394 603.289 407.465 603.052C407.535 602.814 407.651 602.597 407.805 602.414C407.959 602.232 408.146 602.09 408.354 601.997C408.562 601.904 408.786 601.863 409.01 601.876C409.236 601.848 409.465 601.875 409.681 601.956C409.897 602.037 410.094 602.17 410.259 602.346C410.424 602.522 410.552 602.736 410.635 602.973C410.717 603.21 410.752 603.465 410.737 603.719C410.755 603.966 410.727 604.214 410.653 604.448C410.58 604.682 410.463 604.896 410.311 605.076C410.159 605.257 409.974 605.399 409.77 605.495C409.565 605.591 409.345 605.638 409.123 605.632V605.632Z" fill="#292827"/>
<path d="M190.51 615.065C189.363 614.96 188.802 614.251 188.822 613.118C188.803 612.864 188.834 612.609 188.912 612.37C188.99 612.131 189.114 611.914 189.274 611.733C189.435 611.553 189.628 611.413 189.841 611.323C190.054 611.234 190.282 611.197 190.51 611.215C190.751 611.196 190.993 611.238 191.218 611.337C191.443 611.436 191.646 611.59 191.811 611.787C191.976 611.985 192.099 612.221 192.172 612.479C192.245 612.737 192.266 613.01 192.232 613.277C192.158 614.421 191.435 614.971 190.51 615.065Z" fill="#2D2D2C"/>
<path d="M667.54 433.942C667.422 435.042 666.89 435.762 665.803 435.723C665.583 435.716 665.366 435.661 665.164 435.561C664.963 435.46 664.782 435.316 664.63 435.137C664.479 434.958 664.36 434.748 664.281 434.518C664.203 434.288 664.165 434.042 664.172 433.796C664.178 433.55 664.227 433.307 664.317 433.083C664.407 432.858 664.536 432.655 664.696 432.486C664.856 432.316 665.045 432.184 665.251 432.096C665.457 432.008 665.676 431.967 665.896 431.973C666.974 432.001 667.506 432.705 667.54 433.942Z" fill="#282827"/>
<path d="M393.812 69.8692C393.817 70.1168 393.774 70.3627 393.685 70.5895C393.596 70.8163 393.463 71.0185 393.297 71.1817C393.13 71.3449 392.933 71.4651 392.72 71.5338C392.507 71.6025 392.283 71.618 392.064 71.5792C391.844 71.5705 391.627 71.5134 391.427 71.4112C391.226 71.309 391.045 71.1636 390.895 70.9834C390.745 70.8031 390.628 70.5916 390.551 70.3608C390.473 70.13 390.438 69.8845 390.445 69.6383C390.453 69.392 390.504 69.1499 390.596 68.9258C390.687 68.7016 390.817 68.4998 390.979 68.3318C391.14 68.1638 391.329 68.033 391.536 67.9468C391.742 67.8605 391.962 67.8206 392.183 67.8293C393.216 67.8953 393.792 68.6046 393.812 69.8692Z" fill="#282827"/>
<path d="M624.983 9.61523C626.017 9.73619 626.711 10.352 626.721 11.5231C626.739 11.7754 626.709 12.0292 626.633 12.2674C626.556 12.5057 626.434 12.7228 626.276 12.9041C626.118 13.0855 625.927 13.2268 625.716 13.3186C625.505 13.4105 625.278 13.4506 625.052 13.4364C624.826 13.4607 624.598 13.4285 624.384 13.342C624.17 13.2555 623.977 13.1169 623.817 12.9363C623.657 12.7557 623.535 12.5377 623.461 12.298C623.386 12.0583 623.359 11.803 623.384 11.5505C623.354 10.3025 623.945 9.74169 624.983 9.61523Z" fill="#2B2B2A"/>
<path d="M235.17 627.652C235.106 628.933 234.515 629.626 233.472 629.62C233.244 629.641 233.016 629.605 232.802 629.516C232.588 629.428 232.394 629.288 232.234 629.107C232.074 628.925 231.951 628.707 231.874 628.467C231.797 628.227 231.768 627.972 231.789 627.718C231.789 626.53 232.424 625.909 233.496 625.882C234.569 625.854 235.111 626.547 235.17 627.652Z" fill="#292928"/>
<path d="M537.539 3.21333C537.539 4.37351 537.022 5.09931 535.945 5.16529C535.72 5.20372 535.49 5.18596 535.272 5.11329C535.054 5.04062 534.853 4.91485 534.683 4.74502C534.514 4.57519 534.38 4.36553 534.292 4.13111C534.204 3.89669 534.163 3.64334 534.173 3.38928C534.142 3.13763 534.16 2.88138 534.228 2.6387C534.295 2.39601 534.409 2.17283 534.562 1.98498C534.715 1.79714 534.903 1.64922 535.113 1.55172C535.323 1.45423 535.55 1.40954 535.777 1.42082C536.83 1.37134 537.455 1.96517 537.539 3.21333Z" fill="#282827"/>
<path d="M580.724 4.65852C579.74 4.4386 579.061 3.81731 579.075 2.67919C579.075 1.41462 579.838 0.738354 580.955 0.809829C582.072 0.881305 582.54 1.67304 582.476 2.81115C582.412 3.94926 581.743 4.53756 580.724 4.65852Z" fill="#2D2D2C"/>
<path d="M64.8105 376.833C64.6579 377.977 64.0674 378.675 63.0241 378.648C61.9808 378.62 61.3902 377.889 61.4148 376.696C61.4394 375.503 62.0595 374.865 63.1372 374.898C64.215 374.931 64.7268 375.657 64.8105 376.833Z" fill="#282827"/>
<path d="M46.7159 147.51C46.6027 148.654 46.017 149.396 45.0082 149.374C44.7846 149.367 44.5644 149.311 44.3601 149.209C44.1559 149.107 43.9716 148.961 43.8179 148.78C43.6641 148.598 43.5438 148.385 43.4639 148.151C43.384 147.918 43.3461 147.669 43.3522 147.419C43.3583 147.169 43.4085 146.923 43.4997 146.695C43.591 146.467 43.7215 146.261 43.884 146.089C44.0464 145.918 44.2376 145.783 44.4465 145.694C44.6555 145.605 44.8781 145.562 45.1017 145.569C46.1253 145.624 46.6863 146.328 46.7159 147.51Z" fill="#2D2D2C"/>
<path d="M712.712 86.754C712.486 87.9912 711.875 88.6896 710.862 88.5906C710.619 88.5916 710.38 88.5315 710.161 88.4146C709.942 88.2978 709.75 88.1273 709.599 87.9158C709.447 87.7043 709.341 87.4573 709.287 87.1933C709.233 86.9293 709.233 86.6551 709.287 86.3911C709.41 85.1924 710.158 84.6755 711.162 84.7965C712.166 84.9174 712.648 85.7587 712.712 86.754Z" fill="#2D2C2B"/>
<path d="M326.06 482.15C326.929 482.787 327.587 483.726 327.93 484.822C333.959 501.268 342.448 516.009 352.758 529.497C354.776 532.13 355.081 531.388 352.335 533.895C335.125 549.814 317.183 564.717 298.58 578.543C297.276 579.51 296.509 579.505 295.204 578.433C283.576 568.849 271.647 559.738 260.126 549.967C237.218 530.558 215.387 509.785 195.658 486.351C184.61 473.215 174.187 459.469 165.427 444.299C158.139 431.652 153.695 417.626 149.812 403.352C144.04 382.139 140.201 360.464 137.017 338.586C134.96 324.499 133.243 310.357 131.781 296.177C130.6 284.68 129.729 273.138 128.71 261.614C127.318 246.042 126.422 230.399 125.546 214.784C124.906 203.303 124.537 191.8 124.07 180.309C123.415 164.363 123.085 148.363 122.765 132.379C122.559 121.932 122.603 111.518 122.46 101.087C122.436 99.4379 122.741 98.855 124.37 98.888C136.889 99.1245 149.409 99.2619 161.928 99.3774C170.855 99.4544 179.787 99.3224 188.714 99.5039C210.716 99.9437 232.72 100.019 254.728 99.7293C276.381 99.4544 298.034 99.097 319.687 99.4544C338.649 99.7623 357.581 99.7733 376.562 99.8008C384.8 99.8008 393.038 99.8723 401.271 99.6798C419.809 99.2509 438.357 99.4709 456.881 99.2399C461.029 99.1849 465.178 99.108 469.322 98.9045C470.872 98.8276 471.472 99.1685 471.438 101.104C471.197 115.4 471.128 129.696 470.882 143.992C470.714 153.639 470.437 163.287 470.05 172.935C469.322 191.674 468.524 210.412 467.378 229.129C466.487 243.612 465.503 258.084 464.248 272.528C462.535 292.267 460.473 311.968 457.757 331.576C454.41 355.769 450.331 379.742 444.031 403.204C442.481 408.96 440.764 414.657 438.835 420.276C438.569 421.057 438.471 421.821 437.304 421.513C429.849 419.534 422.339 417.912 414.219 417.241C416.911 415.888 419.214 414.888 421.394 413.612C427.339 410.137 428.318 405.282 424.381 399.173C422.565 396.352 420.73 393.543 418.83 390.788C418.239 389.93 418.161 389.391 419.032 388.77C419.482 388.408 419.89 387.985 420.247 387.511C421.984 385.411 422.024 383.431 420.193 381.424C418.466 379.538 416.596 377.812 414.78 376.008C413.953 375.189 412.752 374.656 413.303 372.918C413.594 372.016 412.747 372.077 412.413 372.28C410.971 373.171 410.292 371.912 409.396 371.131C409.745 370.262 410.479 370.136 411.109 370.032C411.965 369.905 412.147 369.333 412.034 368.591C411.886 367.656 411.168 368.102 410.68 368.041C410.407 368.067 410.136 368.124 409.873 368.212C408.924 368.344 408.289 369.889 407.309 369.273C406.017 368.38 404.798 367.361 403.668 366.227C402.999 365.611 403.668 365.088 403.993 364.786C406.168 362.746 408.048 360.585 407.93 357.055C407.93 356.187 408.835 355.752 409.322 355.12C411.576 352.189 412.073 349.264 408.274 347.691C407.516 347.378 407.615 347.01 407.733 346.328C408.068 344.82 408.008 343.236 407.56 341.764C407.388 337.162 408.486 332.73 409.037 328.227C410.641 314.591 412.044 300.933 413.151 287.231C414.283 273.232 415.18 259.216 415.843 245.184C416.286 235.628 416.601 226.055 416.871 216.483C417.226 204.051 417.103 191.608 417.629 179.181C417.659 178.489 417.629 177.79 417.629 177.098C417.629 175.877 417.137 175.217 416.02 175.217C415.395 175.217 414.775 175.217 414.15 175.217H181.648C178.916 175.245 178.808 175.338 178.808 178.318C178.808 188.127 178.887 197.937 179.167 207.746C179.497 219.397 179.93 231.043 180.373 242.688C180.718 251.64 181.21 260.575 181.771 269.504C182.456 280.442 183.319 291.366 184.359 302.275C185.284 311.798 186.264 321.321 187.543 330.795C190.432 352.14 193.887 373.347 200.555 393.724C203.487 402.747 207.608 411.231 212.779 418.896C220.094 429.776 228.156 440.003 236.893 449.484C251.834 465.644 268.039 480.121 284.973 493.592C288.861 496.688 292.847 499.64 296.587 502.939C297.744 503.973 298.526 503.808 299.658 502.879C307.753 496.253 316.046 489.936 324.018 483.129C324.614 482.606 325.224 482.067 326.06 482.15Z" fill="#FF8025"/>
<path d="M326.065 482.164C318.113 489.125 309.825 495.537 301.602 502.107C300.426 503.047 299.289 504.779 298.118 504.79C296.947 504.801 295.849 503.042 294.673 502.118C282.749 492.721 270.894 483.22 259.604 472.872C241.258 456.052 224.231 437.803 210.264 416.211C203.375 405.522 199.364 393.398 196.131 380.917C191.288 362.189 188.36 343.032 186.032 323.733C182.77 296.725 180.89 269.541 179.684 242.29C179.089 229.094 178.626 215.898 178.444 202.702C178.326 194.053 178.286 185.393 178.109 176.744C178.07 174.891 178.419 174.264 180.221 174.27C258.848 174.321 337.474 174.321 416.099 174.27C417.605 174.27 418.269 174.522 418.249 176.502C417.989 203.147 417.373 229.776 415.892 256.377C414.908 273.648 413.678 290.891 411.994 308.09C410.971 318.537 409.667 328.924 408.205 339.299C408.052 340.124 407.858 340.939 407.624 341.74C407.203 340.183 406.458 338.758 405.449 337.584C403.555 335.214 402.57 335.34 401.36 338.133C401.03 338.892 400.725 339.673 400.464 340.465C398.496 346.474 394.879 350.73 389.775 353.661C382.738 357.735 375.504 361.441 369.042 366.659C368.517 367.031 367.891 367.183 367.276 367.088C363.432 366.978 359.687 367.533 356.154 369.315C355.11 369.865 354.761 369.353 354.81 368.32C354.874 366.923 354.471 366.461 353.147 366.626C334.909 368.952 318.31 375.77 304.013 388.906C300.912 391.764 298.106 395.001 295.647 398.556C290.766 405.593 290.318 413.583 291.814 421.891C293.812 432.976 298.679 442.631 304.215 451.901C310.406 462.271 317.625 471.728 325.189 480.861C325.509 481.301 325.775 481.747 326.065 482.164Z" fill="white"/>
<path d="M405.635 420.153C408.671 418.823 411.584 419.18 414.439 419.35C424.842 419.972 434.876 422.847 444.911 425.729C452.184 427.818 459.369 430.298 466.8 431.716C470.698 432.464 474.349 431.573 477.996 430.314C490.609 425.959 502.602 419.867 514.546 413.703C516.022 412.939 516.731 413.154 517.73 414.567C520.742 418.894 523.911 423.084 527.08 427.285C527.749 428.181 527.828 428.61 526.829 429.281C512.631 438.804 498.473 448.399 483.823 457.037C477.031 461.045 469.689 461.501 462.238 461.078C453.031 460.528 444.079 458.131 435.039 456.382C434.834 456.385 434.63 456.409 434.429 456.454C436.225 461.402 439.133 465.295 442.696 468.616C447.804 473.378 453.675 476.545 459.97 478.799C460.782 479.085 461.515 479.146 461.446 480.493C460.954 496.4 460.137 512.257 456.417 527.73C451.495 548.129 441.018 564.019 425.413 575.813C425.044 576.137 424.611 576.356 424.15 576.451C423.689 576.547 423.214 576.517 422.765 576.363C398.026 569.089 376.895 555.013 359.282 534.372C346.516 519.438 336.398 502.541 329.415 483.374C329.031 482.324 328.313 481.62 327.658 480.839C317.078 468.16 307.083 454.997 299.711 439.601C296.438 432.772 293.869 425.652 293.067 417.86C292.339 410.784 293.658 404.389 297.821 398.825C306.586 387.113 317.934 379.751 330.537 374.5C337.028 371.795 343.755 370.145 350.596 368.963C352.5 368.638 353.243 369.139 353.426 371.36C353.883 377.051 354.498 382.725 355.143 388.405C355.325 390.055 354.941 390.77 353.45 391.319C346.25 393.981 339.041 396.691 332.688 401.502C323.859 408.178 322.904 415.375 329.897 425.465C334.056 431.463 339.587 431.815 345.596 430.479C348.706 429.786 351.841 429.209 354.946 428.456C356.078 428.181 356.546 428.544 356.915 429.698C358.332 433.96 359.867 438.16 361.265 442.427C361.654 443.631 362.151 444.077 363.302 444.121C365.094 444.165 366.88 444.489 368.671 444.671C369.808 444.77 370.414 445.171 370.187 446.667C369.99 447.959 370.099 449.416 369.424 450.46C368.248 452.286 368.74 453.441 369.917 454.991C377.613 465.081 387.205 472.438 397.333 479.052C401.683 481.889 406.068 484.661 410.413 487.503C411.461 488.185 411.889 488.191 412.017 486.618C413.304 471.321 414.307 456.001 415.029 440.657C415.118 438.798 414.882 437.325 413.326 436.412C412.003 435.637 412.224 434.312 412.578 433.195C413.474 430.391 412.908 428.274 410.881 426.306C409.045 424.508 407.534 422.38 405.635 420.153Z" fill="white"/>
<path d="M427.515 576.669C431.922 573.142 436.058 569.212 439.882 564.919C449.724 553.598 455.664 539.978 458.941 524.78C461.633 512.266 462.524 499.488 463.036 486.699C463.075 485.736 463.149 484.988 463.951 484.329C477.002 473.618 490.57 463.919 505.752 457.343C514.463 453.571 523.345 451.844 532.72 453.725C543.394 455.847 550.584 462.412 554.506 473.623C557.523 482.272 558.675 491.35 559.428 500.499C560.25 510.732 560.515 520.998 560.54 531.291C560.54 533.061 560.54 533.825 558.463 533.363C549.192 531.285 539.876 529.476 530.565 527.623C529.241 527.359 528.631 526.804 528.488 525.182C528.128 520.494 527.386 515.852 526.269 511.315C525.925 509.904 525.448 508.538 524.846 507.241C523.65 504.766 521.839 504.491 520.25 506.691C518.977 508.516 517.793 510.415 516.702 512.382C514.812 515.609 512.947 518.853 511.141 522.136C510.59 523.142 510.078 523.389 508.985 523.125C505.683 522.323 502.337 521.74 499.005 521.108C498.513 521.009 497.77 520.453 497.593 521.69C497.416 522.927 498.026 522.883 498.774 523.037C514.453 526.256 530.13 529.491 545.806 532.742L602.818 544.503C619.712 547.995 636.602 551.53 653.506 554.95C655.101 555.269 655.475 555.879 655.475 557.584C655.39 564.384 655.39 571.187 655.475 577.994C655.475 579.644 655.224 580.193 653.6 580.193C646.13 580.127 638.654 580.193 631.189 580.314C609.535 580.688 587.882 580.969 566.268 581.573C536.879 582.393 507.484 582.805 478.09 582.261C463.725 581.991 449.355 581.348 435.133 578.687C432.55 578.236 430.003 577.562 427.515 576.669V576.669Z" fill="white"/>
<path d="M396.434 438.97C387.97 433.021 381.021 425.532 376.873 415.14C376.1 413.21 376.061 411.094 375.48 409.125C375.165 408.064 376.021 407.822 376.538 407.415C379.363 405.216 382.207 403.016 385.15 400.762C382.712 398.776 380.81 396.079 379.653 392.965C379.335 392.111 379.167 391.196 379.161 390.271C379.161 389.171 379.373 388.27 380.249 387.692C380.667 387.41 381.155 387.284 381.642 387.334C382.129 387.383 382.589 387.605 382.955 387.967C383.82 388.601 384.592 389.38 385.244 390.277C386.228 391.871 387.355 391.239 388.319 390.639C389.284 390.04 388.319 389.182 388.118 388.501C387.133 385.537 386.051 382.639 385.386 379.555C385.217 378.885 385.185 378.182 385.292 377.497C385.398 376.812 385.641 376.162 386.001 375.596C389.072 370.746 393.516 367.722 397.866 364.571C398.575 364.06 398.885 364.714 399.269 365.044C405.534 370.383 411.872 375.618 417.738 381.54C420.396 384.217 420.371 385.718 417.276 387.648C415.489 388.748 415.504 389.545 416.725 391.046C417.709 392.24 418.427 393.675 419.382 394.895C420.337 396.116 419.874 396.754 418.841 397.375C417.32 398.304 415.647 398.299 414.003 398.403C413.285 398.447 412.832 398.568 412.857 399.558C412.881 400.548 413.418 400.454 413.974 400.443C416.203 400.399 418.403 400.19 420.297 398.689C421.08 398.068 421.528 397.963 422.069 398.975C422.94 400.625 424.19 401.966 424.574 403.968C425.194 407.201 424.761 408.823 422.276 410.676C418.383 413.573 413.91 414.992 409.559 416.696C408.796 417.055 408.001 417.324 407.187 417.499C403.536 417.994 401.813 420.551 400.741 424.24C399.491 428.562 398.241 432.878 397.133 437.25C397.041 437.882 396.8 438.476 396.434 438.97V438.97Z" fill="white"/>
<path d="M338.953 429.163C336.744 429.405 335.125 427.975 333.574 426.601C330.104 423.589 327.782 419.223 327.073 414.378C326.581 411.282 328.097 408.879 329.864 406.751C333.176 402.754 337.492 400.439 341.842 398.273C346.325 396.071 350.927 394.187 355.621 392.631C356.901 392.197 357.55 391.642 357.053 390.097C356.971 389.882 356.936 389.648 356.95 389.415C357.073 388.315 356.025 386.869 357.295 386.176C358.436 385.555 360.695 387.199 361.113 388.612C363.18 395.606 366.984 401.33 371.743 406.273C373.407 407.999 373.953 410.072 374.307 412.382C374.4 412.788 374.38 413.215 374.25 413.608C374.12 414.001 373.886 414.34 373.579 414.581C371.354 416.67 369.273 418.93 367.959 421.899C367.827 422.164 367.644 422.392 367.424 422.568C367.203 422.743 366.951 422.863 366.684 422.917C357.619 426.045 348.436 428.443 338.953 429.163Z" fill="white"/>
<path d="M697.501 521.842C696.325 525.014 695.207 528.209 693.962 531.343C689.533 542.45 684.893 553.435 680.114 564.333C679.013 567.007 677.158 569.205 674.834 570.591C672.531 571.965 672.486 573.29 674.671 574.797C675.405 575.303 675.41 575.682 675.09 576.446C673.948 579.157 672.821 581.879 671.778 584.639C671.379 585.689 670.843 585.832 670.011 585.436C666.074 583.567 662.442 581.037 658.791 578.558C658.077 578.074 658.112 577.497 658.363 576.815C659.672 573.268 661.315 570.096 664.652 568.342C667.181 567.017 668.244 564.174 669.081 561.397C669.573 559.808 668.471 559.154 667.294 558.571C664.75 557.306 664.342 554.629 666.684 552.902C677.767 544.809 685.68 532.948 695.33 523.161C695.882 522.611 696.443 522.062 696.999 521.512L697.501 521.842Z" fill="white"/>
<path d="M400.274 478.508C389.723 471.949 379.777 464.509 371.761 454.222C370.968 453.205 370.437 452.49 371.165 450.895C372.066 448.932 371.943 446.546 372.149 444.297C372.233 443.379 371.928 443.126 371.165 443.044C369.034 442.818 366.918 442.389 364.768 442.23C363.591 442.142 362.947 441.812 362.524 440.448C361.318 436.599 359.969 432.816 358.587 429.045C358.154 427.857 358.35 427.511 359.472 427.241C361.563 426.745 363.624 426.105 365.644 425.322C366.854 424.849 367.425 425.135 368.139 426.328C372.405 433.476 376.598 440.696 382.125 446.672C385.215 450.01 387.174 453.925 388.719 458.219C391.465 465.801 395.845 472.075 400.83 477.914C400.899 478.409 400.732 478.629 400.274 478.508Z" fill="white"/>
<path d="M374.893 415.984C375.498 416.045 375.469 416.628 375.631 417.007C380.026 427.311 387.038 434.882 395.626 440.755C396.91 441.629 397.102 442.36 396.61 443.834C395.67 446.583 394.868 449.332 394.086 452.142C393.726 453.423 393.303 453.577 392.221 452.939C386.97 449.838 382.919 445.241 379.283 440.15C375.936 435.438 372.841 430.522 369.79 425.568C369.105 424.468 369.041 423.578 369.671 422.434C370.93 420.215 372.485 418.223 374.283 416.529C374.479 416.325 374.706 416.149 374.893 415.984Z" fill="white"/>
<path d="M521.143 416.334C523.465 415.377 525.636 414.453 527.83 413.584C528.288 413.447 528.7 413.167 529.021 412.777C529.341 412.388 529.556 411.905 529.641 411.385C529.959 409.762 530.636 408.253 531.609 406.996C532.582 405.739 533.82 404.773 535.212 404.188C537.722 403.044 540.035 401.367 542.87 399.668C542.5 400.814 541.879 401.839 541.064 402.648C540.382 403.412 539.652 404.119 538.879 404.765C537.781 405.678 537.638 406.316 538.632 407.685C540.404 410.137 542.427 410.896 545.222 410.83C553.928 410.621 562.643 410.753 571.915 410.753C565.261 414.14 559.119 417.054 552.136 417.307C547.245 417.483 542.373 418.264 537.491 418.775C534.1 419.132 531.305 421.288 528.268 422.69C526.871 423.333 526.049 423.24 525.158 421.86C523.948 420.018 522.575 418.291 521.143 416.334Z" fill="white"/>
<path d="M402.586 451.348C403.492 452.03 404.063 452.706 404.299 451.034C404.953 446.702 405.775 442.407 406.612 438.108C406.833 436.953 406.484 436.238 405.706 435.545C404.417 434.38 403.246 433.066 401.937 431.922C401.011 431.108 400.672 430.399 401.154 429.019C402.05 426.457 402.734 423.812 403.954 421.123C406.277 423.911 408.467 426.561 410.672 429.2C411.956 430.74 410.839 432.345 410.583 433.78C410.268 435.556 410.416 436.761 411.833 437.629C413.058 438.416 413.344 439.548 413.24 441.115C412.492 452.662 411.823 464.209 411.119 475.755C411.07 476.514 410.908 477.262 410.711 478.664C407.921 469.317 405.317 460.541 402.586 451.348Z" fill="white"/>
<path d="M388.752 453.149C390.327 454.04 391.606 454.716 392.841 455.475C394.077 456.234 394.958 456.168 395.302 454.337C395.492 453.316 395.918 452.368 396.537 451.588C398.178 459.319 399.818 467.047 401.459 474.775C395.396 468.968 391.715 461.589 388.752 453.149Z" fill="#FEFEFE"/>
<path d="M590.932 405.887H564.652C565.182 404.893 565.66 403.865 566.084 402.808C566.37 401.978 566.901 402.115 567.423 402.11C574.244 402.022 581.069 401.962 587.895 401.852C588.85 401.852 589.337 402.06 589.578 403.226C589.77 404.128 590.415 404.909 590.932 405.887Z" fill="#FDFDFD"/>
<path d="M657.146 574.381C657.146 568.844 657.146 563.863 657.146 558.881C657.146 557.936 657.452 557.727 658.249 557.782C661.265 557.952 664.208 558.331 666.738 560.454C667.195 560.844 667.476 561.042 667.151 561.68C666.167 563.665 665.439 565.897 663.318 566.887C660.414 568.239 658.923 571.131 657.146 574.381Z" fill="#FEFEFE"/>
<path d="M366.195 369.24C361.845 373.595 359.306 378.219 360.255 384.421C356.525 384.327 356.318 384.091 355.984 380.209C355.792 377.911 355.59 375.613 355.295 373.331C355.177 372.418 355.295 371.907 356.097 371.516C359.257 369.883 362.716 369.103 366.195 369.24Z" fill="#FEFEFE"/>
<path d="M402.923 448.199C397.79 444.318 397.741 440.095 400.221 432.908C401.594 434.261 402.923 435.569 404.262 436.878C404.572 437.186 404.882 437.472 404.754 438.033C404.158 441.392 403.553 444.752 402.923 448.199Z" fill="#FEFEFE"/>
<path d="M400.272 478.514L400.829 477.926L402.723 479.774C402.261 479.755 401.806 479.634 401.385 479.418C400.964 479.202 400.586 478.895 400.272 478.514V478.514Z" fill="#D2D2D1"/>
<path d="M77.2718 540.3C76.7797 539.789 76.4451 539.514 76.1646 539.2C71.8093 534.34 67.4786 529.457 63.0889 524.635C62.2966 523.766 62.3556 523.304 63.0889 522.435C66.3566 518.586 66.332 518.586 69.5849 522.221C71.5928 524.459 73.6744 526.62 75.574 528.973C76.6911 530.353 77.3407 530.507 78.5956 529.05C83.5168 523.381 88.5709 517.899 93.502 512.263C94.5305 511.092 95.0767 511.164 96.0659 512.302C98.9793 515.678 99.0186 515.601 96.0905 518.9C90.1851 525.498 84.2698 532.113 78.3446 538.744C77.9584 539.237 77.6001 539.757 77.2718 540.3Z" fill="white"/>
<path d="M272.986 269.02C272.986 265.314 272.711 261.57 273.05 257.897C273.675 250.897 278.597 244.887 285.486 243.254C292.811 241.514 300.381 241.514 307.706 243.254C314.482 244.865 320.693 251.392 320.284 261.399C320.043 267.448 320.284 273.457 320.21 279.489C320.21 280.924 320.52 281.293 321.805 281.271C327.066 281.183 332.326 281.271 337.582 281.21C338.665 281.21 339.177 281.458 339.314 282.788C340.151 291.003 340.998 299.212 340.584 307.531C340.21 315.047 339.078 322.377 336.268 329.299C331.726 340.461 323.847 347.252 313.385 350.226C302.757 353.313 291.602 353.336 280.964 350.292C265.816 345.971 257.504 334.501 254.611 317.67C252.829 307.306 253.238 296.93 254.463 286.555C254.665 284.823 254.183 282.425 255.329 281.551C256.476 280.677 258.395 281.271 259.98 281.265C263.789 281.265 267.593 281.188 271.397 281.298C272.716 281.337 273.016 280.891 272.977 279.489C272.888 276.014 272.947 272.534 272.947 269.042L272.986 269.02Z" fill="#1E1E1F"/>
<path d="M406.551 522.21C406.315 522.76 406.059 523.31 405.818 523.827C402.521 530.595 397.25 534.961 391.369 538.557C389.917 539.436 388.424 540.227 386.896 540.927C386.438 541.136 385.774 542.026 385.282 540.657C384.844 539.442 385.533 539.398 386.153 539.101C389.968 537.32 393.565 535.003 396.856 532.206C400.085 529.545 402.735 526.104 404.607 522.139C404.819 521.666 404.907 520.786 405.729 521.364C406.059 521.589 406.605 521.507 406.551 522.21Z" fill="#262524"/>
<path d="M404.524 373.582C404.661 374.237 404.41 374.556 403.835 374.726C403.094 374.937 402.401 375.319 401.801 375.847C401.201 376.376 400.707 377.039 400.35 377.794C399.858 378.801 399.317 378.564 398.702 378.19C397.831 377.64 398.579 377.091 398.795 376.684C399.792 374.804 401.389 373.415 403.264 372.796C403.913 372.598 404.543 372.439 404.524 373.582Z" fill="#2B2B2A"/>
<path d="M403.179 379.379C403.331 377.806 404.242 377.036 405.575 376.794C405.925 376.733 406.481 376.447 406.589 377.118C406.663 377.597 406.865 378.488 406.402 378.565C405.305 378.741 404.522 380.352 403.179 379.379Z" fill="#272726"/>
<path d="M296.496 281.23C293.111 281.23 289.725 281.175 286.339 281.23C285.178 281.263 284.828 280.906 284.863 279.581C284.932 274.027 284.863 268.468 284.897 262.915C284.859 260.712 285.551 258.57 286.841 256.903C288.132 255.236 289.928 254.162 291.885 253.887C294.968 253.397 298.098 253.397 301.181 253.887C305.01 254.491 308.504 258.06 308.288 263.091C308.051 268.479 308.164 273.895 308.288 279.295C308.322 280.983 307.854 281.324 306.447 281.274C303.13 281.148 299.808 281.23 296.496 281.23Z" fill="white"/>
<path d="M307.006 324.244C306.971 328.56 304.137 332.222 300.116 333.113C296.032 334.02 291.795 331.524 290.318 327.34C288.896 323.315 290.205 318.988 293.763 316.563C294.175 316.326 294.512 315.954 294.73 315.497C294.947 315.04 295.034 314.52 294.979 314.006C294.979 312.4 294.732 310.778 295.205 309.184C295.697 307.468 296.706 306.385 298.33 306.319C299.954 306.253 300.992 307.369 301.568 309.03C302.144 310.69 301.863 312.389 301.853 314.072C301.8 314.587 301.892 315.108 302.117 315.562C302.342 316.016 302.689 316.379 303.108 316.601C304.329 317.345 305.341 318.454 306.029 319.804C306.718 321.154 307.056 322.691 307.006 324.244V324.244Z" fill="white"/>
<path d="M582.276 347.773L588.023 359.418C588.815 361.022 590.345 362.134 592.115 362.391L604.966 364.259C609.424 364.906 611.204 370.384 607.978 373.528L598.679 382.593C597.398 383.841 596.814 385.64 597.116 387.403L599.311 400.202C600.073 404.642 595.413 408.027 591.426 405.931L579.932 399.888C578.349 399.056 576.457 399.056 574.874 399.888L563.38 405.931C559.393 408.027 554.733 404.642 555.494 400.202L557.69 387.403C557.992 385.64 557.408 383.841 556.127 382.593L546.828 373.528C543.602 370.384 545.382 364.906 549.84 364.259L562.691 362.391C564.461 362.134 565.991 361.022 566.782 359.419L572.53 347.774C574.523 343.734 580.283 343.734 582.276 347.773Z" fill="#FF8025"/>
<path d="M593.962 407.899C592.885 407.899 591.804 407.639 590.804 407.114L579.31 401.071C578.116 400.443 576.69 400.443 575.497 401.071L564.002 407.114C561.704 408.322 558.971 408.125 556.871 406.598C554.77 405.072 553.738 402.534 554.177 399.975L556.372 387.176C556.6 385.847 556.16 384.491 555.194 383.549L545.895 374.485C544.035 372.673 543.379 370.013 544.181 367.543C544.983 365.074 547.078 363.308 549.648 362.935L562.498 361.067C563.833 360.873 564.987 360.036 565.584 358.826L571.331 347.181C572.48 344.853 574.807 343.406 577.403 343.406C579.999 343.406 582.326 344.853 583.476 347.181L589.223 358.826C589.82 360.036 590.973 360.873 592.308 361.067L605.159 362.935C607.728 363.308 609.823 365.074 610.625 367.543C611.427 370.013 610.771 372.673 608.912 374.485L599.613 383.549C598.647 384.491 598.206 385.847 598.434 387.176L600.629 399.975C601.068 402.534 600.036 405.072 597.936 406.598C596.749 407.461 595.36 407.899 593.962 407.899ZM577.403 397.926C578.486 397.926 579.568 398.185 580.554 398.704L592.048 404.747C593.46 405.489 595.073 405.372 596.364 404.435C597.654 403.497 598.263 401.999 597.994 400.427L595.798 387.628C595.422 385.431 596.15 383.19 597.746 381.634L607.045 372.57C608.187 371.457 608.575 369.887 608.082 368.37C607.589 366.853 606.352 365.81 604.774 365.581L591.923 363.714C589.717 363.393 587.811 362.008 586.824 360.009L581.077 348.364C580.372 346.934 578.998 346.08 577.403 346.08C575.808 346.08 574.435 346.934 573.729 348.364L567.982 360.009C566.995 362.008 565.089 363.393 562.883 363.714L550.032 365.581C548.454 365.81 547.217 366.853 546.724 368.37C546.231 369.886 546.619 371.457 547.761 372.57L557.06 381.634C558.657 383.19 559.385 385.431 559.008 387.628L556.813 400.427C556.543 401.999 557.152 403.497 558.442 404.435C559.733 405.373 561.346 405.489 562.758 404.747L574.252 398.704C575.239 398.185 576.321 397.926 577.403 397.926Z" fill="#222221"/>
<path d="M574.862 355.868C574.663 355.868 574.461 355.824 574.271 355.73C573.609 355.403 573.337 354.602 573.664 353.939L574.808 351.621C575.135 350.959 575.936 350.686 576.599 351.013C577.261 351.34 577.533 352.142 577.206 352.804L576.062 355.123C575.829 355.595 575.354 355.868 574.862 355.868Z" fill="#222221"/>
<path d="M563.32 368.582C562.667 368.582 562.095 368.103 561.998 367.437C561.892 366.706 562.399 366.028 563.129 365.922C566.245 365.469 568.937 363.513 570.331 360.689L571.616 358.085C571.943 357.423 572.745 357.151 573.407 357.478C574.069 357.805 574.341 358.607 574.014 359.269L572.729 361.873C570.946 365.486 567.501 367.989 563.514 368.568C563.449 368.578 563.384 368.582 563.32 368.582Z" fill="#222221"/>
</svg>
