<svg width="760" height="472" viewBox="0 0 760 472" fill="none" xmlns="http://www.w3.org/2000/svg">
<path d="M589.894 455.294C592.195 455.294 594.5 455.243 596.797 455.294C611.187 455.681 625.457 457.027 639.428 460.71C640.541 461.049 641.635 461.447 642.706 461.902C643.288 462.123 644.087 462.424 644.002 463.063C643.901 463.806 643.001 463.895 642.33 463.991C641.243 464.154 640.149 464.301 639.051 464.378C626.492 465.152 613.914 465.485 601.336 465.752C583.458 466.139 565.58 466.444 547.709 467.036C539.95 467.296 532.264 468.681 524.493 468.913C512.393 469.349 500.278 468.852 488.255 467.427C485.951 467.145 483.6 467.319 481.245 467.33C472.022 467.388 462.804 467.501 453.582 467.528C424.944 467.618 396.308 467.688 367.675 467.737C357.764 467.76 347.851 467.782 337.937 467.802C321.424 467.845 304.931 468.866 288.419 468.623C284.225 468.561 280.023 468.685 275.848 468.182C275.236 468.129 274.63 468.016 274.04 467.845C272.55 467.354 272.64 466.483 273.687 465.632C274.352 465.147 275.074 464.745 275.837 464.436C285.513 460.022 295.589 456.628 305.564 452.988C309.859 451.44 313.758 449.2 317.626 446.844C320.287 445.226 323.011 443.636 326.224 445.702C327.147 446.298 327.077 445.195 327.135 444.89C327.294 443.992 328.66 442.955 326.868 442.181C324.482 441.144 322.177 439.91 319.764 438.947C318.239 438.335 318.239 437.786 319.112 436.509C337.124 409.717 355.123 382.912 373.107 356.094C375.252 352.91 376.308 349.319 377.712 345.853C382.368 334.381 387.129 322.956 393.041 312.064C397.007 304.763 402.101 298.433 410.078 295.137C420.91 290.66 431.773 291.341 442.311 295.911C453.888 300.94 463.774 308.613 473.078 317.016C475.406 319.129 477.609 321.423 479.79 323.706C480.087 324.068 480.483 324.337 480.929 324.479C481.376 324.622 481.855 324.633 482.308 324.511C499.612 321.338 511.833 311.743 519.115 295.795C519.709 294.495 519.468 293.91 518.312 293.051C502.479 281.247 488.259 267.767 476.356 251.985C471.087 245.021 471.165 242.931 475.968 235.623C482.067 226.337 490.595 219.713 499.988 214.083C507.775 209.413 516.093 205.885 524.706 203.037C525.812 202.674 526.091 202.565 525.944 201.01C525.684 198.301 525.168 195.883 523.973 193.411C523.131 191.681 524.722 190.35 526.25 189.561C527.166 189.085 527.325 188.787 526.952 187.72C525.56 183.812 526.976 180.473 529.49 177.486C530.545 176.232 531.678 176.476 532.555 177.714C533.379 178.892 534.136 180.115 534.821 181.378C537.808 186.849 542.192 190.525 548.109 192.715C555.682 195.527 563.477 197.841 570.612 201.64C573.276 203.124 576.369 203.654 579.376 203.142C582.748 202.623 586.1 203.273 589.324 204.302C590.604 204.689 590.876 204.302 590.647 203.273C590.197 201.219 591.338 200.929 592.975 200.917C610.923 200.812 628.025 204.36 644.06 212.578C645.1 213.112 645.915 213.871 647.226 212.741C648.278 211.839 649.818 212.954 649.473 214.439C649.201 215.6 649.779 215.817 650.458 216.258C654.32 218.767 657.94 221.628 661.271 224.805C667.331 230.608 669.287 237.859 669.093 245.899C668.813 257.599 664.654 268.22 659.641 278.566C659.301 279.168 659.122 279.847 659.122 280.539C659.122 281.23 659.301 281.91 659.641 282.512C665.868 295.1 670.173 308.545 672.414 322.402C676.003 344.982 673.124 366.61 662.947 387.171C649.271 414.804 628.029 435.004 601.022 449.463C597.379 451.397 593.596 453.096 589.879 454.907L589.894 455.294Z" fill="#222221"/>
<path d="M148.89 466.028C149.852 466.894 151.784 467.258 151.272 468.953C150.837 470.38 149.118 470.423 147.78 470.651C141.285 471.758 134.755 471.386 128.23 471.038C125.692 470.907 123.155 470.651 120.614 470.616C118.891 470.585 117.611 470.117 116.734 468.535C116.074 467.374 115.151 466.345 114.193 465.053C113.417 466.484 112.641 467.684 112.113 468.991C111.488 470.539 110.538 471.108 108.835 471.046C105.343 470.918 105.343 471.015 104.412 467.718C103.554 464.623 102.639 461.528 101.874 458.433C101.614 457.376 101.23 456.99 100.113 456.966C98.2156 456.935 95.748 457.674 94.588 456.425C93.5482 455.299 93.812 452.942 93.6103 451.093C92.1708 437.876 90.6732 424.663 89.3658 411.431C87.938 396.972 86.5723 382.506 85.4123 368.024C84.3065 354.227 83.4258 340.406 82.5761 326.59C81.8273 314.344 81.2492 302.091 81.0242 289.833C80.9776 287.025 80.7837 284.216 80.7681 281.407C80.7681 280.312 80.322 280.014 79.3287 279.909C78.1066 279.778 76.9077 279.329 75.6895 279.275C74.1026 279.201 74.1027 278.404 74.2035 277.143C75.9378 255.344 82.1804 234.722 90.6616 214.704C97.2573 199.107 105.51 184.478 117.002 171.85C129.456 158.169 144.284 148.326 162.57 144.286C184.941 139.349 206.376 141.578 226.497 153.085C227.312 153.595 228.251 153.877 229.213 153.901C230.466 153.901 231.785 154.098 232.778 154.764C235.39 156.505 238.21 155.797 240.965 155.754C242.001 155.754 241.865 155.317 241.551 154.594C240.864 153.046 240.142 151.467 240.092 149.711C240.022 147.281 241.306 145.776 243.669 146.062C245.71 146.306 245.524 145.35 245.388 144C244.848 138.556 244.173 133.12 245.5 127.665C247.739 118.449 255.2 112.103 264.674 111.442C273.082 110.854 281.082 112.25 288.605 116.116C289.136 116.39 289.536 116.804 290.203 116.193C293.54 113.132 298.203 115.473 299.627 118.955C299.806 119.396 300.015 119.826 300.202 120.263C300.589 119.489 300.896 118.716 301.323 118.046C302.099 116.812 303.104 115.949 304.721 116.297C306.227 116.618 306.786 117.733 307.104 119.071C307.492 120.72 307.247 122.36 306.949 123.974C306.139 128.424 304.55 132.698 302.254 136.598C301.579 137.759 300.849 138.839 299.589 139.353C299.336 139.437 299.116 139.598 298.96 139.813C298.804 140.028 298.72 140.287 298.719 140.553C298.317 143.4 297.689 146.211 296.842 148.96C296.628 149.637 296.76 150.454 296.842 151.196C297.311 154.93 296.248 158.141 293.42 160.641C292.454 161.496 292.147 162.545 291.81 163.643C289.532 171.06 286.801 178.272 282.304 184.687C279.949 188.057 277.14 190.944 273.28 192.58C267.309 195.107 259.386 193.122 254.882 187.488C252.884 184.989 251.029 183.913 247.898 184.687C246.055 185.144 244.076 185.128 242.152 185.183C240.988 185.213 240.748 185.662 240.957 186.691C241.345 188.626 241.632 190.607 242.067 192.545C242.284 193.532 242.109 193.838 241.035 193.872C239.828 193.907 238.218 193.35 237.5 194.259C236.883 195.06 237.888 196.414 238.086 197.54C238.855 201.659 239.101 205.858 238.819 210.038C238.175 220.441 235.634 230.466 232.53 240.371C232.193 241.454 231.754 241.919 230.656 241.292C230.405 241.2 230.145 241.134 229.88 241.095C225.954 239.903 225.954 239.903 225.395 244.356C231.603 243.555 237.787 242.735 243.972 241.988C245.105 241.853 245.609 240.166 246.831 240.754C248.697 241.644 250.455 240.874 252.263 240.754L252.674 240.708C255.929 240.348 258.641 239.547 260.624 236.328C263.316 231.952 268.263 230.524 272.907 228.977C274.844 228.278 276.828 227.714 278.843 227.29C280.186 227.038 281.629 227.29 282.304 228.977C280.807 233.999 276.115 233.249 280.593 233.889C283.753 234.34 307.946 233.588 312.47 233.999C314.479 233.999 326.237 233.102 327.273 234.797C328.507 232.931 316.17 229.879 318.226 228.217C321.105 230.29 322.315 227.904 322.75 228.217C323.184 228.531 322.632 229.994 323.161 230.083C325.489 230.621 322.889 230.05 325.217 230.685C326.73 231.11 324.48 229.898 324.806 231.507C325.492 234.885 325.748 228.921 326.039 232.33C327.273 234.22 328.154 234.317 327.273 234.22C327.273 234.22 326.451 234.188 326.039 234.169C323.044 233.941 326.039 232.913 331.236 233.999H333.595C339.17 233.999 344.745 233.999 350.325 233.999C350.907 233.999 351.679 233.743 351.962 234.482C352.206 235.125 351.454 235.372 351.147 235.782C349.626 237.833 347.748 238.665 345.017 238.603C335.659 238.394 326.293 238.537 316.931 238.514C315.841 238.514 315.158 238.7 314.456 239.76C312.675 242.468 309.726 243.447 306.72 243.977C300.901 245.044 294.979 245.433 289.07 245.138C287.278 245.079 285.499 245.454 283.883 246.229C274.541 250.404 264.597 252.907 255.06 256.532C254.063 256.919 252.918 257.078 252.399 258.254C252.311 258.402 252.188 258.526 252.042 258.616C251.895 258.707 251.729 258.76 251.557 258.772C246.967 258.262 243.196 260.893 239.072 262.081C232.359 264.015 225.741 266.271 218.97 268.012C218.475 268.1 218.014 268.323 217.638 268.657C217.263 268.992 216.988 269.423 216.844 269.904C215.737 272.925 214.441 275.874 212.964 278.733C211.843 280.977 210.058 282.072 207.653 282.428C201.81 283.295 196.145 282.08 190.5 280.908C186.139 280.006 181.825 278.853 177.526 277.681C176.172 277.313 175.881 277.48 176.025 278.903C176.983 288.189 177.868 297.475 178.776 306.738C179.183 310.897 179.552 315.06 180.033 319.211C180.211 320.759 179.257 320.484 178.392 320.488C170.752 320.539 163.113 320.628 155.474 320.597C153.922 320.597 153.41 320.922 153.41 322.593C153.441 339.341 153.412 356.088 153.324 372.833C153.213 398.292 153.084 423.749 152.936 449.205C152.936 450.571 152.696 451.286 151.167 451.066C150.592 450.998 150.012 451.125 149.518 451.426C153.153 452.586 156.8 453.747 160.42 454.962C165.161 456.56 169.914 458.15 174.287 460.634C175.451 461.284 177.181 461.849 176.836 463.447C176.518 464.944 174.721 464.995 173.41 465.231C166.64 466.345 159.831 465.807 153.025 465.645C152.474 465.645 151.924 465.645 151.373 465.645C150.597 465.327 149.774 465.478 148.971 465.525C148.54 465.529 148.73 465.811 148.89 466.028Z" fill="#222221"/>
<path d="M726.478 333.529C727.223 333.18 727.696 332.921 728.197 332.728C732.422 331.103 735.933 333.115 736.732 337.591C737.454 341.553 736.647 345.384 735.712 349.171C731.832 364.841 726.715 380.124 721.648 395.449C719.227 402.777 716.705 410.071 714.222 417.379C714.047 417.894 713.803 418.389 713.981 419.055C718.431 419.055 722.905 419.093 727.374 419.028C728.682 419.028 728.949 419.267 728.682 420.629C726.144 433.595 723.727 446.583 721.186 459.545C720.891 461.046 721.434 461.092 722.598 461.092C725.966 461.092 729.341 461.127 732.643 461.951C733.109 462.067 733.562 462.226 734.02 462.365C734.564 462.532 735.161 462.783 735.184 463.375C735.208 463.967 734.598 464.226 734.075 464.427C732.196 465.082 730.24 465.488 728.255 465.635C724.554 466.021 720.841 466.049 717.124 466.072C707.696 466.134 698.264 465.882 688.836 466.265C687.39 466.373 685.939 466.151 684.592 465.615C684.021 465.364 683.428 464.985 683.478 464.276C683.52 464.005 683.64 463.751 683.823 463.545C684.006 463.339 684.245 463.19 684.51 463.116C685.143 462.868 685.81 462.427 686.431 462.474C688.336 462.621 688.58 461.468 688.852 460.009C689.756 455.169 690.586 450.305 691.804 445.539C692.708 441.994 691.634 438.752 691.028 435.417C690.07 430.031 688.995 424.665 687.925 419.082C690.427 419.082 692.829 419.008 695.222 419.109C696.386 419.159 696.813 418.699 696.968 417.67C697.248 415.843 697.527 414.013 697.876 412.199C698.082 410.983 697.897 409.733 697.349 408.628C693.283 399.342 689.589 389.928 687.773 379.904C686.931 375.295 686.543 370.672 687.533 366.029C688.883 359.68 693.279 356.124 699.801 356.078H701.391C700.402 351.025 699.358 346.045 698.466 341.042C696.289 328.886 694.629 316.667 694.66 304.286C694.683 296.44 695.509 288.667 699.191 281.528C700.937 278.151 703.234 275.268 707.432 274.835C708.468 274.73 708.344 274.158 708.313 273.403C707.824 260.794 706.687 248.254 704.976 235.738C702.695 219.023 699.222 202.572 694.159 186.473C686.085 160.821 674.272 137.134 656.913 116.376C642.793 99.378 625.434 85.3388 605.84 75.0702C601.96 73.0466 597.378 72.4005 593.091 71.2011C570.567 64.8972 547.665 60.0228 524.523 56.6069C500.306 53.0501 475.892 50.9827 451.42 50.4164C450.555 50.397 449.69 50.3197 448.177 50.2307C449.639 51.1863 450.57 51.8363 451.544 52.4128C452.138 52.7649 452.491 53.0551 452.08 53.8251C451.63 54.6569 451.114 54.3242 450.563 54.0727C448.502 53.1364 446.407 52.2697 444.405 51.2328C442.636 50.3158 440.809 50.072 438.85 50.0488C412.855 49.8747 386.86 50.8227 360.92 52.4515C337.315 53.9179 313.742 55.7905 290.145 57.3885C271.013 58.6885 251.874 59.9614 232.693 60.4334C226.229 60.5921 219.769 60.8204 213.294 60.9829C212.822 61.0236 212.348 60.9533 211.909 60.7778C246.485 41.2621 283.658 30.6725 323.201 28.2582C362.743 25.8439 400.944 31.7984 437.771 46.4622C437.845 46.3074 437.914 46.1527 437.984 46.0018L402.034 23.3096C390.057 15.7649 378.061 8.1699 366.099 0.037088C370.034 0.037088 373.968 -0.0441627 377.902 0.037088C386.15 0.242149 394.395 0.423996 402.635 0.957929C417.12 1.89167 431.539 3.40835 445.891 5.50797C465.185 8.30432 484.255 12.4677 502.955 17.9664C529.319 25.809 554.429 36.4219 577.323 51.8479C584.588 56.6858 591.47 62.0718 597.909 67.9588C599.597 69.5064 601.522 70.6285 603.539 71.6654C628.37 84.3947 649.111 101.898 665.557 124.413C680.634 145.046 690.862 167.986 697.865 192.427C703.102 210.712 706.4 229.365 708.309 248.277C709.119 256.328 709.713 264.392 710.094 272.471C710.117 273.016 710.241 273.562 710.218 274.103C710.191 274.788 710.532 275.233 711.133 275.214C712.092 275.179 711.587 274.367 711.556 273.968C710.811 264.33 710.183 254.677 710.392 245.012C710.606 234.871 710.99 224.726 714.016 214.91C714.6 213.016 715.364 211.181 716.297 209.432C720.298 201.933 728.131 200.533 734.533 206.213C738.432 209.648 740.135 214.257 741.233 219.112C743.278 228.162 743.258 237.355 742.649 246.54C740.732 275.434 734.311 303.508 726.994 331.416C726.854 332.02 726.711 332.608 726.478 333.529Z" fill="#232221"/>
<path d="M495.376 109.231C493.436 109.652 491.884 109.06 490.332 108.701C483.453 107.126 476.706 105.052 469.889 103.257C462.394 101.287 455.042 102.313 447.926 105.118C439.239 108.55 431.445 113.471 424.376 119.542C422.89 120.819 421.741 121.298 419.968 119.712C416.864 116.934 413.474 114.481 410.187 111.916C407.083 109.478 403.425 108.348 399.58 107.768C394.389 106.994 389.143 107.172 383.944 107.42C378.567 107.671 373.225 108.581 367.917 109.571C365.298 110.055 362.687 110.585 360.068 111.08C359.68 111.154 359.265 111.548 358.928 111.138C358.59 110.728 358.947 110.229 359.141 109.815C361.411 104.967 365.003 101.303 369.387 98.316C374.311 94.9692 379.572 92.2454 385.508 91.46C389.199 91.0054 392.932 90.9859 396.627 91.4019C404.328 92.2655 411.844 94.3364 418.897 97.5383C419.844 97.96 420.123 97.3139 420.612 96.9154C426.665 92.0249 433.055 87.8114 440.593 85.3894C452.57 81.5435 463.732 83.4548 474.425 89.5022C479.602 92.4802 484.308 96.2051 488.392 100.556C490.91 103.214 493.409 105.923 495.376 109.231Z" fill="#F2F1F0"/>
<path d="M140.663 114.018C132.581 111.07 125.667 106.972 118.447 103.514C113.505 101.13 108.007 100.13 102.54 100.619C92.2233 101.416 82.9429 104.976 74.0426 109.847C72.4364 110.725 71.35 111.097 69.9882 109.317C67.6254 106.222 64.863 103.448 62.4265 100.418C59.4779 96.7349 55.3575 95.0866 51.0897 93.806C44.9791 91.972 38.6744 91.3491 32.3038 90.7842C27.3493 90.347 22.4181 90.6449 17.483 90.4515C17.0174 90.4321 16.4238 90.6527 16.1289 90.2116C15.7177 89.6003 16.3966 89.1902 16.6837 88.8149C19.6595 84.8607 23.7139 82.2955 28.1912 80.4344C32.9478 78.4573 37.8674 77.0915 43.1439 77.2463C48.7386 77.4088 53.9026 79.1112 59.0201 81.1154C63.8388 82.988 68.2578 85.6151 72.5217 88.4976C73.3947 89.0857 74.0349 89.1244 74.9272 88.6253C80.7042 85.3985 86.78 83.0731 93.3834 82.0285C101.909 80.5908 110.668 82.2814 118.039 86.7875C126.994 92.1268 133.403 99.8572 138.129 109.042C138.909 110.528 139.669 112.049 140.663 114.018Z" fill="#F2F1F0"/>
<path d="M507.951 156.228C504.097 155.217 500.343 153.86 496.735 152.173C489.612 148.911 482.721 149.735 475.869 152.749C472.698 154.076 469.675 155.729 466.849 157.682C465.794 158.456 465.223 158.205 464.455 157.377C463.097 155.922 461.541 154.637 460.257 153.121C457.596 149.994 453.91 149.19 450.17 148.551C446.29 147.886 442.367 148.037 438.46 148.137C436.214 148.192 433.975 148.524 431.733 148.776C431.271 148.826 430.724 149.132 430.429 148.625C430.134 148.118 430.709 147.754 430.965 147.398C433.49 143.858 437.079 141.827 441.052 140.283C445.995 138.349 450.88 139.061 455.741 140.488C458.632 141.336 461.503 142.311 464.048 143.99C465.153 144.717 466.038 144.632 467.183 143.905C471.865 140.933 476.839 138.786 482.539 138.608C487.625 138.445 492.091 140.07 496.293 142.748C500.782 145.607 504.01 149.654 507.009 153.918C507.559 154.57 507.889 155.378 507.951 156.228Z" fill="#F2F1F0"/>
<path d="M354.033 195.22C353.738 195.529 353.532 195.785 353.288 195.993C351.092 197.928 348.877 199.863 346.692 201.797C346.168 202.265 345.78 202.505 345.222 201.797C344.745 201.194 344.954 200.911 345.435 200.493C347.701 198.528 349.936 196.524 352.198 194.554C352.45 194.334 352.694 193.819 353.164 194.26C353.447 194.55 353.699 194.856 354.033 195.22Z" fill="#282827"/>
<path d="M326.665 182.721C325.478 182.539 325.086 182.218 325.257 181.417C325.719 179.293 326.141 177.161 326.599 175.041C326.739 174.387 327.115 174.232 327.798 174.43C328.384 174.596 328.551 174.758 328.399 175.385C327.891 177.498 327.453 179.641 326.991 181.746C326.894 182.199 326.917 182.756 326.665 182.721Z" fill="#292827"/>
<path d="M298.282 181.121C298.67 182.027 298.045 182.108 297.545 182.317C296.862 182.599 296.691 182.127 296.563 181.667C295.973 179.581 295.422 177.48 294.829 175.395C294.627 174.691 295.104 174.672 295.547 174.47C296.16 174.192 296.451 174.412 296.602 174.958C297.184 177.059 297.746 179.152 298.282 181.121Z" fill="#2D2C2B"/>
<path d="M282.162 202.436C282.034 203.083 281.829 203.597 281.084 203.38C279.256 202.835 277.437 202.262 275.617 201.69C275.035 201.504 274.965 201.082 275.117 200.552C275.268 200.022 275.408 199.685 276.098 199.921C277.902 200.537 279.726 201.082 281.53 201.659C281.964 201.79 282.341 201.937 282.162 202.436Z" fill="#292928"/>
<path d="M347.896 220.669C347.027 220.863 346.705 220.631 346.612 219.919C346.526 219.284 346.771 219.083 347.337 218.982C349.079 218.669 350.829 218.348 352.552 217.976C353.308 217.814 353.506 218.189 353.638 218.801C353.77 219.412 353.475 219.69 352.928 219.787L347.896 220.669Z" fill="#2D2D2C"/>
<path d="M280.067 221.393C280.467 221.318 280.871 221.264 281.277 221.231C281.925 221.204 282.03 221.66 282.053 222.179C282.076 222.697 281.956 222.952 281.424 223.01C279.939 223.173 278.453 223.347 276.967 223.521C276.357 223.591 275.931 223.521 275.876 222.747C275.822 221.974 276.191 221.857 276.823 221.796C277.902 221.691 278.976 221.509 280.055 221.358L280.067 221.393Z" fill="#292928"/>
<path d="M38.4896 131.641C38.2792 131.633 38.0724 131.584 37.8818 131.494C37.6913 131.405 37.5209 131.278 37.3812 131.121C37.2415 130.964 37.1352 130.78 37.069 130.581C37.0028 130.381 36.9779 130.171 36.9959 129.961C36.9959 128.866 37.6982 128.232 38.8466 128.298C39.9252 128.36 40.4489 129.071 40.3985 130.05C40.3481 131.029 39.7312 131.648 38.4896 131.641Z" fill="#2D2D2C"/>
<path d="M176.144 69.7874C177.024 69.741 177.626 70.4258 177.668 71.3621C177.715 72.43 177.052 73.1457 175.899 73.1419C174.813 73.1419 174.293 72.4261 174.285 71.4433C174.277 70.4606 174.832 69.8067 176.144 69.7874Z" fill="#2D2D2C"/>
<path d="M667.685 141.913C666.735 141.723 666.04 141.305 666.013 140.21C665.986 139.115 666.611 138.519 667.588 138.477C668.667 138.434 669.4 139.018 669.377 140.21C669.369 141.29 668.636 141.7 667.685 141.913Z" fill="#2F2F2E"/>
<path d="M241.965 229.259C240.944 229.17 240.366 228.601 240.366 227.564C240.366 226.528 240.882 225.912 241.969 225.893C243.132 225.874 243.749 226.551 243.711 227.646C243.676 228.652 243.024 229.213 241.965 229.259Z" fill="#2E2E2D"/>
<path d="M669.275 78.4486C669.093 79.4004 668.631 80.1123 667.576 80.1277C666.412 80.1277 665.865 79.3849 665.888 78.3054C665.911 77.226 666.54 76.7578 667.611 76.7578C668.681 76.7578 669.124 77.4929 669.275 78.4486Z" fill="#2F2E2D"/>
<path d="M666.06 64.7581C665.039 64.6072 664.403 64.1313 664.426 63.017C664.45 61.9027 665.125 61.3726 666.13 61.3881C666.356 61.3733 666.582 61.4079 666.793 61.4896C667.004 61.5713 667.195 61.6981 667.352 61.861C667.508 62.024 667.627 62.2192 667.7 62.4329C667.774 62.6466 667.799 62.8737 667.775 63.0982C667.751 64.17 667.069 64.6613 666.06 64.7581Z" fill="#292928"/>
<path d="M165.903 61.4259C164.913 61.3601 164.235 60.8494 164.176 59.8279C164.143 59.5903 164.164 59.3483 164.238 59.1199C164.312 58.8915 164.436 58.6827 164.602 58.5091C164.768 58.3354 164.971 58.2013 165.197 58.1168C165.422 58.0323 165.663 57.9996 165.903 58.0211C166.873 58.0211 167.505 58.6362 167.517 59.708C167.528 60.7797 166.943 61.2904 165.903 61.4259Z" fill="#2D2D2C"/>
<path d="M273.156 315.584C273.001 316.563 272.574 317.313 271.523 317.36C270.386 317.41 269.715 316.744 269.723 315.638C269.723 314.647 270.289 314.02 271.391 314.017C272.493 314.013 272.935 314.667 273.156 315.584Z" fill="#2C2C2B"/>
<path d="M654.793 202.073C653.765 201.949 653.109 201.411 653.089 200.39C653.07 199.368 653.543 198.726 654.669 198.703C655.794 198.68 656.496 199.31 656.477 200.397C656.461 201.372 655.798 201.968 654.793 202.073Z" fill="#2C2C2B"/>
<path d="M278.131 327.868C279.275 327.949 279.873 328.429 279.888 329.52C279.904 330.611 279.287 331.211 278.309 331.234C278.07 331.261 277.829 331.235 277.602 331.157C277.375 331.079 277.168 330.951 276.997 330.783C276.826 330.615 276.695 330.411 276.613 330.186C276.531 329.96 276.501 329.72 276.524 329.482C276.528 328.39 277.3 328.004 278.131 327.868Z" fill="#2F2E2D"/>
<path d="M257.516 271.674C257.516 272.893 256.899 273.57 255.933 273.609C254.882 273.659 254.129 273.083 254.137 271.891C254.137 270.815 254.758 270.246 255.778 270.239C255.987 270.219 256.197 270.24 256.397 270.302C256.598 270.363 256.784 270.464 256.945 270.597C257.107 270.73 257.24 270.894 257.338 271.079C257.436 271.264 257.497 271.466 257.516 271.674Z" fill="#2E2D2C"/>
<path d="M663.608 172.426C662.401 172.391 661.726 171.826 661.668 170.836C661.622 169.768 662.192 169.044 663.387 169.056C664.465 169.056 665.016 169.686 665.028 170.696C665.067 171.113 664.94 171.528 664.674 171.852C664.408 172.176 664.025 172.382 663.608 172.426Z" fill="#2E2E2D"/>
<path d="M309.945 364.708C309.01 364.464 308.3 364.031 308.32 362.943C308.347 361.756 309.096 361.222 310.166 361.28C311.237 361.338 311.718 362.011 311.676 363.063C311.633 364.116 310.861 364.51 309.945 364.708Z" fill="#2D2D2C"/>
<path d="M325.069 370.53C325.014 371.625 324.506 372.287 323.462 372.337C323.241 372.364 323.016 372.344 322.803 372.279C322.589 372.213 322.392 372.104 322.223 371.959C322.054 371.813 321.918 371.634 321.823 371.432C321.727 371.231 321.675 371.012 321.67 370.79C321.637 370.552 321.658 370.31 321.731 370.081C321.803 369.852 321.926 369.642 322.09 369.466C322.255 369.291 322.456 369.154 322.68 369.066C322.904 368.977 323.145 368.94 323.385 368.956C324.394 368.94 324.975 369.571 325.069 370.53Z" fill="#2F2F2E"/>
<path d="M40.7097 112.879C41.7573 113.007 42.3586 113.51 42.3431 114.589C42.3609 114.811 42.3306 115.033 42.2543 115.242C42.1781 115.451 42.0576 115.641 41.9012 115.799C41.7447 115.957 41.556 116.08 41.3477 116.159C41.1394 116.238 40.9165 116.271 40.6942 116.257C39.6273 116.257 38.9095 115.622 38.9832 114.442C39.0414 113.374 39.7243 112.933 40.7097 112.879Z" fill="#2E2D2C"/>
<path d="M338.02 374.019C339.005 374.127 339.692 374.614 339.7 375.667C339.724 375.906 339.694 376.147 339.613 376.372C339.531 376.598 339.4 376.803 339.229 376.972C339.058 377.141 338.851 377.269 338.624 377.348C338.396 377.427 338.154 377.454 337.915 377.427C336.937 377.392 336.336 376.75 336.363 375.678C336.39 374.607 337.015 374.142 338.02 374.019Z" fill="#2C2C2B"/>
<path d="M664.194 49.4372C663.971 49.4372 663.75 49.3934 663.544 49.3082C663.338 49.2231 663.151 49.0983 662.993 48.9409C662.835 48.7835 662.71 48.5967 662.624 48.3911C662.539 48.1855 662.495 47.9651 662.495 47.7426C662.495 47.52 662.539 47.2997 662.624 47.0941C662.71 46.8884 662.835 46.7016 662.993 46.5443C663.151 46.3869 663.338 46.2621 663.544 46.1769C663.75 46.0917 663.971 46.0479 664.194 46.0479C664.417 46.0301 664.641 46.0604 664.85 46.1367C665.06 46.213 665.251 46.3334 665.409 46.4899C665.568 46.6463 665.691 46.8351 665.77 47.0433C665.849 47.2514 665.882 47.4741 665.867 47.6961C665.89 48.7253 665.324 49.325 664.194 49.4372Z" fill="#2E2E2D"/>
<path d="M44.5105 101.225C43.5134 101.337 42.9081 100.671 42.8228 99.7274C42.7258 98.6518 43.3543 97.909 44.5027 97.878C45.5619 97.847 46.1439 98.5048 46.1788 99.5146C46.2137 100.524 45.752 101.202 44.5105 101.225Z" fill="#2E2E2D"/>
<path d="M661.506 185.567C661.343 186.631 660.869 187.343 659.83 187.389C658.689 187.44 658.022 186.797 658.045 185.671C658.029 185.448 658.062 185.224 658.141 185.015C658.22 184.806 658.344 184.616 658.503 184.459C658.663 184.302 658.855 184.182 659.066 184.106C659.277 184.03 659.501 184 659.725 184.019C660.776 184.008 661.242 184.739 661.506 185.567Z" fill="#2E2E2D"/>
<path d="M127.036 40.2311C126.989 41.5969 126.314 42.0844 125.309 42.0419C124.305 41.9993 123.633 41.4422 123.668 40.3704C123.707 39.2329 124.444 38.5945 125.523 38.6913C126.454 38.7764 127.141 39.3722 127.036 40.2311Z" fill="#2E2E2D"/>
<path d="M70.1951 60.4202C70.0515 61.5809 69.5045 62.1264 68.4337 62.0993C68.2123 62.1122 67.9907 62.0776 67.7838 61.9978C67.577 61.9181 67.3897 61.7951 67.2345 61.6371C67.0794 61.479 66.96 61.2897 66.8844 61.0818C66.8088 60.8739 66.7788 60.6522 66.7964 60.4318C66.8158 59.3562 67.5025 58.6829 68.6509 58.7564C69.7179 58.8222 70.0748 59.5922 70.1951 60.4202Z" fill="#2E2E2D"/>
<path d="M667.756 155.366C667.551 156.554 667.027 157.192 665.948 157.165C664.87 157.138 664.342 156.511 664.369 155.444C664.396 154.376 664.982 153.815 666.061 153.826C667.139 153.838 667.527 154.623 667.756 155.366Z" fill="#2A2A29"/>
<path d="M213.681 139.803C213.494 140.767 212.932 141.467 211.931 141.432C211.692 141.444 211.454 141.403 211.234 141.312C211.013 141.221 210.816 141.082 210.656 140.905C210.496 140.729 210.377 140.519 210.308 140.291C210.24 140.063 210.223 139.822 210.259 139.587C210.336 138.542 211.035 138 212.047 138.062C213.06 138.124 213.576 138.786 213.681 139.803Z" fill="#2D2D2C"/>
<path d="M207.635 125.261C207.608 126.376 207.147 127.041 206.045 127.08C204.943 127.119 204.334 126.53 204.295 125.49C204.256 124.449 204.807 123.791 205.889 123.745C206.972 123.698 207.542 124.294 207.635 125.261Z" fill="#2B2B2A"/>
<path d="M670.588 109.337C670.445 110.374 669.882 111.004 668.823 110.973C668.596 110.984 668.37 110.946 668.159 110.861C667.948 110.777 667.758 110.648 667.601 110.484C667.445 110.32 667.325 110.125 667.251 109.911C667.176 109.697 667.149 109.469 667.17 109.244C667.17 108.207 667.822 107.615 668.904 107.65C669.987 107.685 670.499 108.308 670.588 109.337Z" fill="#2C2C2B"/>
<path d="M82.5537 51.2788C82.4916 52.2577 81.9523 52.9116 80.9319 52.9464C80.692 52.9759 80.4485 52.9504 80.22 52.8719C79.9914 52.7935 79.7838 52.6641 79.6129 52.4937C79.442 52.3232 79.3122 52.1162 79.2336 51.8882C79.1549 51.6603 79.1294 51.4175 79.1589 51.1782C79.1529 50.9562 79.1949 50.7354 79.282 50.531C79.3692 50.3265 79.4995 50.1432 79.664 49.9934C79.8285 49.8437 80.0235 49.731 80.2356 49.663C80.4476 49.5951 80.6719 49.5735 80.8931 49.5997C81.995 49.6306 82.4722 50.211 82.5537 51.2788Z" fill="#2D2D2C"/>
<path d="M262.269 286.625C262.196 287.67 261.641 288.328 260.586 288.308C260.149 288.283 259.739 288.092 259.441 287.774C259.143 287.455 258.979 287.035 258.983 286.599C258.987 286.163 259.16 285.746 259.465 285.434C259.77 285.122 260.184 284.939 260.621 284.923C261.653 284.942 262.25 285.554 262.269 286.625Z" fill="#2C2C2B"/>
<path d="M94.9326 43.1436C95.8986 43.3061 96.5776 43.8322 96.5815 44.8846C96.6016 45.1098 96.572 45.3367 96.4948 45.5493C96.4175 45.7619 96.2945 45.955 96.1343 46.1151C95.9742 46.2751 95.7808 46.3982 95.5678 46.4758C95.3549 46.5533 95.1274 46.5834 94.9015 46.5638C94.6749 46.5798 94.4475 46.5472 94.2346 46.4681C94.0217 46.3891 93.8282 46.2655 93.6672 46.1057C93.5062 45.9459 93.3814 45.7535 93.3012 45.5415C93.221 45.3296 93.1872 45.103 93.2022 44.8769C93.2022 43.9019 93.8618 43.2751 94.9326 43.1436Z" fill="#2A2A29"/>
<path d="M184.989 82.5591C185.85 82.621 186.46 83.2091 186.425 84.2499C186.438 84.4758 186.401 84.7018 186.317 84.9119C186.233 85.122 186.103 85.3112 185.938 85.4662C185.773 85.6211 185.575 85.738 185.36 85.8086C185.144 85.8792 184.916 85.9019 184.69 85.8749C183.67 85.8324 183.073 85.2133 183.084 84.1338C183.096 83.0544 183.709 82.5398 184.989 82.5591Z" fill="#292928"/>
<path d="M670.294 124.8C670.205 125.867 669.635 126.409 668.54 126.347C667.446 126.285 666.876 125.67 666.93 124.626C666.92 124.398 666.959 124.171 667.046 123.961C667.134 123.751 667.266 123.562 667.435 123.409C667.603 123.256 667.804 123.141 668.022 123.074C668.24 123.007 668.47 122.988 668.696 123.02C669.72 123.074 670.294 123.712 670.294 124.8Z" fill="#323130"/>
<path d="M199.757 113.067C198.617 112.998 197.934 112.487 197.876 111.439C197.818 110.39 198.376 109.736 199.428 109.686C199.652 109.655 199.881 109.672 200.099 109.737C200.316 109.802 200.517 109.913 200.688 110.063C200.858 110.212 200.994 110.397 201.087 110.603C201.179 110.81 201.226 111.034 201.224 111.261C201.337 112.309 200.658 112.886 199.757 113.067Z" fill="#2C2C2B"/>
<path d="M194.256 97.5315C194.093 98.4833 193.674 99.1527 192.541 99.172C191.408 99.1914 190.838 98.6033 190.83 97.5741C190.811 97.3482 190.84 97.1207 190.915 96.9069C190.991 96.6931 191.112 96.4979 191.27 96.3345C191.427 96.1711 191.618 96.0431 191.829 95.9593C192.041 95.8755 192.268 95.8377 192.495 95.8485C193.546 95.8214 194.089 96.4946 194.256 97.5315Z" fill="#2C2C2A"/>
<path d="M59.9936 72.0167C59.8501 72.9918 59.3729 73.6185 58.271 73.634C57.1691 73.6495 56.6066 73.0537 56.6143 72.0013C56.6221 70.9489 57.2273 70.2989 58.271 70.3028C59.3147 70.3066 59.8617 70.9644 59.9936 72.0167Z" fill="#2A2A29"/>
<path d="M155.89 49.6073C155.724 50.7216 155.254 51.3793 154.156 51.3832C153.058 51.387 152.488 50.8957 152.507 49.7698C152.527 48.6439 153.082 48.0867 154.125 48.0519C155.169 48.0171 155.638 48.7909 155.89 49.6073Z" fill="#2A2928"/>
<path d="M662.053 34.0966C660.676 34.0579 660.203 33.4388 660.241 32.371C660.28 31.3031 660.971 30.7382 661.976 30.773C662.203 30.7629 662.43 30.8028 662.641 30.89C662.851 30.9772 663.039 31.1095 663.193 31.2776C663.346 31.4456 663.46 31.6452 663.528 31.8623C663.595 32.0793 663.613 32.3085 663.582 32.5335C663.531 33.5704 662.868 34.1082 662.053 34.0966Z" fill="#292928"/>
<path d="M267.437 301.248C267.336 302.3 266.758 302.946 265.73 302.939C265.506 302.956 265.281 302.925 265.07 302.847C264.859 302.769 264.667 302.647 264.509 302.488C264.35 302.329 264.228 302.137 264.151 301.926C264.074 301.716 264.043 301.491 264.062 301.267C264.062 300.199 264.632 299.619 265.719 299.615C266.805 299.611 267.313 300.242 267.437 301.248Z" fill="#292927"/>
<path d="M668.372 95.5237C667.293 95.3961 666.777 94.8157 666.843 93.7285C666.909 92.6413 667.565 92.1112 668.593 92.1809C668.819 92.1784 669.044 92.2245 669.251 92.3161C669.459 92.4077 669.644 92.5426 669.794 92.7117C669.945 92.8808 670.057 93.0802 670.123 93.2963C670.19 93.5125 670.209 93.7403 670.18 93.9645C670.121 94.9782 669.392 95.4889 668.372 95.5237Z" fill="#2B2B2A"/>
<path d="M289.07 342.151C289.055 342.567 288.876 342.96 288.571 343.245C288.267 343.53 287.862 343.683 287.445 343.672C286.323 343.699 285.66 343.033 285.676 341.915C285.676 340.859 286.428 340.306 287.402 340.306C288.376 340.306 289.016 340.905 289.07 342.151Z" fill="#2C2C2B"/>
<path d="M142.202 42.7861C142.078 43.8424 141.492 44.4692 140.483 44.4885C139.474 44.5079 138.78 43.9004 138.78 42.8713C138.78 41.7841 139.412 41.0683 140.561 41.107C141.589 41.1418 142.085 41.8382 142.202 42.7861Z" fill="#2D2C2B"/>
<path d="M109.891 39.7178C110.908 39.7178 111.587 40.244 111.657 41.2886C111.69 41.5124 111.674 41.7409 111.61 41.9578C111.545 42.1748 111.433 42.375 111.283 42.5443C111.132 42.7136 110.946 42.848 110.738 42.9378C110.53 43.0277 110.304 43.071 110.078 43.0645C109.03 43.138 108.386 42.5615 108.32 41.4975C108.254 40.4336 108.782 39.83 109.891 39.7178Z" fill="#282827"/>
<path d="M299.658 353.12C299.623 354.2 299.142 354.834 298.056 354.865C296.969 354.896 296.384 354.362 296.349 353.287C296.314 352.211 296.872 351.611 297.928 351.569C298.983 351.526 299.549 352.118 299.658 353.12Z" fill="#252524"/>
<path d="M148.889 466.021L147.85 465.564C149.072 465.243 150.247 465.139 151.396 465.614C150.6 465.997 149.627 465.293 148.889 466.021Z" fill="#BDBCBC"/>
<path d="M528.5 213.227L525.854 216.124C525.415 215.385 525.943 214.232 524.938 214.19C524.127 214.151 523.774 215.045 523.479 215.738C523.425 215.861 523.309 215.997 523.32 216.124C523.708 219.433 520.993 220.922 519.305 223.027C518.917 223.507 518.498 223.959 518.114 224.443C515.328 227.956 515.677 230.107 519.569 232.645C520.411 233.195 520.709 233.458 520.034 234.445C517.582 238.051 518.187 239.803 522.362 241.529C523.239 241.896 524.166 242.136 525.656 242.632C522.277 243.243 519.607 242.802 517.206 241.366C515.797 240.527 515.316 240.956 514.956 242.256C514.443 244.098 513.792 245.913 513.404 247.781C512.461 252.471 513.846 255.21 518.168 257.303C522.09 259.203 526.335 260.073 530.583 260.963C533.299 261.54 536.077 262.016 539.072 262.584C536.845 265.68 534.805 268.581 532.663 271.398C531.79 272.536 531.352 273.53 532.096 274.88C532.419 275.465 532.418 276.223 532.713 276.815C533.489 278.421 533.451 279.748 531.825 280.839C530.397 281.802 530.622 283.133 530.89 284.654C533.606 300.025 536.636 315.332 540.116 330.549C540.256 331.148 540.423 331.74 540.593 332.406C541.835 332.042 542.653 331.106 543.604 330.394C552.842 323.48 562.258 316.782 570.58 308.727C576.012 303.453 580.916 297.727 584.935 291.27C585.409 290.496 585.793 290.186 584.675 289.335C582.856 287.95 582.794 285.489 582.293 283.377C582.103 282.603 582.895 282.564 583.372 282.444C585.634 281.872 587.888 281.191 590.185 280.862C591.593 280.657 591.935 279.972 592.21 278.8C593.254 274.339 594.414 269.901 595.473 265.444C595.783 264.136 596.249 263.563 597.801 263.737C603.267 264.349 608.765 264.356 614.271 264.376C618.15 264.376 621.134 262.917 623.71 260.189C627.59 256.073 629.763 251.202 629.918 245.587C630.034 241.088 627.202 238.124 623.795 235.694C618.919 232.212 613.285 230.432 607.59 228.854C603.294 227.643 598.935 226.664 594.534 225.921C593.067 225.681 592.594 225.074 592.617 223.541C592.683 217.092 592.617 210.642 592.52 204.196C592.52 203.09 592.742 202.648 593.968 202.648C614.624 202.714 633.929 207.485 651.33 218.926C654.85 221.214 658.087 223.907 660.976 226.95C667.009 233.384 668.072 241.266 667.16 249.577C665.856 261.478 661.1 272.222 655.598 282.684C650 293.316 643.346 303.287 636.246 312.968C635.128 314.446 634.34 316.145 633.933 317.951C627.097 347.971 613.153 374.161 591.256 395.986C577.723 409.486 561.886 419.541 544.135 426.649C542.886 427.152 541.967 426.958 540.869 426.378C525.963 418.489 515.402 406.425 507.394 391.881C500.135 378.692 495.242 364.55 490.497 350.347C488.01 342.891 485.582 335.416 483.056 327.976C482.59 326.61 482.745 326.285 484.286 325.944C501.9 322.075 514.288 311.873 521.276 295.212C521.9 293.723 521.606 293.077 520.263 292.191C513.279 287.598 507.138 282.015 501.066 276.327C493.59 269.32 486.416 262.031 480.026 254.007C478.241 251.747 476.621 249.363 475.18 246.872C473.907 244.698 474.039 242.721 475.16 240.523C478.136 234.677 482.334 229.836 487.188 225.53C498.641 215.401 512.123 208.982 526.533 204.25C528.112 203.732 529.031 204.25 529.45 205.825C529.838 207.21 530.184 208.603 530.614 209.973C531.002 211.218 530.475 211.772 529.303 211.938C527.549 211.551 526.156 210.069 523.918 210.17C525.349 211.706 527.67 211.408 528.5 213.227Z" fill="white"/>
<path d="M657.694 282.548C660.164 287.497 662.348 292.583 664.235 297.78C669.318 311.67 672.135 326.025 672.173 340.785C672.228 360.518 666.602 378.733 656.39 395.513C638.431 425.035 612.498 444.813 580.207 456.579C562.189 463.157 543.508 466.411 524.365 467.095C503.651 467.838 483.142 466.356 463.103 460.723C450.948 457.307 439.77 451.948 430.288 443.409C417.915 432.274 412.995 418.26 413.934 401.928C414.249 396.446 414.897 391.021 417.112 385.771C423.572 390.689 429.915 395.618 436.367 400.396C443.533 405.697 450.292 411.586 458.199 415.83C469.978 422.156 482.642 425.441 495.914 426.582C507.716 427.642 519.613 426.58 531.038 423.444C531.424 423.326 531.833 423.304 532.229 423.382C532.625 423.459 532.996 423.634 533.308 423.889C535.686 425.526 538.227 426.88 540.73 428.316C542.018 429.051 543.081 429.012 544.389 428.49C572.264 417.398 594.59 399.446 611.369 374.632C623.288 357.047 631.637 337.907 635.971 317.076C636.095 316.475 636.343 315.907 636.7 315.408C644.367 304.977 651.514 294.213 657.694 282.548Z" fill="white"/>
<path d="M530.304 421.815C518.032 425.135 505.23 426.039 492.612 424.477C478.737 422.798 465.546 418.968 453.907 411.079C446.465 406.049 439.416 400.412 432.23 395.003C426.744 390.876 421.297 386.693 415.889 382.455C414.849 381.639 414.379 381.883 413.638 382.738C411.324 385.492 408.835 388.095 406.185 390.53C407.574 386.514 408.924 382.482 410.36 378.482C415.163 365.087 420.401 351.882 427.621 339.551C429.282 336.719 429.336 336.746 432.479 337.338C444.176 339.551 455.369 343.528 466.594 347.293C467.335 347.541 468.049 348.133 468.922 347.769C468.922 347.158 468.386 346.976 468.021 346.717C458.71 340.093 448.805 334.525 438.066 330.544C433.181 328.733 432.122 329.194 429.212 333.589C422.795 343.281 417.96 353.782 413.693 364.541C406.583 382.461 400.65 400.822 395.931 419.509C395.593 420.837 395.213 421.165 393.766 420.956C383.161 419.442 372.54 418.012 361.901 416.666C360.559 416.492 360.167 416.081 360.404 414.731C364.004 394.353 369.052 374.357 376.194 354.911C381.077 341.555 386.709 328.482 393.064 315.756C395.811 310.274 399.058 305.109 403.811 301.092C410.655 295.289 418.736 293.583 427.478 294.07C436.324 294.561 444.06 298.071 451.381 302.721C461.076 308.875 470.032 316.116 478.074 324.303C480.98 327.263 482.233 330.795 483.455 334.479C488.53 349.789 493.155 365.257 499.622 380.068C505.279 393.029 512.255 405.147 522.513 415.137C524.97 417.521 527.572 419.751 530.304 421.815Z" fill="white"/>
<path d="M523.501 232.638C522.166 231.926 520.851 231.496 519.761 230.633C517.762 229.051 517.514 227.894 519.171 225.99C521.84 222.949 524.56 219.947 527.388 217.049C531.128 213.219 534.997 209.508 538.795 205.728C539.408 205.117 539.92 204.602 540.905 205.086C545.278 207.218 549.596 209.419 553.468 212.437C556.25 214.6 557.399 217.231 556.498 220.701C555.827 223.282 555.179 225.871 554.644 228.482C554.547 228.962 553.654 229.817 554.822 230.142C555.8 230.413 556.921 231.187 557.798 229.945C558.628 228.784 559.443 227.592 560.588 226.679C561.503 225.948 562.493 225.518 563.626 226.01C564.758 226.501 565.321 227.557 565.282 228.846C565.162 232.742 563.435 235.98 560.867 238.743C559.703 239.973 560.01 240.252 561.325 240.886C564.429 242.364 567.362 244.129 570.466 245.564C571.831 246.195 571.952 246.98 571.859 248.273C571.23 256.993 567.02 264.136 561.771 270.756C558.75 274.533 555.275 277.926 551.424 280.858C549.356 276.025 547.408 271.297 545.041 266.763C544.723 266.155 544.39 265.56 544.106 264.937C542.845 262.151 540.828 260.828 537.643 260.406C531.947 259.651 526.283 258.514 520.855 256.494C519.699 256.07 518.589 255.531 517.541 254.885C515.524 253.627 514.651 251.836 514.93 249.491C514.998 248.741 515.117 247.997 515.287 247.263C515.617 246.009 515.675 244.427 516.513 243.637C517.351 242.848 518.674 244.109 519.827 244.318C523.082 244.914 526.259 244.775 529.34 243.545C530.042 243.266 531.109 243.003 530.927 241.939C530.744 240.875 529.763 240.999 528.932 240.948C526.391 240.794 523.889 240.515 521.635 239.126C520.284 238.29 519.753 237.458 520.994 236.058C521.887 234.96 522.723 233.819 523.501 232.638Z" fill="white"/>
<path d="M371.676 362.311C369.504 368.992 367.506 375.512 365.74 382.101C362.741 393.283 360.44 404.611 358.369 415.994C358.089 417.519 358.524 417.994 359.994 418.169C364.429 418.691 368.844 419.329 373.574 419.968C371.537 422.626 369.639 425.106 367.754 427.578C367.502 427.903 367.284 428.162 366.761 427.861C362.927 425.675 360.146 427.559 357.837 430.43C353.061 436.407 346.974 440.876 340.917 445.395C340.099 446.01 339.493 446.134 338.539 445.682C333.107 443.089 327.643 440.546 322.147 438.052C321.006 437.533 320.801 437.139 321.553 436.021C337.848 411.787 354.122 387.541 370.373 363.282C370.629 362.914 370.765 362.365 371.676 362.311Z" fill="white"/>
<path d="M609.522 262.51C600.909 262.584 592.409 261.442 583.916 260.049C583.14 259.918 582.329 259.813 581.786 259.024C579.92 256.316 577.421 254.288 574.647 252.598C573.638 251.982 573.347 251.321 573.367 250.114C573.417 247.46 574.143 245.239 576.009 243.25C577.435 241.752 578.648 240.067 579.613 238.239C580.583 236.367 581.968 235.686 583.931 235.465C598.577 233.821 612.661 235.62 626.043 242.043C627.571 242.778 628.223 243.749 628.118 245.378C627.664 252.3 624.735 257.817 618.88 261.702C617.786 262.429 616.514 262.386 615.311 262.475C613.367 262.615 611.447 262.51 609.522 262.51Z" fill="white"/>
<path d="M323.68 461.402C331.859 454.299 340.511 447.903 349.116 441.453C353.236 438.358 356.488 434.489 359.98 430.802C360.686 430.063 361.376 429.308 362.408 428.948C364.348 428.283 365.943 428.887 366.428 430.821C367.437 434.849 368.922 434.195 371.65 433.112C374.036 432.164 376.05 430.895 377.571 428.608C379.743 425.342 383.39 424.213 387.041 423.307C387.786 423.122 387.968 423.694 388.205 424.189C390.219 428.531 392.236 432.864 393.637 437.457C394.075 438.88 393.936 439.693 392.287 440.122C389.439 440.865 386.618 441.74 383.844 442.719C382.735 443.105 382.207 442.989 381.904 441.852C381.71 441.078 381.613 440.2 380.508 440.08C380.027 440.008 379.536 440.087 379.104 440.307C378.671 440.527 378.318 440.876 378.094 441.306C376.154 444.568 373.105 446.17 369.598 447.358C355.056 452.279 340.561 457.332 325.709 461.286C325.1 461.445 324.46 461.673 323.68 461.402Z" fill="white"/>
<path d="M549.964 322.691C557.456 313.904 561.902 303.613 564.878 292.605C565.286 291.232 565.99 289.964 566.942 288.891C573.076 281.424 577.53 272.927 581.809 264.345C582.752 262.461 583.528 261.448 585.895 262.128C588.18 262.79 590.636 262.871 593.014 263.223C593.693 263.324 594.236 263.32 593.926 264.438C592.7 268.854 591.584 273.298 590.577 277.771C590.345 278.793 589.887 279.071 589.002 279.268C586.461 279.845 583.958 280.541 581.402 281.106C580.521 281.3 579.962 281.571 580.238 282.573C580.905 285.072 581.091 287.749 582.682 289.924C583.338 290.818 582.767 291.294 582.376 291.897C577.79 298.985 572.094 305.11 565.82 310.712C560.802 315.197 555.531 319.391 550.033 323.275C549.987 323.244 549.948 323.204 549.918 323.156C549.889 323.108 549.87 323.055 549.864 322.999C549.857 322.944 549.862 322.887 549.88 322.834C549.897 322.781 549.926 322.732 549.964 322.691Z" fill="white"/>
<path d="M330.325 453.473C328.032 455.407 325.832 457.21 323.671 459.067C322.787 459.841 321.976 460.669 321.161 461.501C320.92 461.703 320.752 461.978 320.682 462.284C320.612 462.589 320.644 462.91 320.773 463.196C321.076 463.826 321.716 463.679 322.236 463.656C325.219 463.54 328.028 462.577 330.845 461.749C336.628 460.057 342.387 458.282 348.122 456.425C349.573 455.953 349.957 456.336 349.988 457.678C350.034 459.799 350.135 461.915 350.201 464.035C350.244 465.436 349.755 466.121 348.149 466.047C345.196 465.916 342.232 465.943 339.276 466.047C337.964 466.09 337.654 465.66 337.677 464.411C337.712 462.476 336.125 461.431 334.798 462.67C330.5 466.701 325.157 466.241 320.013 466.388C307.71 466.736 295.407 467.127 283.096 466.833C280.85 466.779 278.611 466.604 275.802 466.446C279.538 464.511 282.964 463.258 286.367 461.969C292.381 459.69 298.394 457.45 304.47 455.291C309.136 453.683 313.592 451.523 317.743 448.857C318.936 448.049 320.207 447.364 321.537 446.81C323.989 445.827 325.945 447.077 326.139 449.596C326.418 453.086 326.418 453.086 330.325 453.473Z" fill="white"/>
<path d="M556.778 295.198C555.028 291.596 553.407 288.052 551.591 284.609C550.881 283.27 551.785 282.941 552.495 282.372C559.416 276.809 565.329 270.401 569.418 262.446C570.678 260.02 571.717 257.486 572.522 254.875C572.829 253.869 573.174 253.714 574.074 254.318C576.526 255.993 578.839 257.8 580.554 260.268C580.992 260.895 581.361 261.452 580.942 262.288C576.235 271.334 571.746 280.515 565.034 288.334C562.675 291.055 559.886 293.373 556.778 295.198Z" fill="white"/>
<path d="M544.732 294.726C545.577 294.795 545.508 293.778 546.361 293.739L540.507 322.908H540.119C538.454 314.597 536.774 306.294 535.137 297.98C534.307 293.755 533.585 289.506 532.751 285.281C532.44 283.676 532.363 282.24 533.942 281.165C535.3 280.252 535.626 279.037 534.788 277.508C533.236 274.684 533.682 272.227 535.925 269.809C537.729 267.874 539.118 265.553 540.821 263.231C542.951 266.021 544.208 269.105 545.671 272.08C546.058 272.896 545.449 273.206 545.081 273.628C543.603 275.338 542.097 277.029 540.592 278.719C540.084 279.288 539.7 279.749 540.025 280.673C541.659 285.359 543.184 290.083 544.732 294.726Z" fill="white"/>
<path d="M550.77 316.48C551.593 308.61 552.415 300.737 553.304 292.256C554.169 293.985 554.855 295.146 555.337 296.376C555.798 297.537 556.38 297.587 557.315 296.961C558.922 295.889 560.555 294.856 562.483 293.61C560.155 302.896 556.78 311.199 550.844 318.318C550.483 317.722 550.588 317.103 550.77 316.48Z" fill="white"/>
<path d="M585.9 220.339C586.416 213.247 582.571 208.918 577.12 205.145C581.446 204.418 585.887 204.84 589.997 206.368C590.738 206.643 590.68 207.293 590.688 207.916C590.73 210.926 590.688 213.94 590.874 216.942C590.967 218.428 590.385 219.035 589.066 219.345C588.081 219.573 587.126 219.948 585.9 220.339Z" fill="white"/>
<path d="M545.473 291.391C544.228 287.603 543.145 284.233 541.981 280.894C541.879 280.648 541.857 280.376 541.919 280.117C541.981 279.858 542.124 279.625 542.326 279.451C543.518 278.132 544.736 276.836 545.861 275.462C546.718 274.414 546.99 275.021 547.324 275.83C548.03 277.524 548.794 279.196 549.469 280.902C549.663 281.397 550.175 282.02 549.36 282.508C548.674 282.918 548.973 283.502 549.279 283.901C550.187 285.146 549.748 286.063 548.829 287.085C547.723 288.346 546.753 289.754 545.473 291.391Z" fill="#FEFEFE"/>
<path d="M386.031 421.699C381.231 423.08 377.538 424.956 375.078 428.914C373.895 430.814 371.512 431.344 369.417 431.948C368.583 432.188 367.819 430.586 368.467 429.7C370.686 426.666 373.018 423.714 375.299 420.724C375.718 420.178 376.296 420.337 376.812 420.391C379.726 420.782 382.636 421.211 386.031 421.699Z" fill="#FEFEFE"/>
<path d="M338.04 447.396C335.592 449.771 333.132 451.57 329.691 451.57C328.601 451.57 328.182 451.458 328.019 450.228C327.724 447.98 328.698 446.103 329.349 444.111C329.675 443.116 330.23 443.763 330.606 443.937C333.035 445.032 335.441 446.177 338.04 447.396Z" fill="#FEFEFE"/>
<path d="M528.499 213.218C527.188 212.506 525.919 211.67 524.414 211.403C523.587 211.253 523.153 210.753 523.378 209.964C523.634 209.07 524.398 209.496 524.906 209.651C526.521 210.138 528.189 210.564 529.345 211.945C529.062 212.371 528.79 212.796 528.499 213.218Z" fill="#2C2C2B"/>
<path d="M532.318 209.274C532.054 208.338 531.791 207.39 531.449 206.179L534.208 207.339L532.318 209.274Z" fill="#E5E4E4"/>
<path d="M550.769 316.481L550.85 318.319C550.804 318.555 550.614 318.938 550.482 318.547C550.371 318.204 550.339 317.839 550.388 317.482C550.438 317.124 550.568 316.782 550.769 316.481Z" fill="#C6C6C5"/>
<path d="M549.961 322.688L550.019 323.265C549.909 323.469 549.758 323.649 549.575 323.792C549.392 323.935 549.181 324.039 548.956 324.097C549.001 323.8 549.115 323.518 549.29 323.273C549.464 323.028 549.694 322.828 549.961 322.688Z" fill="#C6C5C5"/>
<path d="M151.745 336.736C151.388 363.046 151.357 388.508 151.318 413.967C151.318 425.079 151.105 436.187 151.074 447.299C151.074 448.819 150.686 449.303 149.134 449.261C144.866 449.152 140.598 449.191 136.33 449.261C135.201 449.261 134.813 448.994 134.779 447.786C134.519 437.506 134.185 427.23 133.867 416.954C133.458 403.868 133.044 390.783 132.625 377.698C132.222 365.093 131.81 352.488 131.391 339.885C131.001 327.829 130.613 315.772 130.228 303.713C130.219 303.303 130.182 302.893 130.119 302.487C130.026 301.914 129.828 301.357 129.11 301.442C128.392 301.527 128.233 302.054 128.257 302.649C128.338 304.704 128.47 306.755 128.532 308.809C128.885 320.393 129.207 331.973 129.568 343.553C129.964 356.228 130.375 368.904 130.802 381.579C131.221 394.525 131.636 407.473 132.047 420.424C132.412 431.645 132.765 442.865 133.211 454.085C133.273 455.768 132.881 456.264 131.081 456.194C121.257 455.807 111.426 455.579 101.595 455.273C99.8177 455.215 97.7148 455.571 96.3608 454.751C95.0067 453.931 95.5538 451.594 95.3559 449.938C94.2541 440.755 93.2195 431.566 92.2521 422.37C91.2847 413.239 90.3704 404.106 89.5091 394.97C88.7047 386.372 87.9688 377.77 87.3015 369.163C86.4673 358.507 85.6293 347.852 84.9542 337.185C84.3451 327.543 83.9493 317.882 83.476 308.233C83.088 300.425 82.7815 292.621 82.6768 284.801C82.6768 283.138 83.2587 283.002 84.5856 283.254C97.4976 285.641 110.507 287.308 123.585 288.442C128.377 288.86 133.188 289.115 137.995 289.309C139.384 289.363 139.636 289.676 139.465 291.062C138.588 298.2 137.913 305.377 137.025 312.5C136.846 313.951 137.394 314.071 138.577 314.083C141.991 314.11 141.991 314.148 141.851 317.588C141.723 320.683 141.723 320.683 144.936 320.683C146.724 320.683 148.517 320.726 150.302 320.625C151.512 320.556 151.799 321.012 151.788 322.173C151.718 327.307 151.745 332.453 151.745 336.736Z" fill="#E20612"/>
<path d="M91.9468 216.509C99.105 199.283 108.129 183.235 121.464 169.898C121.742 169.919 122.002 170.043 122.194 170.246C124.611 173.303 127.761 173.016 131.036 172.181C131.366 172.095 131.688 171.96 132.021 171.871C133.961 171.368 134.431 171.794 134.043 173.759C134.004 173.96 133.938 174.146 133.899 174.359C133.22 177.872 134.547 180.936 137.449 181.815C140.351 182.693 144.002 182.337 146.051 178.785C147.111 176.852 147.611 174.663 147.494 172.463C147.494 171.732 147.331 170.772 148.111 170.42C148.891 170.068 149.453 170.884 150 171.368C150.671 171.956 151.253 172.641 151.94 173.221C154.536 175.462 157.554 175.725 160.538 173.995C163.141 172.475 164.274 169.797 163.684 166.574C162.738 161.428 159.028 158.674 153.577 159.053C150.951 159.235 150.629 158.871 151.932 156.553C153.282 154.151 153.096 151.558 153.356 149.001C159.149 146.618 165.228 145.333 171.393 144.455C179.408 143.321 187.542 143.321 195.557 144.455C196.228 144.548 196.887 144.737 197.555 144.884C198.094 145.178 198.304 145.526 197.671 145.929C197.19 146.231 196.612 146.196 196.077 146.316C193.908 146.734 192.142 147.786 191.452 149.945C190.726 152.228 191.064 154.425 192.724 156.298C195.378 159.281 198.68 159.695 202.335 158.72C202.926 158.535 203.506 158.317 204.073 158.066C205.287 157.583 205.691 157.966 205.539 159.269C204.93 164.423 205.388 165.143 210.327 167.24C210.419 167.285 210.499 167.352 210.558 167.435C210.618 167.518 210.656 167.614 210.669 167.716C210.533 174.734 212.003 181.439 214.669 187.901C214.83 188.236 214.903 188.606 214.883 188.978C214.863 189.349 214.749 189.709 214.552 190.025C212.635 193.509 210.289 196.742 207.569 199.647C206.793 199.512 207.002 198.746 206.707 198.301C205.508 189.827 204.271 181.358 202.133 173.055C201.722 171.465 201.314 169.871 200.837 168.3C200.635 167.627 200.535 166.555 199.502 166.837C198.47 167.12 198.851 167.998 199.068 168.741C200.812 174.795 202.192 180.947 203.2 187.165C203.627 189.796 204.247 192.412 204.24 195.101C203.305 195.488 202.688 194.714 201.978 194.412C197.155 192.366 192.333 194.238 190.994 198.668C190.366 200.746 190.951 202.588 191.914 204.395C192.41 205.327 192.62 205.996 191.083 206.116C187.491 206.406 185.652 207.807 185.066 210.415C184.468 213.123 186.047 216.28 188.724 217.898C189.357 218.285 190.393 218.254 190.443 219.349L167.285 223.09C164.937 223.477 164.825 223.349 164.115 219.786C164.577 217.162 165.12 214.559 164.654 211.858C164.476 210.806 165.131 210.337 166.175 210.523C166.982 210.666 167.754 210.972 168.592 211.026C172.061 211.258 174.439 209.343 174.699 206.081C174.767 205.327 174.685 204.566 174.457 203.843C174.23 203.119 173.861 202.448 173.373 201.868C172.884 201.287 172.285 200.808 171.611 200.459C170.936 200.11 170.199 199.897 169.442 199.833C168.204 199.697 166.952 199.869 165.799 200.336C164.573 200.831 164.127 200.336 164.247 199.121C164.384 198.239 164.408 197.343 164.317 196.455C164.068 194.846 163.304 193.53 161.702 193.07C160.099 192.609 158.741 193.271 157.69 194.536C157.345 194.95 157.158 195.515 156.565 195.697C155.996 194 155.424 192.3 154.85 190.597L154.501 190.659C154.891 193.641 155.286 196.622 155.684 199.601C154.823 200.255 153.965 199.701 153.131 199.558C148.212 198.715 144.138 200.255 141.818 203.996C140.056 206.836 139.703 209.869 141.674 212.69C143.564 215.398 146.38 216.06 149.538 215.251C150.811 214.926 151.641 214.899 151.587 216.667C151.436 221.643 154.21 223.96 159.094 223.078C159.564 222.997 160.033 222.835 160.483 223.148C160.871 224.583 161.426 226.003 161.605 227.466C161.803 229.102 162.606 229.335 164.061 229.331C165.81 229.331 167.94 228.213 169.194 229.42C170.276 230.468 170.338 232.55 170.889 234.163C173.02 240.354 175.159 246.544 177.306 252.735C178.199 255.3 176.693 257.122 174.051 256.813C170.862 256.426 168.561 254.162 165.682 253.149C165.748 252.282 166.532 251.949 167.017 251.408C169.465 248.665 169.046 245.542 165.748 243.96C163.94 243.093 163.874 242.257 164.693 240.663C165.578 238.942 164.786 237.1 162.966 235.966C161.147 234.833 159.614 235.03 158.214 236.632C158.005 236.811 157.838 237.033 157.721 237.282C156.906 240.276 154.807 241.689 151.944 242.66C149.445 243.507 148.363 245.701 148.545 248.413C148.592 249.137 148.933 249.899 148.456 250.607C145.787 252.081 144.06 251.357 142.318 248.796C140.429 246.014 137.22 244.741 134.039 243.689C132.099 243.043 130.159 242.331 128.219 241.65C127.986 241.394 127.704 241.189 127.389 241.046C125.352 240.35 123.947 239.41 123.998 236.79C124.029 235.305 122.446 234.713 120.871 234.813C119.404 234.91 118.543 235.672 118.454 237.135C118.357 238.512 117.79 239.255 116.327 239.371C114.659 239.499 114.221 240.667 114.298 242.145C114.384 243.739 115.509 244.022 116.758 243.987C117.444 243.937 118.131 244.057 118.758 244.337C119.386 244.616 119.934 245.046 120.355 245.589C121.961 247.523 124.134 247.136 126.26 246.842L127.901 247.829C123.53 249.502 118.92 250.47 114.244 250.696C108.424 250.998 102.574 250.912 96.8159 249.64C95.621 249.373 94.2553 249.222 93.3979 250.413C92.5947 251.512 93.2815 252.507 93.9837 253.377C94.523 254.043 93.9449 254.182 93.5686 254.395C92.715 254.882 92.2572 256.136 92.7926 256.41C95.0274 257.571 94.6433 260.817 97.2311 261.552C97.588 261.649 98.0846 261.835 98.0769 262.326C98.0342 264.783 99.9935 265.468 101.685 266.304C104.219 267.557 106.985 268.141 109.693 268.892C110.081 269.38 109.941 269.921 109.879 270.467C109.468 274.208 109.006 274.44 105.747 272.533C105.045 272.106 104.307 271.739 103.544 271.434C100.568 270.324 97.8674 271.361 96.4668 274.189C95.7748 275.529 95.3692 276.998 95.2757 278.503C95.2408 279.226 95.3959 280.051 94.6355 280.55C88.94 279.66 83.2483 278.739 77.5644 277.899C75.7681 277.636 76.094 276.452 76.2181 275.311C77.6924 261.87 80.1328 248.637 84.7537 235.873C85.0524 235.042 85.3744 234.217 85.6887 233.389C87.7139 232.944 89.778 233.517 91.8149 233.13C92.5171 232.999 92.9478 233.517 93.1069 234.198C93.1611 234.466 93.2 234.738 93.2233 235.011C93.6656 238.992 95.1088 240.787 98.1002 241.077C99.827 241.241 101.558 240.807 103.001 239.847C104.444 238.887 105.511 237.461 106.023 235.808C106.587 233.892 106.65 231.865 106.205 229.919C105.817 228.008 106.12 227.802 107.924 228.422C109.169 228.847 110.403 229.253 111.749 228.99C114.911 228.367 116.871 225.57 116.304 222.471C115.722 219.302 112.424 217.093 109.185 217.673C108.913 217.723 108.653 217.812 108.385 217.886C105.941 218.567 105.802 218.451 105.999 215.909C106.259 212.578 104.537 210.558 101.829 211.018C99.7452 211.374 98.5231 212.992 98.6976 215.17C98.7481 215.789 98.9576 216.373 99.0623 216.985C99.2292 217.936 98.8994 218.586 97.8713 218.254C95.9042 217.546 93.7703 217.565 91.9468 216.509Z" fill="#FF8025"/>
<path d="M313.031 238.733C311.479 240.71 309.466 241.504 307.34 241.995C301.671 243.295 295.894 243.585 290.121 243.384C287.331 243.283 284.837 243.96 282.323 244.893C261.511 252.612 240.623 260.114 219.229 266.099C211.629 268.227 203.947 270.073 196.028 270.626C195.14 270.688 194.247 270.731 193.355 270.766C188.994 270.936 186.17 269.241 184.292 264.993C178.647 252.202 174.371 238.958 170.185 225.664C169.894 224.731 169.882 224.391 171.004 224.217C180.028 222.816 189.045 221.366 198.053 219.868C199.318 219.659 199.159 220.433 199.264 221.175C200.184 227.892 201.266 234.574 203.392 241.039C203.543 241.496 203.683 241.956 203.858 242.401C205.941 247.717 207.159 248.391 212.843 247.648C225.313 246.015 237.786 244.436 250.256 242.819C252.231 242.564 254.19 242.169 256.165 241.914C257.18 241.83 258.156 241.492 259.004 240.93C259.852 240.369 260.544 239.602 261.015 238.702C262.737 235.754 265.422 233.673 268.685 232.431C272.06 231.094 275.511 229.96 279.021 229.034C279.409 228.929 279.971 228.488 280.235 229.165C280.441 229.691 280.037 230.086 279.618 230.326C277.655 231.564 275.843 233.061 273.62 233.862C272.561 234.249 272.383 234.4 273.275 235.553C275.405 238.323 278.09 238.702 281.248 238.521C285.861 238.25 290.408 239.321 295.013 239.488C300.131 239.67 305.171 238.996 310.234 238.563C311.168 238.423 312.121 238.481 313.031 238.733Z" fill="white"/>
<path d="M147.169 252.82C149.83 251.884 152.461 251.868 155.142 252.271C160.275 253.045 165.167 254.472 169.66 257.15C171.406 258.194 172.209 259.638 172.414 261.646C174.15 278.886 175.914 296.124 177.706 313.36C177.772 313.971 177.772 314.594 177.819 315.209C178.079 318.691 178.079 318.657 174.459 318.691C164.698 318.773 154.936 318.85 145.174 319.005C143.816 319.005 143.429 318.691 143.533 317.314C145.039 297.166 146.517 277.02 147.968 256.875C148.135 255.473 147.855 254.055 147.169 252.82Z" fill="white"/>
<path d="M276.487 156.772C279.339 162.397 283.936 164.278 290.233 162.835C287.478 171.416 284.53 179.599 278.671 186.394C270.19 196.236 258.714 191.245 254.275 183.766C253.674 182.753 253.158 182.497 252.036 182.606C246.217 183.163 240.397 183.6 234.577 184.153C233.534 184.25 233.026 184.084 232.603 183.02C230.593 177.897 228.952 172.685 228.312 167.207C228.013 164.665 228.145 162.15 229.262 159.763C229.883 158.443 230.814 157.793 232.304 157.782C235.33 157.755 238.356 157.604 241.379 157.538C243.621 157.488 245.743 159.472 245.937 161.74C246.209 165.018 246.721 168.271 247.47 171.474C247.645 172.217 247.559 173.409 248.774 173.119C249.829 172.879 249.356 171.873 249.204 171.184C248.401 167.643 247.87 164.046 247.614 160.424C247.555 159.569 247.101 159.055 246.558 158.521C244.443 156.447 242.916 153.852 242.131 150.999C241.833 149.92 241.394 148.801 242.543 148.012C243.773 147.169 244.746 147.985 245.646 148.747C246.011 149.049 246.353 149.386 246.958 149.939C247.055 148.678 247.136 147.649 247.214 146.612C250.217 147.498 250.26 147.501 250.772 144.356C251.175 141.996 251.951 139.714 253.072 137.597C253.751 136.277 254.694 135.983 256.079 136.184C262.333 137.09 268.599 137.945 274.861 138.796C280.72 139.593 286.574 140.56 292.51 140.29C294.559 140.197 294.838 141.021 294.543 142.654C294.4 143.462 294.295 144.279 294.155 145.304C290.206 142.007 285.888 141.048 281.259 143.532C278.334 145.079 276.402 147.498 276.076 150.941C275.73 153.541 274.136 155.851 274.586 158.679C275.102 162.057 274.947 165.504 275.199 168.913C275.439 172.182 275.451 172.306 272.277 172.62C272.091 172.639 271.87 172.62 271.773 172.844C271.812 172.879 271.851 172.948 271.893 172.952C275.913 173.397 275.92 173.397 275.901 169.428C275.901 166.143 275.261 162.885 275.49 159.588C275.773 158.633 274.997 157.302 276.487 156.772Z" fill="white"/>
<path d="M153.351 148.978C154.658 152.51 153.067 155.52 151.492 158.701C153.46 158.328 155.485 158.37 157.436 158.824C159.735 159.37 161.734 160.78 163.015 162.761C164.296 164.741 164.76 167.139 164.311 169.453C164.095 170.652 163.592 171.783 162.845 172.748C162.098 173.713 161.13 174.484 160.021 174.997C158.912 175.51 157.695 175.749 156.474 175.693C155.253 175.638 154.063 175.291 153.005 174.68C151.166 173.662 149.863 172.053 148.031 170.176C148.031 171.917 148.121 173.244 148.031 174.552C147.671 178.963 145.172 182.039 141.475 182.731C136.008 183.761 131.973 179.443 133.389 174.08C133.56 173.442 133.777 172.811 134.033 171.937C129.451 172.993 124.722 175.442 121.482 169.909C130.518 160.546 140.904 153.206 153.351 148.978Z" fill="white"/>
<path d="M210.882 219.304C214.913 216.232 218.909 213.114 222.192 209.202C225.649 205.058 228.547 200.605 230.223 195.455C230.925 193.292 232.617 194.534 233.839 194.221C234.852 193.962 235.414 194.445 235.728 195.533C237.439 201.437 237.241 207.434 236.683 213.435C236.465 215.733 236.388 218.078 235.585 220.299C234.033 221.049 232.954 220.422 232.093 219.157C231.86 218.821 231.678 218.449 231.461 218.097C228.888 213.899 224.683 215.06 222.572 217.76C220.981 219.796 221.501 222.167 223.879 223.107C225.168 223.618 225.668 224.125 224.966 225.487C224.691 226.008 224.547 226.589 224.547 227.178C224.547 227.767 224.691 228.347 224.966 228.869C225.272 229.529 225.761 230.088 226.374 230.481C226.988 230.874 227.701 231.085 228.43 231.089C230.103 231.132 231.049 230.118 231.662 228.675C232.147 227.514 232.531 226.048 234.184 227.607C233.478 231.225 232.353 234.734 231.34 238.274C231.042 239.327 230.588 239.435 229.614 239.137C221.078 236.473 212.523 233.833 203.949 231.217C201.668 230.517 202.366 228.563 202.129 227C203.084 226.443 204.135 226.702 205.144 226.652C208.089 226.516 209.8 225.011 210.289 222.098C210.448 221.157 210.471 220.19 210.882 219.304Z" fill="#FF8025"/>
<path d="M95.217 251.431C107.838 253.575 120.156 253.072 132.254 248.301C129.705 246.502 126.795 245.233 124.087 242.745C125.115 242.888 125.677 242.915 126.209 243.051C129.527 243.903 132.782 244.983 135.951 246.281C138.981 247.512 141.224 249.698 142.977 252.41C143.346 252.979 143.528 253.865 144.215 253.981C146.651 254.395 146.174 256.078 146.038 257.703C145.86 259.885 145.701 262.075 145.65 264.281C145.623 265.209 145.286 265.321 144.549 265.054C144.415 265.011 144.285 264.957 144.161 264.892C139.978 262.478 135.792 263.035 131.381 264.416C126.744 265.871 121.976 267.008 117.095 267.376C111.555 267.794 106.329 266.529 101.382 264.068C100.994 263.878 100.501 263.72 100.362 262.868C103.784 264.385 107.26 265.035 110.814 265.302C112.529 265.43 114.247 265.507 115.962 265.573C116.564 265.596 117.347 265.689 117.417 264.83C117.506 263.809 116.68 263.909 115.982 263.867C111.532 263.596 107.058 263.534 102.79 261.862C100.967 261.143 99.1628 260.377 97.2035 259.572C97.5011 259.43 97.8255 259.353 98.1553 259.346C98.485 259.338 98.8126 259.401 99.1162 259.529C104.579 261.301 110.259 261.874 115.916 262.539C116.571 262.617 117.444 262.818 117.603 261.87C117.79 260.744 116.804 260.779 116.094 260.709C110.329 260.233 104.629 259.413 99.1007 257.661C97.6924 257.212 96.2336 256.833 94.6816 255.757C95.9115 255.517 96.8194 255.498 97.7001 255.78C103.822 257.761 110.146 257.761 116.474 257.715C117.2 257.715 118.216 257.819 118.104 256.705C118.015 255.8 117.118 255.997 116.44 256.008C111.132 256.101 105.848 255.869 100.641 254.774C98.5226 254.325 96.5051 253.552 95.217 251.431Z" fill="white"/>
<path d="M91.948 216.517C94.2917 216.562 96.6017 217.082 98.7377 218.046C98.2333 215.79 97.3138 213.573 99.1489 211.623C99.5743 211.171 100.087 210.809 100.657 210.56C101.226 210.312 101.841 210.181 102.462 210.176C105.523 210.064 106.68 212.35 106.4 217.887C110.583 216.339 114.082 217.071 115.925 219.883C116.699 221.071 117.061 222.479 116.955 223.891C116.85 225.303 116.284 226.642 115.343 227.703C113.225 230.024 110.21 230.202 106.381 228.144C106.982 230.554 107.397 232.88 106.769 235.29C105.814 238.853 102.8 241.481 99.3235 241.662C95.1799 241.86 92.5882 239.341 92.6153 235.162C92.6153 234.567 92.9141 233.948 92.5028 233.297C90.3179 234.177 87.8779 234.186 85.686 233.325C87.3885 227.587 89.4807 221.971 91.948 216.517Z" fill="white"/>
<path d="M190.47 219.275C187.556 218.173 185.395 216.319 184.576 213.209C183.412 208.794 186.745 205.219 191.948 205.471C190.896 203.849 190.151 202.213 190.194 200.313C190.314 194.68 195.808 191.395 201.558 193.581C202.493 194.002 203.4 194.483 204.274 195.02C205.384 200.944 205.709 206.945 205.938 212.949C206.082 216.726 206.028 216.772 202.229 217.422C198.295 218.115 194.369 218.668 190.47 219.275Z" fill="white"/>
<path d="M215.217 269.052C214.074 272.394 212.623 275.623 210.883 278.698C210.006 280.245 208.427 280.574 206.832 280.744C200.927 281.371 195.193 280.129 189.509 278.876C185.494 277.997 181.563 276.74 177.548 275.873C175.914 275.521 175.519 274.712 175.379 273.261C174.906 268.379 174.347 263.504 173.808 258.485C175.542 258.687 177.299 258.895 179.053 259.093C179.887 259.19 180.097 259.809 180.384 260.466C181.307 262.598 182.429 264.649 183.239 266.819C184.83 271.075 188.143 272.41 192.314 272.499C198.336 272.623 204.198 271.474 210.045 270.236C211.64 269.899 213.226 269.508 215.217 269.052Z" fill="white"/>
<path d="M94.6391 280.481C94.4086 278.291 94.8296 276.082 95.8496 274.128C97.6537 270.402 100.579 269.361 104.354 271.033C105.867 271.702 107.136 272.755 108.641 273.765L109.7 268.808C115.276 269.71 120.723 268.839 126.147 267.647C127.765 269.71 127.264 271.876 126.349 273.985C125.297 276.403 123.268 277.901 120.917 279.069C123.606 279.572 126.104 280.23 128.168 281.94C128.995 282.625 129.949 283.298 129.685 284.621C117.964 283.654 106.278 282.385 94.6391 280.481Z" fill="white"/>
<path d="M210.645 167.648C205.508 166.998 203.832 164.123 205.131 158.072C202.916 159.183 200.662 159.863 198.198 159.651C194.994 159.38 192.623 157.832 191.18 155.008C188.937 150.616 191.568 146.047 196.495 145.614C196.848 145.583 198.187 146.387 197.531 144.84C204.744 145.614 211.541 147.885 218.152 150.748C219.588 151.367 220.946 152.172 222.338 152.895C222.389 153.089 222.366 153.294 222.274 153.471C222.181 153.649 222.026 153.785 221.838 153.855C220.22 154.133 218.61 154.571 216.984 154.648C214.629 154.756 213.38 156.107 212.55 158.041C211.254 161.102 210.994 164.383 210.645 167.648Z" fill="white"/>
<path d="M229.478 180.166C230.254 182.042 231.03 183.919 231.845 185.969C227.134 186.553 222.646 187.107 218.16 187.675C217.191 187.799 216.519 187.675 216.1 186.573C213.078 178.572 211.386 170.435 213.284 161.88C213.54 160.531 213.995 159.228 214.634 158.011C214.803 157.636 215.062 157.308 215.388 157.056C215.714 156.803 216.097 156.635 216.504 156.564C220.644 155.934 224.776 155.245 228.989 155.585C229.431 155.669 229.867 155.784 230.293 155.93C226.898 158.39 226.552 161.845 226.347 165.351C225.924 165.939 225.272 165.862 224.671 165.947C222.587 166.245 221.893 166.829 222.184 168.891C222.51 171.213 221.974 173.085 220.748 175.051C219.235 177.48 220.042 179.972 222.479 181.628C224.694 183.133 226.956 182.789 228.849 180.672C229.018 180.459 229.233 180.286 229.478 180.166Z" fill="#FF8025"/>
<path d="M160.497 223.084C154.371 225.405 150.223 221.985 151.123 215.249C149.452 216.091 147.542 216.339 145.711 215.949C140.985 214.905 138.681 210.347 140.403 205.53C142.204 200.5 147.325 197.815 153.106 198.906C153.979 199.072 154.832 199.328 155.698 199.537C157.296 207.388 158.896 215.237 160.497 223.084Z" fill="white"/>
<path d="M129.701 284.62C128.39 281.768 125.701 280.867 123.016 280.011C121.918 279.727 120.806 279.5 119.684 279.331C124.339 276.68 128.06 273.624 126.147 267.646C129.725 266.717 133.313 265.827 136.875 264.841C138.815 264.299 140.285 265.572 141.95 266.052C142.45 266.195 142.171 266.911 142.12 267.367C141.492 272.869 140.821 278.367 140.25 283.877C140.138 284.972 139.94 285.463 138.699 285.335C135.703 285.026 132.7 284.852 129.701 284.62Z" fill="#FF8025"/>
<path d="M156.576 195.64C157.429 193.218 159.586 191.844 161.751 192.347C164.39 192.966 165.398 195.621 164.665 200.283C166.093 199.316 167.835 198.921 169.542 199.176C171.265 199.392 172.847 200.24 173.977 201.556C175.602 203.417 175.777 206.586 174.434 208.88C172.859 211.569 170.83 211.975 164.995 210.814C165.542 213.91 165.914 216.947 164.122 219.744C161.751 213.302 159.982 206.671 157.945 200.124C157.491 198.631 157.033 197.133 156.576 195.64Z" fill="white"/>
<path d="M148.466 250.532C147.085 245.962 148.854 242.662 153.564 241.246C154.965 240.832 156.071 240.387 156.331 238.773C156.48 238.248 156.715 237.75 157.025 237.299C158.577 234.521 160.618 233.771 162.899 235.14C165.755 236.854 166.36 239.106 164.691 241.822C164.552 242.051 164.412 242.283 164.222 242.596C166.531 243.447 168.878 244.314 169.068 247.193C169.254 249.843 167.935 251.739 165.692 253.054C162.108 251.967 158.558 250.779 154.802 250.381C152.692 250.171 150.564 250.222 148.466 250.532Z" fill="white"/>
<path d="M277.546 152.697C277.55 150.95 278.076 149.244 279.056 147.796C280.036 146.348 281.427 145.224 283.05 144.568C284.673 143.911 286.456 143.751 288.171 144.109C289.885 144.467 291.454 145.326 292.677 146.576C293.426 147.35 293.888 148.054 293.558 149.284C292.817 152.055 292.363 154.902 291.684 157.692C290.978 160.625 289.593 161.611 286.466 161.635C281.643 161.681 277.5 157.526 277.546 152.697Z" fill="white"/>
<path d="M203.008 232.796C210.081 234.978 216.801 237.071 223.54 239.102C224.421 239.366 224.642 239.76 224.401 240.569C224.114 241.548 223.796 242.527 223.579 243.529C223.385 244.422 222.842 244.72 221.996 244.813C218.035 245.235 214.07 245.641 210.124 246.16C208.506 246.368 207.536 245.773 206.791 244.407C204.863 240.886 204.052 237.029 203.008 232.796Z" fill="white"/>
<path d="M234.19 227.621C233.333 227.141 232.568 226.766 232.366 228.275C232.126 230.078 231.133 231.339 229.263 231.606C227.393 231.873 225.666 231.262 224.607 229.598C224.115 228.889 223.861 228.042 223.881 227.18C223.9 226.318 224.192 225.484 224.715 224.797C224.824 224.638 224.902 224.452 225.053 224.166C222.962 223.64 221.03 223.005 221.068 220.34C221.099 218.231 222.589 216.173 224.875 215.221C227.16 214.269 229.228 214.733 230.873 216.494C231.283 216.859 231.614 217.304 231.847 217.801C232.452 219.628 233.755 220.324 235.567 220.313C235.501 222.82 234.815 225.215 234.19 227.621Z" fill="white"/>
<path d="M207.588 208.591C207.588 207.817 207.91 207.376 208.616 206.924C213.803 203.585 218.802 199.963 223.588 196.075C225.074 194.879 226.564 194.272 228.632 194.593C226.199 201.533 221.942 207.694 216.306 212.433C215.716 212.135 215.766 211.536 215.631 211.025C214.882 208.204 212.981 207.214 210.199 208.053C209.353 208.286 208.647 209.338 207.588 208.591Z" fill="#FF8025"/>
<path d="M229.474 180.17C228.481 182.658 226.859 183.586 224.36 183.091C221.497 182.526 219.259 179.996 219.375 177.407C219.402 176.807 219.429 176.065 219.763 175.639C221.614 173.318 221.815 170.768 221.598 167.92C221.427 165.68 222.933 165.018 226.335 165.367C226.65 170.454 228.105 175.302 229.474 180.17Z" fill="white"/>
<path d="M207.405 205.592C206.776 203.801 207.339 202.702 208.332 201.599C211.37 198.233 214.128 194.635 216.227 190.611C216.359 190.303 216.574 190.037 216.848 189.843C217.121 189.649 217.444 189.534 217.779 189.512C219.486 189.322 221.193 189.125 222.889 188.881C223.797 188.746 223.971 189.067 224.08 189.949C224.375 192.34 223.692 194.016 221.573 195.432C217.589 198.105 213.814 201.077 209.934 203.913C209.174 204.466 208.363 204.973 207.405 205.592Z" fill="white"/>
<path d="M126.271 246.768C123.714 248.212 121.673 247.929 119.745 245.627C119.474 245.251 119.11 244.951 118.688 244.756C118.267 244.562 117.802 244.479 117.339 244.517C114.662 244.555 113.638 243.836 113.56 242.083C113.463 239.878 114.426 238.864 117.052 238.643C117.739 238.585 117.766 238.349 117.828 237.804C118.243 234.801 119.508 233.726 121.999 234.178C124.276 234.592 125.273 236.581 124.622 239.464C126.022 239.823 127.725 239.7 128.23 241.576C126.678 241.309 125.126 241 123.574 240.802C122.798 240.709 122.022 240.856 121.665 241.696C121.363 242.435 121.778 243.093 122.278 243.534C123.57 244.664 124.936 245.697 126.271 246.768Z" fill="#FFFFFE"/>
<path d="M236.054 192.241C233.179 192.369 230.3 192.489 227.422 192.628C226.432 192.679 225.513 192.609 225.8 191.286C226.025 190.241 224.834 188.535 227.189 188.392C229.168 188.268 231.131 187.892 233.102 187.641C233.769 187.556 234.467 187.726 234.223 186.523C234.013 185.494 235.1 185.981 235.542 185.915C238.836 185.42 238.84 185.451 239.503 188.678C240.217 192.137 240.217 192.137 236.054 192.241Z" fill="#FF8025"/>
<path d="M207.585 208.58C208.275 208.646 208.694 208.104 209.234 207.837C213.172 205.903 216.404 207.973 216.303 212.403C215.207 213.712 213.895 214.824 212.423 215.692C211.647 216.226 210.072 215.637 210.122 217.324C209.651 217.882 209.035 218.3 208.341 218.532C208.31 218.578 208.266 218.616 208.214 218.64C208.162 218.663 208.105 218.672 208.049 218.666C207.993 218.66 207.939 218.638 207.894 218.603C207.849 218.569 207.815 218.522 207.794 218.47C208.143 215.165 207.391 211.881 207.585 208.58Z" fill="#FFFEFE"/>
<path d="M276.047 159.723C276.225 163.887 276.361 168.054 276.598 172.213C276.676 173.571 276.35 174.047 274.902 173.76C273.773 173.548 272.575 173.64 271.411 173.64C270.716 173.64 270.142 173.509 270.158 172.685C270.173 171.861 270.798 172.004 271.341 171.911C272.485 171.694 274.057 172.723 274.689 171.524C275.155 170.642 274.666 169.261 274.608 168.1C274.39 163.805 274.13 159.507 274.002 155.208C273.979 154.434 273.195 152.685 275.411 153.293C275.799 153.401 275.702 152.817 275.729 152.519C275.772 151.977 275.729 151.42 276.074 150.952V154.759C275.962 156.411 275.709 158.067 276.047 159.723Z" fill="#252524"/>
<path d="M210.882 219.313C211.91 224.924 208.096 228.278 202.133 227.009C201.318 225.783 201.663 224.897 202.882 224.173C205.559 222.575 208.216 220.938 210.882 219.313Z" fill="#FEFDFD"/>
<path d="M207.797 218.475L208.344 218.537C206.05 220.002 203.753 221.468 201.453 222.936C201.41 222.854 201.371 222.77 201.337 222.684C200.561 219.457 200.538 219.45 203.723 218.997C205.077 218.807 206.439 218.649 207.797 218.475Z" fill="#F9F9F9"/>
<path d="M293.87 157.501C293.722 155.179 294.716 153.582 294.883 151.802C295.476 153.729 295.007 155.439 293.87 157.501Z" fill="#E3E2E3"/>
<path d="M210.122 217.351L209.152 215.719H212.423C211.774 216.412 210.991 216.968 210.122 217.351Z" fill="#FF8025"/>
<path d="M276.045 159.726C275.801 158.07 275.215 156.41 276.076 154.758L276.483 156.774C275.711 157.667 276.472 158.782 276.045 159.726Z" fill="#CDCCCC"/>
<path d="M221.853 153.849L222.354 152.89C222.85 153.068 223.409 153.153 223.708 153.849H221.853Z" fill="#C66725"/>
<path d="M206.716 198.235L207.577 199.582C207.414 199.787 207.286 200.108 207.08 200.166C206.716 200.274 206.692 199.922 206.692 199.659C206.689 199.187 206.708 198.711 206.716 198.235Z" fill="#EBE3DC"/>
<path d="M713.821 278.654C712.616 267.466 712.068 256.217 712.18 244.966C712.328 235.096 712.762 225.233 715.672 215.681C716.271 213.647 717.1 211.688 718.144 209.842C722.182 202.77 728.495 203.454 733.535 207.737C737.263 210.91 738.625 215.452 739.63 220.033C741.43 228.209 741.527 236.5 741.019 244.796C739.137 275.57 732.138 305.405 724.181 335.057C724.076 335.444 723.998 335.858 723.859 336.241C723.68 336.729 723.568 337.174 724.184 337.402C724.712 337.611 725.189 337.758 725.597 337.108C726.445 335.757 727.738 334.743 729.255 334.241C731.917 333.32 733.911 334.241 734.718 336.949C735.731 340.281 735.191 343.612 734.419 346.889C730.291 364.42 724.39 381.42 718.78 398.506C716.712 404.809 714.485 411.058 712.405 417.353C712.017 418.567 711.432 418.9 710.136 419.094C705.709 419.771 703.393 418.161 701.6 413.909C697.068 403.118 692.223 392.474 689.829 380.948C688.766 375.833 688.075 370.661 689.573 365.472C691.229 359.734 695.998 356.801 701.914 357.974C703.583 358.303 703.854 358.082 703.466 356.349C699.66 339.275 696.607 322.08 696.483 304.503C696.444 297.558 697.142 290.687 699.928 284.194C700.739 282.298 701.643 280.461 703.102 278.948C705.961 275.988 709.08 275.659 712.518 277.961C712.898 278.267 713.197 278.696 713.821 278.654Z" fill="white"/>
<path d="M597.234 70.4388C594.599 69.7308 592.19 69.1001 589.804 68.4424C566.236 61.9732 542.256 57.1063 518.028 53.8753C497.116 51.0318 476.063 49.3282 454.965 48.7719C453.39 48.7333 451.784 48.3464 450.247 48.5437C446.414 49.035 443.438 47.3829 440.354 45.4484C417.903 31.1689 395.411 16.9475 372.877 2.78405C372.59 2.60221 372.314 2.39714 371.903 2.13405C372.648 1.65041 373.4 1.85934 374.087 1.85934C391.277 1.86389 408.453 2.81455 425.537 4.70699C453.382 7.70165 480.778 12.8824 507.513 21.2705C534.843 29.8483 560.666 41.4865 583.775 58.6575C587.91 61.7527 591.883 65.0105 595.755 68.4114C596.295 68.8641 597.009 69.2471 597.234 70.4388Z" fill="white"/>
<path d="M436.448 48.1537C422.846 48.2349 409.29 48.4129 395.753 48.9275C381.542 49.4691 367.338 50.1811 353.149 51.1831C340.466 52.0769 327.779 52.9126 315.096 53.7986C302.347 54.6924 289.606 55.6984 276.853 56.507C265.125 57.2421 253.384 57.8148 241.648 58.3719C234.118 58.733 226.574 58.9419 219.013 58.9987C251.774 41.642 286.754 32.2169 323.69 29.9806C362.62 27.6514 400.258 33.5672 436.448 48.1537Z" fill="white"/>
<path d="M726.814 420.902C724.256 434.274 721.704 447.609 719.159 460.909C718.523 464.217 718.476 464.205 715.089 464.205C710.201 464.205 705.312 464.116 700.427 464.256C698.732 464.306 698.228 463.683 697.944 462.178C695.384 448.462 692.765 434.758 690.134 420.902H726.814Z" fill="white"/>
<path d="M50.3356 86.9642C49.3579 86.9023 48.7217 86.3954 48.6712 85.343C48.6359 85.122 48.649 84.8959 48.7098 84.6804C48.7705 84.4649 48.8774 84.2651 49.0231 84.0948C49.1688 83.9245 49.3498 83.7878 49.5536 83.694C49.7575 83.6002 49.9793 83.5516 50.2037 83.5516C50.4432 83.5184 50.6871 83.5388 50.9178 83.6112C51.1484 83.6836 51.36 83.8063 51.5372 83.9704C51.7143 84.1345 51.8527 84.3359 51.9421 84.5599C52.0316 84.7839 52.0699 85.025 52.0544 85.2656C52.0699 86.2252 51.4336 86.8713 50.3356 86.9642Z" fill="#2F2F2E"/>
<path d="M577.396 381.978C577.361 383.46 576.364 382.992 575.642 382.783C569.276 380.933 563.227 378.38 557.962 374.271C555.382 372.324 553.152 369.954 551.366 367.264C551.103 366.854 550.35 366.37 551.366 365.794C552.123 365.364 552.461 365.624 552.856 366.204C558.408 374.329 566.738 378.136 575.747 380.906C577.392 381.425 577.4 381.405 577.396 381.978Z" fill="#252524"/>
<path d="M534.977 214.304C537.879 214.559 539.733 215.998 541.266 217.944C541.502 218.246 542.042 218.672 541.266 219.07C540.773 219.33 540.303 219.709 539.838 219.07C538.604 217.395 537.033 216.281 534.911 216.068C534.065 215.983 534.216 215.356 534.236 214.838C534.274 214.052 534.829 214.257 534.977 214.304Z" fill="#282827"/>
<path d="M534.922 220.086C534.849 221.252 534.461 222.378 533.801 223.343C533.471 223.815 533.005 224.198 532.431 223.978C531.857 223.757 531.799 223.142 531.838 222.581C531.936 221.427 532.35 220.322 533.033 219.385C533.149 219.177 533.327 219.01 533.542 218.906C533.757 218.802 533.999 218.767 534.235 218.805C534.957 218.948 534.794 219.629 534.922 220.086Z" fill="#292928"/>
<path d="M175.834 184.728C173.506 184.253 171.737 183.448 171.628 181.107C171.516 178.623 173.052 177.052 175.089 175.957C177.126 174.862 179.621 174.87 180.944 176.646C182.771 179.099 184.754 180.941 187.792 181.741C189.056 182.074 189.58 183.448 189.161 184.806C188.665 186.408 187.974 187.901 185.972 188.122C185.056 188.218 184.23 187.92 183.322 187.561C182.822 189.588 182.457 191.759 179.904 192.134C178.007 192.412 176.323 191.851 175.248 190.18C174.08 188.377 174.177 186.574 175.834 184.728Z" fill="white"/>
<path d="M123.049 199.436C125.059 200.551 126.227 201.947 125.56 204.195C125.172 205.553 124.279 206.517 122.77 206.517C120.539 206.517 119.786 204.969 119.379 203.081C116.861 205.53 115.235 206.018 113.761 204.795C112.496 203.746 112.578 202.315 114.064 200.225C112.663 199.653 110.863 199.452 110.747 197.467C110.638 195.594 111.612 194.186 113.074 193.137C114.537 192.089 116.43 192.251 117.505 193.644C118.246 194.608 118.688 194.538 119.565 193.915C120.079 193.563 120.677 193.352 121.299 193.303C121.921 193.254 122.544 193.369 123.108 193.636C126.025 194.859 126.033 197.103 123.049 199.436Z" fill="white"/>
<path d="M176.141 157.384C173.08 155.485 172.343 154.072 173.289 152.254C174.065 150.757 175.485 150.544 177.728 151.592C177.809 151.503 177.949 151.418 177.964 151.318C178.151 149.801 178.279 148.242 180.168 147.789C181.697 147.425 184.281 148.563 185.169 150.033C186.058 151.503 185.914 153.051 184.599 154.308C184.126 154.761 184.211 154.997 184.657 155.411C185.109 155.827 185.475 156.326 185.736 156.881C186.562 158.681 186.058 160.325 184.661 161.524C182.931 163.01 181.674 161.524 180.351 160.398C179.462 162.476 178.294 164.128 175.734 163.617C174.426 163.354 173.456 162.623 173.254 161.215C172.956 159.095 174.248 158.073 176.141 157.384Z" fill="white"/>
<path d="M272.032 150.417C272.057 151.803 271.803 153.18 271.285 154.466C270.766 155.752 269.994 156.92 269.014 157.903C268.033 158.885 266.865 159.661 265.578 160.184C264.291 160.708 262.911 160.967 261.521 160.949C255.57 160.918 250.91 156.329 250.899 150.479C250.878 149.092 251.134 147.714 251.65 146.427C252.167 145.139 252.934 143.966 253.909 142.975C254.883 141.985 256.044 141.197 257.326 140.658C258.607 140.118 259.983 139.837 261.374 139.831C267.442 139.812 272.028 144.358 272.032 150.417Z" fill="#242423"/>
<path d="M270.366 184.289C266.486 184.049 263.382 182.582 261.326 179.325C260.938 178.725 260.321 177.955 261.17 177.359C262.121 176.686 262.424 177.657 262.812 178.261C264.872 181.453 267.82 182.71 271.564 182.319C272.271 182.246 273.396 181.518 273.59 182.799C273.784 184.08 272.453 183.848 271.681 184.072C271.248 184.173 270.808 184.246 270.366 184.289Z" fill="#282827"/>
<path d="M282.731 151.851C284.496 151.851 285.722 152.121 286.824 152.926C287.053 153.078 287.219 153.308 287.29 153.573C287.361 153.838 287.334 154.119 287.212 154.365C286.968 154.969 286.331 154.791 285.994 154.543C284.233 153.255 282.374 153.634 280.512 154.137C279.86 154.311 279.231 154.42 278.983 153.65C278.673 152.686 279.495 152.489 280.147 152.326C281.129 152.079 282.149 151.955 282.731 151.851Z" fill="#2D2D2C"/>
<path d="M270.313 150.375C270.312 152.693 269.4 154.917 267.773 156.572C266.147 158.227 263.934 159.18 261.611 159.228C256.785 159.286 252.61 155.192 252.618 150.406C252.658 148.09 253.591 145.879 255.221 144.229C256.852 142.58 259.057 141.619 261.378 141.546C262.546 141.54 263.704 141.764 264.785 142.205C265.867 142.646 266.85 143.295 267.68 144.115C268.51 144.935 269.17 145.909 269.621 146.984C270.073 148.058 270.308 149.21 270.313 150.375Z" fill="white"/>
<path d="M267.428 152.434C267.339 153.336 266.726 153.448 266.264 153.177C263.905 151.831 261.488 151.266 258.838 152.237C258.741 152.274 258.636 152.289 258.532 152.283C258.427 152.276 258.326 152.246 258.234 152.197C258.142 152.147 258.062 152.079 257.999 151.995C257.935 151.912 257.891 151.817 257.868 151.715C257.83 151.516 257.849 151.31 257.923 151.121C257.997 150.932 258.124 150.767 258.287 150.647C259.952 149.273 265.783 150.016 267.145 151.808C267.264 152.004 267.36 152.215 267.428 152.434Z" fill="#2D2D2C"/>
<path d="M316.934 190.108L321.23 198.812C321.821 200.011 322.965 200.842 324.288 201.034L333.893 202.43C337.225 202.914 338.556 207.009 336.145 209.359L329.194 216.134C328.237 217.067 327.8 218.412 328.026 219.729L329.667 229.296C330.236 232.614 326.753 235.145 323.773 233.578L315.181 229.062C313.998 228.439 312.584 228.439 311.401 229.062L302.81 233.578C299.829 235.145 296.347 232.614 296.916 229.296L298.557 219.729C298.782 218.412 298.346 217.067 297.388 216.134L290.438 209.359C288.027 207.009 289.357 202.914 292.689 202.43L302.294 201.034C303.617 200.842 304.761 200.011 305.353 198.812L309.649 190.108C311.139 187.089 315.444 187.089 316.934 190.108Z" fill="#FF8025"/>
<path d="M325.668 235.047C324.864 235.047 324.055 234.853 323.308 234.46L314.717 229.943C313.824 229.474 312.759 229.474 311.866 229.943L303.275 234.46C301.557 235.363 299.514 235.216 297.944 234.075C296.374 232.934 295.603 231.037 295.931 229.125L297.572 219.558C297.742 218.564 297.413 217.551 296.691 216.847L289.74 210.072C288.35 208.717 287.86 206.729 288.46 204.883C289.059 203.038 290.625 201.718 292.545 201.439L302.151 200.043C303.149 199.898 304.011 199.271 304.457 198.367L308.753 189.663C309.612 187.923 311.351 186.842 313.291 186.842C315.232 186.842 316.971 187.923 317.83 189.663L322.126 198.367C322.572 199.271 323.434 199.898 324.432 200.043L334.037 201.439C335.958 201.718 337.524 203.038 338.123 204.883C338.723 206.729 338.232 208.717 336.843 210.072L329.892 216.847C329.17 217.551 328.841 218.564 329.011 219.558L330.652 229.124C330.98 231.037 330.208 232.934 328.638 234.075C327.751 234.72 326.713 235.047 325.668 235.047ZM313.291 227.593C314.1 227.593 314.909 227.787 315.647 228.174L324.238 232.691C325.293 233.246 326.499 233.159 327.463 232.458C328.428 231.757 328.883 230.637 328.682 229.462L327.041 219.896C326.759 218.253 327.304 216.579 328.497 215.416L335.447 208.64C336.301 207.808 336.591 206.635 336.222 205.501C335.854 204.367 334.93 203.588 333.75 203.416L324.144 202.021C322.496 201.781 321.071 200.746 320.333 199.252L316.038 190.548C315.51 189.479 314.483 188.84 313.291 188.84C312.099 188.84 311.073 189.479 310.545 190.548L306.249 199.252C305.512 200.746 304.087 201.781 302.438 202.021L292.833 203.416C291.653 203.588 290.729 204.367 290.36 205.501C289.992 206.635 290.282 207.808 291.136 208.64L298.086 215.415C299.279 216.578 299.823 218.253 299.542 219.896L297.901 229.462C297.699 230.637 298.155 231.757 299.119 232.458C300.084 233.159 301.289 233.246 302.345 232.691L310.936 228.174C311.673 227.787 312.482 227.593 313.291 227.593Z" fill="#222221"/>
<path d="M311.393 196.159C311.245 196.159 311.094 196.126 310.952 196.056C310.457 195.811 310.254 195.212 310.498 194.717L311.353 192.984C311.597 192.489 312.197 192.286 312.692 192.53C313.187 192.775 313.39 193.374 313.146 193.869L312.29 195.602C312.116 195.954 311.762 196.159 311.393 196.159Z" fill="#222221"/>
<path d="M302.767 205.662C302.278 205.662 301.851 205.304 301.779 204.806C301.7 204.26 302.078 203.753 302.624 203.673C304.953 203.335 306.966 201.873 308.007 199.762L308.968 197.816C309.212 197.321 309.811 197.118 310.306 197.362C310.801 197.606 311.004 198.206 310.76 198.701L309.8 200.647C308.467 203.347 305.892 205.218 302.912 205.651C302.863 205.658 302.815 205.662 302.767 205.662Z" fill="#222221"/>
</svg>
