<svg width="647" height="481" viewBox="0 0 647 481" fill="none" xmlns="http://www.w3.org/2000/svg">
<path d="M548.513 247.508C550.036 248.343 551.616 249.099 553.079 250.029C561.09 255.118 569.288 259.842 578.596 262.156C581.778 262.951 585.044 263.269 588.29 263.678C590.537 263.961 592.816 264.02 595.083 264.179C597.176 265.523 599.149 265.499 600.958 263.659C609.272 264.16 617.732 263.778 625.672 266.883C636.212 271.002 642.776 278.847 645.274 289.733C647.262 298.404 645.23 306.777 641.893 314.896C636.996 326.824 629.522 337.141 622.179 347.566C615.668 356.806 609.304 366.154 602.689 375.326C595.008 385.993 587.574 396.891 579.244 407.026C569.014 419.459 557.232 430.408 543.135 438.515C528.911 446.694 513.792 452.757 497.766 456.276C489.413 458.113 480.889 459.274 472.392 460.375C466.962 461.121 461.482 461.449 456 461.357C440.244 461.023 424.596 458.658 409.446 454.32C392.131 449.302 375.437 442.65 359.009 435.291C358.408 435.02 357.959 434.404 357.418 433.955C357.777 433.756 358.146 433.577 358.524 433.418C372.324 428.516 385.334 421.623 397.139 412.958C418.949 397.054 436.12 377 449.807 353.84C450.324 352.966 450.865 352.103 451.669 350.779C458.479 377.588 465.117 403.73 471.955 430.567C486.346 394.458 500.423 359.14 514.655 323.44L466.891 317.23C467.44 315.58 467.977 314.248 468.323 312.857C470.917 302.463 473.489 292.065 476.04 281.661C479.091 280.429 482.162 279.232 485.189 277.944C487.424 276.998 488.303 275.081 487.575 273.05C486.891 271.137 484.739 270.235 482.508 271.062C480.682 271.726 478.928 272.541 477.118 273.288C477.096 272.867 477.096 272.445 477.118 272.024C478.419 259.973 478.578 247.91 477.042 235.879C476.247 229.517 474.986 223.243 473.936 216.934C488.255 217.009 502.261 218.993 515.132 225.49C522.555 229.235 529.428 234.082 536.461 238.571C539.146 240.28 541.584 242.371 544.134 244.292C538.074 243.897 532.016 243.499 525.96 243.099C523.175 242.912 521.393 244.133 521.186 246.431C520.984 248.816 522.471 250.288 525.26 250.486L543.684 251.806C546.974 252.045 548.235 250.916 548.513 247.508ZM535.605 281.204C537.197 280.668 538.072 280.409 538.927 280.063C544.082 277.964 549.232 275.843 554.376 273.702C558.051 272.179 559.209 270.426 558.203 268.016C557.252 265.734 555.092 265.336 551.441 266.823C545.983 269.074 540.532 271.34 535.088 273.622C533.235 274.397 532.073 275.9 532.769 277.785C533.279 279.177 534.714 280.175 535.605 281.204ZM490.065 230.209C486.29 230.245 484.675 233.294 486.274 236.105C489.457 241.672 492.685 247.206 495.96 252.709C497.285 254.935 499.417 255.516 501.326 254.351C503.1 253.265 503.601 251.142 502.388 249.015C499.162 243.377 495.924 237.751 492.535 232.213C491.915 231.191 490.578 230.611 490.065 230.209Z" fill="url(#paint0_linear_984_2656)"/>
<path d="M133.955 51.3341C165.951 33.2031 213.566 2.99902 213.566 2.99902L251.95 133.788L4.58789 130.945C4.58789 130.945 91.3068 75.5017 133.955 51.3341Z" fill="#EB670A"/>
<path d="M476.039 281.67C473.47 292.071 470.897 302.469 468.323 312.865C467.977 314.244 467.44 315.576 466.891 317.238L514.654 323.429C500.422 359.129 486.345 394.447 471.954 430.556C465.137 403.719 458.498 377.577 451.668 350.767C450.873 352.091 450.324 352.954 449.807 353.829C436.127 376.988 418.948 397.031 397.138 412.947C385.333 421.611 372.324 428.504 358.523 433.407C358.145 433.565 357.776 433.745 357.417 433.943C348.957 435.868 340.56 438.166 332.02 439.633C317.832 442.101 303.391 442.783 289.033 441.665C279.686 440.925 270.386 439.645 261.062 438.627C260.371 438.591 259.678 438.591 258.986 438.627C257.793 452.654 256.599 466.637 255.406 480.863L212.392 462.574C213.493 462.085 214.181 461.751 214.886 461.469C227.773 456.26 240.645 451.012 253.576 445.911C255.486 445.159 256.476 444.321 256.309 442.186C256.21 440.873 256.556 439.526 256.655 438.639L220.144 427.988L212.849 425.117C198.609 419.097 184.787 412.231 172.408 402.911C164.811 397.19 157.766 390.733 150.471 384.622L145.256 379.112C137.854 370.396 131.108 361.22 125.766 351.073C117.784 335.879 112.66 319.349 110.651 302.305C109.457 292.464 108.877 282.612 109.652 272.708C109.724 271.79 109.652 270.863 109.652 269.639L43.1656 286.532L42.9151 286.186L110.118 220.93L116.303 230.547C126.076 195.21 142.325 163.637 165.117 134.799L0.131264 132.267L0 131.766L214.396 0L240.386 88.8299C251.152 86.0762 262.17 84.4244 273.27 83.8998C308.778 82.2339 342.505 89.5178 374.47 104.841C382.823 108.845 390.69 113.846 398.825 118.315C399.9 118.924 401.106 119.266 402.341 119.313C415.308 119.385 428.275 119.357 441.501 119.794L420.022 134.06C438.836 150.321 454.206 169.076 465.069 192.025L483.366 172.459C493.676 184.785 503.37 196.355 513.067 207.932L512.805 208.394L471.33 188.912C471.132 189.022 470.942 189.145 470.761 189.281C466.071 193.683 466.179 193.655 468.295 199.651C470.311 205.364 472.074 211.181 473.947 216.93C474.997 223.24 476.242 229.53 477.054 235.875C478.589 247.906 478.43 259.969 477.129 272.02C477.107 272.441 477.107 272.863 477.129 273.285C476.755 276.078 476.392 278.873 476.039 281.67ZM503.704 201.468L504.313 201.551L504.086 201.03L483.728 176.419L473.677 187.484C483.517 192.061 493.609 196.768 503.704 201.468ZM394.998 150.683L385.85 156.751C381.741 159.414 377.608 162.038 373.563 164.794C373.077 165.124 372.723 166.245 372.886 166.845C374.521 172.944 376.275 179.016 377.994 185.091C378.71 187.582 379.424 190.075 380.138 192.57L382.182 200.589L380.13 201.253C378.785 196.45 377.52 191.91 376.244 187.369C373.327 177.061 370.419 166.753 367.521 156.444L365.206 148.254L357.294 119.365H395.595C354.454 91.8317 292.522 77.4707 241.023 91.0922C245.531 106.614 250.039 122.134 254.547 137.65C257.565 148.014 260.597 158.375 263.644 168.734C264.042 170.122 264.28 171.31 262.073 171.119C261.965 170.837 261.834 170.543 261.742 170.233C258.592 159.557 255.41 148.886 252.375 138.175C251.922 136.585 251.281 136.064 249.638 136.056C243.712 136.024 237.789 135.785 231.862 135.698C211.536 135.404 191.214 135.161 170.889 134.831C169.023 134.799 167.774 135.312 166.577 136.819C143.925 165.088 127.882 196.703 118.447 231.665C118.232 232.78 118.425 233.936 118.992 234.921C120.981 238.344 123.164 241.68 125.312 245.004C134.409 259.126 143.518 273.233 152.738 287.546L150.952 288.739C145.738 280.787 140.611 273.018 135.599 265.194C134.68 263.762 133.797 263.325 132.126 263.782C126.51 265.325 120.893 266.907 115.197 268.1C112.612 268.645 111.832 269.742 111.772 272.247C111.534 282.922 111.665 293.554 113.161 304.162C118.073 338.975 134.091 367.705 160.507 390.701C183.355 410.617 209.969 423.411 239.026 431.403C244.853 432.993 250.768 434.281 256.925 435.776C258.186 421.065 259.408 406.78 260.629 392.55C262.956 392.033 262.852 393.282 262.733 394.669C262.371 398.959 262.057 403.257 261.727 407.551L260.569 420.183L260.505 420.409C260.505 420.692 260.466 420.974 260.442 421.256C260.012 426.115 259.587 430.973 259.145 435.967C260.772 436.253 262.16 436.583 263.568 436.735C271.965 437.637 280.362 438.5 288.759 439.379L299.447 439.649C300.285 439.741 301.129 439.782 301.973 439.772C311.917 439.033 321.909 438.619 331.805 437.414C343.901 435.976 355.706 432.695 366.809 427.685L375.082 423.753L392.584 413.265L398.737 408.867C399.223 408.533 399.728 408.223 400.193 407.857C419.807 392.51 435.419 373.74 448.148 352.409C450.399 348.632 451.123 345.253 449.234 341.364C448.465 338.34 447.696 335.316 446.927 332.291C445.733 327.464 444.644 322.622 443.347 317.831C443.152 317.123 442.09 316.24 441.334 316.149C424.084 313.84 406.825 311.6 389.557 309.43C387.608 309.183 387.652 308.348 388.288 306.988L445.443 314.372L448.009 314.622L464.456 316.944C464.711 316.411 464.886 316.121 464.993 315.811C470.629 299.889 474.163 283.301 475.506 266.466C476.311 256.267 476.123 246.014 474.945 235.851C473.856 226.46 472.129 217.188 468.903 208.255C467.436 204.064 465.972 199.873 464.56 195.838L459.719 200.116L451.207 208.251L449.91 206.68L463.044 193.098L462.519 192.009C452.13 170.459 437.512 152.202 419.365 136.7C418.777 136.199 417.404 135.805 416.903 136.131C409.561 140.899 402.289 145.809 394.998 150.683ZM8.13035 129.504L8.26559 130.068L250.943 133.817C238.191 90.2096 225.577 47.043 212.885 3.65387L8.13035 129.504ZM511.409 325.381L445.543 317.187L472.193 422.31L472.786 422.262C485.633 390.041 498.508 357.748 511.409 325.381ZM109.243 225.017L50.8744 281.721L51.1091 282.143L132.87 261.325C124.943 249.159 117.206 237.259 109.243 225.017ZM372.139 162.945L434.095 121.929H360.452C364.354 135.607 368.193 149.093 372.139 162.945ZM218.35 462.546L253.238 477.376C254.097 467.337 254.929 457.6 255.796 447.485L218.35 462.546Z" fill="#33302D"/>
<path d="M548.516 247.502C548.238 250.909 546.981 252.039 543.715 251.804L525.291 250.484C522.506 250.285 521.015 248.802 521.218 246.429C521.412 244.131 523.206 242.91 525.991 243.097C532.05 243.502 538.108 243.9 544.165 244.29C546.293 244.425 547.9 245.292 548.516 247.502Z" fill="#EB670A"/>
<path d="M600.959 263.655C599.149 265.496 597.176 265.52 595.084 264.176L585.442 247.568C585.079 247 584.751 246.411 584.46 245.803C583.62 243.815 584.094 242.102 585.923 240.984C587.817 239.831 589.714 240.308 590.796 242.09C594.34 247.918 597.773 253.819 601.035 259.81C601.568 260.796 601.011 262.363 600.959 263.655Z" fill="#EB670A"/>
<path d="M571.534 233.989C571.534 237.118 571.566 240.251 571.534 243.384C571.498 246.052 570.118 247.642 567.89 247.702C565.571 247.761 564.091 246.111 564.068 243.308C564.012 237.046 563.976 230.78 563.992 224.518C563.992 221.878 565.452 220.355 567.755 220.375C570.058 220.395 571.359 221.862 571.387 224.598C571.422 227.727 571.387 230.86 571.387 233.989H571.534Z" fill="#EB670A"/>
<path d="M539.991 228.6C536.526 228.699 534.478 225.765 536.013 223.356C539.7 217.487 543.606 211.754 547.548 206.053C548.714 204.367 550.587 204.196 552.322 205.257C554.179 206.403 554.732 208.315 553.59 210.096C549.851 215.929 545.945 221.662 542.004 227.36C541.463 228.083 540.341 228.385 539.991 228.6Z" fill="#EB670A"/>
<path d="M105.757 363.391C106.346 363.919 107.849 364.671 108.374 365.856C111.043 371.851 113.49 377.95 115.932 384.041C116.779 386.157 115.972 388.137 114.154 388.944C112.165 389.834 110.109 389.091 109.166 386.884C106.584 380.845 104.043 374.782 101.608 368.679C100.566 365.999 102.269 363.462 105.757 363.391Z" fill="#EB670A"/>
<path d="M49.539 351.852C48.823 353.12 48.465 354.206 47.749 354.945C43.3365 359.515 38.8762 364.034 34.3682 368.503C32.4072 370.451 30.1041 370.523 28.5568 368.861C27.0095 367.199 27.2004 365.167 29.0819 363.263C33.4573 358.794 37.9083 354.369 42.2996 349.904C43.6361 348.544 45.263 347.976 46.8859 348.89C47.94 349.463 48.6003 350.751 49.539 351.852Z" fill="#EB670A"/>
<path d="M131.153 403.867C130.413 405.362 130.063 406.312 129.518 407.131C126.158 412.207 122.77 417.266 119.355 422.307C117.847 424.541 115.604 425.146 113.742 423.897C111.96 422.705 111.674 420.51 113.134 418.303C116.638 413.015 120.186 407.755 123.718 402.487C124.764 400.921 126.28 399.935 128.018 400.801C129.263 401.414 130.114 402.813 131.153 403.867Z" fill="#EB670A"/>
<path d="M583.883 147.604C583.21 149.075 582.932 149.966 582.439 150.713C579.037 155.866 575.606 160.999 572.149 166.112C570.633 168.35 568.358 168.947 566.524 167.702C564.69 166.458 564.452 164.319 565.916 162.108C569.413 156.807 572.936 151.532 576.484 146.284C577.514 144.753 579.046 143.724 580.796 144.598C582.037 145.215 582.892 146.582 583.883 147.604Z" fill="#EB670A"/>
<path d="M79.8913 357.72C79.1753 357.028 77.7792 356.213 77.2502 355.017C76.5183 353.363 77.0473 351.482 78.8412 350.699C85.2055 347.961 91.6069 345.317 98.0454 342.767C99.9388 342.023 101.601 342.874 102.449 344.755C103.296 346.635 102.823 348.572 101.025 349.363C94.5291 352.21 87.9183 354.798 81.3471 357.474C80.8673 357.585 80.3811 357.667 79.8913 357.72Z" fill="#EB670A"/>
<path d="M91.6314 400.638C91.1461 400.24 89.8454 399.632 89.2209 398.61C85.828 393.044 82.5703 387.41 79.3404 381.752C78.1471 379.649 78.7279 377.542 80.6014 376.496C82.4112 375.482 84.4637 375.952 85.645 377.932C89.034 383.589 92.3752 389.279 95.5892 395.028C97.1046 397.692 95.3545 400.638 91.6314 400.638Z" fill="#EB670A"/>
<path d="M562.746 191.621C563.502 190.866 564.365 189.315 565.53 189.049C566.696 188.783 568.892 189.315 569.472 190.242C573.179 196.094 576.632 202.11 580.009 208.169C580.972 209.895 580.375 211.688 578.605 212.789C576.835 213.891 574.886 213.608 573.86 211.946C570.184 205.983 566.74 199.86 563.239 193.78C562.997 193.359 563.005 192.806 562.746 191.621Z" fill="#EB670A"/>
<path d="M550.24 174.379C550.24 177.508 550.264 180.637 550.24 183.766C550.24 186.199 548.8 187.806 546.712 187.861C544.623 187.917 543.104 186.382 543.056 183.925C542.939 177.503 542.876 171.08 542.865 164.658C542.865 161.966 544.281 160.483 546.584 160.503C548.887 160.523 550.208 162.093 550.24 164.741C550.272 167.954 550.24 171.167 550.24 174.379Z" fill="#EB670A"/>
<path d="M590.88 168.148C596.536 168.514 602.192 168.84 607.841 169.254C610.649 169.46 612.081 171.035 611.87 173.424C611.675 175.627 610.056 176.856 607.296 176.677C600.966 176.269 594.641 175.814 588.322 175.313C585.912 175.126 584.44 173.504 584.595 171.385C584.746 169.333 586.254 168.069 588.601 168.041C589.36 168.041 590.124 168.041 590.884 168.041C590.884 168.077 590.883 168.113 590.88 168.148Z" fill="#EB670A"/>
<path d="M66.0294 361.555C66.0294 364.763 66.0692 367.976 66.0294 371.185C65.9897 373.729 64.6492 375.113 62.3899 375.101C60.2021 375.101 58.7821 373.622 58.7662 371.125C58.7238 364.62 58.7238 358.116 58.7662 351.611C58.7662 349.261 60.1305 347.854 62.2467 347.802C64.4503 347.75 65.8942 349.178 65.9459 351.667C66.0135 354.959 65.9459 358.251 65.9459 361.547L66.0294 361.555Z" fill="#EB670A"/>
<path d="M145.261 379.098L150.476 384.608C147.524 389.014 144.573 393.419 141.622 397.824C139.836 400.48 137.731 401.164 135.743 399.772C133.754 398.381 133.678 396.286 135.377 393.761C138.667 388.87 141.962 383.983 145.261 379.098Z" fill="#EB670A"/>
<path d="M212.85 425.122L220.153 427.961C216.621 431.587 213.124 435.249 209.544 438.827C207.766 440.604 205.404 440.636 203.928 439.093C202.38 437.471 202.492 435.42 204.385 433.495C207.174 430.664 210.03 427.909 212.85 425.122Z" fill="#EB670A"/>
<path d="M535.606 281.2C534.715 280.182 533.279 279.173 532.782 277.817C532.086 275.932 533.248 274.429 535.101 273.654C540.545 271.375 545.996 269.108 551.453 266.855C555.093 265.352 557.253 265.75 558.215 268.048C559.222 270.457 558.064 272.211 554.389 273.734C549.247 275.87 544.097 277.99 538.94 280.095C538.073 280.409 537.182 280.664 535.606 281.2Z" fill="#EB670A"/>
<path d="M490.063 230.206C490.576 230.604 491.912 231.188 492.533 232.194C495.922 237.732 499.16 243.358 502.386 248.996C503.579 251.123 503.098 253.246 501.324 254.332C499.414 255.497 497.282 254.916 495.958 252.69C492.683 247.184 489.454 241.65 486.272 236.086C484.673 233.291 486.288 230.242 490.063 230.206Z" fill="#EB670A"/>
<path d="M476.041 281.673C476.399 278.879 476.758 276.083 477.119 273.284C478.913 272.536 480.699 271.721 482.509 271.057C484.74 270.262 486.884 271.149 487.576 273.045C488.304 275.077 487.425 276.993 485.19 277.939C482.163 279.244 479.092 280.44 476.041 281.673Z" fill="#EB670A"/>
<path d="M288.742 439.4C280.345 438.521 271.949 437.659 263.552 436.756C262.144 436.605 260.767 436.275 259.129 435.989C259.57 430.987 259.996 426.129 260.425 421.278L260.489 420.431L260.552 420.204C262.637 420.443 264.606 420.419 265.954 418.379C270.33 411.768 274.793 405.195 279.132 398.556C280.325 396.711 279.665 393.784 278.01 392.592C276.268 391.311 274.061 391.566 272.283 393.311C271.751 393.851 271.275 394.442 270.863 395.077C268.476 398.575 266.189 402.11 263.786 405.577C263.249 406.372 262.41 406.921 261.71 407.585C262.04 403.291 262.354 398.993 262.716 394.703C262.836 393.315 262.939 392.067 260.612 392.584C259.391 406.814 258.17 421.083 256.909 435.81C250.771 434.319 244.857 433.027 239.009 431.436C209.972 423.445 183.322 410.65 160.49 390.735C134.095 367.706 118.076 338.976 113.164 304.167C111.668 293.56 111.537 282.928 111.776 272.253C111.835 269.748 112.615 268.651 115.201 268.106C120.897 266.913 126.513 265.323 132.13 263.788C133.8 263.331 134.683 263.788 135.602 265.199C140.618 273.024 145.741 280.773 150.956 288.745L152.742 287.552C143.522 273.239 134.413 259.136 125.316 245.01C123.168 241.674 120.992 238.35 118.995 234.927C118.428 233.942 118.235 232.786 118.45 231.671C127.936 196.735 143.979 165.114 166.58 136.805C167.773 135.31 169.026 134.797 170.892 134.817C191.218 135.147 211.54 135.39 231.866 135.684C237.792 135.771 243.715 136.01 249.642 136.042C251.285 136.042 251.925 136.567 252.378 138.161C255.413 148.888 258.596 159.559 261.738 170.239C261.829 170.549 261.961 170.843 262.068 171.125C264.276 171.312 264.057 170.123 263.639 168.74C260.595 158.381 257.563 148.02 254.542 137.656C250.034 122.142 245.526 106.623 241.018 91.0981C292.517 77.4766 354.453 91.8376 395.598 119.371H357.297L365.209 148.26C363.292 149.274 362.751 151.075 363.192 152.916C363.693 155.003 365.233 156.311 367.524 156.45C370.441 166.761 373.349 177.069 376.247 187.375C377.524 191.915 378.789 196.456 380.133 201.259L382.186 200.595L380.141 192.575C381.06 192.472 382.058 192.575 382.886 192.233C390.403 189.216 397.917 186.186 405.371 183.017C407.714 182.019 408.367 179.789 407.392 177.515C406.418 175.24 404.007 174.071 401.768 175.006C393.812 178.314 385.917 181.725 377.997 185.097C376.279 179.021 374.525 172.95 372.89 166.851C372.727 166.251 373.081 165.13 373.566 164.8C377.611 162.044 381.744 159.42 385.853 156.756C387.742 158.291 392.166 158.498 394.047 157.154C396.036 155.715 396.318 153.874 394.994 150.701C402.285 145.827 409.556 140.916 416.915 136.141C417.416 135.815 418.788 136.209 419.377 136.71C437.523 152.216 452.141 170.469 462.53 192.019L463.048 193.1L449.854 206.718L451.15 208.288L459.663 200.153C459.738 200.515 459.969 200.929 459.869 201.231C458.525 205.294 460.267 207.708 464.607 207.807C466.023 207.839 467.435 208.125 468.847 208.292C472.073 217.226 473.799 226.498 474.889 235.889C476.067 246.052 476.255 256.305 475.45 266.504C474.107 283.339 470.573 299.927 464.937 315.849C464.83 316.159 464.655 316.449 464.4 316.982L447.952 314.66C447.967 314.408 448.028 314.162 448.131 313.932C453.302 306.696 458.577 299.512 463.668 292.212C465.156 290.085 464.376 287.091 462.475 285.958C460.009 284.495 457.896 284.976 456.186 287.512C451.858 293.943 447.556 300.39 443.279 306.855C441.831 309.038 442.085 310.938 443.927 312.775C444.444 313.296 444.913 313.865 445.403 314.409L388.267 307.01C387.631 308.37 387.587 309.205 389.536 309.451C406.802 311.63 424.061 313.87 441.314 316.171C442.069 316.27 443.131 317.145 443.326 317.852C444.635 322.643 445.745 327.486 446.906 332.313C441.103 331.975 435.299 331.573 429.492 331.335C426.942 331.231 425.343 332.846 425.117 335.311C424.938 337.33 426.851 339.708 429.062 339.891C435.773 340.448 442.491 340.889 449.205 341.378C451.095 345.286 450.371 348.646 448.119 352.423C435.391 373.754 419.779 392.524 400.165 407.871C399.699 408.237 399.194 408.547 398.709 408.881C395.527 401.001 392.48 393.077 389.162 385.268C388.073 382.716 385.042 382.242 382.683 383.769C380.738 385.026 380.348 387.145 381.569 390.111C384.429 397.037 387.261 403.971 390.228 410.849C390.626 411.815 391.772 412.475 392.571 413.278L375.07 423.767C373.009 420.382 370.95 417 368.892 413.62C367.301 411.032 365.901 408.324 364.119 405.895C362.619 403.863 360.384 403.629 358.518 404.802C356.573 406.026 355.921 408.348 356.967 410.591C357.429 411.581 358.001 412.523 358.558 413.473C361.308 418.215 364.059 422.957 366.812 427.699C355.709 432.709 343.905 435.99 331.808 437.428C321.92 438.621 311.92 439.046 301.976 439.786C301.132 439.796 300.289 439.755 299.45 439.663C299.768 438.805 300.153 437.972 300.6 437.174C302.083 434.919 303.643 432.717 305.186 430.502C306.586 428.514 306.379 425.695 304.701 424.264C303.022 422.833 299.88 422.757 298.678 424.463C295.218 429.353 292.032 434.41 288.742 439.4ZM439.341 237.296C439.595 235.404 438.605 234.004 436.978 233.666C435.59 233.38 433.947 233.766 432.555 234.251C431.604 234.581 430.892 235.595 430.073 236.306C427.34 234.855 425.976 232.692 426.449 229.826C426.755 227.985 425.817 228.001 424.146 227.746C424.237 229.575 423.955 231.269 424.48 232.649C425.232 234.637 426.576 236.37 427.662 238.215C427.169 238.97 426.787 239.833 426.167 240.465C422.67 244.044 419.102 247.534 415.59 251.089C413.434 253.272 413.303 255.633 415.152 257.57C416.763 259.255 419.759 259.104 421.68 257.172C426.782 252.093 431.869 247 436.942 241.893C437.507 241.32 437.869 240.541 438.322 239.861C440.709 240.203 443.215 240.179 445.423 240.982C448.207 242 448.899 244.604 447.905 247.399C447.678 248.031 448.095 248.894 448.215 249.65L448.975 249.582L450.311 247.825C450.554 248.664 450.983 249.499 451.003 250.345C451.087 253.637 450.967 256.937 451.063 260.23C451.138 262.862 453.338 265.152 455.589 265.172C457.682 265.191 460.108 262.941 460.14 260.528C460.239 252.755 460.327 244.974 460.1 237.205C459.985 233.321 456.826 231.325 453.736 232.712C451.842 233.555 451.095 235.098 451.011 237.161C450.932 239.102 450.538 241.026 450.279 242.954C448.736 239.519 445.868 238.1 442.324 237.718C441.31 237.63 440.327 237.444 439.341 237.296ZM201.778 225.003C202.23 224.225 202.743 223.484 203.314 222.788C205.179 220.836 207.347 219.119 208.942 216.976C209.817 215.783 210.426 213.707 209.98 212.443C209.535 211.179 207.669 209.66 206.349 209.58C204.861 209.489 202.956 210.546 201.798 211.684C196.448 216.94 191.285 222.391 186.075 227.79C184.05 229.881 183.994 231.849 185.836 233.786C187.678 235.722 190.076 235.75 192.133 233.925C193.203 232.979 194.261 232.024 195.315 231.07C196.429 231.154 197.304 231.221 197.896 229.77C198.294 228.808 199.694 228.072 200.804 227.635C203.7 226.494 206.202 227.961 208.759 229.138C211.221 230.287 213.735 231.321 216.229 232.402L216.973 231.392C216.404 230.8 215.939 230.024 215.255 229.655C213.64 228.748 211.948 227.984 210.199 227.373C207.423 226.466 204.587 225.782 201.778 225.003ZM379.799 402.631L379.871 402.528L379.743 402.587C379.429 402.074 379.21 401.462 378.793 401.056C368.859 391.514 358.906 381.984 348.932 372.466C347.516 371.122 347.146 370.104 348.061 368.184C351.53 360.888 354.712 353.473 358.105 346.125C358.924 344.356 358.335 343.93 356.693 343.843C356.371 344.555 356.1 345.167 355.818 345.771C350.968 356.3 346.116 366.826 341.263 377.352C341.231 376.68 341.192 376.004 341.16 375.328C341.033 372.462 339.008 370.382 336.43 370.47C333.853 370.557 332.52 372.243 332.516 375.344C332.516 383.031 332.516 390.718 332.516 398.404C332.516 401.47 334.024 402.957 336.983 402.981C339.656 402.981 341.116 401.438 341.148 398.44C341.18 395.228 341.148 392.015 341.148 388.803C341.546 388.91 341.944 388.99 342.341 389.129L379.799 402.631ZM186.576 295.73C181.115 297.909 175.661 300.104 170.192 302.267C167.01 303.519 165.816 305.801 167.01 308.521C168.028 310.907 170.462 311.559 173.473 310.402C177.539 308.839 181.64 307.36 185.725 305.845L182.36 344.014L184.484 344.129C185.048 338.404 185.593 332.869 186.134 327.383L264.892 311.173C264.892 311.01 264.892 310.847 264.892 310.688L188.219 281.532C187.642 286.534 187.109 291.13 186.576 295.73ZM315.226 192.961C315.731 193.705 316.053 194.412 316.578 194.913C318.101 196.368 319.645 197.824 321.295 199.132C331.24 206.992 331.112 219.687 320.953 227.257C320.074 227.913 319.183 228.561 318.253 229.146C312.819 232.565 307.258 235.798 301.972 239.428C298.738 241.65 295.449 244.091 293.014 247.105C289.037 252.019 290.93 258.083 296.725 260.663C298.207 261.266 299.726 261.775 301.272 262.186C303.933 262.981 306.689 263.545 309.263 264.571C314.669 266.714 316.18 270.933 313.344 275.974C312.291 277.798 310.97 279.455 309.426 280.888C307.397 282.789 305.051 284.355 302.895 286.117C300.349 288.196 297.966 290.423 297.012 293.997C297.879 294.025 298.758 293.917 299.251 293.424C301.093 291.592 302.696 289.508 304.593 287.739C307.433 285.091 310.798 282.936 313.312 280.03C319.875 272.444 317.505 264.69 307.998 261.673C307.274 261.446 306.522 261.303 305.794 261.084C303.05 260.261 300.202 259.673 297.589 258.54C292.927 256.516 291.69 252.087 294.975 248.202C297.231 245.554 300.146 243.352 303.042 241.388C309.339 237.141 315.965 233.372 322.178 229.007C324.876 227.123 327.146 224.693 328.841 221.874C333.28 214.24 330.675 203.982 323.221 197.76C321.089 195.983 319.032 194.118 316.745 192.118L315.226 192.961ZM364.047 198.066H364.262C364.039 193.776 363.952 189.478 363.542 185.208C363.276 182.425 361.263 180.719 359.016 180.858C356.768 180.997 354.907 183.244 354.903 186.067C354.887 193.422 354.887 200.778 354.903 208.133C354.903 211.815 356.363 213.413 359.557 213.385C362.584 213.361 364.012 211.747 364.039 208.217C364.067 204.829 364.047 201.45 364.047 198.066ZM350.523 159.985C354.282 160.025 356.092 158.343 355.857 155.611C355.679 154.204 355.209 152.85 354.477 151.635C350.941 145.413 347.317 139.246 343.698 133.072C342.29 130.686 339.756 129.939 337.397 131.187C335.313 132.289 334.577 134.881 335.925 137.266C339.736 144.025 343.586 150.733 347.592 157.361C348.359 158.629 349.903 159.448 350.515 159.985H350.523ZM418.072 191.482C419.265 190.687 420.801 190.166 421.553 189.096C426.063 182.596 430.423 175.976 434.766 169.372C435.872 167.686 435.427 164.887 434.086 163.782C432.026 162.08 429.806 162.064 427.992 164.06C426.588 165.603 425.475 167.42 424.305 169.161C420.928 174.195 417.46 179.177 414.273 184.325C412.133 187.784 413.931 191.017 418.064 191.482H418.072ZM394.58 208.042C394.71 208.627 394.877 209.203 395.081 209.767C396.107 212.356 397.15 214.936 398.232 217.5C400.193 222.168 402.086 226.868 404.198 231.464C405.328 233.917 407.424 234.601 409.639 233.69C411.855 232.78 412.822 230.549 412.098 228.041C411.978 227.643 411.871 227.245 411.7 226.848C408.783 219.829 405.866 212.817 402.949 205.811C402.066 203.704 400.01 202.698 397.722 203.29C395.582 203.835 394.528 205.326 394.572 208.042H394.58ZM183.135 205.823C182.95 204.927 182.708 204.044 182.411 203.179C179.635 196.383 176.833 189.599 174.006 182.826C172.769 179.856 170.629 178.795 168.04 179.793C165.534 180.763 164.627 183.18 165.773 186.071C166.89 188.894 168.088 191.685 169.257 194.488C171.075 198.861 172.837 203.235 174.746 207.553C175.705 209.704 177.57 210.817 179.917 210.185C181.99 209.636 183.326 208.264 183.135 205.823ZM314.506 332.834C314.111 332.846 313.72 332.914 313.344 333.036C305.85 336.09 298.328 339.088 290.894 342.296C289.866 342.735 289.053 343.564 288.633 344.6C288.213 345.636 288.221 346.796 288.655 347.827C289.717 350.089 292.103 351.234 294.323 350.344C301.676 347.393 309.012 344.394 316.331 341.346C318.443 340.463 319.756 337.859 319.199 335.923C318.587 333.784 317.087 332.746 314.506 332.834ZM295.079 372.239C293.539 373.237 292.143 373.806 291.236 374.811C289.784 376.422 290.441 378.27 291.391 379.94C295.157 386.421 298.933 392.898 302.72 399.371C304.092 401.72 306.817 402.774 308.937 401.756C311.156 400.675 311.98 397.78 310.496 395.156C306.656 388.413 302.726 381.728 298.706 375.102C298.022 373.98 296.534 373.352 295.079 372.239ZM304.502 122.035C304.597 118.202 301.017 115.94 297.947 117.065C297 117.411 296.105 117.908 295.162 118.293C288.778 120.937 282.37 123.522 276.018 126.245C275.046 126.674 274.273 127.454 273.851 128.428C273.429 129.402 273.391 130.5 273.742 131.501C274.598 133.744 277.143 135.263 279.244 134.416C286.821 131.35 294.359 128.217 301.845 124.893C303.121 124.317 303.917 122.687 304.502 122.035ZM380.849 289.186C380.169 292.442 383.944 294.442 386.358 293.468C386.903 293.249 387.48 293.098 388.025 292.876C394.874 290.05 401.723 287.218 408.569 284.379C409.125 284.172 409.634 283.856 410.066 283.449C410.498 283.043 410.844 282.554 411.084 282.011C411.324 281.469 411.454 280.884 411.464 280.291C411.475 279.698 411.367 279.109 411.147 278.558C410.949 278.018 410.644 277.523 410.249 277.103C409.854 276.684 409.378 276.35 408.849 276.12C408.321 275.891 407.752 275.771 407.176 275.769C406.6 275.766 406.029 275.881 405.499 276.105C398.076 279.099 390.71 282.22 383.339 285.337C381.672 286.045 380.519 287.222 380.849 289.186ZM394.437 258.906C397.261 259.164 399.27 257.55 399.608 254.965C399.878 252.83 398.172 250.779 395.515 250.485C391.422 250.027 387.305 249.785 383.184 249.463C379.664 249.188 376.124 249.065 372.619 248.62C369.974 248.29 367.54 249.526 367.13 251.801C366.561 255.021 368.089 257.327 371.239 257.542C378.968 258.083 386.704 258.464 394.437 258.906ZM144.293 225.063H142.77C139.321 225.063 137.726 226.391 137.674 229.265C137.623 232.299 139.218 233.567 142.79 233.738C146.362 233.909 149.981 234.406 153.585 234.633C157.789 234.903 161.998 235.126 166.21 235.193C168.641 235.229 170.116 233.603 170.228 231.217C170.319 229.229 168.553 226.772 166.695 226.629C159.233 226.053 151.763 225.575 144.293 225.063ZM387.022 316.047C383.606 316.027 381.744 319.133 383.339 322.48C384.465 324.834 385.897 327.045 387.221 329.303C389.954 333.959 392.73 338.595 395.443 343.263C396.688 345.402 398.764 345.378 400.586 344.873C402.408 344.368 403.657 342.857 403.184 340.79C402.807 339.078 402.188 337.428 401.346 335.891C398.06 330.086 394.584 324.389 391.302 318.596C390.308 316.851 389.011 315.956 387.022 316.047ZM307.004 145.942L307.533 146.427C307.592 147.099 307.493 147.834 307.736 148.415C310.667 155.572 313.551 162.768 316.709 169.837C317.258 171.062 318.909 172.37 320.217 172.576C324.227 173.213 326.144 169.933 324.438 165.734C321.809 159.265 319.175 152.796 316.482 146.347C316.02 145.361 315.452 144.428 314.788 143.564C313.547 141.807 311.558 141.704 310.015 142.459C308.758 143.095 307.994 144.745 307.004 145.942ZM292.338 95.5789C292.402 93.2133 291.296 91.603 288.929 91.3923C280.809 90.6316 272.686 89.957 264.558 89.3686C262.203 89.1936 259.968 91.2293 259.785 93.3763C259.582 95.738 260.851 97.5828 263.496 97.9525C267.315 98.4893 271.185 98.6801 275.031 98.9903C279.136 99.3242 283.249 99.5628 287.362 99.9683C290.107 100.243 292.286 98.4217 292.338 95.5789ZM319.784 113.176C319.784 109.283 319.784 105.389 319.784 101.495C319.784 98.6841 318.408 97.1216 315.854 96.9625C313.137 96.7995 311.284 98.0758 311.228 100.839C311.061 109.045 311.089 117.26 311.2 125.47C311.232 127.788 313.666 129.609 315.973 129.49C318.34 129.366 319.796 127.724 319.808 125.116C319.816 121.137 319.812 117.16 319.796 113.184L319.784 113.176ZM275.031 355.453C275.031 351.397 275.063 347.342 275.031 343.29C274.999 340.619 273.504 339.012 271.121 338.917C268.834 338.837 266.471 340.686 266.443 343.008C266.335 351.114 266.335 359.222 266.443 367.333C266.479 369.83 268.961 371.627 271.535 371.448C273.727 371.293 275.035 369.694 275.043 367.074C275.047 363.222 275.035 359.337 275.031 355.453ZM195.219 185.637L195.657 186.719C197.57 186.719 199.479 186.755 201.389 186.719C203.576 186.663 205.784 186.289 207.944 186.484C211.46 186.806 212.781 188.631 212.558 192.106C212.404 193.706 212.374 195.316 212.466 196.921C212.948 202.209 215.147 206.531 220.116 208.936C224.889 211.242 229.264 210.336 233.305 207.02C234.155 206.325 235.066 205.707 236.026 205.175C237.955 204.098 239.793 203.935 241.563 205.664C242.052 206.141 243.031 206.117 244.069 206.4C242.729 202.666 239.717 201.231 236.368 202.615C234.379 203.445 232.609 204.825 230.8 206.054C227.072 208.59 222.844 208.574 219.3 205.775C215.322 202.654 214.34 198.332 214.658 193.545C214.738 192.373 214.984 191.16 214.825 190.027C214.248 185.932 210.028 183.486 204.861 184.007C202.264 184.27 199.639 184.25 197.041 184.512C196.405 184.568 195.824 185.244 195.219 185.637ZM205.295 379.662C205.637 378.919 206.281 378.171 206.273 377.428C206.222 372.752 208.441 369.305 213.079 368.422C215.792 367.905 218.727 368.422 221.551 368.641C223.886 368.816 226.225 369.579 228.524 369.436C232.351 369.209 234.566 365.754 233.202 361.858C232.582 362.796 232.009 363.381 231.766 364.08C231.13 366.1 229.749 367.281 227.741 367.329C226.086 367.368 224.427 366.82 222.757 366.653C219.678 366.347 216.536 365.631 213.521 365.973C206.695 366.74 202.642 373.149 205.295 379.646V379.662ZM432.861 363.122C434.054 358.749 432.618 355.512 429.245 353.528C425.578 351.377 422.038 351.54 419.397 354.685C416.179 358.538 412.261 359.456 407.623 358.816C407.225 358.79 406.827 358.79 406.429 358.816L405.932 359.584C406.545 360.101 407.098 360.983 407.77 361.079C412.841 361.822 417.316 360.749 420.697 356.522C422.288 354.51 424.416 353.866 426.795 354.844C429.253 355.858 431.015 357.516 431.286 360.411C431.369 361.162 432.109 361.85 432.861 363.106V363.122ZM301.057 110.902C292.505 107.578 284.446 107.857 276.471 111.924C277.537 113.828 277.545 113.844 279.084 113.168C283.746 111.121 288.575 110.234 293.631 111.18C295.834 111.578 298.006 112.214 300.242 112.771L301.057 110.902Z" fill="white"/>
<path d="M511.413 325.386C498.48 357.824 485.61 390.118 472.802 422.267L472.209 422.315L445.547 317.191L511.413 325.386Z" fill="#EB670A"/>
<path d="M109.245 225.017C117.201 237.258 124.941 249.138 132.873 261.325L51.1116 282.158L50.877 281.737L109.245 225.017Z" fill="#EB670A"/>
<path d="M372.141 162.945C368.196 149.093 364.357 135.606 360.455 121.909H434.098L372.141 162.945Z" fill="#EB670A"/>
<path d="M218.352 462.55L255.809 447.501C254.942 457.616 254.111 467.353 253.252 477.392L218.352 462.55Z" fill="#EB670A"/>
<path d="M445.402 314.386C444.913 313.841 444.443 313.273 443.926 312.752C442.092 310.915 441.83 309.014 443.278 306.832C447.558 300.367 451.86 293.919 456.185 287.489C457.896 284.952 460.008 284.471 462.474 285.934C464.391 287.067 465.171 290.061 463.667 292.188C458.576 299.488 453.325 306.673 448.13 313.909C448.027 314.138 447.966 314.385 447.951 314.636L445.402 314.386Z" fill="#EBEBEA"/>
<path d="M378.002 185.095C385.922 181.723 393.825 178.312 401.773 175.004C404.012 174.069 406.438 175.27 407.397 177.513C408.356 179.755 407.719 182.017 405.376 183.015C397.922 186.196 390.408 189.214 382.891 192.231C382.063 192.561 381.065 192.47 380.146 192.573C379.43 190.082 378.715 187.589 378.002 185.095Z" fill="#EBEAEA"/>
<path d="M392.553 413.286C391.758 412.491 390.628 411.823 390.21 410.857C387.243 403.979 384.411 397.045 381.551 390.119C380.33 387.153 380.72 385.033 382.665 383.777C385.023 382.25 388.054 382.723 389.144 385.276C392.477 393.085 395.54 401.009 398.691 408.889L392.553 413.286Z" fill="#EBEAEA"/>
<path d="M503.705 201.466L473.693 187.479L483.729 176.414L504.071 201.025L503.705 201.466Z" fill="#EB670A"/>
<path d="M261.706 407.561C262.406 406.897 263.246 406.332 263.783 405.553C266.169 402.086 268.492 398.551 270.859 395.053C271.272 394.418 271.747 393.827 272.279 393.287C274.057 391.542 276.257 391.299 278.007 392.568C279.661 393.784 280.334 396.699 279.128 398.532C274.789 405.171 270.334 411.744 265.95 418.355C264.602 420.395 262.633 420.419 260.549 420.18L261.706 407.561Z" fill="#EBEAE9"/>
<path d="M366.783 427.701C364.03 422.959 361.279 418.217 358.529 413.475C357.98 412.525 357.407 411.583 356.938 410.593C355.892 408.35 356.54 406.028 358.489 404.804C360.355 403.611 362.59 403.865 364.09 405.897C365.88 408.326 367.272 411.034 368.863 413.622C370.921 417.007 372.98 420.389 375.04 423.769L366.783 427.701Z" fill="#EBEAEA"/>
<path d="M449.204 341.399C442.49 340.91 435.771 340.469 429.061 339.912C426.849 339.729 424.936 337.352 425.115 335.332C425.334 332.859 426.933 331.245 429.491 331.356C435.298 331.595 441.101 331.996 446.905 332.334C447.666 335.345 448.432 338.367 449.204 341.399Z" fill="#EBEAE9"/>
<path d="M288.74 439.401C292.03 434.411 295.216 429.353 298.657 424.471C299.85 422.765 303.06 422.881 304.679 424.272C306.298 425.664 306.564 428.507 305.164 430.51C303.621 432.725 302.061 434.928 300.578 437.182C300.131 437.981 299.747 438.813 299.428 439.671L288.74 439.401Z" fill="#EBEAE9"/>
<path d="M468.863 208.286C467.451 208.119 466.039 207.832 464.623 207.801C460.3 207.701 458.541 205.288 459.886 201.224C459.985 200.922 459.755 200.509 459.679 200.147L464.52 195.885C465.932 199.904 467.396 204.095 468.863 208.286Z" fill="#E9E9E8"/>
<path d="M394.998 150.682C396.323 153.862 396.052 155.695 394.051 157.135C392.17 158.49 387.747 158.284 385.857 156.737L394.998 150.682Z" fill="#E9E9E8"/>
<path d="M367.531 156.441C365.24 156.302 363.701 154.994 363.199 152.907C362.758 151.066 363.299 149.265 365.216 148.251L367.531 156.441Z" fill="#E9E9E8"/>
<path d="M504.085 201.052L504.312 201.573L503.703 201.489L504.085 201.052Z" fill="#CD651E"/>
<path d="M260.487 420.423C260.487 420.705 260.448 420.987 260.424 421.27C260.448 420.987 260.468 420.705 260.487 420.423Z" fill="#EBEAE9"/>
<path d="M186.571 295.728C187.104 291.128 187.637 286.532 188.213 281.53L264.847 310.694C264.847 310.853 264.847 311.016 264.847 311.179L186.089 327.389C185.548 332.875 185.003 338.41 184.439 344.135L182.314 344.02L185.68 305.851L186.571 295.728ZM257.592 310.388L190.226 284.735C188.945 298.309 187.7 311.453 186.419 325.003L257.592 310.388Z" fill="#322E29"/>
<path d="M315.223 192.957L316.742 192.13C319.03 194.118 321.086 195.994 323.218 197.772C330.672 204.002 333.278 214.252 328.838 221.886C327.143 224.705 324.873 227.135 322.176 229.018C315.963 233.392 309.336 237.153 303.039 241.399C300.128 243.364 297.228 245.566 294.973 248.214C291.687 252.079 292.924 256.508 297.586 258.552C300.199 259.685 303.047 260.273 305.792 261.096C306.52 261.315 307.272 261.458 307.995 261.685C317.502 264.702 319.873 272.455 313.31 280.041C310.796 282.948 307.431 285.103 304.591 287.751C302.693 289.52 301.09 291.603 299.249 293.436C298.755 293.929 297.876 294.037 297.009 294.009C297.964 290.43 300.346 288.208 302.892 286.128C305.052 284.367 307.395 282.801 309.423 280.9C310.967 279.466 312.288 277.81 313.341 275.986C316.178 270.952 314.666 266.726 309.26 264.583C306.687 263.561 303.93 262.993 301.269 262.197C299.723 261.786 298.204 261.278 296.723 260.675C290.927 258.094 289.038 252.031 293.012 247.117C295.446 244.103 298.735 241.662 301.969 239.439C307.256 235.809 312.816 232.577 318.25 229.158C319.181 228.573 320.072 227.925 320.951 227.269C331.11 219.715 331.245 206.992 321.293 199.143C319.642 197.835 318.111 196.38 316.575 194.925C316.05 194.408 315.728 193.7 315.223 192.957Z" fill="#323331"/>
<path d="M341.259 377.332C346.112 366.807 350.963 356.28 355.813 345.752C356.096 345.147 356.366 344.535 356.688 343.823C358.331 343.911 358.92 344.336 358.1 346.105C354.708 353.437 351.525 360.868 348.057 368.164C347.142 370.084 347.512 371.102 348.928 372.446C358.928 381.927 368.881 391.457 378.788 401.037C379.186 401.434 379.425 402.054 379.739 402.567L379.806 402.615L342.357 389.113C341.959 388.974 341.561 388.894 341.164 388.787L337.162 387.069C338.542 383.753 339.911 380.545 341.259 377.332ZM370.606 396.917C370.682 396.794 370.761 396.671 370.841 396.548L346.124 372.812L340.241 385.932L370.606 396.917Z" fill="#302E2A"/>
<path d="M450.275 242.967C450.534 241.038 450.928 239.114 451.007 237.174C451.091 235.106 451.839 233.568 453.732 232.725C456.835 231.337 459.993 233.333 460.096 237.218C460.323 244.987 460.236 252.767 460.136 260.54C460.104 262.954 457.678 265.204 455.586 265.184C453.334 265.184 451.135 262.874 451.059 260.242C450.964 256.95 451.083 253.65 450.999 250.358C450.999 249.511 450.55 248.676 450.307 247.837C450.403 247.527 450.494 247.217 450.59 246.903C450.685 246.589 450.816 246.326 450.928 246.036C450.828 245.476 450.725 244.915 450.621 244.358C450.677 244.307 450.789 244.235 450.781 244.211C450.725 244.094 450.658 243.982 450.582 243.877C450.49 243.591 450.383 243.269 450.275 242.967Z" fill="#ECEBEA"/>
<path d="M364.045 198.069C364.045 201.453 364.065 204.828 364.045 208.216C364.017 211.742 362.589 213.357 359.562 213.384C356.38 213.412 354.92 211.794 354.908 208.132C354.89 200.777 354.89 193.421 354.908 186.066C354.908 183.251 356.718 181.005 359.021 180.857C361.324 180.71 363.281 182.408 363.548 185.207C363.946 189.477 364.045 193.775 364.268 198.065L364.045 198.069Z" fill="#ECEBEA"/>
<path d="M350.512 159.977C349.899 159.441 348.356 158.622 347.58 157.341C343.575 150.713 339.725 143.99 335.914 137.247C334.566 134.861 335.301 132.269 337.386 131.168C339.744 129.919 342.278 130.651 343.686 133.052C347.306 139.227 350.93 145.378 354.466 151.616C355.198 152.831 355.668 154.185 355.846 155.592C356.085 158.335 354.271 160.017 350.512 159.977Z" fill="#EBEBEA"/>
<path d="M418.064 191.481C413.932 191.016 412.098 187.783 414.266 184.324C417.448 179.175 420.92 174.194 424.297 169.16C425.467 167.419 426.58 165.602 427.985 164.059C429.798 162.071 432.018 162.071 434.078 163.781C435.419 164.886 435.864 167.685 434.759 169.371C430.415 175.987 426.055 182.595 421.545 189.095C420.793 190.165 419.246 190.714 418.064 191.481Z" fill="#EBEBEA"/>
<path d="M394.57 208.031C394.526 205.316 395.58 203.825 397.752 203.26C400.039 202.668 402.095 203.658 402.978 205.781C405.909 212.781 408.826 219.793 411.729 226.818C411.888 227.215 411.996 227.613 412.127 228.01C412.855 230.519 411.884 232.75 409.669 233.66C407.453 234.571 405.357 233.887 404.227 231.434C402.111 226.837 400.218 222.138 398.261 217.47C397.179 214.906 396.137 212.325 395.111 209.737C394.894 209.181 394.713 208.611 394.57 208.031Z" fill="#EBEBEA"/>
<path d="M183.133 205.823C183.324 208.268 181.987 209.64 179.951 210.196C177.588 210.828 175.723 209.715 174.78 207.564C172.855 203.254 171.109 198.861 169.291 194.499C168.121 191.696 166.924 188.905 165.806 186.082C164.661 183.192 165.568 180.774 168.074 179.804C170.659 178.806 172.799 179.868 174.04 182.838C176.859 189.613 179.66 196.396 182.445 203.187C182.73 204.05 182.959 204.93 183.133 205.823Z" fill="#EBEBEA"/>
<path d="M314.5 332.83C317.082 332.743 318.581 333.781 319.194 335.92C319.751 337.856 318.438 340.46 316.326 341.343C309.015 344.399 301.679 347.398 294.317 350.34C292.098 351.231 289.711 350.086 288.649 347.823C288.216 346.793 288.208 345.633 288.628 344.596C289.047 343.56 289.86 342.732 290.889 342.293C298.323 339.084 305.845 336.087 313.339 333.033C313.714 332.911 314.105 332.842 314.5 332.83Z" fill="#EBEBEA"/>
<path d="M295.077 372.233C296.532 373.347 298.02 373.975 298.704 375.096C302.746 381.704 306.676 388.382 310.494 395.131C311.978 397.739 311.154 400.649 308.935 401.731C306.815 402.768 304.09 401.731 302.718 399.345C298.947 392.864 295.171 386.388 291.389 379.915C290.419 378.245 289.798 376.396 291.234 374.786C292.141 373.8 293.537 373.231 295.077 372.233Z" fill="#EBEBEA"/>
<path d="M304.498 122.03C303.913 122.682 303.117 124.312 301.849 124.881C294.39 128.205 286.833 131.338 279.247 134.403C277.147 135.25 274.601 133.731 273.746 131.489C273.394 130.487 273.433 129.39 273.855 128.416C274.277 127.442 275.05 126.662 276.022 126.233C282.386 123.517 288.782 120.933 295.166 118.281C296.101 117.883 296.996 117.398 297.95 117.052C301.013 115.935 304.593 118.197 304.498 122.03Z" fill="#EBEBEA"/>
<path d="M380.846 289.181C380.516 287.217 381.67 286.04 383.336 285.332C390.707 282.215 398.074 279.094 405.496 276.1C406.026 275.876 406.597 275.761 407.173 275.764C407.749 275.766 408.318 275.886 408.847 276.115C409.375 276.345 409.851 276.679 410.246 277.098C410.641 277.518 410.947 278.013 411.144 278.554C411.365 279.104 411.472 279.693 411.462 280.286C411.451 280.879 411.322 281.464 411.082 282.006C410.841 282.549 410.495 283.038 410.063 283.444C409.631 283.851 409.123 284.167 408.567 284.374C401.72 287.213 394.872 290.045 388.022 292.871C387.477 293.094 386.9 293.245 386.355 293.463C383.941 294.437 380.166 292.437 380.846 289.181Z" fill="#EBEBEA"/>
<path d="M394.435 258.908C386.703 258.467 378.966 258.085 371.238 257.556C368.087 257.342 366.56 255.036 367.129 251.815C367.526 249.529 369.973 248.292 372.618 248.634C376.122 249.076 379.662 249.203 383.183 249.477C387.291 249.799 391.408 250.042 395.513 250.499C398.17 250.793 399.889 252.845 399.606 254.98C399.268 257.552 397.26 259.167 394.435 258.908Z" fill="#EBEBEA"/>
<path d="M144.292 225.063C151.762 225.576 159.232 226.053 166.694 226.63C168.552 226.773 170.318 229.242 170.227 231.218C170.115 233.604 168.635 235.23 166.209 235.194C161.997 235.126 157.788 234.904 153.584 234.633C149.98 234.407 146.392 233.906 142.789 233.739C139.185 233.572 137.618 232.3 137.673 229.266C137.725 226.391 139.32 225.075 142.769 225.063H144.292Z" fill="#EBEBEA"/>
<path d="M387.019 316.044C389.008 315.949 390.305 316.839 391.299 318.593C394.596 324.386 398.061 330.083 401.343 335.888C402.185 337.425 402.804 339.074 403.18 340.786C403.654 342.854 402.349 344.364 400.583 344.869C398.817 345.374 396.685 345.398 395.44 343.259C392.727 338.591 389.951 333.956 387.218 329.3C385.893 327.041 384.461 324.831 383.336 322.477C381.741 319.133 383.602 316.024 387.019 316.044Z" fill="#EBEBEA"/>
<path d="M307.004 145.94C307.994 144.747 308.758 143.093 310.031 142.465C311.566 141.71 313.555 141.813 314.804 143.57C315.468 144.434 316.037 145.367 316.499 146.354C319.184 152.803 321.817 159.271 324.454 165.74C326.16 169.939 324.243 173.219 320.234 172.583C318.925 172.376 317.274 171.068 316.725 169.843C313.567 162.774 310.683 155.59 307.752 148.421C307.509 147.829 307.609 147.093 307.549 146.433L307.004 145.94Z" fill="#EBEBEA"/>
<path d="M292.334 95.5776C292.283 98.4204 290.103 100.241 287.342 99.9511C283.245 99.5535 279.132 99.307 275.012 98.973C271.161 98.6629 267.291 98.4721 263.476 97.9353C260.831 97.5656 259.562 95.7207 259.765 93.3591C259.952 91.2121 262.188 89.1764 264.538 89.3513C272.669 89.953 280.792 90.6276 288.909 91.3751C291.292 91.6097 292.402 93.2119 292.334 95.5776Z" fill="#EBEBEA"/>
<path d="M319.8 113.178C319.8 117.154 319.8 121.13 319.8 125.106C319.8 127.718 318.332 129.36 315.965 129.479C313.674 129.599 311.24 127.778 311.192 125.46C311.081 117.249 311.053 109.035 311.22 100.829C311.276 98.0656 313.129 96.7893 315.846 96.9523C318.4 97.1074 319.772 98.6739 319.776 101.485C319.8 105.381 319.796 109.278 319.8 113.178Z" fill="#ECEBEA"/>
<path d="M275.029 355.45C275.029 359.334 275.029 363.219 275.029 367.107C275.029 369.707 273.712 371.306 271.521 371.481C268.947 371.66 266.465 369.863 266.429 367.366C266.313 359.257 266.313 351.149 266.429 343.041C266.457 340.719 268.816 338.87 271.107 338.95C273.494 339.029 274.985 340.636 275.017 343.323C275.061 347.339 275.029 351.394 275.029 355.45Z" fill="#ECEBEA"/>
<path d="M195.326 231.067C194.26 232.021 193.202 232.975 192.144 233.921C190.087 235.746 187.661 235.695 185.847 233.782C184.033 231.87 184.061 229.878 186.086 227.787C191.297 222.387 196.46 216.936 201.81 211.68C202.967 210.543 204.872 209.485 206.36 209.577C207.681 209.656 209.542 211.167 209.992 212.439C210.441 213.712 209.829 215.791 208.953 216.972C207.362 219.115 205.191 220.833 203.325 222.785C202.755 223.481 202.241 224.221 201.79 224.999C196.985 226.228 195.589 227.544 195.326 231.067Z" fill="#EBEAEA"/>
<path d="M341.264 377.335C339.916 380.547 338.564 383.756 337.163 387.088L341.165 388.805C341.165 392.018 341.185 395.23 341.165 398.443C341.133 401.441 339.673 403.003 337 402.984C334.041 402.96 332.545 401.473 332.534 398.407C332.51 390.72 332.51 383.034 332.534 375.347C332.534 372.246 333.91 370.576 336.447 370.472C338.985 370.369 341.05 372.46 341.177 375.331C341.193 375.995 341.232 376.663 341.264 377.335Z" fill="#EBEAE9"/>
<path d="M438.33 239.872C437.877 240.552 437.535 241.331 436.95 241.903C431.882 247.022 426.795 252.115 421.687 257.183C419.766 259.099 416.771 259.25 415.16 257.58C413.31 255.644 413.442 253.282 415.598 251.1C419.11 247.545 422.678 244.046 426.174 240.476C426.795 239.844 427.177 238.981 427.67 238.226L438.33 239.872Z" fill="#EBEAEA"/>
<path d="M186.577 295.735L185.706 305.85C181.62 307.365 177.519 308.844 173.454 310.407C170.443 311.564 168.009 310.903 166.991 308.526C165.829 305.806 167.022 303.524 170.173 302.272C175.662 300.113 181.115 297.914 186.577 295.735Z" fill="#EBEAE9"/>
<path d="M195.215 185.635C195.819 185.238 196.408 184.566 197.041 184.498C199.638 184.236 202.263 184.256 204.861 183.993C210.032 183.472 214.248 185.918 214.825 190.013C214.984 191.154 214.737 192.359 214.658 193.532C214.339 198.303 215.33 202.64 219.3 205.761C222.856 208.545 227.072 208.576 230.799 206.04C232.605 204.811 234.379 203.432 236.368 202.601C239.717 201.201 242.732 202.652 244.069 206.386C243.03 206.103 242.052 206.127 241.563 205.65C239.793 203.921 237.955 204.084 236.026 205.161C235.065 205.693 234.155 206.311 233.305 207.006C229.284 210.322 224.88 211.228 220.115 208.922C215.147 206.537 212.955 202.195 212.466 196.907C212.373 195.302 212.404 193.693 212.557 192.092C212.78 188.617 211.46 186.792 207.943 186.47C205.784 186.276 203.568 186.649 201.388 186.705C199.479 186.753 197.57 186.705 195.656 186.705L195.215 185.635Z" fill="#373736"/>
<path d="M205.293 379.647C202.64 373.15 206.693 366.741 213.519 365.966C216.534 365.624 219.677 366.339 222.755 366.646C224.426 366.813 226.085 367.361 227.739 367.321C229.748 367.274 231.128 366.093 231.765 364.073C231.987 363.373 232.58 362.789 233.201 361.851C234.565 365.747 232.349 369.202 228.523 369.429C226.224 369.564 223.885 368.801 221.55 368.634C218.726 368.423 215.79 367.898 213.078 368.415C208.44 369.298 206.22 372.745 206.272 377.42C206.28 378.156 205.635 378.903 205.293 379.647Z" fill="#343533"/>
<path d="M438.329 239.869L427.669 238.207C426.575 236.362 425.23 234.629 424.487 232.641C423.961 231.261 424.244 229.567 424.152 227.738C425.823 227.993 426.762 227.977 426.455 229.818C425.982 232.684 427.346 234.847 430.079 236.298L439.347 237.288C440.334 237.436 441.316 237.618 442.311 237.726C445.89 238.123 448.738 239.527 450.266 242.962C450.373 243.264 450.481 243.57 450.584 243.873C450.556 243.951 450.545 244.034 450.552 244.117C450.558 244.2 450.583 244.281 450.624 244.354C450.727 244.91 450.831 245.471 450.93 246.031C450.819 246.322 450.703 246.612 450.592 246.898C450.481 247.184 450.405 247.522 450.31 247.833L448.973 249.59L448.213 249.657C448.094 248.902 447.676 248.039 447.903 247.407C448.898 244.624 448.209 242.008 445.421 240.99C443.221 240.187 440.708 240.211 438.329 239.869Z" fill="#343533"/>
<path d="M432.858 363.103C432.107 361.847 431.367 361.159 431.295 360.408C431.025 357.493 429.263 355.835 426.804 354.841C424.418 353.863 422.31 354.507 420.707 356.519C417.338 360.746 412.851 361.819 407.779 361.076C407.107 360.98 406.554 360.097 405.941 359.581L406.439 358.813C406.836 358.787 407.235 358.787 407.632 358.813C412.27 359.465 416.188 358.535 419.406 354.682C422.047 351.502 425.587 351.374 429.255 353.525C432.616 355.493 434.064 358.738 432.858 363.103Z" fill="#373736"/>
<path d="M301.056 110.895L300.261 112.744C298.021 112.204 295.854 111.583 293.65 111.154C288.594 110.212 283.765 111.098 279.104 113.142C277.564 113.818 277.556 113.802 276.49 111.897C284.45 107.85 292.504 107.572 301.056 110.895Z" fill="#343533"/>
<path d="M195.328 231.062C195.591 227.54 196.987 226.224 201.78 224.995C204.588 225.79 207.424 226.458 210.193 227.381C211.938 227.987 213.627 228.746 215.24 229.647C215.925 230.017 216.39 230.792 216.959 231.384L216.215 232.394C213.721 231.313 211.207 230.279 208.745 229.13C206.207 227.937 203.705 226.486 200.789 227.627C199.68 228.065 198.288 228.8 197.882 229.762C197.301 231.213 196.442 231.146 195.328 231.062Z" fill="#343533"/>
<path d="M439.342 237.298L430.074 236.308C430.894 235.597 431.606 234.583 432.556 234.253C433.948 233.768 435.591 233.382 436.979 233.668C438.606 234.006 439.581 235.406 439.342 237.298Z" fill="#EBEAE9"/>
<path d="M379.742 402.574L379.872 402.513C379.872 402.513 379.799 402.618 379.807 402.622L379.742 402.574Z" fill="#302E2A"/>
<path d="M257.596 310.389L186.424 325.004C187.705 311.455 188.95 298.31 190.23 284.736L257.596 310.389Z" fill="#EB670A"/>
<path d="M370.608 396.917L340.242 385.932L346.125 372.812L370.842 396.532C370.763 396.667 370.683 396.794 370.608 396.917Z" fill="#EB670A"/>
<path d="M450.6 246.912C450.711 246.625 450.826 246.335 450.938 246.045C450.826 246.335 450.715 246.621 450.6 246.912Z" fill="white"/>
<path d="M450.631 244.357C450.59 244.284 450.565 244.203 450.559 244.12C450.552 244.037 450.563 243.953 450.591 243.875C450.668 243.98 450.735 244.092 450.79 244.21C450.798 244.233 450.687 244.305 450.631 244.357Z" fill="white"/>
<path d="M79.4474 99.9327C80.1577 99.7143 80.896 99.6004 81.6391 99.5947C82.2008 99.5955 82.7594 99.6772 83.2978 99.8373C83.9596 100.087 84.5327 100.527 84.9446 101.102C85.348 101.627 85.5724 102.268 85.585 102.931C85.5569 103.68 85.3109 104.406 84.8769 105.018L84.1371 106.155C84.8372 106.153 85.5364 106.202 86.2294 106.302C86.541 106.332 86.8416 106.433 87.1084 106.596C87.506 106.852 87.8318 107.205 88.0551 107.622C88.4058 108.286 88.6247 109.011 88.6995 109.757C88.8296 110.592 88.7106 111.447 88.3574 112.214C87.9984 112.977 87.4707 113.649 86.8141 114.178C86.1223 114.74 85.3318 115.167 84.4832 115.439C83.6038 115.688 82.6922 115.805 81.7784 115.785C81.1088 115.816 80.45 115.607 79.9208 115.196C79.3577 114.575 78.885 113.878 78.5167 113.125C77.9441 111.778 77.4435 110.402 77.0171 109.002C76.553 107.501 76.1049 105.887 75.6726 104.159C75.2749 102.569 75.1595 101.726 75.2987 101.603C75.5063 101.433 75.7317 101.286 75.971 101.165C76.7708 100.815 77.5918 100.515 78.4292 100.267C78.8031 100.135 79.1252 100.024 79.4474 99.9327ZM80.3941 102.255H80.3265C80.0938 102.331 79.8797 102.456 79.698 102.62C79.6278 102.673 79.5741 102.745 79.5432 102.828C79.5122 102.91 79.5052 102.999 79.523 103.086L80.1037 105.145C80.1149 105.192 80.1353 105.236 80.1636 105.274C80.1919 105.313 80.2276 105.346 80.2687 105.371C80.3098 105.395 80.3554 105.412 80.4029 105.419C80.4504 105.426 80.4988 105.423 80.5453 105.411C80.8342 105.373 81.1083 105.261 81.3408 105.085C81.6262 104.882 81.8537 104.608 82.0011 104.29C82.1676 103.932 82.1986 103.525 82.0886 103.145C82.0471 102.957 81.9621 102.782 81.8405 102.633C81.719 102.484 81.5642 102.365 81.3885 102.286C81.0699 102.165 80.7199 102.154 80.3941 102.255ZM82.4784 108.815C82.1477 108.896 81.8444 109.064 81.5994 109.3C81.498 109.391 81.425 109.509 81.389 109.64C81.3531 109.771 81.3556 109.91 81.3965 110.039L82.2795 112.445C82.3577 112.578 82.4702 112.688 82.6052 112.762C82.7403 112.837 82.8929 112.875 83.0472 112.87C83.4298 112.874 83.8055 112.768 84.1292 112.564C84.5401 112.323 84.8604 111.953 85.0408 111.512C85.2212 111.071 85.2516 110.583 85.1275 110.123C85.0429 109.731 84.8268 109.381 84.515 109.129C84.2279 108.91 83.8871 108.773 83.5285 108.731C83.1764 108.692 82.8199 108.721 82.4784 108.815Z" fill="white"/>
<path d="M90.0045 96.5293C90.9503 96.2514 91.9454 96.1835 92.9201 96.3305C93.7892 96.4556 94.5819 96.8957 95.1476 97.567C95.7204 98.2429 96.0108 99.2289 96.0187 100.525C96.0187 101.825 95.621 103.479 94.8254 105.499L99.4634 107.487C99.5423 107.691 99.5781 107.91 99.5685 108.129C99.5589 108.348 99.5042 108.562 99.4077 108.759C99.1921 109.233 98.9095 109.674 98.5684 110.067C98.2433 110.456 97.8981 110.828 97.5342 111.181L93.3815 109.379L95.0164 112.747C94.7954 112.926 94.5643 113.092 94.3242 113.244C93.9454 113.495 93.5537 113.726 93.1508 113.936C92.7789 114.142 92.3758 114.285 91.9575 114.361C91.8216 114.404 91.6748 114.398 91.5431 114.344C91.4113 114.289 91.3031 114.19 91.2376 114.063C90.3439 112.075 89.5696 110.036 88.9186 107.956C88.2954 105.881 87.7081 103.816 87.1565 101.762C86.8701 100.685 86.5757 99.6093 86.2734 98.5331C87.3513 97.5944 88.6264 96.9095 90.0045 96.5293ZM90.8 100.442C90.5415 100.497 90.446 100.617 90.5097 100.787L91.3529 103.05C91.4762 103.308 91.6592 103.344 91.9058 103.161C92.188 102.932 92.415 102.643 92.5701 102.314C92.7579 101.985 92.8412 101.606 92.8087 101.229C92.7816 101.111 92.728 101.002 92.6522 100.908C92.5765 100.814 92.4803 100.739 92.3712 100.688C92.1239 100.554 91.8544 100.465 91.5757 100.426C91.321 100.384 91.0607 100.389 90.808 100.442H90.8Z" fill="white"/>
<path d="M102.767 93.594C103.128 93.4841 103.505 93.437 103.881 93.4548C104.019 93.4532 104.156 93.4819 104.282 93.5389C104.408 93.5959 104.519 93.6799 104.609 93.7848C105.452 94.9273 106.329 96.1876 107.238 97.5659C108.148 98.9443 109.048 100.346 109.939 101.772C110.806 103.127 111.635 104.41 112.425 105.621C112.509 105.736 112.449 105.951 112.25 106.261C112.016 106.628 111.739 106.964 111.423 107.263C111.066 107.61 110.664 107.908 110.229 108.15C109.855 108.373 109.424 108.482 108.988 108.464C108.779 108.438 108.581 108.357 108.413 108.229C108.245 108.101 108.114 107.931 108.034 107.736L106.753 105.076C106.628 104.801 106.484 104.535 106.319 104.281C106.199 104.096 106.053 103.929 105.886 103.784C105.824 103.723 105.748 103.677 105.665 103.652C105.582 103.626 105.494 103.621 105.409 103.637C105.326 103.673 105.253 103.728 105.196 103.797C105.139 103.866 105.098 103.947 105.078 104.035C105.012 104.261 104.98 104.495 104.983 104.731C104.986 105.054 105.009 105.376 105.051 105.697L105.389 108.317C105.439 108.569 105.411 108.829 105.309 109.065C105.208 109.301 105.037 109.5 104.82 109.637C104.337 109.919 103.788 110.068 103.229 110.07C102.678 110.097 102.126 110.044 101.59 109.911C101.117 109.784 100.87 109.625 100.846 109.438C100.809 107.5 100.733 105.512 100.619 103.474C100.54 102.071 100.472 100.691 100.425 99.3352C100.377 97.9794 100.365 96.6753 100.397 95.4388C100.425 95.2086 100.507 94.9882 100.636 94.7955C100.765 94.6028 100.938 94.4432 101.14 94.3296C101.634 93.9883 102.185 93.7391 102.767 93.594ZM103.925 98.2061H103.889C103.81 98.2427 103.74 98.298 103.687 98.3672C103.634 98.4364 103.598 98.5176 103.583 98.6037C103.534 98.816 103.521 99.035 103.543 99.2517C103.563 99.4951 103.599 99.7368 103.65 99.9753C103.702 100.218 103.774 100.492 103.869 100.802L105.309 100.337C105.222 100.023 105.134 99.7527 105.051 99.542C104.966 99.3137 104.867 99.0907 104.756 98.874C104.653 98.68 104.518 98.5041 104.358 98.3532C104.304 98.2943 104.236 98.25 104.16 98.2243C104.085 98.1986 104.004 98.1923 103.925 98.2061Z" fill="white"/>
<path d="M113.806 105.707L109.594 92.9643C109.518 92.7496 109.642 92.519 109.964 92.2606C110.342 91.9753 110.756 91.7426 111.197 91.5688C111.649 91.3791 112.124 91.2456 112.609 91.1712C112.76 91.1261 112.92 91.1151 113.076 91.1392C113.232 91.1633 113.381 91.2217 113.512 91.3103L116.073 94.9086C116.237 95.0832 116.386 95.2706 116.519 95.4692C116.711 95.7751 116.956 96.0444 117.243 96.2643C117.408 96.37 117.597 96.4333 117.793 96.4485C117.988 96.4638 118.185 96.4306 118.365 96.3518L117.931 94.9761L116.559 90.706C116.479 90.4913 116.614 90.2567 116.956 89.9983C117.359 89.7098 117.8 89.4771 118.265 89.3065C118.736 89.1128 119.234 88.9921 119.741 88.9487C120.198 88.9168 120.501 89.0282 120.644 89.2866C121.384 91.4548 122.085 93.6469 122.748 95.8628C123.411 98.0787 124.002 100.342 124.522 102.654C124.563 102.828 124.562 103.01 124.519 103.184C124.476 103.358 124.393 103.52 124.275 103.656C123.995 103.985 123.631 104.233 123.221 104.371C122.756 104.543 122.256 104.597 121.765 104.53C121.223 104.455 120.717 104.213 120.318 103.838L116.543 100.304C116.825 101.19 117.06 101.93 117.255 102.53L117.792 104.2L118.13 105.254C118.077 105.433 117.986 105.599 117.863 105.739C117.74 105.88 117.588 105.992 117.418 106.069C116.993 106.293 116.533 106.441 116.058 106.506C115.59 106.585 115.11 106.559 114.653 106.431C114.465 106.386 114.289 106.297 114.142 106.172C113.995 106.046 113.88 105.886 113.806 105.707Z" fill="white"/>
<path d="M125.561 86.7232C125.987 86.5963 126.426 86.5176 126.87 86.4887C127.187 86.3948 127.522 86.3839 127.845 86.4569C128.543 86.5468 129.224 86.7453 129.861 87.0453C130.742 87.4577 131.535 88.0339 132.2 88.743C133.068 89.6885 133.729 90.8043 134.141 92.0192C134.563 93.169 134.742 94.394 134.665 95.6165C134.588 96.8389 134.258 98.032 133.696 99.1202C133.258 99.9912 132.674 100.781 131.969 101.454C131.457 101.976 130.823 102.362 130.124 102.579C129.386 102.702 128.631 102.652 127.916 102.432C127.243 102.285 126.612 101.987 126.071 101.561C125.744 101.235 125.366 100.461 124.937 99.2394C124.507 98.0175 124.095 96.6538 123.7 95.1482C123.302 93.6374 122.988 92.2869 122.757 91.0968C122.526 89.9066 122.444 89.1857 122.51 88.9339C122.738 88.3496 123.159 87.8611 123.704 87.5502C124.28 87.187 124.906 86.9084 125.561 86.7232ZM127.618 91.6613C127.544 91.675 127.475 91.7044 127.414 91.7473C127.352 91.7903 127.301 91.8459 127.264 91.9104C127.226 91.9749 127.202 92.0468 127.195 92.1211C127.187 92.1954 127.196 92.2705 127.22 92.3412L128.592 96.8579C128.7 97.1799 128.887 97.335 129.149 97.3191C129.463 97.2779 129.748 97.1168 129.945 96.8698C130.244 96.5316 130.449 96.12 130.537 95.677C130.661 95.1049 130.635 94.5106 130.462 93.9515C130.322 93.3865 130.049 92.8631 129.666 92.4247C129.372 92.098 129.002 91.8483 128.588 91.6971C128.277 91.5844 127.937 91.5719 127.618 91.6613Z" fill="white"/>
<path d="M136.911 98.3057C136.419 97.7023 136.139 96.9532 136.116 96.1746C136.082 95.3908 136.199 94.6079 136.462 93.8686C136.675 93.2212 137 92.6168 137.425 92.0834C136.794 91.712 136.26 91.1971 135.865 90.5805C135.457 89.9623 135.206 89.2541 135.133 88.517C135.057 87.7646 135.222 87.0074 135.603 86.3541C136.103 85.5669 136.822 84.9424 137.671 84.557C138.143 84.327 138.65 84.1779 139.171 84.1157C139.89 84.0833 140.607 84.1997 141.279 84.4576C141.963 84.8898 142.476 85.5461 142.731 86.3143C143.013 87.1344 143.081 88.0134 142.926 88.8669C142.768 89.7552 142.353 90.5777 141.732 91.2325C141.951 91.4707 142.202 91.6757 142.48 91.8409C142.756 91.9927 143.058 92.0887 143.371 92.1231C143.468 91.9995 143.552 91.8662 143.622 91.7255C143.693 91.5824 143.777 91.3995 143.864 91.1809C143.896 91.0934 143.949 91.0151 144.018 90.9533C144.088 90.8915 144.172 90.8481 144.262 90.827C144.457 90.7955 144.657 90.8147 144.843 90.8827C145.055 90.9509 145.261 91.0401 145.455 91.149C145.654 91.2604 145.881 91.4075 146.144 91.5904C146.096 91.7017 146.056 91.7892 146.024 91.8528L145.949 92.0078L145.869 92.1748C145.823 92.2638 145.782 92.3554 145.746 92.4492H145.893C146.072 92.4492 146.219 92.469 146.33 92.4492C146.453 92.4443 146.574 92.4269 146.692 92.3975C146.82 92.3657 146.995 92.314 147.213 92.2424C147.373 92.5319 147.423 92.8695 147.353 93.1927C147.307 93.6523 147.197 94.1033 147.027 94.5325C146.859 94.9619 146.665 95.2164 146.446 95.2959L145.988 95.4072C145.9 95.4296 145.809 95.4442 145.718 95.451L145.396 95.4709C145.292 95.4709 145.149 95.4709 144.998 95.4709C144.682 96.2121 144.229 96.8867 143.661 97.4588C143.07 98.0762 142.382 98.5932 141.625 98.9895C140.95 99.3645 140.19 99.5603 139.417 99.5581C138.24 99.3394 137.409 98.922 136.911 98.3057ZM138.276 89.1611C138.558 89.5614 138.928 89.8918 139.358 90.1272C139.467 89.9919 139.565 89.8484 139.652 89.6978C139.763 89.511 139.867 89.3002 139.962 89.1333C140.058 88.9663 140.129 88.7993 140.173 88.6999C140.491 88.0876 140.571 87.6025 140.396 87.2447C140.32 87.0725 140.203 86.922 140.054 86.8067C139.905 86.6915 139.73 86.6152 139.545 86.5847C139.16 86.501 138.757 86.5709 138.423 86.7795C138.241 86.8995 138.092 87.0623 137.987 87.2537C137.883 87.4451 137.828 87.6591 137.826 87.8769C137.825 88.3436 137.984 88.7967 138.276 89.1611ZM141.557 94.8029C141.231 94.724 140.912 94.619 140.603 94.4888C140.211 94.2959 139.838 94.067 139.489 93.805C139.425 93.9203 139.37 94.0236 139.326 94.1111C139.282 94.2005 139.246 94.2936 139.218 94.3894C139.047 94.8491 139.023 95.3509 139.151 95.8247C139.2 95.9833 139.287 96.1279 139.403 96.2468C139.519 96.3656 139.662 96.4553 139.819 96.5086C140.16 96.6057 140.524 96.5775 140.845 96.4291C141.132 96.2971 141.393 96.1154 141.617 95.8923C141.865 95.6232 142.083 95.3287 142.269 95.0136C141.987 94.9341 141.748 94.8625 141.557 94.8029Z" fill="white"/>
<path d="M149.23 80.0508C149.658 79.9238 150.098 79.8451 150.543 79.8162C150.859 79.7223 151.195 79.71 151.517 79.7804C152.215 79.8727 152.894 80.0725 153.53 80.3728C154.411 80.7827 155.205 81.3577 155.869 82.0666C156.736 83.015 157.398 84.1315 157.814 85.3467C158.234 86.4968 158.412 87.7213 158.336 88.9433C158.26 90.1653 157.932 91.3584 157.372 92.4477C156.934 93.319 156.348 94.1084 155.642 94.7816C155.13 95.304 154.496 95.6907 153.796 95.9067C153.059 96.0254 152.304 95.9751 151.589 95.7596C150.916 95.6104 150.285 95.3115 149.743 94.8849C149.417 94.5589 149.041 93.7862 148.614 92.567C148.187 91.3477 147.773 89.9839 147.373 88.4758C146.975 86.9649 146.661 85.6144 146.43 84.4243C146.199 83.2315 146.12 82.5119 146.183 82.2614C146.413 81.6776 146.834 81.1887 147.377 80.8738C147.952 80.5134 148.576 80.2363 149.23 80.0508ZM151.287 84.9889C151.213 85.0026 151.143 85.0319 151.082 85.0749C151.021 85.1179 150.97 85.1735 150.932 85.238C150.895 85.3025 150.871 85.3743 150.864 85.4486C150.856 85.523 150.865 85.598 150.889 85.6688L152.257 90.1814C152.366 90.5074 152.553 90.6625 152.818 90.6466C153.131 90.6054 153.416 90.4443 153.614 90.1973C153.908 89.8632 154.112 89.4595 154.206 89.0244C154.328 88.4521 154.302 87.8584 154.131 87.2989C153.987 86.7352 153.715 86.2125 153.335 85.7721C153.041 85.4426 152.669 85.1924 152.253 85.0445C151.945 84.9261 151.607 84.9066 151.287 84.9889Z" fill="white"/>
<path d="M157.808 79.6231C158.217 79.1844 158.732 78.8585 159.303 78.6769C159.849 78.4767 160.443 78.4476 161.006 78.5934C161.274 78.6732 161.516 78.8239 161.706 79.0297C161.895 79.2354 162.026 79.4885 162.084 79.7623L162.955 82.6329C163.015 82.8516 163.082 83.0822 163.15 83.3287C163.333 83.9993 163.54 84.7229 163.77 85.4995C164.001 86.2748 164.252 87.0223 164.53 87.7419L165.326 90.04C165.367 90.2255 165.358 90.4186 165.3 90.5995C165.242 90.7804 165.137 90.9427 164.995 91.0698C164.645 91.4595 164.21 91.763 163.723 91.9564C163.221 92.1733 162.663 92.2221 162.131 92.0956C161.84 92.0086 161.572 91.8559 161.348 91.6491C161.125 91.4423 160.952 91.187 160.843 90.9028C160.103 89.2515 159.44 87.6068 158.854 85.9687C158.27 84.36 157.773 82.7208 157.366 81.0584C157.319 80.8013 157.335 80.5367 157.412 80.2869C157.489 80.0371 157.624 79.8095 157.808 79.6231Z" fill="white"/>
<path d="M168.215 75.8028C169.083 75.3483 170.003 75.0011 170.956 74.7691C171.695 74.5529 172.489 74.6268 173.175 74.9758C173.78 75.3178 174.147 76.0613 174.277 77.2063C174.227 77.6349 174.032 78.0335 173.724 78.3355C173.462 78.5508 173.136 78.6737 172.797 78.6854C172.416 78.7045 172.033 78.6832 171.656 78.6218C170.821 78.596 170.004 78.8649 169.349 79.3812C168.803 79.8987 168.469 80.5998 168.41 81.3492C168.316 82.3437 168.384 83.3468 168.613 84.3193C168.791 84.8842 169.101 85.3991 169.516 85.8222C169.899 86.2374 170.374 86.5562 170.904 86.7525C171.122 86.8408 171.358 86.874 171.592 86.849C171.826 86.8241 172.05 86.7417 172.244 86.6094C172.634 86.3443 172.875 85.7758 172.968 84.9037C172.968 84.864 172.968 84.8202 172.968 84.7805C172.97 84.6288 172.959 84.4772 172.936 84.3272C172.913 84.1553 172.846 83.9924 172.742 83.8541C172.656 83.7692 172.556 83.6993 172.447 83.6473C172.336 83.5932 172.22 83.5493 172.101 83.5161C171.99 83.4843 171.851 83.4525 171.703 83.4167C171.556 83.3809 171.357 83.2895 171.242 83.039C171.121 82.7615 171.055 82.4631 171.047 82.1603C171.028 81.8465 171.076 81.5322 171.186 81.2379C171.224 81.1157 171.295 81.0061 171.39 80.9207C171.485 80.8353 171.602 80.7773 171.727 80.7529C172.431 80.4904 173.04 80.2956 173.553 80.1604C174.05 80.0309 174.559 79.9589 175.072 79.9457C175.509 79.916 175.943 80.0215 176.317 80.2479C176.667 80.5422 176.916 80.9384 177.029 81.381C177.186 81.899 177.288 82.4321 177.332 82.9714C177.376 83.5201 177.395 83.9734 177.395 84.3352C177.429 84.4974 177.422 84.6653 177.376 84.8242C177.376 84.9037 177.376 84.9872 177.376 85.0707C177.361 85.7419 177.267 86.4091 177.097 87.0587C176.891 87.7571 176.474 88.375 175.904 88.8279C175.281 89.3581 174.272 89.7954 172.877 90.14C171.61 90.4466 170.289 90.4466 169.022 90.14C168.047 89.8846 167.151 89.3883 166.417 88.6967C165.781 88.0942 165.26 87.38 164.882 86.5895C164.439 85.2002 164.19 83.7567 164.142 82.2995C164.114 81.328 164.268 80.3598 164.595 79.4448C164.835 78.802 165.191 78.2089 165.645 77.6954C165.974 77.3357 166.335 77.007 166.723 76.7133C166.867 76.602 166.982 76.5066 167.065 76.4271C167.42 76.2004 167.813 75.9976 168.215 75.8028Z" fill="white"/>
<path d="M176.435 74.3778C176.843 73.9391 177.359 73.6132 177.93 73.4316C178.476 73.2325 179.07 73.2047 179.633 73.352C179.902 73.4307 180.144 73.5811 180.334 73.787C180.524 73.9929 180.654 74.2467 180.711 74.521L181.582 77.3876C181.641 77.6063 181.709 77.8369 181.777 78.0834C181.96 78.754 182.166 79.4776 182.397 80.2542C182.628 81.0494 182.878 81.781 183.157 82.4966L183.952 84.7987C183.992 84.9842 183.982 85.1768 183.924 85.3574C183.866 85.538 183.762 85.7004 183.622 85.8284C183.271 86.2158 182.835 86.5177 182.349 86.7111C181.848 86.928 181.29 86.9768 180.758 86.8503C180.466 86.7633 180.198 86.6106 179.975 86.4038C179.752 86.197 179.579 85.9416 179.47 85.6575C178.73 84.0061 178.067 82.3615 177.481 80.7234C176.891 79.115 176.389 77.4758 175.977 75.8131C175.932 75.5547 175.95 75.2894 176.03 75.0395C176.11 74.7896 176.248 74.5626 176.435 74.3778Z" fill="white"/>
<path d="M181.615 75.0753C181.472 74.7115 181.364 74.3347 181.293 73.9501C181.21 73.5525 181.134 73.0118 181.062 72.3796L193.246 68.4395C193.399 68.4428 193.546 68.4947 193.667 68.5877C193.788 68.6807 193.876 68.8098 193.918 68.9563C194.078 69.3375 194.183 69.7389 194.233 70.1491C194.292 70.6023 194.332 70.996 194.352 71.3419C194.357 71.4525 194.369 71.5627 194.388 71.6719L191.023 72.7255L193.377 83.4247C193.377 83.5479 193.254 83.7348 192.956 83.9813C192.617 84.256 192.252 84.497 191.866 84.701C191.494 84.907 191.091 85.0519 190.673 85.1304C190.311 85.186 190.08 85.0866 189.984 84.8242L186.595 74.3079L182.105 75.6836C181.986 75.6212 181.881 75.535 181.797 75.4303C181.713 75.3257 181.651 75.2048 181.615 75.0753Z" fill="white"/>
<path d="M198.129 66.7262C198.49 66.618 198.867 66.571 199.243 66.587C199.381 66.587 199.518 66.6168 199.644 66.6744C199.769 66.732 199.881 66.8162 199.971 66.921C200.814 68.0581 201.691 69.3185 202.6 70.7021C203.51 72.0857 204.406 73.4879 205.289 74.9086C206.156 76.2631 206.985 77.546 207.775 78.7573C207.855 78.8726 207.799 79.0833 207.6 79.3974C207.359 79.7628 207.074 80.0979 206.753 80.3954C206.397 80.7429 205.995 81.0411 205.56 81.282C205.188 81.5075 204.757 81.6169 204.322 81.5961C204.113 81.57 203.915 81.4889 203.747 81.3611C203.579 81.2332 203.448 81.0633 203.368 80.8685L202.107 78.1967C201.981 77.922 201.836 77.6563 201.673 77.4015C201.552 77.2149 201.404 77.0463 201.236 76.9006C201.174 76.8405 201.099 76.7962 201.017 76.7713C200.934 76.7464 200.847 76.7416 200.762 76.7574C200.679 76.7924 200.605 76.8467 200.547 76.9159C200.489 76.985 200.448 77.067 200.428 77.155C200.366 77.383 200.335 77.6184 200.337 77.8548C200.341 78.1764 200.362 78.4976 200.401 78.8169L200.743 81.4371C200.792 81.6888 200.765 81.9497 200.663 82.1854C200.562 82.4211 200.391 82.6204 200.174 82.7571C199.691 83.0388 199.142 83.1883 198.583 83.1905C198.032 83.2197 197.479 83.1661 196.944 83.0314C196.471 82.9042 196.22 82.7452 196.2 82.5583C196.16 80.6207 196.085 78.6327 195.973 76.5944C195.891 75.1922 195.826 73.8113 195.778 72.4515C195.731 71.0918 195.72 69.793 195.747 68.5551C195.776 68.3251 195.858 68.1049 195.987 67.9123C196.116 67.7197 196.289 67.56 196.49 67.4458C196.989 67.1101 197.544 66.8664 198.129 66.7262ZM199.283 71.3383H199.251C199.17 71.3735 199.1 71.4283 199.045 71.4977C198.991 71.5671 198.955 71.649 198.941 71.7359C198.894 71.9499 198.881 72.1698 198.901 72.3879C198.924 72.631 198.961 72.8727 199.012 73.1115C199.06 73.3501 199.136 73.6244 199.231 73.9385L200.671 73.4733C200.579 73.1592 200.496 72.8889 200.412 72.6781C200.328 72.4504 200.228 72.2286 200.114 72.0142C200.014 71.8177 199.88 71.6412 199.716 71.4933C199.662 71.433 199.594 71.3872 199.517 71.3601C199.441 71.333 199.359 71.3255 199.279 71.3383H199.283Z" fill="white"/>
<path d="M207.744 74.8237C207.214 73.3129 206.753 71.8617 206.36 70.4701C206.292 70.2077 206.205 69.8737 206.09 69.4721C205.901 68.7777 205.706 68.058 205.505 67.3132L205.075 65.703C205.041 65.5522 205.054 65.3943 205.114 65.2516C205.174 65.109 205.277 64.9887 205.409 64.9078C205.772 64.6786 206.178 64.5269 206.603 64.4625C207.1 64.3695 207.604 64.3189 208.11 64.3114C208.555 64.2945 209 64.3225 209.439 64.3949C209.809 64.4585 210.02 64.55 210.075 64.6613C210.258 65.3332 210.473 66.2159 210.751 67.3092C210.998 68.3311 211.261 69.3767 211.547 70.4343C211.833 71.4919 212.088 72.4223 212.342 73.1896C212.463 73.6989 212.675 74.1824 212.967 74.617C213.253 74.772 213.691 74.7442 214.288 74.5414C214.94 74.3087 215.579 74.0433 216.205 73.7463C216.686 73.5316 217.132 73.3487 217.553 73.1737C217.716 73.126 217.951 73.2572 218.245 73.5713C218.568 73.9271 218.837 74.3291 219.041 74.7641C219.269 75.1997 219.388 75.684 219.387 76.1755C219.386 76.3973 219.324 76.6145 219.206 76.8027C219.089 76.991 218.922 77.1428 218.723 77.2411C217.397 78.0151 215.461 78.7586 212.915 79.4716C212.401 79.6331 211.862 79.7017 211.324 79.6744C210.93 79.6505 210.545 79.5449 210.195 79.3642C209.923 79.2246 209.678 79.0389 209.471 78.8156C209.272 78.5837 209.106 78.3255 208.977 78.0482C208.667 77.3922 208.265 76.3346 207.744 74.8237Z" fill="white"/>
<defs>
<linearGradient id="paint0_linear_984_2656" x1="501.738" y1="216.934" x2="502.214" y2="459.08" gradientUnits="userSpaceOnUse">
<stop stop-color="#363636" stop-opacity="0.96"/>
<stop offset="1" stop-color="#363636" stop-opacity="0"/>
</linearGradient>
</defs>
</svg>
