<svg width="680" height="568" viewBox="0 0 680 568" fill="none" xmlns="http://www.w3.org/2000/svg">
<path d="M0.337891 202.961C3.4714 201.299 6.86016 200.502 10.1257 199.258C19.2226 195.841 28.3414 192.482 37.4471 189.089C38.8862 188.553 39.9072 188.863 40.651 190.486C42.5566 194.655 43.4721 199.16 44.1014 203.703C44.8698 209.132 45.2802 214.616 45.3293 220.112C45.3777 227.134 42.9263 233.103 39.7092 238.797C38.3625 241.182 36.8442 243.444 35.4182 245.775C35.1102 246.267 34.9781 246.817 34.1683 246.537C28.5571 244.57 23.0338 242.362 18.1179 238.694C13.8005 235.478 11.1027 230.625 8.39171 225.855C5.00783 219.859 2.30258 213.418 0.337891 206.678V202.961Z" fill="#F2F1F0"/>
<path d="M419.02 220.255C420.847 219.764 421.894 220.344 421.714 221.77C421.568 222.906 420.833 223.634 419.874 223.221C418.659 222.685 418.703 223.407 418.633 224.297C418.012 232.135 417.401 239.978 416.749 247.816C415.631 261.225 414.197 274.59 412.515 287.921C410.399 304.639 407.872 321.314 404.484 337.796C401.843 350.699 398.762 363.469 394.507 375.84C394.031 377.217 394.106 377.743 395.55 378.132C402.323 379.951 409.008 382.134 415.794 383.929C420.156 385.085 424.227 384.308 428.333 382.808C439.432 378.751 450.06 373.416 460.623 367.914C462.097 367.147 463.079 366.97 463.893 368.706C464.945 370.953 466.454 371.351 468.386 370.107C468.664 369.945 468.96 369.826 469.266 369.753C471.41 369.119 473.056 368.16 473.733 365.357C474.288 363.085 476.048 361.581 478.064 360.528C480.405 359.304 482.628 357.794 484.921 356.452C485.836 355.916 486.949 355.085 487.799 356.172C488.648 357.258 488.094 358.542 487.359 359.564C486.58 360.681 485.73 361.733 484.789 362.977H498.872C498.273 360.602 503.303 362.579 500.816 362.977C499.271 363.228 503.104 364.074 502.14 362.977C501.176 361.88 503.014 364.846 503.023 363.066C503.054 357.052 503.597 368.986 503.905 362.977C502.29 363.154 503.998 361.192 503.905 362.977C496.675 363.149 511.11 362.19 503.905 362.977C507.061 362.903 506.492 363.159 509.643 363.066C511.403 363.011 510.526 362.88 513.174 362.977C516.704 363.066 515.191 363.066 518.227 362.977C520.676 363.066 518.911 363.066 520.676 363.066C520.97 363.303 531.899 362.911 532.257 362.977C534.492 363.462 530.873 362.172 533.034 362.977C533.657 363.172 529.904 367.493 533.475 362.88C533.38 362.164 533.903 363.422 533.475 362.88C534.105 366.209 533.378 359.511 533.624 362.88C533.681 363.696 535.284 362.973 534.404 362.88C534.774 362.88 532.309 362.657 534.404 362.88C531.764 362.713 535.655 358.645 535.277 363.066H543.912C546.451 363.066 548.99 363.066 551.525 363.066C551.935 363.066 552.441 362.913 552.634 363.528C552.784 364.019 552.432 364.27 552.194 364.585C550.645 366.64 549.017 367.875 546.266 367.796C536.927 367.516 527.575 367.697 518.227 367.673C517.185 367.695 516.156 367.932 515.191 368.371C510.002 370.505 505.178 373.859 499.598 374.68C494.572 375.413 489.52 376.062 484.463 376.268C480.392 376.44 477.03 378.56 473.434 380.118C472.756 380.413 472.712 380.748 473.17 381.308C473.388 381.642 473.625 381.961 473.879 382.262C474.93 383.246 474.693 383.87 473.553 384.622C464.509 390.558 455.509 396.581 446.469 402.521C443.23 404.65 439.841 406.499 436.637 408.697C428.874 414.022 420.354 414.74 411.6 413.963C404.941 413.354 398.419 411.878 391.637 410.403C393.904 414.745 396.984 417.779 400.439 420.341C404.118 423.142 408.191 425.235 412.489 426.532C414.373 427.078 414.852 428.036 414.562 429.93C414.53 430.432 414.53 430.937 414.562 431.439C416.626 429.807 418.523 428.248 420.503 426.743C431.066 418.63 441.985 411.308 454.131 406.494C461.793 403.455 469.588 402.467 477.65 404.154C487.5 406.209 494.097 412.513 497.714 422.839C500.447 430.628 501.508 438.81 502.168 447.071C502.943 456.777 503.273 466.508 503.207 476.249C503.207 477.415 503.594 477.793 504.527 477.98C516.85 480.498 529.173 483.029 541.495 485.572C556.488 488.654 571.482 491.745 586.478 494.846C587.226 494.999 588.318 494.91 588.071 496.454C587.983 496.985 588.428 497.093 588.819 497.128C590.17 497.261 591.526 497.379 592.881 497.531C593.528 497.6 593.762 497.295 593.762 496.597C593.791 495.828 593.995 495.081 594.354 494.425C594.714 493.77 595.217 493.227 595.817 492.85C604.641 486.649 610.895 477.356 618.372 469.533C620.176 467.649 622.007 465.796 623.847 463.947C624.397 463.391 625.035 462.732 625.81 463.273C626.69 463.888 626.325 464.886 626.078 465.732C624.212 471.942 621.726 477.862 619.265 483.792C616.546 490.352 613.839 496.921 610.956 503.392C609.042 507.68 609.772 508.226 604.355 512.243C604.408 512.332 604.447 512.489 604.513 512.509C606.613 513.084 606.525 514.338 605.644 516.192C604.479 518.695 603.433 521.265 602.511 523.892C601.855 525.736 600.856 526.07 599.316 525.416C595.83 523.941 592.714 521.714 589.537 519.585C589.123 519.309 588.705 519.044 588.01 518.601C588.45 520.853 587.283 520.647 586.148 520.652C573.526 520.725 560.899 520.716 548.299 520.932C529.748 521.26 511.2 521.675 492.658 522.176C474.614 522.668 456.53 522.791 438.464 522.668C424.86 522.594 411.274 521.881 397.702 520.76C388.935 520.037 380.142 520.485 371.362 520.367C359.734 520.214 348.102 520.411 336.493 519.57C335.485 519.501 333.949 519.722 333.795 518.586C333.676 517.711 335.274 517.406 336.202 517.111C344.027 514.613 352.046 513.669 360.152 513.178C361.816 513.069 363.484 512.996 365.464 512.892C362.26 511.309 359.303 509.942 356.381 508.388C344.577 502.138 333.775 493.758 324.407 483.586C322.81 481.855 321.182 480.144 319.716 478.285C318.836 477.189 318.365 477.218 317.375 478.138C301.694 492.718 285.326 506.351 268.343 518.98C266.746 520.224 264.837 520.873 262.89 520.834C247.725 520.76 232.559 520.834 217.393 520.78C205.07 520.721 192.758 520.575 180.455 520.342C176.569 520.273 172.666 520.204 168.797 519.614C168.3 519.535 167.626 519.526 167.516 519C167.354 518.218 168.115 518.06 168.603 517.854C172.784 516.059 177.199 515.425 181.582 514.633C191.955 512.765 202.311 514.304 212.662 514.918C222.344 515.489 232.026 516.32 241.708 517.136C249.098 517.765 256.491 518.444 264.017 519.309C263.176 518.611 262.353 517.888 261.5 517.215C248.349 506.775 235.177 496.376 222.52 485.184C200.99 466.15 180.645 445.704 162.957 422.155C154.815 411.308 146.893 400.264 141.498 387.288C136.366 374.936 132.696 362.018 129.663 348.87C125.205 329.55 122.094 309.94 119.541 290.203C116.588 267.229 114.48 244.158 112.847 221.027C111.492 201.821 110.465 182.595 109.767 163.349C109.306 150.236 108.938 137.124 108.662 124.011C108.42 112.264 108.42 100.512 108.222 88.7648C108.195 87.0929 108.662 86.734 110.079 86.7487C136.749 87.0192 163.419 87.3781 190.093 87.329C203.09 87.329 216.09 87.6043 229.082 87.4126C246.47 87.1569 263.85 86.8274 281.238 87.0979C300.359 87.3962 319.481 87.5142 338.605 87.4519C354.88 87.4191 371.155 87.3306 387.43 87.1864C398.811 87.0979 410.193 86.9471 421.577 86.734C423.17 86.6996 423.531 87.2257 423.509 88.8779C423.342 101.038 423.276 113.203 423.095 125.363C422.845 142.146 422.259 158.913 421.511 175.676C420.869 190.015 420.164 204.353 419.047 218.662C418.985 219.075 419.02 219.562 419.02 220.255Z" fill="#222221"/>
<path d="M597.304 164.359C599.064 164.409 600.314 165.289 601.634 165.835C609.684 169.114 617.737 172.389 625.752 175.772C634.29 179.376 642.784 183.114 651.418 186.423C652.901 186.993 653.491 188.552 653.179 190.445C652.105 197.142 649.354 203.107 646.494 208.973C643.602 214.816 640.383 220.449 636.855 225.839C631.741 233.761 625.413 239.765 617.196 243.374C612.249 245.547 607.188 247.253 602.123 248.97C600.895 249.387 600.182 249.063 599.447 247.829C595.046 240.414 590.777 232.935 588.207 224.403C586.222 217.839 586.31 211.191 586.741 204.405C587.153 198.106 587.945 191.845 589.113 185.666C590.28 179.401 591.569 173.137 594.394 167.472C595.116 165.992 595.935 164.61 597.304 164.359Z" fill="#F2F1F0"/>
<path d="M42.6855 469.202C42.6855 450.92 55.5937 436.626 72.1018 436.626C87.8618 436.626 100.95 451.378 100.946 469.119C100.956 477.751 97.8963 486.034 92.4404 492.145C86.9844 498.257 79.579 501.696 71.8532 501.707C64.1274 501.718 56.714 498.3 51.244 492.204C45.774 486.108 42.6955 477.834 42.6855 469.202V469.202Z" fill="#FF8025"/>
<path d="M549.449 313.257C549.039 313.227 548.885 312.809 548.634 312.529C548.317 312.175 548.555 311.9 548.766 311.683C550.923 309.539 553.093 307.41 555.245 305.261C555.685 304.848 555.896 305.173 556.125 305.473C556.354 305.773 556.754 306.122 556.376 306.505C554.14 308.757 551.873 310.975 549.616 313.198C549.603 313.237 549.528 313.232 549.449 313.257Z" fill="#282827"/>
<path d="M530.118 292.124C529.709 294.322 529.313 296.411 528.943 298.516C528.815 299.239 528.503 299.357 527.896 299.199C527.288 299.042 527.213 298.708 527.363 298.054C527.803 296.047 528.16 294.017 528.52 291.986C528.635 291.347 528.648 290.747 529.52 291.003C530.184 291.214 530.254 291.597 530.118 292.124Z" fill="#2B2B2A"/>
<path d="M499.575 300.739C498.99 300.916 498.915 300.35 498.81 299.923C498.312 297.956 497.855 295.989 497.348 294.022C497.177 293.348 497.348 293.073 497.934 292.817C498.634 292.503 498.814 292.911 498.95 293.481C499.443 295.522 499.861 297.592 500.447 299.603C500.759 300.685 500.02 300.478 499.575 300.739Z" fill="#2E2D2C"/>
<path d="M474.276 317.431C476.037 318.056 477.797 318.656 479.509 319.31C480.09 319.526 479.866 320.096 479.751 320.534C479.637 320.972 479.364 321.144 478.915 320.976C477.293 320.377 475.663 319.8 474.026 319.246C473.919 319.233 473.817 319.19 473.729 319.122C473.641 319.053 473.57 318.961 473.521 318.854C473.473 318.747 473.45 318.628 473.453 318.509C473.457 318.389 473.487 318.272 473.541 318.169C473.665 317.756 473.792 317.362 474.276 317.431Z" fill="#2A2A29"/>
<path d="M559.944 333.351C560.494 333.243 560.885 333.312 560.973 334.094C561.061 334.875 560.789 335.008 560.194 335.111C558.685 335.372 557.18 335.672 555.692 336.051C555.037 336.223 554.79 335.987 554.684 335.323C554.579 334.659 554.816 334.339 555.428 334.217C556.938 333.951 558.438 333.641 559.944 333.351Z" fill="#2E2E2C"/>
<path d="M479.738 344.82C480.257 344.742 480.689 344.737 480.768 345.548C480.843 346.281 480.583 346.531 479.998 346.595C478.717 346.772 477.445 346.998 476.169 347.2C475.698 347.274 475.32 347.2 475.245 346.536C475.17 345.872 475.218 345.45 475.901 345.361C477.181 345.194 478.475 345.002 479.738 344.82Z" fill="#2D2D2C"/>
<path d="M330.374 556.486C330.247 557.386 329.886 558.103 328.895 558.138C327.822 558.177 327.271 557.489 327.285 556.397C327.275 556.172 327.31 555.947 327.385 555.738C327.461 555.529 327.576 555.341 327.722 555.186C327.869 555.031 328.044 554.913 328.235 554.84C328.426 554.768 328.629 554.742 328.829 554.765C329.793 554.76 330.238 555.424 330.374 556.486Z" fill="#2F2E2D"/>
<path d="M678.328 467.659C679.512 467.659 680 468.377 680 469.346C680 470.467 679.366 471.087 678.332 471.023C678.131 471.028 677.931 470.983 677.747 470.892C677.562 470.801 677.398 470.666 677.266 470.496C677.134 470.326 677.038 470.125 676.983 469.909C676.928 469.692 676.917 469.465 676.95 469.243C677.003 468.274 677.518 467.6 678.328 467.659Z" fill="#2E2E2D"/>
<path d="M420.979 16.7417C421.859 16.9335 422.554 17.5187 422.554 18.4776C422.571 18.7184 422.539 18.9603 422.461 19.1855C422.383 19.4108 422.26 19.6136 422.103 19.7791C421.946 19.9447 421.757 20.0687 421.551 20.1421C421.345 20.2156 421.127 20.2366 420.913 20.2036C420.713 20.212 420.514 20.1715 420.33 20.085C420.145 19.9984 419.98 19.868 419.845 19.7026C419.711 19.5373 419.61 19.3411 419.551 19.1278C419.491 18.9145 419.474 18.6892 419.5 18.4677C419.514 17.3859 420.191 16.9679 420.979 16.7417Z" fill="#313130"/>
<path d="M61.3282 424.668C61.3018 426.315 60.7253 426.935 59.8451 426.935C59.6282 426.954 59.4102 426.919 59.2072 426.831C59.0041 426.744 58.8213 426.606 58.6722 426.429C58.523 426.252 58.4114 426.04 58.3455 425.809C58.2796 425.577 58.2612 425.332 58.2915 425.091C58.3356 423.994 58.9913 423.493 59.8759 423.522C60.7605 423.552 61.3503 424.117 61.3282 424.668Z" fill="#2C2C2B"/>
<path d="M33.7412 28.1114C33.6048 29.0948 33.2615 29.852 32.2977 29.9405C32.0844 29.9851 31.8648 29.9742 31.6559 29.9086C31.447 29.843 31.2544 29.7246 31.0931 29.5624C30.9318 29.4003 30.806 29.1988 30.7257 28.9736C30.6453 28.7483 30.6125 28.5055 30.6297 28.2638C30.6072 28.0404 30.629 27.8142 30.6936 27.6013C30.7582 27.3884 30.8641 27.1941 31.0036 27.0321C31.1431 26.8701 31.3129 26.7445 31.5008 26.6642C31.6887 26.5838 31.8902 26.5508 32.0908 26.5674C33.0547 26.5281 33.5036 27.187 33.7412 28.1114Z" fill="#2D2D2C"/>
<path d="M541.21 5.25555C541.157 6.31766 540.607 6.91263 539.696 6.88804C538.785 6.86346 538.19 6.33732 538.19 5.22605C538.166 4.98556 538.192 4.74213 538.265 4.51423C538.337 4.28633 538.456 4.07995 538.611 3.91075C538.765 3.74156 538.953 3.61399 539.158 3.53773C539.364 3.46147 539.582 3.43852 539.797 3.47063C539.999 3.46787 540.2 3.51388 540.385 3.60551C540.57 3.69715 540.735 3.83227 540.869 4.00166C541.003 4.17105 541.103 4.37074 541.162 4.58712C541.221 4.8035 541.237 5.03148 541.21 5.25555V5.25555Z" fill="#2D2D2C"/>
<path d="M461.263 6.31571C461.043 7.29914 460.625 7.99246 459.648 7.95312C458.578 7.90887 458.099 7.16146 458.174 6.06985C458.248 4.97824 458.842 4.50128 459.802 4.5947C460.761 4.68813 461.135 5.37653 461.263 6.31571Z" fill="#2D2C2C"/>
<path d="M103.577 501.305C103.385 501.301 103.196 501.254 103.021 501.165C102.846 501.077 102.689 500.95 102.559 500.792C102.43 500.633 102.33 500.448 102.267 500.245C102.204 500.043 102.178 499.828 102.191 499.614C102.191 498.503 102.807 497.868 103.85 497.927C104.05 497.919 104.25 497.961 104.434 498.049C104.618 498.138 104.782 498.272 104.914 498.441C105.046 498.609 105.143 498.809 105.197 499.025C105.251 499.24 105.262 499.467 105.227 499.688C105.179 500.691 104.655 501.305 103.577 501.305Z" fill="#2D2C2B"/>
<path d="M612.257 43.6557C610.998 43.6213 610.496 42.987 610.496 41.984C610.496 40.8727 611.068 40.2188 612.124 40.2925C612.325 40.2861 612.525 40.3286 612.709 40.4172C612.894 40.5058 613.059 40.6382 613.193 40.8053C613.327 40.9724 613.427 41.1701 613.486 41.3847C613.544 41.5993 613.56 41.8256 613.533 42.0479C613.48 43.0509 612.926 43.6459 612.257 43.6557Z" fill="#2C2C2B"/>
<path d="M229.101 566.451C228.009 566.422 227.543 565.738 227.516 564.755C227.491 564.533 227.511 564.307 227.574 564.094C227.637 563.881 227.742 563.687 227.881 563.525C228.019 563.363 228.188 563.237 228.376 563.158C228.563 563.078 228.764 563.046 228.964 563.063C230.016 563.063 230.592 563.712 230.553 564.819C230.558 565.034 230.524 565.248 230.453 565.448C230.383 565.649 230.276 565.831 230.14 565.983C230.004 566.136 229.842 566.256 229.663 566.337C229.485 566.417 229.293 566.456 229.101 566.451V566.451Z" fill="#2C2C2B"/>
<path d="M640.922 142.933C640.878 143.99 640.416 144.64 639.447 144.674C639.244 144.7 639.039 144.676 638.845 144.605C638.651 144.533 638.473 144.416 638.324 144.26C638.175 144.104 638.057 143.914 637.98 143.703C637.903 143.492 637.867 143.264 637.876 143.036C637.859 142.808 637.885 142.578 637.951 142.362C638.018 142.145 638.124 141.946 638.263 141.778C638.402 141.61 638.571 141.476 638.759 141.384C638.947 141.293 639.15 141.246 639.355 141.247C640.235 141.222 640.825 141.871 640.922 142.933Z" fill="#313130"/>
<path d="M105.834 266.783C105.827 267.001 105.779 267.215 105.693 267.411C105.608 267.608 105.488 267.782 105.34 267.924C105.191 268.067 105.019 268.173 104.832 268.237C104.645 268.301 104.449 268.322 104.254 268.297C104.054 268.319 103.852 268.29 103.664 268.213C103.475 268.135 103.304 268.012 103.164 267.851C103.023 267.69 102.917 267.496 102.853 267.283C102.789 267.07 102.769 266.843 102.793 266.62C102.793 265.43 103.458 264.84 104.417 264.914C105.293 264.983 105.826 265.657 105.834 266.783Z" fill="#2E2E2D"/>
<path d="M290.814 564.625C290.825 564.846 290.796 565.068 290.728 565.276C290.66 565.484 290.554 565.675 290.418 565.836C290.282 565.997 290.117 566.126 289.935 566.213C289.752 566.301 289.556 566.346 289.357 566.345C289.16 566.38 288.958 566.366 288.766 566.304C288.573 566.242 288.396 566.134 288.245 565.987C288.094 565.841 287.974 565.659 287.892 565.455C287.81 565.251 287.77 565.03 287.773 564.806C287.707 563.641 288.266 562.972 289.274 562.977C289.474 562.961 289.675 562.991 289.865 563.067C290.054 563.143 290.227 563.263 290.372 563.418C290.517 563.573 290.632 563.761 290.708 563.969C290.784 564.177 290.82 564.4 290.814 564.625V564.625Z" fill="#2B2B2A"/>
<path d="M310.772 561.427C310.618 562.361 310.28 563.079 309.281 563.123C308.282 563.168 307.767 562.632 307.714 561.584C307.652 560.444 308.185 559.76 309.223 559.745C310.187 559.731 310.605 560.444 310.772 561.427Z" fill="#2E2D2C"/>
<path d="M502.361 418.813C502.303 419.974 501.731 420.549 500.833 420.564C500.631 420.58 500.429 420.549 500.238 420.473C500.047 420.396 499.873 420.275 499.727 420.119C499.581 419.962 499.466 419.772 499.39 419.563C499.313 419.353 499.278 419.128 499.284 418.902C499.266 418.66 499.297 418.417 499.374 418.19C499.45 417.963 499.571 417.757 499.727 417.589C499.883 417.421 500.071 417.293 500.277 417.216C500.483 417.138 500.701 417.113 500.917 417.141C501.112 417.14 501.304 417.182 501.483 417.267C501.663 417.351 501.825 417.475 501.96 417.631C502.095 417.788 502.2 417.973 502.269 418.176C502.338 418.379 502.369 418.596 502.361 418.813V418.813Z" fill="#30302F"/>
<path d="M337.251 77.0885C337.258 77.3105 337.223 77.5317 337.15 77.7382C337.077 77.9446 336.966 78.1318 336.824 78.288C336.683 78.4441 336.514 78.5659 336.328 78.6455C336.143 78.7251 335.944 78.7609 335.746 78.7505C334.751 78.7505 334.179 78.0965 334.232 76.9213C334.285 75.746 334.914 75.3625 335.812 75.3871C336.71 75.4117 337.207 76.046 337.251 77.0885Z" fill="#2E2E2D"/>
<path d="M441.651 12.0042C441.682 12.4959 441.118 13.1056 440.234 13.1695C439.265 13.2384 438.592 12.6778 438.592 11.4781C438.573 11.2546 438.598 11.0291 438.666 10.8178C438.734 10.6065 438.843 10.4146 438.986 10.2558C439.128 10.097 439.299 9.97524 439.489 9.89925C439.678 9.82326 439.88 9.7949 440.08 9.8162C440.999 9.79653 441.58 10.2931 441.651 12.0042Z" fill="#2E2D2C"/>
<path d="M579.746 18.0984C579.517 19.0376 579.085 19.667 578.104 19.6474C577.123 19.6277 576.63 18.9934 576.647 17.9804C576.63 17.7391 576.661 17.4964 576.74 17.2709C576.819 17.0455 576.943 16.8432 577.103 16.6795C577.263 16.5158 577.454 16.395 577.662 16.3265C577.869 16.2579 578.088 16.2434 578.302 16.2839C579.231 16.3675 579.636 17.1149 579.746 18.0984Z" fill="#2D2C2B"/>
<path d="M555.871 390.496C556.074 390.479 556.277 390.511 556.468 390.59C556.659 390.668 556.832 390.791 556.977 390.95C557.122 391.109 557.235 391.301 557.309 391.512C557.382 391.724 557.414 391.951 557.403 392.177C557.403 393.245 556.818 393.933 555.753 393.884C554.758 393.835 554.322 393.141 554.362 392.138C554.353 391.916 554.387 391.695 554.46 391.488C554.534 391.281 554.645 391.094 554.788 390.939C554.93 390.784 555.1 390.665 555.287 390.588C555.474 390.512 555.673 390.48 555.871 390.496V390.496Z" fill="#2D2D2C"/>
<path d="M629.383 160.667C630.338 160.8 630.972 161.296 631.025 162.324C631.058 162.564 631.041 162.809 630.976 163.04C630.91 163.272 630.798 163.483 630.648 163.659C630.498 163.834 630.314 163.968 630.11 164.052C629.906 164.135 629.687 164.164 629.471 164.138C629.272 164.157 629.071 164.126 628.883 164.048C628.696 163.97 628.526 163.846 628.386 163.686C628.247 163.525 628.14 163.332 628.075 163.121C628.01 162.909 627.988 162.684 628.01 162.462C628.001 161.35 628.626 160.932 629.383 160.667Z" fill="#2C2C2B"/>
<path d="M519.627 407.321C519.583 408.462 518.98 409.052 518.113 409.052C517.136 409.052 516.542 408.398 516.591 407.213C516.639 406.028 517.273 405.639 518.166 405.669C518.362 405.657 518.558 405.692 518.742 405.771C518.925 405.85 519.091 405.972 519.229 406.128C519.367 406.284 519.474 406.471 519.542 406.677C519.611 406.882 519.64 407.102 519.627 407.321Z" fill="#2E2D2C"/>
<path d="M367.364 51.0152C366.462 50.8136 365.841 50.317 365.846 49.2599C365.846 48.07 366.532 47.5341 367.514 47.5882C368.495 47.6423 368.904 48.2864 368.869 49.3582C368.834 50.4301 368.169 50.8382 367.364 51.0152Z" fill="#2E2E2D"/>
<path d="M625.773 56.6775C625.966 56.678 626.158 56.722 626.335 56.8067C626.513 56.8914 626.674 57.0151 626.808 57.1706C626.943 57.3261 627.047 57.5101 627.117 57.7118C627.186 57.9134 627.219 58.1286 627.212 58.3445C627.227 58.5866 627.194 58.8293 627.116 59.0556C627.038 59.2819 626.916 59.4864 626.76 59.6546C626.603 59.8229 626.416 59.9508 626.21 60.0295C626.005 60.1081 625.786 60.1355 625.571 60.1099C625.369 60.1078 625.171 60.0586 624.987 59.9654C624.804 59.8723 624.641 59.7372 624.507 59.569C624.374 59.4008 624.273 59.2031 624.212 58.9888C624.151 58.7745 624.131 58.5483 624.153 58.3248C624.193 57.2528 624.774 56.7463 625.773 56.6775Z" fill="#313130"/>
<path d="M189.755 554.18C189.95 554.178 190.144 554.22 190.325 554.305C190.505 554.39 190.667 554.516 190.802 554.674C190.937 554.832 191.042 555.02 191.109 555.225C191.176 555.43 191.205 555.649 191.194 555.867C191.21 556.109 191.177 556.351 191.098 556.577C191.019 556.803 190.896 557.006 190.738 557.172C190.58 557.338 190.39 557.462 190.184 557.536C189.977 557.609 189.758 557.631 189.543 557.598C189.342 557.595 189.143 557.544 188.959 557.449C188.776 557.355 188.612 557.218 188.479 557.049C188.346 556.879 188.246 556.68 188.186 556.465C188.126 556.249 188.107 556.022 188.131 555.798C188.175 554.761 188.751 554.22 189.755 554.18Z" fill="#313030"/>
<path d="M22.3178 71.1103C22.3178 72.3446 21.7544 72.8805 20.8302 72.8658C19.906 72.851 19.2943 72.3052 19.2987 71.2382C19.2795 70.9963 19.3088 70.7526 19.3846 70.525C19.4604 70.2973 19.5806 70.0914 19.7366 69.9223C19.8926 69.7532 20.0805 69.6251 20.2864 69.5473C20.4923 69.4696 20.7112 69.4442 20.9271 69.4729C21.7588 69.5319 22.397 70.1269 22.3178 71.1103Z" fill="#2E2E2D"/>
<path d="M154.071 538.746C154.014 539.788 153.525 540.496 152.645 540.585C152.431 540.623 152.213 540.607 152.005 540.538C151.798 540.469 151.607 540.348 151.447 540.185C151.287 540.022 151.163 539.821 151.082 539.596C151.001 539.372 150.967 539.13 150.982 538.889C150.961 538.665 150.985 538.439 151.051 538.227C151.117 538.014 151.224 537.82 151.364 537.659C151.504 537.497 151.674 537.372 151.861 537.291C152.049 537.211 152.251 537.177 152.452 537.192C153.393 537.143 153.882 537.763 154.071 538.746Z" fill="#2F2F2E"/>
<path d="M538.124 398.39C537.921 399.295 537.582 400.038 536.583 400.057C535.496 400.057 535.003 399.418 535.03 398.287C535.018 398.063 535.05 397.838 535.125 397.63C535.2 397.421 535.315 397.233 535.462 397.08C535.609 396.927 535.785 396.812 535.976 396.744C536.168 396.675 536.371 396.655 536.57 396.684C537.503 396.714 537.965 397.387 538.124 398.39Z" fill="#2D2D2C"/>
<path d="M382.776 529.141C382.576 529.148 382.378 529.106 382.194 529.017C382.011 528.929 381.847 528.798 381.714 528.632C381.58 528.465 381.481 528.269 381.423 528.055C381.365 527.842 381.349 527.617 381.376 527.396C381.398 526.294 381.9 525.748 382.882 525.773C383.084 525.753 383.288 525.784 383.479 525.864C383.67 525.943 383.843 526.068 383.985 526.231C384.127 526.394 384.236 526.59 384.302 526.805C384.368 527.02 384.391 527.248 384.369 527.474C384.351 528.502 383.762 529.087 382.776 529.141Z" fill="#2C2C2A"/>
<path d="M579.282 199.699C579.083 199.734 578.879 199.721 578.685 199.659C578.491 199.597 578.312 199.489 578.159 199.342C578.006 199.195 577.884 199.013 577.8 198.808C577.717 198.603 577.674 198.381 577.675 198.155C577.644 197.916 577.661 197.672 577.727 197.441C577.792 197.21 577.903 196.999 578.051 196.823C578.2 196.647 578.382 196.511 578.585 196.425C578.787 196.339 579.004 196.305 579.22 196.326C579.42 196.307 579.622 196.338 579.811 196.415C580 196.493 580.171 196.615 580.313 196.775C580.454 196.934 580.563 197.126 580.631 197.337C580.7 197.549 580.726 197.774 580.708 197.998C580.739 198.22 580.725 198.447 580.666 198.663C580.607 198.878 580.505 199.075 580.368 199.239C580.23 199.403 580.061 199.53 579.872 199.61C579.684 199.69 579.482 199.72 579.282 199.699Z" fill="#2E2E2D"/>
<path d="M440.293 219.066C441.27 219.066 441.789 219.621 441.794 220.669C441.798 221.716 441.353 222.394 440.394 222.444C440.178 222.473 439.96 222.448 439.754 222.371C439.548 222.294 439.36 222.167 439.204 221.998C439.047 221.829 438.927 221.623 438.851 221.396C438.776 221.169 438.746 220.925 438.766 220.683C438.752 220.459 438.782 220.234 438.855 220.025C438.929 219.816 439.042 219.627 439.188 219.473C439.334 219.318 439.509 219.201 439.7 219.131C439.891 219.061 440.093 219.038 440.293 219.066V219.066Z" fill="#2E2E2D"/>
<path d="M482.061 218.287C481.898 219.221 481.388 219.929 480.486 219.88C480.269 219.889 480.053 219.843 479.854 219.747C479.655 219.65 479.477 219.505 479.335 219.322C479.192 219.14 479.088 218.923 479.03 218.69C478.972 218.456 478.961 218.211 478.998 217.972C479.001 217.747 479.047 217.525 479.133 217.322C479.219 217.118 479.344 216.938 479.499 216.794C479.654 216.65 479.835 216.545 480.03 216.487C480.225 216.429 480.428 216.419 480.627 216.457C481.551 216.526 482.017 217.195 482.061 218.287Z" fill="#2E2E2D"/>
<path d="M270.757 566.174C270.718 567.226 270.221 567.836 269.292 567.885C268.363 567.934 267.774 567.462 267.721 566.356C267.664 565.176 268.236 564.527 269.23 564.517C270.128 564.507 270.669 565.132 270.757 566.174Z" fill="#2E2E2D"/>
<path d="M522.041 213.379C521.918 214.417 521.487 215.036 520.492 215.002C520.292 215.019 520.092 214.988 519.903 214.912C519.715 214.835 519.543 214.714 519.4 214.557C519.257 214.4 519.146 214.21 519.074 214.001C519.002 213.792 518.971 213.568 518.983 213.345C518.966 213.103 518.998 212.861 519.078 212.636C519.157 212.411 519.281 212.209 519.44 212.045C519.6 211.881 519.79 211.76 519.998 211.69C520.205 211.62 520.424 211.604 520.638 211.643C521.623 211.692 521.975 212.42 522.041 213.379Z" fill="#2D2D2C"/>
<path d="M118.803 512.692C119.824 512.844 120.344 513.365 120.33 514.452C120.346 514.676 120.318 514.901 120.249 515.111C120.18 515.322 120.071 515.514 119.929 515.673C119.787 515.832 119.616 515.955 119.428 516.034C119.24 516.112 119.039 516.145 118.838 516.128C117.883 516.128 117.28 515.46 117.333 514.265C117.386 513.07 118.051 512.81 118.803 512.692Z" fill="#2D2D2C"/>
<path d="M349.495 549.504C349.301 550.512 348.822 551.166 347.858 551.122C346.894 551.078 346.428 550.429 346.463 549.352C346.498 548.275 347.035 547.729 348.003 547.769C348.971 547.808 349.39 548.521 349.495 549.504Z" fill="#2B2B2A"/>
<path d="M460.497 221.299C460.299 221.339 460.095 221.328 459.9 221.268C459.706 221.209 459.526 221.101 459.374 220.953C459.221 220.806 459.1 220.622 459.02 220.416C458.939 220.209 458.901 219.985 458.908 219.76C458.893 219.532 458.919 219.304 458.985 219.088C459.05 218.872 459.153 218.673 459.289 218.502C459.424 218.332 459.589 218.193 459.773 218.095C459.957 217.996 460.157 217.94 460.361 217.93C460.565 217.919 460.769 217.955 460.96 218.033C461.152 218.112 461.327 218.233 461.476 218.389C461.625 218.545 461.744 218.733 461.827 218.941C461.91 219.15 461.955 219.374 461.958 219.602C461.975 219.824 461.949 220.048 461.882 220.258C461.815 220.467 461.709 220.659 461.571 220.819C461.433 220.98 461.265 221.106 461.08 221.188C460.895 221.271 460.696 221.309 460.497 221.299V221.299Z" fill="#2C2C2B"/>
<path d="M674.893 447.669C674.9 447.891 674.864 448.113 674.789 448.32C674.714 448.526 674.602 448.713 674.458 448.868C674.315 449.023 674.144 449.142 673.956 449.218C673.769 449.295 673.569 449.326 673.37 449.311C672.415 449.311 671.808 448.642 671.861 447.452C671.913 446.262 672.565 445.869 673.441 445.913C674.316 445.957 674.884 446.562 674.893 447.669Z" fill="#2D2D2C"/>
<path d="M560.039 202.901C560.986 202.965 561.527 203.58 561.514 204.583C561.534 204.823 561.505 205.065 561.427 205.291C561.35 205.516 561.227 205.718 561.068 205.881C560.909 206.044 560.718 206.163 560.51 206.23C560.303 206.297 560.084 206.309 559.872 206.265C558.895 206.196 558.455 205.513 558.495 204.504C558.534 203.496 559.08 202.931 560.039 202.901Z" fill="#2C2C2B"/>
<path d="M575.752 387.04C576.654 387.138 577.218 387.65 577.235 388.712C577.259 388.934 577.238 389.159 577.176 389.371C577.113 389.583 577.01 389.778 576.874 389.941C576.737 390.105 576.571 390.233 576.385 390.317C576.2 390.401 576 390.439 575.801 390.428C574.806 390.467 574.212 389.843 574.221 388.668C574.23 387.492 574.859 387.148 575.752 387.04Z" fill="#2C2C2B"/>
<path d="M66.0946 316.06C65.9714 317.132 65.5973 317.845 64.5983 317.889C63.5993 317.933 63.0888 317.427 63.0491 316.315C63.0095 315.204 63.4892 314.604 64.4442 314.535C65.3993 314.466 65.8482 315.194 66.0946 316.06Z" fill="#2C2B2B"/>
<path d="M402.537 28.925C401.534 28.8955 400.979 28.3399 400.949 27.2729C400.925 27.0451 400.947 26.8144 401.011 26.5968C401.076 26.3792 401.182 26.1797 401.322 26.0124C401.462 25.845 401.633 25.7136 401.823 25.6273C402.013 25.541 402.218 25.5019 402.423 25.5126C402.628 25.4999 402.832 25.534 403.025 25.6128C403.217 25.6916 403.393 25.8134 403.542 25.9709C403.691 26.1283 403.809 26.318 403.89 26.5284C403.971 26.7387 404.012 26.9653 404.012 27.1942C404.034 28.217 403.426 28.8316 402.537 28.925Z" fill="#2E2E2D"/>
<path d="M26.4984 49.2215C26.4148 50.2885 25.8514 50.9719 24.9844 50.967C24.7685 50.9867 24.5513 50.9521 24.3488 50.8658C24.1463 50.7795 23.9637 50.6437 23.8143 50.4683C23.6649 50.2929 23.5525 50.0824 23.4854 49.8522C23.4183 49.622 23.3982 49.3779 23.4265 49.1379C23.4793 48.0807 24.0822 47.5595 25.002 47.5743C25.9218 47.589 26.3972 48.2627 26.4984 49.2215Z" fill="#2F2F2E"/>
<path d="M88.5588 278.881C89.5314 279.009 90.1431 279.565 90.1475 280.578C90.1475 281.684 89.571 282.323 88.5147 282.284C87.4585 282.245 87.0888 281.581 87.0888 280.597C87.0818 280.376 87.1145 280.156 87.185 279.949C87.2555 279.742 87.3625 279.553 87.4995 279.393C87.6365 279.233 87.8009 279.105 87.9828 279.017C88.1647 278.929 88.3606 278.883 88.5588 278.881V278.881Z" fill="#2C2C2B"/>
<path d="M52.4737 360.626C51.5935 360.439 51.0213 359.893 51.0478 358.855C51.0742 357.818 51.5407 357.218 52.5397 357.237C53.5387 357.257 54.1549 357.926 54.0977 359.013C54.0405 359.996 53.3979 360.547 52.4737 360.626Z" fill="#2C2C2B"/>
<path d="M56.021 403.551C55.823 404.672 55.2288 405.336 54.3574 405.311C54.153 405.318 53.9496 405.275 53.7614 405.186C53.5731 405.096 53.4044 404.962 53.2668 404.793C53.1293 404.624 53.0261 404.424 52.9644 404.206C52.9027 403.988 52.884 403.758 52.9095 403.531C52.8946 403.303 52.9258 403.075 53.0008 402.862C53.0759 402.65 53.1928 402.459 53.3429 402.304C53.493 402.149 53.6725 402.034 53.868 401.967C54.0634 401.9 54.2698 401.884 54.4719 401.918C55.4269 401.967 55.845 402.675 56.021 403.551Z" fill="#2E2E2D"/>
<path d="M595.928 30.3038C595.048 30.1317 594.397 29.6007 594.37 28.6025C594.339 27.4961 594.969 26.8323 595.985 26.852C596.932 26.852 597.429 27.5256 597.429 28.5632C597.429 29.6007 596.769 30.0727 595.928 30.3038Z" fill="#2F2F2E"/>
<path d="M651.3 412.266C650.332 412.197 649.742 411.558 649.738 410.594C649.716 410.354 649.743 410.111 649.816 409.884C649.889 409.656 650.008 409.45 650.162 409.281C650.316 409.111 650.502 408.983 650.707 408.904C650.912 408.826 651.129 408.8 651.344 408.829C652.295 408.873 652.77 409.547 652.761 410.57C652.753 411.593 652.18 412.153 651.3 412.266Z" fill="#2B2B2A"/>
<path d="M95.8364 158.378C94.9782 158.25 94.3533 157.773 94.3709 156.697C94.3518 156.455 94.3811 156.212 94.4566 155.985C94.5321 155.757 94.652 155.552 94.8075 155.383C94.963 155.214 95.1502 155.086 95.3556 155.007C95.561 154.929 95.7794 154.903 95.9949 154.931C96.1957 154.937 96.3932 154.99 96.5747 155.086C96.7563 155.182 96.9179 155.319 97.0492 155.489C97.1805 155.659 97.2787 155.858 97.3373 156.072C97.396 156.287 97.414 156.513 97.39 156.736C97.368 157.828 96.7739 158.29 95.8364 158.378Z" fill="#302F2E"/>
<path d="M76.303 150.143C76.4997 150.126 76.6973 150.157 76.8824 150.233C77.0675 150.309 77.2357 150.429 77.3756 150.584C77.5155 150.74 77.6238 150.927 77.6931 151.133C77.7625 151.34 77.7912 151.56 77.7773 151.78C77.8029 152.002 77.785 152.228 77.7249 152.442C77.6648 152.655 77.5639 152.852 77.4291 153.018C77.2944 153.184 77.1291 153.315 76.9445 153.403C76.76 153.491 76.5606 153.532 76.3602 153.526C76.145 153.555 75.9268 153.53 75.7211 153.454C75.5155 153.377 75.3276 153.25 75.171 153.083C75.0144 152.916 74.893 152.711 74.8155 152.485C74.7381 152.259 74.7065 152.017 74.723 151.775C74.7274 150.787 75.3524 150.211 76.303 150.143Z" fill="#2D2C2B"/>
<path d="M386.089 37.4472C386.027 38.5486 385.539 39.1682 384.606 39.2026C384.406 39.229 384.203 39.2078 384.012 39.1406C383.82 39.0734 383.643 38.9615 383.492 38.8125C383.342 38.6634 383.221 38.4805 383.139 38.2757C383.056 38.0709 383.013 37.8489 383.012 37.6242C382.986 37.3836 383.009 37.1396 383.079 36.9101C383.148 36.6806 383.263 36.4715 383.415 36.2983C383.566 36.125 383.751 35.9921 383.955 35.9092C384.159 35.8264 384.377 35.7958 384.592 35.8196C385.525 35.8295 386.001 36.4834 386.089 37.4472Z" fill="#2E2E2D"/>
<path d="M27.7995 116.431C26.9898 116.328 26.334 115.984 26.2812 114.858C26.2284 113.732 26.7213 113.102 27.6015 113.019C27.8143 112.976 28.0329 112.988 28.2411 113.053C28.4493 113.118 28.6416 113.235 28.8037 113.395C28.9658 113.555 29.0934 113.753 29.1771 113.976C29.2608 114.199 29.2984 114.44 29.2871 114.681C29.3399 115.763 28.7414 116.264 27.7995 116.431Z" fill="#2B2B2A"/>
<path d="M642.374 100.496C642.174 100.496 641.977 100.447 641.796 100.353C641.615 100.259 641.455 100.122 641.326 99.9514C641.197 99.7812 641.103 99.5817 641.05 99.3667C640.997 99.1518 640.986 98.9265 641.018 98.7065C641.067 97.6051 641.621 97.0593 642.576 97.1232C642.78 97.114 642.983 97.1547 643.171 97.2424C643.359 97.3301 643.527 97.4628 643.664 97.631C643.801 97.7992 643.904 97.999 643.965 98.2162C644.025 98.4335 644.043 98.6629 644.015 98.8884C643.963 99.921 643.377 100.472 642.374 100.496Z" fill="#2A2A29"/>
<path d="M21.2882 95.3096C20.3596 95.2752 19.7434 94.7638 19.6818 93.7411C19.6497 93.5013 19.6667 93.2566 19.7315 93.0252C19.7963 92.7938 19.9072 92.5819 20.0559 92.4053C20.2046 92.2288 20.3872 92.0922 20.59 92.0059C20.7928 91.9196 21.0104 91.8858 21.2266 91.9071C21.6117 91.9299 21.9749 92.1147 22.2431 92.4243C22.5113 92.734 22.6647 93.1455 22.6725 93.5764C22.6803 94.0072 22.542 94.4253 22.2852 94.7469C22.0284 95.0684 21.6722 95.2694 21.2882 95.3096V95.3096Z" fill="#2D2D2C"/>
<path d="M135.099 525.755C136.001 525.888 136.622 526.355 136.648 527.452C136.674 528.548 136.173 529.124 135.191 529.148C134.21 529.173 133.669 528.656 133.638 527.55C133.607 526.444 134.206 525.957 135.099 525.755Z" fill="#2A2A29"/>
<path d="M665.942 427.537C665.748 428.57 665.308 429.185 664.331 429.165C663.354 429.145 662.83 428.541 662.844 427.528C662.824 427.286 662.855 427.043 662.932 426.817C663.009 426.59 663.131 426.387 663.29 426.221C663.448 426.055 663.638 425.932 663.845 425.86C664.052 425.788 664.271 425.77 664.485 425.807C665.414 425.87 665.823 426.628 665.942 427.537Z" fill="#2C2C2B"/>
<path d="M41.8041 10.0957C40.6731 10.0957 40.1934 9.35805 40.1934 8.42375C40.2006 8.20096 40.247 7.98194 40.33 7.7792C40.413 7.57646 40.5309 7.39397 40.677 7.24214C40.8231 7.09032 40.9945 6.97213 41.1815 6.89433C41.3685 6.81653 41.5673 6.78064 41.7667 6.78871C41.9661 6.79678 42.1621 6.84866 42.3436 6.94137C42.525 7.03409 42.6883 7.16583 42.8242 7.32907C42.9601 7.49231 43.0659 7.68386 43.1355 7.89278C43.2051 8.1017 43.2372 8.32389 43.23 8.54668C43.1772 9.57442 42.6403 10.1645 41.8041 10.0957Z" fill="#2D2D2C"/>
<path d="M250.665 566.326C250.476 567.339 249.974 568.047 249.072 567.998C248.856 568.005 248.64 567.959 248.442 567.863C248.243 567.766 248.066 567.622 247.924 567.44C247.781 567.258 247.676 567.043 247.617 566.81C247.557 566.578 247.545 566.333 247.58 566.095C247.582 565.87 247.627 565.648 247.713 565.444C247.799 565.241 247.923 565.061 248.078 564.917C248.233 564.773 248.413 564.668 248.608 564.61C248.802 564.552 249.006 564.542 249.204 564.58C250.115 564.659 250.582 565.342 250.665 566.326Z" fill="#2D2D2C"/>
<path d="M645.201 121.679C645.162 122.279 644.642 122.883 643.696 122.854C643.492 122.86 643.289 122.816 643.102 122.727C642.914 122.638 642.746 122.504 642.608 122.336C642.47 122.168 642.366 121.968 642.304 121.752C642.241 121.535 642.22 121.305 642.244 121.079C642.244 120.046 642.842 119.471 643.824 119.495C644.805 119.52 645.267 120.115 645.201 121.679Z" fill="#2A2A29"/>
<path d="M636.212 398.087C636.093 399.154 635.569 399.803 634.658 399.798C634.458 399.794 634.261 399.745 634.078 399.656C633.895 399.566 633.729 399.437 633.591 399.276C633.452 399.115 633.343 398.924 633.27 398.716C633.198 398.508 633.162 398.286 633.166 398.063C633.17 397.839 633.214 397.619 633.294 397.414C633.374 397.209 633.49 397.024 633.634 396.87C633.778 396.715 633.948 396.593 634.135 396.512C634.321 396.431 634.52 396.391 634.72 396.396C635.622 396.455 636.102 397.133 636.212 398.087Z" fill="#2D2D2C"/>
<path d="M615.73 392.54C614.775 392.393 614.207 391.812 614.194 390.795C614.172 390.572 614.194 390.346 614.258 390.133C614.322 389.921 614.427 389.726 614.565 389.564C614.703 389.401 614.872 389.275 615.059 389.192C615.245 389.11 615.446 389.075 615.646 389.088C615.862 389.061 616.081 389.089 616.285 389.17C616.49 389.251 616.676 389.382 616.829 389.554C616.982 389.726 617.099 389.934 617.17 390.164C617.241 390.393 617.265 390.637 617.239 390.878C617.204 391.911 616.566 392.402 615.73 392.54Z" fill="#2D2D2B"/>
<path d="M53.4437 381.404C53.25 382.388 52.7835 383.096 51.8241 383.037C50.8647 382.978 50.407 382.329 50.4202 381.252C50.4334 380.175 50.9967 379.639 51.9562 379.678C52.9156 379.718 53.3425 380.391 53.4437 381.404Z" fill="#292928"/>
<path d="M540.259 207.881C541.395 207.989 541.91 208.629 541.879 209.651C541.888 209.878 541.853 210.104 541.776 210.314C541.698 210.524 541.58 210.712 541.43 210.865C541.28 211.018 541.102 211.133 540.908 211.2C540.714 211.267 540.509 211.286 540.308 211.254C539.309 211.225 538.869 210.586 538.878 209.528C538.866 209.317 538.893 209.106 538.958 208.907C539.022 208.709 539.122 208.527 539.251 208.372C539.38 208.218 539.536 208.095 539.71 208.011C539.883 207.926 540.07 207.882 540.259 207.881V207.881Z" fill="#282827"/>
<path d="M500.651 214.405C501.032 214.413 501.395 214.586 501.664 214.888C501.932 215.19 502.085 215.597 502.09 216.023C502.101 216.475 501.951 216.914 501.672 217.243C501.393 217.572 501.009 217.763 500.604 217.776C500.199 217.788 499.806 217.62 499.512 217.309C499.218 216.998 499.046 216.569 499.035 216.116C499.022 215.098 499.563 214.479 500.651 214.405Z" fill="#2D2C2B"/>
<path d="M57.6916 142.319C57.8804 142.317 58.0674 142.361 58.2399 142.446C58.4124 142.532 58.5664 142.658 58.6915 142.816C58.8167 142.974 58.91 143.161 58.9653 143.362C59.0205 143.564 59.0364 143.777 59.0119 143.986C59.0234 144.213 58.991 144.441 58.9167 144.654C58.8425 144.866 58.7282 145.058 58.5817 145.216C58.4351 145.375 58.2597 145.497 58.0674 145.573C57.8751 145.649 57.6704 145.678 57.4671 145.658C56.5517 145.658 55.9972 145.043 56.006 143.942C56.0148 142.84 56.5077 142.299 57.6916 142.319Z" fill="#292928"/>
<path d="M501.105 1.1839C501.105 2.65915 500.629 3.31809 499.687 3.35743C499.485 3.3837 499.28 3.36093 499.086 3.29067C498.893 3.22042 498.715 3.10434 498.565 2.95033C498.415 2.79633 498.296 2.60802 498.218 2.39823C498.139 2.18845 498.101 1.96212 498.107 1.73466C498.081 1.50921 498.099 1.27997 498.162 1.06354C498.224 0.847107 498.329 0.648888 498.469 0.483226C498.608 0.317564 498.779 0.188603 498.968 0.105671C499.158 0.022739 499.361 -0.0120901 499.564 0.00370627C500.541 -0.0405511 501.061 0.485621 501.105 1.1839Z" fill="#292928"/>
<path d="M75.207 299.016C74.1992 298.908 73.6843 298.303 73.7063 297.271C73.6928 297.045 73.7224 296.82 73.7931 296.608C73.8639 296.397 73.9741 296.205 74.1166 296.045C74.259 295.885 74.4303 295.76 74.6191 295.68C74.8079 295.6 75.0098 295.565 75.2115 295.579C75.4286 295.56 75.6467 295.596 75.8496 295.684C76.0525 295.773 76.2349 295.911 76.3831 296.09C76.5312 296.268 76.6414 296.481 76.7052 296.714C76.7691 296.947 76.785 297.192 76.7518 297.433C76.7456 297.651 76.7005 297.865 76.6191 298.064C76.5377 298.262 76.4216 298.44 76.2777 298.588C76.1338 298.735 75.9649 298.849 75.7811 298.923C75.5972 298.996 75.4021 299.028 75.207 299.016V299.016Z" fill="#2D2D2C"/>
<path d="M366.214 541.612C365.246 541.563 364.678 541.071 364.669 539.965C364.646 539.742 364.667 539.517 364.731 539.305C364.794 539.092 364.898 538.898 365.035 538.735C365.173 538.572 365.34 538.444 365.526 538.361C365.712 538.278 365.913 538.241 366.113 538.254C366.315 538.228 366.52 538.252 366.713 538.325C366.906 538.397 367.083 538.516 367.23 538.673C367.377 538.831 367.492 539.022 367.566 539.234C367.64 539.446 367.671 539.674 367.657 539.901C367.673 540.122 367.648 540.344 367.582 540.553C367.516 540.763 367.412 540.954 367.276 541.115C367.14 541.277 366.975 541.404 366.792 541.49C366.609 541.576 366.412 541.617 366.214 541.612V541.612Z" fill="#292827"/>
<path d="M170.709 550.048C169.684 549.954 169.182 549.32 169.2 548.307C169.184 548.08 169.211 547.852 169.281 547.638C169.351 547.425 169.461 547.23 169.605 547.069C169.748 546.907 169.921 546.782 170.112 546.702C170.302 546.622 170.506 546.589 170.709 546.606C170.925 546.589 171.142 546.626 171.343 546.714C171.545 546.803 171.726 546.94 171.873 547.117C172.021 547.294 172.131 547.505 172.197 547.736C172.262 547.966 172.28 548.21 172.25 548.45C172.184 549.472 171.537 549.964 170.709 550.048Z" fill="#2D2D2C"/>
<path d="M597.316 388.071C597.21 389.055 596.735 389.699 595.762 389.664C595.565 389.658 595.371 389.609 595.191 389.519C595.011 389.429 594.849 389.3 594.713 389.14C594.578 388.98 594.472 388.792 594.402 388.586C594.331 388.38 594.298 388.161 594.303 387.941C594.309 387.721 594.353 387.504 594.434 387.303C594.514 387.102 594.629 386.92 594.772 386.769C594.916 386.617 595.084 386.499 595.268 386.42C595.453 386.342 595.649 386.305 595.846 386.311C596.81 386.335 597.285 386.965 597.316 388.071Z" fill="#282827"/>
<path d="M352.521 62.4835C352.526 62.7049 352.487 62.9248 352.408 63.1277C352.328 63.3305 352.21 63.5113 352.061 63.6573C351.912 63.8032 351.736 63.9107 351.545 63.9722C351.355 64.0336 351.154 64.0474 350.959 64.0127C350.762 64.005 350.568 63.954 350.388 63.8625C350.209 63.7711 350.047 63.6411 349.913 63.4799C349.778 63.3187 349.674 63.1295 349.605 62.9231C349.536 62.7167 349.504 62.4972 349.511 62.277C349.518 62.0568 349.563 61.8403 349.645 61.6398C349.727 61.4393 349.843 61.2588 349.988 61.1086C350.132 60.9584 350.301 60.8414 350.486 60.7643C350.671 60.6872 350.867 60.6515 351.064 60.6592C351.988 60.7182 352.503 61.3526 352.521 62.4835Z" fill="#282827"/>
<path d="M559.257 8.59888C560.181 8.70705 560.801 9.25774 560.81 10.305C560.827 10.5307 560.8 10.7577 560.732 10.9707C560.663 11.1838 560.554 11.3779 560.413 11.5401C560.272 11.7023 560.101 11.8287 559.912 11.9108C559.723 11.9929 559.521 12.0288 559.318 12.0161C559.116 12.0379 558.912 12.009 558.721 11.9317C558.53 11.8543 558.356 11.7304 558.214 11.5689C558.071 11.4074 557.962 11.2124 557.895 10.998C557.828 10.7837 557.804 10.5553 557.826 10.3296C557.8 9.21349 558.328 8.71196 559.257 8.59888Z" fill="#2B2B2A"/>
<path d="M210.648 561.305C210.591 562.45 210.063 563.07 209.13 563.065C208.927 563.083 208.722 563.051 208.531 562.972C208.34 562.893 208.167 562.767 208.023 562.605C207.88 562.443 207.77 562.248 207.701 562.034C207.632 561.819 207.606 561.591 207.625 561.364C207.625 560.302 208.193 559.746 209.152 559.721C210.112 559.697 210.596 560.316 210.648 561.305Z" fill="#292928"/>
<path d="M481.055 2.87364C481.055 3.91118 480.593 4.56026 479.629 4.61927C479.428 4.65363 479.222 4.63775 479.027 4.57276C478.832 4.50778 478.652 4.3953 478.501 4.24343C478.349 4.09155 478.23 3.90405 478.151 3.69441C478.072 3.48477 478.036 3.2582 478.044 3.031C478.016 2.80595 478.033 2.57679 478.093 2.35975C478.154 2.14272 478.256 1.94313 478.393 1.77514C478.529 1.60715 478.698 1.47487 478.886 1.38768C479.073 1.30049 479.276 1.26053 479.479 1.27062C480.421 1.22636 480.98 1.75743 481.055 2.87364Z" fill="#282827"/>
<path d="M519.674 4.16618C518.794 3.9695 518.186 3.41389 518.199 2.39608C518.199 1.26519 518.882 0.660405 519.881 0.724325C520.88 0.788245 521.298 1.49628 521.24 2.51409C521.183 3.5319 520.585 4.05801 519.674 4.16618Z" fill="#2D2D2C"/>
<path d="M58.2972 336.999C58.1607 338.022 57.6326 338.646 56.6996 338.622C55.7666 338.597 55.2384 337.943 55.2604 336.876C55.2824 335.809 55.837 335.239 56.8008 335.268C57.7646 335.298 58.2223 335.947 58.2972 336.999Z" fill="#282827"/>
<path d="M42.1161 131.917C42.0149 132.94 41.4911 133.603 40.5889 133.584C40.389 133.578 40.192 133.528 40.0094 133.436C39.8267 133.345 39.662 133.215 39.5244 133.052C39.3869 132.89 39.2794 132.699 39.2079 132.49C39.1365 132.282 39.1025 132.059 39.108 131.836C39.1135 131.612 39.1583 131.392 39.2399 131.188C39.3215 130.984 39.4383 130.8 39.5836 130.647C39.7288 130.493 39.8998 130.373 40.0866 130.293C40.2735 130.213 40.4726 130.175 40.6726 130.181C41.588 130.23 42.0897 130.86 42.1161 131.917Z" fill="#2D2D2C"/>
<path d="M637.711 77.5834C637.508 78.6898 636.963 79.3143 636.056 79.2258C635.839 79.2267 635.625 79.1729 635.43 79.0684C635.234 78.9639 635.062 78.8114 634.927 78.6223C634.791 78.4332 634.696 78.2123 634.648 77.9762C634.599 77.7401 634.599 77.4949 634.648 77.2588C634.758 76.1868 635.427 75.7246 636.324 75.8327C637.222 75.9409 637.654 76.6933 637.711 77.5834Z" fill="#2D2C2B"/>
<path d="M291.931 431.183C292.708 431.753 293.296 432.593 293.603 433.573C298.994 448.28 306.586 461.463 315.806 473.525C317.611 475.88 317.883 475.216 315.428 477.459C300.037 491.695 283.992 505.022 267.356 517.386C266.189 518.252 265.503 518.247 264.337 517.288C253.937 508.717 243.269 500.569 232.966 491.832C212.48 474.474 192.957 455.897 175.313 434.94C165.433 423.193 156.112 410.9 148.278 397.333C141.76 386.023 137.786 373.48 134.313 360.715C129.151 341.744 125.718 322.36 122.871 302.795C121.031 290.197 119.495 277.55 118.188 264.869C117.132 254.587 116.353 244.266 115.442 233.959C114.197 220.034 113.396 206.044 112.612 192.079C112.04 181.812 111.71 171.526 111.292 161.249C110.707 146.989 110.412 132.68 110.126 118.385C109.941 109.043 109.98 99.7296 109.853 90.4016C109.831 88.9265 110.104 88.4053 111.56 88.4348C122.756 88.6462 133.953 88.7691 145.149 88.8724C153.132 88.9412 161.12 88.8232 169.103 88.9855C188.779 89.3789 208.457 89.4461 228.138 89.1871C247.503 88.9412 266.867 88.6216 286.232 88.9412C303.189 89.2166 320.119 89.2264 337.094 89.251C344.461 89.251 351.828 89.315 359.191 89.1428C375.77 88.7593 392.357 88.956 408.923 88.7495C412.633 88.7003 416.343 88.6315 420.048 88.4495C421.435 88.3807 421.971 88.6855 421.941 90.4164C421.725 103.201 421.663 115.986 421.443 128.771C421.294 137.399 421.046 146.027 420.7 154.655C420.048 171.412 419.335 188.17 418.31 204.908C417.513 217.86 416.633 230.802 415.511 243.72C413.979 261.373 412.135 278.991 409.706 296.526C406.713 318.161 403.065 339.6 397.432 360.582C396.045 365.73 394.509 370.824 392.784 375.85C392.546 376.548 392.458 377.231 391.415 376.956C384.748 375.186 378.032 373.735 370.77 373.135C373.178 371.926 375.237 371.031 377.187 369.89C382.503 366.782 383.379 362.441 379.858 356.978C378.234 354.455 376.593 351.942 374.894 349.479C374.366 348.712 374.295 348.23 375.074 347.674C375.477 347.35 375.842 346.972 376.161 346.548C377.715 344.67 377.75 342.9 376.113 341.105C374.568 339.418 372.896 337.874 371.272 336.261C370.533 335.529 369.459 335.052 369.952 333.498C370.211 332.692 369.454 332.746 369.155 332.928C367.866 333.724 367.258 332.598 366.457 331.9C366.77 331.123 367.426 331.01 367.989 330.916C368.755 330.803 368.917 330.292 368.816 329.628C368.684 328.792 368.042 329.19 367.606 329.136C367.361 329.159 367.119 329.211 366.884 329.289C366.035 329.407 365.467 330.789 364.591 330.238C363.435 329.44 362.345 328.528 361.335 327.514C360.736 326.963 361.335 326.496 361.625 326.225C363.57 324.401 365.251 322.469 365.146 319.312C365.146 318.535 365.956 318.146 366.391 317.581C368.407 314.96 368.851 312.344 365.454 310.938C364.776 310.658 364.864 310.328 364.97 309.718C365.269 308.37 365.216 306.953 364.816 305.637C364.662 301.521 365.643 297.558 366.136 293.531C367.571 281.336 368.825 269.122 369.815 256.868C370.827 244.349 371.63 231.815 372.223 219.267C372.619 210.721 372.9 202.16 373.142 193.599C373.459 182.481 373.349 171.353 373.82 160.241C373.847 159.621 373.82 158.997 373.82 158.377C373.82 157.285 373.38 156.695 372.381 156.695C371.822 156.695 371.268 156.695 370.709 156.695H162.784C160.341 156.72 160.244 156.803 160.244 159.469C160.244 168.241 160.315 177.013 160.565 185.785C160.86 196.205 161.248 206.62 161.644 217.034C161.952 225.039 162.392 233.03 162.894 241.015C163.507 250.797 164.278 260.566 165.208 270.322C166.036 278.838 166.912 287.355 168.056 295.827C170.639 314.916 173.729 333.882 179.692 352.105C182.315 360.174 185.999 367.761 190.624 374.616C197.166 384.345 204.376 393.491 212.189 401.97C225.551 416.422 240.043 429.369 255.187 441.416C258.664 444.184 262.228 446.825 265.573 449.775C266.607 450.699 267.307 450.552 268.319 449.721C275.559 443.796 282.975 438.146 290.104 432.058C290.637 431.591 291.183 431.109 291.931 431.183Z" fill="#FF8025"/>
<path d="M291.936 431.196C284.824 437.421 277.412 443.155 270.058 449.031C269.007 449.872 267.99 451.42 266.942 451.43C265.895 451.44 264.914 449.867 263.862 449.041C253.198 440.637 242.596 432.14 232.5 422.886C216.093 407.844 200.866 391.524 188.376 372.214C182.214 362.655 178.628 351.813 175.736 340.651C171.406 323.903 168.787 306.771 166.705 289.512C163.788 265.359 162.106 241.048 161.028 216.679C160.496 204.877 160.082 193.076 159.919 181.275C159.813 173.54 159.778 165.795 159.62 158.061C159.585 156.404 159.897 155.843 161.508 155.848C231.824 155.894 302.139 155.894 372.452 155.848C373.799 155.848 374.393 156.074 374.375 157.844C374.142 181.673 373.592 205.487 372.267 229.276C371.387 244.721 370.287 260.142 368.782 275.523C367.866 284.865 366.7 294.154 365.393 303.433C365.256 304.17 365.082 304.899 364.873 305.616C364.496 304.223 363.83 302.949 362.928 301.898C361.234 299.779 360.354 299.892 359.271 302.39C358.976 303.069 358.703 303.767 358.47 304.475C356.71 309.85 353.475 313.655 348.911 316.276C342.618 319.92 336.148 323.234 330.37 327.901C329.9 328.233 329.34 328.369 328.79 328.284C325.353 328.186 322.003 328.682 318.843 330.276C317.91 330.767 317.598 330.31 317.642 329.386C317.699 328.137 317.338 327.724 316.154 327.871C299.844 329.951 285 336.048 272.215 347.796C269.441 350.352 266.932 353.246 264.733 356.425C260.367 362.719 259.967 369.864 261.305 377.294C263.092 387.207 267.444 395.841 272.395 404.132C277.932 413.406 284.388 421.863 291.152 430.031C291.438 430.424 291.676 430.822 291.936 431.196Z" fill="white"/>
<path d="M363.094 375.74C365.81 374.55 368.415 374.869 370.968 375.022C380.271 375.578 389.245 378.149 398.219 380.726C404.723 382.594 411.149 384.812 417.794 386.081C421.28 386.749 424.545 385.953 427.807 384.827C439.086 380.932 449.811 375.484 460.493 369.972C461.813 369.288 462.447 369.48 463.34 370.744C466.034 374.614 468.868 378.361 471.702 382.117C472.301 382.919 472.371 383.302 471.478 383.902C458.781 392.419 446.119 400.999 433.017 408.724C426.944 412.309 420.378 412.717 413.715 412.338C405.48 411.847 397.475 409.703 389.39 408.139C389.207 408.141 389.024 408.163 388.844 408.203C390.451 412.629 393.052 416.11 396.238 419.08C400.806 423.338 406.057 426.171 411.686 428.187C412.412 428.442 413.068 428.496 413.006 429.701C412.566 443.927 411.835 458.108 408.508 471.945C404.107 490.188 394.737 504.398 380.782 514.946C380.452 515.235 380.064 515.43 379.652 515.516C379.24 515.602 378.815 515.575 378.414 515.437C356.29 508.932 337.392 496.344 321.641 477.885C310.225 464.53 301.177 449.419 294.932 432.278C294.588 431.339 293.946 430.709 293.36 430.011C283.898 418.672 274.96 406.9 268.367 393.132C265.441 387.025 263.143 380.657 262.426 373.689C261.774 367.361 262.954 361.642 266.677 356.666C274.515 346.192 284.664 339.608 295.935 334.912C301.74 332.493 307.756 331.018 313.873 329.961C315.577 329.671 316.241 330.118 316.404 332.105C316.813 337.194 317.363 342.268 317.94 347.348C318.103 348.823 317.76 349.462 316.426 349.954C309.987 352.334 303.54 354.758 297.858 359.061C289.963 365.03 289.109 371.467 295.363 380.49C299.082 385.854 304.028 386.169 309.402 384.974C312.184 384.355 314.987 383.838 317.764 383.165C318.776 382.919 319.194 383.243 319.524 384.276C320.792 388.087 322.165 391.844 323.415 395.659C323.763 396.736 324.207 397.134 325.237 397.174C326.839 397.213 328.436 397.503 330.038 397.666C331.055 397.754 331.596 398.113 331.394 399.45C331.218 400.606 331.315 401.909 330.712 402.843C329.66 404.476 330.1 405.508 331.152 406.895C338.035 415.918 346.613 422.497 355.67 428.413C359.56 430.95 363.482 433.428 367.368 435.971C368.305 436.58 368.688 436.585 368.802 435.179C369.952 421.499 370.85 407.798 371.496 394.076C371.575 392.414 371.364 391.096 369.973 390.28C368.789 389.587 368.987 388.402 369.304 387.403C370.105 384.896 369.599 383.002 367.786 381.242C366.144 379.634 364.793 377.731 363.094 375.74Z" fill="white"/>
<path d="M382.662 515.711C386.603 512.557 390.302 509.042 393.722 505.203C402.524 495.078 407.836 482.898 410.767 469.307C413.174 458.116 413.971 446.688 414.429 435.251C414.464 434.39 414.53 433.722 415.247 433.132C426.919 423.553 439.052 414.879 452.629 408.998C460.419 405.625 468.363 404.081 476.747 405.763C486.293 407.661 492.722 413.532 496.23 423.558C498.928 431.293 499.958 439.411 500.631 447.593C501.366 456.744 501.604 465.924 501.626 475.129C501.626 476.713 501.626 477.396 499.768 476.983C491.477 475.124 483.146 473.507 474.819 471.849C473.635 471.613 473.09 471.117 472.962 469.666C472.64 465.474 471.976 461.322 470.977 457.265C470.67 456.004 470.244 454.782 469.705 453.621C468.636 451.409 467.016 451.163 465.595 453.13C464.456 454.762 463.397 456.461 462.421 458.219C460.731 461.105 459.064 464.007 457.448 466.942C456.955 467.842 456.498 468.063 455.521 467.827C452.568 467.109 449.575 466.588 446.595 466.023C446.155 465.934 445.491 465.437 445.332 466.544C445.174 467.65 445.72 467.611 446.389 467.749C460.41 470.627 474.43 473.52 488.449 476.427L539.435 486.945C554.543 490.068 569.647 493.229 584.765 496.288C586.191 496.573 586.525 497.119 586.525 498.643C586.449 504.724 586.449 510.808 586.525 516.896C586.525 518.371 586.301 518.863 584.849 518.863C578.168 518.804 571.483 518.863 564.806 518.971C545.442 519.305 526.078 519.556 506.748 520.097C480.466 520.83 454.178 521.198 427.891 520.712C415.045 520.471 402.194 519.895 389.475 517.515C387.165 517.112 384.888 516.509 382.662 515.711V515.711Z" fill="white"/>
<path d="M354.867 392.568C347.297 387.248 341.083 380.551 337.373 371.257C336.682 369.531 336.646 367.638 336.127 365.878C335.845 364.929 336.611 364.712 337.073 364.348C339.599 362.382 342.143 360.415 344.775 358.399C342.594 356.623 340.894 354.21 339.859 351.426C339.574 350.662 339.425 349.844 339.419 349.017C339.419 348.033 339.608 347.227 340.392 346.711C340.766 346.458 341.203 346.345 341.638 346.39C342.073 346.434 342.485 346.632 342.812 346.956C343.586 347.523 344.276 348.219 344.859 349.022C345.739 350.448 346.747 349.882 347.609 349.346C348.472 348.81 347.609 348.043 347.429 347.433C346.549 344.783 345.58 342.192 344.986 339.433C344.835 338.835 344.806 338.206 344.902 337.593C344.997 336.98 345.214 336.399 345.536 335.893C348.283 331.556 352.257 328.851 356.147 326.034C356.781 325.576 357.058 326.162 357.402 326.457C363.004 331.231 368.672 335.912 373.918 341.208C376.295 343.603 376.273 344.945 373.505 346.671C371.907 347.655 371.92 348.368 373.012 349.71C373.892 350.777 374.535 352.06 375.388 353.152C376.242 354.244 375.829 354.814 374.904 355.37C373.544 356.201 372.048 356.196 370.578 356.289C369.936 356.329 369.531 356.437 369.553 357.322C369.575 358.207 370.054 358.123 370.552 358.113C372.545 358.074 374.513 357.887 376.207 356.545C376.907 355.989 377.307 355.896 377.791 356.801C378.57 358.276 379.688 359.476 380.031 361.265C380.586 364.157 380.199 365.607 377.976 367.264C374.495 369.856 370.494 371.124 366.604 372.649C365.921 372.97 365.21 373.21 364.483 373.367C361.217 373.809 359.677 376.096 358.717 379.395C357.6 383.26 356.482 387.12 355.491 391.029C355.409 391.595 355.193 392.126 354.867 392.568V392.568Z" fill="white"/>
<path d="M303.462 383.797C301.486 384.014 300.038 382.735 298.652 381.506C295.548 378.813 293.472 374.908 292.838 370.575C292.398 367.806 293.753 365.658 295.333 363.755C298.295 360.18 302.155 358.11 306.045 356.172C310.054 354.204 314.17 352.519 318.368 351.127C319.512 350.739 320.093 350.242 319.649 348.86C319.575 348.668 319.544 348.459 319.556 348.251C319.666 347.267 318.729 345.974 319.864 345.354C320.885 344.799 322.906 346.269 323.28 347.533C325.128 353.787 328.53 358.906 332.786 363.327C334.273 364.871 334.762 366.725 335.079 368.79C335.162 369.153 335.144 369.535 335.028 369.887C334.911 370.238 334.702 370.542 334.427 370.757C332.438 372.625 330.577 374.646 329.401 377.302C329.283 377.538 329.12 377.742 328.923 377.899C328.726 378.056 328.5 378.163 328.262 378.211C320.155 381.009 311.943 383.153 303.462 383.797Z" fill="white"/>
<path d="M624.108 466.679C623.056 469.516 622.057 472.373 620.944 475.176C616.983 485.109 612.833 494.933 608.559 504.679C607.574 507.07 605.916 509.036 603.837 510.275C601.777 511.504 601.738 512.689 603.692 514.037C604.348 514.489 604.352 514.828 604.066 515.512C603.045 517.936 602.037 520.37 601.104 522.838C600.748 523.777 600.268 523.905 599.524 523.551C596.003 521.879 592.755 519.618 589.49 517.4C588.852 516.967 588.883 516.451 589.107 515.841C590.278 512.67 591.748 509.832 594.731 508.264C596.994 507.079 597.944 504.537 598.692 502.053C599.132 500.632 598.147 500.047 597.095 499.526C594.819 498.395 594.454 496 596.549 494.456C606.46 487.218 613.537 476.612 622.167 467.859C622.66 467.367 623.162 466.876 623.659 466.384L624.108 466.679Z" fill="white"/>
<path d="M358.301 427.926C348.865 422.06 339.971 415.407 332.802 406.207C332.093 405.298 331.618 404.658 332.269 403.232C333.074 401.477 332.964 399.343 333.149 397.332C333.224 396.511 332.951 396.284 332.269 396.211C330.363 396.009 328.471 395.625 326.548 395.483C325.496 395.404 324.919 395.109 324.541 393.89C323.463 390.448 322.257 387.065 321.02 383.691C320.633 382.629 320.809 382.32 321.812 382.079C323.682 381.635 325.525 381.062 327.331 380.363C328.414 379.94 328.924 380.195 329.563 381.262C333.378 387.655 337.128 394.111 342.07 399.456C344.834 402.441 346.586 405.942 347.967 409.782C350.423 416.563 354.34 422.173 358.798 427.395C358.86 427.838 358.71 428.035 358.301 427.926Z" fill="white"/>
<path d="M335.6 372.012C336.142 372.066 336.115 372.587 336.261 372.926C340.191 382.141 346.462 388.912 354.142 394.164C355.291 394.946 355.462 395.6 355.022 396.917C354.182 399.376 353.464 401.835 352.764 404.347C352.443 405.493 352.065 405.631 351.096 405.06C346.401 402.287 342.779 398.176 339.526 393.623C336.533 389.409 333.765 385.013 331.037 380.582C330.425 379.599 330.368 378.802 330.931 377.78C332.057 375.795 333.447 374.014 335.055 372.499C335.231 372.317 335.433 372.159 335.6 372.012Z" fill="white"/>
<path d="M466.393 372.324C468.47 371.469 470.411 370.642 472.374 369.866C472.782 369.742 473.151 369.492 473.438 369.144C473.725 368.796 473.917 368.364 473.993 367.899C474.277 366.447 474.882 365.098 475.752 363.973C476.622 362.849 477.73 361.986 478.975 361.462C481.22 360.439 483.288 358.94 485.823 357.42C485.492 358.445 484.937 359.362 484.208 360.085C483.598 360.768 482.945 361.401 482.254 361.978C481.272 362.795 481.145 363.365 482.034 364.589C483.618 366.783 485.427 367.461 487.927 367.402C495.712 367.215 503.506 367.333 511.798 367.333C505.847 370.362 500.355 372.968 494.11 373.195C489.735 373.352 485.378 374.05 481.013 374.507C477.98 374.827 475.481 376.755 472.765 378.008C471.515 378.584 470.78 378.5 469.984 377.266C468.901 375.619 467.673 374.075 466.393 372.324Z" fill="white"/>
<path d="M360.369 403.637C361.179 404.247 361.689 404.852 361.9 403.357C362.486 399.482 363.221 395.642 363.969 391.796C364.167 390.764 363.854 390.125 363.159 389.505C362.006 388.463 360.958 387.287 359.788 386.265C358.96 385.537 358.657 384.902 359.088 383.668C359.889 381.377 360.501 379.012 361.592 376.607C363.669 379.1 365.628 381.47 367.599 383.831C368.748 385.207 367.749 386.643 367.52 387.927C367.239 389.515 367.371 390.592 368.638 391.369C369.734 392.072 369.989 393.085 369.897 394.486C369.228 404.812 368.629 415.138 368 425.464C367.956 426.143 367.811 426.812 367.635 428.066C365.139 419.706 362.811 411.859 360.369 403.637Z" fill="white"/>
<path d="M347.996 405.248C349.404 406.045 350.549 406.65 351.653 407.328C352.758 408.007 353.546 407.948 353.854 406.31C354.023 405.397 354.404 404.549 354.958 403.852C356.425 410.765 357.892 417.677 359.36 424.587C353.937 419.395 350.646 412.796 347.996 405.248Z" fill="#FEFEFE"/>
<path d="M528.804 362.982H505.303C505.777 362.093 506.204 361.173 506.583 360.229C506.839 359.486 507.314 359.609 507.78 359.604C513.88 359.525 519.984 359.471 526.089 359.373C526.942 359.373 527.378 359.56 527.594 360.602C527.765 361.409 528.342 362.107 528.804 362.982Z" fill="#FDFDFD"/>
<path d="M588.02 513.665C588.02 508.713 588.02 504.258 588.02 499.803C588.02 498.958 588.292 498.771 589.005 498.82C591.703 498.972 594.335 499.312 596.597 501.21C597.006 501.559 597.257 501.736 596.967 502.306C596.087 504.081 595.435 506.078 593.538 506.963C590.942 508.172 589.608 510.759 588.02 513.665Z" fill="#FEFEFE"/>
<path d="M327.824 330.209C323.934 334.103 321.663 338.238 322.512 343.785C319.176 343.701 318.991 343.49 318.692 340.018C318.52 337.963 318.34 335.908 318.076 333.867C317.97 333.051 318.076 332.593 318.793 332.244C321.619 330.784 324.713 330.086 327.824 330.209Z" fill="#FEFEFE"/>
<path d="M360.669 400.822C356.078 397.35 356.034 393.574 358.252 387.147C359.48 388.356 360.669 389.527 361.866 390.697C362.143 390.972 362.42 391.228 362.306 391.73C361.773 394.734 361.232 397.738 360.669 400.822Z" fill="#FEFEFE"/>
<path d="M358.299 427.932L358.796 427.406L360.491 429.058C360.077 429.041 359.67 428.933 359.294 428.74C358.918 428.547 358.579 428.272 358.299 427.932V427.932Z" fill="#D2D2D1"/>
<path d="M69.4416 483.186C69.0015 482.729 68.7022 482.483 68.4514 482.203C64.5565 477.856 60.6836 473.49 56.7579 469.177C56.0493 468.4 56.1022 467.987 56.7579 467.21C59.6802 463.768 59.6582 463.768 62.5672 467.018C64.3628 469.02 66.2245 470.952 67.9232 473.057C68.9223 474.291 69.5032 474.429 70.6254 473.126C75.0264 468.056 79.5463 463.154 83.9561 458.113C84.8759 457.066 85.3644 457.13 86.249 458.148C88.8544 461.167 88.8896 461.098 86.271 464.049C80.9898 469.949 75.6998 475.865 70.401 481.795C70.0556 482.236 69.7352 482.701 69.4416 483.186Z" fill="white"/>
<path d="M244.467 240.583C244.467 237.269 244.22 233.92 244.524 230.635C245.083 224.376 249.484 219.001 255.645 217.541C262.195 215.984 268.965 215.984 275.516 217.541C281.576 218.982 287.13 224.818 286.765 233.768C286.549 239.176 286.765 244.551 286.699 249.945C286.699 251.229 286.976 251.558 288.125 251.538C292.829 251.46 297.534 251.538 302.234 251.484C303.202 251.484 303.66 251.706 303.783 252.895C304.531 260.242 305.288 267.583 304.919 275.023C304.584 281.745 303.572 288.299 301.059 294.49C296.997 304.472 289.951 310.545 280.594 313.205C271.09 315.966 261.114 315.986 251.601 313.264C238.054 309.399 230.621 299.142 228.033 284.09C226.44 274.821 226.805 265.543 227.901 256.264C228.082 254.715 227.65 252.571 228.676 251.789C229.701 251.007 231.418 251.538 232.835 251.533C236.241 251.533 239.643 251.465 243.045 251.563C244.225 251.597 244.493 251.199 244.458 249.945C244.379 246.837 244.431 243.725 244.431 240.602L244.467 240.583Z" fill="#1E1E1F"/>
<path d="M363.914 467.009C363.703 467.501 363.474 467.992 363.258 468.455C360.31 474.508 355.596 478.412 350.337 481.628C349.039 482.414 347.703 483.121 346.337 483.747C345.927 483.934 345.333 484.73 344.893 483.506C344.501 482.419 345.118 482.38 345.672 482.114C349.084 480.521 352.301 478.449 355.244 475.948C358.132 473.569 360.501 470.491 362.176 466.945C362.365 466.522 362.444 465.735 363.179 466.252C363.474 466.453 363.963 466.38 363.914 467.009Z" fill="#262524"/>
<path d="M362.1 334.092C362.223 334.677 361.999 334.962 361.484 335.115C360.822 335.303 360.202 335.645 359.665 336.117C359.129 336.59 358.687 337.183 358.368 337.859C357.928 338.758 357.444 338.547 356.894 338.213C356.115 337.721 356.784 337.229 356.977 336.865C357.869 335.184 359.296 333.942 360.973 333.389C361.554 333.212 362.118 333.069 362.1 334.092Z" fill="#2B2B2A"/>
<path d="M360.898 339.276C361.035 337.869 361.849 337.181 363.042 336.964C363.354 336.91 363.851 336.654 363.948 337.254C364.014 337.682 364.195 338.479 363.781 338.548C362.8 338.705 362.1 340.146 360.898 339.276Z" fill="#272726"/>
<path d="M265.492 251.502C262.464 251.502 259.436 251.453 256.408 251.502C255.37 251.532 255.057 251.212 255.088 250.027C255.15 245.061 255.088 240.089 255.119 235.123C255.084 233.152 255.704 231.237 256.858 229.747C258.011 228.256 259.618 227.295 261.368 227.049C264.126 226.611 266.924 226.611 269.682 227.049C273.106 227.59 276.23 230.781 276.037 235.28C275.825 240.099 275.927 244.943 276.037 249.771C276.067 251.281 275.649 251.586 274.391 251.541C271.424 251.428 268.454 251.502 265.492 251.502Z" fill="white"/>
<path d="M274.891 289.969C274.86 293.829 272.325 297.104 268.73 297.901C265.077 298.712 261.288 296.48 259.968 292.738C258.696 289.138 259.866 285.268 263.048 283.1C263.417 282.888 263.718 282.556 263.913 282.147C264.107 281.738 264.185 281.273 264.135 280.813C264.135 279.377 263.915 277.927 264.338 276.501C264.778 274.967 265.68 273.998 267.132 273.939C268.585 273.88 269.513 274.878 270.028 276.363C270.543 277.848 270.292 279.368 270.283 280.872C270.235 281.333 270.318 281.799 270.519 282.205C270.72 282.611 271.03 282.936 271.406 283.134C272.498 283.799 273.402 284.791 274.018 285.998C274.633 287.206 274.936 288.581 274.891 289.969V289.969Z" fill="white"/>
<path d="M521.063 311.011L526.203 321.425C526.911 322.86 528.279 323.854 529.862 324.084L541.354 325.754C545.341 326.333 546.932 331.232 544.048 334.044L535.732 342.15C534.586 343.267 534.064 344.875 534.334 346.452L536.297 357.898C536.978 361.868 532.811 364.896 529.246 363.021L518.966 357.617C517.551 356.873 515.859 356.873 514.443 357.617L504.164 363.021C500.599 364.896 496.431 361.868 497.112 357.898L499.075 346.452C499.346 344.875 498.823 343.267 497.678 342.15L489.362 334.044C486.477 331.232 488.069 326.333 492.055 325.754L503.548 324.084C505.131 323.854 506.499 322.86 507.207 321.426L512.347 311.011C514.129 307.399 519.28 307.399 521.063 311.011Z" fill="#FF8025"/>
<path d="M531.513 364.781C530.55 364.781 529.583 364.549 528.689 364.079L518.41 358.675C517.342 358.114 516.067 358.114 514.999 358.675L504.72 364.079C502.665 365.159 500.221 364.983 498.342 363.618C496.464 362.253 495.541 359.984 495.933 357.695L497.896 346.249C498.1 345.06 497.706 343.847 496.843 343.005L488.527 334.899C486.864 333.279 486.277 330.9 486.994 328.691C487.712 326.483 489.585 324.904 491.883 324.57L503.375 322.9C504.569 322.726 505.6 321.977 506.134 320.895L511.274 310.481C512.302 308.399 514.382 307.106 516.704 307.106C519.026 307.106 521.107 308.399 522.135 310.481L527.274 320.895C527.808 321.977 528.84 322.726 530.034 322.9L541.526 324.57C543.824 324.904 545.697 326.483 546.415 328.691C547.132 330.9 546.545 333.278 544.882 334.899L536.566 343.005C535.702 343.847 535.308 345.06 535.512 346.249L537.475 357.695C537.868 359.983 536.945 362.253 535.066 363.618C534.005 364.389 532.763 364.781 531.513 364.781ZM516.704 355.862C517.672 355.862 518.64 356.094 519.522 356.558L529.802 361.962C531.064 362.626 532.507 362.522 533.661 361.683C534.814 360.845 535.359 359.505 535.118 358.099L533.155 346.653C532.818 344.688 533.469 342.684 534.897 341.293L543.213 333.187C544.234 332.191 544.581 330.787 544.14 329.43C543.699 328.074 542.594 327.141 541.182 326.936L529.69 325.266C527.717 324.98 526.012 323.741 525.13 321.954L519.99 311.54C519.359 310.261 518.131 309.497 516.704 309.497C515.278 309.497 514.05 310.261 513.419 311.54L508.279 321.954C507.397 323.741 505.692 324.98 503.719 325.266L492.227 326.936C490.815 327.141 489.709 328.074 489.269 329.43C488.828 330.787 489.175 332.191 490.196 333.187L498.512 341.293C499.939 342.684 500.591 344.688 500.254 346.653L498.29 358.099C498.049 359.505 498.594 360.845 499.748 361.683C500.902 362.522 502.345 362.626 503.607 361.962L513.886 356.558C514.769 356.094 515.737 355.862 516.704 355.862Z" fill="#222221"/>
<path d="M514.431 318.251C514.254 318.251 514.073 318.211 513.903 318.127C513.311 317.835 513.068 317.118 513.36 316.525L514.383 314.452C514.676 313.86 515.392 313.616 515.985 313.909C516.577 314.201 516.82 314.918 516.528 315.51L515.505 317.584C515.296 318.006 514.872 318.251 514.431 318.251Z" fill="#222221"/>
<path d="M504.11 329.62C503.526 329.62 503.015 329.192 502.929 328.596C502.834 327.943 503.286 327.336 503.94 327.241C506.727 326.836 509.134 325.087 510.38 322.562L511.53 320.233C511.822 319.641 512.539 319.398 513.131 319.69C513.723 319.982 513.966 320.699 513.674 321.292L512.525 323.62C510.93 326.851 507.849 329.089 504.284 329.608C504.226 329.616 504.168 329.62 504.11 329.62Z" fill="#222221"/>
</svg>
