<svg width="680" height="568" viewBox="0 0 680 568" fill="none" xmlns="http://www.w3.org/2000/svg">
<path d="M469.122 495.444C468.966 497.066 468.212 498.573 467.006 499.669C465.8 500.765 464.229 501.373 462.599 501.373C460.969 501.373 459.398 500.765 458.192 499.669C456.986 498.573 456.232 497.066 456.076 495.444C456.069 494.578 456.232 493.719 456.558 492.917C456.884 492.115 457.365 491.386 457.974 490.771C458.584 490.156 459.309 489.668 460.108 489.335C460.906 489.002 461.763 488.831 462.629 488.831C463.5 488.8 464.368 488.95 465.178 489.273C465.988 489.596 466.721 490.084 467.332 490.706C467.943 491.328 468.417 492.071 468.725 492.887C469.034 493.702 469.168 494.573 469.122 495.444V495.444Z" fill="black"/>
<path d="M80.1539 181.017C80.7755 181.034 81.3874 181.174 81.954 181.43C82.5206 181.686 83.0304 182.053 83.4537 182.509C83.8769 182.964 84.205 183.5 84.4188 184.084C84.6327 184.667 84.7279 185.288 84.699 185.909C84.6701 186.531 84.5176 187.14 84.2504 187.701C83.9833 188.263 83.6068 188.765 83.1431 189.18C82.6794 189.594 82.1377 189.912 81.5498 190.114C80.9619 190.316 80.3395 190.399 79.7191 190.358C78.4929 190.281 77.3462 189.725 76.527 188.809C75.7078 187.893 75.2819 186.692 75.3414 185.464C75.4009 184.237 75.941 183.082 76.8449 182.25C77.7488 181.418 78.9439 180.975 80.1718 181.017H80.1539Z" fill="black"/>
<path d="M75.6137 147.13C76.2407 147.129 76.8616 147.254 77.4392 147.498C78.0169 147.742 78.5394 148.1 78.9756 148.55C79.4117 149 79.7526 149.534 79.9779 150.119C80.2031 150.705 80.308 151.329 80.2864 151.956C80.2647 152.583 80.117 153.199 79.8519 153.767C79.5869 154.335 79.21 154.844 78.7438 155.264C78.2776 155.683 77.7316 156.004 77.1385 156.207C76.5455 156.411 75.9175 156.493 75.2921 156.448C74.088 156.362 72.9642 155.812 72.157 154.914C71.3498 154.017 70.9221 152.841 70.9637 151.634C71.0054 150.428 71.5132 149.284 72.3804 148.444C73.2476 147.604 74.4066 147.133 75.6137 147.13V147.13Z" fill="black"/>
<path d="M539.815 86.2444C539.794 87.1541 539.502 88.037 538.978 88.7804C538.453 89.5239 537.719 90.0943 536.869 90.4189C536.019 90.7435 535.092 90.8076 534.205 90.6031C533.319 90.3985 532.513 89.9346 531.891 89.2704C531.269 88.6062 530.859 87.7718 530.714 86.8736C530.568 85.9755 530.692 85.0542 531.072 84.2273C531.452 83.4003 532.069 82.7052 532.845 82.2305C533.621 81.7558 534.521 81.523 535.43 81.5618C536.63 81.6099 537.762 82.1281 538.582 83.0043C539.403 83.8805 539.845 85.0444 539.815 86.2444V86.2444Z" fill="black"/>
<path d="M563.927 109.526C563.899 110.728 563.4 111.871 562.538 112.709C561.675 113.547 560.519 114.013 559.316 114.006C558.115 113.973 556.973 113.478 556.127 112.625C555.281 111.772 554.796 110.626 554.772 109.425C554.769 108.802 554.894 108.185 555.137 107.613C555.381 107.04 555.739 106.522 556.19 106.093C556.64 105.663 557.174 105.329 557.757 105.112C558.341 104.896 558.963 104.8 559.585 104.832C560.18 104.848 560.766 104.984 561.308 105.23C561.851 105.476 562.338 105.828 562.743 106.266C563.147 106.703 563.46 107.217 563.664 107.776C563.867 108.336 563.957 108.931 563.927 109.526V109.526Z" fill="black"/>
<path d="M507.969 71.4277C506.776 71.442 505.626 70.983 504.771 70.1511C503.916 69.3192 503.425 68.1823 503.406 66.9893C503.404 66.3916 503.52 65.7994 503.747 65.2464C503.974 64.6934 504.307 64.1906 504.729 63.7665C505.15 63.3425 505.65 63.0056 506.202 62.7751C506.753 62.5445 507.345 62.4248 507.942 62.4229C508.54 62.4209 509.132 62.5367 509.685 62.7637C510.238 62.9906 510.741 63.3242 511.165 63.7455C511.589 64.1667 511.925 64.6674 512.156 65.2189C512.387 65.7703 512.506 66.3618 512.508 66.9595C512.497 68.1536 512.013 69.2945 511.162 70.1321C510.311 70.9697 509.163 71.4356 507.969 71.4277Z" fill="black"/>
<path d="M578.331 132.201C578.923 132.193 579.51 132.303 580.058 132.526C580.606 132.748 581.104 133.078 581.523 133.496C581.942 133.914 582.272 134.412 582.495 134.96C582.719 135.508 582.83 136.095 582.823 136.687C582.826 137.882 582.358 139.03 581.521 139.884C580.684 140.737 579.544 141.225 578.349 141.244C577.155 141.224 576.015 140.739 575.172 139.893C574.329 139.047 573.849 137.905 573.834 136.71C573.83 136.118 573.944 135.531 574.168 134.983C574.393 134.435 574.724 133.936 575.142 133.517C575.56 133.098 576.057 132.765 576.605 132.539C577.152 132.313 577.739 132.198 578.331 132.201V132.201Z" fill="black"/>
<path d="M95.5444 217.405C95.5586 218.001 95.4552 218.593 95.24 219.149C95.0248 219.704 94.7021 220.212 94.2904 220.642C93.8787 221.073 93.3861 221.418 92.8408 221.658C92.2955 221.898 91.7082 222.028 91.1126 222.04C90.5163 222.068 89.9205 221.975 89.3609 221.767C88.8013 221.56 88.2894 221.241 87.8561 220.83C87.4227 220.42 87.0768 219.926 86.839 219.378C86.6012 218.83 86.4765 218.24 86.4723 217.643C86.4402 216.44 86.8848 215.272 87.7093 214.395C88.5338 213.518 89.6714 213.003 90.8743 212.961C92.0773 212.95 93.2371 213.408 94.1086 214.238C94.9801 215.067 95.495 216.203 95.5444 217.405Z" fill="black"/>
<path d="M430.885 400.79C430.922 401.993 430.484 403.163 429.666 404.046C428.848 404.929 427.715 405.454 426.512 405.508C425.31 405.524 424.148 405.071 423.273 404.247C422.397 403.422 421.876 402.289 421.819 401.088C421.8 400.492 421.9 399.898 422.111 399.341C422.323 398.783 422.642 398.273 423.051 397.839C423.46 397.405 423.95 397.056 424.494 396.812C425.038 396.568 425.625 396.434 426.221 396.417C426.816 396.387 427.412 396.478 427.972 396.684C428.532 396.889 429.045 397.205 429.481 397.614C429.916 398.022 430.264 398.513 430.506 399.059C430.747 399.605 430.876 400.193 430.885 400.79V400.79Z" fill="black"/>
<path d="M81.7084 123.181C81.1047 123.212 80.5008 123.121 79.9324 122.915C79.364 122.709 78.8426 122.392 78.3987 121.981C77.9549 121.571 77.5976 121.076 77.348 120.525C77.0983 119.974 76.9613 119.379 76.945 118.775C76.9287 118.171 77.0335 117.569 77.2531 117.006C77.4727 116.442 77.8028 115.929 78.2239 115.495C78.645 115.061 79.1486 114.716 79.7051 114.48C80.2615 114.243 80.8596 114.121 81.4642 114.119C82.6474 114.116 83.7849 114.576 84.6339 115.4C85.4829 116.224 85.9759 117.348 86.0078 118.531C86.0397 119.714 85.6079 120.862 84.8045 121.731C84.0012 122.6 82.8901 123.12 81.7084 123.181V123.181Z" fill="black"/>
<path d="M448.678 373.135C448.667 374.327 448.19 375.468 447.348 376.312C446.506 377.156 445.367 377.637 444.175 377.651C442.983 377.646 441.842 377.169 441.002 376.323C440.162 375.477 439.692 374.333 439.696 373.141C439.689 372.551 439.8 371.965 440.023 371.418C440.245 370.871 440.574 370.374 440.99 369.955C441.407 369.536 441.902 369.205 442.448 368.979C442.994 368.754 443.579 368.64 444.169 368.643C445.36 368.648 446.502 369.122 447.346 369.963C448.19 370.804 448.669 371.944 448.678 373.135V373.135Z" fill="black"/>
<path d="M424.744 438.543C424.151 438.552 423.563 438.445 423.012 438.226C422.461 438.007 421.959 437.681 421.535 437.268C421.11 436.854 420.771 436.361 420.538 435.816C420.305 435.271 420.181 434.685 420.175 434.093C420.152 433.499 420.249 432.906 420.46 432.351C420.672 431.796 420.993 431.289 421.406 430.861C421.818 430.433 422.313 430.093 422.86 429.861C423.407 429.629 423.995 429.51 424.589 429.511C425.786 429.492 426.941 429.945 427.806 430.773C428.67 431.601 429.173 432.736 429.206 433.932C429.208 435.13 428.743 436.282 427.91 437.142C427.077 438.003 425.941 438.506 424.744 438.543V438.543Z" fill="black"/>
<path d="M480.344 44.3031C480.936 44.3153 481.519 44.445 482.059 44.6844C482.6 44.9238 483.088 45.2683 483.495 45.6978C483.902 46.1273 484.219 46.6333 484.429 47.1865C484.639 47.7396 484.736 48.3289 484.716 48.9201C484.712 49.5119 484.589 50.0968 484.354 50.6399C484.119 51.183 483.776 51.6732 483.348 52.0813C482.919 52.4894 482.413 52.8069 481.859 53.0151C481.305 53.2233 480.715 53.3178 480.124 53.293C479.533 53.2821 478.949 53.1548 478.408 52.9183C477.866 52.6818 477.376 52.3408 476.966 51.9147C476.556 51.4886 476.234 50.9859 476.018 50.4352C475.803 49.8846 475.698 49.2969 475.71 48.7057C475.749 47.51 476.257 46.3776 477.124 45.5537C477.991 44.7298 479.148 44.2805 480.344 44.3031V44.3031Z" fill="black"/>
<path d="M455.754 33.5975C455.78 34.4769 455.543 35.3441 455.074 36.0881C454.604 36.8321 453.923 37.419 453.118 37.7738C452.313 38.1285 451.421 38.235 450.555 38.0795C449.689 37.924 448.889 37.5137 448.258 36.901C447.627 36.2884 447.192 35.5012 447.011 34.6403C446.83 33.7795 446.909 32.884 447.239 32.0686C447.57 31.2532 448.136 30.5549 448.865 30.0632C449.595 29.5714 450.454 29.3085 451.334 29.3081C452.478 29.3252 453.573 29.7786 454.395 30.5758C455.216 31.3731 455.702 32.4539 455.754 33.5975V33.5975Z" fill="black"/>
<path d="M176.706 29.3674C176.697 30.2473 176.427 31.1048 175.932 31.8321C175.437 32.5593 174.737 33.1239 173.922 33.4546C173.107 33.7854 172.212 33.8677 171.35 33.6912C170.488 33.5146 169.697 33.0871 169.077 32.4624C168.458 31.8376 168.037 31.0436 167.867 30.1802C167.697 29.3167 167.787 28.4223 168.124 27.6095C168.461 26.7967 169.031 26.1018 169.762 25.6121C170.493 25.1225 171.353 24.8599 172.233 24.8575C172.824 24.8535 173.411 24.9677 173.958 25.1933C174.505 25.419 175.001 25.7516 175.418 26.1717C175.834 26.5917 176.163 27.0908 176.384 27.6395C176.605 28.1883 176.715 28.7757 176.706 29.3674V29.3674Z" fill="black"/>
<path d="M595.742 166.766C595.722 167.629 595.45 168.467 594.958 169.176C594.466 169.885 593.777 170.434 592.976 170.755C592.176 171.077 591.298 171.156 590.453 170.983C589.607 170.81 588.831 170.393 588.221 169.783C587.61 169.173 587.192 168.398 587.018 167.552C586.844 166.707 586.922 165.829 587.242 165.028C587.562 164.227 588.111 163.537 588.819 163.044C589.527 162.551 590.365 162.278 591.227 162.256C591.823 162.244 592.415 162.352 592.968 162.575C593.521 162.797 594.023 163.129 594.445 163.55C594.867 163.971 595.199 164.473 595.422 165.026C595.645 165.578 595.754 166.17 595.742 166.766V166.766Z" fill="black"/>
<path d="M144.152 41.3062C145.025 41.2835 145.886 41.5193 146.625 41.9842C147.365 42.449 147.951 43.1221 148.309 43.9188C148.667 44.7155 148.782 45.6004 148.639 46.4623C148.496 47.3241 148.102 48.1245 147.506 48.7629C146.909 49.4013 146.138 49.8492 145.288 50.0504C144.438 50.2516 143.547 50.197 142.728 49.8936C141.909 49.5902 141.198 49.0515 140.684 48.3451C140.17 47.6387 139.876 46.7961 139.839 45.9233C139.81 45.3348 139.9 44.7465 140.103 44.1932C140.305 43.64 140.617 43.1331 141.019 42.7025C141.421 42.272 141.906 41.9265 142.444 41.6867C142.982 41.4468 143.563 41.3174 144.152 41.3062V41.3062Z" fill="black"/>
<path d="M476.78 356.716C476.789 357.59 476.542 358.446 476.068 359.179C475.594 359.913 474.914 360.49 474.114 360.839C473.313 361.189 472.428 361.294 471.568 361.144C470.708 360.993 469.912 360.592 469.278 359.991C468.645 359.39 468.202 358.615 468.006 357.764C467.81 356.913 467.869 356.024 468.175 355.206C468.482 354.388 469.022 353.679 469.73 353.167C470.437 352.655 471.279 352.362 472.151 352.326C472.746 352.301 473.339 352.396 473.896 352.605C474.453 352.813 474.963 353.132 475.394 353.542C475.826 353.951 476.171 354.443 476.409 354.988C476.647 355.534 476.773 356.121 476.78 356.716Z" fill="black"/>
<path d="M123.644 66.0424C123.651 66.9189 123.396 67.7775 122.912 68.5082C122.428 69.239 121.737 69.8086 120.927 70.1442C120.117 70.4797 119.226 70.5659 118.367 70.3917C117.508 70.2176 116.721 69.7909 116.106 69.1664C115.491 68.542 115.076 67.7481 114.915 66.8865C114.754 66.0249 114.853 65.1348 115.201 64.3302C115.549 63.5256 116.129 62.8431 116.867 62.3702C117.605 61.8972 118.467 61.6553 119.343 61.6755C120.484 61.7091 121.569 62.182 122.37 62.9956C123.171 63.8091 123.627 64.9005 123.644 66.0424Z" fill="black"/>
<path d="M605.798 197.15C605.825 198.022 605.592 198.883 605.128 199.622C604.665 200.362 603.991 200.946 603.194 201.302C602.397 201.657 601.513 201.767 600.653 201.618C599.793 201.469 598.997 201.068 598.366 200.465C597.735 199.862 597.298 199.084 597.111 198.232C596.923 197.38 596.993 196.491 597.312 195.678C597.631 194.866 598.185 194.167 598.903 193.671C599.62 193.174 600.47 192.902 601.342 192.89C602.491 192.888 603.596 193.329 604.427 194.123C605.257 194.917 605.749 196.002 605.798 197.15Z" fill="black"/>
<path d="M301.468 4.47703C301.447 5.344 301.169 6.18526 300.669 6.89386C300.169 7.60245 299.47 8.14638 298.66 8.4565C297.851 8.76663 296.967 8.82893 296.122 8.63551C295.276 8.44208 294.508 8.00165 293.913 7.37021C293.319 6.73877 292.926 5.94484 292.784 5.08933C292.642 4.23383 292.757 3.35539 293.115 2.56569C293.474 1.77598 294.059 1.11068 294.796 0.654345C295.534 0.198012 296.39 -0.0287396 297.256 0.00291488C298.398 0.0670211 299.471 0.566922 300.255 1.39946C301.038 2.23199 301.473 3.33363 301.468 4.47703V4.47703Z" fill="black"/>
<path d="M265.228 10.9349C264.37 10.917 263.536 10.6445 262.833 10.1522C262.129 9.65983 261.588 8.96971 261.277 8.16928C260.966 7.36884 260.899 6.49412 261.086 5.65595C261.273 4.81778 261.704 4.05389 262.325 3.46107C262.946 2.86826 263.729 2.4732 264.575 2.32596C265.421 2.17871 266.292 2.28592 267.077 2.63398C267.862 2.98205 268.525 3.55531 268.984 4.28112C269.443 5.00693 269.676 5.85263 269.654 6.71105C269.62 7.85567 269.136 8.94072 268.308 9.73127C267.479 10.5218 266.373 10.9543 265.228 10.9349V10.9349Z" fill="black"/>
<path d="M97.3383 85.4041C98.4864 85.432 99.5789 85.9046 100.385 86.7223C101.192 87.54 101.65 88.639 101.662 89.7875C101.675 90.9361 101.241 92.0447 100.452 92.8795C99.6629 93.7144 98.5809 94.2104 97.4336 94.263C96.8391 94.2902 96.2453 94.1975 95.6875 93.9903C95.1296 93.783 94.6193 93.4656 94.1867 93.0568C93.7542 92.648 93.4085 92.1563 93.1701 91.6111C92.9317 91.0658 92.8055 90.478 92.7991 89.8829C92.7927 89.2878 92.9062 88.6975 93.1328 88.1472C93.3594 87.5969 93.6945 87.0979 94.1181 86.6799C94.5418 86.2619 95.0452 85.9336 95.5984 85.7144C96.1517 85.4952 96.7434 85.3897 97.3383 85.4041V85.4041Z" fill="black"/>
<path d="M202.331 13.6872C203.207 13.6541 204.072 13.8829 204.817 14.3445C205.561 14.8061 206.151 15.4794 206.511 16.2782C206.871 17.0771 206.984 17.9652 206.837 18.8288C206.689 19.6925 206.287 20.4924 205.682 21.1263C205.077 21.7602 204.297 22.1991 203.442 22.3869C202.586 22.5748 201.694 22.503 200.879 22.1808C200.064 21.8585 199.364 21.3005 198.868 20.5781C198.373 19.8557 198.104 19.0018 198.096 18.1256C198.084 16.9797 198.52 15.8745 199.312 15.0455C200.103 14.2165 201.186 13.7291 202.331 13.6872Z" fill="black"/>
<path d="M441.785 465.948C440.913 465.958 440.058 465.709 439.328 465.231C438.599 464.754 438.027 464.07 437.688 463.266C437.349 462.463 437.256 461.577 437.422 460.72C437.588 459.864 438.006 459.077 438.621 458.459C439.237 457.841 440.022 457.42 440.877 457.25C441.733 457.081 442.619 457.17 443.424 457.506C444.229 457.842 444.915 458.41 445.396 459.138C445.876 459.866 446.129 460.72 446.122 461.593C446.101 462.738 445.637 463.831 444.829 464.642C444.021 465.454 442.93 465.922 441.785 465.948V465.948Z" fill="black"/>
<path d="M328.708 9.86251C327.57 9.82053 326.494 9.33181 325.714 8.50219C324.933 7.67258 324.511 6.56886 324.538 5.4301C324.55 4.56202 324.82 3.71713 325.315 3.00362C325.809 2.2901 326.505 1.74043 327.314 1.425C328.123 1.10956 329.007 1.04271 329.854 1.23301C330.701 1.42331 331.472 1.8621 332.068 2.49319C332.664 3.12427 333.058 3.91894 333.2 4.77543C333.342 5.63192 333.225 6.51125 332.864 7.30082C332.503 8.0904 331.915 8.75428 331.174 9.20747C330.434 9.66065 329.575 9.88251 328.708 9.84463V9.86251Z" fill="black"/>
<path d="M504.236 356.823C503.369 356.856 502.511 356.63 501.773 356.174C501.035 355.718 500.45 355.052 500.092 354.261C499.734 353.47 499.62 352.591 499.764 351.735C499.908 350.879 500.303 350.086 500.9 349.456C501.497 348.826 502.268 348.388 503.115 348.198C503.961 348.009 504.845 348.076 505.654 348.39C506.462 348.705 507.159 349.254 507.654 349.967C508.15 350.679 508.421 351.523 508.435 352.391C508.437 353.527 508.002 354.621 507.22 355.446C506.439 356.271 505.37 356.764 504.236 356.823V356.823Z" fill="black"/>
<path d="M612.689 260.496C612.704 261.632 612.276 262.729 611.496 263.554C610.716 264.379 609.646 264.868 608.511 264.917C607.376 264.966 606.268 264.571 605.42 263.816C604.571 263.06 604.051 262.004 603.969 260.871C603.926 260.289 604.001 259.703 604.189 259.15C604.377 258.597 604.674 258.087 605.063 257.65C605.451 257.214 605.923 256.86 606.451 256.609C606.979 256.359 607.552 256.217 608.136 256.192C608.719 256.166 609.302 256.259 609.85 256.463C610.397 256.667 610.898 256.979 611.323 257.381C611.747 257.782 612.087 258.265 612.322 258.8C612.556 259.335 612.681 259.912 612.689 260.496V260.496Z" fill="black"/>
<path d="M611.461 228.695C611.464 229.562 611.209 230.411 610.728 231.132C610.246 231.853 609.561 232.415 608.759 232.745C607.957 233.075 607.075 233.158 606.225 232.984C605.376 232.81 604.597 232.386 603.99 231.767C603.382 231.149 602.973 230.363 602.814 229.51C602.655 228.657 602.754 227.777 603.098 226.981C603.443 226.185 604.016 225.509 604.746 225.041C605.476 224.573 606.329 224.333 607.196 224.352C608.337 224.363 609.427 224.826 610.227 225.641C611.027 226.455 611.47 227.553 611.461 228.695V228.695Z" fill="black"/>
<path d="M425.065 24.4942C425.067 25.6408 424.614 26.7413 423.805 27.5543C422.997 28.3674 421.899 28.8266 420.753 28.8313C419.599 28.8313 418.493 28.3731 417.678 27.5575C416.862 26.7419 416.404 25.6357 416.404 24.4823C416.404 23.3289 416.862 22.2227 417.678 21.4071C418.493 20.5915 419.599 20.1333 420.753 20.1333C421.322 20.1356 421.886 20.2504 422.411 20.471C422.937 20.6915 423.413 21.0136 423.814 21.4187C424.214 21.8238 424.531 22.304 424.746 22.8317C424.961 23.3595 425.069 23.9244 425.065 24.4942V24.4942Z" fill="black"/>
<path d="M233.604 6.22849C234.466 6.24424 235.304 6.51593 236.011 7.00906C236.718 7.50219 237.263 8.19448 237.576 8.99798C237.889 9.80147 237.956 10.6799 237.769 11.5216C237.581 12.3633 237.148 13.1304 236.524 13.7252C235.9 14.3201 235.113 14.716 234.263 14.8625C233.413 15.0091 232.539 14.8997 231.752 14.5482C230.965 14.1968 230.3 13.6192 229.841 12.8889C229.383 12.1585 229.152 11.3084 229.178 10.4464C229.209 9.3013 229.692 8.21504 230.521 7.42478C231.35 6.63452 232.458 6.20447 233.604 6.22849V6.22849Z" fill="black"/>
<path d="M540.053 350.806C540.035 351.943 539.566 353.027 538.749 353.819C537.933 354.61 536.836 355.046 535.699 355.03C535.132 355.017 534.573 354.892 534.054 354.663C533.535 354.433 533.067 354.104 532.675 353.694C532.283 353.283 531.976 352.799 531.772 352.27C531.567 351.741 531.468 351.177 531.482 350.61C531.495 350.043 531.62 349.484 531.849 348.965C532.078 348.446 532.408 347.977 532.818 347.585C533.229 347.194 533.712 346.887 534.241 346.682C534.77 346.477 535.334 346.379 535.902 346.392C536.464 346.408 537.018 346.535 537.532 346.766C538.045 346.997 538.508 347.327 538.894 347.737C539.28 348.147 539.581 348.629 539.78 349.156C539.979 349.683 540.072 350.244 540.053 350.806Z" fill="black"/>
<path d="M604.397 296.527C603.829 296.532 603.266 296.424 602.74 296.21C602.213 295.996 601.735 295.68 601.331 295.28C600.927 294.881 600.607 294.405 600.388 293.881C600.169 293.356 600.056 292.794 600.055 292.226C600.029 291.648 600.121 291.07 600.323 290.528C600.526 289.986 600.836 289.49 601.235 289.07C601.633 288.65 602.112 288.315 602.643 288.085C603.174 287.855 603.746 287.734 604.325 287.729C604.903 287.725 605.477 287.837 606.011 288.059C606.546 288.282 607.03 288.609 607.435 289.023C607.84 289.437 608.157 289.928 608.368 290.467C608.579 291.006 608.679 291.582 608.662 292.16C608.671 292.728 608.567 293.291 608.357 293.818C608.147 294.345 607.835 294.826 607.439 295.232C607.042 295.638 606.569 295.961 606.047 296.183C605.526 296.406 604.965 296.523 604.397 296.527Z" fill="black"/>
<path d="M364.401 9.84455C364.42 10.9802 363.988 12.0771 363.2 12.8946C362.411 13.7121 361.331 14.1835 360.195 14.2055C359.063 14.2307 357.966 13.805 357.147 13.0218C356.329 12.2386 355.854 11.1621 355.829 10.0292C355.804 8.89634 356.23 7.79981 357.013 6.98087C357.796 6.16192 358.872 5.68764 360.005 5.66236C361.14 5.64143 362.238 6.06857 363.061 6.85131C363.884 7.63406 364.365 8.70941 364.401 9.84455V9.84455Z" fill="black"/>
<path d="M593.062 319.523C593.05 320.084 592.928 320.636 592.702 321.149C592.477 321.662 592.152 322.125 591.748 322.513C591.343 322.9 590.866 323.204 590.344 323.407C589.822 323.611 589.265 323.709 588.705 323.697C588.145 323.685 587.593 323.562 587.08 323.337C586.567 323.111 586.104 322.787 585.716 322.382C585.329 321.977 585.025 321.5 584.822 320.978C584.618 320.456 584.52 319.899 584.532 319.339C584.557 318.207 585.03 317.132 585.847 316.35C586.664 315.567 587.758 315.141 588.89 315.166C590.021 315.19 591.096 315.663 591.878 316.48C592.661 317.297 593.087 318.392 593.062 319.523V319.523Z" fill="black"/>
<path d="M394.828 16.4099C394.827 16.9723 394.714 17.5288 394.496 18.0474C394.278 18.5659 393.96 19.0362 393.56 19.4312C393.159 19.8261 392.685 20.1378 392.163 20.3483C391.642 20.5588 391.084 20.6639 390.521 20.6576C389.441 20.6583 388.402 20.2394 387.624 19.4893C386.847 18.7391 386.39 17.7163 386.352 16.6363C386.317 16.0739 386.397 15.5104 386.586 14.9796C386.775 14.4489 387.069 13.962 387.452 13.5483C387.834 13.1346 388.297 12.8028 388.811 12.5727C389.325 12.3427 389.881 12.2192 390.444 12.2098C391.582 12.1874 392.682 12.6169 393.503 13.4041C394.325 14.1913 394.801 15.2722 394.828 16.4099V16.4099Z" fill="black"/>
<path d="M569.545 339.844C569.561 340.411 569.466 340.975 569.263 341.504C569.06 342.033 568.754 342.517 568.363 342.927C567.971 343.337 567.503 343.665 566.984 343.893C566.465 344.121 565.906 344.243 565.339 344.253C564.25 344.275 563.194 343.875 562.393 343.137C561.591 342.398 561.106 341.379 561.039 340.291C560.997 339.726 561.069 339.157 561.249 338.62C561.429 338.082 561.714 337.585 562.088 337.158C562.461 336.732 562.916 336.383 563.425 336.134C563.934 335.884 564.487 335.738 565.054 335.704C566.196 335.663 567.309 336.076 568.15 336.851C568.991 337.626 569.492 338.702 569.545 339.844V339.844Z" fill="black"/>
<path d="M104.736 243.594C104.774 242.505 105.236 241.474 106.024 240.721C106.812 239.968 107.864 239.554 108.954 239.567C110.037 239.616 111.062 240.074 111.822 240.847C112.582 241.621 113.021 242.653 113.052 243.737C113.053 244.307 112.937 244.87 112.712 245.393C112.487 245.916 112.158 246.388 111.744 246.778C111.329 247.169 110.84 247.471 110.305 247.665C109.769 247.859 109.2 247.942 108.632 247.908C108.093 247.882 107.564 247.75 107.075 247.518C106.587 247.287 106.15 246.962 105.788 246.561C105.425 246.16 105.146 245.692 104.966 245.183C104.785 244.674 104.707 244.134 104.736 243.594V243.594Z" fill="black"/>
<path d="M278.977 156.805C279.102 153.743 279.149 150.991 279.376 148.25C279.423 147.654 280.019 146.683 280.519 146.57C280.918 146.498 281.328 146.514 281.72 146.617C282.112 146.72 282.477 146.907 282.789 147.166C285.082 149.585 283.152 156.025 279.924 156.972C279.656 157.032 279.316 156.865 278.977 156.805Z" fill="black"/>
<path d="M285.266 158.539C285.528 158.646 285.91 158.682 286.106 158.89C287.553 160.301 288.908 161.804 290.163 163.388C290.502 163.847 290.264 165.354 289.829 165.61C289.168 165.997 287.649 166.087 287.31 165.658C286.016 163.991 284.9 162.194 283.98 160.296C283.563 159.468 284.087 158.646 285.266 158.539Z" fill="black"/>
<path d="M418.835 513.924C416.297 516.217 414.123 518.475 411.651 520.346C405.706 524.85 399.595 529.097 393.638 533.589C391.684 535.049 390.135 535.073 388.152 533.589C380.491 527.906 373.081 521.948 367.428 514.132C362.371 507.138 356.009 501.46 349.272 496.152C344.263 492.202 339.319 488.175 334.345 484.178C333.823 483.792 333.329 483.37 332.867 482.915C328.4 478.113 322.979 478.018 317.38 480.133C313.732 481.476 310.222 483.165 306.896 485.179C294.852 492.62 282.926 500.269 270.965 507.847C258.73 515.592 246.614 523.557 234.224 531.081C223.657 537.438 212.262 542.204 200.76 546.654C193.284 549.556 185.814 552.344 177.791 553.297C175.753 553.541 173.716 553.797 171.667 553.893C154.851 554.917 138.709 552.278 123.418 545.028C118.926 542.895 114.399 540.858 109.908 538.719C108.448 538.028 107.031 537.224 105.619 536.431C95.5463 530.766 89.4942 521.978 86.0691 511.171C85.7228 510.152 85.5732 509.077 85.6283 508.002C87.2128 490.266 94.069 475.039 107.358 462.975C109.742 460.781 112.336 458.827 115.102 457.142C138.576 443.076 163.582 431.743 189.632 423.363C199.89 420.057 209.778 415.618 219.893 411.823C240.521 404.079 260.773 395.25 282.396 390.484C293.577 388.023 304.788 385.586 316.087 383.823C321.973 382.955 327.948 382.867 333.856 383.561C341.6 384.431 347.795 388.404 351.589 395.631C356.111 404.239 360.661 412.824 366.118 420.915C368.763 424.835 370.567 429.309 372.92 433.425C380.825 447.324 388.843 461.164 396.747 475.069C399.577 480.049 402.18 485.161 404.908 490.201C409.221 498.196 412.372 506.816 418.835 513.924Z" fill="white"/>
<path d="M173.393 265.179C173.31 270.421 176.097 274.145 178.295 278.053C179.285 279.722 179.863 281.603 179.981 283.54C180.1 285.577 180.482 287.603 180.696 289.64C180.994 292.452 182.656 293.852 185.33 294.216C189.714 294.811 194.099 295.407 198.483 296.003C198.9 296.063 199.311 296.152 200.18 296.307C199.448 298.69 198.87 300.948 198.048 303.128C195.903 308.794 195.862 308.782 199.102 314.054L196.326 312.362C191.895 309.67 187.32 307.167 183.067 304.218C179.797 301.961 176.854 299.214 173.905 296.527C171.672 294.502 171.38 294.144 168.86 293.197C168.8 293.501 168.598 293.9 168.711 294.049C172.488 298.773 176.074 303.676 181.375 306.905C184.884 309.038 188.386 311.189 191.829 313.459C194.909 315.46 197.887 317.629 200.931 319.678C203.975 321.728 207.084 323.7 210.11 325.773C214.208 328.585 218.45 331.236 222.292 334.364C232.727 342.977 244.19 350.263 256.418 356.055C264.456 359.864 273.244 361.828 282.139 361.804C286.255 361.804 289.996 360.225 293.588 358.521C299.342 355.787 304.852 352.564 310.594 349.77C323.443 343.568 334.129 334.054 346.203 326.678C351.177 323.64 355.734 319.988 360.535 316.622C361.488 315.949 362.471 315.317 363.734 314.465C364.925 317.79 366.259 320.751 367.087 323.849C368.612 329.508 371.853 334.238 374.938 339.058C375.766 340.357 377.321 341.209 378.578 342.216C379.573 343.02 380.627 343.759 381.687 344.551C368.988 358.801 352.982 368.774 337.834 380.016C329.495 378.527 320.923 378.86 312.315 380.278C295.869 382.983 279.601 386.45 263.655 391.324C257.156 393.313 250.753 395.661 244.361 398.002C236.856 400.748 229.362 403.554 221.952 406.551C219.087 407.743 216.591 406.765 214.107 405.872C200.901 401.064 187.898 395.744 175.657 388.78C170.403 385.801 165.387 382.357 160.318 379.051C158.889 378.005 157.517 376.884 156.208 375.691C159.02 384.86 177.503 405.735 193.485 417.87C191.883 418.418 190.554 418.925 189.202 419.33C169.14 425.335 150.079 433.765 131.47 443.249C125.388 446.318 119.48 449.718 113.772 453.437C96.3192 464.911 86.6575 481.193 84.656 501.997C84.5965 502.628 84.5488 503.266 84.4356 504.654C83.9907 503.856 83.5929 503.032 83.2443 502.187C80.4268 492.757 77.8118 483.29 76.2571 473.544C75.4053 468.182 73.9637 462.975 73.0166 457.661C71.0986 446.842 71.3011 435.898 71.3011 424.972C71.3528 404.601 74.3011 384.341 80.0574 364.801C82.1858 357.76 84.9244 350.919 88.242 344.354C94.9379 330.748 103.393 318.081 113.391 306.679C115.568 304.129 117.906 301.721 120.39 299.47C124.679 295.669 129.176 292.101 133.567 288.413C143.33 280.204 154.576 274.371 165.733 268.396C168.074 267.157 170.647 266.329 173.393 265.179Z" fill="white"/>
<path d="M259.445 146.236C268.195 154.482 276.689 162.614 285.339 170.585C288.43 173.438 291.891 175.899 295.167 178.532C299.236 181.791 300.528 183.959 294.846 188.428C294.166 188.958 293.434 189.422 292.755 189.965C290.324 191.889 290.372 193.14 293.029 194.933C293.916 195.529 294.863 196.083 295.697 196.762C296.277 197.329 296.807 197.945 297.282 198.603C295.34 200.986 293.708 203.619 295.936 206.449C298.104 209.166 300.933 208.344 304.001 206.985C306.265 210.756 308.218 214.659 308.606 219.151C308.802 221.414 307.593 223.118 305.627 224.137C303.131 225.424 300.612 226.669 298.032 227.771C290.378 231.03 282.676 234.176 275.022 237.428C270.292 239.43 265.807 241.891 262.87 246.281C261.173 248.779 259.736 251.444 258.581 254.235C254.906 263.356 251.433 272.554 247.895 281.723C247.74 282.122 247.555 282.509 247.263 283.164C246.515 282.743 245.797 282.271 245.113 281.752C238.37 275.837 231.55 270.004 224.955 263.927C219.94 259.316 216.682 253.424 214.019 247.246C213.68 246.34 213.68 245.341 214.019 244.434C216.652 238.048 215.389 231.924 213.018 225.829C212.822 225.335 212.661 224.834 212.381 224.042L230.037 209.279C229.155 206.092 226.915 203.679 225.271 200.909C223.816 198.402 222.551 195.789 221.489 193.092C220.69 191.067 220.226 188.725 222.34 187.135C224.455 185.544 226.784 186.438 228.666 187.731C230.194 188.905 231.569 190.266 232.759 191.782C234.254 193.569 235.618 193.813 238.197 192.526C239.901 191.674 240.258 190.739 239.43 188.451C237.977 184.496 236.452 180.564 234.915 176.644C232.902 171.532 234.129 167.183 237.756 163.227C242.021 158.562 247.007 154.773 252.053 151.08C254.316 149.43 256.74 148 259.445 146.236ZM262.518 170.251C263.883 166.677 265.253 163.066 266.593 159.468C266.974 158.449 266.849 157.305 265.711 157.085C265.263 157.041 264.811 157.104 264.391 157.269C263.972 157.434 263.598 157.695 263.299 158.032C260.988 161.928 260.6 166.063 262.518 170.251V170.251ZM270.131 168.666C269.774 169.495 269.184 170.269 269.142 171.049C269.041 173.295 271.066 175.964 273.312 176.584C274.027 176.781 275.296 176.709 275.587 176.274C276.028 175.625 276.219 174.255 275.814 173.707C274.56 172.129 273.186 170.651 271.704 169.286C271.448 168.994 270.929 168.946 270.131 168.666Z" fill="white"/>
<path d="M279.917 358.116C280.191 353.112 280.662 348.471 280.638 343.818C280.608 337.009 280.251 330.193 279.983 323.39C279.864 320.328 278.422 317.837 276.45 315.562C272.418 310.921 272.578 312.297 274.193 305.809C275.188 301.824 275.92 297.761 277.171 293.846C278.601 289.283 277.272 285.589 274.365 282.17C270.589 277.717 266.816 273.267 263.048 268.819C262.452 268.11 261.898 267.353 260.963 266.162C265.299 266.9 268.111 269.003 269.969 272.119C273.091 277.302 276.051 282.587 278.905 287.931C283.545 296.658 286.279 306.155 289.787 315.335C291.366 319.47 293.475 323.402 295.011 327.542C296.513 331.581 297.591 335.77 298.842 339.892C299.122 340.822 299.175 341.864 299.64 342.68C300.036 343.403 300.702 343.938 301.492 344.17C302.582 344.343 303.279 343.455 303.416 342.382C303.684 340.238 303.964 338.081 304.012 335.924C304.256 326.08 303.958 316.229 303.119 306.417C302.827 302.973 303.023 299.488 302.743 296.045C302.261 290.129 301.731 284.207 300.956 278.327C299.902 270.511 298.574 262.736 297.341 254.735C300.521 251.47 304.929 250.16 309.379 248.974C313.829 247.789 318.374 246.657 322.895 245.59C324.383 245.33 325.884 245.151 327.392 245.054C327.863 247.818 328.25 250.35 328.72 252.865C330.871 264.327 332.294 275.926 335.672 287.162C338.478 296.462 340.824 305.904 343.267 315.311C343.97 318.01 344.303 320.804 344.827 323.688C343.213 324.73 341.748 325.63 340.336 326.601C335.338 330.021 330.162 333.214 325.444 336.955C319.094 341.965 311.744 345.177 304.774 349.055C299.312 352.099 293.522 354.56 287.84 357.193C285.383 358.4 282.586 358.726 279.917 358.116V358.116Z" fill="white"/>
<path d="M249.907 303.307C253.892 319.72 254.262 335.996 257.186 352.534C253.928 350.967 250.95 349.829 248.281 348.197C239.989 343.109 231.686 338.069 224.282 331.641C221.358 329.068 218.199 326.776 214.846 324.796C210.581 322.323 207.519 318.868 204.892 314.847C204.043 313.472 203.044 312.195 201.914 311.04C200.199 309.378 199.936 307.751 200.836 305.517C201.798 302.993 202.53 300.387 203.022 297.731C203.719 294.299 202.76 293.346 199.281 292.875C194.897 292.279 190.549 291.439 186.176 290.772C185.633 290.731 185.125 290.491 184.749 290.097C184.372 289.703 184.155 289.184 184.139 288.639C183.889 286.852 183.544 285.011 183.436 283.188C183.34 280.698 182.484 278.296 180.982 276.307C179.313 274.049 177.831 271.658 176.55 269.158C175.848 267.812 175.705 266.179 175.258 264.452C182.128 262.349 189.173 260.87 196.309 260.031C198.239 266.459 201.324 272.125 204.982 277.481C206.196 279.269 207.542 280.963 209.009 282.551C216.061 290.164 223.108 297.784 230.292 305.267C234.497 309.646 239.108 313.566 244.874 315.836C245.166 315.949 245.47 316.002 246.155 316.175C247.346 312.076 248.531 308.001 249.907 303.307Z" fill="white"/>
<path d="M347.854 384.61C354.406 382.417 360.738 380.767 367.296 380.249C374.486 379.653 380.073 382.858 384.189 388.625C385.427 390.401 386.472 392.305 387.305 394.303C390.776 402.106 393.495 410.223 395.424 418.544C397.705 428.999 398.932 439.657 399.087 450.357C399.218 458.371 400.363 466.336 402.494 474.062C402.864 475.397 403.09 476.767 403.424 478.298C403.036 478.078 402.828 478.024 402.733 477.887C398.313 470.458 393.798 463.071 389.527 455.564C384.547 446.83 379.77 437.989 374.903 429.196C374.318 428.287 373.787 427.344 373.312 426.372C370.406 419.42 365.7 413.522 362.102 407.028C359.85 402.965 357.611 398.89 355.55 394.72C353.928 391.417 351.706 388.445 348.997 385.956C348.594 385.527 348.212 385.077 347.854 384.61V384.61Z" fill="white"/>
<path d="M499.577 562.406C497.576 561.602 495.521 560.929 493.495 560.184C488.021 558.164 482.428 556.413 477.108 554.042C468.638 550.253 460.352 546.077 452.013 542.014C447.063 539.631 442.154 537.105 437.24 534.614C434.923 533.423 432.683 532.124 430.324 531.04C428.537 530.218 426.697 529.848 424.749 530.992C422.801 532.136 422.759 531.969 421.497 530.009C419.644 527.138 417.803 524.248 416.106 521.597C417.678 519.917 419.191 518.374 420.621 516.754C422.64 514.472 422.664 513.483 420.925 511.064C420.669 510.713 420.389 510.379 420.144 510.028C414.873 502.444 410.292 494.538 408.148 485.417C407.23 481.527 406.468 477.595 405.509 473.716C403.479 465.41 402.404 456.899 402.304 448.349C402.245 439.807 401.538 431.281 400.189 422.845C398.584 412.912 395.74 403.219 391.725 393.993C390.698 391.489 389.423 389.094 387.919 386.844C382.766 379.581 375.779 375.858 366.743 377.043C360.087 377.924 353.59 379.741 347.443 382.441C345.507 383.281 343.958 383.108 342.177 381.315C344.655 379.415 346.942 377.478 349.403 375.804C362.061 367.196 373.605 357.264 384.494 346.535C384.642 346.386 384.809 346.243 384.952 346.082C385.989 344.956 386.203 343.83 384.916 342.728L383.588 341.608C385.053 339.97 386.388 338.409 387.799 336.937C389.313 335.359 390.569 333.768 388.925 331.522C393.244 328.627 397.324 325.803 401.494 323.11C410.31 317.426 419.168 311.791 428.013 306.179C430.134 304.826 432.123 303.313 433.267 301.001C436.329 294.8 439.432 288.61 442.309 282.325C443.058 280.527 443.446 278.6 443.453 276.653C443.536 273.639 441.994 272.626 439.325 273.942C437.469 274.816 435.785 276.014 434.351 277.481C430.922 281.084 427.696 284.874 424.689 288.836C422.307 292.089 419.483 294.532 415.701 295.914C413.675 296.653 411.68 297.498 409.69 298.344C407.701 299.19 405.86 300.042 403.841 300.936C404.925 297.796 406.009 294.978 406.819 292.113C407.486 289.831 407.415 287.347 405.396 285.846C403.376 284.344 401.172 285.381 399.355 286.602C395.954 288.89 392.666 291.368 389.354 293.787C384.064 297.634 380.034 302.965 377.774 309.104C377.244 310.51 376.583 311.862 375.987 313.214C375.749 313.155 375.6 313.167 375.547 313.101C374.85 312.285 374.182 311.457 373.486 310.647C372.223 309.187 371.133 309.014 369.554 310.122C368.589 310.802 367.708 311.594 366.629 312.464C364.699 310.569 362.829 311.38 361.054 312.613C358.04 314.71 355.097 316.896 352.071 319.005C350.761 319.917 349.385 320.733 347.901 321.692C347.621 320.894 347.407 320.405 347.306 319.905C344.034 306.798 340.773 293.692 337.525 280.585C336.679 277.124 335.923 273.639 335.291 270.13C333.903 262.385 332.67 254.568 331.276 246.8C330.83 244.304 330.049 241.891 326.713 241.539C327.154 239.657 327.47 237.965 327.947 236.315C331.342 224.572 331.014 212.586 330.377 200.569C330.204 197.346 328.757 195.047 325.868 193.611C322.484 191.925 319.137 190.167 315.741 188.541C314.56 188.003 313.321 187.603 312.048 187.35C310.511 187.016 308.98 187.058 308.027 188.625C307.074 190.191 307.586 191.556 308.623 192.795C309.856 194.296 311.131 195.774 312.459 197.191C313.978 198.812 315.193 200.587 315.33 202.863C315.527 206.086 315.676 209.321 315.753 212.556C315.825 215.35 314.693 217.524 312.036 219.073C311.035 213.867 308.921 209.267 306.365 204.847C305.174 202.803 304.823 202.732 302.857 204.007C302.499 204.239 302.184 204.555 301.82 204.781C300.73 205.466 299.593 205.752 298.55 204.781C297.401 203.697 297.597 202.476 298.36 201.249L300.147 198.401C298.622 195.791 295.31 195.124 294.535 192.443C296.471 190.656 298.377 189.214 299.896 187.427C302.339 184.532 302.249 181.47 299.682 178.652C298.077 176.889 296.299 175.292 294.374 173.886C287.965 169.197 282.461 163.513 276.826 158.003C274.586 155.828 272.15 153.832 269.761 151.825C268.79 151.003 267.712 150.306 266.515 149.442C267.26 148.792 267.855 148.346 268.368 147.821C270.155 145.986 272.883 144.414 273.574 142.209C275.248 136.895 279.227 133.511 282.437 129.43C285.416 125.671 284.725 122.365 280.597 119.946C278.482 118.707 277.839 117.325 278.279 114.96C279.411 108.799 276.659 104.01 272.424 99.9228C270.16 97.7363 267.611 98.1355 265.901 100.846C265.007 102.327 264.24 103.882 263.608 105.493C262.265 108.594 260.374 111.427 258.027 113.857C249.205 123.389 238.304 130.121 226.784 135.579C219.159 139.195 211.791 143.246 204.267 147.017C198.58 149.772 193.781 154.07 190.418 159.421C181.566 173.641 181.656 188.017 191.609 201.505C196.416 208.028 201.337 214.48 206.215 220.956C207.448 222.588 209.122 224.012 209.926 225.823C211.805 230.075 212.655 234.711 212.404 239.353C205.256 245.001 200.991 252.174 195.934 258.876C192.956 258.876 189.828 258.691 186.713 258.912C178.82 259.496 171.124 261.653 164.077 265.256C152.48 271.083 141.019 277.171 130.911 285.512C122.571 292.369 114.071 299.006 107.161 307.513C91.5427 326.756 79.7126 347.828 73.8631 372.111C70.9036 383.975 68.9882 396.075 68.1387 408.273C67.4537 419.27 67.8052 430.316 67.8409 441.367C67.8707 449.618 69.1335 457.738 71.0218 465.793C71.7882 469.054 72.4812 472.33 73.1007 475.623C75.4834 488.408 78.5034 501.002 84.5376 512.667C84.85 513.358 85.105 514.073 85.3 514.806C88.1771 523.736 92.8233 531.481 100.805 536.896C101.248 537.245 101.647 537.645 101.997 538.088C93.3237 540.768 84.7222 543.342 76.222 546.118C73.8866 546.963 71.6448 548.047 69.5326 549.353C68.6553 549.808 67.9439 550.527 67.5 551.41C67.0561 552.293 66.9023 553.293 67.0606 554.268C67.3405 556.473 68.7404 557.759 70.7776 558.278C72.2345 558.678 73.7347 558.9 75.2451 558.939C80.2189 558.981 85.1928 558.873 90.1726 558.844C97.41 558.802 104.653 558.617 111.885 558.844C115.864 558.957 119.819 559.827 123.798 560.226C140.602 561.906 157.477 562.37 174.341 562.609C194.784 562.925 215.24 562.793 235.695 562.865C238.513 562.865 241.33 562.835 244.136 562.99C265.86 564.182 287.62 564.098 309.35 563.759C318.219 563.622 327.089 563.485 335.958 563.473C348.724 563.473 361.501 563.908 374.224 562.579C379.675 561.983 385.28 563.02 390.587 560.976C391.016 560.81 391.63 561.143 392.154 561.245C395.549 561.894 398.939 562.591 402.346 563.175C405.753 563.759 406.456 563.318 407.379 559.934C407.796 558.409 407.975 556.729 409.923 555.764C410.672 557.061 411.344 558.402 411.936 559.779C413.443 563.89 416.284 565.427 420.651 565.516C428.21 565.671 435.763 566.291 443.286 566.827C458.931 567.956 474.625 568.271 490.303 567.768C493.214 567.611 496.107 567.212 498.952 566.576C499.446 566.462 499.911 566.243 500.315 565.935C500.718 565.627 501.052 565.236 501.293 564.789C501.787 563.538 500.59 562.811 499.577 562.406ZM420.71 532.279C419.686 535.639 418.798 538.57 417.803 541.811C417.186 541.913 416.554 541.864 415.96 541.669C415.365 541.474 414.827 541.139 414.39 540.691C410.548 536.592 405.556 535.121 400.285 534.209C399.99 534.131 399.699 534.035 399.415 533.923C403.912 529.562 409.25 526.554 414.2 522.729L420.71 532.279ZM367.297 380.249C374.486 379.653 380.074 382.858 384.19 388.625C385.427 390.401 386.472 392.304 387.305 394.302C390.777 402.106 393.495 410.223 395.424 418.544C397.705 428.999 398.932 439.657 399.087 450.357C399.219 458.371 400.363 466.336 402.495 474.062C402.864 475.396 403.09 476.767 403.424 478.298C403.037 478.077 402.828 478.024 402.733 477.887C398.313 470.458 393.798 463.07 389.527 455.564C384.547 446.83 379.77 437.989 374.903 429.196C374.318 428.286 373.787 427.344 373.313 426.372C370.406 419.419 365.7 413.521 362.102 407.028C359.851 402.965 357.611 398.89 355.55 394.719C353.929 391.417 351.707 388.445 348.998 385.956C348.596 385.526 348.216 385.077 347.86 384.61C354.376 382.417 360.738 380.755 367.297 380.249ZM403.198 288.598C404.032 291.273 403.198 293.281 402.328 295.193C401.238 297.659 399.909 300.019 398.694 302.431C398.307 303.2 397.741 303.962 397.652 304.773C397.564 305.584 397.8 306.397 398.307 307.036C398.665 307.406 399.659 307.191 400.368 307.191C400.565 307.191 400.761 307.013 400.964 306.923C407.105 304.016 413.205 301.007 419.43 298.237C422.371 296.868 424.905 294.755 426.78 292.107C429.961 287.889 433.333 283.766 436.686 279.715C437.598 278.613 438.866 277.815 439.974 276.873L440.677 277.332C440.275 278.848 439.772 280.335 439.17 281.782C436.442 287.299 433.708 292.822 430.759 298.225C429.861 299.931 428.568 301.398 426.989 302.503C414.301 310.724 401.518 318.791 388.753 326.929C388.157 327.322 387.46 327.638 386.626 328.09L377.905 315.437C382.236 303.075 392.404 295.783 403.198 288.598ZM370.781 313.024C375.91 319.827 380.955 326.524 386.096 333.333C384.136 335.442 382.325 337.402 380.479 339.398C378.772 338.705 377.329 337.489 376.357 335.925C372.014 329.717 369.745 322.633 367.35 315.222L370.781 313.024ZM327.339 245.108C327.81 247.872 328.197 250.404 328.667 252.918C330.818 264.381 332.241 275.98 335.619 287.216C338.424 296.515 340.771 305.958 343.214 315.365C343.916 318.064 344.25 320.858 344.774 323.741C343.16 324.784 341.695 325.684 340.283 326.655C335.285 330.074 330.109 333.268 325.391 337.009C319.041 342.019 311.691 345.23 304.721 349.109C299.259 352.153 293.469 354.607 287.786 357.247C285.339 358.423 282.563 358.73 279.918 358.116C280.192 353.112 280.662 348.471 280.638 343.818C280.609 337.009 280.251 330.193 279.983 323.39C279.864 320.328 278.422 317.837 276.451 315.562C272.418 310.921 272.579 312.297 274.193 305.809C275.188 301.824 275.921 297.761 277.172 293.846C278.601 289.283 277.273 285.589 274.366 282.17C270.589 277.717 266.817 273.267 263.048 268.819C262.453 268.11 261.899 267.353 260.963 266.162C265.3 266.901 268.111 269.004 269.97 272.119C273.091 277.302 276.052 282.587 278.905 287.931C283.545 296.658 286.279 306.155 289.788 315.335C291.366 319.47 293.475 323.402 295.012 327.542C296.513 331.582 297.591 335.77 298.842 339.892C299.122 340.822 299.176 341.864 299.64 342.68C300.036 343.403 300.702 343.938 301.493 344.17C302.583 344.343 303.28 343.455 303.417 342.383C303.685 340.238 303.965 338.081 304.012 335.925C304.257 326.08 303.958 316.229 303.119 306.417C302.827 302.973 303.024 299.488 302.744 296.045C302.261 290.129 301.731 284.207 300.957 278.327C299.902 270.511 298.574 262.736 297.341 254.735C300.522 251.471 304.93 250.16 309.379 248.974C313.829 247.789 318.374 246.657 322.895 245.59C324.367 245.352 325.85 245.193 327.339 245.114V245.108ZM252.773 287.597C248.329 285.345 248.311 285.315 250.2 280.799C251.391 277.94 252.672 275.116 254.048 271.97C255.698 273.496 257.026 274.842 258.473 276.039C260.509 277.798 262.643 279.439 264.865 280.954C266.336 281.908 266.968 282.962 266.723 284.642C266.158 288.467 265.681 292.309 265.014 296.122C264.591 298.505 263.888 300.888 263.227 303.706L252.666 296.635C253.261 294.395 253.684 292.512 254.262 290.677C254.762 289.104 254.095 288.27 252.773 287.597ZM264.686 305.863C266.473 298.869 268.963 292.018 269.249 284.702C269.249 284.16 269.249 283.617 269.249 283.075C269.306 282.328 269.137 281.581 268.764 280.931C268.391 280.281 267.832 279.758 267.158 279.429C262.75 276.873 259.075 273.364 255.173 269.796C255.823 268.336 256.299 267.27 256.96 265.757C257.86 266.269 258.807 266.525 259.343 267.145C263.886 272.638 268.381 278.17 272.829 283.742C274.872 286.31 275.718 289.009 274.58 292.464C272.853 297.683 271.787 303.122 270.244 308.407C269.458 311.1 269.755 313.477 271.876 315.192C276.159 318.654 277.237 323.062 277.237 328.376C277.237 337.777 277.988 347.178 276.892 356.561C276.844 356.979 276.761 357.396 276.647 358.075L273.562 357.658C269.988 340.766 266.465 324.085 262.995 307.614C263.56 307.06 264.496 306.56 264.674 305.863H264.686ZM297.252 249.802C296.77 250.305 296.254 250.775 295.709 251.208C293.815 252.483 293.576 254.271 293.922 256.35C295.506 266.382 297.138 276.403 298.55 286.453C299.062 290.081 299.051 293.781 299.211 297.451C299.608 306.633 299.99 315.814 300.355 324.993C300.397 326.041 300.355 327.09 300.355 328.138L299.706 328.323C298.401 325.672 296.918 323.098 295.834 320.363C293.487 314.434 291.255 308.462 289.139 302.449C285.165 291.13 279.447 280.746 272.805 270.874C269.881 266.501 265.8 263.898 260.296 264.071C259.629 264.071 258.95 263.761 257.913 263.475C260.534 258.375 262.053 253.157 265.222 248.73C266.887 246.311 269.097 244.317 271.673 242.91C280.656 238.144 290.217 234.778 299.914 231.316C295.995 237.125 295.512 243.321 297.24 249.802H297.252ZM316.248 220.122C317.197 219.231 317.953 218.155 318.471 216.96C318.988 215.765 319.255 214.477 319.256 213.175C319.291 210.149 319.321 207.117 319.202 204.09C319.158 202.241 318.741 200.419 317.976 198.734C317.212 197.049 316.115 195.536 314.752 194.284C313.972 193.557 313.329 192.693 312.62 191.901L312.942 191.365C313.636 191.567 314.318 191.81 314.985 192.092C318.094 193.617 321.174 195.184 324.271 196.721C325.068 197.073 325.742 197.654 326.208 198.39C326.673 199.126 326.91 199.984 326.886 200.855C327.089 207.772 327.518 214.689 327.482 221.605C327.482 225.025 326.761 228.463 326.076 231.835C325.48 234.682 324.474 237.441 323.693 240.253C323.608 240.781 323.366 241.272 323 241.662C322.634 242.053 322.16 242.325 321.638 242.445C314.455 244.387 307.301 246.419 300.129 248.402C300.039 248.402 299.926 248.367 299.7 248.325C298.246 242.189 299.753 236.815 304.132 232.287C308.093 228.188 312.155 224.149 316.236 220.122H316.248ZM212.369 224.018L230.024 209.255C229.143 206.068 226.903 203.655 225.259 200.885C223.806 198.387 222.546 195.782 221.488 193.093C220.69 191.067 220.225 188.726 222.34 187.135C224.455 185.544 226.784 186.438 228.666 187.731C230.194 188.905 231.569 190.266 232.758 191.782C234.253 193.569 235.618 193.814 238.197 192.527C239.9 191.675 240.258 190.739 239.43 188.452C237.976 184.496 236.451 180.564 234.915 176.644C232.901 171.532 234.128 167.183 237.756 163.228C242.021 158.563 247.007 154.774 252.052 151.08C254.31 149.43 256.734 148 259.438 146.237C268.183 154.482 276.683 162.614 285.332 170.585C288.424 173.439 291.885 175.899 295.161 178.532C299.229 181.791 300.522 183.96 294.839 188.428C294.16 188.958 293.427 189.423 292.748 189.965C290.318 191.889 290.366 193.14 293.016 194.934C293.91 195.529 294.857 196.083 295.691 196.762C296.271 197.33 296.801 197.946 297.275 198.603C295.334 200.986 293.701 203.62 295.929 206.449C298.097 209.166 300.927 208.344 303.995 206.986C306.258 210.757 308.212 214.659 308.599 219.151C308.796 221.415 307.586 223.119 305.621 224.137C303.125 225.424 300.605 226.669 298.026 227.771C290.372 231.03 282.676 234.176 275.015 237.429C270.286 239.43 265.8 241.891 262.864 246.282C261.167 248.78 259.73 251.445 258.575 254.235C254.899 263.356 251.427 272.554 247.888 281.723C247.733 282.122 247.549 282.509 247.257 283.165C246.509 282.743 245.791 282.272 245.107 281.753C238.364 275.837 231.543 270.004 224.949 263.928C219.934 259.317 216.675 253.425 214.013 247.247C213.673 246.34 213.673 245.341 214.013 244.435C216.645 238.048 215.383 231.924 213.012 225.829C212.797 225.311 212.637 224.811 212.357 224.018H212.369ZM201.325 256.386C204.827 252.15 208.038 247.67 211.588 243.005C211.811 243.58 211.961 244.18 212.035 244.792C211.91 248.849 213.56 252.37 215.365 255.82C218.528 261.855 223.138 266.704 228.249 271.101C234.801 276.732 241.376 282.339 247.972 287.919C249.258 289.009 250.688 289.932 252.112 290.975C248.681 297.927 246.25 305.029 245.321 313.214C242.938 311.761 240.818 310.724 239.001 309.3C236.793 307.568 234.721 305.668 232.806 303.617C225.658 295.967 218.546 288.246 211.463 280.519C210.197 279.187 209.065 277.732 208.086 276.176C205.59 272.006 203.213 267.764 200.86 263.517C199.496 261.086 199.305 258.81 201.313 256.386H201.325ZM196.315 260.026C198.245 266.454 201.331 272.119 204.988 277.475C206.203 279.263 207.549 280.958 209.015 282.545C216.068 290.159 223.114 297.778 230.298 305.261C234.504 309.64 239.114 313.56 244.88 315.83C245.172 315.943 245.476 315.997 246.161 316.169C247.352 312.077 248.544 308.002 249.92 303.295C253.905 319.708 254.274 335.984 257.199 352.522C253.94 350.955 250.962 349.818 248.293 348.185C240.002 343.097 231.698 338.057 224.294 331.629C221.371 329.056 218.211 326.764 214.858 324.784C210.593 322.312 207.532 318.856 204.905 314.835C204.055 313.46 203.056 312.183 201.926 311.028C200.211 309.366 199.949 307.739 200.848 305.505C201.805 302.985 202.533 300.383 203.022 297.731C203.719 294.299 202.76 293.346 199.282 292.875C194.897 292.28 190.549 291.44 186.177 290.772C185.634 290.731 185.125 290.491 184.749 290.097C184.373 289.703 184.156 289.184 184.14 288.64C183.889 286.852 183.544 285.011 183.437 283.188C183.341 280.698 182.484 278.297 180.983 276.308C179.314 274.049 177.831 271.658 176.551 269.158C175.848 267.812 175.705 266.18 175.258 264.452C182.126 262.348 189.17 260.866 196.303 260.026H196.315ZM84.6567 501.991C84.5971 502.622 84.5495 503.26 84.4363 504.648C83.9914 503.85 83.5936 503.026 83.245 502.181C80.4334 492.757 77.8124 483.29 76.2577 473.544C75.4059 468.182 73.9644 462.981 73.0173 457.661C71.0992 446.842 71.3018 435.898 71.3018 424.972C71.3535 404.601 74.3018 384.341 80.0581 364.801C82.1865 357.76 84.9251 350.919 88.2426 344.354C94.9386 330.748 103.394 318.081 113.392 306.679C115.568 304.129 117.906 301.721 120.391 299.47C124.68 295.669 129.177 292.101 133.567 288.413C143.33 280.204 154.577 274.371 165.733 268.396C168.08 267.139 170.654 266.311 173.4 265.173C173.316 270.415 176.104 274.139 178.302 278.047C179.291 279.716 179.869 281.597 179.988 283.534C180.107 285.571 180.488 287.597 180.703 289.635C181 292.446 182.662 293.846 185.337 294.21C189.721 294.806 194.105 295.401 198.489 295.997C198.906 296.057 199.317 296.146 200.187 296.301C199.454 298.684 198.877 300.942 198.055 303.122C195.91 308.788 195.868 308.776 199.109 314.049L196.333 312.357C191.901 309.664 187.327 307.162 183.073 304.213C179.803 301.955 176.861 299.208 173.912 296.521C171.678 294.496 171.386 294.138 168.867 293.191C168.807 293.495 168.605 293.9 168.718 294.043C172.494 298.767 176.08 303.67 181.382 306.899C184.89 309.032 188.393 311.183 191.836 313.453C194.915 315.454 197.894 317.623 200.938 319.672C203.981 321.722 207.091 323.694 210.117 325.767C214.215 328.579 218.456 331.23 222.298 334.358C232.734 342.971 244.196 350.257 256.424 356.049C264.463 359.858 273.251 361.822 282.145 361.798C286.261 361.798 290.002 360.219 293.594 358.51C299.348 355.781 304.858 352.552 310.601 349.764C323.449 343.562 334.136 334.048 346.21 326.672C351.184 323.634 355.741 319.982 360.542 316.616C361.495 315.943 362.478 315.311 363.74 314.46C364.932 317.784 366.266 320.745 367.094 323.843C368.619 329.502 371.859 334.233 374.945 339.052C375.773 340.351 377.328 341.203 378.584 342.21C379.579 343.014 380.634 343.753 381.694 344.545C368.994 358.796 352.989 368.768 337.841 380.01C329.501 378.521 320.93 378.855 312.322 380.272C295.876 382.977 279.608 386.444 263.662 391.318C257.163 393.308 250.759 395.655 244.368 397.996C236.862 400.743 229.369 403.549 221.959 406.545C219.094 407.737 216.598 406.76 214.114 405.866C200.908 401.058 187.904 395.738 175.663 388.774C170.409 385.795 165.394 382.352 160.325 379.045C158.896 377.999 157.524 376.878 156.215 375.685C159.026 384.854 177.51 405.729 193.492 417.864C191.889 418.413 190.561 418.919 189.209 419.324C169.147 425.329 150.085 433.759 131.476 443.244C125.392 446.313 119.482 449.716 113.773 453.437C96.3199 464.905 86.6582 481.187 84.6567 501.991ZM388.133 533.566C380.491 527.906 373.08 521.949 367.428 514.132C362.37 507.138 356.009 501.461 349.272 496.152C344.262 492.203 339.318 488.175 334.344 484.178C333.822 483.792 333.329 483.37 332.867 482.915C328.399 478.113 322.979 478.018 317.379 480.133C313.729 481.475 310.216 483.164 306.89 485.179C294.845 492.62 282.92 500.269 270.959 507.847C258.724 515.592 246.608 523.557 234.218 531.082C223.656 537.438 212.261 542.204 200.759 546.654C193.283 549.556 185.814 552.344 177.79 553.297C175.753 553.541 173.715 553.798 171.666 553.893C154.851 554.918 138.708 552.278 123.417 545.028C118.926 542.895 114.399 540.858 109.907 538.719C108.448 538.028 107.03 537.224 105.618 536.431C95.5456 530.766 89.4935 521.978 86.0684 511.171C85.7221 510.152 85.5725 509.077 85.6276 508.002C87.2121 490.266 94.0683 475.039 107.358 462.975C109.741 460.781 112.335 458.828 115.101 457.143C138.575 443.076 163.581 431.743 189.632 423.363C199.889 420.057 209.777 415.619 219.892 411.824C240.52 404.079 260.773 395.25 282.396 390.484C293.576 388.023 304.787 385.587 316.087 383.823C321.972 382.956 327.947 382.867 333.856 383.561C341.599 384.431 347.794 388.404 351.589 395.631C356.11 404.24 360.661 412.824 366.117 420.915C368.762 424.835 370.567 429.309 372.92 433.426C380.824 447.324 388.842 461.164 396.746 475.069C399.576 480.049 402.179 485.161 404.907 490.201C409.22 498.154 412.371 506.775 418.834 513.882C416.296 516.176 414.122 518.434 411.65 520.304C405.705 524.85 399.594 529.098 393.637 533.59C391.665 535.055 390.117 535.055 388.133 533.59V533.566ZM489.272 564.646C474.023 565.129 458.774 564.998 443.548 563.961C435.566 563.419 427.602 562.656 419.626 562.138C418.764 562.152 417.92 561.898 417.208 561.411C416.497 560.925 415.953 560.229 415.653 559.422C414.848 557.534 413.927 555.697 412.895 553.923C411.394 551.456 409.607 551.015 407.588 553.005C405.89 554.667 404.776 556.931 403.019 559.493C400.195 559.493 396.907 557.98 393.393 557.616C392.082 550.872 394.179 544.349 393.715 537.736C395.615 535.21 397.985 535.401 400.493 536.229C404.818 537.653 409.077 539.1 412.293 542.639C414.611 545.183 417.821 544.802 420.829 544.504C422.164 544.373 422.336 543.157 421.961 541.972C421.591 540.891 421.503 539.733 421.705 538.608C421.907 537.483 422.393 536.428 423.117 535.544C424.743 533.411 426.298 532.994 428.8 533.989C429.604 534.31 430.366 534.727 431.135 535.121C437.943 538.642 444.716 542.27 451.578 545.672C459.494 549.627 467.417 553.583 475.482 557.223C480.295 559.398 485.382 560.959 490.374 562.805C491.258 563.072 492.058 563.562 492.697 564.229C491.536 564.396 490.41 564.634 489.272 564.67V564.646Z" fill="black"/>
<path d="M252.1 290.981C248.669 297.933 246.239 305.035 245.309 313.22C242.927 311.767 240.806 310.73 238.989 309.306C236.785 307.572 234.718 305.67 232.806 303.617C225.658 295.967 218.546 288.246 211.463 280.519C210.197 279.187 209.066 277.732 208.086 276.176C205.59 272.006 203.213 267.764 200.86 263.516C199.514 261.086 199.324 258.81 201.331 256.367C204.834 252.132 208.044 247.652 211.594 242.987C211.817 243.562 211.968 244.162 212.041 244.774C211.916 248.831 213.566 252.352 215.371 255.801C218.534 261.836 223.144 266.686 228.255 271.083C234.808 276.714 241.382 282.32 247.978 287.901C249.247 289.009 250.676 289.938 252.1 290.981Z" fill="white"/>
<path d="M386.59 328.06L377.869 315.406C382.235 303.074 392.403 295.782 403.197 288.597C404.031 291.272 403.197 293.28 402.327 295.192C401.237 297.659 399.909 300.018 398.694 302.431C398.307 303.199 397.741 303.962 397.651 304.772C397.564 305.584 397.799 306.397 398.307 307.036C398.664 307.405 399.659 307.191 400.368 307.191C400.564 307.191 400.761 307.012 400.963 306.923C407.105 304.016 413.204 301.007 419.429 298.237C422.371 296.868 424.904 294.755 426.78 292.106C429.961 287.889 433.332 283.766 436.686 279.715C437.597 278.613 438.866 277.814 439.974 276.873L440.677 277.332C440.275 278.847 439.771 280.334 439.17 281.782C436.441 287.299 433.707 292.821 430.759 298.225C429.861 299.931 428.568 301.397 426.988 302.502C414.3 310.724 401.517 318.79 388.752 326.928C388.097 327.292 387.424 327.607 386.59 328.06Z" fill="white"/>
<path d="M312.94 191.377C313.635 191.579 314.317 191.822 314.984 192.104C318.093 193.629 321.173 195.196 324.27 196.733C325.067 197.085 325.741 197.666 326.207 198.402C326.672 199.138 326.908 199.996 326.885 200.867C327.088 207.784 327.516 214.701 327.481 221.617C327.481 225.037 326.76 228.475 326.075 231.846C325.479 234.694 324.473 237.453 323.692 240.264C323.606 240.793 323.365 241.284 322.999 241.674C322.633 242.065 322.159 242.337 321.637 242.457C314.453 244.399 307.299 246.431 300.127 248.414C300.038 248.414 299.925 248.379 299.699 248.337C298.245 242.201 299.752 236.827 304.13 232.299C308.109 228.177 312.172 224.137 316.252 220.11C317.201 219.219 317.958 218.143 318.475 216.948C318.993 215.754 319.26 214.466 319.26 213.164C319.296 210.137 319.326 207.105 319.207 204.078C319.16 202.23 318.741 200.409 317.974 198.726C317.208 197.043 316.11 195.533 314.745 194.284C313.971 193.557 313.328 192.694 312.619 191.901L312.94 191.377Z" fill="white"/>
<path d="M255.174 269.796C255.823 268.336 256.3 267.27 256.961 265.756C257.86 266.269 258.807 266.525 259.344 267.144C263.887 272.637 268.382 278.17 272.83 283.742C274.873 286.31 275.719 289.009 274.581 292.464C272.853 297.689 271.787 303.122 270.244 308.406C269.458 311.099 269.756 313.476 271.876 315.192C276.159 318.653 277.237 323.062 277.237 328.376C277.237 337.777 277.988 347.178 276.892 356.561C276.844 356.978 276.761 357.395 276.648 358.074L273.562 357.657L262.995 307.614C263.591 307.018 264.502 306.536 264.681 305.827C266.468 298.833 268.958 291.981 269.244 284.666C269.244 284.123 269.244 283.581 269.244 283.039C269.3 282.292 269.131 281.545 268.758 280.895C268.386 280.245 267.826 279.722 267.153 279.393C262.751 276.873 259.075 273.364 255.174 269.796Z" fill="white"/>
<path d="M263.215 303.706L252.666 296.634C253.262 294.394 253.685 292.512 254.262 290.677C254.763 289.098 254.096 288.294 252.773 287.591C248.329 285.339 248.312 285.309 250.2 280.793C251.391 277.934 252.672 275.11 254.048 271.964C255.698 273.489 257.026 274.836 258.474 276.033C260.509 277.792 262.643 279.433 264.865 280.948C266.337 281.901 266.968 282.956 266.724 284.636C266.158 288.461 265.681 292.303 265.014 296.116C264.591 298.541 263.888 300.924 263.215 303.706Z" fill="white"/>
<path d="M367.35 315.222L370.781 313.024C375.909 319.827 380.955 326.524 386.095 333.333C384.136 335.442 382.325 337.402 380.478 339.398C378.77 338.705 377.326 337.487 376.356 335.919C372.014 329.741 369.744 322.657 367.35 315.222Z" fill="white"/>
<path d="M262.519 170.251C260.601 166.081 260.988 161.911 263.299 158.05C263.598 157.713 263.972 157.451 264.392 157.287C264.811 157.122 265.263 157.059 265.712 157.103C266.849 157.305 266.974 158.449 266.593 159.486C265.253 163.066 263.883 166.659 262.519 170.251Z" fill="black"/>
<path d="M270.13 168.667C270.946 168.976 271.447 169.024 271.721 169.298C273.203 170.663 274.577 172.141 275.831 173.719C276.236 174.267 276.045 175.637 275.604 176.286C275.313 176.721 274.044 176.793 273.329 176.596C271.065 176 269.04 173.307 269.159 171.061C269.183 170.239 269.773 169.465 270.13 168.667Z" fill="black"/>
<path d="M421.819 237.464C455.977 237.464 483.668 209.77 483.668 175.607C483.668 141.444 455.977 113.75 421.819 113.75C387.661 113.75 359.971 141.444 359.971 175.607C359.971 209.77 387.661 237.464 421.819 237.464Z" stroke="black" stroke-width="8" stroke-miterlimit="10"/>
<path d="M396.107 156.214C396.335 149.323 398.757 143.757 403.376 139.517C408.032 135.239 414.467 133.1 422.682 133.1C430.405 133.1 436.651 135.106 441.421 139.12C446.228 143.133 448.632 148.282 448.632 154.567C448.632 162.707 444.62 169.162 436.594 173.933C432.884 176.091 430.367 178.078 429.042 179.896C427.717 181.713 427.054 184.042 427.054 186.881V190.175H413.881L413.824 186.143C413.559 182.016 414.259 178.552 415.925 175.75C417.628 172.948 420.468 170.374 424.442 168.026C428.001 165.868 430.461 163.881 431.824 162.063C433.187 160.208 433.869 157.88 433.869 155.078C433.869 152.049 432.771 149.569 430.575 147.638C428.379 145.669 425.502 144.685 421.944 144.685C418.31 144.685 415.376 145.726 413.143 147.809C410.909 149.891 409.679 152.693 409.452 156.214H396.107ZM426.487 214.539C424.897 216.091 422.947 216.867 420.638 216.867C418.329 216.867 416.36 216.091 414.732 214.539C413.142 212.948 412.348 211.036 412.348 208.803C412.348 206.569 413.142 204.676 414.732 203.124C416.36 201.571 418.329 200.795 420.638 200.795C422.947 200.795 424.897 201.571 426.487 203.124C428.077 204.676 428.872 206.569 428.872 208.803C428.872 211.036 428.077 212.948 426.487 214.539Z" fill="#FF8025"/>
</svg>
