<svg width="758" height="467" viewBox="0 0 758 467" fill="none" xmlns="http://www.w3.org/2000/svg">
<path d="M142.341 251.531C142.341 362.334 99.6152 393.891 208.631 393.891C317.646 393.891 547.898 385.326 484.647 217.132C460.291 152.367 414.204 60.8467 305.188 60.8467C196.173 60.8467 142.341 140.732 142.341 251.531Z" fill="#ECEBEA"/>
<path d="M190.888 212.827L189.497 214.057L196.823 211.439C198.116 210.651 199.361 209.756 200.713 209.074C212.02 203.328 223.966 199.37 236.183 196.095C246.497 193.336 256.846 190.833 267.661 191.499C268.816 191.57 269.974 191.534 271.129 191.593C274.184 191.755 276.434 190.304 278.282 188.046C278.846 187.34 279.346 186.619 279.977 185.764C285.431 194.077 292.565 200.663 299.288 207.652C302.871 211.396 306.335 213.032 311.585 211.593C318.21 209.784 323.609 212.382 327.274 218.061C329.127 220.939 331.058 224.045 331.779 227.305C333.3 234.205 334.388 241.194 335.038 248.231C335.634 254.659 335.409 261.159 335.634 267.627C335.634 268.16 336.323 268.676 336.694 269.204C337.088 268.747 337.722 268.337 337.817 267.828C338.999 261.475 339.843 255.062 341.222 248.755C343.311 239.204 345.865 229.772 350.594 221.1C353.179 216.37 356.281 212.062 362.149 211.002C362.22 211.002 362.252 210.773 362.343 210.553L349.948 200.655C350.094 200.379 350.243 200.123 350.389 199.867C357.621 203.02 365.2 205.59 372.014 209.488C385.808 217.372 394.51 229.764 398.912 244.825C405.254 266.449 411.551 288.065 419.406 309.188C421.278 314.218 423.659 319.066 425.929 323.934C426.788 325.774 428.195 326.657 430.457 325.818C446.513 319.874 462.132 313.019 476.347 303.319C479.918 300.895 483.394 298.396 487.012 295.861L519.109 324.714C506.304 334.568 493.692 344.221 481.179 353.989C478.176 356.33 475.13 357.646 471.189 357.879C455.664 358.793 440.164 360.13 424.652 361.312C410.369 362.384 396.083 363.401 381.8 364.517C380.33 364.631 379.727 364.186 379.396 362.822C377.942 356.85 376.164 350.946 375.009 344.919C373.969 339.503 373.587 333.961 372.885 328.202L365.105 365.585C363.734 365.715 362.441 365.979 361.164 365.928C359.261 365.837 358.078 366.539 357.03 368.167C353.877 373.106 350.511 377.914 347.213 382.751C346.606 383.642 346.101 384.867 345.242 385.262C340.781 387.232 336.26 388.994 331.322 390.997C334.376 361.494 336.331 332.586 337.462 303.701C335.306 303.075 335.33 304.383 335.275 305.566C334.908 313.567 334.617 321.573 334.183 329.574C333.762 337.339 333.304 345.104 332.678 352.853C331.728 364.596 330.573 376.318 329.608 388.052C329.41 390.417 328.898 392.14 326.139 392.479C324.638 392.664 323.199 393.362 321.717 393.756C306.283 397.985 290.463 400.653 274.495 401.718C262.427 402.553 250.363 402.9 237.685 401.97L244.424 399.999C243.987 396.621 243.565 393.362 243.123 389.968C243.868 389.676 244.566 389.388 245.271 389.128C257.457 384.619 269.683 380.201 281.825 375.573C290.917 372.112 298.079 366.113 301.827 357.103C305.184 349.046 307.521 340.548 310.158 332.215C310.742 330.301 311.009 328.303 310.946 326.303C310.887 323.938 309.236 323.244 307.309 324.623C306.225 325.357 305.271 326.267 304.487 327.316C301.57 331.474 298.776 335.715 295.935 339.929C295.355 340.792 294.752 341.636 293.716 343.157C292.845 341.064 292.013 339.692 291.694 338.21C288.9 325.203 289.53 312.01 290.082 298.849C290.244 295.018 291.063 291.214 291.193 287.387C291.296 284.234 288.829 283.027 286.121 284.628C285.326 285.16 284.56 285.735 283.827 286.35C283.913 285.978 283.951 285.597 283.938 285.215C283.599 283.796 283.674 281.798 282.755 281.147C281.837 280.497 279.823 280.871 278.538 281.4C277.12 281.979 275.981 283.244 274.696 284.234C274.223 279.728 271.937 278.629 268.24 281.262C266.514 282.495 265.111 284.163 263.535 285.649C261.564 284.186 260.307 284.1 257.978 285.605C254.387 287.919 252.235 291.344 250.923 295.317C248.621 302.278 248.085 309.507 248.188 316.748C248.353 328.829 248.842 340.918 249.09 353.011C249.209 358.73 245.433 362.227 239.427 362.136C238.951 358.922 238.473 355.694 237.992 352.451L209.707 357.047C214.184 336.894 218.519 317.284 222.854 297.675C222.074 298.08 221.444 298.725 221.057 299.515C212.465 314.743 203.917 329.984 195.412 345.238C193.677 348.323 192.106 351.498 190.707 354.749C189.398 357.84 190.119 359.002 193.339 359.613C194.388 359.862 195.467 359.959 196.543 359.901C205.569 358.959 214.598 358.021 223.603 356.917C227.777 356.409 231.911 355.538 236.297 354.789C238.268 369.503 240.199 383.992 242.209 398.971C233.145 400.665 224.439 402.64 215.63 403.85C204.789 405.343 193.92 406.475 183.021 407.248C170.504 408.147 157.952 408.663 145.407 408.935C138.439 409.085 131.428 408.371 124.775 406.006C115.679 402.786 111.77 396.05 113.74 386.625C115.147 379.944 116.566 373.173 118.931 366.799C127.917 342.656 137.328 318.711 146.44 294.604C152.312 279.074 158.09 263.512 163.607 247.852C168.1 235.089 175.644 223.915 186.604 216.213C190.312 215.57 188.421 215.444 190.888 212.827ZM222.846 296.894C222.902 296.817 222.953 296.737 223 296.654C223 296.654 222.929 296.579 222.894 296.543C222.858 296.598 222.827 296.654 222.795 296.713L222.846 296.894Z" fill="#FF8025"/>
<path d="M532.922 356.831C515.424 382.698 497.872 408.538 480.269 434.351C479.551 435.266 478.518 435.88 477.372 436.073C474.408 436.468 471.397 436.578 468.406 436.791C461.198 437.323 453.989 437.831 446.781 438.367C439.431 438.911 432.073 439.499 424.711 440.039C417.581 440.563 410.444 441.028 403.314 441.56C393.962 442.262 384.618 443.046 375.261 443.728C365.905 444.41 356.541 444.997 347.185 445.699C335.838 446.546 324.496 447.473 313.153 448.348C310.52 448.549 307.88 448.667 304.948 448.844C305.279 448.273 305.409 448.013 305.574 447.772C323.309 421.589 341.083 395.434 358.894 369.306C359.493 368.566 360.36 368.092 361.306 367.986C372.44 367.099 383.577 366.338 394.715 365.522L434.796 362.566L476.028 359.511C489.691 358.486 503.353 357.469 517.016 356.46C522.533 356.066 528.019 355.672 533.963 355.23C533.411 356.07 533.19 356.437 532.922 356.831ZM460.985 407.189C461.28 409.444 462.739 409.972 464.804 409.976C470.877 409.999 476.032 405.104 475.496 399.751C475.319 397.993 474.428 396.866 472.706 396.574C470.983 396.283 469.699 396.941 468.91 398.518C468.374 399.586 468.367 400.445 469.699 400.882C471.878 401.592 471.614 403.153 470.333 404.174C469.052 405.195 467.302 405.703 465.687 406.216C464.153 406.704 462.534 406.905 460.957 407.232C461.351 404.765 461.978 402.305 462.14 399.818C462.222 398.659 461.485 397.453 461.123 396.271C460.047 396.748 458.758 396.992 457.938 397.741C455.503 399.921 453.264 402.361 450.899 404.651C450.533 405.001 449.926 405.108 449.429 405.325C450.127 403.653 450.923 402.014 451.498 400.303C452.531 397.217 451.498 395.857 448.302 395.999C444.963 396.081 441.749 397.287 439.179 399.42C438.355 400.118 437.827 401.438 437.693 402.538C437.649 402.897 439.269 403.464 440.522 404.15L435.233 408.297C439.569 410.441 441.322 407.595 443.262 405.206L443.656 405.892C443.336 406.681 443.021 407.508 442.599 408.573C444.594 409.239 446.221 409.081 447.589 407.469C448.204 406.744 448.834 406.03 449.453 405.309C449.58 405.525 449.665 405.763 449.701 406.011C449.646 406.767 449.524 407.52 449.429 408.277C450.289 408.206 451.298 408.391 451.971 407.997C452.984 407.402 453.713 406.35 454.651 405.597C455.591 404.929 456.566 404.312 457.572 403.748C457.41 404.974 457.272 405.404 457.312 405.821C457.39 406.811 457.568 407.792 457.706 408.782C458.616 408.364 459.523 407.95 460.425 407.528C460.612 407.426 460.792 407.313 460.965 407.189H460.985ZM407.133 410.197C411.216 412.022 412.848 409.132 414.787 406.98L415.181 407.426C414.87 408.301 414.574 409.172 414.18 410.212C416.489 410.772 418.421 410.658 419.603 408.45C420.872 406.085 422.251 403.772 423.201 401.288C424.096 398.924 422.957 397.477 420.442 397.552C416.836 397.662 413.443 398.711 410.684 401.099C409.896 401.773 409.254 403.043 409.297 404.004C409.325 404.596 410.775 405.128 411.532 405.648L407.133 410.197ZM390.868 405.384C390.08 407.355 389.26 409.278 388.385 411.367C390.119 412.085 391.444 412.124 392.374 410.208C394.005 406.85 395.728 403.539 397.497 400.039C393.402 398.51 391.191 400.804 389.177 403.586L388.653 403.098C389 402.029 389.359 400.961 389.753 399.732C387.956 398.9 385.969 399.156 385.225 400.571C383.388 404.055 382.103 407.804 380.527 411.545C383.538 412.179 385.615 411.722 387.061 409.255C387.944 407.765 389.154 406.468 390.214 405.084L390.868 405.392V405.384ZM438.556 397.367C434.418 396.29 432.329 397.252 431.068 400.626C430.185 400.626 429.275 400.579 428.368 400.626C427.012 400.679 425.715 401.196 424.695 402.092C423.675 402.988 422.995 404.207 422.768 405.545C422.413 407.571 423.65 409.385 425.68 409.385C429.07 409.408 432.345 409.318 434 405.313C435.123 402.589 436.924 400.126 438.544 397.367H438.556ZM372.589 404.004C371.093 405.53 369.915 407.339 369.125 409.325C368.049 411.86 369.066 413.184 371.825 413.109C373.66 412.999 375.484 412.735 377.275 412.321C377.559 412.248 377.825 412.119 378.057 411.942C378.29 411.764 378.485 411.542 378.631 411.288C380.424 407.67 382.099 404.008 383.971 400.039C379.289 399.609 375.596 401.084 372.605 404L372.589 404.004ZM401.415 407.922C401.344 408.379 401.143 408.86 401.222 409.286C401.411 410.244 401.738 411.174 402.01 412.112C402.841 411.671 403.957 411.434 404.457 410.748C406.704 407.67 406.771 404.122 406.061 400.575C405.726 398.888 404.091 398.695 403.208 399.649C399.795 403.251 396.599 407.063 393.379 410.847C393.146 411.139 393.182 412.152 393.379 412.25C393.836 412.487 394.691 412.644 395.018 412.357C396.299 411.284 397.418 410.031 398.664 408.919C399.394 408.335 400.159 407.796 400.954 407.303L401.427 407.922H401.415Z" fill="#FFFEFE"/>
<path d="M317.092 110.875C313.876 109.015 313.1 105.964 313.419 102.527C313.699 99.4877 314.601 96.6655 317.703 95.412C320.804 94.1586 323.737 95.412 325.621 97.7061C327.985 100.611 330.527 100.237 333.109 98.8176C335.213 97.6627 336.991 95.9086 338.886 94.3832C339.588 93.8156 340.132 93.0273 340.857 92.5464C346.867 88.6915 348.345 85.5185 347.115 78.1674C353.595 78.1674 360.019 78.6167 366.36 78.0649C377.525 77.0913 388.781 75.897 397.361 67.0283C400.12 78.3014 400.285 89.5508 399.619 100.871C399.461 103.63 399.091 106.571 399.856 109.113C402.153 116.74 404.955 124.214 407.576 131.738C408.203 133.547 409.062 135.286 409.547 137.134C410.193 139.586 409.637 140.201 407.091 140.22C403.174 140.22 399.233 140.22 395.292 140.22C394.63 144.269 393.995 148.163 393.353 152.104C387.835 152.01 383.295 150.236 379.165 147.138C377.982 146.255 376.469 145.837 375.105 145.207C374.908 146.716 374.451 148.246 374.557 149.736C375.078 157.106 377.75 160.291 384.895 162.262C386.799 162.786 388.742 163.141 391.201 163.693C390.369 167.035 389.94 170.342 388.714 173.342C385.624 180.878 379.003 183.74 371.192 181.375C363.609 179.069 356.826 175.128 350.237 170.886C340.92 164.875 332.588 157.78 327.343 147.729C325.739 147.958 325.372 148.711 326.302 149.893C329.483 154.02 332.297 158.533 335.994 162.14C340.589 166.625 345.909 170.354 351.033 174.481C350.958 174.623 350.706 175.084 350.454 175.545C346.15 183.35 342.035 191.276 339.604 199.905C338.815 202.727 338.272 205.817 338.5 208.702C339.009 215.06 340.077 221.375 340.916 227.709C341.31 230.835 342.398 234.083 341.913 237.074C340.928 243.168 339.087 249.116 337.775 254.417C337.089 248.111 336.498 241.134 335.548 234.217C334.713 228.166 333.034 222.36 329.396 217.268C324.966 211.087 319.362 207.898 311.567 209.475C309.903 209.803 308.219 210.01 306.526 210.094C305.856 210.133 304.949 209.94 304.508 209.495C298.202 203.093 291.896 196.629 285.693 190.086C285.137 189.503 284.936 188.115 285.189 187.299C289.567 173.153 294.115 159.054 298.427 144.887C299.105 142.66 300.177 141.655 302.317 141.537C305.824 141.344 308.185 139.523 309.706 136.452C310.286 135.27 310.975 134.154 311.5 132.972C314.514 126.09 317.498 119.196 320.537 112.195C319.476 111.797 318.172 111.494 317.092 110.875ZM381.892 102.227C385.254 102.345 386.724 100.473 385.317 97.4065C384.923 96.5472 383.267 95.9047 382.132 95.8022C378.388 95.4672 374.617 95.4435 370.857 95.2622C369.856 95.2149 368.863 94.8681 367.885 94.9627C366.908 95.0573 365.213 95.3568 365.126 95.7865C364.898 97.0084 365.012 98.6875 365.647 99.5744C366.281 100.461 367.826 100.993 369.04 101.151C372.981 101.667 376.989 101.939 380.97 102.306V102.223C381.277 102.231 381.585 102.203 381.892 102.235V102.227Z" fill="#FEFEFE"/>
<path d="M288.948 285.965C289.019 287.148 289.228 288.389 289.133 289.572C289.011 291.176 288.573 292.753 288.408 294.357C287.277 305.247 287.158 316.219 288.053 327.132C288.447 331.861 289.448 336.548 290.54 341.168C290.812 342.378 292.325 343.749 293.571 344.179C295.372 344.802 296.33 343.115 297.244 341.704C299.68 337.876 302.115 334.045 304.685 330.308C305.737 328.779 307.136 327.486 308.378 326.087L309 326.379C308.843 327.782 308.843 329.244 308.449 330.573C306.025 338.416 303.774 346.339 300.96 354.029C297.587 363.257 290.922 369.622 281.885 373.316C274.137 376.469 266.255 379.307 258.408 382.228C253.249 384.147 248.051 385.96 242.758 387.864C241.706 379.981 240.689 372.389 239.66 364.711C241.442 364.147 243.073 363.726 244.626 363.111C248.788 361.467 251.42 358.692 251.152 353.875C251.046 352.259 251.152 350.635 251.046 349.023C250.258 335.563 249.332 322.086 250.569 308.626C251.041 303.667 252.115 298.784 253.765 294.085C254.656 291.535 257.151 289.493 259.121 287.384C259.59 286.887 260.765 287.037 261.616 286.887C261.671 287.676 261.888 288.5 261.738 289.252C261.486 290.522 260.895 291.72 260.627 292.985C258.802 301.538 258.432 310.214 258.621 318.925C258.676 321.909 258.916 324.869 259.07 327.821C261.49 328.093 261.041 326.702 260.938 325.519C260.189 315.113 260.32 304.747 262.515 294.499C263.504 289.816 265.36 285.531 269.609 282.812C270.287 282.378 271.292 282.457 272.147 282.299C272.202 283.088 272.423 283.908 272.281 284.664C271.13 290.754 269.581 296.824 268.793 302.973C267.744 311.381 267.702 319.884 268.667 328.302C270.184 328.669 270.602 328.275 270.499 326.698C269.826 316.529 269.79 306.367 271.737 296.3C272.628 291.771 274.078 287.487 277.751 284.4C278.823 283.498 280.234 282.997 281.629 282.24C280.447 290.77 278.792 298.681 278.425 306.651C278.055 314.755 278.965 322.914 279.316 331.049L280.392 331.377C280.742 330.754 281.223 330.167 281.405 329.496C281.558 328.937 281.33 328.279 281.33 327.664C281.058 318.992 280.597 310.265 280.597 301.594C280.597 296.954 281.779 292.421 284.77 288.649C285.677 287.506 286.958 286.655 288.069 285.665L288.948 285.965ZM267.319 343.178C265.743 343.107 265.526 343.659 265.857 345.235C266.488 347.991 266.861 350.799 266.972 353.623C267.059 357.64 265.478 361.065 262.412 363.793C261.959 364.187 262.018 365.152 261.813 365.854L262.7 366.047C269.136 361.203 270.831 352.929 267.319 343.178Z" fill="#FEFDFE"/>
<path d="M478.827 438.096C479.174 442.948 479.505 447.524 479.844 452.286L304.937 465.226C304.594 460.39 304.271 455.825 303.932 451.036L478.827 438.096Z" fill="#FEFEFE"/>
<path d="M239.222 425.888L239.328 425.383L322.486 419.234L302.386 448.848L239.222 425.888Z" fill="#FEFEFE"/>
<path d="M234.744 426.574C256.731 434.515 278.713 442.484 300.691 450.48C301.148 450.646 301.736 451.213 301.775 451.663C302.169 455.916 302.465 460.177 302.804 464.694C292.352 460.886 282.211 457.205 272.063 453.504C260.456 449.294 248.838 445.116 237.247 440.859C236.459 440.563 235.324 439.775 235.249 439.117C234.788 435.002 234.579 430.839 234.275 426.59C234.431 426.571 234.588 426.566 234.744 426.574Z" fill="#FDFDFD"/>
<path d="M349.164 219.527C347.126 223.425 345.416 227.52 343.485 231.702C342.44 223.906 341.479 216.287 340.375 208.687C339.796 204.694 341.293 201.23 342.476 197.414L358.272 209.917C354.067 212.12 351.237 215.542 349.164 219.527Z" fill="#FCFCFC"/>
<path d="M283.149 186.869C281.722 184.426 280.162 182.534 281.376 179.893C282.325 177.835 284.158 177.469 286.523 177.264C285.376 180.523 284.327 183.511 283.149 186.869Z" fill="#F6F5F5"/>
<path d="M190.392 215.264C187.503 216.009 189.375 216.564 185.663 217.207L190.392 215.264Z" fill="#DCD2CB"/>
<path d="M196.833 211.479L195.785 211.873L196.833 211.479Z" fill="#DCD2CB"/>
<path d="M222.892 296.525L222.998 296.635C222.951 296.718 222.9 296.798 222.845 296.875L222.793 296.694C222.806 296.628 222.84 296.569 222.892 296.525Z" fill="#2B2526"/>
<path d="M409.317 404.022C409.34 403.469 409.476 402.927 409.714 402.428C409.952 401.929 410.289 401.483 410.704 401.117C413.463 398.708 416.856 397.66 420.462 397.569C422.973 397.494 424.111 398.961 423.221 401.306C422.271 403.789 420.892 406.103 419.623 408.468C418.44 410.675 416.509 410.789 414.2 410.23C414.594 409.189 414.889 408.318 415.201 407.443L414.807 406.998C412.867 409.15 411.236 412.039 407.153 410.214L411.531 405.685C410.787 405.145 409.324 404.613 409.317 404.022ZM419.595 399.863L415.075 401.594L415.39 402.433C417.073 402.555 418.941 403.072 419.595 399.863Z" fill="#EC6C17"/>
<path d="M449.466 405.314C448.847 406.036 448.216 406.749 447.602 407.474C446.234 409.086 444.606 409.244 442.612 408.578C443.034 407.514 443.349 406.686 443.668 405.898L443.274 405.212C441.335 407.6 439.581 410.446 435.246 408.302L440.535 404.155C439.282 403.47 437.662 402.902 437.705 402.543C437.839 401.444 438.367 400.123 439.191 399.426C441.762 397.292 444.976 396.087 448.315 396.004C451.511 395.862 452.544 397.222 451.511 400.308C450.936 402.019 450.14 403.659 449.442 405.33L449.466 405.314ZM443.424 399.981C446.329 401.396 447.081 401.073 448.153 398.133L443.424 399.981Z" fill="#EC6B15"/>
<path d="M390.223 405.091C389.155 406.475 387.945 407.772 387.07 409.262C385.624 411.729 383.547 412.186 380.536 411.552C382.081 407.811 383.397 404.063 385.233 400.578C385.978 399.163 387.965 398.907 389.762 399.739C389.368 400.968 389.009 402.037 388.662 403.105L389.186 403.594C391.2 400.795 393.411 398.501 397.506 400.046C395.737 403.546 394.014 406.857 392.383 410.215C391.453 412.131 390.128 412.092 388.394 411.374C389.261 409.269 390.081 407.326 390.869 405.383L390.223 405.091ZM390.897 404.843C390.94 404.792 391.027 404.733 391.027 404.693C390.992 404.589 390.945 404.488 390.889 404.394L390.739 404.555L390.897 404.843ZM388.43 403.633C388.481 403.731 388.54 403.83 388.595 403.925C388.646 403.873 388.737 403.81 388.737 403.771C388.702 403.662 388.654 403.557 388.595 403.46C388.54 403.511 388.489 403.562 388.43 403.625V403.633Z" fill="#EC6C17"/>
<path d="M434.016 405.315C432.361 409.319 429.085 409.41 425.696 409.386C423.666 409.386 422.429 407.573 422.784 405.547C423.011 404.209 423.691 402.989 424.711 402.094C425.731 401.198 427.028 400.68 428.384 400.628C429.29 400.589 430.201 400.628 431.084 400.628C432.345 397.262 434.426 396.292 438.572 397.376C436.952 400.139 435.151 402.587 434.016 405.315Z" fill="#EC6C17"/>
<path d="M378.648 411.263C378.502 411.517 378.307 411.739 378.074 411.916C377.841 412.094 377.575 412.222 377.292 412.296C375.5 412.71 373.677 412.973 371.841 413.084C369.083 413.159 368.066 411.834 369.142 409.3C369.932 407.314 371.11 405.505 372.606 403.979C375.609 401.086 379.306 399.611 383.988 400.037C382.104 404.006 380.413 407.68 378.648 411.263ZM378.013 403.774C376.902 403.925 375.858 404.39 375.001 405.113C374.144 405.836 373.51 406.788 373.173 407.857C372.98 408.409 373.363 409.166 373.481 409.828C374.328 409.572 375.574 409.58 375.94 409.016C376.922 407.491 377.517 405.721 378.305 404.05L378.553 403.722L378.025 403.774H378.013Z" fill="#EC6D19"/>
<path d="M400.976 407.285C400.181 407.777 399.416 408.317 398.686 408.901C397.441 410.013 396.322 411.266 395.041 412.338C394.714 412.607 393.858 412.469 393.401 412.232C393.188 412.134 393.153 411.121 393.401 410.829C396.621 407.045 399.817 403.233 403.23 399.631C404.113 398.677 405.749 398.87 406.084 400.557C406.793 404.104 406.726 407.652 404.48 410.73C403.979 411.416 402.864 411.653 402.032 412.094C401.756 411.156 401.429 410.226 401.244 409.268C401.157 408.842 401.358 408.361 401.429 407.904L400.976 407.285Z" fill="#EC6C17"/>
<path d="M449.435 405.316C449.931 405.099 450.538 404.992 450.905 404.642C453.269 402.352 455.508 399.912 457.943 397.732C458.763 396.983 460.052 396.739 461.128 396.262C461.49 397.444 462.227 398.662 462.145 399.809C461.963 402.296 461.356 404.756 460.939 407.223L460.974 407.192C460.801 407.316 460.621 407.429 460.434 407.531C459.532 407.953 458.625 408.366 457.715 408.784C457.589 407.795 457.411 406.813 457.321 405.824C457.281 405.406 457.419 404.977 457.581 403.751C456.575 404.315 455.601 404.932 454.66 405.599C453.723 406.352 452.993 407.405 451.981 408C451.307 408.394 450.298 408.209 449.439 408.28C449.533 407.523 449.655 406.77 449.71 406.013C449.674 405.766 449.589 405.527 449.462 405.312L449.435 405.316Z" fill="#EC6D19"/>
<path d="M460.939 407.234C462.515 406.907 464.143 406.706 465.668 406.217C467.284 405.705 469.046 405.192 470.315 404.175C471.584 403.158 471.86 401.593 469.68 400.884C468.356 400.431 468.364 399.571 468.892 398.519C469.68 396.942 470.93 396.276 472.687 396.576C474.445 396.875 475.3 397.995 475.478 399.753C476.014 405.106 470.859 409.977 464.786 409.977C462.74 409.977 461.282 409.441 460.986 407.187L460.939 407.234Z" fill="#EC6C17"/>
<path d="M380.968 102.311C376.988 101.944 372.999 101.672 369.039 101.156C367.825 101.002 366.327 100.517 365.645 99.5792C364.963 98.641 364.897 97.0131 365.125 95.7912C365.204 95.3616 366.91 95.062 367.884 94.9674C368.857 94.8728 369.854 95.2197 370.855 95.267C374.615 95.4483 378.387 95.472 382.131 95.807C383.266 95.9095 384.921 96.552 385.316 97.4113C386.722 100.478 385.252 102.35 381.891 102.232H380.968V102.311Z" fill="#2A2627"/>
<path d="M261.811 365.864C262.016 365.162 261.957 364.197 262.41 363.802C265.476 361.075 267.057 357.649 266.97 353.633C266.859 350.808 266.486 348 265.855 345.245C265.524 343.668 265.74 343.117 267.317 343.188C270.828 352.931 269.142 361.205 262.698 366.049L261.811 365.864Z" fill="#343132"/>
<path d="M415.077 401.596L419.597 399.846C418.939 403.074 417.075 402.554 415.392 402.435L415.077 401.596Z" fill="#FEF3EB"/>
<path d="M448.158 398.127C447.086 401.067 446.333 401.391 443.429 399.976L448.158 398.127Z" fill="#FDEEE2"/>
<path d="M390.888 404.4C390.944 404.495 390.99 404.595 391.025 404.699C391.025 404.739 390.939 404.797 390.896 404.849L390.738 404.562L390.888 404.4Z" fill="#FFFEFE"/>
<path d="M388.594 403.467C388.653 403.565 388.701 403.669 388.736 403.777C388.736 403.817 388.645 403.88 388.594 403.931C388.539 403.829 388.48 403.73 388.429 403.632L388.594 403.467Z" fill="#FFFEFE"/>
<path d="M378.28 404.042C377.523 405.713 376.908 407.483 375.915 409.008C375.548 409.572 374.303 409.564 373.456 409.82C373.337 409.158 372.955 408.401 373.148 407.849C373.937 405.567 375.6 404.187 378.012 403.762L378.28 404.042Z" fill="#FEF8F4"/>
<path d="M378.013 403.766L378.541 403.715L378.293 404.042L378.013 403.766Z" fill="#FEF8F4"/>
<path d="M477.112 388.236L355.875 391.623L356.862 426.946L478.099 423.559L477.112 388.236Z" fill="white"/>
<path d="M384.798 405.827C385.213 405.796 385.63 405.834 386.032 405.941C386.309 406.017 386.567 406.151 386.788 406.335C387.048 406.614 387.19 406.983 387.182 407.364C387.183 407.798 387.064 408.223 386.839 408.594C386.55 409.056 386.174 409.457 385.732 409.776L384.944 410.372C385.294 410.468 385.634 410.6 385.957 410.766C386.103 410.829 386.224 410.94 386.3 411.081C386.416 411.326 386.456 411.601 386.414 411.869C386.339 412.363 386.189 412.841 385.968 413.288C385.721 413.843 385.363 414.34 384.916 414.751C384.481 415.156 383.982 415.487 383.438 415.728C382.923 415.959 382.373 416.102 381.811 416.15C381.308 416.177 380.805 416.113 380.325 415.961C380.158 415.925 380.004 415.847 379.876 415.735C379.749 415.622 379.652 415.479 379.596 415.318C379.534 414.824 379.545 414.324 379.627 413.832C379.797 412.989 380.021 412.063 380.333 411.073C380.644 410.084 380.979 409.02 381.377 407.884C381.744 406.856 381.98 406.308 382.094 406.253C382.254 406.18 382.421 406.122 382.591 406.079C383.112 405.982 383.638 405.917 384.167 405.886C384.376 405.854 384.587 405.835 384.798 405.827ZM383.17 411.739C382.954 411.749 382.743 411.805 382.552 411.905C382.465 411.947 382.388 412.007 382.326 412.08C382.263 412.153 382.217 412.239 382.189 412.331L381.795 413.947C381.775 414.03 381.789 414.117 381.832 414.19C381.875 414.264 381.945 414.318 382.027 414.341C382.244 414.403 382.474 414.395 382.686 414.317C382.979 414.226 383.248 414.072 383.474 413.864C383.742 413.617 383.946 413.308 384.069 412.965C384.167 412.742 384.186 412.492 384.124 412.256C384.06 412.083 383.932 411.941 383.765 411.862C383.588 411.778 383.393 411.74 383.198 411.751L383.17 411.739ZM384.443 407.404H384.4C384.243 407.418 384.09 407.464 383.951 407.538C383.892 407.562 383.839 407.598 383.795 407.643C383.751 407.689 383.717 407.743 383.694 407.802L383.253 409.158C383.214 409.284 383.253 409.374 383.383 409.39C383.559 409.405 383.735 409.374 383.895 409.3C384.122 409.208 384.33 409.074 384.506 408.905C384.711 408.718 384.865 408.482 384.956 408.22C385.005 408.118 385.027 408.006 385.018 407.894C385.01 407.782 384.972 407.674 384.908 407.581C384.853 407.513 384.781 407.459 384.7 407.425C384.619 407.391 384.531 407.377 384.443 407.384V407.404Z" fill="#EB660C"/>
<path d="M391.403 405.274C391.947 405.228 392.493 405.334 392.979 405.582C393.179 405.692 393.348 405.85 393.469 406.044C393.591 406.237 393.661 406.458 393.673 406.685C393.661 407.39 393.443 408.075 393.046 408.656C392.369 409.723 391.563 410.703 390.646 411.573L392.293 413.505C392.211 413.81 392.039 414.085 391.801 414.293C391.524 414.552 391.222 414.782 390.898 414.979C390.595 415.168 390.284 415.345 389.972 415.507L388.498 413.765L388.124 416.094C387.943 416.169 387.765 416.236 387.588 416.295C387.304 416.394 387.02 416.477 386.744 416.547C386.501 416.609 386.25 416.631 386 416.611C385.961 416.616 385.922 416.611 385.885 416.597C385.849 416.583 385.817 416.56 385.792 416.53C385.766 416.5 385.749 416.464 385.741 416.426C385.734 416.388 385.736 416.348 385.747 416.311C386.01 414.92 386.345 413.544 386.752 412.188C387.165 410.822 387.604 409.454 388.069 408.085C388.308 407.373 388.544 406.659 388.778 405.944C389.597 405.542 390.491 405.314 391.403 405.274ZM390.398 407.829C390.248 407.829 390.157 407.884 390.126 408.002L389.732 409.535C389.7 409.713 389.783 409.764 389.984 409.685C390.221 409.58 390.44 409.436 390.63 409.259C390.844 409.082 391.019 408.863 391.147 408.617C391.177 408.554 391.189 408.485 391.184 408.416C391.178 408.346 391.155 408.28 391.115 408.223C391.041 408.097 390.933 407.995 390.804 407.927C390.677 407.865 390.539 407.831 390.398 407.829Z" fill="#EB660C"/>
<path d="M399.049 405.343C399.263 405.326 399.479 405.351 399.684 405.418C399.754 405.438 399.817 405.479 399.863 405.537C399.909 405.594 399.936 405.664 399.94 405.738C399.963 406.581 399.957 407.501 399.92 408.497C399.883 409.493 399.836 410.508 399.778 411.544C399.731 412.525 399.691 413.451 399.66 414.33C399.66 414.417 399.546 414.539 399.333 414.705C399.086 414.893 398.822 415.058 398.545 415.197C398.243 415.354 397.926 415.478 397.599 415.568C397.354 415.65 397.09 415.65 396.846 415.568C396.744 415.51 396.666 415.419 396.624 415.309C396.583 415.2 396.58 415.08 396.617 414.969L396.925 413.116C396.958 412.931 396.98 412.744 396.992 412.557C396.998 412.424 396.983 412.291 396.948 412.162C396.939 412.117 396.915 412.077 396.88 412.048C396.845 412.018 396.801 412.002 396.755 412.001C396.628 412.029 396.514 412.101 396.436 412.206C396.321 412.334 396.219 412.474 396.133 412.624C396.006 412.829 395.896 413.018 395.794 413.238L395.005 414.922C394.938 415.09 394.834 415.241 394.702 415.366C394.57 415.49 394.413 415.585 394.241 415.643C393.926 415.746 393.588 415.755 393.267 415.67C392.984 415.609 392.716 415.491 392.479 415.324C392.278 415.17 392.219 415.02 392.266 414.929C392.95 413.723 393.631 412.479 394.312 411.197C394.797 410.31 395.246 409.439 395.719 408.587C396.192 407.736 396.657 406.916 397.122 406.144C397.312 405.867 397.59 405.661 397.91 405.56C398.274 405.422 398.66 405.349 399.049 405.343ZM397.961 408.406H397.938C397.817 408.434 397.711 408.504 397.638 408.603C397.537 408.724 397.45 408.857 397.378 408.997C397.299 409.155 397.228 409.313 397.169 409.466C397.11 409.62 397.051 409.801 396.98 410.018L397.902 409.931C397.969 409.723 398.024 409.537 398.064 409.387C398.103 409.236 398.133 409.082 398.154 408.926C398.18 408.796 398.18 408.662 398.154 408.532C398.142 408.492 398.116 408.457 398.081 408.434C398.045 408.411 398.003 408.401 397.961 408.406Z" fill="#EB660C"/>
<path d="M400.332 414.603L402.83 405.97C402.866 405.825 403.016 405.695 403.28 405.576C403.567 405.458 403.867 405.374 404.174 405.328C404.469 405.274 404.77 405.258 405.069 405.281C405.154 405.268 405.24 405.283 405.315 405.323C405.391 405.364 405.451 405.428 405.487 405.505V408.162C405.508 408.302 405.517 408.443 405.514 408.584C405.497 408.792 405.524 409.002 405.593 409.199C405.648 409.294 405.732 409.367 405.834 409.409C405.935 409.45 406.047 409.457 406.153 409.427L406.433 408.493L407.3 405.588C407.339 405.442 407.497 405.316 407.777 405.194C408.08 405.074 408.398 404.991 408.722 404.95C409.025 404.902 409.334 404.902 409.637 404.95C409.683 404.948 409.729 404.956 409.772 404.973C409.815 404.99 409.855 405.016 409.887 405.049C409.92 405.082 409.945 405.121 409.962 405.164C409.978 405.208 409.986 405.254 409.984 405.3C409.568 406.785 409.122 408.278 408.644 409.778C408.165 411.278 407.64 412.796 407.067 414.331C406.971 414.577 406.794 414.784 406.567 414.918C406.319 415.076 406.039 415.176 405.747 415.21C405.467 415.245 405.183 415.201 404.927 415.083C404.801 415.017 404.691 414.923 404.604 414.809C404.518 414.696 404.457 414.565 404.427 414.425L403.76 411.627C403.575 412.226 403.425 412.73 403.307 413.132C403.189 413.534 403.079 413.921 402.972 414.264L402.759 414.973C402.585 415.173 402.352 415.311 402.093 415.367C401.809 415.445 401.512 415.472 401.218 415.446C400.963 415.426 400.719 415.334 400.513 415.182C400.428 415.115 400.366 415.024 400.333 414.92C400.301 414.817 400.3 414.706 400.332 414.603Z" fill="#EB660C"/>
<path d="M413.566 404.429C413.83 404.411 414.095 404.428 414.355 404.48C414.434 404.445 414.611 404.48 414.887 404.602C415.218 404.764 415.508 404.997 415.738 405.284C416.058 405.703 416.264 406.197 416.337 406.719C416.439 407.512 416.372 408.318 416.14 409.084C415.894 409.988 415.494 410.843 414.958 411.611C414.47 412.318 413.893 412.96 413.239 413.518C412.693 413.99 412.092 414.395 411.45 414.724C411.019 414.96 410.544 415.104 410.055 415.146C409.649 415.118 409.261 414.967 408.944 414.713C408.641 414.512 408.414 414.217 408.297 413.873C408.287 413.318 408.376 412.765 408.561 412.241C408.79 411.409 409.081 410.483 409.436 409.482C409.791 408.481 410.13 407.566 410.449 406.774C410.624 406.282 410.851 405.81 411.127 405.367C411.447 405.042 411.842 404.801 412.278 404.665C412.695 404.532 413.129 404.452 413.566 404.429ZM412.806 407.874C412.7 407.882 412.599 407.921 412.516 407.987C412.433 408.054 412.372 408.143 412.341 408.244L411.367 411.315C411.292 411.496 411.34 411.646 411.49 411.709C411.7 411.723 411.91 411.666 412.085 411.547C412.374 411.376 412.63 411.154 412.841 410.893C413.109 410.568 413.311 410.195 413.436 409.793C413.568 409.444 413.617 409.069 413.578 408.698C413.557 408.459 413.451 408.237 413.279 408.071C413.217 408.009 413.143 407.96 413.062 407.929C412.98 407.897 412.893 407.882 412.806 407.886V407.874Z" fill="#EB660C"/>
<path d="M415.245 413.517C415.225 412.998 415.362 412.483 415.639 412.043C415.926 411.527 416.281 411.053 416.696 410.632C417.048 410.256 417.445 409.925 417.878 409.647C417.677 409.287 417.585 408.876 417.614 408.464C417.642 407.966 417.777 407.48 418.008 407.037C418.267 406.53 418.633 406.085 419.08 405.733C419.607 405.323 420.218 405.034 420.869 404.889C421.188 404.814 421.518 404.797 421.843 404.838C422.224 404.913 422.574 405.101 422.848 405.378C423.058 405.818 423.086 406.324 422.926 406.785C422.745 407.39 422.449 407.955 422.055 408.448C421.637 408.987 421.116 409.437 420.522 409.773C420.546 409.95 420.604 410.121 420.692 410.277C420.787 410.421 420.925 410.532 421.086 410.593C421.186 410.528 421.281 410.456 421.37 410.376C421.468 410.297 421.579 410.195 421.713 410.065C421.802 409.967 421.927 409.909 422.059 409.903C422.165 409.91 422.264 409.955 422.339 410.029C422.428 410.107 422.506 410.195 422.572 410.293C422.648 410.419 422.714 410.551 422.769 410.687L422.607 410.837L422.509 410.924L422.402 411.018C422.343 411.07 422.284 411.121 422.229 411.176L422.308 411.204C422.382 411.235 422.458 411.262 422.536 411.283C422.608 411.295 422.68 411.302 422.753 411.302L423.12 411.267C423.084 411.498 422.984 411.716 422.832 411.893C422.626 412.176 422.395 412.44 422.142 412.682C421.989 412.871 421.781 413.009 421.547 413.076H421.259C421.204 413.084 421.149 413.084 421.094 413.076L420.916 413.04L420.688 412.977C420.247 413.389 419.754 413.741 419.222 414.026C418.69 414.324 418.122 414.552 417.531 414.704C417.074 414.834 416.589 414.834 416.132 414.704C415.894 414.6 415.687 414.436 415.531 414.228C415.376 414.02 415.277 413.775 415.245 413.517ZM419.048 412.016C418.904 411.914 418.772 411.796 418.654 411.665C418.516 411.478 418.402 411.274 418.315 411.058L418.114 411.227L417.949 411.385C417.693 411.641 417.497 411.951 417.373 412.292C417.337 412.381 417.326 412.478 417.343 412.573C417.36 412.668 417.403 412.756 417.468 412.828C417.551 412.887 417.646 412.927 417.746 412.945C417.846 412.964 417.949 412.96 418.047 412.934C418.264 412.893 418.473 412.819 418.666 412.713C418.904 412.578 419.132 412.425 419.348 412.256L419.048 412.016ZM419.442 407.912C419.43 408.191 419.504 408.466 419.655 408.701C419.766 408.63 419.872 408.555 419.975 408.476C420.105 408.37 420.235 408.267 420.369 408.161L420.645 407.916C420.961 407.697 421.198 407.382 421.322 407.018C421.352 406.916 421.348 406.807 421.31 406.709C421.272 406.61 421.203 406.526 421.114 406.47C421.013 406.414 420.901 406.38 420.786 406.372C420.671 406.364 420.555 406.381 420.447 406.422C420.141 406.536 419.881 406.75 419.71 407.029C419.531 407.289 419.435 407.597 419.435 407.912H419.442Z" fill="#EB660C"/>
<path d="M428.838 403.76C429.102 403.743 429.367 403.761 429.626 403.811C429.709 403.776 429.89 403.811 430.174 403.937C430.512 404.1 430.81 404.335 431.045 404.627C431.378 405.047 431.593 405.547 431.668 406.078C431.773 406.887 431.702 407.71 431.459 408.49C431.207 409.408 430.794 410.274 430.241 411.048C429.739 411.766 429.146 412.415 428.476 412.979C427.915 413.459 427.298 413.869 426.639 414.201C426.197 414.442 425.71 414.588 425.208 414.631C424.793 414.603 424.396 414.451 424.069 414.193C423.765 413.986 423.533 413.69 423.403 413.346C423.4 412.781 423.495 412.22 423.683 411.687C423.92 410.843 424.215 409.913 424.578 408.884C424.94 407.855 425.271 406.945 425.61 406.156C425.79 405.657 426.024 405.178 426.308 404.73C426.639 404.402 427.045 404.16 427.49 404.024C427.926 403.878 428.379 403.789 428.838 403.76ZM428.05 407.248C427.942 407.254 427.838 407.293 427.752 407.36C427.667 407.427 427.605 407.519 427.573 407.623L426.58 410.729C426.501 410.922 426.58 411.072 426.726 411.123C426.94 411.139 427.154 411.082 427.333 410.961C427.632 410.788 427.898 410.564 428.121 410.299C428.4 409.97 428.611 409.59 428.744 409.18C428.879 408.829 428.931 408.451 428.893 408.076C428.867 407.836 428.757 407.612 428.582 407.445C428.514 407.38 428.434 407.33 428.346 407.298C428.257 407.266 428.163 407.253 428.07 407.26L428.05 407.248Z" fill="#EB660C"/>
<path d="M433.696 404.789C434.058 404.576 434.461 404.441 434.879 404.395C435.218 404.339 435.566 404.414 435.852 404.604C435.971 404.724 436.047 404.878 436.072 405.045C436.096 405.212 436.066 405.382 435.986 405.53L435.352 407.501L435.186 407.978C435.025 408.439 434.855 408.944 434.682 409.48C434.508 410.016 434.355 410.536 434.225 411.056L433.767 412.661C433.653 412.928 433.446 413.145 433.184 413.272C432.863 413.458 432.51 413.582 432.144 413.638C431.826 413.707 431.493 413.649 431.217 413.477C431.089 413.354 430.999 413.197 430.957 413.024C430.915 412.852 430.923 412.671 430.981 412.503C431.221 411.321 431.489 410.166 431.769 409.019C432.071 407.866 432.436 406.732 432.865 405.621C433.043 405.26 433.335 404.967 433.696 404.789Z" fill="#EB660C"/>
<path d="M440.934 403.919C441.566 403.761 442.214 403.677 442.865 403.667C443.083 403.641 443.304 403.672 443.506 403.755C443.709 403.839 443.887 403.973 444.024 404.144C444.229 404.459 444.141 405.001 443.76 405.768C443.561 406.04 443.302 406.263 443.003 406.418C442.8 406.515 442.57 406.544 442.349 406.501C442.136 406.457 441.931 406.384 441.738 406.284C441.212 406.146 440.654 406.198 440.162 406.43C439.637 406.691 439.188 407.082 438.857 407.565C438.427 408.174 438.079 408.837 437.821 409.536C437.592 410.324 437.702 411.014 438.132 411.468C438.237 411.562 438.368 411.624 438.508 411.645C438.648 411.666 438.792 411.645 438.92 411.586C439.366 411.365 439.738 411.02 439.992 410.593C440.01 410.57 440.023 410.545 440.032 410.518C440.093 410.421 440.147 410.319 440.193 410.214C440.246 410.109 440.273 409.993 440.272 409.875C440.261 409.81 440.234 409.749 440.193 409.698C440.154 409.643 440.106 409.595 440.051 409.556L439.862 409.426C439.834 409.412 439.809 409.392 439.788 409.368C439.768 409.344 439.752 409.316 439.743 409.286C439.733 409.256 439.73 409.224 439.733 409.193C439.735 409.161 439.745 409.13 439.76 409.103C439.805 408.891 439.885 408.689 439.996 408.503C440.112 408.291 440.259 408.097 440.434 407.928C440.493 407.861 440.566 407.806 440.647 407.767C440.728 407.727 440.816 407.705 440.906 407.699C441.336 407.64 441.758 407.601 442.164 407.585C442.478 407.579 442.791 407.611 443.098 407.68C443.216 407.7 443.329 407.745 443.429 407.814C443.528 407.882 443.611 407.97 443.673 408.074C443.749 408.356 443.731 408.655 443.622 408.925C443.502 409.296 443.349 409.654 443.165 409.997C442.979 410.348 442.814 410.656 442.66 410.892C442.613 411.008 442.545 411.113 442.459 411.203C442.432 411.261 442.396 411.314 442.353 411.361C442.074 411.805 441.757 412.224 441.407 412.615C441.03 413.029 440.566 413.355 440.047 413.568C439.35 413.841 438.604 413.967 437.856 413.939C437.102 413.955 436.362 413.742 435.732 413.328C435.289 413.002 434.98 412.526 434.865 411.988C434.746 411.462 434.738 410.917 434.841 410.388C435.153 409.383 435.576 408.417 436.102 407.506C436.478 406.857 436.936 406.259 437.466 405.729C437.847 405.353 438.273 405.028 438.735 404.759C439.049 404.579 439.376 404.421 439.712 404.286C439.816 404.247 439.917 404.202 440.016 404.152C440.331 404.061 440.639 403.971 440.934 403.919Z" fill="#EB660C"/>
<path d="M446.093 404.259C446.466 404.042 446.881 403.907 447.311 403.865C447.655 403.807 448.008 403.882 448.3 404.074C448.421 404.193 448.501 404.349 448.526 404.517C448.552 404.686 448.522 404.858 448.442 405.008L447.784 407.018L447.618 407.499C447.453 407.964 447.279 408.473 447.098 409.013C446.917 409.553 446.767 410.081 446.621 410.589L446.152 412.209C446.045 412.47 445.848 412.684 445.596 412.812C445.271 413.009 444.911 413.143 444.536 413.206C444.211 413.274 443.873 413.215 443.59 413.041C443.458 412.919 443.364 412.761 443.322 412.587C443.279 412.412 443.289 412.228 443.35 412.059C443.592 410.874 443.869 409.702 444.182 408.543C444.497 407.385 444.863 406.242 445.285 405.122C445.45 404.752 445.735 404.448 446.093 404.259Z" fill="#EB660C"/>
<path d="M448.732 405.519C448.8 405.249 448.89 404.986 449 404.731C449.122 404.443 449.288 404.092 449.497 403.666L457.986 402.973C458.029 402.987 458.069 403.011 458.102 403.042C458.135 403.074 458.16 403.112 458.177 403.155C458.193 403.197 458.2 403.243 458.197 403.288C458.194 403.334 458.181 403.378 458.159 403.418C458.093 403.711 457.99 403.995 457.852 404.262L457.458 405.05C457.412 405.12 457.373 405.194 457.34 405.271L455.003 405.44L452.003 412.803C451.88 412.946 451.719 413.051 451.538 413.107C451.247 413.227 450.947 413.323 450.64 413.394C450.365 413.47 450.081 413.502 449.796 413.489C449.591 413.489 449.485 413.367 449.532 413.174L451.818 405.775L448.74 405.968C448.705 405.899 448.687 405.822 448.685 405.744C448.684 405.667 448.7 405.59 448.732 405.519Z" fill="#EB660C"/>
<path d="M462.99 402.555C463.226 402.535 463.463 402.563 463.687 402.638C463.763 402.658 463.831 402.701 463.883 402.761C463.934 402.821 463.966 402.894 463.975 402.973C463.991 403.861 463.98 404.833 463.944 405.889C463.908 406.942 463.853 408.014 463.782 409.094C463.711 410.174 463.676 411.108 463.64 412.031C463.64 412.121 463.526 412.251 463.278 412.425C462.993 412.624 462.693 412.799 462.379 412.949C462.044 413.115 461.692 413.247 461.331 413.343C461.059 413.428 460.767 413.428 460.495 413.343C460.384 413.287 460.297 413.193 460.25 413.078C460.203 412.962 460.199 412.834 460.239 412.716L460.59 410.746C460.628 410.552 460.652 410.356 460.661 410.158C460.67 410.025 460.653 409.891 460.609 409.764C460.6 409.715 460.574 409.671 460.536 409.64C460.498 409.608 460.45 409.591 460.401 409.591C460.26 409.623 460.134 409.701 460.042 409.811C459.916 409.947 459.804 410.095 459.707 410.253C459.581 410.47 459.47 410.683 459.372 410.895L458.509 412.653C458.43 412.838 458.312 413.004 458.164 413.14C458.016 413.276 457.841 413.379 457.65 413.442C457.293 413.551 456.913 413.562 456.55 413.473C456.24 413.408 455.946 413.283 455.683 413.107C455.466 412.949 455.395 412.795 455.451 412.681C456.21 411.404 456.968 410.09 457.725 408.739C458.25 407.796 458.776 406.876 459.301 405.98C459.826 405.084 460.352 404.226 460.877 403.406C461.095 403.111 461.402 402.894 461.752 402.787C462.15 402.646 462.568 402.567 462.99 402.555ZM461.776 405.783H461.752C461.62 405.811 461.501 405.885 461.417 405.992C461.31 406.112 461.216 406.245 461.138 406.386C461.051 406.552 460.972 406.717 460.905 406.879C460.822 407.067 460.752 407.26 460.696 407.458L461.717 407.364C461.788 407.175 461.85 406.983 461.902 406.788C461.945 406.628 461.979 406.467 462.005 406.303C462.031 406.173 462.031 406.039 462.005 405.909C461.993 405.863 461.966 405.823 461.928 405.796C461.89 405.768 461.843 405.755 461.796 405.759L461.776 405.783Z" fill="#EB660C"/>
<path d="M465.231 409.42C465.554 408.34 465.885 407.302 466.224 406.306C466.291 406.12 466.378 405.884 466.468 405.612C466.65 405.123 466.831 404.615 467.016 404.086C467.201 403.558 467.343 403.184 467.434 402.951C467.479 402.837 467.549 402.735 467.639 402.651C467.729 402.568 467.837 402.506 467.954 402.47C468.233 402.376 468.528 402.337 468.821 402.356C469.139 402.369 469.455 402.414 469.763 402.49C470.017 402.547 470.264 402.636 470.496 402.754C470.689 402.853 470.756 402.951 470.76 403.034C470.587 403.511 470.366 404.134 470.055 404.902C469.743 405.671 469.503 406.357 469.227 407.106C468.951 407.855 468.727 408.501 468.553 409.077C468.422 409.405 468.347 409.752 468.333 410.105C468.443 410.191 468.571 410.249 468.708 410.276C468.845 410.304 468.986 410.299 469.121 410.263C469.59 410.22 470.067 410.153 470.555 410.058C470.922 409.995 471.261 409.94 471.576 409.896C471.694 409.896 471.773 410.015 471.82 410.267C471.869 410.569 471.869 410.876 471.82 411.177C471.758 411.532 471.624 411.87 471.426 412.171C471.237 412.471 470.939 412.686 470.595 412.77C469.192 413.112 467.755 413.292 466.311 413.306C465.963 413.333 465.614 413.292 465.282 413.184C465.073 413.106 464.891 412.969 464.758 412.79C464.658 412.647 464.593 412.482 464.569 412.309C464.549 412.114 464.558 411.917 464.596 411.725C464.707 411.272 464.912 410.5 465.231 409.42Z" fill="#EB660C"/>
<path d="M376.486 114.276C376.486 114.276 374.417 116.511 373.55 113.515C372.683 110.519 372.785 109.104 374.708 108.285C376.632 107.465 378.157 112.1 376.486 114.276Z" fill="#2B2526"/>
<path d="M111.715 395.191C113.111 401.434 117.194 405.336 122.999 407.615C128.454 409.777 134.28 410.848 140.147 410.768C154.847 410.523 169.587 410.374 184.232 409.191C198.795 408.044 213.251 405.644 227.782 404.008C231.506 403.614 235.337 404.036 239.116 404.185C253.443 404.828 267.798 404.469 282.075 403.109C298.513 401.474 314.64 398.379 330.357 393.255C334.413 391.935 338.417 390.441 342.918 388.86C342.378 389.775 342.129 390.279 341.802 390.74C336.234 398.963 330.633 407.161 325.116 415.415C324.77 416 324.278 416.486 323.689 416.825C323.1 417.164 322.433 417.345 321.754 417.35C303.396 418.667 285.046 420.066 266.688 421.426C256.012 422.214 245.339 423.003 234.655 423.72C232.747 423.846 232.125 424.567 232.29 426.44C232.684 430.961 233.047 435.506 233.268 440.031C233.346 441.698 234.45 441.966 235.601 442.395C252.13 448.392 268.658 454.396 285.184 460.409C289.374 461.93 293.685 463.203 297.721 465.064C302.332 467.188 306.99 467.192 311.866 466.802C328.217 465.49 344.577 464.331 360.94 463.113L402.63 460.011C416.065 459.025 429.504 458.091 442.94 457.11C455.299 456.203 467.658 455.257 480.018 454.35C481.57 454.236 481.988 453.389 481.87 452.052C481.602 448.367 481.413 444.678 481.03 441.016C480.723 438.745 481.299 436.443 482.638 434.583C500.768 408.017 518.839 381.408 536.853 354.757C537.188 354.265 537.503 353.76 538.066 352.889L480.865 357.091L522.247 324.769L510.486 314.127L510.526 314.107L509.001 312.728L508.875 312.795L494.34 299.701L494.489 299.563L492.913 298.148L492.818 298.234L487.1 293.201C484.223 295.219 481.425 297.119 478.697 299.113C463.985 309.886 447.468 317.099 430.572 323.591C429.079 324.166 428.113 323.985 427.419 322.499C426.237 319.921 425.055 317.375 423.872 314.793C423.55 314.195 423.262 313.579 423.009 312.948C418.997 301.419 414.8 289.945 411.064 278.329C407.489 267.218 404.549 255.905 401.061 244.766C394.613 224.27 381.919 209.484 361.256 202.196C355.265 200.08 349.365 197.707 342.929 195.267L352.782 175.058C353.906 175.665 354.615 176.107 355.376 176.45C360.625 178.815 365.753 181.507 371.176 183.367C378.766 185.969 385.86 182.934 389.699 176.103C391.953 172.11 392.726 167.735 392.706 163.221C392.706 162.646 391.839 161.751 391.208 161.562C389.447 161.034 387.575 160.904 385.793 160.435C378.699 158.566 376.311 155.271 376.516 147.624C381.876 152.043 387.803 154.577 395.015 153.931C395.567 150.805 396.288 147.731 396.592 144.613C396.797 142.575 397.416 141.759 399.445 142.441C401.81 142.406 404.218 142.366 406.606 142.339C411.253 142.295 412.857 140.34 411.336 135.878C409.858 131.543 407.82 127.384 406.173 123.096C404.927 119.848 403.863 116.525 402.626 112.875C402.626 112.851 401.396 111.255 401.727 108.145V102.343H409.609C411.068 102.343 412.124 102.028 412.147 100.183C412.191 97.0297 411.753 95.9102 409.672 95.8472C407.146 95.7605 404.604 96.0285 401.983 96.1467V91.7203C404.975 91.271 407.86 91.196 410.512 90.3801C422.446 86.7026 429.165 73.2892 421.232 60.8652C416.305 53.1475 409.507 47.2271 402.425 41.6221C389.553 31.4251 375.523 22.927 361.524 14.4249C352.668 9.04847 342.606 6.88846 332.426 5.56013C322.688 4.28698 312.957 4.23968 303.262 6.39575C293.058 8.66613 287.139 14.0859 286.122 27.2864C285.819 31.1768 286.075 35.1066 286.075 39.1547C283.88 39.4818 281.204 39.7223 278.587 40.2899C265.679 43.1121 260.276 52.1148 264.135 64.8935C265.877 70.6089 268.316 76.0956 270.44 81.6849C275.564 92.3273 280.612 103.005 285.838 113.612C290.055 122.158 294.339 130.66 296.531 140.021C296.767 141.03 297.106 142.189 296.838 143.115C293.744 153.805 290.532 164.467 287.348 175.2C286.406 175.279 285.653 175.314 284.908 175.409C281.598 175.847 279.844 177.49 279.067 180.718C278.673 182.275 278.409 183.919 277.664 185.303C276.257 187.932 274.153 189.922 270.894 189.666C249.083 187.955 229.248 195.535 209.455 202.945C197.191 207.537 185.99 214.147 176.579 223.442C169.17 230.69 163.786 239.751 160.964 249.725C159.616 254.455 157.882 259.047 156.321 263.702L154.8 267.521C149.992 279.783 145.156 292.038 140.383 304.316C133.552 321.904 126.734 339.51 119.929 357.134C119.771 357.481 119.598 357.82 119.409 358.147C117.202 365.557 114.872 372.936 112.827 380.394C111.491 385.214 110.588 390.165 111.715 395.191ZM286.544 177.266C285.397 180.525 284.349 183.513 283.17 186.871C281.744 184.427 280.183 182.535 281.397 179.895C282.307 177.837 284.155 177.471 286.52 177.266H286.544ZM339.591 199.879C338.803 202.701 338.259 205.791 338.488 208.676C338.996 215.034 340.064 221.349 340.904 227.683C341.298 230.809 342.386 234.057 341.901 237.048C340.916 243.134 339.075 249.082 337.763 254.391C337.081 248.085 336.486 241.128 335.532 234.206C334.696 228.16 333.018 222.354 329.38 217.257C324.962 211.077 319.346 207.872 311.55 209.465C309.887 209.793 308.203 210 306.51 210.084C305.84 210.123 304.933 209.93 304.492 209.484C298.186 203.067 291.88 196.619 285.677 190.076C285.121 189.492 284.92 188.105 285.172 187.289C289.551 173.143 294.099 159.043 298.411 144.877C299.088 142.65 300.16 141.645 302.3 141.527C305.808 141.334 308.169 139.513 309.69 136.442C310.269 135.26 310.959 134.156 311.483 132.962C314.51 126.091 317.493 119.197 320.548 112.197C319.492 111.803 318.183 111.495 317.092 110.857C313.876 108.996 313.099 105.946 313.418 102.509C313.698 99.4695 314.601 96.6355 317.702 95.4136C320.804 94.1917 323.736 95.4136 325.62 97.7076C328.012 100.613 330.535 100.238 333.108 98.8192C335.213 97.6643 336.99 95.9102 338.886 94.3848C339.587 93.8172 340.131 93.0289 340.856 92.548C346.867 88.6931 348.345 85.5201 347.115 78.169C353.594 78.169 360.018 78.6183 366.359 78.0665C377.525 77.1008 388.781 75.9065 397.36 67.0299C400.119 78.303 400.285 89.5524 399.619 100.873C399.457 103.632 399.091 106.572 399.855 109.115C402.153 116.742 404.955 124.215 407.576 131.74C408.206 133.549 409.066 135.287 409.546 137.136C410.193 139.587 409.637 140.202 407.091 140.222C403.15 140.25 399.248 140.222 395.291 140.222C394.629 144.27 393.995 148.176 393.352 152.106C387.835 152.011 383.302 150.238 379.164 147.14C377.982 146.257 376.468 145.839 375.105 145.208C374.908 146.718 374.451 148.247 374.557 149.737C375.077 157.108 377.749 160.301 384.895 162.264C386.794 162.788 388.737 163.143 391.2 163.695C390.369 167.021 389.939 170.344 388.714 173.344C385.624 180.88 379.003 183.753 371.191 181.377C363.609 179.071 356.826 175.129 350.236 170.888C340.9 164.873 332.568 157.766 327.323 147.723C325.719 147.952 325.352 148.689 326.282 149.887C329.463 154.014 332.277 158.527 335.973 162.134C340.569 166.619 345.905 170.348 351.013 174.475C350.938 174.617 350.686 175.078 350.433 175.539C346.138 183.332 342.023 191.25 339.591 199.879ZM358.272 209.918C354.067 212.121 351.237 215.543 349.164 219.528C347.127 223.442 345.416 227.521 343.485 231.703C342.441 223.907 341.479 216.288 340.376 208.688C339.796 204.695 341.31 201.231 342.476 197.415L358.272 209.918ZM303.928 451.04L478.827 438.099C479.174 442.955 479.505 447.531 479.844 452.289L304.937 465.229C304.594 460.401 304.271 455.844 303.932 451.04H303.928ZM234.757 426.574C256.741 434.531 278.723 442.499 300.704 450.48C301.161 450.645 301.749 451.213 301.788 451.662C302.182 455.915 302.478 460.176 302.817 464.693C292.349 460.886 282.209 457.204 272.076 453.503C260.469 449.293 248.851 445.115 237.26 440.858C236.472 440.563 235.337 439.774 235.262 439.116C234.789 435.005 234.58 430.839 234.277 426.594C234.436 426.571 234.597 426.565 234.757 426.574ZM322.487 419.227L302.387 448.848L239.227 425.88L239.333 425.376L322.487 419.227ZM358.875 369.306C359.474 368.566 360.341 368.091 361.287 367.985C372.421 367.106 383.559 366.338 394.696 365.522C408.057 364.544 421.417 363.559 434.777 362.566L476.009 359.511L516.997 356.46C522.515 356.066 528.032 355.672 533.944 355.23C533.392 356.074 533.156 356.456 532.896 356.835C515.358 382.686 497.807 408.526 480.242 434.355C479.525 435.27 478.492 435.884 477.346 436.077C474.382 436.471 471.371 436.582 468.379 436.794C461.171 437.315 453.963 437.823 446.755 438.371C439.393 438.915 432.034 439.502 424.684 440.042C417.555 440.567 410.417 441.032 403.288 441.564C393.936 442.265 384.587 443.042 375.235 443.732C365.883 444.421 356.515 445.009 347.158 445.703C335.812 446.55 324.469 447.476 313.127 448.351C310.494 448.552 307.854 448.671 304.921 448.848C305.252 448.276 305.382 448.016 305.548 447.776C323.312 421.617 341.088 395.46 358.875 369.306ZM113.714 386.649C115.121 379.968 116.535 373.196 118.904 366.823C127.87 342.68 137.301 318.735 146.413 294.628C152.285 279.098 158.071 263.536 163.581 247.876C168.074 235.113 175.983 225.156 186.944 217.454L195.811 211.857L195.788 211.881L196.836 211.487C198.129 210.698 199.374 209.804 200.726 209.122C212.025 203.375 223.978 199.418 236.196 196.142C246.51 193.383 256.859 190.88 267.674 191.546C268.828 191.617 269.987 191.582 271.142 191.641C274.196 191.79 276.447 190.34 278.295 188.093C278.859 187.403 279.359 186.666 279.99 185.811C285.444 194.124 292.578 200.71 299.301 207.699C302.884 211.428 306.348 213.063 311.598 211.641C318.207 209.831 323.622 212.429 327.287 218.109C329.14 220.986 331.071 224.092 331.792 227.352C333.313 234.253 334.401 241.242 335.051 248.278C335.65 254.707 335.422 261.207 335.646 267.675C335.646 268.215 336.336 268.731 336.706 269.251C337.101 268.794 337.735 268.384 337.83 267.876C339.012 261.522 339.855 255.105 341.235 248.802C343.324 239.252 345.885 229.811 350.607 221.148C353.192 216.418 356.294 212.11 362.162 211.049C362.233 211.049 362.265 210.821 362.355 210.6L349.96 200.702C350.106 200.442 350.256 200.186 350.402 199.914C357.634 203.067 365.213 205.637 372.027 209.536C385.821 217.419 394.523 229.811 398.925 244.872C405.231 266.496 411.537 288.112 419.419 309.235C421.291 314.265 423.671 319.113 425.941 323.981C426.801 325.822 428.208 326.705 430.47 325.865C446.526 319.909 462.145 313.067 476.36 303.366C479.907 300.942 483.407 298.443 487.025 295.909L519.121 324.761C506.317 334.616 493.705 344.269 481.192 354.036C478.189 356.377 475.158 357.694 471.201 357.926C455.677 358.841 440.177 360.193 424.664 361.359C410.382 362.432 396.095 363.449 381.813 364.564C380.343 364.678 379.74 364.233 379.409 362.869C377.954 356.898 376.177 350.993 375.022 344.966C373.982 339.55 373.599 334.009 372.898 328.25L365.071 365.613C363.715 365.743 362.422 366.007 361.13 365.955C359.226 365.865 358.044 366.566 356.995 368.194C353.842 373.113 350.477 377.922 347.178 382.778C346.575 383.669 346.071 384.907 345.207 385.289C340.766 387.26 336.226 389.022 331.287 391.024C334.381 361.501 336.336 332.593 337.483 303.697C335.327 303.071 335.351 304.395 335.296 305.562C334.929 313.563 334.637 321.569 334.204 329.57C333.782 337.335 333.325 345.1 332.698 352.85C331.749 364.592 330.594 376.314 329.628 388.048C329.431 390.413 328.923 392.136 326.16 392.475C324.658 392.66 323.22 393.342 321.738 393.752C306.294 397.986 290.463 400.656 274.484 401.722C262.416 402.557 250.352 402.904 237.674 401.974L244.413 400.003C243.976 396.625 243.554 393.366 243.113 389.972C243.857 389.68 244.555 389.392 245.261 389.132C257.447 384.623 269.672 380.204 281.814 375.577C290.907 372.116 298.068 366.117 301.816 357.106C305.174 349.05 307.511 340.552 310.147 332.219C310.731 330.305 310.998 328.307 310.935 326.307C310.876 323.942 309.225 323.248 307.298 324.627C306.214 325.361 305.26 326.271 304.476 327.32C301.56 331.478 298.765 335.719 295.924 339.933C295.344 340.788 294.741 341.64 293.705 343.161C292.834 341.068 292.002 339.696 291.683 338.214C288.877 325.207 289.519 312.014 290.071 298.853C290.233 295.022 291.052 291.218 291.182 287.391C291.285 284.237 288.818 283.055 286.11 284.632C285.315 285.164 284.549 285.739 283.817 286.354C283.903 285.982 283.94 285.601 283.927 285.219C283.604 283.8 283.663 281.79 282.745 281.151C281.826 280.513 279.812 280.875 278.528 281.403C277.109 281.983 275.97 283.248 274.685 284.237C274.212 279.732 271.926 278.633 268.229 281.266C266.503 282.495 265.077 284.167 263.524 285.653C261.553 284.19 260.296 284.104 257.967 285.609C254.376 287.923 252.225 291.348 250.912 295.321C248.61 302.282 248.074 309.511 248.177 316.752C248.342 328.845 248.831 340.934 249.079 353.015C249.198 358.734 245.422 362.231 239.416 362.14C238.94 358.926 238.462 355.698 237.981 352.455L209.696 357.051C214.126 336.917 218.461 317.308 222.824 297.698C222.043 298.104 221.414 298.749 221.027 299.539C212.466 314.78 203.918 330.021 195.382 345.262C193.648 348.347 192.079 351.522 190.68 354.773C189.364 357.863 190.093 359.026 193.313 359.637C194.361 359.886 195.44 359.983 196.517 359.925C205.542 358.983 214.571 358.045 223.576 356.941C227.75 356.432 231.884 355.561 236.271 354.812C238.241 369.527 240.212 384.028 242.182 398.994C233.118 400.689 224.412 402.664 215.604 403.874C204.781 405.364 193.912 406.496 182.995 407.272C170.478 408.158 157.925 408.687 145.381 408.959C138.413 409.108 131.401 408.379 124.749 406.03C115.684 402.818 111.743 396.066 113.714 386.641V386.649ZM288.034 327.13C288.428 331.86 289.429 336.547 290.52 341.167C290.808 342.377 292.306 343.748 293.551 344.178C295.352 344.801 296.31 343.114 297.224 341.703C299.66 337.875 302.096 334.044 304.665 330.307C305.717 328.778 307.117 327.485 308.358 326.086L308.981 326.378C308.807 327.781 308.839 329.243 308.429 330.571C306.017 338.415 303.767 346.338 300.941 354.028C297.567 363.255 290.903 369.621 281.866 373.314C274.117 376.468 266.235 379.306 258.388 382.227C253.229 384.146 248.031 385.959 242.738 387.863C241.686 379.98 240.669 372.388 239.64 364.71C241.422 364.146 243.053 363.724 244.606 363.11C248.776 361.466 251.401 358.691 251.133 353.874C251.042 352.258 251.133 350.634 251.026 349.022C250.238 335.562 249.312 322.085 250.549 308.624C251.022 303.666 252.095 298.783 253.746 294.084C254.636 291.526 257.147 289.484 259.102 287.383C259.571 286.878 260.745 287.036 261.596 286.886C261.652 287.675 261.868 288.506 261.719 289.251C261.466 290.52 260.875 291.719 260.607 292.984C258.783 301.537 258.412 310.213 258.601 318.924C258.664 321.9 258.897 324.868 259.051 327.82C261.47 328.092 261.021 326.72 260.919 325.518C260.162 315.112 260.292 304.742 262.495 294.498C263.496 289.815 265.352 285.53 269.589 282.811C270.267 282.377 271.272 282.456 272.127 282.298C272.182 283.087 272.403 283.914 272.261 284.663C271.11 290.769 269.581 296.823 268.773 302.972C267.724 311.38 267.682 319.883 268.647 328.301C270.165 328.668 270.582 328.277 270.48 326.697C269.806 316.527 269.77 306.366 271.717 296.299C272.592 291.77 274.058 287.485 277.731 284.399C278.803 283.496 280.214 282.996 281.61 282.239C280.427 290.769 278.772 298.68 278.405 306.65C278.035 314.754 278.945 322.913 279.296 331.048L280.372 331.376C280.723 330.753 281.204 330.165 281.385 329.495C281.539 328.936 281.33 328.277 281.31 327.662C281.038 318.991 280.581 310.284 280.577 301.593C280.577 296.953 281.759 292.42 284.751 288.648C285.677 287.533 286.958 286.677 288.065 285.672L288.928 285.964C288.999 287.146 289.208 288.38 289.113 289.571C288.991 291.175 288.554 292.751 288.388 294.356C287.264 305.245 287.152 316.216 288.053 327.126L288.034 327.13Z" fill="#2B2526"/>
<path d="M515.092 318.295C515.092 318.295 545.044 306.131 559.378 290.597C559.378 290.597 571.328 281.035 571.328 270.581C571.328 260.128 568.041 258.331 557.289 262.513C546.538 266.695 534.888 272.97 539.365 276.852C543.842 280.735 560.572 272.67 560.572 272.67" stroke="black" stroke-width="1.38669" stroke-miterlimit="10"/>
<path d="M538.065 275.26C538.065 275.26 531.105 278.047 529.311 273.865C527.518 269.683 541.758 260.424 541.758 260.424C541.758 260.424 552.312 254.448 555.796 254.05C559.28 253.652 565.156 253.656 563.678 260.424" stroke="black" stroke-width="1.38669" stroke-miterlimit="10"/>
<path d="M528.914 272.323C528.914 272.323 519.207 275.508 521.295 268.488C523.384 261.468 543.831 248.922 543.831 248.922C543.831 248.922 561.006 240.376 559.363 253.908" stroke="black" stroke-width="1.38669" stroke-miterlimit="10"/>
<path d="M524.17 264.32C524.17 264.32 514.463 267.509 516.552 260.489C518.641 253.469 539.103 240.919 539.103 240.919C539.103 240.919 556.278 232.374 554.635 245.909" stroke="black" stroke-width="1.38669" stroke-miterlimit="10"/>
<path d="M490.231 295.927C490.231 295.927 493.885 272.943 496.872 265.04C499.86 257.137 509.815 246.384 510.611 237.023C511.407 227.662 511.644 223.68 515.112 226.069C518.58 228.458 522.667 232.64 521.023 243.412C519.38 254.185 517.752 258.197 517.752 258.197" stroke="black" stroke-width="1.38669" stroke-miterlimit="10"/>
<path d="M527.909 219.118C534.221 218.949 538.868 201.31 538.287 179.72C537.707 158.131 532.12 140.767 525.807 140.937C519.495 141.107 514.849 158.746 515.429 180.335C516.01 201.924 521.597 219.288 527.909 219.118Z" stroke="black" stroke-width="1.38669" stroke-miterlimit="10"/>
<path d="M528.409 140.498L539.381 143.186C539.5 143.213 543.149 146.217 543.212 146.339C544.615 148.889 558.665 175.558 544.757 214.029C544.735 214.097 544.698 214.159 544.649 214.211C544.6 214.263 544.54 214.303 544.473 214.328L529.052 219.756C528.658 219.894 528.334 219.409 528.535 218.995C531.724 212.405 546.341 178.365 527.936 141.282C527.739 140.884 528.031 140.407 528.409 140.498Z" fill="black"/>
<path d="M546.527 277.558C546.527 277.558 553.408 306.427 551.016 308.22C548.624 310.014 543.883 315.091 535.504 310.014L532.197 277.558V276.057" fill="black"/>
<path d="M542.98 214.852L545.676 238.635C545.676 238.635 534.089 242.029 529.785 246.262L528.603 218.304L542.98 214.852Z" fill="black"/>
<path d="M650.769 127.395C640.034 138.988 607.283 268.959 607.283 268.959L629.203 280.354C629.203 280.354 686.227 184.178 686.984 161.36C687.741 138.542 661.505 115.803 650.769 127.395Z" fill="#ED6F25" stroke="black" stroke-width="1.10935" stroke-miterlimit="10"/>
<path d="M589.242 297.011C582.412 308.213 594.027 311.13 594.027 311.13C594.027 311.13 626.829 322.076 620.397 301.571C610.966 271.508 596.072 285.813 589.242 297.011Z" fill="#ED6F25" stroke="black" stroke-width="1.10935" stroke-miterlimit="10"/>
<path d="M519.669 176.983C519.669 176.983 521.064 160.617 525.21 156.798C529.357 152.978 529.94 148.067 525.475 148.52C521.009 148.974 516.449 171.788 519.669 176.983Z" stroke="black" stroke-width="0.832015" stroke-miterlimit="10"/>
<path d="M128.279 185.427C128.003 188.805 126.758 189.924 123.522 189.692L105.267 188.383C102.508 188.186 101.03 186.716 101.231 184.363C101.424 182.084 103.202 180.874 105.96 181.06C111.964 181.462 117.966 181.856 123.967 182.242C126.076 182.376 127.652 183.235 128.279 185.427Z" fill="#EC6A14"/>
<path d="M180.24 201.437C178.447 203.262 176.492 203.285 174.419 201.953L164.865 185.489C164.504 184.926 164.179 184.342 163.892 183.739C163.06 181.768 163.529 180.069 165.342 178.961C167.218 177.818 169.098 178.291 170.17 180.057C173.682 185.836 177.083 191.685 180.315 197.625C180.855 198.603 180.291 200.156 180.24 201.437Z" fill="#EC6913"/>
<path d="M151.082 172.033C151.082 175.135 151.113 178.241 151.082 181.347C151.046 183.992 149.679 185.569 147.472 185.628C145.174 185.687 143.708 184.051 143.684 181.292C143.629 175.084 143.593 168.872 143.609 162.664C143.609 160.047 145.056 158.537 147.338 158.557C149.619 158.577 150.908 160.031 150.936 162.743C150.971 165.845 150.936 168.951 150.936 172.053L151.082 172.033Z" fill="#EC6B15"/>
<path d="M119.835 166.687C116.403 166.786 114.373 163.877 115.894 161.488C119.548 155.67 123.418 149.986 127.323 144.334C128.478 142.663 130.334 142.493 132.053 143.546C133.893 144.681 134.441 146.577 133.31 148.343C129.605 154.125 125.735 159.809 121.829 165.457C121.293 166.175 120.182 166.474 119.835 166.687Z" fill="#EC6911"/>
<path d="M163.319 86.3849C162.653 87.8433 162.377 88.7263 161.888 89.4673C158.504 94.5757 155.104 99.6643 151.688 104.733C150.187 106.952 147.933 107.544 146.116 106.31C144.299 105.076 144.062 102.956 145.513 100.764C148.976 95.5085 152.466 90.2793 155.984 85.0763C157.005 83.5588 158.522 82.5379 160.256 83.4051C161.49 84.016 162.33 85.3719 163.319 86.3849Z" fill="#EC6912"/>
<path d="M142.371 130.025C143.119 129.276 143.975 127.738 145.129 127.474C146.284 127.21 148.46 127.738 149.035 128.657C152.708 134.459 156.129 140.423 159.475 146.43C160.429 148.14 159.838 149.918 158.084 151.01C156.33 152.102 154.399 151.822 153.382 150.174C149.741 144.262 146.327 138.192 142.859 132.165C142.623 131.767 142.623 131.199 142.371 130.025Z" fill="#EC6911"/>
<path d="M129.985 112.932C129.985 116.034 130.009 119.136 129.985 122.238C129.985 124.651 128.558 126.243 126.489 126.298C124.42 126.354 122.915 124.832 122.867 122.396C122.749 116.032 122.686 109.665 122.678 103.295C122.678 100.627 124.081 99.1563 126.363 99.176C128.645 99.1957 129.954 100.753 129.985 103.378C130.013 106.563 129.985 109.747 129.985 112.932Z" fill="#EC670E"/>
<path d="M170.252 106.755C175.856 107.117 181.46 107.441 187.057 107.851C189.839 108.056 191.258 109.616 191.049 111.985C190.856 114.169 189.252 115.387 186.517 115.21C180.242 114.808 173.976 114.357 167.718 113.858C165.329 113.672 163.871 112.064 164.025 109.963C164.175 107.929 165.668 106.676 167.993 106.648H170.256C170.256 106.684 170.252 106.719 170.252 106.755Z" fill="#EC6911"/>
<path d="M115.487 218.834C114.604 217.825 113.182 216.823 112.689 215.479C111.999 213.611 113.15 212.121 114.987 211.352C120.378 209.093 125.779 206.846 131.189 204.612C134.795 203.122 136.935 203.516 137.889 205.795C138.886 208.183 137.739 209.922 134.097 211.431C129 213.552 123.898 215.654 118.79 217.738C117.931 218.049 117.048 218.301 115.487 218.834Z" fill="#EC6A14"/>
<path d="M70.3642 168.277C70.8726 168.672 72.1968 169.251 72.8117 170.248C76.1695 175.739 79.3776 181.316 82.5738 186.906C83.7562 189.014 83.2793 191.119 81.5216 192.195C79.6298 193.35 77.5174 192.775 76.205 190.567C72.9575 185.112 69.7586 179.625 66.6083 174.107C65.024 171.336 66.6241 168.313 70.3642 168.277Z" fill="#EC6913"/>
<path d="M489.085 62.7863C485.699 62.6444 484.529 61.4461 484.631 58.2022L485.199 39.909C485.285 37.1499 486.696 35.6048 489.053 35.7112C491.339 35.8137 492.6 37.5401 492.545 40.3032C492.387 46.3208 492.236 52.3357 492.092 58.348C492.044 60.4528 491.248 62.0768 489.085 62.7863Z" fill="#EC6A14"/>
<path d="M475.187 115.353C473.292 113.635 473.189 111.683 474.439 109.559L490.499 99.3462C491.047 98.9628 491.618 98.614 492.209 98.3016C494.144 97.3911 495.859 97.7892 497.041 99.559C498.223 101.329 497.861 103.284 496.138 104.427C490.51 108.168 484.804 111.806 478.998 115.274C478.045 115.842 476.468 115.353 475.187 115.353Z" fill="#EC6913"/>
<path d="M503.386 85.027C500.288 85.1531 497.187 85.3108 494.081 85.4212C491.437 85.4921 489.805 84.1914 489.659 81.988C489.506 79.694 491.082 78.1607 493.856 78.0464C500.056 77.7389 506.263 77.4512 512.463 77.2186C515.079 77.1122 516.644 78.4957 516.719 80.7661C516.794 83.0365 515.391 84.3924 512.683 84.5303C509.586 84.692 506.48 84.7826 503.382 84.9048L503.386 85.027Z" fill="#EC6B15"/>
<path d="M507.465 53.5823C507.228 50.157 510.054 48.0088 512.501 49.4357C518.46 52.8491 524.297 56.4873 530.098 60.1609C531.817 61.2488 532.069 63.0974 531.08 64.8553C530.02 66.7394 528.148 67.3662 526.35 66.3059C520.439 62.8372 514.586 59.2109 508.789 55.5255C508.036 55.021 507.693 53.9213 507.465 53.5823Z" fill="#EC6911"/>
<path d="M589.448 93.7919C587.962 93.1849 587.083 92.9484 586.295 92.4873C581.053 89.334 575.831 86.1439 570.629 82.917C568.351 81.5059 567.669 79.2789 568.828 77.3987C569.987 75.5186 572.099 75.2111 574.345 76.5749C579.737 79.8228 585.102 83.0983 590.441 86.4014C592.017 87.3631 593.082 88.8373 592.285 90.6032C591.742 91.8684 590.421 92.7711 589.448 93.7919Z" fill="#EC6912"/>
<path d="M545.014 74.6123C545.802 75.3297 547.378 76.1259 547.674 77.269C547.969 78.412 547.544 80.6075 546.649 81.2106C541.002 85.1167 535.181 88.7746 529.308 92.3615C527.637 93.3824 525.836 92.866 524.673 91.1553C523.511 89.4447 523.716 87.5054 525.32 86.4254C531.082 82.5468 537.005 78.889 542.885 75.1799C543.295 74.9434 543.831 74.9276 545.014 74.6123Z" fill="#EC6911"/>
<path d="M561.565 61.5574C558.468 61.6796 555.37 61.8294 552.268 61.9318C549.86 62.0304 548.209 60.6666 548.071 58.6012C547.933 56.5358 549.391 54.9709 551.823 54.8251C558.181 54.4546 564.54 54.134 570.898 53.8633C573.566 53.7569 575.091 55.0971 575.162 57.3793C575.233 59.6615 573.732 61.0332 571.111 61.1711C567.942 61.3288 564.762 61.4273 561.565 61.5574Z" fill="#EC670E"/>
<path d="M569.377 101.546C569.243 107.159 569.144 112.776 568.983 118.385C568.888 121.171 567.406 122.654 565.014 122.539C562.823 122.437 561.542 120.88 561.609 118.14C561.759 111.857 561.956 105.577 562.2 99.2994C562.287 96.9068 563.836 95.3853 565.94 95.4523C567.978 95.5193 569.29 96.962 569.412 99.2836L569.503 101.546H569.377Z" fill="#EC6911"/>
<path d="M455.197 51.3577C456.166 50.4353 457.108 48.973 458.432 48.4251C460.273 47.6604 461.806 48.7522 462.649 50.5536C465.124 55.8564 467.588 61.1631 470.039 66.4738C471.671 70.0213 471.363 72.1695 469.129 73.218C466.764 74.3098 464.998 73.2179 463.343 69.6705C461.023 64.6777 458.716 59.664 456.422 54.6292C456.076 53.7581 455.788 52.887 455.197 51.3577Z" fill="#EC6A14"/>
<path d="M503.877 4.21445C503.503 4.73868 502.978 6.08278 502.009 6.73709C496.657 10.3161 491.214 13.7493 485.76 17.1667C483.702 18.4359 481.578 18.0417 480.435 16.331C479.202 14.4863 479.694 12.35 481.846 10.9507C487.167 7.48468 492.519 4.0686 497.902 0.702449C500.606 -1.00034 503.692 0.477778 503.877 4.21445Z" fill="#EC6913"/>
</svg>
