<svg width="759" height="471" viewBox="0 0 759 471" fill="none" xmlns="http://www.w3.org/2000/svg">
<path d="M589.419 454.917C591.718 454.917 594.021 454.867 596.316 454.917C610.694 455.304 624.952 456.649 638.912 460.329C640.024 460.668 641.117 461.066 642.187 461.52C642.769 461.74 643.567 462.042 643.482 462.68C643.381 463.422 642.482 463.511 641.811 463.608C640.726 463.77 639.633 463.917 638.535 463.994C625.987 464.767 613.419 465.1 600.851 465.367C582.988 465.753 565.125 466.059 547.269 466.65C539.516 466.909 531.837 468.293 524.072 468.525C511.982 468.961 499.877 468.464 487.865 467.041C485.562 466.758 483.213 466.932 480.86 466.944C471.645 467.002 462.434 467.114 453.22 467.141C424.605 467.231 395.993 467.301 367.384 467.35C357.481 467.373 347.576 467.395 337.67 467.416C321.172 467.458 304.692 468.479 288.194 468.235C284.003 468.173 279.805 468.297 275.633 467.794C275.022 467.742 274.417 467.629 273.827 467.458C272.338 466.967 272.428 466.097 273.474 465.247C274.138 464.762 274.859 464.361 275.622 464.052C285.29 459.641 295.357 456.251 305.324 452.613C309.616 451.067 313.511 448.828 317.376 446.474C320.036 444.858 322.757 443.269 325.967 445.334C326.89 445.929 326.82 444.827 326.878 444.522C327.037 443.625 328.401 442.589 326.61 441.816C324.226 440.78 321.924 439.546 319.512 438.584C317.989 437.973 317.989 437.424 318.861 436.148C336.859 409.378 354.842 382.596 372.812 355.8C374.955 352.618 376.01 349.031 377.413 345.567C382.065 334.105 386.821 322.689 392.729 311.806C396.691 304.511 401.781 298.187 409.751 294.893C420.575 290.42 431.429 291.101 441.958 295.666C453.526 300.692 463.403 308.358 472.699 316.755C475.025 318.865 477.227 321.158 479.406 323.439C479.703 323.8 480.098 324.069 480.545 324.211C480.991 324.354 481.469 324.365 481.922 324.243C499.211 321.073 511.422 311.485 518.699 295.55C519.292 294.251 519.052 293.668 517.896 292.809C502.076 281.015 487.868 267.546 475.975 251.777C470.711 244.818 470.788 242.731 475.587 235.428C481.681 226.15 490.202 219.532 499.587 213.907C507.368 209.241 515.679 205.715 524.285 202.87C525.39 202.506 525.669 202.398 525.522 200.844C525.262 198.138 524.746 195.722 523.552 193.252C522.711 191.524 524.3 190.194 525.828 189.405C526.743 188.929 526.902 188.632 526.53 187.565C525.138 183.66 526.553 180.324 529.065 177.34C530.119 176.087 531.251 176.331 532.127 177.568C532.951 178.744 533.707 179.967 534.391 181.229C537.376 186.695 541.757 190.368 547.669 192.556C555.236 195.366 563.024 197.678 570.153 201.474C572.814 202.957 575.905 203.486 578.91 202.974C582.279 202.456 585.628 203.106 588.849 204.134C590.129 204.521 590.4 204.134 590.171 203.106C589.722 201.053 590.861 200.763 592.497 200.751C610.43 200.647 627.518 204.192 643.54 212.403C644.579 212.937 645.393 213.694 646.703 212.565C647.754 211.665 649.293 212.778 648.948 214.263C648.677 215.422 649.254 215.639 649.933 216.08C653.791 218.586 657.408 221.445 660.737 224.619C666.792 230.418 668.746 237.663 668.552 245.696C668.273 257.386 664.117 267.998 659.109 278.336C658.768 278.937 658.589 279.616 658.589 280.307C658.589 280.998 658.768 281.677 659.109 282.279C665.33 294.856 669.631 308.29 671.87 322.136C675.456 344.697 672.58 366.307 662.411 386.851C648.746 414.461 627.522 434.645 600.537 449.091C596.897 451.024 593.117 452.721 589.404 454.531L589.419 454.917Z" fill="#222221"/>
<path d="M148.779 465.64C149.741 466.506 151.671 466.869 151.16 468.562C150.725 469.989 149.008 470.032 147.671 470.26C141.181 471.365 134.657 470.994 128.137 470.646C125.601 470.515 123.066 470.26 120.527 470.225C118.806 470.194 117.526 469.726 116.65 468.145C115.991 466.985 115.069 465.957 114.111 464.666C113.336 466.096 112.56 467.294 112.033 468.601C111.409 470.148 110.459 470.716 108.757 470.654C105.269 470.526 105.269 470.623 104.338 467.329C103.481 464.237 102.567 461.144 101.803 458.051C101.543 456.996 101.159 456.609 100.043 456.586C98.1473 456.555 95.6818 457.293 94.5227 456.045C93.4838 454.92 93.7474 452.566 93.5458 450.718C92.1076 437.512 90.6112 424.31 89.3048 411.089C87.8782 396.642 86.5137 382.187 85.3546 367.717C84.2498 353.932 83.3698 340.123 82.5208 326.318C81.7726 314.082 81.195 301.839 80.9702 289.592C80.9237 286.785 80.7298 283.979 80.7143 281.172C80.7143 280.078 80.2685 279.78 79.2761 279.676C78.055 279.544 76.8571 279.096 75.6399 279.042C74.0544 278.968 74.0544 278.172 74.1552 276.912C75.888 255.131 82.1254 234.526 90.5996 214.524C97.1898 198.941 105.435 184.324 116.918 171.706C129.362 158.036 144.178 148.201 162.448 144.165C184.8 139.232 206.219 141.459 226.322 152.956C227.137 153.466 228.074 153.748 229.036 153.772C230.288 153.772 231.606 153.969 232.599 154.634C235.208 156.374 238.026 155.666 240.778 155.624C241.813 155.624 241.678 155.187 241.364 154.464C240.677 152.918 239.956 151.34 239.906 149.585C239.836 147.157 241.119 145.654 243.48 145.94C245.519 146.183 245.333 145.228 245.198 143.879C244.659 138.44 243.984 133.008 245.31 127.557C247.547 118.349 255.001 112.009 264.468 111.348C272.869 110.76 280.862 112.156 288.379 116.018C288.91 116.292 289.309 116.706 289.976 116.095C293.31 113.037 297.969 115.376 299.392 118.855C299.57 119.296 299.78 119.725 299.966 120.162C300.354 119.389 300.66 118.616 301.086 117.947C301.861 116.714 302.866 115.852 304.482 116.199C305.986 116.52 306.544 117.634 306.862 118.971C307.25 120.618 307.006 122.257 306.707 123.869C305.899 128.316 304.311 132.586 302.017 136.484C301.342 137.643 300.613 138.722 299.353 139.236C299.101 139.32 298.881 139.481 298.725 139.696C298.569 139.911 298.485 140.169 298.485 140.435C298.083 143.28 297.455 146.089 296.609 148.835C296.396 149.512 296.527 150.327 296.609 151.07C297.078 154.8 296.016 158.009 293.19 160.506C292.224 161.361 291.918 162.408 291.581 163.506C289.305 170.917 286.576 178.123 282.083 184.533C279.73 187.9 276.923 190.784 273.066 192.419C267.1 194.944 259.184 192.96 254.684 187.332C252.687 184.834 250.834 183.76 247.706 184.533C245.864 184.989 243.887 184.973 241.964 185.028C240.802 185.058 240.561 185.507 240.77 186.535C241.158 188.468 241.445 190.447 241.879 192.384C242.096 193.37 241.922 193.675 240.848 193.71C239.642 193.745 238.034 193.188 237.316 194.097C236.7 194.897 237.704 196.25 237.902 197.375C238.67 201.49 238.916 205.686 238.634 209.862C237.991 220.257 235.452 230.274 232.351 240.17C232.013 241.253 231.575 241.717 230.478 241.09C230.227 240.999 229.967 240.933 229.703 240.893C225.78 239.703 225.78 239.703 225.222 244.152C231.424 243.352 237.603 242.532 243.783 241.786C244.915 241.651 245.419 239.965 246.64 240.553C248.504 241.442 250.26 240.673 252.067 240.553L252.478 240.507C255.73 240.147 258.44 239.347 260.421 236.131C263.111 231.758 268.054 230.332 272.694 228.785C274.63 228.087 276.612 227.524 278.625 227.1C279.967 226.849 281.409 227.1 282.083 228.785C280.587 233.803 275.899 233.054 280.373 233.693C283.531 234.145 307.704 233.392 312.224 233.803C314.232 233.803 325.98 232.907 327.015 234.601C328.247 232.736 315.922 229.687 317.976 228.027C320.852 230.098 322.061 227.714 322.495 228.027C322.93 228.34 322.378 229.802 322.906 229.891C325.232 230.428 322.635 229.858 324.961 230.492C326.472 230.917 324.224 229.706 324.55 231.314C325.236 234.689 325.491 228.73 325.782 232.135C327.015 234.024 327.895 234.121 327.015 234.024C327.015 234.024 326.193 233.993 325.782 233.973C322.79 233.745 325.782 232.719 330.975 233.803H333.332C338.902 233.803 344.473 233.803 350.047 233.803C350.629 233.803 351.4 233.548 351.683 234.287C351.928 234.928 351.175 235.176 350.869 235.585C349.35 237.634 347.473 238.466 344.744 238.404C335.394 238.195 326.036 238.338 316.682 238.315C315.592 238.315 314.91 238.5 314.208 239.56C312.429 242.266 309.483 243.244 306.479 243.773C300.665 244.839 294.747 245.228 288.844 244.933C287.053 244.875 285.275 245.249 283.661 246.023C274.326 250.195 264.39 252.696 254.862 256.318C253.866 256.705 252.722 256.863 252.203 258.038C252.115 258.186 251.992 258.31 251.846 258.401C251.699 258.491 251.533 258.544 251.361 258.557C246.775 258.046 243.007 260.675 238.886 261.862C232.18 263.795 225.567 266.049 218.802 267.788C218.307 267.876 217.846 268.099 217.471 268.433C217.096 268.767 216.821 269.198 216.678 269.679C215.571 272.697 214.277 275.644 212.801 278.501C211.681 280.743 209.897 281.837 207.494 282.192C201.656 283.058 195.996 281.845 190.356 280.673C185.998 279.772 181.688 278.62 177.392 277.449C176.039 277.082 175.749 277.248 175.892 278.671C176.85 287.949 177.733 297.227 178.641 306.482C179.048 310.638 179.416 314.797 179.897 318.945C180.075 320.492 179.121 320.217 178.257 320.221C170.624 320.271 162.991 320.36 155.358 320.329C153.807 320.329 153.296 320.654 153.296 322.324C153.327 339.058 153.298 355.791 153.21 372.523C153.099 397.96 152.97 423.396 152.823 448.831C152.823 450.196 152.582 450.911 151.055 450.691C150.481 450.623 149.901 450.75 149.407 451.05C153.04 452.21 156.684 453.37 160.3 454.583C165.038 456.18 169.786 457.769 174.155 460.251C175.318 460.9 177.047 461.465 176.702 463.061C176.384 464.557 174.59 464.608 173.279 464.844C166.515 465.957 159.711 465.42 152.912 465.257C152.361 465.257 151.811 465.257 151.26 465.257C150.485 464.94 149.663 465.091 148.861 465.137C148.43 465.141 148.62 465.423 148.779 465.64Z" fill="#222221"/>
<path d="M725.888 333.251C726.633 332.903 727.106 332.644 727.606 332.451C731.827 330.827 735.336 332.838 736.134 337.31C736.855 341.269 736.049 345.096 735.115 348.881C731.238 364.538 726.125 379.808 721.062 395.121C718.643 402.443 716.123 409.73 713.642 417.032C713.468 417.547 713.224 418.041 713.402 418.706C717.848 418.706 722.318 418.745 726.784 418.679C728.09 418.679 728.358 418.919 728.09 420.28C725.555 433.234 723.14 446.212 720.601 459.163C720.306 460.663 720.849 460.709 722.012 460.709C725.377 460.709 728.749 460.744 732.048 461.567C732.513 461.683 732.967 461.842 733.424 461.981C733.967 462.147 734.564 462.399 734.587 462.99C734.611 463.581 734.002 463.84 733.479 464.042C731.602 464.696 729.647 465.101 727.664 465.248C723.966 465.634 720.256 465.661 716.542 465.685C707.122 465.746 697.698 465.495 688.278 465.878C686.833 465.986 685.383 465.763 684.037 465.228C683.467 464.977 682.874 464.598 682.924 463.891C682.966 463.619 683.086 463.365 683.269 463.16C683.452 462.954 683.69 462.805 683.955 462.731C684.587 462.484 685.254 462.043 685.874 462.089C687.778 462.236 688.022 461.084 688.293 459.627C689.197 454.79 690.026 449.931 691.243 445.168C692.147 441.627 691.073 438.388 690.468 435.055C689.511 429.674 688.437 424.312 687.367 418.733C689.867 418.733 692.267 418.66 694.659 418.76C695.822 418.811 696.248 418.351 696.403 417.322C696.682 415.498 696.961 413.669 697.31 411.856C697.516 410.641 697.331 409.392 696.783 408.288C692.72 399.01 689.03 389.604 687.216 379.588C686.374 374.983 685.987 370.364 686.975 365.725C688.324 359.381 692.717 355.828 699.233 355.782H700.822C699.834 350.733 698.791 345.757 697.9 340.759C695.725 328.612 694.066 316.404 694.097 304.033C694.12 296.193 694.946 288.426 698.624 281.294C700.369 277.919 702.664 275.039 706.858 274.606C707.893 274.502 707.769 273.929 707.738 273.176C707.25 260.577 706.114 248.047 704.404 235.541C702.125 218.841 698.655 202.403 693.597 186.317C685.529 160.686 673.725 137.019 656.381 116.279C642.272 99.2946 624.928 85.2671 605.35 75.007C601.474 72.9851 596.895 72.3395 592.612 71.1411C570.106 64.8425 547.224 59.972 524.101 56.559C499.904 53.0051 475.51 50.9394 451.058 50.3736C450.194 50.3543 449.329 50.277 447.818 50.1881C449.279 51.1429 450.209 51.7924 451.182 52.3684C451.776 52.7202 452.128 53.0102 451.717 53.7795C451.268 54.6106 450.752 54.2782 450.202 54.0269C448.143 53.0913 446.05 52.2254 444.05 51.1893C442.282 50.2731 440.456 50.0296 438.498 50.0064C412.525 49.8324 386.552 50.7796 360.633 52.4071C337.048 53.8722 313.494 55.7433 289.917 57.3399C270.801 58.6389 251.678 59.9107 232.512 60.3824C226.054 60.5409 219.6 60.769 213.13 60.9313C212.659 60.972 212.184 60.9018 211.746 60.7264C246.294 41.227 283.435 30.6461 322.945 28.2338C362.455 25.8215 400.624 31.771 437.421 46.4227C437.494 46.2681 437.564 46.1134 437.634 45.9627L401.713 23.2893C389.746 15.7509 377.76 8.16215 365.809 0.0360815C369.739 0.0360815 373.67 -0.0451019 377.601 0.0360815C385.843 0.240973 394.08 0.422669 402.314 0.956159C416.787 1.88912 431.194 3.40455 445.534 5.50243C464.812 8.29646 483.866 12.4564 502.551 17.9505C528.892 25.7867 553.982 36.3908 576.857 51.804C584.116 56.6378 590.993 62.0194 597.426 67.9015C599.113 69.4479 601.035 70.569 603.051 71.605C627.861 84.3237 648.586 101.813 665.018 124.308C680.083 144.925 690.301 167.846 697.299 192.267C702.532 210.537 705.827 229.174 707.734 248.071C708.543 256.114 709.138 264.172 709.518 272.244C709.541 272.789 709.665 273.334 709.642 273.875C709.615 274.56 709.956 275.004 710.557 274.985C711.514 274.95 711.01 274.138 710.979 273.74C710.235 264.11 709.607 254.465 709.816 244.808C710.029 234.675 710.413 224.539 713.437 214.731C714.02 212.838 714.783 211.005 715.716 209.257C719.713 201.765 727.54 200.366 733.936 206.041C737.832 209.474 739.534 214.078 740.631 218.93C742.674 227.972 742.655 237.157 742.046 246.335C740.131 275.205 733.715 303.256 726.404 331.141C726.264 331.744 726.121 332.331 725.888 333.251Z" fill="#232221"/>
<path d="M494.978 109.14C493.04 109.561 491.489 108.97 489.938 108.61C483.065 107.037 476.324 104.965 469.513 103.171C462.023 101.203 454.677 102.228 447.567 105.03C438.888 108.459 431.1 113.377 424.037 119.442C422.552 120.718 421.404 121.198 419.633 119.613C416.532 116.837 413.144 114.386 409.86 111.823C406.759 109.387 403.103 108.258 399.261 107.679C394.075 106.905 388.833 107.083 383.639 107.331C378.266 107.582 372.928 108.49 367.625 109.48C365.008 109.963 362.399 110.493 359.782 110.988C359.395 111.061 358.98 111.456 358.643 111.046C358.305 110.636 358.662 110.137 358.856 109.724C361.124 104.88 364.713 101.219 369.094 98.2343C374.013 94.8903 379.27 92.1687 385.201 91.3839C388.889 90.9297 392.619 90.9103 396.311 91.326C404.006 92.1888 411.516 94.258 418.563 97.4572C419.509 97.8786 419.788 97.233 420.276 96.8348C426.324 91.9484 432.709 87.7384 440.241 85.3184C452.208 81.4757 463.361 83.3855 474.044 89.4278C479.217 92.4033 483.92 96.1252 488 100.473C490.516 103.128 493.013 105.835 494.978 109.14Z" fill="#F2F1F0"/>
<path d="M140.559 113.923C132.484 110.977 125.576 106.883 118.362 103.427C113.424 101.046 107.931 100.046 102.468 100.536C92.1601 101.332 82.8874 104.889 73.9945 109.756C72.3896 110.633 71.3042 111.004 69.9435 109.226C67.5826 106.133 64.8225 103.362 62.388 100.335C59.4418 96.6543 55.3249 95.0074 51.0607 93.7278C44.9551 91.8954 38.6556 91.273 32.2903 90.7085C27.3399 90.2717 22.4127 90.5694 17.4817 90.3761C17.0166 90.3568 16.4234 90.5771 16.1288 90.1364C15.7179 89.5256 16.3963 89.1158 16.6832 88.7408C19.6565 84.7899 23.7075 82.2268 28.1811 80.3673C32.9338 78.3919 37.8493 77.0272 43.1214 77.1818C48.7115 77.3442 53.8712 79.0452 58.9844 81.0477C63.7991 82.9188 68.2145 85.5437 72.4749 88.4238C73.3471 89.0114 73.9868 89.0501 74.8784 88.5514C80.6506 85.3272 86.7213 83.0039 93.3192 81.9601C101.838 80.5235 110.589 82.2127 117.955 86.7151C126.902 92.05 133.306 99.774 138.028 108.952C138.807 110.436 139.567 111.955 140.559 113.923Z" fill="#F2F1F0"/>
<path d="M507.544 156.095C503.693 155.085 499.942 153.729 496.337 152.043C489.219 148.784 482.334 149.608 475.488 152.619C472.32 153.945 469.299 155.597 466.475 157.548C465.421 158.322 464.851 158.07 464.084 157.243C462.727 155.789 461.172 154.506 459.889 152.99C457.23 149.867 453.547 149.063 449.81 148.425C445.933 147.76 442.014 147.911 438.11 148.011C435.866 148.065 433.629 148.398 431.389 148.649C430.927 148.699 430.381 149.005 430.086 148.498C429.791 147.992 430.365 147.629 430.621 147.273C433.145 143.736 436.73 141.706 440.7 140.164C445.639 138.231 450.519 138.942 455.377 140.368C458.265 141.215 461.133 142.189 463.677 143.867C464.781 144.594 465.665 144.509 466.809 143.782C471.488 140.813 476.458 138.667 482.152 138.49C487.234 138.327 491.696 139.951 495.895 142.626C500.38 145.483 503.605 149.527 506.602 153.787C507.151 154.438 507.481 155.246 507.544 156.095Z" fill="#F2F1F0"/>
<path d="M353.753 195.058C353.459 195.367 353.253 195.622 353.009 195.831C350.815 197.764 348.601 199.697 346.419 201.63C345.895 202.097 345.508 202.337 344.95 201.63C344.473 201.027 344.682 200.744 345.163 200.327C347.427 198.363 349.66 196.36 351.92 194.393C352.172 194.172 352.416 193.658 352.885 194.099C353.168 194.389 353.42 194.694 353.753 195.058Z" fill="#282827"/>
<path d="M326.407 182.57C325.221 182.388 324.829 182.067 325 181.267C325.461 179.144 325.884 177.014 326.341 174.896C326.481 174.242 326.857 174.088 327.539 174.285C328.124 174.451 328.291 174.614 328.14 175.24C327.632 177.351 327.194 179.492 326.733 181.595C326.636 182.048 326.659 182.604 326.407 182.57Z" fill="#292827"/>
<path d="M298.049 180.971C298.437 181.876 297.812 181.957 297.312 182.166C296.63 182.448 296.46 181.976 296.332 181.516C295.742 179.432 295.192 177.333 294.599 175.25C294.397 174.546 294.874 174.527 295.316 174.326C295.928 174.047 296.219 174.268 296.37 174.813C296.952 176.912 297.514 179.003 298.049 180.971Z" fill="#2D2C2B"/>
<path d="M281.943 202.267C281.815 202.913 281.61 203.427 280.865 203.211C279.039 202.665 277.221 202.093 275.403 201.521C274.822 201.336 274.752 200.914 274.903 200.385C275.054 199.855 275.194 199.519 275.884 199.754C277.687 200.369 279.509 200.914 281.311 201.49C281.745 201.622 282.121 201.769 281.943 202.267Z" fill="#292928"/>
<path d="M347.622 220.484C346.754 220.678 346.432 220.446 346.339 219.734C346.254 219.1 346.498 218.899 347.064 218.799C348.804 218.486 350.553 218.165 352.274 217.794C353.03 217.631 353.228 218.006 353.359 218.617C353.491 219.228 353.197 219.506 352.65 219.603L347.622 220.484Z" fill="#2D2D2C"/>
<path d="M279.848 221.207C280.248 221.132 280.652 221.077 281.057 221.044C281.705 221.017 281.809 221.473 281.833 221.991C281.856 222.509 281.736 222.764 281.205 222.822C279.72 222.985 278.235 223.159 276.75 223.333C276.142 223.402 275.715 223.333 275.661 222.56C275.607 221.786 275.975 221.67 276.607 221.609C277.685 221.504 278.758 221.322 279.836 221.172L279.848 221.207Z" fill="#292928"/>
<path d="M38.4713 131.53C38.261 131.523 38.0544 131.474 37.864 131.384C37.6736 131.295 37.5034 131.168 37.3638 131.011C37.2242 130.854 37.118 130.67 37.0519 130.471C36.9857 130.272 36.9608 130.062 36.9788 129.853C36.9788 128.758 37.6805 128.124 38.828 128.19C39.9057 128.252 40.429 128.963 40.3786 129.941C40.3282 130.92 39.7118 131.538 38.4713 131.53Z" fill="#2D2D2C"/>
<path d="M176.011 69.7288C176.891 69.6824 177.492 70.3667 177.535 71.3022C177.581 72.3692 176.918 73.0844 175.767 73.0805C174.682 73.0805 174.162 72.3653 174.154 71.3834C174.147 70.4014 174.701 69.7481 176.011 69.7288Z" fill="#2D2D2C"/>
<path d="M667.145 141.793C666.196 141.603 665.502 141.186 665.474 140.092C665.447 138.997 666.072 138.402 667.048 138.36C668.126 138.317 668.859 138.901 668.836 140.092C668.828 141.17 668.095 141.58 667.145 141.793Z" fill="#2F2F2E"/>
<path d="M241.776 229.069C240.757 228.98 240.179 228.412 240.179 227.376C240.179 226.339 240.695 225.725 241.78 225.705C242.943 225.686 243.56 226.363 243.521 227.457C243.486 228.462 242.835 229.022 241.776 229.069Z" fill="#2E2E2D"/>
<path d="M668.734 78.3827C668.551 79.3337 668.09 80.045 667.036 80.0605C665.873 80.0605 665.326 79.3183 665.349 78.2397C665.373 77.1611 666.001 76.6934 667.071 76.6934C668.141 76.6934 668.582 77.4279 668.734 78.3827Z" fill="#2F2E2D"/>
<path d="M665.52 64.7025C664.501 64.5518 663.865 64.0763 663.888 62.9629C663.912 61.8495 664.586 61.3199 665.59 61.3354C665.816 61.3205 666.042 61.3552 666.253 61.4368C666.464 61.5184 666.654 61.6451 666.811 61.8079C666.968 61.9707 667.087 62.1658 667.16 62.3793C667.233 62.5929 667.258 62.8198 667.234 63.0441C667.21 64.1149 666.528 64.6059 665.52 64.7025Z" fill="#292928"/>
<path d="M165.779 61.3752C164.79 61.3095 164.112 60.7992 164.054 59.7786C164.021 59.5411 164.042 59.2993 164.116 59.0711C164.189 58.843 164.314 58.6343 164.479 58.4608C164.645 58.2872 164.848 58.1533 165.073 58.0688C165.298 57.9844 165.539 57.9517 165.779 57.9732C166.748 57.9732 167.38 58.5879 167.391 59.6587C167.403 60.7296 166.818 61.2399 165.779 61.3752Z" fill="#2D2D2C"/>
<path d="M272.942 315.322C272.787 316.3 272.361 317.05 271.31 317.096C270.174 317.146 269.504 316.481 269.511 315.376C269.511 314.386 270.077 313.76 271.178 313.756C272.279 313.752 272.721 314.405 272.942 315.322Z" fill="#2C2C2B"/>
<path d="M654.263 201.903C653.236 201.779 652.581 201.242 652.562 200.221C652.542 199.201 653.015 198.559 654.139 198.536C655.264 198.513 655.965 199.143 655.946 200.229C655.93 201.203 655.267 201.799 654.263 201.903Z" fill="#2C2C2B"/>
<path d="M277.914 327.594C279.057 327.675 279.654 328.154 279.67 329.244C279.685 330.335 279.069 330.934 278.092 330.957C277.854 330.984 277.612 330.958 277.385 330.88C277.159 330.802 276.952 330.674 276.781 330.506C276.61 330.338 276.479 330.134 276.397 329.909C276.316 329.684 276.285 329.444 276.309 329.206C276.313 328.116 277.084 327.729 277.914 327.594Z" fill="#2F2E2D"/>
<path d="M257.316 271.447C257.316 272.665 256.7 273.342 255.734 273.38C254.684 273.431 253.932 272.855 253.94 271.664C253.94 270.589 254.56 270.021 255.579 270.013C255.788 269.993 255.998 270.015 256.198 270.076C256.398 270.138 256.584 270.238 256.746 270.371C256.907 270.504 257.04 270.668 257.138 270.853C257.236 271.037 257.297 271.239 257.316 271.447Z" fill="#2E2D2C"/>
<path d="M663.071 172.281C661.865 172.247 661.191 171.682 661.133 170.693C661.086 169.626 661.656 168.903 662.85 168.914C663.927 168.914 664.478 169.544 664.489 170.553C664.528 170.97 664.401 171.384 664.136 171.708C663.87 172.031 663.488 172.237 663.071 172.281Z" fill="#2E2E2D"/>
<path d="M309.701 364.404C308.767 364.16 308.058 363.727 308.077 362.641C308.104 361.454 308.852 360.921 309.922 360.979C310.992 361.037 311.473 361.709 311.43 362.761C311.388 363.812 310.616 364.207 309.701 364.404Z" fill="#2D2D2C"/>
<path d="M324.812 370.223C324.758 371.317 324.25 371.978 323.207 372.029C322.986 372.055 322.761 372.035 322.548 371.97C322.335 371.905 322.138 371.796 321.969 371.651C321.8 371.505 321.664 371.326 321.569 371.125C321.474 370.924 321.422 370.705 321.416 370.482C321.384 370.245 321.404 370.003 321.477 369.774C321.55 369.545 321.673 369.336 321.837 369.16C322.001 368.985 322.202 368.848 322.426 368.76C322.649 368.672 322.89 368.634 323.13 368.65C324.138 368.635 324.719 369.265 324.812 370.223Z" fill="#2F2F2E"/>
<path d="M40.6893 112.783C41.7359 112.911 42.3368 113.413 42.3213 114.492C42.339 114.713 42.3088 114.936 42.2326 115.144C42.1564 115.353 42.036 115.543 41.8797 115.701C41.7234 115.859 41.5348 115.982 41.3267 116.061C41.1186 116.139 40.8959 116.173 40.6737 116.158C39.6077 116.158 38.8905 115.524 38.9642 114.345C39.0223 113.278 39.7046 112.837 40.6893 112.783Z" fill="#2E2D2C"/>
<path d="M337.753 373.705C338.738 373.813 339.424 374.3 339.432 375.352C339.456 375.591 339.426 375.831 339.345 376.057C339.263 376.283 339.132 376.487 338.961 376.656C338.79 376.825 338.584 376.953 338.357 377.032C338.13 377.11 337.888 377.137 337.649 377.111C336.672 377.076 336.071 376.434 336.098 375.364C336.125 374.293 336.749 373.829 337.753 373.705Z" fill="#2C2C2B"/>
<path d="M663.656 49.3954C663.433 49.3954 663.213 49.3516 663.007 49.2665C662.801 49.1814 662.613 49.0567 662.456 48.8994C662.298 48.7422 662.173 48.5555 662.088 48.3501C662.002 48.1447 661.958 47.9245 661.958 47.7021C661.958 47.4797 662.002 47.2596 662.088 47.0541C662.173 46.8487 662.298 46.662 662.456 46.5048C662.613 46.3476 662.801 46.2228 663.007 46.1377C663.213 46.0526 663.433 46.0088 663.656 46.0088C663.879 45.9911 664.102 46.0213 664.312 46.0976C664.521 46.1738 664.712 46.2941 664.87 46.4505C665.029 46.6068 665.152 46.7954 665.231 47.0034C665.31 47.2114 665.343 47.4339 665.327 47.6557C665.351 48.684 664.785 49.2833 663.656 49.3954Z" fill="#2E2E2D"/>
<path d="M44.4881 101.14C43.4918 101.252 42.8871 100.587 42.8018 99.6439C42.7049 98.5691 43.3329 97.8269 44.4803 97.796C45.5386 97.765 46.1201 98.4222 46.155 99.4313C46.1899 100.44 45.7286 101.117 44.4881 101.14Z" fill="#2E2E2D"/>
<path d="M660.97 185.411C660.807 186.474 660.334 187.186 659.295 187.232C658.156 187.282 657.489 186.641 657.512 185.516C657.496 185.293 657.529 185.069 657.608 184.86C657.687 184.651 657.811 184.462 657.97 184.305C658.13 184.148 658.321 184.027 658.532 183.951C658.743 183.875 658.968 183.846 659.191 183.865C660.241 183.853 660.707 184.584 660.97 185.411Z" fill="#2E2E2D"/>
<path d="M126.945 40.1967C126.898 41.5613 126.224 42.0484 125.22 42.0059C124.216 41.9634 123.545 41.4067 123.58 40.3358C123.619 39.1993 124.355 38.5614 125.433 38.658C126.363 38.7431 127.049 39.3384 126.945 40.1967Z" fill="#2E2E2D"/>
<path d="M70.1498 60.369C70.0064 61.5287 69.4598 62.0738 68.3898 62.0468C68.1686 62.0596 67.9472 62.025 67.7405 61.9453C67.5339 61.8657 67.3467 61.7427 67.1917 61.5849C67.0367 61.427 66.9174 61.2378 66.8419 61.03C66.7663 60.8223 66.7363 60.6008 66.7539 60.3806C66.7733 59.3058 67.4594 58.6332 68.6069 58.7066C69.673 58.7724 70.0296 59.5417 70.1498 60.369Z" fill="#2E2E2D"/>
<path d="M667.216 155.236C667.011 156.423 666.488 157.061 665.41 157.034C664.332 157.007 663.805 156.38 663.832 155.313C663.859 154.246 664.445 153.686 665.522 153.697C666.6 153.709 666.988 154.494 667.216 155.236Z" fill="#2A2A29"/>
<path d="M213.516 139.686C213.33 140.648 212.768 141.348 211.768 141.313C211.53 141.325 211.292 141.284 211.071 141.193C210.851 141.102 210.654 140.963 210.494 140.787C210.334 140.61 210.215 140.4 210.147 140.173C210.078 139.945 210.061 139.705 210.097 139.469C210.175 138.426 210.872 137.884 211.884 137.946C212.896 138.008 213.411 138.669 213.516 139.686Z" fill="#2D2D2C"/>
<path d="M207.476 125.159C207.449 126.272 206.987 126.937 205.886 126.976C204.786 127.014 204.177 126.427 204.138 125.387C204.099 124.347 204.65 123.69 205.731 123.643C206.813 123.597 207.383 124.192 207.476 125.159Z" fill="#2B2B2A"/>
<path d="M670.045 109.246C669.902 110.282 669.34 110.912 668.282 110.881C668.055 110.891 667.829 110.853 667.618 110.769C667.407 110.684 667.217 110.556 667.061 110.392C666.904 110.228 666.785 110.033 666.71 109.819C666.636 109.605 666.609 109.378 666.63 109.153C666.63 108.117 667.281 107.525 668.363 107.56C669.445 107.595 669.956 108.217 670.045 109.246Z" fill="#2C2C2B"/>
<path d="M82.4996 51.2354C82.4376 52.2135 81.8987 52.8669 80.8792 52.9016C80.6395 52.9311 80.3962 52.9056 80.1678 52.8272C79.9395 52.7488 79.732 52.6196 79.5612 52.4493C79.3904 52.279 79.2608 52.0721 79.1822 51.8443C79.1036 51.6166 79.0781 51.374 79.1076 51.1349C79.1016 50.913 79.1436 50.6925 79.2307 50.4882C79.3177 50.2839 79.4479 50.1007 79.6123 49.9511C79.7767 49.8015 79.9715 49.6889 80.1834 49.621C80.3953 49.5531 80.6194 49.5315 80.8404 49.5577C81.9414 49.5886 82.4182 50.1685 82.4996 51.2354Z" fill="#2D2D2C"/>
<path d="M262.066 286.387C261.992 287.43 261.438 288.087 260.384 288.068C259.948 288.043 259.538 287.852 259.24 287.534C258.942 287.216 258.778 286.796 258.782 286.36C258.787 285.925 258.959 285.508 259.264 285.196C259.569 284.884 259.982 284.701 260.418 284.686C261.45 284.705 262.047 285.316 262.066 286.387Z" fill="#2C2C2B"/>
<path d="M94.8686 43.1074C95.8339 43.2698 96.5123 43.7955 96.5162 44.8471C96.5363 45.0721 96.5067 45.2988 96.4295 45.5112C96.3523 45.7236 96.2294 45.9165 96.0694 46.0765C95.9094 46.2364 95.7162 46.3594 95.5034 46.4369C95.2906 46.5143 95.0633 46.5444 94.8376 46.5248C94.6112 46.5408 94.384 46.5082 94.1712 46.4292C93.9585 46.3503 93.7652 46.2268 93.6043 46.0671C93.4435 45.9074 93.3187 45.7152 93.2386 45.5034C93.1585 45.2916 93.1247 45.0652 93.1397 44.8393C93.1397 43.8651 93.7987 43.2389 94.8686 43.1074Z" fill="#2A2A29"/>
<path d="M184.848 82.4888C185.709 82.5507 186.318 83.1383 186.283 84.1782C186.296 84.4039 186.259 84.6297 186.175 84.8396C186.091 85.0496 185.962 85.2387 185.796 85.3935C185.631 85.5483 185.434 85.6651 185.219 85.7356C185.003 85.8062 184.775 85.8288 184.55 85.8018C183.53 85.7593 182.933 85.1408 182.945 84.0622C182.957 82.9836 183.569 82.4695 184.848 82.4888Z" fill="#292928"/>
<path d="M669.751 124.694C669.662 125.761 669.092 126.302 667.999 126.24C666.905 126.178 666.336 125.563 666.39 124.52C666.379 124.293 666.419 124.066 666.506 123.856C666.593 123.646 666.725 123.457 666.894 123.304C667.062 123.151 667.262 123.037 667.48 122.97C667.698 122.902 667.928 122.884 668.154 122.915C669.177 122.969 669.751 123.607 669.751 124.694Z" fill="#323130"/>
<path d="M199.605 112.974C198.466 112.904 197.783 112.394 197.725 111.346C197.667 110.299 198.225 109.645 199.276 109.595C199.501 109.564 199.729 109.581 199.947 109.646C200.164 109.711 200.364 109.822 200.535 109.972C200.705 110.121 200.841 110.305 200.934 110.512C201.026 110.718 201.073 110.942 201.071 111.168C201.183 112.216 200.505 112.792 199.605 112.974Z" fill="#2C2C2B"/>
<path d="M194.109 97.4491C193.946 98.4001 193.527 99.0689 192.395 99.0882C191.263 99.1076 190.693 98.5199 190.686 97.4916C190.666 97.2659 190.695 97.0386 190.771 96.825C190.847 96.6113 190.967 96.4163 191.125 96.253C191.282 96.0897 191.473 95.9619 191.684 95.8782C191.895 95.7944 192.122 95.7567 192.349 95.7674C193.399 95.7404 193.942 96.413 194.109 97.4491Z" fill="#2C2C2A"/>
<path d="M59.9591 71.9567C59.8156 72.9309 59.3388 73.5572 58.2379 73.5727C57.1369 73.5881 56.5748 72.9928 56.5826 71.9413C56.5904 70.8898 57.1951 70.2403 58.2379 70.2442C59.2807 70.248 59.8273 70.9052 59.9591 71.9567Z" fill="#2A2A29"/>
<path d="M155.774 49.565C155.608 50.6783 155.139 51.3355 154.042 51.3394C152.945 51.3433 152.375 50.8523 152.394 49.7273C152.413 48.6024 152.968 48.0457 154.011 48.0109C155.053 47.9761 155.522 48.7493 155.774 49.565Z" fill="#2A2928"/>
<path d="M661.518 34.0684C660.141 34.0298 659.668 33.4112 659.707 32.3442C659.746 31.2773 660.436 30.7128 661.44 30.7476C661.667 30.7375 661.894 30.7774 662.104 30.8645C662.315 30.9517 662.503 31.0839 662.656 31.2518C662.809 31.4196 662.924 31.6191 662.991 31.836C663.058 32.0528 663.076 32.2818 663.045 32.5066C662.994 33.5427 662.332 34.08 661.518 34.0684Z" fill="#292928"/>
<path d="M267.229 300.997C267.129 302.048 266.551 302.694 265.524 302.686C265.3 302.703 265.075 302.672 264.864 302.594C264.653 302.517 264.462 302.394 264.303 302.235C264.145 302.076 264.023 301.885 263.946 301.675C263.868 301.464 263.838 301.239 263.857 301.016C263.857 299.949 264.427 299.369 265.512 299.365C266.598 299.361 267.105 299.991 267.229 300.997Z" fill="#292927"/>
<path d="M667.831 95.4438C666.753 95.3162 666.238 94.7364 666.303 93.6501C666.369 92.5638 667.024 92.0341 668.052 92.1037C668.278 92.1013 668.503 92.1473 668.71 92.2388C668.917 92.3304 669.102 92.4652 669.252 92.6341C669.402 92.8031 669.515 93.0023 669.581 93.2183C669.648 93.4342 669.667 93.6619 669.637 93.8859C669.579 94.8987 668.85 95.409 667.831 95.4438Z" fill="#2B2B2A"/>
<path d="M288.844 341.866C288.829 342.281 288.65 342.674 288.346 342.959C288.042 343.243 287.637 343.396 287.22 343.385C286.1 343.412 285.437 342.747 285.452 341.63C285.452 340.574 286.204 340.021 287.178 340.021C288.151 340.021 288.79 340.621 288.844 341.866Z" fill="#2C2C2B"/>
<path d="M142.097 42.7496C141.973 43.805 141.387 44.4313 140.38 44.4506C139.372 44.4699 138.678 43.863 138.678 42.8346C138.678 41.7483 139.31 41.0331 140.457 41.0718C141.484 41.1066 141.981 41.8025 142.097 42.7496Z" fill="#2D2C2B"/>
<path d="M109.813 39.6836C110.828 39.6836 111.507 40.2093 111.577 41.2531C111.61 41.4768 111.594 41.705 111.53 41.9218C111.465 42.1386 111.354 42.3386 111.203 42.5078C111.053 42.677 110.867 42.8112 110.659 42.901C110.451 42.9908 110.226 43.034 109.999 43.0276C108.952 43.101 108.309 42.525 108.243 41.4619C108.177 40.3988 108.704 39.7957 109.813 39.6836Z" fill="#282827"/>
<path d="M299.424 352.826C299.389 353.905 298.908 354.539 297.823 354.57C296.737 354.601 296.152 354.067 296.117 352.992C296.082 351.917 296.641 351.318 297.695 351.276C298.749 351.233 299.315 351.825 299.424 352.826Z" fill="#252524"/>
<path d="M148.78 465.634L147.741 465.178C148.962 464.857 150.136 464.753 151.284 465.228C150.489 465.611 149.516 464.908 148.78 465.634Z" fill="#BDBCBC"/>
<path d="M528.075 213.048L525.431 215.943C524.993 215.205 525.52 214.053 524.516 214.01C523.706 213.972 523.353 214.865 523.059 215.557C523.005 215.68 522.888 215.816 522.9 215.943C523.288 219.249 520.574 220.737 518.888 222.84C518.5 223.319 518.081 223.772 517.697 224.255C514.914 227.765 515.263 229.915 519.151 232.451C519.992 233 520.291 233.262 519.616 234.248C517.166 237.851 517.771 239.603 521.942 241.327C522.818 241.694 523.745 241.934 525.234 242.428C521.857 243.039 519.19 242.599 516.79 241.164C515.383 240.325 514.902 240.755 514.542 242.053C514.03 243.894 513.379 245.707 512.991 247.574C512.049 252.259 513.433 254.996 517.752 257.088C521.671 258.986 525.912 259.856 530.157 260.745C532.87 261.321 535.646 261.797 538.639 262.365C536.414 265.457 534.375 268.357 532.235 271.171C531.362 272.308 530.924 273.301 531.669 274.651C531.99 275.234 531.99 275.992 532.285 276.583C533.06 278.188 533.022 279.514 531.397 280.604C529.971 281.567 530.196 282.896 530.463 284.416C533.177 299.775 536.204 315.068 539.682 330.273C539.821 330.872 539.988 331.463 540.158 332.128C541.399 331.765 542.217 330.829 543.167 330.118C552.397 323.21 561.805 316.518 570.12 308.469C575.548 303.2 580.448 297.479 584.464 291.026C584.937 290.253 585.321 289.944 584.204 289.093C582.386 287.709 582.324 285.251 581.824 283.14C581.634 282.367 582.425 282.328 582.902 282.208C585.162 281.636 587.414 280.956 589.709 280.627C591.116 280.422 591.457 279.738 591.732 278.567C592.775 274.109 593.934 269.675 594.993 265.222C595.303 263.915 595.768 263.343 597.319 263.517C602.781 264.128 608.274 264.135 613.775 264.155C617.651 264.155 620.632 262.697 623.206 259.972C627.083 255.859 629.254 250.991 629.409 245.382C629.525 240.886 626.695 237.925 623.292 235.497C618.419 232.018 612.79 230.239 607.099 228.662C602.807 227.453 598.452 226.474 594.054 225.732C592.589 225.492 592.116 224.885 592.139 223.354C592.205 216.91 592.139 210.465 592.043 204.025C592.043 202.919 592.263 202.479 593.488 202.479C614.127 202.544 633.417 207.311 650.804 218.742C654.32 221.029 657.555 223.72 660.441 226.76C666.469 233.189 667.531 241.064 666.62 249.368C665.318 261.259 660.565 271.995 655.068 282.448C649.474 293.071 642.826 303.034 635.732 312.706C634.615 314.183 633.827 315.881 633.421 317.685C626.591 347.681 612.658 373.849 590.779 395.656C577.257 409.144 561.433 419.192 543.698 426.293C542.449 426.796 541.531 426.603 540.434 426.023C525.54 418.14 514.988 406.086 506.986 391.555C499.733 378.376 494.845 364.246 490.104 350.054C487.619 342.605 485.192 335.136 482.669 327.702C482.203 326.337 482.359 326.013 483.898 325.672C501.497 321.806 513.875 311.612 520.857 294.966C521.481 293.477 521.186 292.832 519.845 291.946C512.867 287.358 506.731 281.779 500.664 276.096C493.194 269.095 486.026 261.812 479.641 253.794C477.858 251.537 476.24 249.154 474.799 246.665C473.528 244.493 473.66 242.517 474.78 240.322C477.753 234.48 481.948 229.644 486.797 225.341C498.241 215.22 511.712 208.807 526.11 204.079C527.687 203.561 528.606 204.079 529.025 205.652C529.412 207.036 529.757 208.428 530.188 209.797C530.575 211.041 530.048 211.594 528.878 211.76C527.125 211.374 525.734 209.893 523.497 209.994C524.927 211.529 527.245 211.231 528.075 213.048Z" fill="white"/>
<path d="M657.162 282.312C659.63 287.257 661.812 292.339 663.698 297.532C668.776 311.411 671.59 325.753 671.629 340.502C671.684 360.218 666.062 378.418 655.859 395.184C637.915 424.681 612.004 444.443 579.739 456.2C561.736 462.772 543.07 466.023 523.943 466.707C503.246 467.449 482.755 465.969 462.732 460.34C450.587 456.926 439.418 451.572 429.944 443.04C417.582 431.914 412.666 417.912 413.604 401.594C413.918 396.116 414.566 390.696 416.779 385.45C423.234 390.364 429.572 395.289 436.019 400.063C443.179 405.359 449.932 411.243 457.832 415.484C469.601 421.805 482.255 425.087 495.516 426.227C507.308 427.287 519.195 426.225 530.611 423.092C530.996 422.974 531.405 422.952 531.801 423.03C532.197 423.107 532.567 423.281 532.879 423.537C535.255 425.172 537.794 426.525 540.295 427.959C541.582 428.694 542.644 428.655 543.95 428.133C571.802 417.051 594.111 399.113 610.875 374.32C622.784 356.75 631.127 337.625 635.457 316.812C635.58 316.211 635.829 315.644 636.186 315.145C643.846 304.723 650.986 293.968 657.162 282.312Z" fill="white"/>
<path d="M529.876 421.464C517.615 424.781 504.823 425.685 492.215 424.124C478.353 422.446 465.172 418.619 453.543 410.737C446.107 405.711 439.064 400.078 431.884 394.674C426.403 390.55 420.96 386.371 415.556 382.137C414.517 381.321 414.048 381.565 413.308 382.419C410.995 385.171 408.508 387.772 405.861 390.205C407.248 386.192 408.598 382.164 410.032 378.167C414.831 364.783 420.064 351.589 427.279 339.268C428.938 336.438 428.992 336.465 432.132 337.057C443.82 339.268 455.004 343.242 466.219 347.004C466.959 347.251 467.673 347.843 468.545 347.479C468.545 346.868 468.01 346.687 467.646 346.428C458.342 339.809 448.445 334.246 437.715 330.268C432.834 328.459 431.776 328.919 428.868 333.311C422.456 342.995 417.626 353.487 413.362 364.238C406.258 382.142 400.33 400.488 395.615 419.16C395.278 420.486 394.898 420.815 393.452 420.606C382.856 419.093 372.243 417.664 361.613 416.319C360.272 416.145 359.881 415.735 360.117 414.386C363.714 394.024 368.758 374.046 375.895 354.616C380.773 341.27 386.401 328.209 392.75 315.493C395.495 310.015 398.739 304.854 403.488 300.841C410.326 295.043 418.401 293.338 427.135 293.825C435.974 294.316 443.704 297.822 451.019 302.469C460.706 308.617 469.655 315.852 477.69 324.033C480.593 326.99 481.845 330.52 483.067 334.2C488.137 349.497 492.758 364.953 499.22 379.752C504.872 392.702 511.842 404.81 522.092 414.792C524.547 417.173 527.147 419.402 529.876 421.464Z" fill="white"/>
<path d="M523.081 232.443C521.748 231.731 520.434 231.302 519.344 230.44C517.348 228.859 517.1 227.703 518.755 225.801C521.422 222.763 524.14 219.763 526.966 216.867C530.703 213.04 534.568 209.332 538.363 205.556C538.975 204.945 539.487 204.431 540.472 204.914C544.841 207.044 549.155 209.244 553.024 212.259C555.804 214.42 556.951 217.049 556.052 220.516C555.381 223.095 554.734 225.681 554.199 228.291C554.102 228.77 553.21 229.624 554.377 229.949C555.354 230.22 556.474 230.993 557.35 229.752C558.18 228.592 558.994 227.402 560.138 226.489C561.053 225.759 562.041 225.329 563.173 225.82C564.305 226.311 564.867 227.367 564.828 228.654C564.708 232.547 562.983 235.783 560.417 238.543C559.254 239.772 559.56 240.051 560.874 240.685C563.976 242.162 566.906 243.924 570.008 245.359C571.372 245.989 571.492 246.773 571.399 248.065C570.771 256.778 566.565 263.915 561.32 270.529C558.302 274.304 554.829 277.694 550.981 280.623C548.915 275.795 546.969 271.071 544.604 266.54C544.286 265.933 543.953 265.337 543.67 264.715C542.41 261.932 540.394 260.609 537.212 260.188C531.521 259.434 525.861 258.298 520.438 256.28C519.283 255.856 518.173 255.317 517.127 254.671C515.111 253.415 514.239 251.625 514.518 249.282C514.586 248.533 514.705 247.789 514.875 247.056C515.204 245.803 515.262 244.222 516.1 243.433C516.937 242.645 518.259 243.905 519.41 244.114C522.663 244.709 525.838 244.57 528.916 243.341C529.617 243.062 530.683 242.799 530.501 241.736C530.319 240.673 529.338 240.797 528.509 240.747C525.969 240.592 523.469 240.314 521.217 238.926C519.868 238.091 519.337 237.26 520.577 235.86C521.469 234.763 522.304 233.623 523.081 232.443Z" fill="white"/>
<path d="M371.381 362.01C369.211 368.686 367.214 375.2 365.45 381.784C362.454 392.956 360.155 404.275 358.085 415.649C357.806 417.172 358.24 417.648 359.709 417.821C364.14 418.343 368.552 418.981 373.277 419.619C371.242 422.275 369.346 424.753 367.462 427.223C367.21 427.548 366.993 427.807 366.47 427.505C362.64 425.321 359.86 427.204 357.554 430.072C352.782 436.045 346.699 440.51 340.648 445.026C339.83 445.64 339.225 445.764 338.272 445.312C332.844 442.722 327.385 440.18 321.893 437.688C320.753 437.17 320.548 436.776 321.3 435.659C337.582 411.445 353.841 387.219 370.079 362.98C370.335 362.613 370.47 362.064 371.381 362.01Z" fill="white"/>
<path d="M609.031 262.293C600.425 262.366 591.932 261.226 583.446 259.834C582.671 259.703 581.861 259.598 581.318 258.81C579.453 256.104 576.957 254.078 574.185 252.389C573.177 251.774 572.886 251.113 572.906 249.907C572.956 247.255 573.681 245.036 575.546 243.049C576.97 241.552 578.182 239.868 579.147 238.042C580.116 236.171 581.5 235.491 583.462 235.271C598.096 233.628 612.168 235.425 625.538 241.843C627.065 242.577 627.717 243.547 627.612 245.175C627.158 252.091 624.231 257.604 618.382 261.485C617.289 262.212 616.017 262.169 614.815 262.258C612.873 262.397 610.954 262.293 609.031 262.293Z" fill="white"/>
<path d="M323.425 461.019C331.597 453.922 340.241 447.531 348.84 441.087C352.957 437.994 356.205 434.128 359.694 430.444C360.4 429.706 361.09 428.952 362.121 428.592C364.059 427.927 365.652 428.53 366.137 430.463C367.145 434.488 368.63 433.834 371.355 432.752C373.739 431.805 375.751 430.537 377.271 428.252C379.441 424.989 383.085 423.86 386.733 422.956C387.478 422.77 387.66 423.342 387.896 423.837C389.908 428.175 391.924 432.504 393.323 437.093C393.762 438.516 393.622 439.328 391.974 439.757C389.129 440.499 386.311 441.373 383.539 442.351C382.43 442.737 381.903 442.622 381.601 441.485C381.407 440.712 381.31 439.834 380.205 439.714C379.725 439.642 379.235 439.722 378.802 439.941C378.37 440.161 378.017 440.51 377.794 440.94C375.856 444.199 372.809 445.799 369.304 446.986C354.775 451.904 340.292 456.952 325.452 460.903C324.844 461.062 324.204 461.29 323.425 461.019Z" fill="white"/>
<path d="M549.52 322.422C557.005 313.643 561.448 303.359 564.421 292.361C564.829 290.989 565.533 289.722 566.484 288.65C572.613 281.189 577.063 272.699 581.339 264.125C582.281 262.242 583.056 261.229 585.421 261.91C587.704 262.571 590.158 262.652 592.534 263.004C593.213 263.104 593.755 263.1 593.445 264.217C592.22 268.63 591.105 273.07 590.1 277.539C589.867 278.56 589.41 278.838 588.526 279.035C585.987 279.611 583.486 280.307 580.932 280.872C580.052 281.065 579.494 281.336 579.769 282.337C580.436 284.834 580.622 287.509 582.211 289.682C582.866 290.575 582.296 291.05 581.905 291.654C577.323 298.736 571.632 304.855 565.363 310.453C560.349 314.934 555.083 319.125 549.59 323.006C549.543 322.975 549.504 322.934 549.474 322.886C549.445 322.839 549.426 322.785 549.42 322.73C549.413 322.674 549.419 322.618 549.436 322.565C549.453 322.512 549.482 322.463 549.52 322.422Z" fill="white"/>
<path d="M330.063 453.094C327.772 455.027 325.574 456.828 323.415 458.684C322.531 459.457 321.721 460.284 320.907 461.116C320.666 461.317 320.498 461.592 320.428 461.897C320.358 462.203 320.39 462.523 320.519 462.809C320.821 463.439 321.461 463.292 321.98 463.269C324.961 463.153 327.768 462.19 330.582 461.363C336.361 459.672 342.115 457.899 347.845 456.044C349.295 455.572 349.679 455.955 349.71 457.296C349.756 459.415 349.857 461.529 349.923 463.648C349.965 465.047 349.477 465.731 347.872 465.658C344.922 465.527 341.96 465.554 339.006 465.658C337.696 465.701 337.386 465.271 337.409 464.023C337.444 462.09 335.859 461.046 334.533 462.283C330.237 466.311 324.899 465.851 319.759 465.998C307.466 466.346 295.174 466.737 282.873 466.443C280.629 466.389 278.392 466.215 275.585 466.056C279.319 464.123 282.742 462.871 286.141 461.583C292.15 459.306 298.159 457.068 304.229 454.911C308.892 453.304 313.344 451.146 317.491 448.482C318.683 447.675 319.953 446.99 321.283 446.437C323.733 445.455 325.686 446.704 325.88 449.22C326.159 452.707 326.159 452.707 330.063 453.094Z" fill="white"/>
<path d="M556.33 294.951C554.581 291.352 552.961 287.811 551.147 284.37C550.437 283.033 551.341 282.704 552.05 282.136C558.966 276.577 564.874 270.175 568.96 262.227C570.219 259.802 571.256 257.27 572.061 254.661C572.367 253.656 572.712 253.501 573.612 254.104C576.062 255.778 578.372 257.584 580.085 260.05C580.524 260.676 580.892 261.233 580.473 262.068C575.771 271.106 571.286 280.28 564.579 288.093C562.222 290.811 559.435 293.128 556.33 294.951Z" fill="white"/>
<path d="M544.293 294.48C545.138 294.55 545.069 293.533 545.921 293.494L540.072 322.639H539.684C538.021 314.335 536.342 306.039 534.707 297.731C533.877 293.51 533.156 289.265 532.322 285.043C532.012 283.439 531.935 282.005 533.513 280.93C534.869 280.018 535.195 278.804 534.358 277.277C532.807 274.455 533.253 272 535.494 269.584C537.296 267.651 538.684 265.331 540.386 263.012C542.514 265.799 543.77 268.88 545.231 271.853C545.619 272.669 545.01 272.978 544.642 273.399C543.165 275.108 541.661 276.797 540.157 278.487C539.649 279.055 539.265 279.515 539.591 280.439C541.223 285.121 542.747 289.841 544.293 294.48Z" fill="white"/>
<path d="M550.328 316.218C551.149 308.355 551.971 300.488 552.859 292.014C553.723 293.742 554.41 294.901 554.89 296.131C555.352 297.291 555.933 297.341 556.867 296.715C558.472 295.644 560.104 294.612 562.031 293.367C559.705 302.645 556.332 310.941 550.401 318.054C550.041 317.459 550.145 316.84 550.328 316.218Z" fill="white"/>
<path d="M585.428 220.154C585.944 213.068 582.102 208.742 576.655 204.973C580.977 204.247 585.415 204.668 589.522 206.195C590.262 206.469 590.204 207.119 590.212 207.741C590.254 210.749 590.212 213.76 590.398 216.76C590.491 218.245 589.909 218.852 588.591 219.161C587.607 219.389 586.653 219.764 585.428 220.154Z" fill="white"/>
<path d="M545.033 291.149C543.789 287.364 542.708 283.997 541.545 280.661C541.443 280.415 541.421 280.143 541.483 279.884C541.545 279.625 541.687 279.392 541.89 279.219C543.08 277.901 544.297 276.605 545.421 275.233C546.278 274.185 546.549 274.792 546.883 275.6C547.588 277.294 548.352 278.964 549.026 280.669C549.22 281.163 549.732 281.786 548.918 282.273C548.232 282.683 548.53 283.266 548.836 283.665C549.744 284.909 549.305 285.826 548.387 286.846C547.282 288.106 546.313 289.514 545.033 291.149Z" fill="#FEFEFE"/>
<path d="M385.725 421.347C380.929 422.727 377.239 424.602 374.781 428.557C373.599 430.455 371.219 430.985 369.125 431.588C368.292 431.827 367.528 430.227 368.175 429.341C370.393 426.311 372.723 423.361 375.002 420.373C375.421 419.828 375.998 419.986 376.514 420.04C379.425 420.431 382.333 420.86 385.725 421.347Z" fill="#FEFEFE"/>
<path d="M337.774 447.022C335.328 449.396 332.871 451.194 329.432 451.194C328.343 451.194 327.924 451.082 327.761 449.852C327.467 447.606 328.44 445.731 329.091 443.74C329.417 442.747 329.971 443.392 330.347 443.566C332.774 444.66 335.177 445.805 337.774 447.022Z" fill="#FEFEFE"/>
<path d="M528.074 213.04C526.764 212.329 525.496 211.494 523.992 211.227C523.166 211.076 522.732 210.577 522.957 209.789C523.213 208.896 523.976 209.321 524.484 209.476C526.097 209.963 527.764 210.388 528.919 211.768C528.636 212.193 528.365 212.619 528.074 213.04Z" fill="#2C2C2B"/>
<path d="M531.891 209.101C531.627 208.165 531.364 207.218 531.022 206.008L533.779 207.168L531.891 209.101Z" fill="#E5E4E4"/>
<path d="M550.326 316.219L550.407 318.055C550.361 318.291 550.171 318.673 550.039 318.283C549.928 317.94 549.896 317.576 549.946 317.218C549.995 316.861 550.125 316.519 550.326 316.219Z" fill="#C6C6C5"/>
<path d="M549.519 322.42L549.577 322.996C549.467 323.2 549.316 323.379 549.133 323.522C548.95 323.665 548.74 323.769 548.515 323.827C548.559 323.53 548.674 323.248 548.848 323.004C549.022 322.759 549.252 322.559 549.519 322.42Z" fill="#C6C5C5"/>
<path d="M151.632 336.456C151.276 362.744 151.245 388.186 151.206 413.623C151.206 424.726 150.993 435.825 150.962 446.928C150.962 448.447 150.574 448.93 149.024 448.888C144.759 448.779 140.495 448.818 136.231 448.888C135.103 448.888 134.715 448.621 134.68 447.415C134.42 437.143 134.087 426.875 133.769 416.607C133.361 403.533 132.947 390.459 132.529 377.384C132.126 364.789 131.715 352.196 131.296 339.603C130.906 327.557 130.518 315.51 130.133 303.461C130.124 303.051 130.088 302.641 130.024 302.236C129.931 301.663 129.734 301.107 129.016 301.192C128.299 301.277 128.14 301.803 128.164 302.398C128.245 304.451 128.377 306.5 128.439 308.552C128.792 320.127 129.113 331.697 129.474 343.268C129.869 355.933 130.28 368.597 130.707 381.262C131.125 394.197 131.54 407.135 131.951 420.075C132.315 431.286 132.668 442.497 133.114 453.708C133.176 455.39 132.785 455.885 130.986 455.815C121.17 455.429 111.347 455.201 101.524 454.895C99.7483 454.837 97.6472 455.193 96.2943 454.373C94.9414 453.554 95.488 451.219 95.2902 449.564C94.1893 440.389 93.1555 431.208 92.189 422.02C91.2224 412.896 90.3088 403.77 89.4482 394.642C88.6445 386.052 87.9092 377.456 87.2425 368.856C86.409 358.21 85.5717 347.563 84.8971 336.905C84.2885 327.271 83.8931 317.618 83.4202 307.976C83.0325 300.175 82.7262 292.378 82.6216 284.565C82.6216 282.902 83.2031 282.767 84.5289 283.018C97.4301 285.404 110.428 287.07 123.496 288.202C128.284 288.62 133.091 288.875 137.894 289.068C139.282 289.122 139.534 289.436 139.363 290.82C138.487 297.952 137.812 305.123 136.925 312.24C136.746 313.69 137.293 313.81 138.475 313.822C141.887 313.849 141.887 313.887 141.747 317.324C141.619 320.417 141.619 320.417 144.829 320.417C146.616 320.417 148.407 320.459 150.19 320.359C151.4 320.289 151.687 320.745 151.675 321.905C151.605 327.035 151.632 332.177 151.632 336.456Z" fill="#E20612"/>
<path d="M91.8834 216.328C99.0357 199.117 108.053 183.082 121.376 169.756C121.654 169.777 121.914 169.901 122.105 170.104C124.52 173.158 127.668 172.872 130.94 172.037C131.269 171.952 131.591 171.816 131.925 171.727C133.863 171.225 134.332 171.65 133.944 173.614C133.906 173.815 133.84 174.001 133.801 174.213C133.122 177.723 134.448 180.785 137.348 181.663C140.248 182.54 143.895 182.185 145.942 178.636C147.002 176.705 147.501 174.517 147.384 172.319C147.384 171.588 147.222 170.63 148.001 170.278C148.78 169.926 149.342 170.742 149.889 171.225C150.559 171.813 151.141 172.497 151.827 173.077C154.42 175.315 157.436 175.578 160.417 173.85C163.019 172.331 164.151 169.655 163.561 166.435C162.615 161.293 158.909 158.541 153.463 158.92C150.838 159.102 150.517 158.738 151.819 156.422C153.168 154.022 152.982 151.432 153.242 148.876C159.03 146.495 165.104 145.211 171.264 144.334C179.272 143.201 187.4 143.201 195.407 144.334C196.078 144.427 196.737 144.616 197.404 144.763C197.943 145.057 198.152 145.405 197.52 145.807C197.039 146.108 196.462 146.074 195.927 146.193C193.76 146.611 191.996 147.662 191.306 149.82C190.581 152.1 190.918 154.296 192.578 156.167C195.229 159.148 198.528 159.562 202.18 158.587C202.771 158.402 203.35 158.184 203.917 157.934C205.13 157.451 205.533 157.834 205.382 159.136C204.773 164.286 205.231 165.005 210.166 167.1C210.258 167.145 210.337 167.212 210.396 167.295C210.456 167.378 210.494 167.474 210.507 167.576C210.371 174.588 211.84 181.288 214.503 187.744C214.664 188.079 214.738 188.449 214.718 188.82C214.697 189.191 214.584 189.551 214.387 189.866C212.471 193.348 210.127 196.578 207.409 199.481C206.634 199.345 206.843 198.58 206.549 198.135C205.351 189.669 204.114 181.207 201.978 172.91C201.567 171.322 201.16 169.729 200.683 168.159C200.482 167.487 200.381 166.416 199.35 166.698C198.319 166.98 198.699 167.858 198.916 168.6C200.658 174.649 202.037 180.796 203.044 187.009C203.471 189.638 204.091 192.251 204.083 194.938C203.149 195.325 202.533 194.552 201.823 194.25C197.005 192.205 192.186 194.076 190.849 198.503C190.221 200.578 190.806 202.419 191.767 204.224C192.264 205.156 192.473 205.824 190.938 205.944C187.348 206.234 185.511 207.634 184.925 210.239C184.328 212.945 185.906 216.1 188.581 217.716C189.213 218.102 190.248 218.072 190.298 219.166L167.159 222.904C164.813 223.29 164.701 223.163 163.992 219.602C164.453 216.981 164.996 214.38 164.53 211.681C164.352 210.63 165.007 210.162 166.05 210.348C166.856 210.491 167.628 210.796 168.465 210.85C171.931 211.082 174.307 209.168 174.567 205.91C174.635 205.155 174.553 204.395 174.326 203.672C174.098 202.95 173.73 202.279 173.242 201.699C172.754 201.119 172.155 200.641 171.481 200.292C170.807 199.943 170.071 199.73 169.314 199.666C168.078 199.53 166.827 199.703 165.674 200.169C164.449 200.664 164.003 200.169 164.123 198.955C164.261 198.074 164.284 197.178 164.193 196.291C163.945 194.683 163.181 193.369 161.58 192.909C159.979 192.449 158.623 193.11 157.572 194.374C157.227 194.787 157.041 195.352 156.448 195.534C155.879 193.838 155.308 192.139 154.734 190.438L154.385 190.5C154.776 193.479 155.17 196.457 155.568 199.434C154.707 200.088 153.851 199.535 153.017 199.392C148.102 198.549 144.031 200.088 141.713 203.826C139.953 206.663 139.6 209.694 141.57 212.512C143.457 215.219 146.272 215.88 149.427 215.072C150.699 214.747 151.528 214.72 151.474 216.487C151.323 221.458 154.095 223.774 158.975 222.892C159.444 222.811 159.913 222.649 160.363 222.962C160.751 224.396 161.305 225.815 161.483 227.276C161.681 228.911 162.484 229.143 163.937 229.14C165.686 229.14 167.814 228.022 169.066 229.228C170.148 230.276 170.21 232.356 170.76 233.968C172.89 240.153 175.027 246.339 177.172 252.524C178.064 255.087 176.56 256.908 173.92 256.599C170.733 256.212 168.434 253.951 165.558 252.938C165.624 252.072 166.407 251.739 166.891 251.198C169.337 248.457 168.919 245.338 165.624 243.756C163.817 242.89 163.751 242.055 164.569 240.463C165.453 238.742 164.662 236.902 162.844 235.77C161.026 234.637 159.495 234.834 158.095 236.434C157.887 236.614 157.72 236.835 157.603 237.084C156.789 240.076 154.692 241.487 151.831 242.457C149.334 243.304 148.253 245.496 148.435 248.206C148.481 248.929 148.823 249.691 148.346 250.398C145.679 251.871 143.954 251.148 142.213 248.589C140.325 245.809 137.119 244.537 133.94 243.486C132.002 242.84 130.064 242.129 128.126 241.449C127.893 241.193 127.611 240.988 127.296 240.845C125.261 240.15 123.857 239.21 123.908 236.593C123.939 235.108 122.357 234.517 120.783 234.618C119.318 234.714 118.457 235.476 118.368 236.937C118.271 238.313 117.705 239.056 116.244 239.172C114.577 239.299 114.139 240.467 114.216 241.943C114.302 243.536 115.426 243.818 116.674 243.783C117.359 243.734 118.046 243.854 118.673 244.133C119.3 244.412 119.848 244.842 120.268 245.384C121.873 247.317 124.043 246.93 126.168 246.636L127.808 247.622C123.441 249.294 118.834 250.261 114.162 250.487C108.347 250.788 102.501 250.703 96.7485 249.432C95.5545 249.165 94.19 249.014 93.3332 250.205C92.5308 251.303 93.2169 252.296 93.9186 253.166C94.4574 253.831 93.8798 253.97 93.5038 254.183C92.651 254.67 92.1935 255.922 92.7285 256.197C94.9614 257.357 94.5776 260.6 97.1633 261.335C97.5199 261.431 98.0161 261.617 98.0084 262.108C97.9657 264.563 99.9234 265.247 101.614 266.082C104.145 267.334 106.909 267.918 109.615 268.668C110.003 269.155 109.863 269.696 109.801 270.242C109.39 273.98 108.929 274.212 105.672 272.306C104.97 271.88 104.234 271.512 103.47 271.208C100.497 270.098 97.7991 271.135 96.3996 273.96C95.7082 275.3 95.303 276.768 95.2095 278.271C95.1746 278.994 95.3297 279.817 94.5699 280.316C88.879 279.427 83.1921 278.507 77.5129 277.668C75.7181 277.405 76.0437 276.222 76.1677 275.082C77.6408 261.652 80.0792 248.43 84.6962 235.677C84.9947 234.846 85.3165 234.022 85.6305 233.195C87.654 232.75 89.7164 233.322 91.7516 232.936C92.4532 232.804 92.8835 233.322 93.0425 234.003C93.0967 234.271 93.1355 234.542 93.1588 234.815C93.6007 238.793 95.0428 240.586 98.0316 240.876C99.757 241.04 101.486 240.606 102.928 239.647C104.37 238.688 105.437 237.263 105.948 235.611C106.512 233.698 106.574 231.672 106.13 229.727C105.742 227.817 106.045 227.613 107.847 228.231C109.092 228.656 110.324 229.062 111.669 228.799C114.829 228.177 116.787 225.382 116.221 222.285C115.639 219.119 112.344 216.912 109.107 217.492C108.836 217.542 108.576 217.631 108.308 217.704C105.866 218.385 105.727 218.269 105.924 215.729C106.184 212.4 104.463 210.382 101.757 210.842C99.6753 211.198 98.4542 212.814 98.6286 214.99C98.679 215.609 98.8884 216.193 98.993 216.804C99.1597 217.755 98.8302 218.404 97.8029 218.072C95.8375 217.364 93.7054 217.383 91.8834 216.328Z" fill="#FF8025"/>
<path d="M312.785 238.533C311.235 240.509 309.223 241.301 307.098 241.792C301.435 243.091 295.662 243.381 289.894 243.18C287.107 243.079 284.614 243.756 282.102 244.688C261.308 252.4 240.437 259.896 219.061 265.876C211.467 268.003 203.791 269.847 195.879 270.4C194.992 270.461 194.1 270.504 193.208 270.539C188.851 270.709 186.029 269.016 184.153 264.771C178.512 251.99 174.24 238.757 170.057 225.474C169.767 224.542 169.755 224.202 170.875 224.028C179.892 222.629 188.901 221.18 197.903 219.683C199.167 219.474 199.008 220.247 199.112 220.99C200.031 227.701 201.113 234.377 203.237 240.837C203.388 241.293 203.528 241.753 203.702 242.198C205.784 247.51 207.001 248.182 212.68 247.44C225.14 245.809 237.603 244.231 250.062 242.615C252.035 242.36 253.993 241.966 255.966 241.711C256.98 241.627 257.956 241.289 258.803 240.728C259.65 240.167 260.342 239.401 260.812 238.502C262.533 235.556 265.216 233.477 268.476 232.236C271.848 230.9 275.296 229.767 278.803 228.841C279.191 228.737 279.753 228.296 280.017 228.973C280.222 229.499 279.819 229.893 279.4 230.133C277.439 231.37 275.628 232.866 273.407 233.666C272.349 234.053 272.17 234.203 273.062 235.355C275.19 238.123 277.873 238.502 281.028 238.32C285.638 238.05 290.181 239.121 294.782 239.287C299.896 239.469 304.931 238.796 309.99 238.363C310.924 238.223 311.876 238.281 312.785 238.533Z" fill="white"/>
<path d="M147.06 252.61C149.719 251.674 152.347 251.659 155.026 252.061C160.155 252.834 165.043 254.26 169.532 256.935C171.277 257.979 172.079 259.421 172.285 261.428C174.019 278.654 175.781 295.878 177.572 313.099C177.638 313.71 177.638 314.332 177.685 314.947C177.944 318.426 177.944 318.391 174.328 318.426C164.574 318.507 154.821 318.585 145.067 318.739C143.71 318.739 143.323 318.426 143.427 317.05C144.931 296.919 146.408 276.789 147.858 256.661C148.025 255.26 147.746 253.843 147.06 252.61Z" fill="white"/>
<path d="M276.269 156.641C279.118 162.262 283.712 164.141 290.004 162.699C287.251 171.274 284.305 179.45 278.452 186.239C269.977 196.073 258.511 191.086 254.076 183.614C253.475 182.601 252.959 182.346 251.839 182.454C246.024 183.011 240.209 183.447 234.394 184C233.352 184.097 232.844 183.931 232.421 182.868C230.413 177.749 228.773 172.542 228.134 167.068C227.835 164.528 227.967 162.015 229.083 159.63C229.704 158.311 230.634 157.662 232.123 157.65C235.146 157.623 238.17 157.473 241.19 157.407C243.431 157.357 245.551 159.34 245.745 161.605C246.016 164.88 246.528 168.131 247.276 171.332C247.451 172.074 247.365 173.265 248.579 172.975C249.633 172.735 249.16 171.73 249.009 171.042C248.207 167.503 247.676 163.909 247.42 160.291C247.362 159.436 246.908 158.922 246.365 158.389C244.252 156.317 242.726 153.724 241.942 150.874C241.644 149.795 241.206 148.678 242.353 147.889C243.582 147.046 244.555 147.862 245.454 148.624C245.819 148.925 246.16 149.261 246.765 149.814C246.861 148.554 246.943 147.526 247.02 146.49C250.021 147.375 250.063 147.379 250.575 144.236C250.978 141.877 251.754 139.598 252.874 137.482C253.552 136.164 254.494 135.87 255.878 136.071C262.127 136.976 268.388 137.83 274.645 138.681C280.498 139.477 286.348 140.443 292.279 140.173C294.326 140.08 294.605 140.903 294.311 142.535C294.167 143.343 294.063 144.158 293.923 145.183C289.977 141.889 285.662 140.93 281.037 143.412C278.114 144.959 276.184 147.375 275.858 150.816C275.513 153.413 273.92 155.721 274.37 158.547C274.885 161.922 274.73 165.367 274.982 168.773C275.222 172.039 275.234 172.163 272.063 172.476C271.877 172.495 271.656 172.476 271.559 172.7C271.598 172.735 271.637 172.805 271.679 172.809C275.695 173.253 275.703 173.253 275.684 169.287C275.684 166.005 275.044 162.749 275.273 159.456C275.556 158.501 274.781 157.171 276.269 156.641Z" fill="white"/>
<path d="M153.237 148.854C154.543 152.383 152.954 155.391 151.38 158.568C153.346 158.196 155.37 158.238 157.319 158.692C159.616 159.237 161.613 160.647 162.893 162.625C164.173 164.604 164.637 167 164.188 169.312C163.972 170.51 163.47 171.64 162.724 172.604C161.977 173.568 161.009 174.339 159.901 174.851C158.793 175.364 157.578 175.602 156.358 175.547C155.138 175.492 153.949 175.145 152.892 174.535C151.054 173.518 149.752 171.91 147.922 170.035C147.922 171.774 148.011 173.1 147.922 174.407C147.561 178.814 145.065 181.887 141.371 182.579C135.908 183.608 131.877 179.293 133.292 173.935C133.462 173.297 133.679 172.667 133.935 171.794C129.357 172.849 124.631 175.296 121.395 169.768C130.423 160.412 140.801 153.079 153.237 148.854Z" fill="white"/>
<path d="M210.721 219.121C214.749 216.052 218.742 212.936 222.021 209.027C225.475 204.887 228.371 200.437 230.046 195.292C230.747 193.131 232.438 194.372 233.659 194.059C234.671 193.8 235.233 194.283 235.547 195.369C237.256 201.269 237.059 207.261 236.5 213.257C236.283 215.553 236.206 217.896 235.403 220.115C233.853 220.865 232.775 220.238 231.914 218.974C231.682 218.638 231.5 218.267 231.282 217.915C228.712 213.721 224.51 214.88 222.401 217.579C220.812 219.612 221.331 221.982 223.708 222.921C224.995 223.432 225.495 223.938 224.793 225.299C224.518 225.82 224.374 226.4 224.374 226.988C224.374 227.577 224.518 228.157 224.793 228.678C225.099 229.337 225.587 229.896 226.2 230.289C226.814 230.682 227.526 230.893 228.255 230.897C229.926 230.939 230.872 229.926 231.484 228.484C231.969 227.325 232.352 225.859 234.004 227.417C233.298 231.032 232.174 234.538 231.162 238.076C230.864 239.127 230.41 239.235 229.437 238.938C220.909 236.275 212.361 233.638 203.794 231.024C201.514 230.324 202.212 228.372 201.976 226.81C202.929 226.254 203.98 226.513 204.988 226.462C207.93 226.327 209.64 224.823 210.128 221.912C210.287 220.973 210.31 220.006 210.721 219.121Z" fill="#FF8025"/>
<path d="M95.1512 251.22C107.762 253.362 120.07 252.859 132.157 248.092C129.61 246.295 126.703 245.027 123.997 242.541C125.024 242.684 125.586 242.711 126.117 242.846C129.432 243.698 132.685 244.777 135.851 246.074C138.879 247.304 141.12 249.488 142.872 252.198C143.24 252.766 143.422 253.652 144.108 253.768C146.543 254.181 146.066 255.863 145.93 257.487C145.752 259.667 145.593 261.855 145.543 264.059C145.516 264.986 145.178 265.099 144.442 264.832C144.308 264.789 144.179 264.734 144.054 264.669C139.875 262.257 135.692 262.814 131.285 264.194C126.652 265.648 121.888 266.784 117.011 267.151C111.475 267.569 106.254 266.305 101.311 263.846C100.923 263.657 100.431 263.498 100.292 262.648C103.711 264.163 107.184 264.812 110.735 265.079C112.448 265.207 114.166 265.284 115.879 265.35C116.48 265.373 117.263 265.466 117.333 264.608C117.422 263.587 116.596 263.687 115.899 263.645C111.452 263.374 106.982 263.313 102.718 261.642C100.896 260.923 99.0937 260.158 97.136 259.354C97.4333 259.212 97.7575 259.135 98.087 259.128C98.4165 259.12 98.7437 259.183 99.0471 259.311C104.505 261.082 110.181 261.654 115.833 262.319C116.488 262.396 117.36 262.597 117.519 261.65C117.705 260.525 116.72 260.56 116.011 260.49C110.25 260.015 104.556 259.195 99.0316 257.444C97.6244 256.996 96.1668 256.617 94.6162 255.542C95.8451 255.302 96.7522 255.283 97.6322 255.565C103.749 257.545 110.068 257.545 116.391 257.498C117.116 257.498 118.132 257.603 118.019 256.489C117.93 255.585 117.034 255.782 116.356 255.793C111.053 255.886 105.773 255.654 100.571 254.56C98.454 254.112 96.4382 253.338 95.1512 251.22Z" fill="white"/>
<path d="M91.8852 216.336C94.227 216.381 96.5351 216.901 98.6692 217.863C98.1653 215.609 97.2465 213.394 99.0801 211.446C99.5051 210.994 100.018 210.633 100.587 210.384C101.156 210.136 101.77 210.005 102.391 210C105.449 209.888 106.605 212.173 106.325 217.705C110.504 216.158 114.001 216.889 115.842 219.7C116.615 220.886 116.977 222.293 116.872 223.704C116.767 225.115 116.201 226.453 115.261 227.512C113.144 229.832 110.132 230.01 106.306 227.953C106.907 230.362 107.322 232.685 106.694 235.093C105.74 238.654 102.728 241.279 99.2546 241.461C95.1144 241.658 92.5248 239.141 92.552 234.966C92.552 234.371 92.8505 233.752 92.4396 233.103C90.2564 233.981 87.8185 233.991 85.6284 233.13C87.3295 227.397 89.4199 221.786 91.8852 216.336Z" fill="white"/>
<path d="M190.325 219.093C187.414 217.992 185.254 216.14 184.436 213.032C183.273 208.621 186.603 205.049 191.802 205.3C190.751 203.68 190.007 202.045 190.05 200.147C190.17 194.518 195.659 191.236 201.404 193.42C202.339 193.841 203.245 194.322 204.118 194.858C205.226 200.777 205.552 206.773 205.781 212.773C205.924 216.546 205.87 216.592 202.075 217.242C198.144 217.934 194.221 218.486 190.325 219.093Z" fill="white"/>
<path d="M215.052 268.827C213.91 272.166 212.46 275.393 210.721 278.465C209.845 280.011 208.267 280.34 206.674 280.51C200.774 281.136 195.044 279.895 189.365 278.643C185.353 277.765 181.426 276.509 177.414 275.643C175.782 275.291 175.386 274.483 175.247 273.033C174.774 268.155 174.216 263.284 173.677 258.27C175.41 258.471 177.166 258.679 178.918 258.876C179.751 258.973 179.961 259.592 180.248 260.249C181.17 262.379 182.291 264.428 183.101 266.597C184.69 270.849 188.001 272.183 192.168 272.272C198.184 272.395 204.042 271.247 209.884 270.01C211.477 269.674 213.063 269.283 215.052 268.827Z" fill="white"/>
<path d="M94.5755 280.247C94.3453 278.059 94.7659 275.851 95.785 273.899C97.5876 270.176 100.511 269.136 104.282 270.806C105.794 271.475 107.062 272.527 108.566 273.536L109.624 268.584C115.195 269.484 120.638 268.615 126.057 267.424C127.674 269.484 127.174 271.649 126.259 273.756C125.208 276.172 123.181 277.668 120.832 278.836C123.518 279.339 126.015 279.996 128.077 281.704C128.903 282.389 129.856 283.061 129.593 284.384C117.882 283.417 106.205 282.149 94.5755 280.247Z" fill="white"/>
<path d="M210.483 167.508C205.351 166.859 203.676 163.986 204.975 157.94C202.761 159.05 200.509 159.73 198.047 159.517C194.845 159.247 192.477 157.7 191.035 154.878C188.794 150.491 191.422 145.925 196.345 145.492C196.698 145.461 198.036 146.265 197.381 144.719C204.587 145.492 211.379 147.761 217.985 150.622C219.419 151.24 220.776 152.045 222.167 152.768C222.218 152.961 222.195 153.166 222.103 153.343C222.01 153.52 221.855 153.657 221.667 153.726C220.051 154.005 218.442 154.441 216.818 154.519C214.465 154.627 213.216 155.976 212.387 157.909C211.092 160.967 210.832 164.245 210.483 167.508Z" fill="white"/>
<path d="M229.301 180.015C230.076 181.89 230.851 183.765 231.665 185.814C226.959 186.398 222.474 186.951 217.993 187.519C217.024 187.643 216.353 187.519 215.934 186.417C212.914 178.422 211.224 170.293 213.12 161.745C213.376 160.397 213.831 159.095 214.469 157.879C214.638 157.504 214.897 157.177 215.223 156.925C215.549 156.673 215.931 156.504 216.337 156.433C220.474 155.803 224.602 155.115 228.812 155.455C229.254 155.539 229.689 155.654 230.115 155.799C226.723 158.258 226.378 161.71 226.172 165.213C225.75 165.8 225.098 165.723 224.498 165.808C222.416 166.106 221.722 166.69 222.013 168.75C222.338 171.07 221.803 172.941 220.578 174.905C219.067 177.332 219.873 179.822 222.307 181.477C224.521 182.98 226.781 182.636 228.673 180.522C228.842 180.308 229.056 180.135 229.301 180.015Z" fill="#FF8025"/>
<path d="M160.377 222.899C154.256 225.218 150.112 221.801 151.011 215.07C149.341 215.912 147.433 216.159 145.603 215.77C140.881 214.726 138.579 210.172 140.3 205.359C142.099 200.333 147.216 197.651 152.992 198.741C153.864 198.907 154.717 199.162 155.581 199.371C157.179 207.216 158.777 215.059 160.377 222.899Z" fill="white"/>
<path d="M129.608 284.382C128.298 281.533 125.611 280.632 122.929 279.778C121.831 279.494 120.72 279.267 119.599 279.098C124.251 276.45 127.968 273.395 126.057 267.423C129.631 266.495 133.217 265.606 136.776 264.62C138.714 264.079 140.183 265.351 141.846 265.83C142.346 265.973 142.067 266.688 142.017 267.144C141.389 272.642 140.718 278.135 140.148 283.64C140.036 284.734 139.838 285.225 138.598 285.098C135.605 284.788 132.605 284.614 129.608 284.382Z" fill="#FF8025"/>
<path d="M156.458 195.475C157.311 193.055 159.467 191.683 161.63 192.185C164.266 192.804 165.274 195.456 164.541 200.114C165.968 199.148 167.708 198.753 169.414 199.008C171.136 199.224 172.716 200.071 173.845 201.386C175.469 203.245 175.644 206.412 174.302 208.704C172.728 211.391 170.701 211.797 164.871 210.637C165.417 213.73 165.789 216.764 163.998 219.559C161.63 213.123 159.862 206.497 157.827 199.956C157.373 198.463 156.916 196.967 156.458 195.475Z" fill="white"/>
<path d="M148.355 250.324C146.975 245.758 148.743 242.461 153.449 241.046C154.849 240.632 155.954 240.188 156.213 238.576C156.363 238.05 156.597 237.553 156.907 237.103C158.458 234.327 160.497 233.577 162.776 234.945C165.629 236.658 166.234 238.908 164.567 241.622C164.428 241.85 164.288 242.082 164.098 242.395C166.405 243.246 168.75 244.111 168.94 246.988C169.126 249.636 167.808 251.53 165.567 252.844C161.986 251.758 158.438 250.571 154.686 250.173C152.578 249.964 150.451 250.015 148.355 250.324Z" fill="white"/>
<path d="M277.33 152.57C277.335 150.824 277.86 149.119 278.839 147.673C279.819 146.226 281.208 145.103 282.83 144.447C284.452 143.791 286.233 143.632 287.946 143.989C289.659 144.346 291.227 145.204 292.449 146.454C293.197 147.227 293.659 147.931 293.329 149.16C292.589 151.928 292.135 154.773 291.457 157.56C290.751 160.491 289.367 161.477 286.243 161.5C281.424 161.546 277.284 157.394 277.33 152.57Z" fill="white"/>
<path d="M202.854 232.602C209.921 234.782 216.635 236.873 223.368 238.903C224.248 239.166 224.469 239.56 224.229 240.368C223.942 241.346 223.624 242.324 223.407 243.325C223.213 244.218 222.671 244.516 221.825 244.609C217.867 245.03 213.906 245.436 209.963 245.954C208.347 246.163 207.377 245.568 206.633 244.203C204.707 240.685 203.896 236.831 202.854 232.602Z" fill="white"/>
<path d="M234.009 227.431C233.152 226.952 232.388 226.576 232.187 228.084C231.946 229.886 230.954 231.146 229.085 231.413C227.217 231.679 225.492 231.069 224.433 229.406C223.942 228.697 223.689 227.852 223.708 226.99C223.728 226.128 224.019 225.295 224.542 224.609C224.651 224.45 224.728 224.265 224.879 223.979C222.79 223.453 220.859 222.819 220.898 220.155C220.929 218.048 222.418 215.992 224.701 215.041C226.984 214.09 229.051 214.554 230.694 216.313C231.104 216.678 231.435 217.122 231.667 217.619C232.272 219.444 233.574 220.14 235.385 220.128C235.319 222.633 234.633 225.026 234.009 227.431Z" fill="white"/>
<path d="M207.428 208.417C207.428 207.644 207.75 207.204 208.456 206.751C213.639 203.416 218.633 199.797 223.415 195.911C224.9 194.717 226.389 194.11 228.455 194.431C226.024 201.365 221.77 207.521 216.139 212.256C215.55 211.959 215.6 211.359 215.464 210.849C214.716 208.031 212.817 207.041 210.037 207.88C209.192 208.112 208.487 209.164 207.428 208.417Z" fill="#FF8025"/>
<path d="M229.297 180.019C228.305 182.504 226.684 183.432 224.188 182.937C221.327 182.373 219.09 179.845 219.206 177.258C219.234 176.659 219.261 175.917 219.594 175.492C221.443 173.172 221.645 170.625 221.428 167.779C221.257 165.541 222.761 164.88 226.161 165.228C226.475 170.312 227.929 175.155 229.297 180.019Z" fill="white"/>
<path d="M207.247 205.422C206.619 203.632 207.181 202.534 208.174 201.432C211.209 198.069 213.965 194.474 216.062 190.453C216.194 190.145 216.409 189.88 216.682 189.686C216.956 189.492 217.278 189.378 217.613 189.355C219.319 189.166 221.024 188.969 222.718 188.725C223.626 188.59 223.8 188.911 223.909 189.792C224.203 192.181 223.521 193.855 221.404 195.27C217.423 197.941 213.651 200.91 209.775 203.744C209.015 204.297 208.205 204.803 207.247 205.422Z" fill="white"/>
<path d="M126.179 246.564C123.624 248.006 121.585 247.723 119.659 245.423C119.388 245.047 119.024 244.747 118.603 244.553C118.182 244.359 117.718 244.276 117.255 244.314C114.58 244.352 113.557 243.633 113.479 241.882C113.382 239.678 114.344 238.666 116.968 238.445C117.654 238.387 117.681 238.151 117.743 237.606C118.158 234.606 119.422 233.532 121.911 233.984C124.186 234.398 125.183 236.385 124.531 239.265C125.931 239.624 127.633 239.501 128.137 241.376C126.586 241.109 125.035 240.8 123.485 240.602C122.709 240.51 121.934 240.656 121.577 241.495C121.275 242.234 121.69 242.891 122.19 243.332C123.481 244.461 124.845 245.493 126.179 246.564Z" fill="#FFFFFE"/>
<path d="M235.872 192.082C233 192.209 230.123 192.329 227.247 192.468C226.258 192.518 225.34 192.449 225.626 191.127C225.851 190.083 224.661 188.378 227.014 188.235C228.991 188.111 230.953 187.736 232.922 187.485C233.589 187.4 234.287 187.57 234.043 186.368C233.833 185.339 234.919 185.827 235.361 185.761C238.652 185.266 238.656 185.297 239.318 188.521C240.032 191.977 240.032 191.977 235.872 192.082Z" fill="#FF8025"/>
<path d="M207.427 208.407C208.117 208.473 208.536 207.932 209.075 207.665C213.009 205.732 216.239 207.8 216.138 212.227C215.043 213.534 213.732 214.645 212.261 215.513C211.486 216.046 209.912 215.459 209.962 217.144C209.492 217.702 208.876 218.119 208.183 218.35C208.151 218.397 208.107 218.434 208.056 218.458C208.004 218.482 207.947 218.491 207.891 218.485C207.834 218.478 207.781 218.457 207.736 218.422C207.691 218.387 207.657 218.341 207.636 218.288C207.985 214.987 207.233 211.705 207.427 208.407Z" fill="#FFFEFE"/>
<path d="M275.831 159.59C276.01 163.75 276.145 167.913 276.382 172.069C276.459 173.426 276.134 173.902 274.688 173.616C273.56 173.403 272.362 173.496 271.199 173.496C270.505 173.496 269.931 173.364 269.947 172.541C269.962 171.717 270.586 171.86 271.129 171.768C272.273 171.551 273.843 172.579 274.474 171.381C274.94 170.5 274.451 169.12 274.393 167.96C274.176 163.669 273.916 159.374 273.788 155.079C273.765 154.305 272.982 152.558 275.195 153.165C275.583 153.273 275.486 152.69 275.513 152.392C275.556 151.851 275.513 151.294 275.858 150.826V154.63C275.746 156.281 275.494 157.936 275.831 159.59Z" fill="#252524"/>
<path d="M210.72 219.131C211.748 224.736 207.937 228.088 201.979 226.82C201.165 225.595 201.51 224.709 202.727 223.986C205.402 222.39 208.057 220.755 210.72 219.131Z" fill="#FEFDFD"/>
<path d="M207.637 218.293L208.184 218.355C205.892 219.819 203.597 221.284 201.299 222.75C201.256 222.669 201.217 222.585 201.183 222.499C200.407 219.275 200.384 219.267 203.567 218.815C204.92 218.625 206.28 218.467 207.637 218.293Z" fill="#F9F9F9"/>
<path d="M293.639 157.37C293.492 155.051 294.485 153.454 294.651 151.676C295.244 153.601 294.775 155.31 293.639 157.37Z" fill="#E3E2E3"/>
<path d="M209.96 217.17L208.991 215.539H212.259C211.611 216.232 210.829 216.787 209.96 217.17Z" fill="#FF8025"/>
<path d="M275.83 159.591C275.586 157.936 275 156.278 275.861 154.627L276.268 156.641C275.496 157.534 276.256 158.647 275.83 159.591Z" fill="#CDCCCC"/>
<path d="M221.682 153.72L222.182 152.762C222.678 152.94 223.236 153.025 223.535 153.72H221.682Z" fill="#C66725"/>
<path d="M206.556 198.068L207.417 199.414C207.254 199.619 207.126 199.939 206.921 199.997C206.556 200.106 206.533 199.754 206.533 199.491C206.529 199.019 206.549 198.544 206.556 198.068Z" fill="#EBE3DC"/>
<path d="M713.243 278.423C712.039 267.245 711.491 256.006 711.603 244.763C711.751 234.901 712.185 225.047 715.092 215.502C715.69 213.471 716.519 211.513 717.562 209.669C721.597 202.602 727.904 203.286 732.94 207.566C736.665 210.736 738.026 215.274 739.03 219.852C740.829 228.02 740.926 236.305 740.418 244.593C738.538 275.342 731.544 305.152 723.593 334.78C723.489 335.167 723.411 335.58 723.272 335.963C723.093 336.45 722.981 336.895 723.597 337.123C724.125 337.332 724.601 337.479 725.008 336.829C725.856 335.479 727.149 334.466 728.664 333.964C731.323 333.044 733.316 333.964 734.122 336.671C735.134 339.999 734.595 343.328 733.824 346.602C729.699 364.118 723.803 381.105 718.197 398.177C716.131 404.474 713.906 410.717 711.828 417.007C711.44 418.221 710.855 418.554 709.56 418.747C705.137 419.423 702.823 417.815 701.032 413.567C696.504 402.785 691.662 392.15 689.27 380.633C688.208 375.523 687.518 370.354 689.014 365.17C690.67 359.437 695.434 356.506 701.346 357.678C703.013 358.006 703.284 357.786 702.896 356.054C699.093 338.994 696.043 321.814 695.919 304.251C695.88 297.312 696.578 290.446 699.361 283.959C700.171 282.065 701.074 280.229 702.532 278.717C705.389 275.76 708.506 275.431 711.941 277.731C712.32 278.037 712.619 278.466 713.243 278.423Z" fill="white"/>
<path d="M596.752 70.38C594.12 69.6725 591.713 69.0424 589.329 68.3852C565.781 61.9214 541.82 57.0586 517.612 53.8302C496.717 50.9891 475.683 49.2868 454.602 48.7311C453.028 48.6924 451.423 48.3058 449.888 48.503C446.058 48.994 443.085 47.3432 440.003 45.4103C417.57 31.1426 395.097 16.933 372.581 2.7813C372.295 2.5996 372.019 2.39471 371.608 2.13183C372.353 1.64859 373.105 1.85735 373.791 1.85735C390.966 1.8619 408.128 2.81177 425.198 4.70264C453.02 7.69482 480.393 12.8712 507.106 21.2524C534.413 29.8231 560.216 41.4516 583.304 58.6084C587.437 61.7011 591.407 64.9562 595.275 68.3543C595.814 68.8066 596.528 69.1893 596.752 70.38Z" fill="white"/>
<path d="M436.099 48.1147C422.508 48.1959 408.963 48.3738 395.438 48.8879C381.238 49.4291 367.046 50.1405 352.869 51.1417C340.197 52.0347 327.52 52.8698 314.848 53.7551C302.109 54.6481 289.379 55.6532 276.636 56.4612C264.917 57.1957 253.187 57.7678 241.46 58.3245C233.937 58.6853 226.398 58.8941 218.844 58.9508C251.578 41.6085 286.529 32.1912 323.434 29.9567C362.332 27.6295 399.939 33.5404 436.099 48.1147Z" fill="white"/>
<path d="M726.224 420.553C723.668 433.913 721.119 447.238 718.576 460.526C717.94 463.831 717.894 463.82 714.509 463.82C709.625 463.82 704.74 463.731 699.86 463.87C698.166 463.92 697.662 463.298 697.379 461.794C694.82 448.089 692.204 434.396 689.575 420.553H726.224Z" fill="white"/>
<path d="M50.3079 86.89C49.331 86.8282 48.6952 86.3218 48.6448 85.2702C48.6095 85.0494 48.6227 84.8235 48.6834 84.6082C48.7441 84.3928 48.8509 84.1932 48.9965 84.0231C49.142 83.8529 49.3229 83.7163 49.5265 83.6226C49.7302 83.5289 49.9518 83.4803 50.1761 83.4803C50.4154 83.4471 50.6591 83.4675 50.8895 83.5398C51.12 83.6122 51.3314 83.7348 51.5084 83.8988C51.6854 84.0627 51.8236 84.2639 51.913 84.4878C52.0024 84.7116 52.0407 84.9525 52.0252 85.1929C52.0407 86.1517 51.405 86.7973 50.3079 86.89Z" fill="#2F2F2E"/>
<path d="M576.93 381.66C576.895 383.14 575.899 382.673 575.178 382.464C568.816 380.616 562.773 378.065 557.512 373.959C554.935 372.013 552.707 369.646 550.922 366.958C550.659 366.548 549.906 366.065 550.922 365.489C551.678 365.06 552.015 365.319 552.411 365.899C557.958 374.017 566.281 377.821 575.283 380.589C576.926 381.107 576.934 381.088 576.93 381.66Z" fill="#252524"/>
<path d="M534.547 214.125C537.446 214.38 539.299 215.818 540.831 217.763C541.067 218.064 541.606 218.489 540.831 218.888C540.338 219.147 539.869 219.526 539.404 218.888C538.171 217.214 536.601 216.1 534.481 215.888C533.636 215.803 533.787 215.176 533.806 214.658C533.845 213.874 534.399 214.079 534.547 214.125Z" fill="#282827"/>
<path d="M534.491 219.904C534.418 221.07 534.031 222.194 533.371 223.159C533.041 223.631 532.576 224.013 532.002 223.793C531.429 223.573 531.371 222.958 531.409 222.397C531.508 221.244 531.921 220.14 532.603 219.204C532.72 218.996 532.897 218.829 533.112 218.725C533.327 218.621 533.569 218.586 533.805 218.624C534.526 218.767 534.363 219.448 534.491 219.904Z" fill="#292928"/>
<path d="M175.701 184.574C173.375 184.099 171.608 183.294 171.499 180.956C171.387 178.474 172.922 176.904 174.957 175.81C176.992 174.716 179.485 174.724 180.807 176.498C182.633 178.949 184.613 180.789 187.649 181.59C188.913 181.922 189.436 183.294 189.017 184.651C188.521 186.252 187.831 187.744 185.831 187.964C184.916 188.061 184.09 187.763 183.183 187.404C182.683 189.43 182.319 191.598 179.768 191.973C177.872 192.252 176.19 191.691 175.116 190.021C173.949 188.22 174.046 186.418 175.701 184.574Z" fill="white"/>
<path d="M122.961 199.269C124.969 200.383 126.136 201.778 125.469 204.024C125.082 205.381 124.19 206.344 122.682 206.344C120.453 206.344 119.701 204.797 119.294 202.911C116.778 205.358 115.154 205.845 113.681 204.624C112.417 203.576 112.498 202.145 113.983 200.058C112.583 199.486 110.785 199.285 110.668 197.302C110.56 195.43 111.533 194.023 112.994 192.976C114.456 191.928 116.348 192.09 117.421 193.482C118.162 194.445 118.604 194.375 119.48 193.753C119.994 193.401 120.591 193.19 121.212 193.141C121.833 193.092 122.457 193.207 123.019 193.474C125.934 194.696 125.942 196.938 122.961 199.269Z" fill="white"/>
<path d="M176.008 157.253C172.949 155.355 172.213 153.944 173.159 152.127C173.934 150.631 175.353 150.418 177.593 151.466C177.675 151.377 177.814 151.292 177.83 151.192C178.016 149.676 178.144 148.118 180.032 147.666C181.559 147.303 184.141 148.439 185.029 149.908C185.916 151.377 185.773 152.924 184.459 154.18C183.986 154.632 184.071 154.868 184.517 155.282C184.968 155.697 185.334 156.196 185.595 156.751C186.42 158.548 185.916 160.191 184.521 161.39C182.792 162.874 181.536 161.39 180.214 160.265C179.326 162.341 178.159 163.992 175.601 163.481C174.294 163.218 173.325 162.488 173.124 161.081C172.825 158.962 174.116 157.941 176.008 157.253Z" fill="white"/>
<path d="M271.82 150.292C271.846 151.677 271.592 153.052 271.074 154.337C270.556 155.622 269.784 156.79 268.805 157.772C267.825 158.753 266.658 159.529 265.372 160.051C264.086 160.574 262.707 160.834 261.319 160.815C255.372 160.784 250.716 156.199 250.705 150.354C250.684 148.968 250.939 147.592 251.456 146.305C251.972 145.018 252.739 143.846 253.712 142.857C254.686 141.867 255.846 141.08 257.126 140.541C258.407 140.002 259.782 139.721 261.171 139.715C267.234 139.696 271.817 144.238 271.82 150.292Z" fill="#242423"/>
<path d="M270.153 184.134C266.276 183.895 263.175 182.43 261.12 179.174C260.733 178.575 260.116 177.806 260.965 177.211C261.915 176.538 262.218 177.508 262.605 178.111C264.664 181.301 267.61 182.557 271.351 182.167C272.056 182.093 273.181 181.366 273.374 182.646C273.568 183.926 272.239 183.694 271.467 183.918C271.034 184.019 270.595 184.091 270.153 184.134Z" fill="#282827"/>
<path d="M282.51 151.725C284.274 151.725 285.499 151.995 286.6 152.799C286.829 152.951 286.994 153.181 287.065 153.446C287.137 153.71 287.109 153.992 286.988 154.237C286.743 154.84 286.108 154.663 285.77 154.415C284.01 153.128 282.153 153.507 280.293 154.009C279.641 154.183 279.013 154.292 278.765 153.522C278.455 152.56 279.277 152.362 279.928 152.2C280.909 151.953 281.929 151.829 282.51 151.725Z" fill="#2D2D2C"/>
<path d="M270.103 150.25C270.101 152.565 269.19 154.788 267.565 156.441C265.939 158.095 263.729 159.047 261.408 159.095C256.585 159.153 252.414 155.063 252.422 150.281C252.463 147.967 253.394 145.757 255.023 144.109C256.653 142.461 258.856 141.501 261.175 141.428C262.342 141.422 263.499 141.646 264.58 142.086C265.66 142.527 266.643 143.175 267.472 143.994C268.301 144.814 268.96 145.788 269.411 146.861C269.863 147.934 270.098 149.086 270.103 150.25Z" fill="white"/>
<path d="M267.22 152.306C267.13 153.207 266.518 153.319 266.057 153.049C263.7 151.703 261.285 151.139 258.637 152.109C258.539 152.146 258.435 152.162 258.33 152.155C258.226 152.148 258.125 152.118 258.033 152.069C257.941 152.019 257.861 151.951 257.798 151.868C257.735 151.785 257.69 151.689 257.668 151.587C257.629 151.388 257.648 151.182 257.723 150.994C257.797 150.805 257.923 150.641 258.086 150.52C259.749 149.148 265.576 149.89 266.937 151.68C267.056 151.877 267.151 152.087 267.22 152.306Z" fill="#2D2D2C"/>
<path d="M316.685 189.95L320.977 198.647C321.568 199.845 322.711 200.675 324.033 200.867L333.63 202.262C336.959 202.745 338.289 206.836 335.88 209.185L328.935 215.954C327.978 216.887 327.542 218.23 327.768 219.547L329.407 229.105C329.976 232.421 326.496 234.95 323.518 233.384L314.934 228.871C313.751 228.25 312.339 228.25 311.156 228.871L302.572 233.384C299.595 234.95 296.115 232.421 296.683 229.105L298.323 219.547C298.548 218.23 298.112 216.887 297.155 215.954L290.211 209.185C287.802 206.836 289.131 202.745 292.46 202.262L302.058 200.867C303.379 200.675 304.522 199.845 305.113 198.647L309.406 189.95C310.894 186.933 315.196 186.933 316.685 189.95Z" fill="#FF8025"/>
<path d="M325.412 234.853C324.609 234.853 323.801 234.659 323.054 234.266L314.47 229.753C313.578 229.285 312.514 229.285 311.622 229.753L303.038 234.266C301.321 235.169 299.28 235.021 297.712 233.881C296.143 232.742 295.372 230.846 295.7 228.935L297.339 219.376C297.51 218.383 297.181 217.371 296.459 216.668L289.514 209.898C288.126 208.545 287.635 206.558 288.235 204.714C288.834 202.87 290.398 201.551 292.317 201.272L301.915 199.877C302.912 199.733 303.773 199.107 304.219 198.203L308.511 189.507C309.369 187.768 311.107 186.688 313.046 186.688C314.985 186.688 316.723 187.768 317.581 189.507L321.873 198.203C322.319 199.107 323.18 199.733 324.177 199.877L333.775 201.272C335.694 201.551 337.258 202.87 337.857 204.714C338.456 206.558 337.966 208.545 336.578 209.898L329.633 216.668C328.911 217.371 328.582 218.383 328.753 219.376L330.392 228.935C330.72 230.846 329.949 232.742 328.38 233.881C327.494 234.526 326.457 234.853 325.412 234.853ZM313.046 227.405C313.854 227.405 314.662 227.598 315.399 227.986L323.984 232.499C325.038 233.053 326.243 232.966 327.206 232.266C328.17 231.566 328.625 230.447 328.424 229.273L326.784 219.714C326.503 218.073 327.047 216.4 328.239 215.238L335.183 208.468C336.036 207.637 336.326 206.464 335.958 205.331C335.59 204.198 334.666 203.42 333.488 203.248L323.89 201.854C322.243 201.614 320.819 200.58 320.082 199.087L315.79 190.39C315.263 189.322 314.237 188.684 313.046 188.684C311.855 188.684 310.829 189.322 310.302 190.39L306.01 199.087C305.273 200.58 303.849 201.614 302.202 201.854L292.604 203.248C291.426 203.42 290.502 204.198 290.134 205.331C289.766 206.464 290.055 207.637 290.908 208.468L297.853 215.237C299.045 216.399 299.589 218.073 299.308 219.714L297.668 229.273C297.467 230.447 297.922 231.566 298.886 232.266C299.849 232.966 301.054 233.053 302.108 232.499L310.693 227.986C311.429 227.598 312.238 227.405 313.046 227.405Z" fill="#222221"/>
<path d="M311.148 195.995C310.999 195.995 310.849 195.962 310.707 195.892C310.212 195.648 310.009 195.049 310.253 194.554L311.108 192.823C311.352 192.328 311.95 192.125 312.445 192.369C312.94 192.613 313.143 193.212 312.899 193.706L312.044 195.438C311.87 195.79 311.516 195.995 311.148 195.995Z" fill="#222221"/>
<path d="M302.53 205.49C302.042 205.49 301.615 205.132 301.543 204.635C301.463 204.089 301.842 203.582 302.387 203.503C304.714 203.165 306.725 201.704 307.766 199.595L308.726 197.651C308.969 197.156 309.568 196.953 310.063 197.197C310.557 197.441 310.76 198.04 310.516 198.534L309.557 200.479C308.225 203.177 305.652 205.047 302.675 205.479C302.626 205.486 302.578 205.49 302.53 205.49Z" fill="#222221"/>
</svg>
