<svg width="760" height="471" viewBox="0 0 760 471" fill="none" xmlns="http://www.w3.org/2000/svg">
<path d="M461.021 218.975C460.376 220.752 459.861 222.597 459.06 224.306C453.432 236.178 446.565 247.432 438.571 257.882C434.962 262.637 430.977 267.108 427.16 271.705C426.595 271.844 426.021 271.95 425.443 272.021C419.656 272.4 413.866 272.767 408.073 273.121C404.951 273.312 403.05 275.064 403.169 277.677C403.304 280.192 405.265 281.758 408.261 281.653C411.257 281.548 414.134 281.377 417.069 281.247C410.628 286.655 404.399 292.356 397.692 297.411C385.705 306.442 373.308 314.942 361.317 323.957C356.004 327.945 351.246 332.655 346.236 337.037C344.372 336.631 342.512 335.881 340.649 335.881C327.782 335.881 314.9 335.881 302.05 336.225C282.481 336.766 262.919 337.487 243.364 338.388C234.372 338.794 225.434 339.65 216.511 340.68C210.663 341.358 210.683 341.662 210.467 347.662C210.088 358.076 209.717 368.489 209.355 378.902C208.415 378.578 207.442 378.33 206.543 377.924C198.369 374.233 190.313 370.248 182.021 366.877C174.779 364.003 167.116 362.316 159.329 361.883C153.893 361.538 148.417 361.156 142.981 361.436C135.902 361.801 128.831 362.625 121.797 363.57C112.291 364.848 102.846 366.617 93.3267 367.818C86.7874 368.63 80.1581 369.364 73.582 369.246C64.3206 369.076 55.2473 367.465 47.2162 362.313C38.9398 357.002 33.3528 349.813 31.6853 339.999C29.9115 329.547 31.7425 319.437 35.3228 309.623C39.1086 299.09 44.3049 289.11 50.772 279.953C55.0822 274.028 59.6886 268.32 64.574 262.852C76.0915 249.715 89.914 239.418 105.265 231.077C121.018 222.49 138.154 216.684 155.908 213.919C166.669 212.232 177.488 212.763 188.29 212.406C200.421 212 212.625 211.392 223.942 206.365C228.352 204.405 232.427 201.687 236.64 199.285C237.723 198.665 238.741 197.934 239.787 197.257L255.085 205.513C251.039 206.661 246.94 207.732 242.898 208.994C231.814 212.467 221.114 216.776 211.914 224.05C209.053 226.306 206.318 228.756 204.704 232.387C218.471 235.197 232.592 235.892 246.572 234.448C264.698 232.655 281.598 227.312 296.533 216.333C290.443 225.076 286.724 234.68 284.333 244.822C281.925 255.095 280.556 265.445 283.254 276.379C279.232 275.665 275.533 275.024 271.842 274.35C266.787 273.433 262.303 274.427 258.764 278.306C245.146 293.151 249.478 316.905 267.49 326.018C278.116 331.389 289.192 331.138 300.415 328.452C306.742 326.939 312.844 324.886 317.679 320.248C327.603 310.73 329.421 291.97 321.872 279.917C315.419 269.607 298.327 264.633 288.792 273.75C287.925 274.561 286.748 275.064 285.408 275.884C284.999 273.596 284.455 271.668 284.341 269.721C283.384 253.44 286.793 238.075 294.849 223.875C302.152 210.994 312.574 200.632 323.699 191.013C329.9 185.653 336.435 180.679 342.974 175.401L341.748 173.815L326.34 185.475C326.021 184.728 326.037 184.452 326.172 184.258C336.525 170.204 347.572 156.783 361.411 145.885C372.332 137.28 384.176 132.7 398.391 136.72C408.2 139.487 416.754 143.715 421.728 153.018C422.469 154.54 422.625 156.279 422.166 157.907C419.918 164.735 415.659 170.289 410.064 174.776C403.275 180.213 394.974 181.385 386.718 182.343C375.123 183.69 363.475 184.546 351.892 185.966C343.554 186.988 335.401 188.972 328.101 193.402C321.971 197.127 318.922 202.43 319.657 209.736C320.172 214.848 321.819 216.427 327.014 216.508C335.67 216.646 344.323 216.804 352.975 217.072C377.833 217.834 402.691 218.812 427.552 219.384C438.673 219.644 449.855 219.133 461.021 218.975ZM362.376 277.916L361.558 277.202C354.079 279.34 346.608 281.519 339.108 283.6C337.322 284.095 337.534 284.895 338.364 286.14C345.9 283.978 353.384 281.86 360.843 279.649C361.456 279.442 361.861 278.501 362.376 277.916ZM331.477 268.991C335.2 264.171 338.674 259.59 342.251 255.091C343.395 253.655 342.68 253.152 341.323 252.576L329.793 267.546L331.477 268.991ZM245.857 248.259L245.379 248.936L250.185 266.512L252.302 265.915C250.798 260.349 249.38 254.908 247.806 249.512C247.635 248.957 246.527 248.669 245.857 248.259ZM221.694 281.982L237.429 286.822L238.071 286.01C237.535 285.414 237.11 284.497 236.436 284.274C232.259 282.866 228.021 281.637 223.823 280.29C222.36 279.799 221.579 280.067 221.694 281.982ZM357.136 317.279L341.842 313.144C340.882 314.637 341.266 315.327 342.79 315.721C346.922 316.784 351.05 317.875 355.145 319.064C356.654 319.502 357.173 319.011 357.136 317.266V317.279ZM221.853 317.989L221.408 318.901C222.045 319.307 222.716 320.046 223.312 319.989C226.966 319.652 230.6 319.088 234.245 318.69C235.962 318.504 236.044 317.66 235.471 316.228L221.853 317.989Z" fill="#EBEAE9"/>
<path d="M681.81 2.29395C686.733 13.781 691.658 25.2681 696.585 36.7552C706.554 60.154 716.506 83.5582 726.441 106.968C726.764 107.735 727.05 108.518 727.352 109.293C719.848 113.881 712.295 118.393 704.853 123.087C690.237 132.288 676.088 142.309 661.01 150.675C635.814 164.676 610.049 177.663 584.504 191.048C580.143 193.328 575.709 195.462 571.107 197.766L526.116 118.713C527.081 118.052 527.829 117.533 528.568 117.025C543.484 107.05 558.397 97.0725 573.31 87.0919C602.234 67.6705 630.423 47.2794 656.658 24.3404C665.061 17.0051 673.445 9.65628 681.81 2.29395Z" fill="#FF8025"/>
<path d="M379.165 437.654C392.129 438.762 405.151 439.427 418.042 441.086C434.087 443.156 450.113 445.598 465.987 448.689C485 452.39 503.588 457.757 520.979 466.508C523.345 467.693 525.61 469.076 527.927 470.367C527.878 470.574 527.825 470.772 527.776 470.983C524.306 470.983 520.828 471.02 517.37 470.983C507.97 470.866 498.537 470.675 489.12 470.578C464.475 470.353 439.828 470.15 415.181 469.969C398.015 469.823 380.856 469.658 363.704 469.474L312.48 468.971L261.008 468.468L210.025 467.969L160.833 467.466C160.424 467.466 160.036 467.429 158.79 467.368C160.502 465.478 161.651 463.9 163.097 462.662C169.714 457.015 177.672 453.854 185.797 451.148C199.284 446.661 213.181 443.947 227.22 442.06C234.29 441.115 241.39 440.385 248.472 439.553C249.29 439.812 250.238 439.914 250.949 440.364C252.335 441.232 253.402 441.48 254.583 439.959C254.877 439.581 255.972 439.719 256.683 439.776C257.771 439.857 258.948 440.437 259.896 440.157C261.277 439.752 262.491 438.774 263.775 438.04C268.127 437.853 272.476 437.577 276.833 437.492C297.541 437.094 318.255 436.732 338.977 436.404C345.516 436.311 352.056 436.49 358.595 436.542H362.535L375.172 437.066C376.644 439.622 376.827 439.65 379.165 437.654Z" fill="#242523"/>
<path d="M681.81 2.30039C673.432 9.6519 665.053 17.0007 656.675 24.3468C630.44 47.2858 602.251 67.6769 573.327 87.0984C558.431 97.1059 543.517 107.084 528.585 117.032C527.829 117.539 527.081 118.058 526.133 118.72L571.107 197.76C575.71 195.456 580.144 193.322 584.505 191.042C610.049 177.653 635.814 164.671 661.011 150.669C676.088 142.291 690.238 132.27 704.853 123.081C712.296 118.395 719.849 113.883 727.353 109.287C727.672 109.851 727.986 110.419 728.354 111.072C721.365 115.421 714.458 119.669 707.592 124.01C692.666 133.463 678.116 143.569 662.773 152.296C642.419 163.871 621.493 174.444 600.735 185.325C590.734 190.571 580.59 195.545 570.274 200.742L565.905 193.298C558.895 196.43 552.094 199.789 545.06 202.532C531.164 207.96 516.676 211.53 501.962 213.863C489.292 215.871 476.508 217.048 463.772 218.598C462.861 218.711 461.95 218.841 461.038 218.967C449.86 219.125 438.678 219.636 427.524 219.373C402.662 218.801 377.805 217.823 352.947 217.06C344.295 216.792 335.642 216.634 326.986 216.496C321.799 216.415 320.152 214.837 319.629 209.725C318.893 202.422 321.934 197.115 328.073 193.391C335.372 188.961 343.526 186.977 351.864 185.954C363.447 184.534 375.095 183.678 386.69 182.331C394.946 181.374 403.247 180.201 410.035 174.765C415.631 170.278 419.889 164.723 422.137 157.895C422.596 156.267 422.441 154.529 421.7 153.006C416.726 143.703 408.159 139.476 398.363 136.709C384.148 132.688 372.303 137.269 361.383 145.874C347.532 156.784 336.484 170.2 326.148 184.254C326.013 184.437 325.997 184.713 326.315 185.471L341.724 173.811L342.95 175.398C336.411 180.672 329.871 185.65 323.675 191.009C312.55 200.641 302.128 211.003 294.824 223.872C286.781 238.072 283.381 253.44 284.317 269.718C284.431 271.665 284.975 273.592 285.383 275.88C286.703 275.069 287.901 274.574 288.767 273.746C298.303 264.63 315.395 269.604 321.848 279.913C329.397 291.967 327.57 310.747 317.655 320.245C312.824 324.886 306.722 326.939 300.399 328.453C289.176 331.138 278.088 331.39 267.474 326.018C249.462 316.906 245.13 293.156 258.748 278.307C262.308 274.428 266.791 273.438 271.826 274.351C275.505 275.02 279.216 275.661 283.238 276.379C280.54 265.445 281.909 255.096 284.317 244.823C286.691 234.68 290.427 225.077 296.517 216.334C281.599 227.309 264.699 232.652 246.581 234.441C232.6 235.884 218.48 235.189 204.712 232.38C206.347 228.729 209.065 226.294 211.922 224.043C221.122 216.768 231.822 212.459 242.906 208.987C246.948 207.725 251.048 206.654 255.094 205.506L239.796 197.249C231.213 191.228 223.717 184.149 217.869 175.434C217.174 174.395 216.512 173.333 215.878 172.257C215.47 171.539 215.118 170.781 214.382 169.332C218.76 169.612 222.777 169.531 226.672 170.188C236.968 171.929 247.21 173.986 257.477 175.917C257.836 176.1 258.209 176.254 258.592 176.379C272.811 179.852 285.567 186.052 295.785 196.665C298.838 199.834 301.425 203.444 304.29 206.93L311.3 199.286C310.368 199.375 309.8 199.412 309.256 199.493C303.101 200.361 298.654 196.844 298.47 190.665C298.368 188.085 298.644 185.505 299.288 183.005C305.361 160.735 315.722 140.527 329.667 122.148C332.859 117.941 336.713 114.224 340.481 110.041C333.153 104.589 325.768 99.0871 318.354 93.606C317.716 93.1394 316.87 92.9447 316.126 92.6241C314.246 91.476 312.481 90.056 310.47 89.2283C299.345 84.6478 288.138 80.3838 277.103 75.641C272.448 73.6449 268.091 70.9104 263.763 68.2489C262.091 67.2734 260.656 65.9462 259.557 64.3606C258.459 62.7751 257.723 60.9698 257.403 59.0717C256.631 54.7428 258.437 51.9961 262.716 51.0265C267.645 49.9107 272.395 51.063 277.14 52.0651C295.863 56.0208 314.442 60.5404 332.426 67.117C338.205 69.2308 343.673 72.1762 349.281 74.7403L350.507 75.1947L349.976 74.3265C338.965 64.5272 327.954 54.7293 316.944 44.9327C312.117 40.6524 307.102 36.579 302.41 32.1608C299.234 29.1707 296.651 25.6694 295.781 21.2066C294.8 16.2772 297.947 11.9766 303.015 12.074C306.099 12.1626 309.144 12.7931 312.007 13.9362C326.512 19.6771 339.709 27.8238 351.856 37.4067C362.891 46.1133 373.174 55.7652 383.8 64.9951C384.422 65.5347 385.116 65.9972 385.779 66.5003L386.314 66.0703C385.954 65.2994 385.611 64.5204 385.227 63.7618C379.072 51.5904 372.782 39.4961 366.859 27.2233C365.458 24.3184 364.816 20.8577 364.648 17.6079C364.346 12.0618 370.84 7.96819 375.79 10.5526C378.358 11.9541 380.664 13.7835 382.607 15.9607C391.067 25.2029 397.222 36.0597 403.909 46.5352C412.128 59.4166 419.873 72.6753 430.246 83.9946C437.987 92.4416 446.365 100.341 454.769 108.139C462.809 115.587 471.087 122.778 479.602 129.71C484.273 133.52 489.734 136.522 496.04 136.344C499.984 136.23 503.989 135.358 507.803 134.266C514.681 132.295 521.437 129.905 528.516 127.601C526.632 124.262 524.919 121.235 523.06 117.953C524.576 116.951 526.096 115.977 527.588 114.955C557.69 94.2632 588.077 73.9776 617.79 52.7426C639.971 36.8914 660.271 18.6628 680.797 0L681.81 2.30039ZM273.061 276.659L271.066 276.396L270.396 276.209C265.626 275.71 261.662 277.39 259.214 281.374C257.023 284.932 255.535 288.912 253.721 292.705C253.643 292.904 253.561 293.111 253.484 293.294C253.383 294.105 253.279 294.916 253.173 295.728C253.12 295.943 253.067 296.162 253.009 296.381C253.009 298.396 253.009 300.415 253.009 302.438L253.206 303.148C254.522 306.706 255.331 310.561 257.252 313.758C262.062 321.75 269.746 325.767 278.738 327.511L279.281 327.718L282.253 327.97L282.424 328.14L282.653 328.075H283.818L284.333 328.221H288.195L288.71 328.075H289.875L290.108 328.14L290.276 327.97L293.717 327.706L294.293 327.511L296.745 327.203L297.334 326.972L300.514 326.221C311.708 323.556 320.242 317.912 323.336 306.171C323.422 305.972 323.504 305.765 323.585 305.579C323.683 304.938 323.777 304.292 323.875 303.651C323.941 303.444 324.01 303.246 324.076 303.031V292.332L323.855 291.707C321.207 277.795 312.473 270.712 298.548 271.182L297.918 271.401L285.984 277.726C286.642 279.163 287.108 280.185 287.578 281.22C291.714 279.094 291.714 279.094 292.454 279.698C290.509 283.228 287.697 284.518 283.197 283.934L282.596 283.698L278.002 282.201C278.582 281.345 278.938 280.814 279.265 280.335L283.802 281.897L285.248 281.654C284.582 278.968 282.964 277.641 280.086 278.063C279.756 278.047 279.431 277.973 279.126 277.844L278.595 277.67L276.089 277.325L275.582 277.162L273.563 276.822L273.061 276.659ZM365.274 88.0234C364.399 87.3945 363.725 86.9036 363.046 86.4005C353.2 79.4101 342.88 73.2067 331.461 69.1496C314.017 62.9057 296.067 58.4226 277.945 54.6373C273.524 53.7187 269.023 53.2309 264.506 53.1808C260.121 53.1321 258.756 55.6759 259.97 59.9278C261.11 63.92 264.094 66.3137 267.453 67.9609C276.813 72.5576 286.148 77.3328 295.879 81.0451C308.14 85.7311 320.128 90.6808 330.21 99.3468C334.183 102.763 338.442 105.838 342.472 109.019C354.557 100.56 367.174 95.0341 382.251 98.7179C381.995 99.0723 381.663 99.3667 381.28 99.5804C380.896 99.7942 380.471 99.9221 380.032 99.9554C376.023 100.012 371.911 99.3711 368.024 100.045C353.376 102.597 341.867 110.504 332.732 121.88C319.899 137.849 310.74 155.83 303.955 175.028C302.537 179.113 301.444 183.302 300.685 187.557C300.056 190.945 300.722 194.352 303.841 196.482C306.894 198.572 310.114 197.59 312.787 195.728C315.242 193.996 317.443 191.934 319.327 189.602C322.85 185.256 325.96 180.579 329.393 176.156C338.385 164.565 348.055 153.582 359.638 144.389C371.564 134.92 384.507 130.222 399.887 134.778C410.256 137.853 419.072 142.778 424.136 152.718C424.786 153.996 425.109 155.879 424.679 157.181C420.793 168.979 413.562 177.921 401.277 181.674C395.792 183.35 389.98 184.153 384.254 184.851C372.925 186.23 361.522 187.029 350.209 188.502C342.476 189.516 334.923 191.521 328.31 195.971C324.672 198.406 321.873 201.627 321.873 206.114C321.873 212.95 321.726 214.877 329.164 214.172C331.089 213.991 333.024 213.942 334.956 214.025C347.957 214.61 360.954 215.356 373.955 215.831C389.326 216.387 404.706 216.857 420.081 217.125C447.874 217.608 475.543 216.792 502.919 211.445C520.706 207.984 538.276 203.793 554.743 195.992C558.094 194.401 561.335 192.584 564.646 190.863L529.685 129.503C524.086 131.414 518.78 133.463 513.336 135.025C508.048 136.543 502.661 138.238 497.229 138.632C489.402 139.2 482.843 135.187 476.843 130.648C459.926 117.847 445.421 102.438 430.409 87.6136C420.96 78.2822 414.278 66.76 407.011 55.7489C399.654 44.604 392.498 33.3333 384.912 22.3466C382.533 18.9021 379.19 16.0662 376.023 13.2262C374.02 11.4208 371.649 11.5709 369.336 13.2262C367.162 14.7963 366.259 16.7924 366.921 19.2835C367.775 22.4846 368.474 25.8277 369.966 28.7407C377.702 43.8575 385.672 58.8526 393.564 73.8924C394.002 74.7282 394.484 75.5437 394.946 76.3672L394.267 76.9312C386.58 70.2126 378.63 63.7618 371.257 56.7186C356.564 42.7094 340.367 30.7895 322.408 21.2756C317.275 18.5613 311.733 16.5652 306.281 14.5042C303.497 13.4494 300.669 14.0985 298.769 16.4963C296.868 18.894 297.645 21.6245 299.087 23.7707C301.303 27.0691 303.698 30.3838 306.599 33.0696C312.501 38.5224 318.897 43.4437 324.905 48.791C338.614 60.9867 352.207 73.3082 365.846 85.581C366.128 85.8366 366.373 86.1368 366.663 86.4452L365.274 88.0234ZM301.777 208.577C297.068 205.737 292.34 204.832 287.472 204.467C275.672 203.574 264.196 205.574 252.85 208.488C240.401 211.689 228.242 215.689 217.444 222.862C214.174 225.032 211.264 227.73 208.191 230.209L208.755 231.13C242.453 235.435 274.495 232.932 301.777 208.577ZM299.733 204.8C292.29 194.888 283.295 187.93 272.493 183.439C257.685 177.28 242.011 174.473 226.194 172.379C223.701 172.046 221.175 171.973 218.138 171.742C228.499 187.48 241.991 198.182 259.242 204.142C260.06 204.418 261.045 204.28 261.919 204.142C274.315 201.984 286.691 200.45 299.737 204.8H299.733ZM326.001 185.65L325.592 185.281L324.468 186.575L324.816 186.883L326.001 185.65Z" fill="#212121"/>
<path d="M316.094 92.6172C316.838 92.9377 317.684 93.1324 318.321 93.599C325.739 99.0721 333.121 104.582 340.453 110.034C336.685 114.217 332.831 117.934 329.639 122.141C315.693 140.532 305.333 160.74 299.259 182.998C298.615 185.498 298.34 188.079 298.442 190.658C298.626 196.837 303.072 200.354 309.228 199.486C309.792 199.405 310.36 199.368 311.271 199.279L304.282 206.935C301.421 203.45 298.83 199.839 295.777 196.67C285.559 186.053 272.812 179.854 258.585 176.385C258.201 176.26 257.828 176.105 257.469 175.922C258.985 173.062 260.608 170.242 262.001 167.333C267.261 156.342 272.358 145.279 277.683 134.324C283.471 122.421 291.24 111.893 301.286 103.202C305.235 99.7902 309.869 97.1165 314.157 94.1224C314.831 93.6518 315.452 93.1203 316.094 92.6172Z" fill="#EBEAE9"/>
<path d="M379.164 437.647C376.822 439.643 376.643 439.614 375.171 437.054C380.967 433.727 383.632 428.774 382.72 421.763H408.612C408.391 417.982 408.342 414.566 407.954 411.19C407.042 403.25 405.984 395.327 404.95 387.403C404.504 383.999 402.534 381.853 399.228 380.936C391.969 378.94 384.727 376.879 377.452 374.98C374.215 374.124 370.308 374.343 367.815 372.546C365.321 370.749 364.32 367.008 362.501 364.229C357.466 356.557 352.337 348.946 347.248 341.31C345.613 338.876 343.325 338.024 340.394 338.065C326.355 338.223 312.304 337.996 298.273 338.401C278.377 338.977 258.485 339.894 238.601 340.864C231.146 341.229 223.716 342.158 216.274 342.832C214.161 343.026 212.906 343.745 212.84 346.284C212.558 356.865 211.913 367.438 211.684 378.019C211.451 388.791 211.541 399.571 211.504 410.342C211.504 414.829 211.504 419.317 211.504 423.861H241.143C242.051 433.245 246.829 438.016 255.187 438.024C262.952 438.024 267.763 432.884 268.674 423.418L355.982 422.38C355.132 428.733 357.617 433.212 362.522 436.531H358.582C356.023 433.805 354.053 430.778 353.62 426.96C353.665 426.911 353.751 426.842 353.739 426.81C353.693 426.701 353.636 426.596 353.571 426.498C353.604 425.07 353.027 424.591 351.483 424.615C342.364 424.777 333.246 424.802 324.128 424.875L323.637 424.895L292.293 425.301L291.815 425.362H282.198H281.708H270.709C270.378 430.993 267.579 434.782 263.761 437.996C262.478 438.73 261.264 439.708 259.883 440.113C258.935 440.393 257.757 439.813 256.67 439.732C255.959 439.675 254.864 439.537 254.57 439.915C253.409 441.428 252.322 441.18 250.936 440.32C250.225 439.874 249.301 439.773 248.459 439.509C246.906 438.34 245.263 437.261 243.812 435.975C240.878 433.374 239.476 429.942 238.969 426.165H208.999C208.999 425.374 208.999 424.506 208.999 423.633C209.154 409.79 209.311 395.945 209.469 382.097C209.469 381.013 209.411 379.93 209.379 378.851C209.746 368.435 210.117 358.022 210.49 347.611C210.707 341.61 210.687 341.306 216.535 340.629C225.457 339.598 234.416 338.754 243.387 338.336C262.94 337.43 282.502 336.709 302.074 336.174C314.932 335.817 327.822 335.841 340.672 335.829C342.536 335.829 344.396 336.58 346.259 336.985C351.164 343.712 356.179 350.374 360.916 357.198C363.47 360.89 365.612 364.87 367.798 368.797C368.648 370.327 369.74 370.988 371.432 371.39C380.039 373.447 388.569 375.853 397.205 377.772C403.859 379.257 407.21 383.22 407.893 389.769C409.057 401.019 410.259 412.265 411.497 424.011H385.242C385.471 429.845 382.598 433.882 379.164 437.647Z" fill="#222323"/>
<path d="M216.136 197.68C216.136 200.597 214.873 202.175 212.702 202.589C210.532 203.003 208.493 201.838 207.733 199.404C205.742 193.055 203.838 186.681 201.904 180.336C201.684 179.617 201.496 178.899 201.271 178.181C200.392 175.138 201.34 172.907 203.883 172.096C206.359 171.284 208.579 172.651 209.498 175.642C211.382 181.76 213.226 187.894 215.077 194.02C215.506 195.424 215.903 196.86 216.136 197.68Z" fill="#FF8025"/>
<path d="M184.215 75.2646C183.042 80.2833 181.763 85.7117 180.504 91.1401C179.969 93.404 179.466 95.6801 178.841 97.9196C178.093 100.618 176.066 101.875 173.597 101.307C171.239 100.768 169.919 98.7919 170.499 96.1588C172.177 88.6044 173.936 81.0676 175.775 73.5484C176.017 72.5201 176.632 71.6163 177.503 71.0105C178.374 70.4048 179.44 70.1397 180.496 70.2662C182.801 70.5948 184.326 72.4571 184.215 75.2646Z" fill="#FF8025"/>
<path d="M133.147 157.846C133.584 157.96 134.324 158.118 135.039 158.341C141.922 160.478 148.801 162.624 155.675 164.78C158.642 165.713 160.073 167.924 159.317 170.33C158.532 172.845 156.247 173.859 153.211 172.934C146.08 170.771 138.958 168.566 131.843 166.321C129.232 165.51 128.165 163.619 128.655 161.144C129.036 159.246 130.838 157.826 133.147 157.846Z" fill="#FF8025"/>
<path d="M495.354 258.14C494.173 263.171 492.902 268.6 491.622 274.02C491.071 276.369 490.551 278.726 489.889 281.043C489.158 283.607 487.131 284.804 484.76 284.244C482.39 283.684 481.024 281.737 481.605 279.12C483.283 271.565 485.042 264.03 486.881 256.513C487.111 255.482 487.717 254.571 488.582 253.956C489.447 253.341 490.511 253.066 491.569 253.183C493.87 253.499 495.464 255.406 495.354 258.14Z" fill="#FF8025"/>
<path d="M226.693 90.1183C233.886 92.4228 242.036 94.9341 250.096 97.7011C252.045 98.3705 252.617 100.947 251.837 102.878C251.019 104.935 248.882 105.97 246.409 105.243C241.096 103.689 235.848 101.998 230.572 100.375C228.336 99.681 226.076 99.0724 223.881 98.2326C221.686 97.3928 220.885 95.6279 221.273 93.3965C221.633 91.3355 223.484 90.021 226.693 90.1183Z" fill="#FF8025"/>
<path d="M206.241 133.979C206.102 136.259 205.1 137.768 202.934 138.283C201.905 138.565 200.805 138.44 199.867 137.935C198.928 137.43 198.223 136.583 197.899 135.573C196.812 132.429 195.892 129.228 194.923 126.043C193.665 121.905 192.402 117.766 191.192 113.616C190.374 110.808 191.49 108.472 193.898 107.774C196.305 107.076 198.561 108.374 199.423 111.153C201.602 118.144 203.727 125.146 205.856 132.153C206.049 132.786 206.13 133.451 206.241 133.979Z" fill="#FF8025"/>
<path d="M551.946 212.915C553.474 212.976 554.868 213.982 555.44 215.824C557.759 223.297 560.028 230.785 562.245 238.288C562.57 239.337 562.463 240.47 561.947 241.441C561.432 242.411 560.55 243.139 559.495 243.465C558.955 243.652 558.384 243.729 557.814 243.691C557.244 243.654 556.687 243.503 556.177 243.247C555.667 242.992 555.214 242.637 554.845 242.204C554.476 241.771 554.199 241.268 554.03 240.727C551.692 233.259 549.424 225.769 547.225 218.258C546.391 215.398 548.549 212.83 551.946 212.915Z" fill="#FF8025"/>
<path d="M510.884 251.407C509.719 250.389 508.211 249.545 507.422 248.267C506.351 246.526 507.014 244.729 508.542 243.337C513.52 238.739 518.502 234.155 523.489 229.584C524.167 228.959 524.829 228.318 525.532 227.746C527.576 226.123 530.028 226.188 531.638 227.896C533.249 229.604 533.195 232.359 531.23 234.148C526.153 238.874 521.012 243.536 515.899 248.226C515.388 248.777 514.827 249.281 514.223 249.731C513.336 250.291 512.347 250.693 510.884 251.407Z" fill="#FF8025"/>
<path d="M187.633 143.698C190.616 143.816 192.57 145.974 191.985 148.656C190.306 156.364 188.475 164.073 186.582 171.741C186.316 172.809 185.634 173.73 184.686 174.3C183.737 174.871 182.6 175.044 181.522 174.784C179.279 174.264 177.717 172.232 178.253 169.915C179.997 162.125 181.844 154.357 183.795 146.611C183.984 145.753 184.474 144.99 185.176 144.457C185.879 143.923 186.749 143.655 187.633 143.698Z" fill="#FF8025"/>
<path d="M154.754 146.14C153.581 145.146 152.036 144.335 151.264 143.057C150.152 141.227 150.88 139.373 152.466 137.92C156.659 134.082 160.847 130.242 165.029 126.398C166.443 125.1 167.808 123.741 169.272 122.495C171.225 120.84 173.767 120.921 175.402 122.588C177.139 124.366 177.111 126.982 175.128 128.828C169.505 134.067 163.833 139.257 158.114 144.396C157.35 145.085 156.23 145.39 154.754 146.14Z" fill="#FF8025"/>
<path d="M538.737 261.909C538.5 263.792 537.453 265.334 535.107 265.715C527.342 266.973 519.552 268.263 511.762 269.439C509.473 269.788 507.389 268.076 507.033 265.885C506.645 263.504 508.002 261.459 510.605 261.017C518.376 259.699 526.159 258.459 533.955 257.296C536.575 256.907 538.769 259.021 538.737 261.909Z" fill="#FF8025"/>
<path d="M227.137 65.1235C226.177 66.6166 225.658 67.8986 224.742 68.775C219.31 73.8829 213.805 78.9178 208.279 83.9283C206.142 85.8676 203.444 85.8189 201.781 83.9608C200.195 82.1919 200.391 79.4979 202.349 77.6885C207.883 72.5643 213.458 67.4807 219.012 62.3769C220.532 60.9772 222.388 60.4944 224.088 61.5654C225.298 62.3322 226.054 63.809 227.137 65.1235Z" fill="#FF8025"/>
<path d="M450.612 299.246C449.652 300.751 449.149 302.029 448.238 302.897C442.756 308.036 437.22 313.126 431.632 318.168C429.588 320.022 427.009 319.937 425.346 318.168C423.682 316.399 423.711 313.839 425.755 311.948C431.317 306.763 436.937 301.635 442.544 296.499C444.04 295.128 445.871 294.564 447.592 295.724C448.761 296.491 449.521 297.919 450.612 299.246Z" fill="#FF8025"/>
<path d="M465.161 276.973C465.132 279.529 463.743 281.208 461.658 281.545C459.574 281.882 457.571 280.758 456.831 278.466C455.131 273.163 453.562 267.82 451.927 262.493C451.293 260.424 450.562 258.383 450.039 256.29C449.422 253.807 450.713 251.595 452.969 250.967C453.512 250.796 454.085 250.736 454.652 250.792C455.219 250.847 455.769 251.016 456.268 251.289C456.767 251.562 457.205 251.933 457.556 252.379C457.906 252.825 458.162 253.337 458.307 253.884C460.579 261.101 462.754 268.347 464.948 275.585C465.062 276.04 465.134 276.505 465.161 276.973Z" fill="#FF8025"/>
<path d="M137.942 203.851C135.396 203.879 133.495 202.228 133.27 199.968C133.046 197.708 134.464 195.797 136.949 195.383C144.556 194.128 152.174 192.929 159.804 191.785C162.538 191.379 164.614 192.856 164.99 195.29C165.35 197.619 163.96 199.664 161.332 200.126C155.471 201.161 149.578 202.017 143.701 202.966C141.714 203.262 139.732 203.583 137.942 203.851Z" fill="#FF8025"/>
<path d="M417.102 281.231C414.167 281.373 411.233 281.547 408.294 281.636C405.355 281.726 403.336 280.176 403.201 277.66C403.063 275.048 404.963 273.295 408.106 273.104C413.899 272.747 419.689 272.381 425.476 272.005C426.054 271.933 426.627 271.827 427.193 271.688C428.28 271.688 429.363 271.64 430.462 271.627C433.156 271.595 435.142 273.275 435.273 275.685C435.403 278.094 433.683 279.949 430.924 280.147C426.281 280.525 421.695 280.882 417.102 281.231Z" fill="#FF8025"/>
<path d="M362.376 277.909C361.861 278.497 361.456 279.434 360.819 279.625C353.372 281.853 345.889 283.97 338.34 286.117C337.522 284.871 337.298 284.088 339.084 283.577C346.584 281.496 354.055 279.317 361.534 277.179L362.376 277.909Z" fill="#323230"/>
<path d="M331.461 269.005L329.793 267.548L341.323 252.598C342.68 253.174 343.395 253.677 342.25 255.113C338.674 259.604 335.2 264.185 331.461 269.005Z" fill="#30302F"/>
<path d="M245.857 248.256C246.528 248.662 247.635 248.954 247.799 249.509C249.381 254.905 250.799 260.346 252.295 265.912L250.178 266.509L245.371 248.933L245.857 248.256Z" fill="#323231"/>
<path d="M221.694 281.971C221.579 280.056 222.36 279.788 223.835 280.263C228.033 281.61 232.271 282.839 236.448 284.247C237.11 284.47 237.535 285.387 238.083 285.984L237.441 286.795L221.694 281.971Z" fill="#323230"/>
<path d="M357.136 317.261C357.173 319.005 356.654 319.496 355.146 319.058C351.058 317.869 346.922 316.778 342.79 315.715C341.266 315.309 340.882 314.632 341.842 313.139L357.136 317.261Z" fill="#323230"/>
<path d="M221.874 317.968L235.504 316.224C236.064 317.656 235.982 318.5 234.278 318.686C230.632 319.092 226.999 319.648 223.345 319.985C222.748 320.041 222.078 319.283 221.44 318.897L221.874 317.968Z" fill="#373735"/>
<path d="M365.274 88.0153L366.667 86.4493C366.373 86.1409 366.128 85.8407 365.85 85.5851C352.207 73.3123 338.614 60.9908 324.922 48.7951C318.914 43.4478 312.518 38.5265 306.616 33.0737C303.714 30.3879 301.303 27.0733 299.104 23.7748C297.661 21.6286 296.905 18.8657 298.785 16.5004C300.665 14.1351 303.514 13.4535 306.297 14.5083C311.749 16.5694 317.291 18.5655 322.425 21.2797C340.383 30.7815 356.58 42.7013 371.269 56.7227C378.626 63.7659 386.592 70.2167 394.28 76.9353L394.958 76.3714C394.496 75.56 394.014 74.7485 393.577 73.8965C385.685 58.8568 377.715 43.8738 369.978 28.7448C368.486 25.8318 367.787 22.4887 366.933 19.2876C366.271 16.7966 367.174 14.8005 369.349 13.2304C371.662 11.5629 374.032 11.4128 376.035 13.2304C379.19 16.0703 382.546 18.9103 384.924 22.3508C392.51 33.3375 399.667 44.6082 407.023 55.7531C414.29 66.7641 420.973 78.2863 430.422 87.6177C445.434 102.442 459.939 117.851 476.855 130.652C482.855 135.192 489.415 139.204 497.242 138.636C502.673 138.23 508.06 136.547 513.349 135.029C518.797 133.467 524.102 131.418 529.697 129.508L564.646 190.896C561.335 192.616 558.107 194.434 554.743 196.024C538.276 203.826 520.706 208.017 502.919 211.478C475.535 216.809 447.853 217.624 420.081 217.158C404.706 216.89 389.326 216.419 373.955 215.863C360.954 215.389 347.957 214.646 334.956 214.058C333.024 213.975 331.089 214.024 329.164 214.204C321.726 214.91 321.873 212.987 321.873 206.147C321.873 201.639 324.673 198.438 328.31 196.004C334.923 191.541 342.476 189.549 350.209 188.535C361.522 187.054 372.925 186.255 384.254 184.883C389.976 184.185 395.792 183.382 401.277 181.706C413.563 177.954 420.793 169.012 424.679 157.214C425.088 155.907 424.786 154.025 424.136 152.751C419.072 142.811 410.24 137.885 399.887 134.81C384.508 130.254 371.564 134.952 359.638 144.422C348.059 153.615 338.385 164.598 329.393 176.189C325.96 180.611 322.854 185.289 319.327 189.634C317.443 191.966 315.242 194.028 312.787 195.76C310.114 197.623 306.894 198.6 303.841 196.515C300.722 194.381 300.056 190.973 300.685 187.589C301.444 183.335 302.538 179.146 303.955 175.061C310.74 155.867 319.895 137.885 332.732 121.913C341.883 110.553 353.376 102.629 368.024 100.077C371.911 99.4037 376.023 100.045 380.032 99.9879C380.471 99.9547 380.896 99.8267 381.28 99.6129C381.663 99.3992 381.995 99.1048 382.251 98.7505C367.174 95.0666 354.557 100.592 342.472 109.052C338.426 105.883 334.167 102.795 330.211 99.3793C320.128 90.7133 308.14 85.7636 295.879 81.0776C286.148 77.3654 276.813 72.5901 267.453 67.9934C264.094 66.3462 261.11 63.9363 259.97 59.9603C258.744 55.7084 260.121 53.1646 264.507 53.2133C269.013 53.245 273.505 53.7124 277.92 54.609C296.047 58.3943 313.997 62.8774 331.461 69.1416C342.905 73.2352 353.221 79.4223 363.067 86.433C363.725 86.8956 364.399 87.3986 365.274 88.0153Z" fill="#FEFEFE"/>
<path d="M273.567 276.825L275.586 277.166L276.092 277.329L278.598 277.673L279.129 277.848C279.434 277.976 279.759 278.051 280.09 278.067C282.95 277.661 284.585 278.972 285.252 281.658L283.805 281.901L279.268 280.339C278.941 280.818 278.585 281.349 278.005 282.205L282.599 283.702L283.2 283.938C287.696 284.522 290.512 283.232 292.457 279.702C291.717 279.097 291.717 279.097 287.581 281.223C287.111 280.189 286.645 279.166 285.987 277.73L297.921 271.405L298.551 271.186C312.476 270.715 321.21 277.799 323.858 291.711L324.079 292.336V303.035C324.013 303.241 323.944 303.44 323.879 303.655C323.78 304.296 323.686 304.941 323.588 305.582C323.507 305.781 323.425 305.988 323.339 306.175C320.245 317.916 311.711 323.56 300.517 326.225L297.337 326.976L296.748 327.207L294.296 327.515L293.72 327.71L290.279 327.974C290.209 327.943 290.13 327.936 290.056 327.956C289.981 327.975 289.916 328.018 289.87 328.079H288.709L288.19 328.225H284.328L283.813 328.079H282.648C282.603 328.017 282.537 327.973 282.463 327.953C282.388 327.934 282.309 327.941 282.239 327.974L279.268 327.722L278.724 327.515C269.733 325.771 262.049 321.754 257.247 313.766C255.326 310.569 254.517 306.714 253.201 303.156L253.004 302.446C253.004 300.426 253.004 298.405 253.004 296.385C253.062 296.17 253.115 295.951 253.168 295.736C253.274 294.924 253.378 294.113 253.479 293.301L253.716 292.713C255.518 288.92 257.018 284.94 259.209 281.382C261.661 277.398 265.621 275.702 270.395 276.217L271.061 276.404L273.056 276.667L273.567 276.825Z" fill="#FF8025"/>
<path d="M301.777 208.577C274.495 232.92 242.453 235.435 208.763 231.131L208.199 230.218C211.272 227.751 214.182 225.041 217.452 222.87C228.25 215.697 240.409 211.697 252.858 208.496C264.204 205.583 275.681 203.583 287.48 204.475C292.34 204.832 297.068 205.741 301.777 208.577Z" fill="#FDFDFE"/>
<path d="M299.736 204.798C286.69 200.448 274.314 201.982 261.922 204.124C261.047 204.278 260.042 204.416 259.245 204.124C241.993 198.164 228.502 187.478 218.141 171.74C221.178 171.971 223.704 172.045 226.197 172.377C242.014 174.471 257.667 177.278 272.495 183.437C283.297 187.928 292.293 194.886 299.736 204.798Z" fill="#FDFDFD"/>
<path d="M326.005 185.65L324.815 186.867L324.468 186.559L325.592 185.265L326.005 185.65Z" fill="#EBEAE9"/>
<path d="M283.805 281.896L285.251 281.652L283.805 281.896Z" fill="#33291F"/>
<path d="M349.959 74.3408L350.49 75.2091L349.264 74.7547L349.959 74.3408Z" fill="white"/>
<path d="M283.198 283.935L282.599 283.699L283.198 283.935Z" fill="#33291F"/>
<path d="M324.08 292.328L323.859 291.704L324.08 292.328Z" fill="#322D28"/>
<path d="M253.721 292.693L253.484 293.281C253.561 293.099 253.643 292.9 253.721 292.693Z" fill="#322D28"/>
<path d="M279.144 277.84L278.614 277.665L279.144 277.84Z" fill="#322D28"/>
<path d="M253.172 295.729C253.119 295.944 253.066 296.163 253.009 296.378C253.066 296.163 253.119 295.94 253.172 295.729Z" fill="#322D28"/>
<path d="M253.019 302.433L253.215 303.143L253.019 302.433Z" fill="#322D28"/>
<path d="M296.75 327.209L297.336 326.977L296.75 327.209Z" fill="#322D28"/>
<path d="M278.737 327.517L279.279 327.724L278.737 327.517Z" fill="#322D28"/>
<path d="M276.091 277.326L275.585 277.163L276.091 277.326Z" fill="#322D28"/>
<path d="M282.252 327.969C282.322 327.937 282.401 327.93 282.475 327.949C282.55 327.968 282.615 328.013 282.66 328.075L282.432 328.14L282.252 327.969Z" fill="#322D28"/>
<path d="M283.817 328.079L284.33 328.225L283.817 328.079Z" fill="#322D28"/>
<path d="M288.195 328.225L288.713 328.079L288.195 328.225Z" fill="#322D28"/>
<path d="M273.566 276.824L273.061 276.661L273.566 276.824Z" fill="#322D28"/>
<path d="M289.875 328.073C289.921 328.012 289.986 327.969 290.06 327.949C290.134 327.93 290.213 327.937 290.283 327.967L290.115 328.138L289.875 328.073Z" fill="#322D28"/>
<path d="M271.064 276.399L270.399 276.212L271.064 276.399Z" fill="#322D28"/>
<path d="M298.549 271.194L297.921 271.414L298.549 271.194Z" fill="#322D28"/>
<path d="M323.34 306.171C323.426 305.972 323.508 305.765 323.589 305.579C323.508 305.778 323.426 305.972 323.34 306.171Z" fill="#322D28"/>
<path d="M323.879 303.654C323.945 303.447 324.014 303.249 324.079 303.034C324.014 303.249 323.945 303.447 323.879 303.654Z" fill="#322D28"/>
<path d="M293.717 327.712L294.292 327.517L293.717 327.712Z" fill="#322D28"/>
<path d="M292.305 425.326L292.077 425.432L291.832 425.375L292.305 425.326Z" fill="#222223"/>
<path d="M353.634 426.986C353.579 426.924 353.545 426.846 353.536 426.763C353.527 426.68 353.544 426.597 353.585 426.524C353.65 426.623 353.706 426.728 353.752 426.836C353.764 426.861 353.679 426.93 353.634 426.986Z" fill="#222223"/>
</svg>
