<svg width="37" height="8" viewBox="0 0 37 8" fill="none" xmlns="http://www.w3.org/2000/svg">
<path d="M6.61328 6.59912C5.93294 7.27946 5.10042 7.61963 4.11572 7.61963C3.13102 7.61963 2.2985 7.27946 1.61816 6.59912C0.937826 5.91878 0.597656 5.08626 0.597656 4.10156C0.597656 3.11686 0.937826 2.28434 1.61816 1.604C2.2985 0.923665 3.13102 0.583496 4.11572 0.583496C5.10042 0.583496 5.93294 0.923665 6.61328 1.604C7.29362 2.28434 7.63379 3.11686 7.63379 4.10156C7.63379 5.08626 7.29362 5.91878 6.61328 6.59912Z" fill="#FF8025"/>
<path d="M21.0615 6.59912C20.3812 7.27946 19.5487 7.61963 18.564 7.61963C17.5793 7.61963 16.7467 7.27946 16.0664 6.59912C15.3861 5.91878 15.0459 5.08626 15.0459 4.10156C15.0459 3.11686 15.3861 2.28434 16.0664 1.604C16.7467 0.923665 17.5793 0.583496 18.564 0.583496C19.5487 0.583496 20.3812 0.923665 21.0615 1.604C21.7419 2.28434 22.082 3.11686 22.082 4.10156C22.082 5.08626 21.7419 5.91878 21.0615 6.59912Z" fill="#FF8025"/>
<path d="M35.5098 6.59912C34.8294 7.27946 33.9969 7.61963 33.0122 7.61963C32.0275 7.61963 31.195 7.27946 30.5146 6.59912C29.8343 5.91878 29.4941 5.08626 29.4941 4.10156C29.4941 3.11686 29.8343 2.28434 30.5146 1.604C31.195 0.923665 32.0275 0.583496 33.0122 0.583496C33.9969 0.583496 34.8294 0.923665 35.5098 1.604C36.1901 2.28434 36.5303 3.11686 36.5303 4.10156C36.5303 5.08626 36.1901 5.91878 35.5098 6.59912Z" fill="#FF8025"/>
</svg>
