<svg width="738" height="404" viewBox="0 0 738 404" fill="none" xmlns="http://www.w3.org/2000/svg">
<path d="M434.882 87.6409C436.592 88.2285 438.295 88.8586 440.021 89.396C445.702 91.1587 451.388 92.8983 457.079 94.6147C457.539 94.75 458.083 94.6147 458.589 94.5915L461.566 95.9909C465.5 97.6416 469.438 99.2806 473.361 100.951C484.149 105.539 494.662 110.723 504.384 117.264C513.052 123.094 521.759 129.031 529.651 135.82C537.682 142.712 544.774 150.699 552.265 158.218C552.442 158.396 552.45 158.743 552.539 159.01C551.906 158.948 551.269 158.902 550.635 158.825C545.751 158.202 540.879 157.421 535.964 156.977C522.3 155.699 508.548 155.684 494.882 156.934C487.349 157.642 479.859 158.612 472.647 161.129C469.859 162.103 467.986 163.695 467.272 166.61C466.847 168.338 466.241 170.024 465.824 171.752C459.824 196.879 456.318 222.393 453.006 247.961C450.847 264.61 448.982 281.307 447.295 298.014C445.824 312.588 444.766 327.201 443.596 341.805C443.484 343.236 443.156 344.017 441.735 344.678C416.874 356.275 396.438 372.967 382.098 396.676C381.87 396.993 381.578 397.259 381.24 397.454C380.901 397.65 380.525 397.77 380.137 397.808C372.801 398.006 365.422 398.064 358.067 398.249C356.797 398.28 356.175 397.797 355.569 396.768C346.65 381.626 334.746 369.244 320.58 358.973C307.259 349.353 292.413 342.052 276.665 337.379C275.26 336.954 274.433 336.536 274.287 334.789C273.901 330.096 273.233 325.419 272.615 320.745C270.414 304.174 268.208 287.603 265.997 271.031C265.928 270.405 266.02 269.772 266.263 269.191C272.399 254.745 274.596 239.425 276.132 223.962C276.974 215.508 277.623 207.007 277.723 198.518C277.836 191.092 277.418 183.668 276.472 176.302C275.495 168.957 271.719 163.135 264.078 160.873C261.536 160.163 258.946 159.637 256.329 159.3C243.333 157.437 230.337 155.597 217.333 153.861C213.043 153.289 208.703 153.061 204.387 152.678C206.147 151.008 207.954 149.388 209.653 147.653C222.548 134.62 237.085 123.327 252.897 114.059C271.094 103.328 290.403 95.0786 310.908 89.8753C319.908 87.5945 329.021 85.6733 338.152 83.9955C343.745 83.0184 349.397 82.4204 355.071 82.2057C365.673 81.7186 376.306 81.1774 386.905 81.4325C395.318 81.6258 403.716 82.8667 412.098 83.8177C417.025 84.3782 421.913 85.2867 426.816 86.0366C425.701 88.1782 424.577 90.3121 423.469 92.4576C422.218 94.8892 422.697 97.139 424.666 98.2137C426.782 99.3734 428.863 98.5577 430.26 96.0218C431.805 93.2385 433.345 90.4449 434.882 87.6409ZM434.241 130.048C433.369 128.664 432.909 127.609 432.16 126.828C430.581 125.177 428.851 123.677 427.187 122.108C424.013 119.12 420.859 116.112 417.666 113.143C415.87 111.477 413.639 111.442 412.102 112.973C410.565 114.504 410.616 116.897 412.38 118.694C412.832 119.151 413.318 119.576 413.785 120.016C418.161 124.14 422.531 128.256 426.894 132.364C428.202 133.601 429.77 134.296 431.345 133.284C432.473 132.553 433.214 131.231 434.241 130.048ZM473.685 148.99C475.002 148.379 475.94 148.14 476.627 147.591C481.878 143.403 487.1 139.178 492.292 134.915C494.28 133.284 494.527 130.98 493.064 129.267C491.6 127.555 489.369 127.477 487.346 129.101C484.226 131.606 481.125 134.126 478.021 136.658C475.855 138.417 473.651 140.138 471.546 141.951C470.249 143.079 469.681 144.699 470.627 146.203C471.346 147.332 472.654 148.089 473.685 148.998V148.99ZM368.951 193.446C368.971 191.049 367.793 189.53 365.936 189.194C363.974 188.838 362.237 189.89 361.55 192.054C359.503 198.497 357.501 204.957 355.542 211.433C354.831 213.753 355.862 215.717 357.963 216.374C360.063 217.031 362.102 215.906 362.851 213.494C364.789 207.309 366.705 201.123 368.6 194.938C368.793 194.312 368.901 193.682 368.951 193.458V193.446ZM355.465 122.491C356.237 123.855 356.53 124.945 357.237 125.626C362.128 130.339 367.057 134.997 372.025 139.6C373.743 141.201 376.129 141.112 377.588 139.554C379.098 137.938 378.99 135.727 377.272 134.018C376.21 132.959 375.094 131.958 374.001 130.926C370.205 127.351 366.411 123.777 362.619 120.202C361.279 118.942 359.642 118.497 358.121 119.429C357.059 120.09 356.38 121.397 355.465 122.491ZM351.677 152.183C350.021 152.311 348.831 153.413 348.256 155.338C347.129 159.087 345.94 162.818 344.781 166.548C343.959 169.2 343.028 171.821 342.314 174.504C341.681 176.901 342.754 178.756 344.885 179.41C345.346 179.558 345.832 179.613 346.314 179.571C346.796 179.529 347.265 179.392 347.694 179.167C348.123 178.942 348.502 178.634 348.811 178.261C349.12 177.888 349.351 177.457 349.492 176.994C351.635 170.287 353.739 163.556 355.712 156.799C356.43 154.414 354.53 152.199 351.677 152.183ZM392.92 196.925C395.26 196.891 396.967 194.741 396.198 192.078C394.281 185.429 392.282 178.801 390.202 172.196C389.55 170.105 387.6 169.185 385.608 169.738C383.523 170.314 382.337 172.177 382.978 174.396C384.909 181.114 386.963 187.802 389.017 194.498C389.542 196.183 390.816 196.999 392.92 196.925ZM407.117 137.091C407.222 134.563 405.99 132.959 404.029 132.553C402.237 132.166 400.391 133.245 399.751 135.259C397.708 141.634 395.727 148.016 393.758 154.422C392.963 157.012 393.928 159.111 396.125 159.779C398.322 160.448 400.241 159.227 401.063 156.606C402.685 151.445 404.268 146.269 405.866 141.1C406.337 139.6 406.801 138.112 407.117 137.091ZM390.303 119.912C391.878 119.703 393.268 119.011 393.835 117.206C395.89 110.615 397.978 104.032 399.982 97.4251C400.135 96.9474 400.193 96.4442 400.151 95.9443C400.109 95.4444 399.969 94.9577 399.74 94.512C399.51 94.0663 399.194 93.6704 398.811 93.3471C398.428 93.0237 397.985 92.7793 397.507 92.6277C397.029 92.472 396.524 92.414 396.023 92.4572C395.522 92.5005 395.034 92.6441 394.59 92.8796C394.145 93.115 393.752 93.4374 393.434 93.8278C393.116 94.2182 392.88 94.6685 392.739 95.152C390.619 101.724 388.542 108.296 386.584 114.933C386.411 115.512 386.375 116.124 386.48 116.719C386.585 117.315 386.828 117.877 387.19 118.361C387.551 118.845 388.021 119.238 388.562 119.507C389.103 119.777 389.699 119.915 390.303 119.912ZM454.581 121.76C461.118 120.264 468.345 118.667 475.523 116.908C477.346 116.456 478.164 114.353 477.697 112.556C477.207 110.669 475.457 109.316 473.504 109.73C466.554 111.196 459.604 112.742 452.654 114.369C450.724 114.825 449.654 116.835 450.017 118.683C450.38 120.531 451.944 121.764 454.581 121.76Z" fill="#ECEBEA"/>
<path d="M204.395 152.693C208.711 153.08 213.051 153.304 217.341 153.876C230.352 155.612 243.348 157.452 256.337 159.315C258.954 159.653 261.544 160.178 264.086 160.889C271.727 163.15 275.503 168.957 276.48 176.317C277.426 183.683 277.844 191.107 277.731 198.533C277.63 207.038 276.982 215.543 276.14 223.978C274.596 239.413 272.406 254.741 266.271 269.207C266.028 269.787 265.936 270.421 266.005 271.047C268.193 287.618 270.399 304.189 272.623 320.76C273.24 325.434 273.901 330.111 274.295 334.804C274.441 336.552 275.268 336.969 276.673 337.394C292.42 342.068 307.267 349.368 320.588 358.988C334.754 369.26 346.658 381.642 355.577 396.784C356.183 397.812 356.805 398.295 358.075 398.264C365.43 398.079 372.789 398.021 380.144 397.824C380.533 397.786 380.909 397.665 381.247 397.47C381.586 397.274 381.878 397.009 382.106 396.691C396.446 372.982 416.882 356.29 441.743 344.693C443.164 344.032 443.492 343.251 443.604 341.821C444.763 327.216 445.832 312.603 447.303 298.03C448.99 281.322 450.855 264.626 453.014 247.976C456.334 222.385 459.84 196.871 465.84 171.744C466.257 170.016 466.863 168.33 467.288 166.602C468.002 163.688 469.875 162.095 472.662 161.121C479.875 158.604 487.365 157.641 494.898 156.926C508.564 155.676 522.316 155.691 535.979 156.969C540.879 157.413 545.751 158.194 550.651 158.817C551.284 158.894 551.921 158.94 552.555 159.002C559.555 160.893 566.659 162.481 573.528 164.754C580.887 167.205 587.647 170.94 592.767 177.044C595.533 180.258 597.222 184.26 597.597 188.486C597.627 188.946 597.759 189.392 597.985 189.793C598.211 190.194 598.524 190.539 598.902 190.802C599.279 191.065 599.711 191.24 600.165 191.313C600.619 191.385 601.083 191.355 601.524 191.223C605.064 190.183 607.972 191.351 610.551 193.709C613.902 196.77 615.408 199.708 616.891 206.079C619.814 205.437 622.821 205.693 624.937 202.5C627.165 199.117 630.767 197.401 634.856 196.786C635.555 196.682 636.377 195.92 636.725 195.24C637.736 193.284 638.416 191.154 639.427 189.213C640.926 186.399 642.671 185.629 645.644 186.836C647.706 187.678 649.119 187.396 650.428 185.749C650.774 185.381 651.163 185.056 651.586 184.779C654.478 182.568 655.64 182.425 658.717 184.392C660.03 185.239 661.065 185.382 662.374 184.505C665.98 182.085 669.671 182.278 673.119 184.709C676.13 186.832 678.964 189.221 681.795 191.594C682.594 192.263 683.52 193.21 683.671 194.146C684.123 196.96 686.177 197.49 688.362 198.398C695.578 201.44 699.521 207.444 701.331 214.704C703.921 224.831 702.89 235.546 698.416 244.992C694.636 253.168 688.725 257.041 679.536 257.845C679.061 262.693 678.586 267.575 678.115 272.377C678.273 272.585 678.351 272.786 678.439 272.79C681.227 272.968 681.547 274.913 681.605 277.112C681.81 284.685 682.092 292.254 682.258 299.827C682.578 314.552 682.841 329.273 683.123 343.997C683.273 351.729 683.432 359.433 683.547 367.153C683.675 375.804 683.756 384.46 683.864 393.111C683.877 393.402 683.908 393.691 683.957 393.977C690.744 393.977 697.47 394.024 704.161 393.977C714.806 393.881 725.455 393.718 736.1 393.567C737.37 393.567 738.521 393.521 737.752 395.69C732.382 395.69 726.895 395.647 721.405 395.69C704.185 395.847 686.964 396.029 669.744 396.235C657.742 396.366 645.738 396.508 633.732 396.66L597.505 397.089L561.277 397.522L525.276 397.951L489.052 398.38L453.253 398.809L416.813 399.239L380.801 399.668L344.368 400.097C332.51 400.241 320.65 400.384 308.789 400.526L272.117 400.982L236.746 401.407L199.877 401.84C187.947 401.979 176.017 402.122 164.089 402.269L127.649 402.698L91.8497 403.128L55.4055 403.557C43.4016 403.7 31.3977 403.87 19.3937 403.974C12.9806 404.032 6.56356 403.974 0.127238 403.974C-0.139172 402.281 -0.139172 402.265 1.67165 402.25C12.2508 402.165 22.83 402.057 33.4092 402.018C43.9074 401.976 54.4055 402.018 65.1198 402.018C64.9461 398.632 64.8495 395.79 64.6449 392.961C63.7028 379.929 62.7144 366.902 61.7723 353.87C60.8611 341.26 59.9602 328.65 59.0696 316.04C58.2588 304.644 57.4493 293.248 56.641 281.852C56.5406 280.425 56.5831 278.991 56.4866 277.564C56.3244 275.191 56.1198 272.837 59.6719 272.864C59.1738 267.734 58.6989 262.848 58.2125 257.811C50.2433 257.722 44.3321 253.945 40.6371 247.187C38.6341 243.427 37.1569 239.409 36.2471 235.246C34.5946 227.932 34.4131 220.467 36.8378 213.242C39.5019 205.318 44.2626 199.303 52.7298 197.269C55.7723 189.476 61.8804 185.166 69.4017 182.896C71.1816 182.359 73.6797 183.94 75.7608 184.771C76.8651 185.212 77.6141 185.266 78.672 184.597C82.2241 182.351 83.5137 182.417 86.6489 185.227C88.4288 186.82 89.8497 187.933 92.5331 186.716C95.1122 185.556 96.8188 186.495 98.1933 189.066C99.2628 191.069 99.981 193.257 101.031 195.251C101.228 195.618 101.497 195.942 101.823 196.202C102.148 196.463 102.522 196.655 102.923 196.767C106.757 197.37 110.074 198.966 112.437 202.005C113.981 204.003 115.912 204.432 117.564 204.579L126.325 192.816C126.412 192.702 126.507 192.594 126.607 192.491C131.082 187.729 133.012 187.4 138.846 190.52C141.757 187.984 144.916 186.267 148.838 189.283C147.834 185.885 146.777 182.9 146.085 179.835C144.244 171.643 147.074 164.805 154.074 160.212C159.746 156.486 166.186 154.986 172.754 153.896C183.244 152.183 193.827 152.62 204.395 152.693ZM191.618 241.52L191.684 241.489L190.356 241.516C190.229 241.488 190.097 241.488 189.97 241.516L189.491 241.957H189.514C186.313 242.657 183.101 243.306 179.923 244.095C179.621 244.203 179.345 244.376 179.117 244.601C178.888 244.827 178.711 245.1 178.599 245.401C177.344 249.712 176.101 254.034 175.043 258.398C174.097 262.264 173.56 266.222 174.449 270.301L183.379 269.837L191.576 320.478L218.835 315.974C219.534 318.835 220.117 321.251 220.707 323.667C223.101 333.428 225.522 343.181 227.881 352.954C228.433 355.243 228.453 357.434 227.426 359.781C225.622 363.91 225.58 368.347 226.182 372.99C227.576 372.897 228.854 372.905 230.101 372.72C241.418 371.011 251.449 366.217 260.758 359.769C265.302 356.623 269.534 353.078 272.461 348.296C273.236 347.059 273.61 345.613 273.534 344.156C272.6 335.419 271.495 326.698 270.379 317.981C268.912 306.569 267.413 295.163 265.881 283.761C265.306 279.405 264.684 275.056 264.098 270.803C260.711 270.803 257.557 270.637 254.445 270.857C251.955 271.031 250.584 269.937 250.101 267.738C249.14 263.358 248.329 258.943 247.549 254.525C247.46 254.03 247.862 253.334 248.225 252.889C252.086 248.181 252.731 242.993 250.484 237.426C249.14 234.11 246.623 232.219 242.986 231.945C237.819 231.558 234.812 233.769 234.078 238.872C233.769 241.037 233.931 243.279 233.982 245.483C234.012 246.72 234.26 247.953 234.426 249.302C231.306 249.302 228.92 248.312 226.978 246.376C226.467 245.811 226.146 245.1 226.059 244.342C224.989 235.552 224.128 226.734 222.912 217.962C222.036 211.592 220.503 205.368 217.121 199.739C215.769 197.493 214.001 196.214 211.398 196.43C208.287 196.693 205.167 196.991 202.093 197.532C196.985 198.433 191.935 199.705 186.815 200.501C183.669 200.992 180.433 200.888 177.209 201.05C178.128 203.532 179.167 205.878 179.854 208.325C180.541 210.772 180.827 213.351 181.429 215.852C181.549 216.331 182.279 216.884 182.815 217.011C185.178 217.545 187.607 217.785 189.939 218.434C191.142 218.743 192.226 219.406 193.051 220.336C197.186 225.543 197.271 233.866 193.437 239.402C193.1 239.941 192.794 240.5 192.522 241.076H192.549L191.618 241.52ZM599.852 361.625L599.443 361.834C599.443 367.551 599.389 373.269 599.404 378.982C599.404 383.98 599.497 388.979 599.543 393.977L599.786 395.183H626.4C626.829 391.774 627.238 388.82 627.52 385.855C627.559 385.442 627.018 384.897 626.632 384.533C623.323 381.39 620.115 378.12 616.632 375.182C611.142 370.543 605.458 366.132 599.852 361.625ZM595.883 270.355C593.18 270.741 594.725 273.204 593.493 274.572L595.833 275.102L599.431 276.003V307.551C599.431 324.077 599.431 340.603 599.489 357.129C599.576 358.117 600.036 359.035 600.775 359.696C608.717 366.554 616.729 373.33 624.713 380.122C625.702 380.965 626.698 381.792 627.906 382.829C629.018 371.846 630.061 361.265 631.173 350.696C632.532 337.777 633.875 324.85 635.362 311.946C636.841 299.259 638.524 286.591 640.092 273.911C640.234 272.752 640.725 272.149 641.945 272.017C644.053 271.793 646.146 271.437 648.289 271.128C648.428 269.624 648.401 268.24 648.709 266.934C649.119 265.21 648.254 264.796 646.856 264.328C643.3 263.137 639.906 261.286 636.269 260.563C631.733 259.658 627.852 257.432 623.667 255.835C619.146 254.107 614.134 253.666 609.211 252.638C607.979 261.042 604.937 268.001 595.883 270.355ZM201.159 399.977C194.595 357.148 189.221 314.389 181.68 271.913C180.8 271.913 180.228 271.89 179.665 271.913C167.093 272.527 154.692 274.367 142.375 276.938C140.398 277.348 140.101 278.167 140.101 279.907C140.145 319.338 140.155 358.768 140.132 398.199V400.731L201.159 399.977ZM353.758 398.322L354.013 397.603C335.457 367.737 308.384 349.251 274.82 338.686C274.974 339.888 274.978 340.673 275.206 341.392C276.329 345.339 275.268 348.679 272.503 351.578C272.406 351.682 272.325 351.802 272.233 351.914C265.561 359.889 256.978 365.205 247.642 369.387C240.912 372.406 233.955 374.71 226.433 374.776C224.947 374.776 224.472 374.227 224.275 372.843C223.537 367.872 224.12 362.793 225.966 358.119C226.267 357.346 226.545 356.418 226.395 355.652C224.912 348.257 223.333 340.881 221.711 333.169L193.854 336.695C194.294 339.633 194.688 342.161 195.055 344.693C197.649 362.568 200.236 380.443 202.815 398.318C203.008 399.687 203.588 400.054 204.912 400.004C209.267 399.838 213.622 399.741 217.978 399.683C230.189 399.521 242.404 399.375 254.623 399.246C266.484 399.107 278.343 398.965 290.202 398.821C307.211 398.638 324.218 398.467 341.221 398.307C345.391 398.276 349.577 398.322 353.758 398.322ZM597.505 395.261C597.551 394.75 597.601 394.488 597.601 394.201C597.601 355.907 597.617 317.613 597.647 279.319C597.647 277.947 597.339 277.313 595.844 277.073C587.535 275.751 579.269 274.159 570.941 272.968C566.095 272.272 561.161 272.152 556.072 271.758C548.628 313.222 543.184 354.593 536.817 395.999L597.505 395.261ZM121.012 400.924C117.707 384.151 114.514 367.756 111.236 351.381C106.186 326.118 101.074 300.859 96.0196 275.608C95.7686 274.356 95.4018 273.714 94.0273 273.675C87.6103 273.455 81.1894 272.852 74.7801 272.987C69.8882 273.096 65.0117 274.101 60.1314 274.719C58.8341 274.882 58.1584 275.442 58.2704 276.946C58.6565 281.863 58.8379 286.796 59.1854 291.713C59.9576 302.692 60.8071 313.663 61.6063 324.638C62.3785 335.261 63.1391 345.882 63.8882 356.503C64.7144 368.048 65.5381 379.595 66.3592 391.144C66.6063 394.623 66.811 398.071 67.0387 401.581L121.012 400.924ZM628.431 394.46H682.177C681.405 354.404 680.632 314.784 679.837 275.063C676.15 274.487 672.999 273.865 669.798 273.517C660.972 272.551 652.13 272.357 643.323 273.764C642.76 273.853 641.929 274.592 641.852 275.117C640.891 281.689 639.972 288.261 639.192 294.852C638.08 304.284 637.072 313.728 636.053 323.169C634.926 333.678 633.817 344.189 632.729 354.701C631.789 363.577 630.85 372.453 629.91 381.329C629.451 385.766 628.918 390.189 628.431 394.46ZM143.931 274.572C143.738 273.519 143.491 272.476 143.19 271.449C143.035 271.016 142.587 270.451 142.194 270.374C134.858 268.952 131.344 263.849 129.406 257.231C129.058 256.04 128.873 254.799 128.595 253.5C121.232 255.313 113.773 255.781 107.012 259.148C105.467 259.921 103.502 259.701 101.842 260.273C97.8883 261.626 93.9887 263.149 90.1006 264.692C89.6103 264.889 88.9964 265.6 89.0002 266.072C89.0002 267.761 89.2667 269.446 89.4327 271.151C91.6103 271.46 93.5717 271.843 95.5524 271.994C97.0003 272.102 97.4482 272.813 97.6644 274.128C98.2049 277.437 98.8227 280.73 99.5022 284.016C105.041 311.473 110.594 338.929 116.159 366.384C116.668 368.908 117.236 371.409 117.773 373.922C124.136 369.213 130.232 364.621 136.433 360.179C137.688 359.278 138.155 358.436 138.151 356.905C138.102 330.785 138.091 304.662 138.116 278.535V276.061L143.931 274.572ZM172.093 270.32C172.252 267.332 172.028 264.204 172.653 261.263C174.116 254.366 176.128 247.589 177.649 240.701C179.754 231.087 180.904 221.372 178.742 211.596C177.433 205.689 175.267 200.122 170.916 195.688C170.156 194.939 169.252 194.351 168.259 193.96C166.9 193.411 165.838 194.111 164.865 195.12C163.892 196.129 164.518 196.828 164.823 197.795C166.248 202.264 167.564 206.771 168.877 211.279C169.263 212.635 168.522 212.887 167.333 212.674C167.132 211.82 166.927 211 166.75 210.173C165.425 203.93 163.753 197.834 159.468 192.824C156.576 189.441 154.379 189.545 151.865 193.21C156.197 200.888 157.842 206.396 157.143 210.857C155.58 211.375 155.599 210.362 155.53 209.28C154.981 202.681 152.672 196.801 148.259 191.815C145.529 188.722 143.263 188.795 140.502 192.043C145.966 197.733 147.777 204.896 148.773 212.531C148.463 212.614 148.149 212.674 147.831 212.713C147.56 212.713 147.286 212.67 147.553 212.693C146.035 207.962 144.823 203.416 143.105 199.071C141.748 195.552 139.099 192.686 135.699 191.061C133.769 190.125 132.039 190.168 130.36 191.645C126.224 195.283 122.845 199.7 120.414 204.645C120.34 204.796 120.456 205.032 120.487 205.26L129.618 207.115C129.807 206.841 129.985 206.539 130.197 206.272C131.943 204.065 134 204.34 135.024 206.988C135.486 208.258 135.765 209.589 135.85 210.938C136.36 217.278 135.379 223.471 133.946 229.625C132.298 236.711 130.356 243.747 130.51 251.131C130.719 261.158 135.309 267.015 144.599 268.874C145.016 270.618 145.445 272.4 145.842 274.066L172.093 270.32ZM570.327 212.527L569.728 212.968C569.427 212.423 568.763 211.781 568.883 211.348C570.084 206.883 571.319 202.422 572.763 198.035C573.188 196.743 573.713 195.796 572.466 194.698C571.219 193.601 569.983 193.373 568.771 194.273C567.307 195.363 565.767 196.539 564.748 198.015C560.825 203.706 558.705 210.096 558.111 216.984C557.338 225.771 558.64 234.38 560.497 242.912C562.466 251.989 566.674 260.66 565.269 270.247L591.871 274.112C592.335 272.179 592.763 270.405 593.203 268.565C593.875 268.565 594.362 268.604 594.867 268.565C595.364 268.519 595.854 268.422 596.331 268.275C602.219 266.458 605.184 262.005 606.559 256.392C607.968 250.647 607.049 244.899 605.976 239.185C604.516 231.411 602.887 223.653 601.844 215.821C601.458 212.891 602.122 209.709 602.837 206.771C603.4 204.452 606.142 203.984 607.211 205.959C608.219 207.819 609.493 207.672 611.053 207.463C612.242 207.301 613.435 207.181 614.605 207.042C615.014 203.412 612.833 198.41 609.586 195.406C606.037 192.132 602.25 191.927 598.389 194.838C595.589 196.941 593.983 199.902 592.983 203.13C592.006 206.222 591.373 209.446 590.427 213.254C589.84 212.481 589.08 211.928 589.145 211.495C590.215 204.355 591.794 197.424 598.176 192.599C597.481 191.996 596.879 191.397 596.207 190.906C593.505 188.923 591.96 189.074 589.728 191.567C588.876 192.53 588.08 193.542 587.346 194.598C583.968 199.473 582.381 204.954 581.806 211.043C581.161 210.714 580.516 210.27 580.458 209.763C580.396 208.764 580.461 207.761 580.651 206.779C581.364 201.93 583.161 197.305 585.91 193.249C583.342 189.592 581.076 189.259 578.574 192.626C576.415 195.535 574.627 198.702 573.253 202.055C571.86 205.376 571.261 209.025 570.327 212.527ZM527.763 197.787C527.377 198.947 526.952 199.828 526.79 200.76C525.906 205.82 524.786 210.861 524.303 215.964C523.005 229.415 522.618 242.939 523.145 256.442C523.701 270.008 524.275 283.572 524.867 297.133C525.161 303.759 525.543 310.377 525.886 317.034L545.999 320.513L554.257 270.076H563.454C563.454 267.533 563.875 264.893 563.369 262.442C562.145 256.515 560.419 250.694 559.057 244.791C558.771 243.558 558.203 243.148 557.126 242.924C554.265 242.32 551.427 241.594 548.551 241.091C547.706 240.97 546.903 240.645 546.21 240.146C545.518 239.647 544.956 238.987 544.574 238.223C541.952 233.422 541.508 228.497 543.736 223.425C544.817 220.955 546.261 218.96 549.354 218.971C550.195 218.971 551.037 218.689 551.875 218.511C555.987 217.638 555.987 217.634 556.628 213.559C556.625 213.427 556.598 213.296 556.547 213.173C548.779 212.744 541.026 212.172 533.265 211.963C530.686 211.893 529.663 210.85 529.327 208.584C528.836 205.113 528.323 201.618 527.763 197.787ZM383.631 397.843L441.261 397.12C441.855 380.041 442.442 363.241 443.04 346.092C418.287 357.713 398.09 374.123 383.631 397.843ZM118.997 232.173C118.719 228.466 118.645 225.524 118.244 222.632C117.425 216.745 116.132 210.958 112.966 205.809C110.209 201.324 106.274 198.634 100.857 198.58C91.7493 198.487 83.4327 205.032 81.0504 214.522C78.6762 223.994 78.7134 233.911 81.1585 243.364C83.0427 250.837 86.8612 256.867 95.3362 258.054C106.591 259.624 114.881 255.781 117.661 243.534C118.556 239.595 118.63 235.47 118.997 232.173ZM75.5175 227.024C75.4326 220.9 74.3091 213.981 70.672 207.695C67.9693 203.033 64.2858 199.612 58.7028 199.001C50.9808 198.162 44.6641 201.869 40.583 209.295C36.8919 216.003 36.6757 223.239 37.3668 230.557C37.9691 236.936 39.5521 243.082 43.5444 248.309C47.5908 253.608 52.8302 256.674 59.6372 255.653C66.0928 254.679 70.3863 250.744 72.6951 244.644C74.7067 239.27 75.5214 233.719 75.5175 227.024ZM534.894 396.038C537.84 376.226 540.755 356.607 543.701 336.822L526.813 334.414C528.049 355.204 529.265 375.623 530.481 396.038H534.894ZM658.501 228.47C658.076 224.573 657.872 220.638 657.184 216.787C655.424 206.941 649.111 200.551 639.547 198.792C635.061 197.969 631.053 199.179 627.671 202.271C624.914 204.803 623.3 208.07 622.103 211.549C618.806 221.125 618.277 230.963 619.574 240.929C620.08 244.795 621.211 248.471 623.543 251.664C627.482 257.057 633.045 258.522 639.373 258.336C646.96 258.112 652.188 254.617 655.103 247.593C657.659 241.462 658.219 235.026 658.501 228.458V228.47ZM138.012 400.719V361.59C137.763 361.647 137.523 361.737 137.298 361.857C131.217 366.496 125.124 371.081 119.097 375.774C118.637 376.133 118.375 377.127 118.471 377.753C118.888 380.428 119.491 383.072 119.997 385.736C120.946 390.761 121.881 395.786 122.807 400.723L138.012 400.719ZM700.64 225.215C700.818 217.819 699.123 211.031 694.354 205.206C689.683 199.5 681.968 197.292 675.435 199.909C670.775 201.78 667.891 205.492 665.903 209.902C661.918 218.736 661.447 227.986 663.096 237.403C663.918 242.077 665.181 246.681 668.42 250.319C675.432 258.228 687.169 257.451 693.876 248.672C699.173 241.748 700.409 233.619 700.64 225.218V225.215ZM114.483 254.378C119.043 253.473 123.166 252.696 127.263 251.788C127.577 251.669 127.859 251.478 128.086 251.23C128.314 250.982 128.48 250.685 128.572 250.361C129.73 243.697 130.603 236.978 131.885 230.341C133.043 224.306 134.437 218.33 134.174 212.117C134.105 210.505 133.61 209.701 131.927 209.439C128.56 208.913 125.224 208.198 121.888 207.54C119.865 207.154 117.846 206.713 115.583 206.249C119.946 216.331 121.325 226.463 120.471 236.97C119.954 243.183 118.919 249.163 114.483 254.378ZM640.845 260.656L650.856 263.644C650.663 266.141 650.47 268.519 650.316 270.537L676.258 271.971L677.574 258.116C674.598 256.57 671.914 255.155 669.215 253.782C668.704 253.534 668.163 253.352 667.605 253.241C664.13 252.491 660.655 251.718 657.154 251.084C656.555 250.976 655.524 251.293 655.223 251.753C651.887 257.041 647.022 259.67 640.845 260.656ZM96.9269 260.687C89.3091 258.897 87.7377 257.981 83.0272 252.511C82.7954 252.282 82.5162 252.106 82.2094 251.997C81.9025 251.887 81.5755 251.846 81.2512 251.877C74.0774 253.226 66.8573 254.447 60.1468 257.896C60.6063 262.658 61.0773 267.533 61.5059 271.99L87.4674 270.533C87.3246 268.932 87.2396 267.081 86.9732 265.256C86.7763 263.887 87.4134 263.369 88.5832 263.052C91.3593 262.287 94.1238 261.471 96.9192 260.679L96.9269 260.687ZM193.553 334.828L220.823 331.399C219.665 327.015 218.538 322.643 217.348 318.027L191.719 322.38C192.325 326.601 192.935 330.68 193.553 334.828ZM66.0426 199.001C68.8071 195.402 69.5175 195.197 74.2743 196.886C75.4094 197.292 76.5214 197.88 77.6952 198.046C79.9153 198.363 82.1971 198.719 84.394 198.487C85.4674 198.375 87.0311 197.103 87.228 196.121C87.4249 195.139 86.4327 193.469 85.479 192.878C81.0118 190.11 76.4056 187.562 71.7801 185.065C70.8952 184.656 69.889 184.595 68.9615 184.895C63.7492 186.785 59.3862 189.92 56.1236 194.443C55.7532 195.051 55.454 195.7 55.2317 196.376L66.0426 199.001ZM682.582 196.365C682.405 195.852 682.178 195.359 681.903 194.892C678.621 190.079 673.813 186.514 668.258 184.775C667.448 184.589 666.598 184.706 665.868 185.104C661.489 187.462 657.13 189.862 652.837 192.371C651.443 193.187 649.864 194.277 650.401 196.237C650.953 198.255 652.899 198.599 654.648 198.908C655.356 199.011 656.077 198.966 656.767 198.777C658.899 198.236 661.045 197.714 663.119 196.991C668.223 195.22 668.64 195.29 671.706 199.016L682.582 196.365ZM179.839 242.1C183.383 241.296 186.916 240.554 190.422 239.649C190.954 239.514 191.41 238.853 191.781 238.347C195.109 233.797 195.221 226.552 191.935 222.014C191.31 221.182 190.432 220.576 189.433 220.286C186.974 219.66 184.445 219.308 182.244 218.902C181.433 226.587 180.645 234.16 179.839 242.1ZM525.979 318.943C526.246 323.582 526.497 328.043 526.751 332.508L544.029 334.971L545.871 322.388L525.979 318.943ZM82.5948 205.441L70.0696 203.122C71.1739 204.95 72.1469 206.35 72.9152 207.857C75.8195 213.514 77.2786 219.803 77.1624 226.162L77.3129 226.127C77.811 222.648 78.0234 219.045 78.8882 215.628C79.7531 212.21 81.2898 208.951 82.5948 205.441ZM81.1006 249.897C80.1508 246.318 79.0967 243.059 78.4635 239.723C77.8457 236.472 77.6604 233.151 77.4288 231.118C77.004 233.684 76.7029 237.55 75.6565 241.203C74.6102 244.856 72.8071 248.359 71.3515 251.888L81.1006 249.897ZM93.5331 197.841C91.8414 193.331 88.9297 189.381 85.1238 186.434C82.6025 184.416 82.1122 184.45 79.4133 186.631C80.1006 187.056 80.7685 187.404 81.3902 187.856C83.5407 189.364 85.811 190.736 87.7802 192.452C89.6836 194.107 89.8381 196.473 88.4249 198.185C87.7763 198.959 86.8574 199.55 85.5678 200.636C86.7686 200.71 87.6759 201.023 88.3053 200.756C90.035 199.964 91.6489 198.904 93.5331 197.83V197.841ZM652.177 200.427C647.543 197.52 647.285 194.378 650.964 191.436C652.018 190.593 653.157 189.859 654.289 189.116C655.625 188.25 656.991 187.435 658.35 186.596L658.296 185.823C656.937 185.637 655.208 184.818 654.285 185.37C649.47 188.277 646.215 192.584 644.034 198.197C646.922 198.278 648.466 201.819 652.177 200.416V200.427ZM652.049 202.65C652.941 204.112 653.98 204.746 655.91 204.274C659.771 203.331 663.744 202.82 667.636 201.981C668.551 201.784 669.335 200.996 670.181 200.482C669.408 199.589 668.756 198.437 667.775 197.899C667.161 197.567 666.026 198.112 665.15 198.352C662.343 199.125 659.586 200.238 656.733 200.601C654.821 200.833 653.3 201.243 652.042 202.639L652.049 202.65ZM85.73 203.087V202.399C84.7724 201.838 83.8805 201.042 82.8496 200.76C79.4481 199.836 75.9654 199.214 72.5716 198.255C69.7067 197.462 69.0272 197.667 67.6102 200.621C72.9191 201.649 78.1932 202.708 83.4867 203.648C84.1701 203.771 84.9771 203.288 85.73 203.087ZM642.103 197.289L646.775 189.14C644.93 188.753 642.941 186.986 641.489 189.545C640.219 191.776 639.273 194.184 638.126 196.639L642.103 197.289ZM95.6489 197.289L99.4134 196.685C99.259 196.229 99.1625 195.889 99.0273 195.568C98.4327 194.115 97.869 192.65 97.2242 191.227C95.6798 187.852 94.2397 187.466 91.0891 189.402C92.5408 191.915 94.0003 194.436 95.6412 197.281L95.6489 197.289ZM149.182 189.375L148.773 189.17C148.738 189.279 148.649 189.422 148.688 189.487C148.785 189.608 148.901 189.712 149.031 189.797L149.182 189.375Z" fill="#272222"/>
<path d="M534.697 111.473C533.755 112.552 533.052 113.835 531.971 114.466C530.427 115.359 528.832 114.852 527.496 113.569C523.886 110.124 520.238 106.711 516.604 103.29C515.357 102.13 514.064 100.97 512.871 99.7603C511.184 98.0323 511.137 95.8018 512.666 94.2245C514.114 92.7362 516.326 92.6357 518.041 94.2245C523.078 98.8634 528.065 103.556 533.002 108.304C533.705 108.965 533.979 110.082 534.697 111.473Z" fill="#FF8025"/>
<path d="M498.639 66.1204C497.601 67.3265 496.898 68.6022 495.817 69.2903C494.249 70.2915 492.655 69.6459 491.346 68.4128L479.643 57.4031C478.709 56.5217 477.751 55.6635 476.832 54.7628C475.01 52.973 474.871 50.6999 476.446 49.0609C478.021 47.4218 480.187 47.4527 481.987 49.1304C486.848 53.6572 491.697 58.1956 496.477 62.8036C497.299 63.5883 497.759 64.7364 498.639 66.1204Z" fill="#FF8025"/>
<path d="M183.398 93.7371C182.487 94.9355 181.9 96.4702 180.881 96.849C179.676 97.3013 177.792 97.2356 176.734 96.5591C172.34 93.7758 168.139 90.6754 163.869 87.6911C162.583 86.7942 161.267 85.9283 160.008 84.9851C158.097 83.5238 157.738 81.3319 159.039 79.5266C160.24 77.8605 162.468 77.4585 164.363 78.7535C170.012 82.6192 175.641 86.543 181.19 90.5595C182.089 91.1934 182.541 92.4421 183.398 93.7371Z" fill="#FF8025"/>
<path d="M434.882 87.6413C433.337 90.4401 431.793 93.2389 430.249 96.0377C428.851 98.5736 426.774 99.3854 424.654 98.2296C422.677 97.1549 422.206 94.905 423.457 92.4735C424.565 90.328 425.689 88.1941 426.805 86.0525L432.538 75.5802C433.882 73.1293 436.098 72.2673 438.175 73.3845C440.187 74.4707 440.615 76.5969 439.303 79.1328C437.851 81.9741 436.361 84.8039 434.882 87.6413Z" fill="#FF8025"/>
<path d="M166.803 52.5166C169.042 52.5398 170.278 53.541 170.818 55.412C171.359 57.2831 170.494 58.9183 168.444 59.9002C163.363 62.3356 158.259 64.7207 153.162 67.1214C152.065 67.6394 150.984 68.2076 149.857 68.6406C148.953 69.0257 147.935 69.0443 147.018 68.6924C146.101 68.3405 145.356 67.6457 144.941 66.7545C144.526 65.8633 144.473 64.8455 144.793 63.9157C145.113 62.986 145.781 62.2171 146.656 61.7712C152.95 58.7366 159.289 55.7986 165.618 52.8413C166.001 52.6934 166.398 52.5846 166.803 52.5166Z" fill="#FF8025"/>
<path d="M495.388 28.5109C492.74 28.565 491.095 27.2275 490.794 25.3255C490.508 23.4893 491.5 21.6453 493.404 21.1969C500.338 19.5501 507.288 17.9896 514.253 16.5155C516.265 16.0941 517.94 17.4278 518.435 19.3645C518.894 21.1428 518.014 23.2689 516.218 23.7058C509.103 25.4492 501.929 27.0187 495.388 28.5109Z" fill="#FF8025"/>
<path d="M461.566 95.9754L458.589 94.576C458.423 93.2848 457.817 91.87 458.164 90.7102C460.006 84.2699 462.049 77.8876 464.076 71.5014C464.813 69.182 466.628 68.0957 468.601 68.6098C470.805 69.1858 472.076 71.0646 471.384 73.3879C469.415 80.1259 467.3 86.7711 465.168 93.4279C464.647 95.1017 463.269 95.8362 461.566 95.9754Z" fill="#FF8025"/>
<path d="M489.256 78.9659C491.496 79.1089 492.731 80.056 493.268 81.8188C495.237 88.3016 497.202 94.7883 499.117 101.287C499.801 103.606 498.731 105.639 496.643 106.239C494.488 106.857 492.577 105.852 491.843 103.475C489.863 97.0691 487.913 90.652 486.052 84.2117C485.21 81.3201 486.959 78.9079 489.256 78.9659Z" fill="#FF8025"/>
<path d="M469.295 23.0482C469.341 22.8782 469.461 22.3254 469.627 21.7841C471.524 15.6479 473.425 9.5143 475.33 3.38324C476.191 0.634695 478.175 -0.544357 480.48 0.236522C482.538 0.932355 483.399 2.99279 482.619 5.53259C480.689 11.8763 478.716 18.2161 476.701 24.5366C476.002 26.7246 474.295 27.7026 472.284 27.2967C470.38 26.9101 469.237 25.4411 469.295 23.0482Z" fill="#FF8025"/>
<path d="M60.3821 143.976L76.4247 146.373C77.9691 146.605 79.5405 146.759 81.0579 147.092C83.2201 147.54 84.3398 149.342 83.9807 151.603C83.8203 152.531 83.3081 153.36 82.5512 153.918C81.7943 154.477 80.8512 154.721 79.9189 154.599C73.0746 153.622 66.2367 152.591 59.4053 151.506C57.1234 151.139 55.8068 149.318 56.0578 147.277C56.3088 145.236 57.9574 143.91 60.3821 143.976Z" fill="#FF8025"/>
<path d="M132.896 53.4138C132.663 54.0777 132.382 54.7237 132.054 55.3467C128.729 61.0164 125.383 66.6655 122.016 72.294C120.695 74.4936 118.483 75.1238 116.552 73.9563C114.73 72.8584 114.174 70.5661 115.394 68.5056C118.834 62.6568 122.309 56.8466 125.784 51.0248C126.8 49.3277 128.359 48.7053 130.182 49.262C131.915 49.7761 132.869 51.0789 132.896 53.4138Z" fill="#FF8025"/>
<path d="M66.3243 110.87C67.1097 111.14 67.8653 111.489 68.5791 111.914C73.9253 115.597 79.2497 119.314 84.5521 123.067C86.7452 124.613 87.2549 126.909 85.9421 128.784C84.6834 130.578 82.3938 130.856 80.2587 129.379C74.8069 125.599 69.3822 121.775 63.942 117.971C62.359 116.866 61.6949 115.37 62.3011 113.518C62.8493 111.875 64.054 110.967 66.3243 110.87Z" fill="#FF8025"/>
<path d="M460.755 49.2815C460.581 51.4231 459.639 52.7065 457.701 53.1201C455.763 53.5338 454.014 52.5905 453.361 50.5649C452.11 46.6991 450.991 42.787 449.813 38.8981C449.041 36.3042 448.191 33.7257 447.454 31.1163C446.759 28.65 447.817 26.5007 449.902 25.9517C452.133 25.3641 453.979 26.4659 454.747 28.967C456.678 35.2411 458.539 41.5306 460.423 47.8125C460.585 48.3537 460.674 48.9142 460.755 49.2815Z" fill="#FF8025"/>
<path d="M44.8375 94.6227C44.8375 97.7617 44.8645 100.905 44.8375 104.047C44.8104 107.19 43.4089 108.849 40.8761 108.81C38.4668 108.771 37.1656 107.136 37.1888 104.082C37.2351 97.7269 37.3162 91.3716 37.3741 85.0202C37.3934 82.9868 38.0343 81.1003 40.1695 80.7988C41.4282 80.6249 42.9996 81.3091 44.1232 82.0629C44.7371 82.4727 44.9185 83.8296 44.9456 84.7689C45.0382 88.0509 44.9842 91.3407 44.9842 94.6227H44.8375Z" fill="#FF8025"/>
<path d="M105.707 139.272C102.402 138.885 100.653 135.854 102.232 133.086C104.294 129.414 106.517 125.834 108.668 122.216C109.981 120.005 111.251 117.774 112.606 115.59C113.877 113.549 116.081 112.934 117.938 114.044C119.796 115.153 120.363 117.415 119.162 119.456C115.741 125.309 112.313 131.161 108.738 136.917C108.093 137.919 106.738 138.499 105.707 139.272Z" fill="#FF8025"/>
<path d="M126.506 156.281C126.506 159.637 126.533 162.992 126.506 166.332C126.479 168.849 125.07 170.279 122.738 170.275C120.475 170.275 118.919 168.729 118.939 166.282C118.993 159.502 119.091 152.721 119.232 145.94C119.278 143.567 120.977 141.978 123.17 142.055C125.363 142.133 126.85 143.764 126.861 146.207C126.881 149.563 126.861 152.918 126.861 156.258L126.506 156.281Z" fill="#FF8025"/>
<path d="M135.437 99.1298C135.437 102.342 135.487 105.559 135.437 108.771C135.379 111.593 133.919 113.147 131.529 113.104C129.139 113.062 127.788 111.473 127.815 108.609C127.884 102.039 127.982 95.4677 128.108 88.8933C128.151 86.4502 129.653 84.8459 131.857 84.8111C134.062 84.7763 135.618 86.3767 135.676 88.8392C135.757 92.2643 135.695 95.6893 135.695 99.1182L135.437 99.1298Z" fill="#FF8025"/>
<path d="M90.6255 106.737C88.4827 106.764 87.2008 105.883 86.6139 104.132C85.9962 102.292 86.807 100.424 88.722 99.4928C93.3553 97.2545 97.9885 95.1013 102.622 92.921C104.236 92.1479 105.83 91.3554 107.479 90.6789C108.372 90.3106 109.373 90.2984 110.275 90.6449C111.177 90.9913 111.912 91.6701 112.33 92.5422C112.749 93.4142 112.818 94.4134 112.524 95.3349C112.23 96.2563 111.595 97.0303 110.749 97.498C104.467 100.552 98.1275 103.498 91.7993 106.459C91.4213 106.601 91.0269 106.694 90.6255 106.737Z" fill="#FF8025"/>
<path d="M434.241 130.048C433.214 131.231 432.473 132.553 431.346 133.284C429.77 134.3 428.203 133.601 426.894 132.363C422.531 128.24 418.162 124.124 413.786 120.016C413.319 119.576 412.832 119.15 412.38 118.694C410.616 116.897 410.508 114.558 412.102 112.973C413.697 111.388 415.871 111.477 417.666 113.143C420.859 116.112 424.014 119.119 427.187 122.108C428.851 123.677 430.581 125.177 432.16 126.828C432.909 127.609 433.369 128.664 434.241 130.048Z" fill="#FF8025"/>
<path d="M473.686 148.998C472.655 148.09 471.346 147.332 470.628 146.199C469.682 144.707 470.242 143.087 471.547 141.947C473.651 140.119 475.856 138.414 478.022 136.655C481.111 134.134 484.226 131.602 487.346 129.097C489.369 127.474 491.593 127.551 493.064 129.264C494.535 130.976 494.28 133.28 492.292 134.911C487.103 139.179 481.881 143.404 476.628 147.587C475.941 148.163 475.002 148.387 473.686 148.998Z" fill="#FF8025"/>
<path d="M368.951 193.458C368.901 193.682 368.793 194.312 368.608 194.919C366.7 201.117 364.781 207.309 362.851 213.494C362.079 215.918 360.094 217.07 357.955 216.397C355.816 215.725 354.824 213.792 355.534 211.457C357.488 204.983 359.491 198.524 361.542 192.078C362.229 189.913 363.967 188.862 365.928 189.217C367.774 189.527 368.971 191.073 368.951 193.458Z" fill="#FF8025"/>
<path d="M355.465 122.491C356.38 121.397 357.052 120.09 358.121 119.437C359.642 118.501 361.28 118.946 362.619 120.21C366.411 123.789 370.205 127.364 374.002 130.933C375.094 131.962 376.21 132.963 377.272 134.026C378.99 135.735 379.098 137.946 377.589 139.562C376.129 141.108 373.727 141.208 372.025 139.608C367.059 134.992 362.13 130.334 357.237 125.633C356.53 124.945 356.218 123.855 355.465 122.491Z" fill="#FF8025"/>
<path d="M351.677 152.184C354.53 152.184 356.429 154.414 355.723 156.822C353.738 163.58 351.646 170.31 349.503 177.017C349.362 177.481 349.131 177.912 348.822 178.285C348.513 178.658 348.134 178.966 347.705 179.191C347.276 179.416 346.807 179.553 346.325 179.595C345.843 179.636 345.357 179.581 344.897 179.433C342.765 178.791 341.692 176.924 342.325 174.528C343.039 171.845 343.97 169.224 344.792 166.572C345.951 162.834 347.109 159.103 348.267 155.361C348.831 153.413 350.02 152.311 351.677 152.184Z" fill="#FF8025"/>
<path d="M392.921 196.926C390.817 196.999 389.542 196.183 389.017 194.486C386.963 187.802 384.917 181.115 382.979 174.384C382.338 172.166 383.523 170.302 385.608 169.726C387.6 169.173 389.55 170.113 390.203 172.185C392.262 178.793 394.261 185.42 396.199 192.066C396.967 194.741 395.261 196.891 392.921 196.926Z" fill="#FF8025"/>
<path d="M407.117 137.091C406.801 138.108 406.345 139.6 405.878 141.092C404.279 146.261 402.696 151.437 401.075 156.598C400.252 159.219 398.314 160.433 396.136 159.772C393.959 159.11 392.974 157.004 393.77 154.414C395.739 148.016 397.719 141.626 399.762 135.251C400.403 133.245 402.248 132.159 404.04 132.545C405.99 132.959 407.221 134.563 407.117 137.091Z" fill="#FF8025"/>
<path d="M390.302 119.912C389.697 119.916 389.099 119.777 388.557 119.507C388.014 119.237 387.543 118.843 387.181 118.357C386.819 117.87 386.577 117.306 386.473 116.708C386.369 116.111 386.407 115.497 386.584 114.917C388.542 108.295 390.619 101.708 392.739 95.1364C392.88 94.6529 393.116 94.2026 393.434 93.8122C393.752 93.4218 394.145 93.0994 394.589 92.8639C395.034 92.6285 395.522 92.4849 396.023 92.4416C396.524 92.3984 397.029 92.4563 397.507 92.6121C397.985 92.7636 398.428 93.0081 398.811 93.3315C399.194 93.6548 399.509 94.0507 399.739 94.4964C399.969 94.942 400.109 95.4288 400.151 95.9287C400.192 96.4286 400.135 96.9318 399.982 97.4095C397.978 104.016 395.889 110.599 393.835 117.19C393.268 119.011 391.878 119.703 390.302 119.912Z" fill="#FF8025"/>
<path d="M454.581 121.76C451.944 121.76 450.396 120.531 450.033 118.699C449.67 116.866 450.743 114.833 452.67 114.385C459.597 112.753 466.546 111.207 473.519 109.746C475.473 109.332 477.222 110.685 477.712 112.571C478.18 114.369 477.361 116.472 475.539 116.924C468.346 118.683 461.118 120.264 454.581 121.76Z" fill="#FF8025"/>
<path d="M192.491 241.076C192.763 240.501 193.069 239.942 193.406 239.402C197.267 233.863 197.167 225.544 193.02 220.337C192.195 219.406 191.112 218.744 189.908 218.435C187.591 217.801 185.147 217.546 182.784 217.012C182.248 216.888 181.518 216.336 181.398 215.852C180.796 213.363 180.514 210.788 179.823 208.326C179.132 205.863 178.097 203.532 177.178 201.05C180.402 200.888 183.638 200.993 186.784 200.502C191.904 199.705 196.954 198.433 202.062 197.533C205.151 196.991 208.24 196.694 211.368 196.431C213.97 196.214 215.738 197.494 217.09 199.74C220.476 205.369 222.009 211.592 222.881 217.963C224.09 226.734 224.958 235.552 226.028 244.343C226.115 245.1 226.436 245.811 226.947 246.376C228.877 248.309 231.275 249.303 234.395 249.303C234.229 247.953 233.982 246.72 233.951 245.483C233.901 243.28 233.738 241.038 234.047 238.873C234.781 233.77 237.789 231.559 242.955 231.945C246.607 232.22 249.109 234.11 250.453 237.427C252.7 242.982 252.04 248.17 248.194 252.89C247.831 253.335 247.422 254.05 247.518 254.525C248.291 258.944 249.109 263.358 250.07 267.738C250.553 269.938 251.924 271.032 254.414 270.858C257.542 270.638 260.696 270.804 264.067 270.804C264.654 275.056 265.275 279.405 265.85 283.762C267.364 295.166 268.863 306.572 270.349 317.981C271.464 326.699 272.569 335.42 273.503 344.156C273.581 345.617 273.206 347.065 272.43 348.304C269.503 353.086 265.271 356.631 260.727 359.778C251.418 366.226 241.387 371.019 230.07 372.728C228.823 372.913 227.545 372.906 226.151 372.998C225.549 368.36 225.592 363.918 227.395 359.789C228.422 357.443 228.402 355.251 227.85 352.962C225.491 343.19 223.07 333.437 220.676 323.676C220.086 321.259 219.518 318.843 218.804 315.983L191.526 320.486L183.329 269.845L174.433 270.282C173.545 266.204 174.082 262.261 175.028 258.379C176.086 254.015 177.344 249.693 178.584 245.383C178.696 245.081 178.872 244.808 179.101 244.583C179.33 244.357 179.605 244.184 179.908 244.076C183.086 243.303 186.298 242.638 189.499 241.938C189.672 242.627 189.846 243.315 190.016 243.995C193.966 243.798 196.506 241.676 197.572 237.756C196.117 237.095 196.267 237.207 195.422 238.339C194.634 239.395 193.483 240.168 192.491 241.076ZM189.491 215.524C190.109 216.254 190.503 217.124 190.889 217.116C194.228 217.082 195.422 219.467 196.325 221.972C196.815 223.325 197.368 223.441 198.452 222.904C197.418 217.584 194.418 214.909 189.491 215.524Z" fill="#FFFEFF"/>
<path d="M201.159 399.977L140.131 400.712V398.18C140.131 358.749 140.121 319.319 140.101 279.888C140.101 278.149 140.398 277.329 142.375 276.919C154.691 274.368 167.085 272.528 179.664 271.894C180.228 271.867 180.8 271.894 181.68 271.894C189.221 314.39 194.591 357.149 201.159 399.977Z" fill="#FF8025"/>
<path d="M353.759 398.322C349.577 398.322 345.392 398.291 341.206 398.322C324.197 398.479 307.191 398.651 290.187 398.836C278.331 398.963 266.471 399.104 254.607 399.262C242.391 399.408 230.176 399.554 217.963 399.698C213.607 399.756 209.252 399.853 204.897 400.019C203.592 400.07 202.993 399.702 202.8 398.334C200.242 380.456 197.655 362.581 195.04 344.708C194.654 342.176 194.267 339.648 193.839 336.71L221.696 333.185C223.318 340.916 224.897 348.261 226.38 355.668C226.53 356.441 226.252 357.365 225.951 358.134C224.105 362.808 223.522 367.887 224.26 372.859C224.457 374.227 224.932 374.791 226.418 374.791C233.939 374.726 240.897 372.422 247.627 369.403C256.963 365.22 265.546 359.905 272.218 351.93C272.31 351.817 272.391 351.698 272.488 351.593C275.252 348.694 276.314 345.354 275.191 341.407C274.982 340.68 274.978 339.895 274.804 338.701C308.364 349.266 335.423 367.737 353.994 397.619L353.759 398.322Z" fill="#FF8025"/>
<path d="M597.505 395.26L536.817 395.999C543.184 354.593 548.628 313.222 556.072 271.758C561.161 272.144 566.111 272.272 570.941 272.968C579.269 274.158 587.544 275.751 595.845 277.073C597.339 277.313 597.648 277.947 597.648 279.319C597.609 317.613 597.594 355.907 597.601 394.201C597.601 394.476 597.551 394.75 597.505 395.26Z" fill="#FF8025"/>
<path d="M121.012 400.924L67.0392 401.585C66.8114 398.063 66.6067 394.6 66.3596 391.148C65.5437 379.602 64.72 368.055 63.8886 356.507C63.1164 345.884 62.3557 335.262 61.6067 324.641C60.8075 313.667 59.9658 302.696 59.1858 291.717C58.8384 286.8 58.6414 281.867 58.2708 276.95C58.1588 275.446 58.8345 274.885 60.1318 274.723C65.0121 274.105 69.8886 273.099 74.7805 272.991C81.1898 272.856 87.6107 273.459 94.0277 273.679C95.4022 273.726 95.769 274.367 96.02 275.612C101.062 300.875 106.186 326.122 111.236 351.381C114.514 367.756 117.707 384.151 121.012 400.924Z" fill="#FF8025"/>
<path d="M628.431 394.46C628.917 390.189 629.45 385.766 629.929 381.317C630.881 372.444 631.821 363.568 632.747 354.69C633.857 344.18 634.965 333.669 636.072 323.157C637.091 313.717 638.099 304.273 639.211 294.84C639.983 288.249 640.91 281.674 641.871 275.106C641.948 274.58 642.778 273.842 643.342 273.753C652.149 272.357 660.991 272.539 669.817 273.505C672.998 273.849 676.149 274.472 679.856 275.052C680.628 314.772 681.4 354.392 682.195 394.449L628.431 394.46Z" fill="#FF8025"/>
<path d="M172.117 270.297L145.862 274.05C145.476 272.384 145.036 270.602 144.619 268.858C135.329 266.999 130.719 261.127 130.53 251.115C130.375 243.731 132.317 236.696 133.966 229.61C135.398 223.455 136.379 217.262 135.869 210.923C135.784 209.573 135.506 208.242 135.043 206.972C134.02 204.305 131.954 204.049 130.217 206.257C130.005 206.523 129.831 206.825 129.638 207.099L120.506 205.244C120.476 205.02 120.36 204.78 120.433 204.629C122.864 199.684 126.244 195.267 130.379 191.629C132.059 190.152 133.8 190.11 135.719 191.045C139.118 192.67 141.768 195.536 143.124 199.055C144.842 203.4 146.055 207.946 147.572 212.678C147.306 212.655 147.572 212.709 147.85 212.697C148.168 212.659 148.483 212.598 148.792 212.515C147.796 204.896 145.985 197.733 140.522 192.027C143.283 188.78 145.541 188.714 148.279 191.799C152.673 196.801 154.982 202.669 155.514 209.28C155.603 210.362 155.565 211.375 157.128 210.857C157.827 206.396 156.182 200.887 151.85 193.21C154.364 189.526 156.561 189.421 159.453 192.823C163.738 197.849 165.41 203.93 166.734 210.173C166.912 211 167.121 211.82 167.317 212.674C168.522 212.886 169.275 212.635 168.862 211.278C167.549 206.771 166.233 202.263 164.808 197.795C164.503 196.828 163.928 196.086 164.85 195.12C165.773 194.153 166.885 193.407 168.244 193.96C169.237 194.351 170.14 194.938 170.901 195.688C175.236 200.122 177.418 205.688 178.727 211.595C180.889 221.372 179.738 231.086 177.634 240.7C176.124 247.589 174.101 254.366 172.638 261.262C172.043 264.181 172.267 267.308 172.117 270.297Z" fill="#FEFEFE"/>
<path d="M570.327 212.527C571.261 209.025 571.871 205.383 573.215 202.051C574.588 198.697 576.376 195.528 578.535 192.618C581.037 189.251 583.304 189.584 585.871 193.241C583.123 197.297 581.325 201.922 580.612 206.771C580.422 207.753 580.357 208.756 580.419 209.755C580.477 210.265 581.122 210.706 581.767 211.035C582.342 204.946 583.929 199.465 587.307 194.59C588.042 193.534 588.837 192.522 589.69 191.559C591.91 189.066 593.466 188.915 596.169 190.898C596.84 191.389 597.443 191.988 598.138 192.591C591.755 197.416 590.176 204.347 589.107 211.487C589.041 211.92 589.802 212.473 590.389 213.246C591.335 209.438 591.968 206.226 592.945 203.122C593.96 199.894 595.566 196.936 598.35 194.83C602.211 191.919 606.018 192.124 609.547 195.398C612.798 198.402 614.979 203.404 614.566 207.034C613.408 207.173 612.203 207.293 611.014 207.455C609.47 207.664 608.18 207.811 607.172 205.951C606.103 203.976 603.362 204.432 602.798 206.763C602.084 209.701 601.408 212.883 601.806 215.813C602.867 223.645 604.477 231.403 605.937 239.177C607.01 244.891 607.929 250.639 606.52 256.384C605.145 261.997 602.18 266.435 596.292 268.267C595.816 268.414 595.325 268.511 594.829 268.557C594.338 268.607 593.837 268.557 593.165 268.557C592.725 270.397 592.296 272.179 591.833 274.104L565.23 270.239C566.651 260.652 562.427 251.981 560.458 242.904C558.601 234.353 557.311 225.763 558.072 216.976C558.666 210.088 560.775 203.698 564.709 198.007C565.728 196.531 567.269 195.355 568.732 194.265C569.944 193.364 571.23 193.639 572.427 194.69C573.624 195.742 573.149 196.735 572.724 198.027C571.28 202.414 570.045 206.875 568.844 211.34C568.724 211.773 569.388 212.415 569.69 212.96L570.327 212.527Z" fill="#FEFEFE"/>
<path d="M527.762 197.787C528.322 201.618 528.836 205.132 529.353 208.611C529.689 210.877 530.712 211.92 533.291 211.99C541.052 212.199 548.805 212.763 556.573 213.2C556.624 213.323 556.652 213.454 556.654 213.586C556.014 217.661 556.014 217.665 551.902 218.538C551.064 218.716 550.222 219.002 549.38 218.998C546.292 218.998 544.844 220.982 543.763 223.452C541.535 228.524 541.979 233.449 544.6 238.25C544.983 239.014 545.544 239.674 546.237 240.173C546.929 240.672 547.732 240.997 548.577 241.118C551.454 241.621 554.292 242.347 557.153 242.951C558.21 243.175 558.778 243.585 559.083 244.818C560.446 250.721 562.172 256.542 563.396 262.469C563.902 264.92 563.481 267.56 563.481 270.104H554.284L546.025 320.54L525.913 317.061C525.569 310.404 525.187 303.786 524.894 297.16C524.291 283.599 523.717 270.035 523.172 256.469C522.644 242.966 523.031 229.442 524.33 215.991C524.813 210.888 525.932 205.847 526.817 200.787C526.944 199.828 527.376 198.939 527.762 197.787ZM539.299 222.887C540.361 223.425 540.948 223.351 541.419 221.998C542.307 219.455 543.539 217.143 546.824 217.108C547.21 217.108 547.597 216.207 548.156 215.535C543.373 214.858 540.28 217.591 539.299 222.887ZM540.562 237.133L540.137 237.844C541.473 241.938 543.975 243.936 548.55 243.936C547.651 243.028 547.226 242.232 546.62 242.054C545.659 241.785 544.767 241.312 544.004 240.667C543.242 240.021 542.628 239.22 542.203 238.316C541.917 237.782 541.114 237.519 540.554 237.133H540.562Z" fill="#FEFEFE"/>
<path d="M383.631 397.843C398.09 374.123 418.287 357.713 443.04 346.097C442.442 363.241 441.855 380.042 441.261 397.124L383.631 397.843Z" fill="#FF8025"/>
<path d="M118.997 232.173C118.63 235.471 118.556 239.596 117.661 243.531C114.881 255.777 106.591 259.62 95.3363 258.051C86.8613 256.868 83.0428 250.837 81.1586 243.361C78.7135 233.907 78.6763 223.99 81.0505 214.518C83.4327 205.028 91.7494 198.483 100.858 198.576C106.263 198.63 110.209 201.321 112.966 205.805C116.132 210.954 117.425 216.741 118.244 222.629C118.645 225.524 118.719 228.466 118.997 232.173ZM113.344 231.733L112.692 231.624C112.692 230.124 112.784 228.617 112.692 227.125C112.263 221.106 111.468 215.172 107.854 210.065C106.124 207.618 103.993 205.6 100.904 205.082C97.9932 204.583 94.9994 205.005 92.3393 206.288C89.6792 207.572 87.485 209.655 86.0621 212.245C83.6412 216.517 82.8651 221.21 82.6489 226.031C82.3439 232.962 82.8536 239.773 86.1856 246.032C88.9926 251.305 93.622 253.992 99.483 253.829C105.591 253.663 109.336 249.855 110.962 244.254C112.124 240.191 112.572 235.915 113.344 231.733Z" fill="#FCFCFC"/>
<path d="M75.5172 227.024C75.5172 233.731 74.7064 239.282 72.6832 244.621C70.3666 250.721 66.0809 254.672 59.6252 255.63C52.8183 256.659 47.5789 253.593 43.5325 248.286C39.5364 243.059 37.9533 236.913 37.3549 230.534C36.6638 223.224 36.88 215.987 40.5711 209.273C44.6522 201.846 50.9688 198.139 58.6909 198.978C64.2894 199.589 67.9805 203.01 70.66 207.672C74.3087 213.969 75.4323 220.889 75.5172 227.024ZM68.8454 229.475C68.44 226.077 68.1311 222.663 67.5867 219.289C67.2269 217.251 66.6974 215.246 66.0037 213.297C64.7141 209.512 62.216 206.806 58.4206 205.403C51.3781 202.797 44.0383 206.69 41.4862 214.534C39.5016 220.634 39.4591 226.904 40.3896 233.19C41.0576 237.678 42.2313 242.008 44.9534 245.742C50.6098 253.5 61.6484 252.526 65.8299 243.886C68.0268 239.34 68.7295 234.493 68.8454 229.463V229.475Z" fill="#FCFCFC"/>
<path d="M534.895 396.026H530.481C529.265 375.611 528.049 355.192 526.813 334.402L543.701 336.811C540.756 356.615 537.84 376.214 534.895 396.026Z" fill="#FF8025"/>
<path d="M599.532 393.977C599.485 388.979 599.408 383.981 599.393 378.982C599.393 373.269 599.416 367.551 599.431 361.834L599.84 361.625C605.447 366.132 611.13 370.543 616.62 375.182C620.095 378.12 623.312 381.391 626.621 384.533C627.007 384.897 627.547 385.442 627.509 385.855C627.227 388.821 626.817 391.774 626.389 395.184H599.775L599.532 393.977Z" fill="#FF8025"/>
<path d="M658.501 228.458C658.227 235.03 657.659 241.462 655.118 247.59C652.203 254.614 646.976 258.108 639.389 258.332C633.045 258.518 627.481 257.053 623.558 251.66C621.242 248.467 620.083 244.787 619.589 240.925C618.292 230.951 618.817 221.113 622.118 211.545C623.315 208.066 624.929 204.807 627.686 202.268C631.06 199.175 635.076 197.957 639.562 198.789C649.126 200.547 655.439 206.937 657.2 216.784C657.871 220.626 658.076 224.561 658.501 228.458ZM656.053 230.136C656.034 222.768 655.342 216.729 652.126 211.221C647.597 203.458 635.234 201.1 629.809 208.669C628.767 210.026 627.891 211.503 627.199 213.069C623.508 222.284 623.157 231.81 624.979 241.455C625.752 245.606 627.474 249.399 630.898 252.082C637.535 257.285 648.076 254.544 652.273 246.581C655.18 241.072 656.115 235.142 656.053 230.136Z" fill="#DF7121"/>
<path d="M138.012 400.72H122.807C121.88 395.776 120.946 390.75 119.996 385.732C119.49 383.069 118.888 380.425 118.471 377.75C118.375 377.123 118.637 376.13 119.097 375.77C125.124 371.081 131.216 366.493 137.297 361.854C137.523 361.734 137.763 361.644 138.012 361.587V400.72Z" fill="#FF8025"/>
<path d="M700.64 225.218C700.408 233.618 699.173 241.748 693.879 248.676C687.173 257.455 675.435 258.232 668.424 250.322C665.184 246.669 663.922 242.081 663.099 237.407C661.451 227.99 661.922 218.739 665.906 209.906C667.895 205.495 670.779 201.788 675.439 199.913C681.968 197.296 689.683 199.503 694.358 205.209C699.123 211.035 700.818 217.823 700.64 225.218ZM698.86 225.957C698.528 220.931 698.412 215.616 695.567 210.88C692.439 205.7 687.845 202.967 681.76 203.814C675.968 204.618 672.242 208.221 670.594 213.772C669.683 216.849 669.018 219.994 668.605 223.177C667.748 229.83 667.922 236.437 670.447 242.792C672.52 248.003 676.111 251.405 681.879 251.764C687.976 252.151 692.196 249.112 694.984 243.847C697.907 238.346 698.536 232.327 698.86 225.957Z" fill="#DF7121"/>
<path d="M114.483 254.378C118.92 249.163 119.954 243.167 120.46 236.982C121.314 226.475 119.935 216.343 115.572 206.261C117.835 206.725 119.854 207.158 121.877 207.552C125.225 208.209 128.561 208.924 131.916 209.45C133.599 209.713 134.094 210.517 134.163 212.129C134.426 218.341 133.039 224.318 131.873 230.352C130.592 236.989 129.704 243.708 128.561 250.373C128.469 250.696 128.302 250.994 128.075 251.241C127.848 251.489 127.566 251.68 127.252 251.799C123.167 252.696 119.043 253.473 114.483 254.378Z" fill="#F86700"/>
<path d="M640.845 260.656C647.022 259.678 651.895 257.05 655.235 251.765C655.524 251.305 656.555 250.992 657.165 251.096C660.663 251.73 664.138 252.503 667.617 253.253C668.175 253.364 668.716 253.546 669.227 253.795C671.93 255.167 674.609 256.578 677.586 258.128L676.27 271.983L650.327 270.549C650.486 268.531 650.675 266.153 650.868 263.656L640.845 260.656Z" fill="#FDFDFD"/>
<path d="M96.9186 260.679C94.1348 261.472 91.3588 262.287 88.5634 263.045C87.4051 263.362 86.7564 263.88 86.9533 265.249C87.2197 267.073 87.3047 268.925 87.4475 270.525L61.486 271.983C61.0575 267.525 60.5864 262.651 60.127 257.888C66.8374 254.44 74.0575 253.218 81.2313 251.869C81.5556 251.839 81.8827 251.88 82.1895 251.989C82.4963 252.099 82.7755 252.274 83.0074 252.503C87.7294 257.981 89.3008 258.889 96.9186 260.679Z" fill="#FDFDFD"/>
<path d="M193.554 334.828C192.936 330.68 192.326 326.602 191.7 322.388L217.33 318.035C218.538 322.651 219.681 327.023 220.805 331.407L193.554 334.828Z" fill="#EAE9E8"/>
<path d="M66.0423 199.001L55.2314 196.372C55.4537 195.696 55.7529 195.047 56.1233 194.439C59.3743 189.912 63.7489 186.789 68.9612 184.887C69.8888 184.587 70.8949 184.648 71.7798 185.057C76.413 187.554 81.0115 190.083 85.4787 192.87C86.4324 193.461 87.4092 195.158 87.2277 196.113C87.0463 197.068 85.4671 198.367 84.3937 198.479C82.1968 198.711 79.915 198.355 77.6949 198.038C76.5366 197.868 75.4091 197.265 74.274 196.879C69.5172 195.197 68.8068 195.402 66.0423 199.001Z" fill="#FDFDFD"/>
<path d="M682.582 196.365L671.733 199.009C668.667 195.283 668.258 195.213 663.146 196.984C661.073 197.707 658.926 198.229 656.795 198.77C656.105 198.959 655.383 199.004 654.675 198.901C652.914 198.592 650.968 198.248 650.428 196.23C649.891 194.278 651.47 193.188 652.864 192.364C657.157 189.855 661.517 187.455 665.895 185.097C666.625 184.699 667.475 184.582 668.285 184.768C673.84 186.507 678.648 190.071 681.93 194.885C682.196 195.355 682.415 195.851 682.582 196.365Z" fill="#FDFDFD"/>
<path d="M179.839 242.101C180.661 234.157 181.449 226.584 182.244 218.906C184.445 219.293 186.974 219.679 189.433 220.29C190.432 220.58 191.31 221.186 191.935 222.018C195.221 226.557 195.109 233.801 191.781 238.351C191.395 238.857 190.955 239.511 190.422 239.654C186.901 240.554 183.368 241.3 179.839 242.101Z" fill="#F86700"/>
<path d="M525.979 318.943L545.871 322.388L544.029 334.971L526.751 332.508C526.496 328.043 526.245 323.59 525.979 318.943Z" fill="#EAE9E8"/>
<path d="M82.5946 205.441C81.2896 208.951 79.7645 212.199 78.8996 215.608C78.0348 219.018 77.8224 222.609 77.3243 226.108L77.1738 226.142C77.29 219.783 75.8309 213.495 72.9266 207.838C72.1544 206.33 71.1853 204.931 70.0811 203.103L82.5946 205.441Z" fill="#F86700"/>
<path d="M81.1005 249.886L71.3438 251.877C72.7994 248.348 74.5947 244.876 75.6488 241.192C76.7028 237.508 76.9963 233.673 77.421 231.106C77.6527 233.124 77.838 236.46 78.4558 239.712C79.0967 243.048 80.1507 246.307 81.1005 249.886Z" fill="#F86700"/>
<path d="M93.5329 197.83C91.6487 198.905 90.0348 199.956 88.305 200.749C87.6757 201.035 86.7606 200.702 85.5676 200.629C86.8571 199.543 87.7761 198.967 88.4247 198.178C89.8378 196.465 89.6834 194.1 87.7799 192.445C85.8108 190.729 83.5328 189.353 81.3899 187.849C80.7683 187.416 80.1003 187.049 79.4131 186.623C82.1158 184.443 82.6023 184.408 85.1235 186.426C88.9289 189.373 91.8406 193.321 93.5329 197.83Z" fill="#F8F7F8"/>
<path d="M652.176 200.416C648.466 201.819 646.921 198.278 644.033 198.205C646.215 192.592 649.47 188.285 654.284 185.378C655.199 184.825 656.937 185.645 658.296 185.83L658.35 186.604C656.995 187.442 655.624 188.258 654.288 189.124C653.157 189.862 652.018 190.597 650.964 191.443C647.284 194.366 647.531 197.509 652.176 200.416Z" fill="#F8F7F8"/>
<path d="M652.041 202.635C653.292 201.243 654.813 200.834 656.705 200.59C659.558 200.227 662.315 199.106 665.122 198.34C665.999 198.101 667.134 197.567 667.748 197.888C668.728 198.425 669.369 199.577 670.153 200.47C669.308 200.984 668.524 201.773 667.609 201.97C663.717 202.809 659.748 203.319 655.883 204.263C653.972 204.734 652.941 204.1 652.041 202.635Z" fill="#FCFCFC"/>
<path d="M85.73 203.087C84.9771 203.288 84.1856 203.771 83.4752 203.647C78.1817 202.708 72.9075 201.649 67.5986 200.621C69.0156 197.667 69.6952 197.462 72.56 198.255C75.9539 199.198 79.4365 199.836 82.8381 200.76C83.869 201.042 84.7686 201.838 85.7184 202.399L85.73 203.087Z" fill="#FAF9FA"/>
<path d="M642.095 197.296L638.142 196.654C639.3 194.203 640.234 191.791 641.505 189.561C642.956 187.001 644.945 188.753 646.79 189.155L642.095 197.296Z" fill="#FAF9FA"/>
<path d="M95.641 197.281C94 194.436 92.5521 191.916 91.085 189.395C94.2356 187.462 95.6757 187.849 97.2201 191.22C97.8726 192.642 98.4286 194.108 99.0232 195.561C99.1545 195.882 99.251 196.222 99.4093 196.678L95.641 197.281Z" fill="#FAF9FA"/>
<path d="M192.491 241.076C193.483 240.175 194.634 239.394 195.418 238.339C196.263 237.206 196.113 237.094 197.568 237.755C196.503 241.686 193.962 243.797 190.012 243.994C189.842 243.314 189.669 242.626 189.495 241.938H189.472L189.958 241.988C189.958 241.826 189.958 241.659 189.958 241.497C190.085 241.468 190.217 241.468 190.344 241.497C190.427 241.672 190.522 241.841 190.626 242.003C190.985 241.849 191.325 241.655 191.672 241.47L191.607 241.501L192.506 241.045L192.491 241.076Z" fill="#353233"/>
<path d="M595.883 270.355C595.868 271.935 595.851 273.518 595.833 275.103L593.493 274.573C594.736 273.205 593.169 270.727 595.883 270.355Z" fill="#E3E1E1"/>
<path d="M191.684 241.489C191.336 241.675 190.996 241.876 190.637 242.023C190.533 241.86 190.439 241.691 190.355 241.516L191.684 241.489Z" fill="#FFFEFF"/>
<path d="M599.531 393.978L599.774 395.184L599.531 393.978Z" fill="#FF8025"/>
<path d="M192.518 241.064L191.618 241.521L192.518 241.064Z" fill="#FFFEFF"/>
<path d="M149.181 189.376L149.031 189.797C148.901 189.713 148.785 189.608 148.687 189.488C148.649 189.422 148.737 189.279 148.772 189.171L149.181 189.376Z" fill="white"/>
<path d="M599.852 361.625L599.442 361.834L599.852 361.625Z" fill="#FF8025"/>
<path d="M189.954 241.517C189.954 241.679 189.954 241.845 189.954 242.008L189.468 241.957L189.954 241.517Z" fill="#FFFEFF"/>
<path d="M189.491 215.523C194.437 214.909 197.437 217.584 198.453 222.903C197.368 223.44 196.816 223.324 196.325 221.971C195.422 219.466 194.229 217.081 190.889 217.116C190.483 217.124 190.09 216.254 189.491 215.523Z" fill="#353233"/>
<path d="M539.3 222.888C540.288 217.592 543.381 214.859 548.18 215.543C547.632 216.216 547.246 217.109 546.848 217.116C543.551 217.151 542.319 219.463 541.443 222.007C540.941 223.352 540.354 223.425 539.3 222.888Z" fill="#353233"/>
<path d="M540.555 237.133C541.114 237.519 541.918 237.782 542.196 238.316C542.621 239.22 543.235 240.022 543.997 240.667C544.759 241.312 545.651 241.785 546.613 242.054C547.219 242.232 547.643 243.028 548.543 243.937C543.968 243.937 541.466 241.938 540.13 237.844L540.555 237.133Z" fill="#353233"/>
<path d="M113.344 231.733C112.572 235.915 112.124 240.191 110.946 244.254C109.321 249.855 105.575 253.663 99.4673 253.829C93.6063 253.991 88.9769 251.305 86.17 246.032C82.8379 239.773 82.3282 232.962 82.6333 226.031C82.8495 221.21 83.6256 216.517 86.0464 212.245C87.4693 209.655 89.6635 207.572 92.3236 206.288C94.9838 205.004 97.9775 204.583 100.888 205.082C103.977 205.6 106.108 207.618 107.838 210.065C111.452 215.172 112.247 221.106 112.676 227.125C112.784 228.617 112.676 230.124 112.676 231.624L113.344 231.733ZM86.1391 227.059C91.0851 233.372 103.402 234.048 109.568 228.35C103.958 219.853 90.7878 221.5 86.1391 227.059Z" fill="#262223"/>
<path d="M68.846 229.463C68.7302 234.489 68.0275 239.34 65.8306 243.875C61.6491 252.515 50.6104 253.489 44.954 245.73C42.232 241.996 41.0583 237.666 40.3903 233.178C39.4598 226.889 39.5023 220.622 41.4868 214.522C44.039 206.679 51.3788 202.786 58.4213 205.391C62.2167 206.795 64.7147 209.501 66.0043 213.285C66.6981 215.235 67.2276 217.239 67.5873 219.277C68.1317 222.652 68.4406 226.065 68.846 229.463ZM42.4559 225.864C46.8768 232.289 59.7881 232.351 65.9657 227.434C61.1665 219.513 48.7417 219.702 42.4559 225.864Z" fill="#262223"/>
<path d="M656.053 230.136C656.114 235.131 655.18 241.072 652.273 246.581C648.076 254.544 637.535 257.285 630.898 252.082C627.473 249.399 625.763 245.607 624.979 241.455C623.157 231.791 623.508 222.285 627.199 213.069C627.891 211.503 628.767 210.026 629.809 208.67C635.215 201.1 647.597 203.459 652.126 211.221C655.342 216.73 656.033 222.772 656.053 230.136ZM654.157 229.046C654.157 227.975 654.23 226.896 654.157 225.833C653.771 221.048 653.103 216.32 650.454 212.153C645.018 203.609 634.238 203.93 629.442 212.759C627.126 217.012 626.462 221.651 626.114 226.359C625.624 233.02 625.512 239.653 628.485 245.885C630.276 249.639 633.029 252.24 637.365 252.731C643.11 253.385 648.62 250.184 651.165 244.656C653.427 239.708 654.215 234.45 654.157 229.046Z" fill="#342A27"/>
<path d="M698.861 225.957C698.536 232.328 697.907 238.328 695 243.867C692.212 249.132 687.992 252.163 681.895 251.784C676.127 251.425 672.536 248.023 670.463 242.812C667.937 236.457 667.76 229.85 668.621 223.197C669.034 220.014 669.699 216.869 670.609 213.792C672.258 208.241 676.015 204.638 681.775 203.834C687.86 202.987 692.455 205.72 695.583 210.9C698.413 215.616 698.528 220.951 698.861 225.957ZM696.907 224.856C696.756 223.418 696.575 220.777 696.177 218.172C695.925 216.696 695.511 215.253 694.942 213.869C692.957 208.797 688.115 205.365 683.358 205.523C678.127 205.705 673.884 209.281 672.231 214.901C670.505 220.777 669.636 226.792 670.231 232.885C670.574 236.067 671.281 239.2 672.339 242.221C673.965 246.975 677.463 249.851 682.559 249.952C687.424 250.06 690.934 247.47 693.181 243.226C696.007 237.868 696.803 232.05 696.907 224.856Z" fill="#372C28"/>
<path d="M86.1396 227.059C90.7729 221.5 103.958 219.853 109.568 228.35C103.391 234.048 91.0856 233.372 86.1396 227.059ZM97.6802 229.981C98.4374 230.001 99.1718 229.721 99.724 229.202C100.276 228.683 100.602 227.967 100.63 227.21C100.723 225.23 99.6262 223.893 97.8733 223.843C97.4815 223.812 97.0876 223.861 96.7154 223.987C96.3431 224.113 96.0002 224.313 95.7073 224.576C95.4143 224.838 95.1774 225.157 95.0109 225.513C94.8443 225.869 94.7516 226.256 94.7381 226.649C94.6648 228.354 96.0779 229.954 97.6802 229.981Z" fill="#FCFCFC"/>
<path d="M42.4551 225.865C48.7408 219.71 61.1656 219.521 65.9648 227.434C59.7872 232.344 46.8759 232.282 42.4551 225.865ZM54.1038 228.714C54.4965 228.736 54.8897 228.677 55.2588 228.541C55.6279 228.405 55.965 228.194 56.2493 227.921C56.5335 227.649 56.7588 227.321 56.9111 226.958C57.0635 226.595 57.1395 226.204 57.1347 225.81C57.1657 225.018 56.8871 224.244 56.358 223.654C55.829 223.064 55.091 222.703 54.3007 222.648C52.7563 222.583 51.3586 223.986 51.293 225.637C51.2581 226.027 51.3049 226.42 51.4303 226.791C51.5558 227.163 51.7573 227.503 52.0218 227.792C52.2863 228.081 52.6081 228.312 52.9666 228.469C53.3251 228.626 53.7124 228.707 54.1038 228.706V228.714Z" fill="#FAF9FA"/>
<path d="M654.157 229.046C654.215 234.458 653.428 239.707 651.146 244.656C648.601 250.184 643.092 253.384 637.346 252.731C633.014 252.24 630.261 249.638 628.466 245.885C625.493 239.653 625.605 233.02 626.095 226.359C626.443 221.647 627.119 217.004 629.424 212.759C634.215 203.93 644.999 203.609 650.435 212.152C653.084 216.32 653.748 221.044 654.138 225.833C654.231 226.896 654.157 227.975 654.157 229.046ZM628.103 228.462C633.895 233.414 646.744 233.917 651.609 227.036C646.636 221.268 633.389 220.097 628.103 228.462Z" fill="#FDFDFD"/>
<path d="M696.906 224.855C696.802 232.03 696.007 237.867 693.165 243.237C690.918 247.489 687.408 250.072 682.543 249.963C677.447 249.851 673.949 246.975 672.323 242.232C671.265 239.211 670.558 236.079 670.215 232.896C669.62 226.804 670.489 220.789 672.215 214.913C673.868 209.292 678.111 205.716 683.342 205.534C688.115 205.364 692.956 208.809 694.925 213.88C695.495 215.265 695.909 216.708 696.161 218.183C696.574 220.777 696.756 223.417 696.906 224.855ZM671.671 227.484C679.393 232.761 691.13 231.848 695.223 225.744C688.721 219.718 676.794 219.528 671.671 227.484Z" fill="#FDFDFD"/>
<path d="M97.6792 229.982C96.0769 229.954 94.6638 228.354 94.7371 226.649C94.7505 226.256 94.8433 225.87 95.0098 225.513C95.1764 225.157 95.4133 224.838 95.7062 224.576C95.9992 224.314 96.3421 224.113 96.7144 223.987C97.0866 223.861 97.4805 223.812 97.8723 223.843C99.6252 223.893 100.722 225.231 100.629 227.21C100.601 227.968 100.275 228.684 99.723 229.203C99.1707 229.721 98.4363 230.001 97.6792 229.982Z" fill="#2F2C2D"/>
<path d="M54.1045 228.705C53.7109 228.706 53.3215 228.625 52.9613 228.466C52.601 228.308 52.2781 228.075 52.0132 227.784C51.7483 227.492 51.5474 227.148 51.4235 226.774C51.2996 226.401 51.2553 226.005 51.2937 225.612C51.3593 223.962 52.7763 222.559 54.3014 222.624C55.0917 222.679 55.8297 223.04 56.3587 223.63C56.8878 224.22 57.1664 224.994 57.1354 225.786C57.1424 226.182 57.0679 226.574 56.9165 226.939C56.7652 227.304 56.5402 227.634 56.2557 227.908C55.9712 228.182 55.6333 228.394 55.2632 228.531C54.893 228.668 54.4986 228.727 54.1045 228.705Z" fill="#2F2C2D"/>
<path d="M628.104 228.462C633.409 220.096 646.636 221.268 651.609 227.035C646.725 233.916 633.872 233.414 628.104 228.462ZM643.023 226.715C643.012 226.322 642.924 225.936 642.762 225.578C642.6 225.22 642.368 224.899 642.081 224.632C641.793 224.366 641.454 224.159 641.086 224.026C640.717 223.892 640.325 223.834 639.934 223.854C638.185 223.881 637.053 225.207 637.107 227.167C637.123 227.559 637.218 227.944 637.386 228.299C637.553 228.654 637.79 228.971 638.082 229.233C638.375 229.494 638.717 229.694 639.088 229.821C639.459 229.947 639.852 229.998 640.243 229.969C641.714 229.865 643.065 228.288 643.003 226.715H643.023Z" fill="#2A2627"/>
<path d="M671.671 227.484C676.794 219.528 688.713 219.718 695.223 225.744C691.13 231.848 679.378 232.761 671.671 227.484ZM683.594 228.698C685.331 228.663 686.466 227.437 686.416 225.659C686.436 225.261 686.373 224.863 686.233 224.489C686.092 224.116 685.876 223.776 685.598 223.49C685.321 223.204 684.987 222.978 684.619 222.827C684.25 222.675 683.855 222.601 683.456 222.61C683.058 222.618 682.666 222.708 682.304 222.875C681.942 223.041 681.618 223.281 681.352 223.578C681.087 223.875 680.885 224.224 680.76 224.603C680.635 224.981 680.589 225.382 680.625 225.779C680.61 226.171 680.677 226.561 680.822 226.926C680.967 227.29 681.186 227.62 681.465 227.895C681.745 228.17 682.079 228.383 682.445 228.521C682.811 228.659 683.203 228.72 683.594 228.698Z" fill="#2A2627"/>
<path d="M643.003 226.715C643.065 228.288 641.713 229.865 640.211 229.97C639.82 229.998 639.428 229.947 639.057 229.821C638.685 229.694 638.344 229.494 638.051 229.233C637.759 228.971 637.522 228.654 637.354 228.299C637.187 227.944 637.092 227.559 637.076 227.167C637.022 225.207 638.153 223.881 639.902 223.854C640.295 223.832 640.688 223.89 641.058 224.022C641.428 224.155 641.768 224.361 642.057 224.628C642.346 224.895 642.579 225.217 642.741 225.575C642.904 225.934 642.993 226.321 643.003 226.715Z" fill="#F8F7F8"/>
<path d="M683.593 228.698C683.202 228.72 682.81 228.661 682.443 228.523C682.076 228.385 681.742 228.172 681.462 227.897C681.183 227.622 680.963 227.292 680.818 226.927C680.673 226.563 680.606 226.172 680.62 225.78C680.584 225.382 680.63 224.982 680.755 224.603C680.881 224.224 681.082 223.876 681.348 223.578C681.613 223.281 681.937 223.042 682.299 222.875C682.661 222.708 683.054 222.618 683.452 222.61C683.85 222.602 684.246 222.676 684.615 222.827C684.983 222.979 685.317 223.204 685.594 223.49C685.872 223.777 686.088 224.117 686.228 224.49C686.369 224.863 686.432 225.261 686.412 225.66C686.466 227.438 685.331 228.663 683.593 228.698Z" fill="#F8F7F8"/>
</svg>
