<svg width="379" height="235" viewBox="0 0 379 235" fill="none" xmlns="http://www.w3.org/2000/svg">
<path d="M317.847 119.626L279.001 108.045C279.001 108.045 275.954 107.175 272.909 100.658C269.863 94.1413 257.676 81.9786 245.707 68.9428C233.738 55.907 231.998 49.8371 218.941 48.3087C205.885 46.7802 185.212 40.7103 185.212 40.7103L175.626 37.7165C175.626 37.7165 168.24 35.7161 171.285 45.2804C174.33 54.8447 199.14 66.3406 208.067 69.5981L215.9 143.447L219.382 161.475L272.696 170.163L289.793 165.543L299.462 166.036C299.462 166.036 324.051 157.926 317.847 119.626Z" fill="white"/>
<path d="M140.02 55.7695C141.913 55.3243 143.775 54.755 145.697 54.4416C145.908 55.8994 147.037 56.4859 148.157 57.1527C149.751 58.108 151.34 59.0767 152.902 60.0854C153.085 60.2102 153.277 60.3213 153.476 60.4179C154.211 60.7561 154.878 60.5688 155.279 59.9154C155.628 59.3422 155.459 58.6678 154.774 58.2093C153.754 57.5253 152.703 56.8852 151.648 56.2528C150.756 55.7179 149.88 55.1581 148.993 54.6117C148.714 54.4397 148.343 54.3193 148.341 53.8856C150.707 53.387 153.095 53.0412 155.492 52.7202C160.178 52.1068 164.905 51.8647 169.63 51.9961C171.733 52.0157 173.833 52.1913 175.91 52.5215C176.157 52.5654 176.415 52.6017 176.636 52.4183C177.028 52.1795 177.21 52.5463 177.418 52.7221C181.318 55.8707 185.337 58.8493 189.646 61.4267C189.933 61.5967 190.301 61.7037 190.354 62.1202C190.323 62.1889 190.275 62.2493 190.216 62.2965C190.157 62.3436 190.088 62.3761 190.013 62.3915C188.968 62.403 187.942 62.1393 186.907 62.1164C182.734 62.0228 178.645 62.5367 174.693 63.9314C174.185 64.112 173.714 64.3825 173.303 64.73C171.525 66.2165 171.856 68.6161 173.984 69.5581C174.892 69.9593 175.864 70.0682 176.856 70.0968C178.085 70.1312 179.319 69.9421 180.538 70.221C181.09 70.8802 181.071 71.6711 181.007 72.4545C180.965 72.9799 180.571 73.1709 180.085 73.2359C176.64 73.6887 173.221 74.3175 169.84 75.1197C161.529 77.1144 153.672 80.1713 146.656 85.1235C142.371 88.1498 138.749 91.8831 135.506 95.9946C131.835 100.649 128.738 105.664 126.033 110.918C122.421 117.934 119.088 125.079 116.034 132.353C114.914 134.968 114.201 137.738 113.919 140.568C113.786 141.961 114.083 143.361 114.77 144.58C115.481 145.853 117.19 146.602 118.685 146.378C120.563 146.097 122.13 145.219 123.516 143.946C125.39 142.227 126.91 140.213 128.386 138.161C128.606 137.855 128.769 137.506 129.151 137.351C129.224 137.339 129.298 137.356 129.358 137.399C129.418 137.442 129.458 137.506 129.471 137.578C129.481 138.115 129.171 138.533 128.935 138.973C126.763 143 124.623 147.043 123.252 151.436C123.16 151.732 123.08 152.055 122.724 152.169C118.158 152.34 113.59 151.88 109.151 150.803C102.966 149.275 97.2484 146.776 92.3176 142.601C86.9484 138.054 83.704 132.318 82.3641 125.494C81.8894 123.096 81.608 120.641 81.7496 118.192C82.0766 112.262 83.3088 106.417 85.4037 100.859C87.5725 95.1411 90.5638 89.7689 94.2834 84.9114C97.1117 81.2051 100.301 77.7876 103.804 74.7089C105.01 73.6467 106.226 72.6073 107.493 71.6215C107.715 71.4476 107.924 71.2394 107.927 70.9222C109.231 71.7227 110.504 72.5729 111.817 73.3601C113.036 74.0918 114.213 74.8885 115.454 75.5802C116.327 76.0597 117.046 75.9394 117.452 75.2802C117.858 74.6211 117.644 73.9161 116.778 73.3696C114.987 72.2405 113.178 71.1381 111.371 70.0357C111.04 69.8332 110.592 69.7185 110.563 69.2103C112.573 67.9245 114.55 66.5871 116.598 65.3624C122.227 62.0185 128.233 59.3519 134.49 57.4183C135.281 57.1718 136.173 57.0992 136.808 56.463C137.371 56.6216 137.501 57.1527 137.742 57.5769C138.069 58.15 138.316 58.771 138.682 59.3193C139.172 60.0453 139.8 60.2421 140.449 59.8925C141.098 59.5428 141.264 58.8589 140.908 58.0832C140.646 57.51 140.319 56.9731 140.064 56.3961C139.989 56.1974 139.888 55.9911 140.02 55.7695Z" fill="#ECEBEA"/>
<path d="M254.864 185.314C252.139 185.148 249.428 184.804 246.748 184.284C240.713 183.103 234.702 181.789 228.661 180.642C225.734 180.078 222.78 179.665 219.81 179.406C217.961 179.251 216.091 179.079 214.259 179.129C210.718 179.227 207.177 179.471 203.634 179.777C199.656 180.121 195.65 180.243 191.67 179.601C191.59 179.59 191.523 179.494 191.448 179.439C191.666 179.108 192.013 179.057 192.361 179.03C198.917 178.484 205.342 176.882 211.384 174.284C216.257 172.182 220.648 169.29 224.645 165.797C225.411 165.121 226.075 164.269 227.082 163.887C227.743 163.812 228.409 163.795 229.073 163.833C236.467 164.024 243.71 162.996 250.8 160.967C255.203 159.706 259.548 159.821 263.874 161.172C269.027 162.818 274.32 163.987 279.688 164.664C283.044 165.067 286.405 165.428 289.785 165.541C290.501 165.568 291.244 165.553 291.868 166.017C290.945 168.461 289.452 170.572 287.816 172.557C285.163 175.778 282.125 178.6 278.511 180.749C274.96 182.86 271.17 184.32 267.072 184.953C265.055 185.258 263.033 185.526 260.987 185.526C260.834 185.547 260.685 185.591 260.545 185.656C260.174 185.87 259.971 185.531 259.733 185.38C258.906 184.867 258.15 184.248 257.325 183.737C255.926 182.872 255.028 183.355 254.973 184.977C254.979 185.099 254.94 185.219 254.864 185.314Z" fill="#ECEBEA"/>
<path d="M190.296 62.036C185.647 59.3994 181.409 56.1839 177.238 52.8652C177.047 52.7086 176.838 52.5634 176.639 52.4124C174.891 50.8114 173.144 49.2122 171.81 47.2291C170.759 45.6662 169.94 44.0097 170.005 42.0591C170.096 39.2773 171.639 36.6139 175.626 37.7106C178.567 38.5207 181.442 39.5371 184.403 40.2899C195.484 43.1099 206.578 45.8687 217.829 47.9474C220.274 48.3983 222.781 48.5684 225.139 49.4147C229.132 50.8496 232.388 53.3887 235.093 56.5717C241.147 63.7058 247.759 70.3068 254.317 76.9671C260.233 82.9758 265.941 89.1699 270.69 96.1759C272.265 98.4951 273.719 100.893 275.047 103.362C276.427 105.935 278.529 107.458 281.331 108.255C293.402 111.694 305.449 115.188 317.508 118.663C317.7 118.717 317.866 118.791 318.052 118.828C318.356 118.885 318.582 118.935 318.467 119.363C318.352 119.791 318.149 119.716 317.841 119.624C316.27 119.162 314.693 118.724 313.119 118.27C302.228 115.124 291.335 111.978 280.441 108.833C277.953 108.119 276.019 106.711 274.744 104.462C272.3 100.154 269.691 95.96 266.644 92.0434C262.896 87.2307 258.782 82.7408 254.512 78.3924C247.566 71.3232 240.571 64.2981 234.098 56.7743C231.035 53.2072 227.276 50.4694 222.488 49.5829C219.324 49.0097 216.151 48.4747 212.994 47.8634C204.572 46.2088 196.255 44.1416 187.934 42.0629C183.687 41.0025 179.501 39.7301 175.291 38.5379C172.42 37.724 170.424 39.6842 170.822 42.6819C171.145 45.116 172.506 46.9941 174.076 48.746C176.689 51.6558 179.857 53.918 182.967 56.2431C189.171 60.8782 195.893 64.5484 203.276 66.9423C206.789 68.0887 209.478 70.0699 210.864 73.6293C211.438 75.1196 212.234 76.5276 212.906 77.9835C214.907 82.3262 216.8 86.7339 219.606 90.6448C224.062 96.8561 229.508 101.898 236.758 104.741C237.666 105.098 238.592 105.417 239.482 105.815C240.126 106.087 240.69 106.519 241.119 107.07C241.268 107.261 241.488 107.452 241.119 107.662C240.887 107.794 240.736 107.911 240.493 107.626C239.856 106.834 238.946 106.308 237.941 106.151C237.558 106.266 237.275 105.971 236.929 105.943C232.143 104.169 227.819 101.342 224.278 97.6719C223.598 96.9249 222.87 96.2229 222.098 95.5703C221.83 95.3972 221.612 95.1567 221.466 94.8729C221.141 94.2004 220.547 93.7266 220.126 93.14C217.655 89.9933 215.724 86.5257 214.014 82.9261C213.773 82.4134 213.501 81.9158 213.199 81.4359C213.149 80.9105 212.855 80.4806 212.655 80.0068C211.698 77.9854 210.741 75.9621 209.784 73.9484C209.424 73.1994 208.938 72.8823 208.092 72.888C203.646 72.9167 199.197 72.8269 194.753 72.9377C192.997 72.9816 191.225 72.9721 189.475 73.2262C189.194 73.2468 188.911 73.2281 188.635 73.1708C188.444 73.144 188.731 73.3255 188.618 73.4058C187.852 73.7344 187.136 73.7497 186.512 73.1058C186.405 72.0588 186.248 71.0042 186.625 69.9782C186.757 69.8615 186.921 69.7885 187.096 69.7693C187.271 69.7501 187.448 69.7857 187.601 69.8712C188.009 70.2419 187.894 70.7424 187.915 71.2086C187.936 71.6748 188.08 71.8869 188.6 71.8563C194.998 71.4742 201.4 71.3462 207.807 71.415C207.935 71.4135 208.059 71.3713 208.161 71.2946C207.943 70.8093 207.556 70.4673 207.148 70.1483C205.946 69.193 204.557 68.5778 203.129 68.0887C200.832 67.3053 198.571 66.4035 196.32 65.4903C194.486 64.5541 192.628 63.6657 190.838 62.6454C190.616 62.4832 190.431 62.2754 190.296 62.036Z" fill="#231F20"/>
<path d="M236.935 105.796C237.354 105.678 237.639 105.949 237.947 106.146C241.481 115.29 242.447 124.781 241.5 134.458C240.503 144.638 236.299 153.478 229.607 161.174C229.01 161.862 228.365 162.511 227.743 163.17C227.609 163.587 227.404 163.935 226.951 164.078C223.631 167.135 220.104 169.917 216.164 172.158C210.183 175.564 203.734 177.588 196.973 178.692C195.141 178.99 193.292 179.192 191.453 179.439C188.432 179.548 185.417 179.672 182.393 179.46C177.095 179.078 171.936 178.1 166.961 176.212C166.605 176.172 166.228 176.248 165.897 176.048C162.756 174.846 159.852 173.199 157.059 171.344C156.738 171.164 156.488 170.879 156.351 170.537C154.252 168.996 152.279 167.29 150.452 165.434C150.257 165.395 150.073 165.313 149.912 165.196C149.751 165.079 149.617 164.929 149.52 164.756C146.353 161.612 143.607 158.073 141.35 154.225C141.187 153.919 140.95 153.652 140.904 153.289C140.795 152.525 140.186 151.999 139.995 151.279C139.56 151.067 139.421 150.624 139.183 150.255C136.267 144.072 134.585 137.382 134.231 130.557C134.193 129.724 133.979 128.902 134.057 128.062C133.992 122.632 134.625 117.216 135.941 111.946C137.88 104.29 141.149 97.2729 146.195 91.1362C150.073 86.419 154.78 82.6972 160.07 79.6728C161.995 78.5821 163.985 77.6085 166.027 76.7572C166.388 76.6464 166.748 76.528 167.107 76.4019C167.427 76.2898 167.739 76.1564 168.041 76.0026C170.918 74.8807 173.913 74.0879 176.968 73.6392C178.643 73.3927 180.314 73.066 182.024 73.1214C182.621 73.1424 183.224 73.1692 183.808 72.9743C184.784 72.9533 185.781 72.661 186.711 73.2036C187.362 73.2131 187.992 73.4787 188.652 73.3583C189.734 72.9265 190.829 73.1998 191.906 73.3392C198.968 74.2475 205.817 76.3765 212.147 79.6307C212.434 79.7662 212.688 79.9617 212.893 80.2039C213.104 80.5574 213.596 80.8229 213.261 81.3502C212.7 81.6158 212.288 81.2165 211.865 80.9968C206.014 77.9653 199.709 75.9043 193.195 74.8944C190.295 74.4062 187.357 74.1856 184.416 74.2353C175.368 74.4531 166.986 76.975 159.266 81.7056C156.046 83.6549 153.053 85.9561 150.343 88.5665C147.2 91.6234 144.627 95.1388 142.481 98.9561C138.666 105.748 136.513 113.077 135.763 120.79C134.888 129.802 135.811 138.623 139.237 147.083C141.379 152.368 144.417 157.112 148.174 161.397C151.859 165.601 155.957 169.324 160.832 172.14C166.11 175.188 171.821 176.917 177.809 177.872C181.857 178.51 185.938 178.615 190.008 178.399C194.968 178.122 199.88 177.266 204.641 175.849C212.14 173.666 219.034 169.789 224.789 164.517C230.974 158.954 235.633 151.907 238.326 144.044C239.63 140.215 240.392 136.222 240.589 132.183C240.692 130.289 240.78 128.402 240.73 126.512C240.574 119.81 239.459 113.276 237.105 106.975C236.971 106.595 236.713 106.228 236.935 105.796Z" fill="#1E1E1C"/>
<path d="M183.669 73.2284C183.464 73.4328 183.2 73.3908 182.953 73.3832C178.934 73.2571 175.04 74.0958 171.197 75.1715C170.087 75.481 169.064 76.0809 167.897 76.2299C167.652 76.3395 167.4 76.432 167.143 76.5069C166.76 76.656 166.356 76.7305 165.973 76.8757C162.206 78.173 158.433 79.453 154.861 81.2375C150.773 83.2799 146.922 85.67 143.482 88.7059C136.991 94.4376 132.229 101.459 128.042 108.937C124.737 114.841 122.072 121.05 119.191 127.158C117.601 130.534 116.129 133.952 115.241 137.59C114.873 138.997 114.731 140.454 114.821 141.906C115.04 144.942 116.954 146.159 119.9 145.228C122.066 144.544 123.594 142.936 124.984 141.248C128.083 137.481 130.68 133.369 133.165 129.183C133.454 128.696 133.582 128.024 134.288 127.875L134.501 130.593C133.668 132.542 132.468 134.29 131.455 136.134C128.911 140.786 126.287 145.398 124.467 150.404C123.831 152.158 123.318 153.944 123.353 155.843C123.353 156.127 123.374 156.411 123.416 156.692C123.812 158.938 125.508 159.878 127.627 159.013C128.776 158.545 129.788 157.832 130.808 157.143C133.72 155.173 136.311 152.8 139.03 150.589C139.159 150.451 139.318 150.343 139.495 150.274C139.661 150.606 139.828 150.941 139.996 151.273C137.558 153.228 135.138 155.205 132.684 157.121C131.12 158.34 129.468 159.414 127.606 160.178C124.951 161.267 122.723 159.223 122.348 157.026C122.066 155.366 122.47 153.778 122.731 152.173C124.316 147.028 126.863 142.318 129.386 137.599C129.436 137.531 129.474 137.448 129.419 137.378C129.363 137.307 129.287 137.378 129.227 137.414C127.619 139.596 126.105 141.856 124.132 143.744C122.744 145.081 121.213 146.155 119.276 146.514C116.314 147.062 114.18 145.494 113.811 142.502C113.438 139.472 114.243 136.617 115.241 133.822C117.317 128.01 120.181 122.54 122.761 116.952C125.717 110.513 129.236 104.346 133.278 98.5243C141.126 87.2806 151.766 80.0625 164.842 76.2127C169.862 74.7319 174.995 73.661 180.189 73.0106C180.666 72.9495 180.861 72.8195 180.802 72.3171C180.721 71.6636 180.697 71.0045 180.649 70.3473C181.223 69.9212 181.841 69.7741 182.517 70.1027C182.262 70.7103 181.686 71.1516 181.82 71.9636C181.922 72.5788 182.012 72.9686 182.733 72.938C183.061 72.9265 183.426 72.9055 183.669 73.2284Z" fill="#231F20"/>
<path d="M226.95 164.078L227.743 163.17C227.909 163.457 228.192 163.34 228.424 163.344C234.458 163.44 240.482 162.835 246.375 161.538C248.863 160.996 251.289 160.157 253.813 159.75C257.686 159.127 261.432 159.777 265.107 160.958C272.484 163.336 280.087 164.36 287.78 164.888C292.033 165.18 296.288 165.384 300.551 165.461C300.675 165.461 300.802 165.47 300.934 165.48C301.273 165.503 301.445 165.654 301.41 166.022C301.376 166.391 301.127 166.353 300.869 166.342C298.378 166.233 295.889 166.129 293.403 166.028C292.9 166.007 292.395 166.028 291.891 166.028C288.903 165.782 285.915 165.545 282.931 165.287C276.58 164.752 270.309 163.505 264.238 161.569C259.604 160.086 255.01 160.041 250.284 161.397C242.706 163.562 234.823 164.468 226.95 164.078Z" fill="#242021"/>
<path d="M245.584 191.416C245.584 192.738 245.597 194.06 245.584 195.382C245.57 196.368 244.983 197.004 244.122 197.029C243.26 197.054 242.554 196.347 242.56 195.365C242.579 192.656 242.623 189.947 242.694 187.239C242.693 187.041 242.732 186.845 242.808 186.662C242.884 186.479 242.995 186.312 243.136 186.172C243.276 186.032 243.443 185.922 243.627 185.846C243.81 185.771 244.007 185.733 244.206 185.734C244.607 185.741 244.989 185.906 245.27 186.192C245.551 186.477 245.708 186.862 245.708 187.262C245.741 188.648 245.708 190.035 245.708 191.422L245.584 191.416Z" fill="#FF8025"/>
<path d="M206.536 189.773C206.536 188.451 206.522 187.127 206.536 185.805C206.551 184.706 207.161 184.018 208.067 184.026C208.972 184.034 209.583 184.723 209.577 185.831C209.562 188.445 209.527 191.056 209.472 193.665C209.453 194.601 208.783 195.3 207.979 195.314C207.106 195.329 206.447 194.633 206.447 193.64C206.436 192.348 206.447 191.057 206.447 189.765L206.536 189.773Z" fill="#FF8025"/>
<path d="M148.346 53.8783L154.663 57.8389C155.677 58.4732 155.972 59.2852 155.486 60.1067C154.999 60.9283 154.092 61.062 153.097 60.4564C150.991 59.1744 148.928 57.8484 146.811 56.5989C145.938 56.085 145.521 55.4392 145.699 54.4343C146.547 53.3567 146.968 53.2669 148.346 53.8783Z" fill="#FF8025"/>
<path d="M239.373 198.684C239.337 199.062 239.205 199.425 238.991 199.739C237.697 201.904 236.405 204.069 235.114 206.235C234.513 207.234 233.637 207.53 232.837 207.027C232.071 206.552 231.925 205.654 232.481 204.712C233.809 202.461 235.149 200.216 236.5 197.975C236.927 197.261 237.568 197.008 238.363 197.253C239.056 197.457 239.335 197.994 239.373 198.684Z" fill="#FF8025"/>
<path d="M254.864 185.314C254.627 184.538 254.652 183.808 255.381 183.304C256.147 182.769 256.853 183.09 257.535 183.577C258.526 184.284 259.543 184.958 260.547 185.646C261.577 186.378 262.609 187.104 263.633 187.839C264.59 188.525 264.795 189.381 264.207 190.172C263.664 190.908 262.795 190.98 261.864 190.313C259.537 188.642 257.089 187.134 254.864 185.314Z" fill="#FF8025"/>
<path d="M127.099 22.107C126.846 24.6443 126.593 27.277 126.318 29.906C126.218 30.8612 125.552 31.4038 124.66 31.3351C123.812 31.272 123.24 30.6683 123.32 29.7264C123.494 27.4986 123.739 25.2786 123.956 23.0547C123.994 22.6477 124.036 22.2408 124.074 21.8338C124.176 20.718 124.763 20.1143 125.717 20.164C126.67 20.2136 127.156 20.8766 127.099 22.107Z" fill="#FF8025"/>
<path d="M225.149 211.898C225.128 212.906 224.368 213.617 223.445 213.476C220.699 213.082 217.956 212.665 215.214 212.224C214.336 212.081 213.875 211.359 214.007 210.493C214.034 210.297 214.101 210.109 214.204 209.939C214.306 209.769 214.442 209.622 214.603 209.506C214.764 209.39 214.947 209.308 215.14 209.265C215.334 209.221 215.534 209.217 215.729 209.253C218.409 209.635 221.089 210.067 223.769 210.47C224.651 210.604 225.088 211.128 225.149 211.898Z" fill="#FF8025"/>
<path d="M122.073 41.1939C122.083 41.5244 121.979 41.8484 121.778 42.1114C121.577 42.3744 121.292 42.5604 120.97 42.6383C120.205 42.8542 119.596 42.5352 119.213 41.8607C118.608 40.7946 118.04 39.7075 117.458 38.6261C116.773 37.3537 116.074 36.0851 115.406 34.805C114.92 33.8707 115.144 33.0243 115.94 32.6059C116.736 32.1875 117.588 32.476 118.08 33.3702C119.332 35.6628 120.568 37.967 121.799 40.2654C121.963 40.5488 122.057 40.8671 122.073 41.1939Z" fill="#FF8025"/>
<path d="M137.948 44.5486C137.948 45.779 136.773 46.5413 135.747 45.9395C133.327 44.5219 130.946 43.0354 128.573 41.5452C128.248 41.3383 128.018 41.0115 127.933 40.636C127.848 40.2606 127.916 39.867 128.121 39.541C128.521 38.8647 129.382 38.5399 130.091 38.9678C132.529 40.418 134.935 41.9197 137.341 43.4214C137.534 43.5383 137.692 43.7044 137.798 43.9026C137.905 44.1008 137.957 44.3238 137.948 44.5486Z" fill="#FF8025"/>
<path d="M227.687 194.448C226.858 194.437 226.347 194.121 226.156 193.422C225.965 192.723 226.097 192.035 226.782 191.703C229.356 190.446 231.95 189.219 234.559 188.038C235.305 187.7 236.129 188.147 236.441 188.875C236.524 189.046 236.571 189.233 236.58 189.423C236.589 189.613 236.56 189.803 236.494 189.981C236.427 190.16 236.325 190.323 236.194 190.461C236.063 190.6 235.905 190.71 235.73 190.786C233.242 191.999 230.725 193.166 228.212 194.337C228.043 194.4 227.867 194.437 227.687 194.448Z" fill="#FF8025"/>
<path d="M87.3366 87.1466C87.3084 87.5248 87.164 87.885 86.9232 88.1783C85.2349 90.215 83.5639 92.2689 81.8603 94.2922C81.1865 95.0927 80.2945 95.1978 79.6112 94.638C78.9278 94.0782 78.8665 93.1554 79.5059 92.3701C81.1788 90.3201 82.8729 88.2853 84.5554 86.2429C84.7609 85.9579 85.0578 85.7516 85.3969 85.6581C85.736 85.5646 86.0969 85.5896 86.4198 85.729C87.0457 85.9754 87.3079 86.4951 87.3366 87.1466Z" fill="#FF8025"/>
<path d="M128.088 49.8829C127.834 52.3551 127.585 54.8274 127.323 57.2978C127.204 58.4059 126.557 59.0402 125.663 58.9466C124.737 58.8492 124.195 58.041 124.308 56.929C124.563 54.4886 124.809 52.0475 125.047 49.6058C125.177 48.3143 125.738 47.6819 126.712 47.7411C127.724 47.8022 128.176 48.5111 128.088 49.8829Z" fill="#FF8025"/>
<path d="M140.02 55.7693C140.391 56.4915 140.768 57.2099 141.134 57.9359C141.591 58.8415 141.381 59.7108 140.608 60.1426C139.834 60.5744 138.979 60.3031 138.468 59.4128C137.909 58.4365 137.369 57.4506 136.819 56.4705L134.812 52.6321C134.251 51.5584 134.4 50.7216 135.231 50.2535C136.061 49.7854 136.913 50.1293 137.528 51.2317C138.353 52.741 139.184 54.2536 140.02 55.7693Z" fill="#FF8025"/>
<path d="M110.574 69.2237C112.729 70.5725 114.885 71.9201 117.042 73.2665C117.662 73.6486 117.999 74.1721 117.873 74.9153C117.756 75.6241 117.299 76.0005 116.623 76.1591C116.186 76.2622 115.817 76.0845 115.474 75.8686C113.223 74.4892 110.98 73.0983 108.725 71.7227C108.417 71.5074 108.152 71.2381 107.94 70.9279C107.818 68.9715 108.758 68.3716 110.574 69.2237Z" fill="#FF8025"/>
<path d="M226.158 202.354C226.135 203.5 224.9 204.278 223.928 203.636C221.56 202.073 219.246 200.428 216.945 198.77C216.243 198.263 216.179 197.415 216.646 196.748C216.757 196.582 216.9 196.44 217.067 196.331C217.234 196.221 217.421 196.146 217.618 196.11C217.814 196.075 218.016 196.079 218.211 196.123C218.406 196.167 218.59 196.25 218.752 196.366C221.018 197.912 223.262 199.492 225.507 201.066C225.718 201.206 225.889 201.399 226.003 201.624C226.117 201.85 226.17 202.101 226.158 202.354Z" fill="#FF8025"/>
<path d="M239.128 214.185C239.128 212.895 239.128 211.603 239.128 210.314C239.14 209.181 239.775 208.466 240.721 208.493C241.628 208.516 242.166 209.185 242.16 210.335C242.149 212.853 242.128 215.37 242.099 217.887C242.086 219.053 241.487 219.76 240.547 219.76C239.607 219.76 239.069 219.07 239.065 217.866C239.061 216.663 239.065 215.411 239.065 214.185H239.128Z" fill="#FF8025"/>
<path d="M140.689 23.7348C141.518 23.7138 142.029 24.0672 142.244 24.7225C142.458 25.3779 142.36 26.1383 141.669 26.4592C139.047 27.6858 136.403 28.8665 133.737 30.0014C132.987 30.3186 132.296 29.9823 131.928 29.22C131.838 29.0425 131.785 28.8483 131.772 28.6495C131.76 28.4508 131.788 28.2516 131.856 28.0642C131.924 27.8768 132.029 27.7052 132.165 27.56C132.302 27.4147 132.467 27.2989 132.65 27.2196C135.167 26.0618 137.701 24.9442 140.236 23.8207C140.382 23.7706 140.535 23.7416 140.689 23.7348Z" fill="#FF8025"/>
<path d="M92.0702 67.5938C92.03 67.7715 91.9879 68.0218 91.9151 68.2606C91.1827 70.701 90.4464 73.1389 89.7062 75.5743C89.3789 76.6385 88.6535 77.0817 87.7289 76.8104C86.8752 76.5582 86.5 75.7653 86.7967 74.7642C87.5471 72.2327 88.3013 69.7012 89.0822 67.1773C89.3559 66.2908 90.0871 65.8552 90.8758 66.0157C91.2266 66.1009 91.5372 66.3046 91.7549 66.5922C91.9726 66.8798 92.084 67.2336 92.0702 67.5938Z" fill="#FF8025"/>
<path d="M140.902 153.289L141.532 154.053C141.35 154.704 140.921 155.222 140.598 155.797C139.258 158.17 138.109 160.631 137.508 163.294C137.041 165.369 136.859 167.476 137.937 169.471C138.718 170.917 139.983 171.481 141.585 171.089C143.365 170.654 144.782 169.595 146.084 168.388C147.099 167.487 148.038 166.503 148.892 165.447C149.119 165.153 149.347 164.836 149.713 164.683L150.45 165.447C149.093 166.793 147.923 168.321 146.441 169.544C145.49 170.374 144.438 171.08 143.308 171.645C139.843 173.283 136.892 171.728 136.226 167.956C135.896 166.112 136.094 164.326 136.589 162.541C137.513 159.244 138.97 156.118 140.902 153.289Z" fill="#242022"/>
<path d="M166.023 175.847L166.961 176.215C165.799 177.815 164.739 179.49 163.391 180.954C162.511 181.909 161.571 182.792 160.363 183.323C158.906 183.963 157.578 183.594 156.583 182.352C154.959 180.321 155.074 177.958 155.287 175.598C155.442 173.879 155.916 172.211 156.351 170.541L157.117 171.126C157.165 171.208 157.195 171.299 157.204 171.394C157.214 171.488 157.203 171.584 157.172 171.674C156.671 173.34 156.456 175.056 156.265 176.777C156.073 178.529 156.315 180.184 157.44 181.597C158.309 182.688 159.035 182.809 160.25 182.129C161.59 181.374 162.585 180.218 163.561 179.072C164.189 178.322 164.764 177.53 165.284 176.703C165.461 176.364 165.714 176.072 166.023 175.847Z" fill="#252122"/>
<path d="M182.55 70.1734C181.897 70.0301 181.288 70.3836 180.636 70.3492C178.741 70.3836 176.842 70.502 174.962 70.1581C172.899 69.776 171.655 68.3985 171.878 66.6446C172.07 65.1391 173.102 64.2698 174.428 63.7387C176.05 63.1228 177.732 62.6803 179.447 62.4185C182.984 61.809 186.529 61.6237 190.095 62.2389C190.344 62.3191 190.624 62.2389 190.861 62.3764C192.412 63.1846 193.954 64.008 195.52 64.7876C195.764 64.9157 195.994 65.0694 196.205 65.2461C197.354 66.2644 197.463 67.3821 196.521 68.5361C196.141 69.0196 195.653 69.4074 195.095 69.6685C194.538 69.9297 193.927 70.0568 193.311 70.0397C192.967 70.0397 192.62 70.0607 192.276 70.0492C191.127 70.097 189.954 69.9269 188.803 70.1677C188.398 70.2345 187.998 70.2747 187.655 69.9766H186.711C185.354 70.5001 183.97 70.7026 182.55 70.1734Z" fill="#1E1E1C"/>
<path d="M85.4918 118.738C85.7463 116.294 85.9856 113.851 86.2574 111.411C86.3761 110.36 87.0231 109.84 87.9572 109.942C88.8396 110.037 89.3736 110.78 89.2722 111.791C89.0259 114.267 88.7758 116.743 88.5218 119.217C88.4975 119.468 88.4546 119.716 88.3936 119.961C88.1811 120.778 87.515 121.239 86.6938 121.107C85.8727 120.975 85.4516 120.415 85.4229 119.59C85.431 119.307 85.4591 119.025 85.5071 118.746L85.4918 118.738Z" fill="#FF8025"/>
<path d="M133.85 64.7683C133.792 65.4122 133.515 65.8994 132.893 66.1726C130.439 67.2578 127.996 68.364 125.539 69.4359C124.582 69.8505 123.734 69.5276 123.395 68.7003C123.056 67.873 123.381 67.1011 124.279 66.6923C126.718 65.5803 129.16 64.4703 131.62 63.4042C132.751 62.9227 133.858 63.6392 133.85 64.7683Z" fill="#FF8025"/>
<path d="M108.341 102.116C108.362 102.982 108.048 103.484 107.359 103.7C106.67 103.916 105.979 103.777 105.615 103.127C104.237 100.652 102.89 98.1588 101.576 95.647C101.414 95.2983 101.391 94.9008 101.513 94.536C101.635 94.1712 101.892 93.8668 102.232 93.6853C102.571 93.5037 102.968 93.4587 103.339 93.5595C103.711 93.6603 104.03 93.8993 104.231 94.2275C105.596 96.6768 106.911 99.1529 108.23 101.625C108.294 101.782 108.331 101.948 108.341 102.116Z" fill="#FF8025"/>
<path d="M97.6213 108.341C97.2702 108.324 96.9299 108.214 96.6355 108.022C94.4094 106.646 92.1794 105.278 89.959 103.893C89.0593 103.331 88.8105 102.424 89.3082 101.652C89.7714 100.928 90.6787 100.773 91.5649 101.314C93.8007 102.674 96.023 104.056 98.2491 105.427C98.9478 105.859 99.2522 106.457 99.0148 107.269C98.8272 107.968 98.2989 108.255 97.6213 108.341Z" fill="#FF8025"/>
<path d="M102.359 116.802C102.083 119.531 101.836 122.165 101.542 124.794C101.41 125.969 100.713 126.552 99.7615 126.405C98.8714 126.266 98.4216 125.49 98.5307 124.399C98.77 122.144 98.9844 119.886 99.2122 117.632C99.2504 117.25 99.2849 116.867 99.3557 116.506C99.5318 115.603 100.175 115.125 101.038 115.226C101.42 115.267 101.771 115.454 102.018 115.748C102.264 116.042 102.386 116.42 102.359 116.802Z" fill="#FF8025"/>
<path d="M104.285 86.5964C104.539 84.1528 104.784 81.7091 105.05 79.2674C105.161 78.2472 105.852 77.6549 106.737 77.7619C107.621 77.8689 108.172 78.6121 108.077 79.6133C107.821 82.1199 107.566 84.6266 107.311 87.1332C107.288 87.3528 107.249 87.5705 107.196 87.7847C106.987 88.6273 106.386 89.0362 105.517 88.9311C105.153 88.89 104.817 88.7135 104.577 88.4367C104.337 88.1598 104.21 87.803 104.221 87.437C104.235 87.1541 104.264 86.8721 104.309 86.5925L104.285 86.5964Z" fill="#FF8025"/>
<path d="M134.778 78.4688C134.286 78.4039 133.8 78.2224 133.532 77.6817C133.373 77.4065 133.306 77.0882 133.341 76.7726C133.375 76.457 133.509 76.1605 133.723 75.9259C135.127 74.2255 136.531 72.5219 137.935 70.8151C138.275 70.4005 138.599 69.9687 138.97 69.5828C139.6 68.9313 140.438 68.8931 141.091 69.4472C141.386 69.6938 141.574 70.0455 141.614 70.4279C141.654 70.8102 141.543 71.193 141.305 71.4953C139.565 73.6561 137.781 75.7826 136.003 77.9109C135.857 78.0933 135.67 78.2389 135.457 78.3358C135.244 78.4327 135.012 78.4783 134.778 78.4688Z" fill="#FF8025"/>
<path d="M115.147 84.5333C115.886 84.5199 116.347 84.7492 116.642 85.2574C116.937 85.7656 116.983 86.3846 116.596 86.8603C114.81 89.0613 113.009 91.2546 111.17 93.4059C111.038 93.5534 110.877 93.6728 110.698 93.757C110.519 93.8412 110.324 93.8884 110.126 93.8959C109.928 93.9034 109.731 93.871 109.546 93.8006C109.361 93.7302 109.192 93.6232 109.049 93.4862C108.457 92.9359 108.398 92.0781 108.982 91.3559C110.666 89.2753 112.379 87.2157 114.083 85.1504C114.161 85.0513 114.249 84.9604 114.345 84.8791C114.569 84.6812 114.85 84.56 115.147 84.5333Z" fill="#FF8025"/>
<path d="M129.224 137.416C129.258 137.284 129.322 137.162 129.41 137.058C129.498 136.954 129.608 136.872 129.733 136.816C129.773 137.179 129.591 137.389 129.384 137.601L129.224 137.416Z" fill="#C2BFBF"/>
<path d="M190.87 62.3762C190.598 62.4221 190.328 62.4565 190.104 62.2387C190.168 62.1699 190.233 62.103 190.296 62.0361C190.524 62.0708 190.73 62.1928 190.87 62.3762Z" fill="#898887"/>
<path d="M244.608 173.262C244.608 173.434 244.472 173.713 244.309 173.986C242.969 176.233 241.63 178.483 240.29 180.721C239.736 181.638 238.825 181.894 238.05 181.401C237.305 180.929 237.149 180.063 237.684 179.16C239.029 176.88 240.387 174.607 241.756 172.341C242.154 171.68 242.745 171.372 243.523 171.617C244.231 171.842 244.596 172.347 244.608 173.262Z" fill="#FF8025"/>
<path d="M250.858 179.452C250.127 179.408 249.585 179.105 249.374 178.432C249.143 177.702 249.292 176.98 250.012 176.628C252.564 175.388 255.132 174.184 257.716 173.016C258.482 172.666 259.28 173.05 259.63 173.78C259.719 173.949 259.774 174.134 259.79 174.324C259.806 174.515 259.784 174.706 259.725 174.888C259.666 175.07 259.571 175.238 259.445 175.382C259.32 175.527 259.167 175.644 258.995 175.729C256.441 176.967 253.863 178.149 251.29 179.347C251.15 179.397 251.005 179.433 250.858 179.452Z" fill="#FF8025"/>
<path d="M221.643 94.877C221.805 95.0452 221.968 95.2114 222.133 95.3776C227.184 100.498 230.273 106.715 232.277 113.528C233.688 118.323 234.27 123.322 234 128.312C233.426 139.103 229.676 148.675 222.533 156.839C214.876 165.583 205.236 170.815 193.732 172.414C182.594 173.965 172.152 171.772 162.563 165.838C153.949 160.509 147.776 153.104 143.907 143.788C142.125 139.427 141.033 134.817 140.672 130.121C140.037 122.55 141.132 115.261 144.068 108.272C146.72 101.945 150.731 96.2769 155.818 91.6667C160.905 87.0565 166.943 83.617 173.508 81.5909C176.717 80.6033 180.026 79.9772 183.375 79.7243C190.591 79.1301 197.574 80.0892 204.306 82.7239C209.558 84.7768 214.398 87.755 218.595 91.5164C219.126 92.0118 219.63 92.5341 220.107 93.0811C220.58 93.7173 221.262 94.1701 221.643 94.877Z" fill="white"/>
<path d="M220.107 93.278C216.725 90.0205 213.007 87.2234 208.813 85.0625C200.774 80.9032 192.245 79.1054 183.246 80.0014C166.767 81.6426 154.364 89.7683 146.332 104.164C136.423 121.933 139.801 144.516 154.207 158.893C162.024 166.694 171.434 171.254 182.417 172.385C206.061 174.825 227.107 159.447 232.394 137.32C236.065 121.959 232.623 108.089 222.515 95.9107C222.375 95.7426 222.253 95.5592 222.132 95.3834C222.444 95.3624 222.549 95.6394 222.706 95.8114C226.617 100.051 231.104 103.473 236.542 105.555C236.677 105.626 236.806 105.71 236.925 105.806C238.498 109.822 239.621 114.001 240.272 118.264C240.943 122.881 241.136 127.555 240.847 132.212C240.506 137.943 239.244 143.448 236.758 148.612C229.777 163.117 218.382 172.383 202.855 176.59C196.561 178.3 190.036 179 183.522 178.663C172.803 178.123 162.941 175.106 154.618 168.088C145.214 160.156 138.633 150.398 136.335 138.176C133.402 122.58 135.795 107.859 144.923 94.6842C152.404 83.8894 163.048 77.5292 175.835 74.9327C188.022 72.4585 199.61 74.8563 210.707 80.1199C211.556 80.5211 212.402 80.9319 213.249 81.3388C213.455 81.5643 213.721 81.7209 213.865 82.0247C215.637 85.9204 217.714 89.6403 220.304 93.0621C220.362 93.257 220.291 93.3257 220.107 93.278Z" fill="#FF8025"/>
<path d="M192.427 69.7952C193.556 69.883 194.664 69.8104 195.62 69.1341C197.08 68.1024 197.247 66.9045 196.215 65.2461C196.341 65.2207 196.471 65.2207 196.598 65.2461C199.316 66.5109 202.206 67.3324 204.959 68.4941C206.509 69.1513 207.893 70.0798 208.844 71.6255C208.27 71.8987 207.717 71.6924 207.181 71.6905C200.893 71.6714 194.603 71.6905 188.329 72.1948C187.793 72.2369 187.576 72.1375 187.63 71.5701C187.678 71.039 187.661 70.5002 187.674 69.9652L188.809 69.9155C190.005 69.7722 191.223 70.0244 192.427 69.7952Z" fill="#ECEBEA"/>
<path d="M212.892 80.2C210.042 78.8893 207.213 77.5252 204.233 76.5241C199.172 74.8046 194.013 73.5837 188.65 73.3621L187.762 73.1825C187.762 73.1309 187.762 73.0793 187.762 73.0277C189.014 72.9551 190.265 72.873 191.519 72.808C192.807 72.7392 194.098 72.659 195.388 72.6323C199.802 72.5386 204.214 72.4718 208.628 72.5826C209.202 72.5979 209.527 72.7335 209.776 73.278C210.751 75.4179 211.775 77.5348 212.77 79.6631C212.831 79.837 212.872 80.017 212.892 80.2Z" fill="white"/>
<path d="M182.55 70.1732L186.721 69.9707C186.852 71.0458 186.848 72.1331 186.709 73.2072L183.67 73.2282H183.576C182.942 73.1136 181.997 73.6103 181.738 73.1098C181.403 72.4544 181.564 71.5335 181.562 70.7273C181.558 69.9955 182.263 70.4369 182.55 70.1732Z" fill="white"/>
<path d="M220.107 93.2776L220.316 93.0713C220.785 93.654 221.465 94.0877 221.643 94.8768L220.107 93.2776Z" fill="#E27024"/>
<path d="M134.288 127.875C132.336 130.956 130.523 134.128 128.406 137.105C126.798 139.365 125.23 141.663 123.146 143.534C122.179 144.445 121.025 145.136 119.764 145.559C116.908 146.449 114.787 144.997 114.565 142.013C114.373 139.244 115.106 136.644 116.02 134.086C118.041 128.423 120.824 123.091 123.337 117.655C126.591 110.586 130.42 103.83 135.04 97.5347C142.682 87.147 152.909 80.6014 165.169 76.9885C165.439 76.9082 165.716 76.8528 165.99 76.7879C166.195 76.6847 166.214 76.7993 166.191 76.9598C159.976 79.5849 154.348 83.1195 149.538 87.8692C142.75 94.5753 138.564 102.735 136.214 111.902C134.975 116.852 134.344 121.934 134.336 127.036C134.336 127.309 134.305 127.592 134.288 127.875Z" fill="white"/>
<path d="M139.491 150.28C139.341 150.902 138.748 151.113 138.331 151.466C135.561 153.812 132.824 156.202 129.736 158.138C129.099 158.537 128.412 158.86 127.744 159.213C125.303 160.499 123.303 158.707 123.119 156.437C122.935 154.168 123.59 152.072 124.358 150.001C126.241 144.909 128.886 140.186 131.572 135.48C132.516 133.83 133.329 132.1 134.501 130.583C134.92 137.469 136.466 144.057 139.491 150.28Z" fill="white"/>
<path d="M149.713 164.674C147.99 167.158 145.919 169.303 143.222 170.723C139.928 172.454 137.357 170.979 136.959 167.27C136.695 164.811 137.342 162.536 138.194 160.289C138.964 158.297 139.919 156.38 141.046 154.565C141.168 154.374 141.224 154.08 141.532 154.043C143.791 157.922 146.541 161.495 149.713 164.674Z" fill="white"/>
<path d="M166.023 175.847C164.666 178.241 163.085 180.463 160.822 182.089C159.128 183.308 157.918 182.987 156.837 181.214C156.062 179.945 155.899 178.56 155.991 177.129C156.091 175.086 156.47 173.066 157.118 171.126C159.94 172.975 162.872 174.626 166.023 175.847Z" fill="white"/>
<path d="M166.191 76.9501L165.99 76.7782C166.331 76.5203 166.735 76.484 167.139 76.4438C167.139 76.4859 167.139 76.5279 167.139 76.5699L166.191 76.9501Z" fill="#D1D0D0"/>
<path d="M167.135 76.5697C167.131 76.5278 167.131 76.4855 167.135 76.4436C167.234 76.3457 167.356 76.2746 167.49 76.2372C167.624 76.1997 167.766 76.1971 167.901 76.2296C167.717 76.5067 167.44 76.5659 167.135 76.5697Z" fill="#949392"/>
<path d="M188.734 69.1971C186.206 69.092 183.687 69.3232 181.169 69.4971C179.25 69.6637 177.319 69.6304 175.406 69.3977C175.124 69.3628 174.847 69.2988 174.579 69.2067C173.622 68.8532 172.786 68.3144 172.682 67.1987C172.585 66.144 173.189 65.3855 174.055 64.8926C175.752 63.924 177.665 63.5972 179.554 63.261C183.149 62.621 186.766 62.4356 190.373 63.1693C191.904 63.4807 193.395 63.9698 194.695 64.8888C195.013 65.0923 195.293 65.3511 195.52 65.653C195.937 66.2854 196.264 66.9751 195.855 67.7546C195.424 68.5743 194.693 68.9163 193.81 68.9927C193.34 69.0347 192.867 69.0462 192.394 69.071C191.175 69.2334 189.946 68.9908 188.734 69.1971Z" fill="#FF8025"/>
<path d="M192.427 69.7951C191.223 70.0014 190.011 69.9575 188.8 69.9288C190 69.6193 191.223 69.8505 192.427 69.7951Z" fill="#231F20"/>
<path d="M188.734 69.1971C189.95 68.987 191.173 69.0768 192.394 69.0672C191.181 69.3863 189.952 69.1628 188.734 69.1971Z" fill="#231F20"/>
<path d="M184.843 82.0225C185.27 83.5509 185.27 85.1252 185.335 86.6785C185.691 95.085 185.992 103.492 186.172 111.898C186.225 114.451 186.363 116.999 186.407 119.54C186.407 120.157 186.599 120.385 187.201 120.54C190.695 121.43 192.538 125.048 191.062 128.09C190.115 130.045 188.36 130.847 186.336 131.111C184.231 131.384 182.292 131.034 180.935 129.17C180.743 128.9 180.487 128.881 180.196 128.852C175.202 128.346 170.206 127.847 165.235 127.146C163.512 126.906 161.801 126.665 160.124 126.204C159.831 126.124 159.358 126.088 159.358 125.767C159.358 125.347 159.866 125.369 160.164 125.297C162.444 124.756 164.773 124.533 167.099 124.342C171.502 123.98 175.916 123.684 180.324 123.386C180.48 123.392 180.634 123.357 180.772 123.284C180.91 123.211 181.026 123.103 181.109 122.972C181.712 121.962 182.625 121.174 183.714 120.725C184.326 120.484 184.2 119.976 184.204 119.531C184.235 116.061 184.223 112.592 184.273 109.122C184.384 101.149 184.511 93.1751 184.656 85.2017C184.671 84.147 184.776 83.0847 184.843 82.0225Z" fill="#231F20"/>
<path d="M173.701 162.989C174.097 163.854 173.818 164.628 173.749 165.402C173.73 165.619 173.638 165.843 173.672 166.049C173.745 166.479 173.808 166.974 174.306 167.125C174.74 167.257 175.001 166.879 175.234 166.598C175.763 165.969 176.125 165.218 176.287 164.414C176.394 163.879 176.212 163.589 175.638 163.795C175.286 163.921 175.041 163.963 174.934 163.518C174.807 162.992 175.271 163.052 175.508 162.992C176.695 162.698 177.321 163.331 177.101 164.546C176.916 165.474 176.511 166.345 175.92 167.085C175.456 167.696 174.886 168.13 174.067 167.914C173.247 167.698 172.981 167.001 172.882 166.261C172.754 165.319 173.178 164.406 173.073 163.449C173.025 163.101 173.443 163.111 173.701 162.989Z" fill="#272324"/>
<path d="M217.316 108.067C216.968 108.399 216.741 108.839 216.675 109.315C216.622 109.711 216.392 109.734 216.066 109.661C215.638 109.565 215.844 109.298 215.887 109.078C216.174 107.586 217.65 106.153 219.106 106C219.797 105.926 220.255 106.228 220.339 106.975C220.423 107.722 219.847 108.811 219.19 108.971C218.404 109.172 217.695 109.011 217.316 108.067Z" fill="#272324"/>
<path d="M162.306 92.0092C163.443 92.8747 164.656 93.3199 165.835 93.83C166.145 93.9637 166.561 94.021 166.381 94.5121C166.172 95.0852 165.807 94.6936 165.548 94.5904C164.316 94.1108 163.085 93.6141 162.003 92.8327C161.238 92.2862 161.274 91.7284 162.034 91.1896C162.957 90.5323 164.543 90.7329 165.319 91.629C165.454 91.7838 165.811 91.9729 165.497 92.2327C165.278 92.4142 165.043 92.569 164.708 92.2327C164.061 91.564 163.276 91.3501 162.306 92.0092Z" fill="#272425"/>
<path d="M153.64 148.424C152.331 148.396 151.523 147.889 151.412 147.198C151.347 146.798 151.435 146.336 151.822 146.254C152.08 146.198 152.384 146.538 152.289 146.966C152.212 147.303 152.507 147.368 152.731 147.471C153.602 147.872 154.911 147.301 155.219 146.384C155.453 145.7 155.028 145.205 154.262 145.367C153.849 145.453 153.395 145.513 153.334 145.107C153.273 144.702 153.788 144.571 154.159 144.521C154.825 144.431 155.422 144.605 155.843 145.153C156.264 145.702 156.215 146.284 155.922 146.846C155.388 147.878 154.498 148.39 153.64 148.424Z" fill="#282425"/>
<path d="M222.393 146.554C222.393 147.958 221.855 148.419 220.779 148.254C220.138 148.155 219.604 147.815 219.045 147.528C218.775 147.391 218.662 147.24 218.83 146.938C218.999 146.636 219.144 146.619 219.428 146.797C219.779 147.008 220.148 147.189 220.53 147.337C220.846 147.467 221.217 147.626 221.487 147.29C221.726 146.988 221.621 146.627 221.462 146.306C221.112 145.599 220.505 145.14 219.856 144.747C219.567 144.575 219.171 144.466 219.502 143.994C219.807 143.56 220.076 143.936 220.289 144.061C221.382 144.689 222.306 145.469 222.393 146.554Z" fill="#272425"/>
<path d="M229.149 122.668C228.039 122.535 227.126 122.968 226.186 123.272C225.886 123.369 225.572 123.689 225.338 123.167C225.076 122.582 225.621 122.632 225.874 122.529C226.802 122.147 227.76 121.83 228.776 121.807C229.216 121.807 229.678 121.862 229.901 122.336C230.125 122.81 229.926 123.198 229.651 123.557C229.256 124.094 228.664 124.454 228.005 124.558C227.761 124.596 227.417 124.818 227.331 124.355C227.264 124.002 227.361 123.803 227.802 123.753C228.11 123.729 228.403 123.613 228.644 123.419C228.884 123.226 229.061 122.964 229.149 122.668Z" fill="#272324"/>
<path d="M205.565 91.1933C205.845 91.7569 205.418 91.9785 205.077 91.9671C204.737 91.9556 204.744 91.5047 204.744 91.2028C204.741 90.661 204.935 90.1366 205.292 89.7279C205.808 89.128 206.49 88.7554 207.206 89.1547C207.922 89.554 207.634 90.3183 207.414 90.9296C207.228 91.3937 207.003 91.8411 206.741 92.267C206.618 92.4868 206.549 92.8307 206.122 92.5899C205.695 92.3492 205.918 92.0989 206.059 91.8257C206.302 91.35 206.526 90.8704 206.746 90.3794C206.823 90.2093 206.905 89.9763 206.714 89.8693C206.561 89.7833 206.352 89.8693 206.193 90.0068C206.006 90.1452 205.853 90.3236 205.744 90.5289C205.636 90.7342 205.574 90.9613 205.565 91.1933Z" fill="#282425"/>
<path d="M147.257 128.103C146.683 128.079 146.21 127.912 145.936 127.439C145.626 126.892 145.733 126.34 146.049 125.832C146.143 125.681 146.222 125.347 146.518 125.572C146.7 125.71 146.892 125.843 146.817 126.185C146.576 127.278 146.637 127.332 147.774 127.19C148.302 127.103 148.834 127.047 149.368 127.02C150.073 127.02 150.49 127.381 150.473 128.13C150.473 128.308 150.515 128.579 150.318 128.614C150.121 128.648 149.744 128.518 149.744 128.423C149.625 127.509 148.991 127.901 148.526 127.928C148.061 127.954 147.655 128.046 147.257 128.103Z" fill="#2B2728"/>
<path d="M210.597 156.667C210.597 156.762 210.597 156.858 210.597 156.952C210.62 157.473 210.502 158.17 211.235 158.207C211.849 158.235 212.001 157.664 211.962 157.112C211.926 156.705 212.267 156.613 212.496 156.577C212.879 156.52 212.787 156.91 212.808 157.112C212.912 158.083 212.182 159.023 211.315 159.078C210.448 159.133 209.847 158.472 209.769 157.41C209.741 157.002 209.752 156.593 209.803 156.187C209.834 155.924 209.696 155.526 210.236 155.536C210.775 155.545 210.586 155.918 210.607 156.197C210.62 156.352 210.607 156.51 210.607 156.667H210.597Z" fill="#292626"/>
<path d="M151.702 108.694C151.668 108.94 151.612 109.181 151.535 109.417C151.47 109.577 151.462 109.936 151.122 109.766C150.898 109.652 150.547 109.575 150.75 109.159C150.879 108.834 150.905 108.478 150.823 108.138C150.777 107.821 150.666 107.535 150.308 107.42C150.173 107.369 150.025 107.37 149.891 107.424C149.757 107.477 149.649 107.579 149.586 107.708C149.384 108.091 149.114 108.135 148.821 107.9C148.438 107.6 148.8 107.344 148.972 107.135C149.408 106.606 149.975 106.337 150.649 106.619C151.514 106.992 151.654 107.77 151.702 108.694Z" fill="#2A2728"/>
<path d="M192.563 164.647C192.538 164.978 192.594 165.31 192.728 165.613C192.861 165.917 193.068 166.183 193.329 166.388C193.666 166.653 193.639 166.866 193.415 167.152C193.089 167.563 192.909 167.129 192.754 166.992C192.369 166.665 192.077 166.244 191.907 165.769C191.737 165.293 191.696 164.782 191.788 164.286C191.822 164.047 191.675 163.57 192.23 163.663C192.657 163.736 192.672 164.028 192.592 164.37C192.575 164.462 192.565 164.554 192.563 164.647Z" fill="#2B2728"/>
<path d="M217.72 107.533C218.036 107.355 218.294 107.187 218.575 107.055C218.857 106.923 219.249 106.635 219.486 107.002C219.724 107.368 219.379 107.703 219.157 107.993C218.891 108.343 218.583 108.289 218.267 108.031C218.103 107.89 217.948 107.741 217.72 107.533Z" fill="#F9F8F9"/>
</svg>
