<svg width="39" height="31" viewBox="0 0 39 31" fill="none" xmlns="http://www.w3.org/2000/svg">
<path d="M6.03581 0H32.9648C36.2869 0 39.0006 2.67405 39.0006 5.94758V25.0524C39.0006 28.326 36.2869 31 32.9648 31H6.03581C2.71371 31 0 28.326 0 25.0524V5.94758C0 2.67405 2.71371 0 6.03581 0ZM36.3269 11.8084L20.1247 20.288C19.7164 20.501 19.2441 20.4852 18.8599 20.2802L2.66568 11.8084V25.0524C2.66568 26.8746 4.17864 28.3654 6.0278 28.3654H32.9568C34.806 28.3654 36.3189 26.8746 36.3189 25.0524V11.8084H36.3269ZM2.67369 8.82672L19.5003 17.6298L36.3269 8.82672V5.93969C36.3269 4.11756 34.814 2.62672 32.9648 2.62672H6.03581C4.18664 2.62672 2.67369 4.11756 2.67369 5.93969V8.82672Z" fill="#FEFEFE"/>
</svg>
