<svg width="35" height="35" viewBox="0 0 35 35" fill="none" xmlns="http://www.w3.org/2000/svg">
<path fill-rule="evenodd" clip-rule="evenodd" d="M8.6662 0H26.3338C31.1033 0 35 3.90207 35 8.66274V26.3233C35 31.0909 31.0964 34.986 26.3338 34.986H11.9902C12.7654 33.7994 14.0642 31.6564 14.5182 29.9741C14.7556 29.1155 15.7123 25.6183 15.7123 25.6183C16.3478 26.7631 18.1704 27.7194 20.1117 27.7194C25.8939 27.7194 30.0768 22.6376 30.0768 16.3273C30.0559 10.2822 24.8813 5.75888 18.2193 5.75888C9.93715 5.75888 5.53771 11.064 5.53771 16.8438C5.53771 19.5243 7.03911 22.868 9.43436 23.929C10.1187 24.2361 10.0279 23.8592 10.6145 21.6115C10.6634 21.423 10.6355 21.2625 10.4888 21.088C7.06006 17.1231 9.81843 8.9629 17.7304 8.9629C29.176 8.9629 27.0391 24.7946 19.7207 24.7946C17.8352 24.7946 16.4316 23.3147 16.8715 21.4858C17.4092 19.3079 18.4637 16.9625 18.4637 15.3919C18.4637 11.434 12.5628 12.0203 12.5628 17.2696C12.5628 18.8891 13.1355 19.985 13.1355 19.985C13.1355 19.985 11.236 27.6566 10.8869 29.0876C10.433 30.9374 10.7193 33.6598 10.9078 35H8.6662C3.89665 35 0 31.0979 0 26.3373V8.67671C0 3.90905 3.90363 0.0139609 8.6662 0.0139609V0Z" fill="#FEFEFE"/>
</svg>
