<svg id="Слой_1" data-name="Слой 1" xmlns="http://www.w3.org/2000/svg" viewBox="0 0 36 36"><defs><style>.cls-1{fill:#fff;}</style></defs><path class="cls-1" d="M31.64,36H4.36l-.2-.07a4.82,4.82,0,0,1-4-3.55c-.08-.24-.12-.49-.18-.74V4.36c0-.09.05-.19.07-.29A4.9,4.9,0,0,1,4.86,0H31.15A4.86,4.86,0,0,1,36,4.85Q36,18,36,31.17a4.86,4.86,0,0,1-3.5,4.62C32.21,35.87,31.92,35.93,31.64,36ZM20,14.62h0c0-.61,0-1.22,0-1.82,0-.79-.33-1.15-1.11-1.18-1.21,0-2.43,0-3.65,0a1.59,1.59,0,0,0-.83.39c-.33.27-.25.48.16.59a1.11,1.11,0,0,1,.92,1.13c0,.77.07,1.54,0,2.32a5.66,5.66,0,0,1-.19,1.28c-.11.47-.38.55-.76.25a2.89,2.89,0,0,1-.49-.5,17.1,17.1,0,0,1-2.38-4.2,1.15,1.15,0,0,0-1.16-.8l-3.06,0c-.67,0-.88.34-.61,1s.62,1.36.94,2a28.41,28.41,0,0,0,4,6.4A8.22,8.22,0,0,0,19,24.38c.68,0,.93-.3,1-1a12.1,12.1,0,0,1,.29-1.48.59.59,0,0,1,1-.34,5.09,5.09,0,0,1,.65.58c.47.48.92,1,1.38,1.45a2.42,2.42,0,0,0,1.78.79l2.92,0a3.07,3.07,0,0,0,.52-.06.85.85,0,0,0,.64-1.25c-.06-.13-.14-.25-.21-.37a18.83,18.83,0,0,0-2.66-3c-.89-.88-.9-1.08-.15-2.1s1.34-1.76,1.95-2.67a12,12,0,0,0,1.06-2c.26-.61,0-1-.66-1-1.32,0-2.64,0-4,0a.72.72,0,0,0-.67.43c-.08.17-.15.35-.22.52a14,14,0,0,1-2.55,4.21c-.19.21-.36.54-.7.44s-.39-.48-.4-.79C20,16.14,20,15.38,20,14.62Z"/></svg>