<svg width="330" height="284" viewBox="0 0 330 284" fill="none" xmlns="http://www.w3.org/2000/svg">
<path d="M206.022 47.3064C206.973 47.4202 207.921 47.626 208.872 47.6333C213.361 47.6647 217.846 47.6139 222.338 47.6575C224.041 47.6541 225.743 47.7665 227.431 47.994C233.111 48.827 238.83 49.5049 244.44 50.6914C255.292 52.9843 265.566 56.9552 275.32 62.2167C281.697 65.6549 287.755 69.5944 293.268 74.3086C295.961 76.6113 298.667 78.9091 301.19 81.3885C307.111 87.2378 312.295 93.7875 316.625 100.892C316.863 101.236 317.122 101.566 317.399 101.88L309.24 102.865C307.634 103.061 306.751 104.042 306.887 105.475C307.018 106.873 308.126 107.655 309.747 107.473C313.077 107.097 316.408 106.717 319.739 106.333C321.316 110.02 322.996 113.669 324.447 117.408C326.601 122.957 327.99 128.71 328.897 134.599C329.733 139.957 330.095 145.378 329.979 150.8C329.787 158.715 328.536 166.569 326.259 174.153C324.557 179.915 322.292 185.495 319.497 190.814C316.31 196.84 312.606 202.535 308.172 207.727C305.689 210.632 303.079 213.434 300.479 216.24C300.101 216.649 299.473 216.831 298.961 217.119C298.843 216.917 298.736 216.709 298.641 216.497C294.445 205.681 290.249 194.87 286.053 184.063C283.116 176.521 280.14 168.993 277.181 161.461C277.736 161.528 278.301 161.703 278.84 161.642C283.033 161.18 287.227 160.7 291.408 160.158C291.716 160.121 292.014 160.024 292.284 159.872C292.555 159.72 292.792 159.515 292.982 159.27C293.173 159.026 293.313 158.746 293.394 158.447C293.475 158.148 293.496 157.836 293.455 157.528C293.251 156.252 292.158 155.415 290.758 155.572C286.8 156.013 282.851 156.519 278.891 156.947C277.489 157.1 276.606 157.758 276.245 159.114C275.274 156.255 274.217 153.424 273.387 150.528C271.651 144.402 268.338 138.835 263.778 134.383C257.986 128.664 251.093 124.604 243.545 121.793C231.365 117.241 219.158 112.592 205.736 113.635C203.73 113.793 202.435 112.57 201.569 110.955C201.111 110.105 200.936 109.095 200.706 108.139C200.221 106.156 199.149 105.146 197.111 104.877C196.653 104.819 196.19 104.798 195.61 104.749C193.645 98.1559 191.673 91.6063 189.77 85.0398C189.605 84.4708 189.813 83.7589 189.959 83.1391C191.307 77.3934 193.944 72.1706 196.539 66.9164C199.762 60.4032 202.869 53.8439 206.022 47.3064ZM288.517 128.676C288.173 127.831 288.049 127.313 287.789 126.889C285.628 123.5 283.45 120.123 281.255 116.761C280.399 115.451 279.002 115.127 277.84 115.906C276.751 116.633 276.538 117.974 277.355 119.296C278.071 120.466 278.837 121.601 279.579 122.754C281.035 125.018 282.49 127.289 283.967 129.533C284.602 130.502 285.599 131.047 286.635 130.536C287.401 130.17 287.93 129.279 288.517 128.676ZM274.319 106.781C274.928 106.705 275.633 106.613 276.337 106.538C279.732 106.141 283.111 105.764 286.494 105.342C288.042 105.146 288.903 104.149 288.794 102.807C288.684 101.466 287.673 100.551 286.261 100.706C282.074 101.164 277.891 101.672 273.715 102.229C272.369 102.408 271.532 103.502 271.651 104.662C271.782 105.94 272.825 106.805 274.319 106.781ZM275.597 75.805C275.466 74.5193 274.928 73.6936 273.754 73.4273C272.517 73.1488 271.639 73.6864 271.086 74.7663C269.231 78.3336 267.384 81.9026 265.544 85.4732C264.816 86.9066 265.173 88.2504 266.405 88.88C267.637 89.5095 268.881 89.0567 269.664 87.5773C271.522 84.0664 273.362 80.5467 275.182 77.0181C275.353 76.6256 275.492 76.2199 275.597 75.805ZM295.529 144.376C295.861 144.083 296.664 143.63 297.086 142.945C298.027 141.422 298.784 139.783 299.601 138.19C300.666 136.136 301.765 134.098 302.783 132.023C303.385 130.812 302.982 129.575 301.905 128.955C300.828 128.335 299.397 128.577 298.798 129.696C296.768 133.483 294.762 137.284 292.859 141.134C292.068 142.727 293.281 144.424 295.529 144.376ZM292.618 109.391C291.406 109.521 290.54 110.04 290.305 111.224C290.062 112.5 290.562 113.422 291.786 113.945C295.526 115.538 299.254 117.153 303.004 118.725C303.478 118.93 303.999 119.005 304.513 118.943C304.99 118.889 305.435 118.673 305.772 118.331C306.11 117.989 306.319 117.542 306.366 117.064C306.547 115.882 306.055 115.003 304.981 114.536C301.165 112.88 297.336 111.258 293.509 109.63C293.215 109.528 292.914 109.448 292.609 109.391H292.618ZM260.824 96.0736C260.69 95.6645 260.518 95.2689 260.31 94.892C258.148 91.5022 255.972 88.1269 253.781 84.7662C252.944 83.4853 251.641 83.1609 250.482 83.8558C249.323 84.5507 249.044 85.8848 249.827 87.1996C250.504 88.3352 251.248 89.432 251.966 90.5434C253.477 92.8848 254.984 95.2334 256.509 97.5651C257.152 98.553 258.086 98.9186 259.213 98.5724C260.276 98.2407 260.802 97.4537 260.814 96.0663L260.824 96.0736ZM250.358 109.437C250.62 109.773 250.984 110.698 251.634 110.996C255.544 112.783 259.502 114.463 263.477 116.098C264.04 116.312 264.665 116.296 265.216 116.053C265.767 115.811 266.2 115.361 266.422 114.802C266.861 113.621 266.39 112.442 265.19 111.817C264.646 111.534 264.064 111.333 263.492 111.09C260.278 109.715 257.072 108.318 253.846 106.974C252.051 106.212 250.373 107.207 250.349 109.429L250.358 109.437ZM313.217 142.035H313.014C313.014 142.364 312.989 142.698 313.014 143.027C313.128 144.434 314.086 145.422 315.33 145.434C316.574 145.446 317.656 144.361 317.69 142.909C317.782 138.894 317.859 134.88 317.893 130.863C317.908 129.277 316.899 128.187 315.567 128.185C314.195 128.185 313.229 129.233 313.22 130.848C313.203 134.572 313.217 138.303 313.217 142.035Z" fill="#ECEBEA"/>
<path d="M206.022 47.3062C202.869 53.8437 199.762 60.403 196.546 66.9186C193.951 72.168 191.314 77.3907 189.966 83.1413C189.82 83.7611 189.612 84.473 189.777 85.042C191.681 91.6085 193.657 98.1581 195.617 104.751C196.197 104.8 196.66 104.822 197.118 104.88C199.156 105.148 200.235 106.158 200.713 108.141C200.955 109.098 201.118 110.107 201.576 110.957C202.442 112.572 203.737 113.795 205.743 113.637C219.165 112.587 231.372 117.243 243.553 121.795C251.101 124.616 257.993 128.676 263.785 134.385C268.345 138.837 271.658 144.404 273.395 150.531C274.224 153.436 275.291 156.257 276.252 159.117L277.188 161.463C280.147 168.995 283.123 176.523 286.06 184.065C290.264 194.869 294.46 205.68 298.648 216.499C298.744 216.712 298.85 216.919 298.968 217.121C300.326 221.673 301.76 226.206 303.019 230.787C303.833 233.75 304.389 236.801 303.695 239.888C302.837 243.724 300.324 246.121 296.751 247.52C293.394 248.848 289.809 249.507 286.198 249.457C277.152 249.307 268.081 249.215 259.068 248.489C250.106 247.784 241.21 246.297 232.267 245.305C229.975 245.063 227.618 245.322 225.292 245.414C216.475 245.809 207.641 245.588 198.855 244.753C188.739 243.748 178.814 241.847 169.142 238.699C166.646 237.888 164.182 236.971 161.412 236C161.744 236.561 161.897 236.871 162.098 237.155C165.525 242.205 168.972 247.242 172.367 252.312C172.58 252.671 172.883 252.97 173.245 253.178C173.608 253.386 174.018 253.498 174.436 253.501C185.734 254.309 197.026 255.169 208.324 256.004C214.894 256.489 221.462 256.973 228.037 257.414C229.211 257.491 229.595 257.934 229.493 259.084C229.25 261.861 229.027 264.653 228.891 267.433C228.843 268.457 228.164 268.622 227.455 268.886C217.283 272.568 207.112 276.256 196.941 279.951C194.363 280.886 191.71 281.668 189.226 282.81C186.389 284.116 183.522 284.118 180.521 283.878C170.459 283.072 160.391 282.36 150.32 281.612C141.769 280.978 133.217 280.342 124.665 279.706C116.396 279.101 108.126 278.527 99.8577 277.924C92.2516 277.367 84.6456 276.786 77.0396 276.229C76.084 276.159 75.8269 275.639 75.8996 274.818C76.0646 272.554 76.181 270.288 76.4162 268.038C76.6055 266.643 76.2513 265.229 75.4267 264.087C64.2699 247.767 53.1486 231.422 42.0629 215.051C41.8568 214.748 41.6627 214.438 41.3159 213.903L76.5181 216.484L51.0514 196.63L58.2888 190.092C56.7075 189.387 55.325 188.433 53.8407 188.23C52.8099 188.09 51.4565 188.753 50.5591 189.455C48.5145 191.056 46.6785 192.935 44.7236 194.642C36.8702 201.462 27.69 205.431 17.4694 207.039C14.5201 207.504 11.5951 207.169 9.00237 205.45C7.57381 204.504 7.30459 203.775 7.65385 202.092C6.63518 201.736 5.58498 201.45 4.60997 201.002C3.92189 200.688 3.29657 200.251 2.76425 199.714C1.35267 198.276 1.75285 197.162 4.04 196.007C3.06984 195.494 1.97114 195.145 1.212 194.436C0.564415 193.831 -0.0952952 192.741 0.0114222 191.986C0.101162 191.363 1.30658 190.886 2.0342 190.373C2.21126 190.249 2.46107 190.23 2.83943 190.116C2.08999 189.666 1.42543 189.363 0.87729 188.92C-0.29175 187.971 -0.23597 186.523 1.03251 185.719C1.71589 185.298 2.4628 184.99 3.24447 184.806C11.7367 182.749 19.6364 178.756 26.3245 173.141C27.8477 171.874 29.3514 170.586 30.9546 169.23C28.0781 168.683 25.3156 168.206 22.5773 167.613C21.4742 167.365 20.4068 166.979 19.4 166.465C18.9344 166.223 18.3959 165.567 18.408 165.112C18.4202 164.656 18.995 163.949 19.4607 163.807C21.4422 163.204 23.448 162.562 25.4902 162.315C29.7637 161.797 34.0616 161.347 38.3618 161.182C44.806 160.94 50.4087 163.211 55.1649 167.545C59.8193 171.787 64.459 176.039 69.1522 180.329L72.6714 177.237C74.442 178.477 76.164 179.644 77.8424 180.869C86.8964 187.487 97.0612 191.918 107.459 195.906C108.378 196.259 108.972 196.148 109.399 195.235C110.127 193.651 110.854 192.087 111.582 190.501C111.78 190.133 111.957 189.755 112.113 189.368C114.582 182.286 117.165 175.237 119.465 168.102C121.664 161.276 123.474 154.327 125.62 147.485C129.588 134.882 137.4 125.812 150.129 121.327C153.815 120.027 157.446 118.57 161.407 117.071L155.343 104.657C154.652 105.03 154.216 105.301 153.748 105.512C150.517 106.964 147.361 108.618 144.024 109.761C139.353 111.359 134.987 109.495 132.625 105.299C131.237 102.846 130.762 100.158 130.774 97.3857C130.774 97.0322 131.308 96.4826 131.696 96.3664C132.78 96.0419 133.932 95.962 135.028 95.6739C139.394 94.5262 140.864 92.502 140.738 87.8047C137.439 90.519 133.791 92.0758 129.353 91.6908C129.013 89.7708 128.57 87.8822 128.383 85.9669C128.257 84.7151 127.876 84.2139 126.627 84.6328C125.159 84.611 123.69 84.5868 122.22 84.5698C119.36 84.5432 118.373 83.3422 119.309 80.6013C120.219 77.9379 121.473 75.3835 122.487 72.7491C123.309 70.6063 124.003 68.4126 124.847 65.9695C123.748 65.8775 122.87 65.6741 122.021 65.7685C121.172 65.863 120.384 66.2528 119.513 66.5337C119.554 64.6112 120.641 64.2794 125.23 64.7056V59.9962H120.372C119.474 59.9962 118.824 59.8025 118.81 58.6693C118.783 56.7323 119.052 56.0446 120.333 56.0059C121.888 55.9526 123.452 56.1173 125.065 56.1899V53.4708C123.224 53.1948 121.449 53.1488 119.816 52.6476C112.472 50.3885 108.337 42.1489 113.219 34.517C116.251 29.7761 120.435 26.1393 124.793 22.6962C132.715 16.4323 141.349 11.212 149.964 5.98932C155.414 2.68668 161.606 1.35982 167.871 0.543842C173.864 -0.238234 179.852 -0.267289 185.819 1.05716C192.098 2.45182 195.741 5.78109 196.367 13.89C196.553 16.2798 196.396 18.6938 196.396 21.1805C197.747 21.3815 199.393 21.5292 201.004 21.8778C208.947 23.6115 212.272 29.1417 209.898 36.9915C208.826 40.5024 207.325 43.8728 206.022 47.3062ZM251.957 127.279L251.312 127.037C250.516 126.553 249.75 126.003 248.918 125.584C241.964 122.054 234.608 119.623 227.089 117.611C220.742 115.916 214.373 114.378 207.717 114.788C207.007 114.831 206.294 114.809 205.583 114.846C203.703 114.938 202.319 114.047 201.181 112.666C200.834 112.243 200.526 111.79 200.138 111.265C196.781 116.371 192.391 120.417 188.254 124.71C186.049 127.001 183.917 128.005 180.686 127.131C176.619 126.02 173.287 127.616 171.031 131.105C169.891 132.872 168.703 134.78 168.259 136.783C167.323 141.022 166.653 145.315 166.253 149.637C165.884 153.586 166.025 157.579 165.887 161.552C165.887 161.884 165.462 162.201 165.234 162.521C164.992 162.24 164.601 161.988 164.543 161.676C163.827 157.773 163.296 153.831 162.447 149.959C161.162 144.092 159.585 138.293 156.68 132.971C155.089 130.066 153.18 127.419 149.569 126.768C149.525 126.768 149.506 126.628 149.45 126.492L157.078 120.412C156.988 120.252 156.896 120.095 156.806 119.928C152.355 121.865 147.691 123.444 143.498 125.838C135.009 130.681 129.654 138.293 126.944 147.545C123.064 160.828 119.183 174.107 114.332 187.082C113.18 190.172 111.715 193.15 110.318 196.14C109.79 197.271 108.924 197.814 107.532 197.298C97.6506 193.639 88.0387 189.436 79.2903 183.477C77.1075 181.988 74.9537 180.453 72.7272 178.896L52.9748 196.62C60.8549 202.673 68.6162 208.603 76.3168 214.603C78.1649 216.041 80.0301 216.85 82.4652 216.993C92.0188 217.554 101.558 218.385 111.104 219.102C119.894 219.76 128.686 220.385 137.476 221.07C138.38 221.14 138.751 220.867 138.955 220.029C139.85 216.361 140.944 212.734 141.655 209.031C142.295 205.705 142.53 202.3 142.962 198.763L147.779 221.714C148.613 221.794 149.409 221.956 150.204 221.925C151.376 221.869 152.103 222.3 152.748 223.3C154.701 226.322 156.76 229.276 158.79 232.259C159.161 232.806 159.471 233.566 160.003 233.801C162.736 235.012 165.53 236.094 168.569 237.324C166.665 219.189 165.462 201.431 164.756 183.68C166.083 183.295 166.069 184.109 166.103 184.826C166.328 189.741 166.508 194.659 166.774 199.574C167.034 204.344 167.315 209.114 167.701 213.874C168.285 221.087 168.996 228.288 169.59 235.496C169.712 236.949 170.024 238.007 171.725 238.215C172.649 238.329 173.534 238.748 174.446 239C183.95 241.601 193.693 243.241 203.526 243.896C210.953 244.409 218.377 244.622 226.18 244.05L222.032 242.84C222.301 240.765 222.561 238.762 222.833 236.678C222.374 236.498 221.945 236.322 221.511 236.162C214.011 233.392 206.488 230.678 199.015 227.835C193.42 225.709 189.013 222.024 186.706 216.489C184.64 211.54 183.202 206.32 181.579 201.201C181.219 200.025 181.055 198.798 181.094 197.569C181.13 196.116 182.146 195.69 183.333 196.538C184 196.988 184.587 197.547 185.069 198.191C186.864 200.746 188.583 203.351 190.332 205.939C190.689 206.465 191.06 206.988 191.698 207.922C192.234 206.637 192.745 205.794 192.942 204.884C194.669 196.893 194.273 188.789 193.934 180.705C193.835 178.351 193.33 176.015 193.25 173.664C193.187 171.727 194.705 171 196.371 171.969C196.861 172.296 197.332 172.649 197.783 173.027C197.729 172.799 197.706 172.564 197.715 172.329C197.914 171.458 197.878 170.223 198.443 169.831C199.008 169.438 200.247 169.661 201.038 169.986C201.911 170.342 202.612 171.119 203.403 171.727C203.694 168.959 205.1 168.284 207.375 169.901C208.438 170.656 209.316 171.683 210.271 172.596C211.484 171.698 212.258 171.644 213.691 172.569C215.901 173.99 217.225 176.095 218.033 178.535C219.449 182.811 219.779 187.252 219.716 191.7C219.614 199.128 219.313 206.554 219.16 213.976C219.088 217.489 221.411 219.637 225.108 219.581C225.4 217.607 225.694 215.624 225.99 213.632L243.397 216.455C240.671 204.087 238.003 192.041 235.318 179.995C235.799 180.244 236.187 180.641 236.424 181.126C241.692 190.488 246.953 199.851 252.207 209.213C253.273 211.109 254.239 213.059 255.1 215.056C255.91 216.954 255.461 217.668 253.48 218.043C252.835 218.197 252.17 218.256 251.508 218.22C245.954 217.641 240.397 217.065 234.855 216.387C232.287 216.075 229.742 215.54 227.043 215.08C225.83 224.118 224.618 233.026 223.405 242.22C228.983 243.261 234.341 244.474 239.762 245.218C246.422 246.133 253.111 246.829 259.829 247.305C267.533 247.849 275.257 248.174 282.978 248.341C287.266 248.433 291.58 247.985 295.674 246.542C301.253 244.573 303.678 240.426 302.466 234.637C301.6 230.532 300.729 226.373 299.271 222.457C293.754 207.627 287.95 192.906 282.342 178.109C278.728 168.569 275.168 159.01 271.777 149.39C269.012 141.55 264.144 135.434 257.399 130.703L251.942 127.264L251.957 127.279ZM43.8407 215.341C44.1803 215.859 44.3258 216.094 44.4859 216.327C55.2773 232.207 66.0784 248.08 76.8892 263.946C77.3305 264.508 77.9663 264.886 78.6719 265.004C80.4958 265.259 82.3488 265.314 84.1896 265.445C88.6257 265.765 93.0617 266.077 97.4978 266.413C102.028 266.748 106.557 267.108 111.08 267.44C115.468 267.762 119.86 268.048 124.247 268.375C130.003 268.806 135.756 269.283 141.511 269.706C147.267 270.13 153.032 270.491 158.79 270.917C165.773 271.438 172.753 272.007 179.733 272.544C181.353 272.668 182.978 272.74 184.783 272.849C184.579 272.498 184.499 272.338 184.397 272.191C173.477 256.121 162.541 240.054 151.591 223.988C151.223 223.533 150.69 223.241 150.107 223.177C143.255 222.637 136.401 222.164 129.547 221.663C121.325 221.063 113.103 220.457 104.881 219.847L79.5062 217.971C71.0982 217.346 62.6901 216.721 54.2821 216.097C50.8865 215.845 47.4982 215.605 43.8407 215.341ZM175.186 66.0494C175.836 65.8073 176.641 65.6184 177.313 65.2262C179.292 64.0833 179.77 62.2092 179.573 60.0979C179.401 58.2311 178.846 56.4902 176.937 55.7274C175.028 54.9647 173.223 55.7274 172.064 57.1366C170.592 58.9211 169.04 58.6911 167.456 57.8194C166.161 57.11 165.067 56.0325 163.9 55.0955C163.469 54.7468 163.134 54.2626 162.675 53.9672C158.977 51.5991 158.067 49.65 158.824 45.1343C154.837 45.1343 150.883 45.4103 146.981 45.0714C140.11 44.4781 133.183 43.7445 127.903 38.2917C126.205 45.2166 126.103 52.127 126.513 59.0809C126.612 60.7758 126.838 62.5821 126.367 64.1438C124.953 68.829 123.229 73.4198 121.616 78.042C121.228 79.1534 120.699 80.2212 120.403 81.3568C120.005 82.8628 120.347 83.2406 121.914 83.2527C124.327 83.2696 126.741 83.2527 129.176 83.2527C129.583 85.7393 129.974 88.1388 130.369 90.5528C133.765 90.4947 136.554 89.4052 139.101 87.502C139.828 86.9597 140.76 86.703 141.599 86.3156C141.72 87.243 142.001 88.1824 141.936 89.0977C141.616 93.6255 139.971 95.5867 135.574 96.7925C134.405 97.1145 133.209 97.3325 131.693 97.6714C132.205 99.715 132.47 101.756 133.224 103.599C135.125 108.228 139.2 109.993 144.007 108.533C148.674 107.117 152.848 104.696 156.903 102.09C162.649 98.3954 167.776 94.0298 171.004 87.8604C171.991 88.0008 172.217 88.4536 171.645 89.1897C169.687 91.7248 167.956 94.4971 165.68 96.7126C162.852 99.468 159.569 101.759 156.425 104.294C156.471 104.381 156.626 104.664 156.782 104.947C159.43 109.746 161.962 114.611 163.459 119.911C163.944 121.645 164.279 123.543 164.138 125.315C163.825 129.221 163.168 133.1 162.651 136.991C162.409 138.911 161.739 140.906 162.038 142.744C162.644 146.482 163.777 150.136 164.584 153.397C165.004 149.523 165.37 145.25 165.957 140.998C166.471 137.284 167.504 133.717 169.743 130.586C172.462 126.79 175.918 124.821 180.716 125.8C181.739 126.001 182.776 126.128 183.818 126.18C184.23 126.204 184.788 126.085 185.059 125.812C188.94 121.87 192.821 117.909 196.638 113.889C196.98 113.531 197.104 112.679 196.949 112.177C194.254 103.487 191.455 94.8264 188.802 86.1243C188.385 84.7563 187.725 84.1389 186.408 84.0662C184.249 83.9476 182.797 82.8289 181.86 80.9427C181.504 80.2164 181.079 79.5384 180.757 78.8047C178.894 74.5844 177.058 70.3496 175.186 66.0494ZM68.2257 181.23L54.4421 168.601C50.4718 164.969 45.8368 162.518 40.4306 162.574C34.9104 162.632 29.3951 163.356 23.8894 163.891C22.4827 164.029 21.1124 164.557 19.725 164.906C19.7396 165.056 19.7517 165.208 19.7663 165.359C24.246 167.274 29.1137 167.487 34.0446 168.247C32.7518 169.361 31.6192 170.291 30.5399 171.279C24.5467 176.763 17.8429 181.131 10.2102 183.981C7.78481 184.886 5.24058 185.484 2.77395 186.293C2.23551 186.47 1.80379 186.949 1.31871 187.288C1.77226 187.724 2.15062 188.32 2.68906 188.564C4.65363 189.446 6.7419 189.482 8.82774 189.097C13.1086 188.312 17.0013 186.463 20.8553 184.55C23.8046 183.097 26.7029 181.516 29.6861 179.949C29.8802 180.322 30.0402 180.63 30.2513 181.041C27.0982 182.693 24.0568 184.327 20.979 185.884C15.3278 188.722 9.44379 190.828 3.08925 191.453C2.39316 191.521 1.72617 191.872 1.04706 192.092C1.00341 192.274 0.962177 192.453 0.920946 192.634C1.78196 193.215 2.58234 193.937 3.51854 194.354C6.44357 195.656 9.45349 195.264 12.4343 194.513C18.8883 192.891 24.9469 190.281 30.8431 187.092C31.0274 187.356 31.219 187.613 31.3888 187.886C31.4227 187.94 31.3718 188.046 31.3475 188.203C26.6301 190.843 21.6872 193.114 16.4556 194.62C12.6574 195.714 8.73072 196.356 4.87192 197.247C4.3165 197.375 3.81929 197.76 3.29298 198.027C3.64224 198.511 3.89448 199.237 4.35531 199.402C6.01913 200.01 7.73631 200.77 9.46319 200.855C13.5476 201.041 17.3894 199.668 21.1269 198.191C25.1628 196.608 29.1016 194.777 33.1496 193.027C33.7923 193.55 33.5522 193.995 32.7664 194.358C30.0281 195.642 27.3456 197.053 24.5516 198.196C19.9191 200.09 15.2332 201.857 10.1787 202.329C9.65722 202.378 9.15759 202.68 8.1753 203.036C9.16002 203.818 9.76394 204.467 10.5037 204.855C13.0625 206.198 15.8129 206.179 18.5511 205.649C28.813 203.663 37.9543 199.412 45.6113 192.182C47.2581 190.627 49.0068 189.165 50.7725 187.748C52.1987 186.608 53.8479 186.579 55.4681 187.312C56.7511 187.891 57.9759 188.596 59.2808 189.274L68.2257 181.23ZM195.168 172.61L194.637 172.79C194.594 173.528 194.465 174.274 194.523 175.005C194.598 175.99 194.868 176.959 194.97 177.944C195.665 184.634 195.739 191.374 195.188 198.077C194.945 200.983 194.329 203.862 193.657 206.7C193.48 207.443 192.559 208.286 191.792 208.55C190.684 208.932 190.095 207.896 189.532 207.029C188.033 204.678 186.534 202.324 184.953 200.029C184.305 199.09 183.444 198.295 182.68 197.436L182.297 197.615C182.404 198.477 182.384 199.375 182.636 200.191C184.121 205.01 185.506 209.876 187.245 214.6C189.321 220.269 193.422 224.179 198.984 226.448C203.752 228.385 208.603 230.128 213.432 231.922C216.607 233.101 219.806 234.215 223.063 235.385C223.711 230.542 224.336 225.879 224.969 221.162C223.873 220.816 222.869 220.557 221.913 220.179C219.347 219.169 217.732 217.465 217.897 214.506C217.953 213.513 217.897 212.516 217.962 211.525C218.447 203.257 219.017 194.978 218.256 186.71C217.964 183.664 217.303 180.665 216.289 177.777C215.741 176.206 214.196 174.952 212.993 173.661C212.704 173.351 211.981 173.448 211.457 173.356C211.423 173.84 211.29 174.351 211.382 174.809C211.537 175.589 211.901 176.325 212.066 177.102C213.189 182.356 213.417 187.685 213.301 193.036C213.262 194.864 213.119 196.688 213.024 198.501C211.535 198.668 211.812 197.826 211.875 197.087C212.34 190.695 212.26 184.325 210.904 178.032C210.288 175.155 209.146 172.523 206.539 170.852C206.122 170.586 205.503 170.635 204.977 170.538C204.943 171.022 204.807 171.53 204.894 171.99C205.602 175.741 206.544 179.46 207.041 183.237C207.685 188.402 207.711 193.625 207.118 198.797C206.185 199.022 205.928 198.782 205.991 197.811C206.405 191.564 206.427 185.322 205.229 179.138C204.691 176.356 203.788 173.724 201.528 171.828C200.868 171.274 200 170.966 199.141 170.501C199.869 175.741 200.888 180.601 201.113 185.496C201.341 190.475 200.781 195.487 200.565 200.484L199.903 200.685C199.687 200.303 199.391 199.942 199.28 199.53C199.185 199.186 199.313 198.782 199.326 198.404C199.493 193.077 199.774 187.729 199.777 182.39C199.777 179.54 199.049 176.756 197.208 174.438C196.638 173.753 195.85 173.218 195.166 172.61H195.168ZM185.406 274.196L77.772 266.246C77.5586 269.229 77.3549 272.041 77.1463 274.963L184.785 282.907C184.996 279.941 185.195 277.142 185.404 274.196H185.406ZM186.357 272.849L225.226 258.74L225.161 258.431L173.985 254.653L186.357 272.849ZM228.273 259.167C228.173 259.157 228.074 259.157 227.974 259.167C214.446 264.056 200.917 268.951 187.39 273.852C187.109 273.953 186.747 274.302 186.723 274.566C186.481 277.179 186.299 279.796 186.09 282.571C192.532 280.232 198.773 277.97 205.008 275.697C212.151 273.111 219.301 270.544 226.434 267.929C226.919 267.748 227.618 267.263 227.664 266.859C227.955 264.334 228.083 261.786 228.27 259.167H228.273ZM151.962 126.078C154.55 127.432 156.292 129.533 157.568 131.981C158.821 134.385 159.874 136.891 161.063 139.46C161.705 134.671 162.297 129.991 162.976 125.323C163.333 122.87 162.401 120.741 161.683 118.398L151.962 126.078ZM196.105 106.02C196.81 108.022 197.456 109.858 198.181 111.921C199.059 110.42 200.019 109.257 199.272 107.635C198.712 106.371 197.574 106.146 196.117 106.02H196.105Z" fill="#2B2626"/>
<path d="M126.611 84.6334C127.86 84.2145 128.241 84.7157 128.367 85.9675C128.563 87.8827 129.007 89.7713 129.337 91.6914C133.775 92.0764 137.423 90.5195 140.722 87.8053C140.848 92.5026 139.376 94.5268 135.012 95.6745C133.916 95.9626 132.764 96.0425 131.68 96.3669C131.292 96.4832 130.761 97.0328 130.758 97.3863C130.746 100.159 131.221 102.846 132.609 105.299C134.978 109.495 139.344 111.352 144.008 109.762C147.345 108.619 150.501 106.955 153.732 105.512C154.2 105.302 154.636 105.028 155.327 104.657L161.391 117.071C157.43 118.57 153.799 120.028 150.113 121.328C137.401 125.812 129.589 134.882 125.614 147.5C123.467 154.342 121.658 161.301 119.458 168.117C117.159 175.253 114.576 182.301 112.107 189.383C111.951 189.77 111.773 190.149 111.576 190.516C107.413 182.555 104.455 174.022 102.798 165.195C102.218 161.861 101.813 158.5 101.586 155.124C101.343 152.069 101.248 148.991 101.294 145.923C101.404 138.451 102.626 131.132 104.632 123.936C106.495 117.335 109.083 110.961 112.349 104.929C115.289 99.431 118.784 94.2476 122.779 89.459C124.086 87.8827 125.333 86.2435 126.611 84.6334Z" fill="#ECEBEA"/>
<path d="M58.6139 88.8557C59.3925 89.3714 60.1055 89.6281 60.4912 90.1342C63.0152 93.4368 65.4948 96.7717 67.9299 100.139C68.7739 101.299 68.5484 102.626 67.5127 103.408C67.2657 103.593 66.9844 103.728 66.6849 103.804C66.3855 103.88 66.0739 103.896 65.7682 103.851C65.4626 103.806 65.1689 103.7 64.9042 103.541C64.6395 103.382 64.4091 103.172 64.2263 102.923C61.699 99.5675 59.1742 96.2043 56.7754 92.754C56.3825 92.1898 56.3728 91.0591 56.6687 90.4078C56.9646 89.7564 57.8693 89.4102 58.6139 88.8557Z" fill="#FF8025"/>
<path d="M319.74 106.333C316.407 106.713 313.077 107.093 309.747 107.474C308.127 107.655 307.019 106.873 306.888 105.476C306.752 104.043 307.635 103.055 309.24 102.866L317.399 101.881C318.656 101.735 319.912 101.571 321.173 101.452C322.67 101.312 323.761 102.094 323.965 103.406C324.169 104.718 323.291 105.769 321.828 106.023C321.132 106.144 320.434 106.232 319.74 106.333Z" fill="#FF8025"/>
<path d="M66.4189 62.5463C66.0624 63.4421 65.8974 63.9845 65.6428 64.4833C63.8642 67.9199 62.0726 71.3493 60.2681 74.7714C59.4993 76.2241 58.2283 76.7205 57.0035 76.1031C55.7787 75.4856 55.3688 74.166 56.111 72.7133C57.9664 69.1055 59.8606 65.5172 61.7452 61.9216C62.3321 60.8029 63.3508 60.2799 64.4592 60.7545C65.2474 61.0886 65.8004 61.9603 66.4189 62.5463Z" fill="#FF8025"/>
<path d="M58.8255 140.873C58.5393 141.221 58.1318 142.083 57.4455 142.49C53.9238 144.512 50.3366 146.427 46.7543 148.35C45.4179 149.076 44.0864 148.715 43.4315 147.558C42.7766 146.401 43.1623 145.059 44.4866 144.326C48.0422 142.355 51.6027 140.393 55.1898 138.483C56.941 137.551 58.7818 138.543 58.8255 140.873Z" fill="#FF8025"/>
<path d="M52.1105 102.151C51.9169 102.77 51.691 103.377 51.4338 103.972C49.6326 107.449 47.8167 110.92 45.9864 114.384C45.2175 115.836 43.9903 116.335 42.7267 115.727C41.463 115.12 41.0556 113.807 41.8074 112.338C43.6677 108.732 45.5644 105.144 47.4537 101.553C48.0383 100.439 49.0569 99.9019 50.1653 100.362C50.956 100.696 51.5138 101.58 52.1105 102.151Z" fill="#FF8025"/>
<path d="M13.1046 120.001C13.8953 120.556 14.6787 120.876 15.1225 121.454C17.5649 124.641 19.9394 127.878 22.3065 131.12C23.2767 132.44 23.1093 133.783 21.9743 134.616C20.878 135.408 19.4955 135.101 18.535 133.825C16.1654 130.645 13.8225 127.442 11.4529 124.263C10.798 123.384 10.541 122.411 11.1716 121.515C11.5911 120.912 12.3527 120.561 13.1046 120.001Z" fill="#FF8025"/>
<path d="M85.3368 132.817C84.8517 133.345 84.3909 134.316 83.7069 134.512C82.9453 134.723 81.6065 134.512 81.1748 133.977C78.4753 130.587 75.9263 127.06 73.3966 123.532C72.6689 122.527 73.0352 121.212 73.9956 120.508C74.9561 119.803 76.3289 119.851 77.0662 120.822C79.6953 124.278 82.2565 127.786 84.8153 131.294C85.0506 131.607 85.0918 132.072 85.3368 132.817Z" fill="#FF8025"/>
<path d="M65.1342 122.945C65.2191 124.8 64.4066 125.812 63.0411 125.897C61.6756 125.982 60.7224 125.13 60.5429 123.58C60.087 119.643 59.6375 115.706 59.1944 111.769C59.0149 110.19 59.7959 109.03 61.1638 108.832C62.5318 108.633 63.6111 109.527 63.8075 111.149C64.295 115.178 64.7195 119.214 65.1342 122.945Z" fill="#FF8025"/>
<path d="M41.9812 76.2004C41.957 76.014 41.923 75.8275 41.906 75.6387C41.7872 74.1689 42.5245 73.1254 43.7978 72.9583C45.2288 72.7719 46.3106 73.5273 46.4949 75.0237C47.0075 79.1899 47.478 83.3618 47.9065 87.5393C48.035 88.7766 47.0527 89.8468 45.8279 89.9921C44.6031 90.1374 43.4777 89.2996 43.2861 87.8735C42.9053 85.0212 42.6191 82.1568 42.299 79.2972C42.1825 78.2658 42.0693 77.2343 41.9594 76.2028L41.9812 76.2004Z" fill="#FF8025"/>
<path d="M76.8996 79.379H70.9525C69.5482 79.379 68.5562 78.4856 68.5004 77.1757C68.4471 75.827 69.2911 74.8246 70.7173 74.7544C74.8712 74.5526 79.0267 74.3912 83.1838 74.2701C84.6512 74.229 85.585 75.1466 85.6383 76.4493C85.6941 77.8415 84.8064 78.8391 83.276 78.8899C81.1513 78.9577 79.0267 78.9069 76.8996 78.9069V79.379Z" fill="#FF8025"/>
<path d="M42.2864 130.565H36.48C35.0248 130.565 34.0546 129.745 33.9818 128.425C33.8945 126.987 34.724 126.004 36.2496 125.924C40.355 125.727 44.462 125.565 48.5706 125.44C50.0646 125.394 51.1027 126.377 51.1245 127.711C51.1464 129.045 50.1932 130.03 48.6603 130.071C46.5357 130.13 44.411 130.086 42.2864 130.086V130.565Z" fill="#FF8025"/>
<path d="M288.517 128.677C287.93 129.279 287.402 130.163 286.623 130.543C285.58 131.054 284.583 130.514 283.955 129.541C282.478 127.289 281.03 125.018 279.568 122.761C278.825 121.609 278.059 120.473 277.343 119.304C276.533 117.982 276.747 116.64 277.829 115.914C278.99 115.134 280.387 115.459 281.244 116.769C283.439 120.134 285.617 123.51 287.778 126.897C288.049 127.313 288.173 127.831 288.517 128.677Z" fill="#FF8025"/>
<path d="M274.319 106.78C272.825 106.805 271.782 105.94 271.651 104.655C271.535 103.495 272.379 102.4 273.715 102.221C277.892 101.669 282.074 101.161 286.262 100.698C287.674 100.543 288.687 101.48 288.794 102.8C288.901 104.119 288.042 105.139 286.495 105.335C283.099 105.756 279.723 106.134 276.337 106.531C275.634 106.613 274.928 106.705 274.319 106.78Z" fill="#FF8025"/>
<path d="M275.597 75.8053C275.489 76.2197 275.347 76.6246 275.173 77.016C273.345 80.5446 271.506 84.0644 269.655 87.5752C268.871 89.0546 267.644 89.5123 266.395 88.8779C265.146 88.2435 264.802 86.9045 265.534 85.4711C267.368 81.8957 269.215 78.3267 271.076 74.7642C271.639 73.6843 272.517 73.1468 273.744 73.4252C274.928 73.694 275.466 74.5196 275.597 75.8053Z" fill="#FF8025"/>
<path d="M277.188 161.461L276.252 159.115C276.613 157.759 277.496 157.1 278.898 156.948C282.859 156.519 286.807 156.013 290.765 155.572C292.165 155.415 293.259 156.253 293.463 157.529C293.503 157.836 293.482 158.148 293.401 158.447C293.32 158.746 293.18 159.026 292.99 159.271C292.799 159.516 292.562 159.72 292.292 159.872C292.022 160.025 291.724 160.122 291.415 160.158C287.234 160.701 283.041 161.18 278.847 161.643C278.309 161.703 277.744 161.529 277.188 161.461Z" fill="#FF8025"/>
<path d="M295.528 144.376C293.28 144.425 292.067 142.727 292.86 141.134C294.764 137.284 296.77 133.483 298.8 129.696C299.399 128.577 300.808 128.326 301.907 128.955C303.006 129.585 303.387 130.8 302.785 132.023C301.766 134.098 300.668 136.139 299.603 138.19C298.776 139.783 298.029 141.422 297.088 142.945C296.663 143.631 295.861 144.083 295.528 144.376Z" fill="#FF8025"/>
<path d="M292.609 109.391C292.912 109.449 293.209 109.53 293.499 109.633C297.327 111.26 301.156 112.882 304.972 114.538C306.046 115.006 306.538 115.885 306.356 117.066C306.31 117.544 306.101 117.991 305.763 118.333C305.426 118.675 304.981 118.891 304.503 118.945C303.99 119.007 303.469 118.932 302.995 118.727C299.245 117.156 295.517 115.541 291.777 113.947C290.565 113.424 290.043 112.495 290.295 111.226C290.531 110.04 291.387 109.521 292.609 109.391Z" fill="#FF8025"/>
<path d="M260.815 96.0666C260.815 97.454 260.277 98.2457 259.205 98.5678C258.077 98.914 257.143 98.5484 256.501 97.5605C254.975 95.2264 253.469 92.8777 251.958 90.5388C251.23 89.4274 250.502 88.3305 249.819 87.1949C249.035 85.8802 249.333 84.5315 250.473 83.8511C251.613 83.1708 252.935 83.4807 253.772 84.7615C255.968 88.1223 258.144 91.4976 260.301 94.8874C260.509 95.2635 260.681 95.6583 260.815 96.0666Z" fill="#FF8025"/>
<path d="M250.349 109.43C250.363 107.207 252.046 106.212 253.846 106.96C257.072 108.304 260.278 109.701 263.492 111.076C264.055 111.318 264.637 111.527 265.19 111.803C266.402 112.427 266.861 113.606 266.422 114.788C266.2 115.347 265.767 115.797 265.216 116.039C264.665 116.282 264.04 116.298 263.477 116.083C259.502 114.449 255.544 112.769 251.634 110.982C250.974 110.691 250.615 109.766 250.349 109.43Z" fill="#FF8025"/>
<path d="M313.218 142.035C313.218 138.304 313.203 134.573 313.218 130.839C313.218 129.234 314.188 128.176 315.566 128.176C316.897 128.176 317.906 129.268 317.892 130.854C317.858 134.871 317.78 138.885 317.688 142.9C317.654 144.352 316.594 145.437 315.328 145.425C314.062 145.413 313.126 144.425 313.012 143.018C312.985 142.689 313.012 142.355 313.012 142.026L313.218 142.035Z" fill="#FF8025"/>
<path d="M257.381 130.694C264.126 135.425 268.994 141.541 271.759 149.381C275.154 159.001 278.71 168.56 282.324 178.1C287.931 192.897 293.723 207.618 299.253 222.448C300.708 226.364 301.581 230.523 302.447 234.628C303.66 240.417 301.254 244.555 295.656 246.533C291.562 247.986 287.247 248.424 282.959 248.332C275.239 248.165 267.514 247.848 259.811 247.296C253.104 246.823 246.415 246.127 239.744 245.209C234.323 244.465 228.965 243.252 223.387 242.211C224.624 233.01 225.812 224.109 227.025 215.071C229.724 215.531 232.269 216.066 234.837 216.378C240.379 217.056 245.936 217.632 251.49 218.211C252.152 218.247 252.816 218.188 253.462 218.034C255.443 217.659 255.887 216.945 255.082 215.047C254.221 213.05 253.255 211.1 252.188 209.204C246.953 199.832 241.692 190.47 236.406 181.117C236.168 180.632 235.781 180.235 235.3 179.986C237.968 192.032 240.636 204.078 243.391 216.458L225.984 213.635C225.688 215.628 225.394 217.612 225.102 219.584C221.405 219.64 219.082 217.492 219.154 213.979C219.307 206.55 219.608 199.124 219.71 191.703C219.773 187.253 219.443 182.814 218.027 178.538C217.219 176.098 215.895 173.994 213.685 172.572C212.252 171.647 211.468 171.701 210.265 172.599C209.295 171.686 208.432 170.662 207.369 169.904C205.09 168.287 203.688 168.962 203.397 171.73C202.606 171.122 201.905 170.345 201.032 169.989C200.241 169.664 199.002 169.434 198.437 169.834C197.872 170.233 197.918 171.461 197.709 172.333C197.7 172.567 197.723 172.802 197.777 173.03C197.326 172.652 196.855 172.299 196.365 171.972C194.694 170.989 193.181 171.73 193.244 173.667C193.324 176.018 193.828 178.354 193.928 180.708C194.267 188.792 194.656 196.889 192.936 204.887C192.739 205.797 192.228 206.64 191.692 207.926C191.047 206.991 190.683 206.473 190.326 205.942C188.578 203.354 186.858 200.749 185.063 198.194C184.581 197.55 183.994 196.991 183.327 196.541C182.141 195.693 181.124 196.122 181.088 197.572C181.049 198.801 181.213 200.028 181.573 201.204C183.196 206.33 184.634 211.543 186.7 216.492C189.007 222.02 193.414 225.712 199.009 227.838C206.482 230.681 214.005 233.395 221.505 236.165C221.939 236.325 222.368 236.502 222.827 236.681C222.555 238.766 222.295 240.768 222.026 242.843L226.174 244.054C218.371 244.615 210.947 244.412 203.52 243.899C193.694 243.245 183.958 241.606 174.459 239.008C173.547 238.766 172.662 238.337 171.738 238.223C170.04 238.015 169.725 236.964 169.604 235.504C169.009 228.296 168.299 221.095 167.714 213.882C167.329 209.122 167.047 204.352 166.788 199.582C166.521 194.667 166.341 189.749 166.116 184.834C166.082 184.107 166.097 183.303 164.77 183.688C165.466 201.432 166.669 219.189 168.549 237.313C165.51 236.083 162.728 235.005 159.982 233.79C159.453 233.548 159.143 232.795 158.769 232.247C156.739 229.276 154.68 226.323 152.728 223.289C152.083 222.289 151.355 221.858 150.183 221.913C149.398 221.95 148.602 221.783 147.758 221.703L142.97 198.739C142.539 202.277 142.303 205.681 141.663 209.008C140.952 212.71 139.859 216.337 138.964 220.005C138.76 220.843 138.389 221.117 137.484 221.047C128.695 220.361 119.902 219.737 111.113 219.078C101.566 218.352 92.0274 217.531 82.4738 216.969C80.0484 216.826 78.1735 216.017 76.3254 214.579C68.6248 208.579 60.8635 202.657 52.9834 196.596L72.7358 178.872C74.9623 180.429 77.1015 181.964 79.2989 183.454C88.0473 189.412 97.6592 193.623 107.54 197.274C108.932 197.79 109.798 197.248 110.327 196.117C111.724 193.127 113.189 190.148 114.341 187.059C119.175 174.083 123.051 160.805 126.953 147.522C129.662 138.27 135.008 130.667 143.506 125.815C147.7 123.42 152.364 121.849 156.815 119.904C156.904 120.062 156.996 120.219 157.086 120.389L149.458 126.468C149.514 126.604 149.533 126.737 149.577 126.744C153.189 127.396 155.097 130.033 156.688 132.948C159.599 138.275 161.171 144.069 162.456 149.936C163.305 153.81 163.836 157.749 164.552 161.652C164.61 161.965 165.005 162.216 165.243 162.497C165.471 162.173 165.883 161.856 165.895 161.529C166.033 157.555 165.895 153.563 166.261 149.614C166.661 145.291 167.331 140.998 168.267 136.759C168.711 134.757 169.9 132.849 171.039 131.081C173.295 127.59 176.618 125.996 180.695 127.108C183.926 127.991 186.058 126.987 188.262 124.686C192.4 120.393 196.79 116.347 200.147 111.241C200.535 111.766 200.843 112.209 201.19 112.643C202.327 114.03 203.712 114.921 205.592 114.822C206.302 114.786 207.015 114.808 207.726 114.764C214.381 114.355 220.75 115.885 227.098 117.587C234.616 119.599 241.968 122.03 248.926 125.56C249.758 125.979 250.524 126.529 251.32 127.013L251.965 127.255H251.951C253.469 128.863 255.096 130.299 257.381 130.694ZM235.337 179.395C235.317 179.359 235.298 179.325 235.276 179.291C235.254 179.313 235.206 179.347 235.211 179.359C235.238 179.411 235.27 179.46 235.305 179.507L235.337 179.395Z" fill="#FF8025"/>
<path d="M175.186 66.0496C177.056 70.3498 178.892 74.5846 180.747 78.8122C181.07 79.5386 181.494 80.231 181.851 80.9502C182.787 82.8364 184.24 83.955 186.399 84.0736C187.715 84.1463 188.375 84.7637 188.792 86.1317C191.446 94.8338 194.245 103.495 196.939 112.185C197.094 112.688 196.971 113.538 196.629 113.897C192.816 117.916 188.943 121.887 185.05 125.819C184.781 126.093 184.221 126.211 183.808 126.187C182.766 126.136 181.73 126.009 180.706 125.807C175.909 124.838 172.46 126.797 169.734 130.594C167.495 133.722 166.462 137.289 165.948 141.005C165.363 145.255 164.999 149.54 164.577 153.415C163.77 150.158 162.637 146.504 162.031 142.761C161.732 140.923 162.394 138.928 162.644 137.008C163.154 133.117 163.818 129.238 164.131 125.332C164.272 123.555 163.942 121.662 163.452 119.928C161.955 114.628 159.423 109.759 156.775 104.965C156.619 104.681 156.464 104.398 156.418 104.311C159.571 101.776 162.845 99.4851 165.674 96.7297C167.949 94.5142 169.68 91.7419 171.638 89.2068C172.205 88.4804 171.984 88.0179 170.997 87.8775C167.769 94.0469 162.642 98.4125 156.896 102.107C152.841 104.713 148.667 107.134 144 108.55C139.193 110.003 135.118 108.245 133.217 103.616C132.463 101.773 132.198 99.7418 131.686 97.6885C133.2 97.3496 134.396 97.1316 135.567 96.8096C139.964 95.599 141.609 93.6426 141.929 89.1148C141.994 88.1995 141.713 87.2601 141.592 86.3327C140.753 86.7201 139.816 86.9768 139.094 87.5191C136.552 89.4223 133.758 90.5118 130.362 90.57C129.967 88.1487 129.576 85.7564 129.169 83.2698C126.743 83.2698 124.318 83.2819 121.907 83.2698C120.34 83.2577 119.998 82.8799 120.396 81.3739C120.695 80.2407 121.223 79.1705 121.609 78.0591C123.222 73.4369 124.946 68.8461 126.36 64.1609C126.831 62.5992 126.603 60.7857 126.506 59.098C126.096 52.1441 126.198 45.2337 127.896 38.3088C133.176 43.7567 140.103 44.4904 146.974 45.0884C150.876 45.4274 154.83 45.1514 158.817 45.1514C158.058 49.6671 158.97 51.6162 162.668 53.9843C163.127 54.2797 163.462 54.7639 163.893 55.1126C165.06 56.0496 166.154 57.1271 167.449 57.8365C169.038 58.7082 170.602 58.9382 172.057 57.1537C173.216 55.7494 175.019 54.9746 176.93 55.7445C178.841 56.5145 179.394 58.2482 179.566 60.115C179.763 62.2263 179.285 64.1004 177.306 65.2433C176.641 65.6186 175.838 65.805 175.186 66.0496ZM137.995 59.9285V59.9794C140.445 59.7542 142.899 59.5871 145.337 59.2699C146.084 59.1731 147.034 58.8462 147.425 58.3014C147.815 57.7566 147.886 56.7252 147.745 55.9746C147.692 55.701 146.649 55.5194 146.047 55.4685C145.446 55.4177 144.834 55.6235 144.218 55.6525C141.905 55.7639 139.584 55.7784 137.279 55.9843C136.581 56.0472 135.562 56.4419 135.32 56.9697C134.454 58.8535 135.358 60.0036 137.427 59.931C137.617 59.9213 137.806 59.9285 137.995 59.9285ZM146.05 65.1343C145.252 63.5508 143.139 62.7518 141.031 63.1246C139.545 63.3837 137.908 63.5096 137.151 65.2408C138.638 65.0714 140.042 64.4733 141.468 64.4176C142.894 64.3619 144.357 64.8437 146.05 65.1343Z" fill="#FEFEFE"/>
<path d="M68.2265 181.231L59.272 189.274C57.9671 188.596 56.7423 187.892 55.4592 187.313C53.8391 186.587 52.1898 186.608 50.7637 187.749C48.9931 189.165 47.2493 190.628 45.6024 192.182C37.943 199.412 28.8041 203.664 18.5423 205.649C15.804 206.18 13.0536 206.199 10.4948 204.855C9.7551 204.468 9.15118 203.819 8.16647 203.037C9.14875 202.681 9.64838 202.378 10.1698 202.33C15.2244 201.858 19.9102 200.09 24.5427 198.197C27.3368 197.054 30.0193 195.642 32.7575 194.359C33.5434 193.991 33.7835 193.55 33.1408 193.027C29.0928 194.778 25.1539 196.608 21.1181 198.192C17.3805 199.657 13.5387 201.03 9.45435 200.855C7.72747 200.775 6.01029 200.015 4.34647 199.402C3.88564 199.235 3.6334 198.502 3.28415 198.027C3.81046 197.761 4.30766 197.376 4.86308 197.248C8.72188 196.357 12.6486 195.715 16.4468 194.62C21.6783 193.114 26.6213 190.843 31.3387 188.204C31.3629 188.047 31.4139 187.94 31.3799 187.887C31.2101 187.613 31.0185 187.357 30.8342 187.093C24.9381 190.281 18.8794 192.904 12.4255 194.514C9.44465 195.265 6.43474 195.657 3.50971 194.354C2.57351 193.938 1.77312 193.216 0.912109 192.635C0.953341 192.453 0.994578 192.274 1.03823 192.093C1.71735 191.872 2.38432 191.521 3.08041 191.453C9.43495 190.836 15.319 188.729 20.9701 185.884C24.048 184.34 27.0797 182.705 30.2424 181.042C30.0314 180.63 29.8713 180.315 29.6773 179.95C26.6941 181.504 23.7957 183.076 20.8464 184.55C16.9925 186.463 13.0997 188.313 8.8189 189.097C6.73306 189.482 4.64479 189.446 2.68022 188.565C2.14179 188.323 1.76343 187.725 1.30988 187.289C1.79496 186.95 2.23395 186.47 2.76511 186.294C5.23174 185.485 7.77356 184.887 10.2014 183.981C17.8341 181.131 24.5379 176.763 30.531 171.279C31.6103 170.291 32.743 169.362 34.0357 168.248C29.1049 167.487 24.2371 167.279 19.7574 165.359C19.7429 165.209 19.7307 165.056 19.7162 164.906C21.1035 164.558 22.4739 164.03 23.8806 163.892C29.3862 163.357 34.9016 162.633 40.4218 162.575C45.828 162.519 50.4629 164.967 54.4333 168.601L68.2265 181.231ZM35.8257 173.671C39.0199 176.381 43.9604 177.148 47.031 175.521C47.6252 175.207 48.1442 174.749 48.7943 174.289L47.8532 173.473C44.5377 175.846 40.8656 175.652 36.5824 172.851L35.8257 173.671Z" fill="#FDFDFD"/>
<path d="M195.166 172.611C195.85 173.219 196.639 173.742 197.196 174.444C199.035 176.761 199.765 179.546 199.765 182.395C199.765 187.722 199.481 193.073 199.314 198.41C199.314 198.788 199.173 199.192 199.268 199.536C199.379 199.947 199.675 200.308 199.891 200.691L200.553 200.49C200.769 195.492 201.329 190.48 201.101 185.502C200.876 180.606 199.852 175.747 199.13 170.507C199.988 170.972 200.856 171.279 201.516 171.834C203.777 173.73 204.669 176.362 205.217 179.144C206.415 185.328 206.394 191.57 205.979 197.817C205.916 198.785 206.173 199.027 207.107 198.802C207.699 193.631 207.673 188.408 207.029 183.243C206.544 179.466 205.591 175.737 204.883 171.996C204.795 171.531 204.931 171.027 204.965 170.543C205.491 170.64 206.11 170.592 206.527 170.858C209.142 172.529 210.284 175.161 210.893 178.037C212.244 184.332 212.324 190.7 211.863 197.093C211.809 197.819 211.523 198.674 213.012 198.507C213.107 196.693 213.255 194.875 213.289 193.042C213.405 187.691 213.177 182.361 212.054 177.107C211.89 176.33 211.526 175.594 211.37 174.814C211.278 174.352 211.412 173.846 211.446 173.362C211.97 173.454 212.692 173.362 212.981 173.667C214.194 174.962 215.729 176.216 216.277 177.783C217.292 180.67 217.952 183.669 218.244 186.715C219.006 194.984 218.438 203.262 217.951 211.531C217.892 212.521 217.951 213.519 217.885 214.511C217.72 217.47 219.34 219.175 221.902 220.185C222.857 220.562 223.861 220.821 224.958 221.168C224.325 225.884 223.699 230.557 223.051 235.39C219.794 234.221 216.595 233.107 213.42 231.928C208.591 230.134 203.74 228.395 198.972 226.453C193.41 224.185 189.309 220.274 187.233 214.606C185.501 209.875 184.116 205.015 182.625 200.197C182.382 199.381 182.382 198.482 182.285 197.621L182.668 197.441C183.432 198.301 184.293 199.095 184.941 200.035C186.522 202.33 188.021 204.683 189.52 207.035C190.071 207.901 190.672 208.938 191.781 208.555C192.547 208.291 193.478 207.449 193.646 206.705C194.318 203.867 194.936 200.981 195.176 198.083C195.727 191.38 195.654 184.64 194.958 177.95C194.856 176.964 194.587 175.996 194.512 175.01C194.453 174.284 194.582 173.533 194.626 172.795L195.166 172.611ZM210.779 221.988L211.324 221.87C211.21 221.439 211.235 220.85 210.956 220.603C209.069 218.928 208.096 216.824 208.15 214.356C208.217 212.621 208.447 210.896 208.836 209.204C209.04 208.235 208.894 207.896 207.936 207.94C205.775 213.93 206.813 219.013 210.779 221.988Z" fill="#FEFDFE"/>
<path d="M185.404 274.196C185.195 277.138 184.997 279.942 184.786 282.913L77.1465 274.964C77.3551 272.039 77.5588 269.228 77.7722 266.247L185.404 274.196Z" fill="#FEFEFE"/>
<path d="M186.355 272.85L173.985 254.658L225.161 258.436L225.227 258.746L186.355 272.85Z" fill="#FEFEFE"/>
<path d="M228.27 259.167C228.084 261.787 227.955 264.334 227.671 266.862C227.625 267.267 226.932 267.751 226.442 267.932C219.309 270.547 212.159 273.114 205.016 275.7C198.77 277.961 192.53 280.235 186.098 282.574C186.306 279.799 186.488 277.182 186.731 274.569C186.755 274.305 187.116 273.957 187.398 273.855C200.922 268.945 214.45 264.049 227.982 259.17C228.078 259.16 228.174 259.159 228.27 259.167Z" fill="#FDFDFD"/>
<path d="M151.963 126.078L161.684 118.398C162.411 120.742 163.333 122.87 162.977 125.323C162.297 129.991 161.706 134.671 161.063 139.461C159.875 136.892 158.822 134.376 157.568 131.981C156.292 129.533 154.551 127.432 151.963 126.078Z" fill="#FCFCFC"/>
<path d="M196.117 106.021C197.572 106.147 198.7 106.372 199.285 107.636C200.032 109.251 199.071 110.42 198.193 111.922C197.468 109.859 196.823 108.023 196.117 106.021Z" fill="#F5F5F5"/>
<path d="M257.38 130.694C255.095 130.299 253.468 128.863 251.942 127.27L257.38 130.694Z" fill="#D8D1CA"/>
<path d="M251.957 127.279L251.312 127.037L251.957 127.279Z" fill="#D8D1CA"/>
<path d="M235.337 179.395L235.305 179.507C235.269 179.46 235.238 179.411 235.21 179.359C235.21 179.359 235.254 179.313 235.276 179.291C235.305 179.323 235.337 179.359 235.337 179.395Z" fill="#2D292A"/>
<path d="M137.995 59.9292C137.806 59.9292 137.617 59.9292 137.428 59.9292C135.359 60.0019 134.454 58.8518 135.32 56.968C135.563 56.4401 136.581 56.0455 137.28 55.9825C139.584 55.7767 141.905 55.7622 144.219 55.6508C144.833 55.6217 145.449 55.4087 146.048 55.4668C146.647 55.5249 147.697 55.7089 147.746 55.9728C147.886 56.7234 147.845 57.7234 147.425 58.2997C147.006 58.876 146.084 59.1738 145.337 59.2682C142.9 59.5854 140.445 59.7525 137.995 59.9777V59.9292Z" fill="#2D2A2B"/>
<path d="M146.05 65.1345C144.352 64.844 142.897 64.3621 141.473 64.4081C140.05 64.4541 138.643 65.0619 137.156 65.2314C137.908 63.5002 139.545 63.3743 141.037 63.1152C143.152 62.752 145.252 63.551 146.05 65.1345Z" fill="#3B393A"/>
<path d="M35.8252 173.672L36.5892 172.851C40.8725 175.662 44.5445 175.846 47.86 173.473L48.7938 174.289C48.1438 174.749 47.6248 175.207 47.0305 175.522C43.9721 177.144 39.0194 176.381 35.8252 173.672Z" fill="#393738"/>
<path d="M210.778 221.989C206.813 219.013 205.775 213.93 207.936 207.945C208.906 207.901 209.039 208.248 208.835 209.209C208.447 210.901 208.217 212.626 208.149 214.361C208.096 216.829 209.068 218.933 210.955 220.608C211.234 220.851 211.198 221.444 211.324 221.875L210.778 221.989Z" fill="#363435"/>
<path d="M116.811 244.339C115.775 244.411 114.628 244.731 114.223 242.748L117.005 243.823L116.811 244.339Z" fill="#FBF2EB"/>
<path d="M99.5579 242.828C97.7704 243.697 97.3072 243.499 96.6475 241.693L99.5579 242.828Z" fill="#F9EDE2"/>
<path d="M131.983 245.647L131.885 245.824C131.859 245.793 131.8 245.756 131.805 245.732C131.826 245.668 131.855 245.606 131.89 245.548L131.983 245.647Z" fill="#FFFEFE"/>
<path d="M133.405 245.075C133.373 245.136 133.337 245.196 133.303 245.259C133.271 245.228 133.21 245.189 133.215 245.165C133.237 245.098 133.266 245.033 133.303 244.973L133.405 245.075Z" fill="#FFFEFE"/>
<path d="M139.814 245.155C141.299 245.417 142.32 246.264 142.807 247.666C142.926 248.005 142.691 248.47 142.618 248.877C142.097 248.719 141.33 248.724 141.105 248.378C140.493 247.441 140.115 246.354 139.649 245.327L139.814 245.155Z" fill="#FCF8F3"/>
<path d="M139.641 245.327L139.488 245.126L139.813 245.157L139.641 245.327Z" fill="#FCF8F3"/>
<path fill-rule="evenodd" clip-rule="evenodd" d="M46.8746 215.561C45.8804 215.489 44.8708 215.417 43.8398 215.342C44.0124 215.606 44.1355 215.796 44.2349 215.949C44.3311 216.098 44.405 216.212 44.4802 216.325C55.2489 232.217 66.05 248.09 76.8834 263.945C77.3247 264.507 77.9605 264.885 78.6661 265.003C79.9894 265.187 81.3279 265.267 82.6661 265.347C83.1724 265.378 83.6786 265.408 84.1839 265.444C86.2312 265.595 88.2785 265.742 90.3259 265.89C92.7146 266.062 95.1033 266.235 97.492 266.412C99.6324 266.57 101.774 266.734 103.916 266.898C106.301 267.081 108.687 267.264 111.074 267.439C113.132 267.59 115.191 267.733 117.25 267.876C119.581 268.038 121.912 268.2 124.242 268.373C126.811 268.566 129.379 268.768 131.948 268.971C135.133 269.222 138.318 269.473 141.506 269.705C144.114 269.895 146.724 270.073 149.334 270.251C152.484 270.465 155.635 270.68 158.784 270.916C163.023 271.232 167.261 271.566 171.498 271.899C174.242 272.116 176.984 272.332 179.727 272.543C180.796 272.624 181.867 272.684 182.99 272.746C183.57 272.778 184.163 272.811 184.777 272.848C184.705 272.724 184.648 272.623 184.601 272.539C184.514 272.385 184.457 272.285 184.391 272.189C173.476 256.106 162.538 240.039 151.578 223.989C151.21 223.534 150.676 223.242 150.094 223.178C145.324 222.798 140.553 222.457 135.782 222.115C133.699 221.966 131.617 221.817 129.534 221.664L104.868 219.848L79.4932 217.972C71.0851 217.342 62.6771 216.718 54.269 216.098C51.8394 215.917 49.4072 215.742 46.8746 215.561Z" fill="white"/>
<path fill-rule="evenodd" clip-rule="evenodd" d="M80.2802 241.01C80.6023 241.021 80.9209 241.078 81.2257 241.18C81.4763 241.265 81.7146 241.381 81.9349 241.524C82.221 241.733 82.4571 241.999 82.627 242.305C82.785 242.572 82.869 242.874 82.8707 243.182C82.8559 243.475 82.7391 243.755 82.5392 243.975L82.2078 244.357C82.5142 244.458 82.813 244.58 83.1022 244.72C83.2424 244.781 83.3697 244.867 83.4775 244.973C83.6438 245.139 83.7768 245.333 83.8698 245.546C84.0052 245.866 84.0874 246.204 84.1135 246.548C84.1631 246.89 84.1009 247.238 83.9356 247.544C83.7792 247.811 83.5407 248.025 83.2533 248.155C82.9371 248.295 82.592 248.364 82.2444 248.355C81.8493 248.333 81.4599 248.254 81.0892 248.119C80.7828 248.023 80.5107 247.845 80.3046 247.605C80.074 247.266 79.8812 246.904 79.7294 246.525C79.5125 245.919 79.3151 245.261 79.1324 244.555C78.9496 243.85 78.7741 243.095 78.6084 242.291C78.4573 241.558 78.4118 241.174 78.472 241.14C78.5646 241.096 78.663 241.065 78.7644 241.048C79.118 241.011 79.474 241 79.8293 241.015C79.9951 241.003 80.1413 241.003 80.2802 241.01ZM81.4792 245.244C81.346 245.231 81.212 245.259 81.0966 245.324C81.0494 245.354 81.0144 245.399 80.9975 245.451C80.9806 245.503 80.9829 245.559 81.004 245.61L81.3524 246.761C81.383 246.828 81.4272 246.888 81.4825 246.938C81.5378 246.988 81.603 247.026 81.6741 247.051C81.8222 247.108 81.9857 247.118 82.1396 247.077C82.2194 247.058 82.2943 247.023 82.36 246.975C82.4258 246.927 82.4809 246.867 82.5222 246.798C82.6208 246.608 82.6467 246.39 82.5953 246.183C82.5609 245.995 82.4769 245.818 82.3516 245.671C82.2359 245.542 82.0941 245.436 81.9349 245.362C81.792 245.295 81.6374 245.255 81.4792 245.244ZM80.6555 242.142H80.6262C80.5304 242.14 80.4358 242.163 80.3533 242.211C80.3204 242.225 80.294 242.251 80.2788 242.283C80.2636 242.315 80.2607 242.351 80.2704 242.385L80.4971 243.35C80.5073 243.394 80.5304 243.434 80.5637 243.466C80.5969 243.498 80.639 243.52 80.6847 243.529C80.7974 243.552 80.9148 243.542 81.021 243.499C81.1441 243.456 81.2477 243.372 81.3134 243.263C81.3883 243.116 81.4065 242.949 81.3646 242.791C81.3279 242.605 81.2242 242.438 81.0722 242.319C80.9553 242.22 80.8098 242.158 80.6555 242.142ZM84.8611 241.062C85.3002 241.085 85.729 241.199 86.1186 241.397C86.5076 241.592 86.8332 241.887 87.0593 242.251C87.309 242.676 87.4243 243.163 87.3907 243.652C87.339 244.337 87.1425 245.005 86.8131 245.614L88.7627 247.126C88.7937 247.213 88.8056 247.306 88.7976 247.398C88.7896 247.489 88.762 247.579 88.7164 247.659C88.6215 247.828 88.4931 247.976 88.3387 248.096C88.193 248.213 88.04 248.321 87.8805 248.419L86.1284 247.058L86.7815 248.723C86.6822 248.766 86.5805 248.803 86.4768 248.834C86.3092 248.886 86.1383 248.928 85.9651 248.959C85.7967 248.988 85.6242 248.988 85.4558 248.959C85.3875 248.952 85.3229 248.925 85.2694 248.884C85.2159 248.842 85.1757 248.786 85.1536 248.723C84.7929 247.74 84.4891 246.765 84.2422 245.796C83.9952 244.827 83.7669 243.859 83.5574 242.89C83.4485 242.385 83.3356 241.88 83.2186 241.373C83.7246 241.121 84.2942 241.013 84.8611 241.062ZM85.1511 242.864C85.0415 242.852 84.9976 242.888 85.0244 242.972L85.3558 244.065C85.403 244.192 85.4842 244.234 85.5995 244.192C85.7237 244.134 85.8272 244.041 85.8968 243.925C85.9848 243.797 86.026 243.645 86.0138 243.491C85.9909 243.376 85.9271 243.272 85.8335 243.197C85.7313 243.102 85.6156 243.023 85.4899 242.961C85.384 242.909 85.2692 242.876 85.1511 242.864ZM90.8984 241.739C90.7429 241.68 90.5781 241.647 90.411 241.64C90.1637 241.616 89.9139 241.646 89.6799 241.727C89.591 241.749 89.511 241.796 89.4505 241.863C89.39 241.929 89.3518 242.012 89.3412 242.1C89.3095 242.631 89.2949 243.195 89.2925 243.784C89.2912 244.094 89.2959 244.407 89.3008 244.723L89.3008 244.723C89.3051 245.009 89.3095 245.298 89.3095 245.589C89.3241 246.471 89.3241 247.33 89.3095 248.158C89.3168 248.231 89.4192 248.344 89.6215 248.467C89.8398 248.597 90.0749 248.7 90.3209 248.771C90.5409 248.849 90.7796 248.863 91.0081 248.813C91.2006 248.771 91.2883 248.611 91.2737 248.342L91.1714 247.176C91.1637 247.036 91.1637 246.895 91.1714 246.754C91.1735 246.658 91.1916 246.562 91.225 246.471C91.2322 246.437 91.2506 246.406 91.2774 246.383C91.3042 246.36 91.338 246.347 91.3736 246.344C91.456 246.36 91.5286 246.406 91.5759 246.473C91.6449 246.559 91.7045 246.652 91.7538 246.749C91.8188 246.88 91.8765 247.014 91.9268 247.15L92.4313 248.469C92.4627 248.565 92.5139 248.654 92.5817 248.731C92.6496 248.807 92.7326 248.87 92.826 248.915C92.996 248.985 93.1844 249.001 93.3646 248.962C93.5522 248.923 93.7318 248.853 93.8959 248.757C94.0398 248.676 94.169 248.574 94.2785 248.452C94.3678 248.349 94.3971 248.266 94.3662 248.205C94.0478 247.574 93.7147 246.906 93.3671 246.2C93.008 245.461 92.6449 244.728 92.2777 244.001C91.9106 243.275 91.554 242.604 91.2079 241.989C91.1369 241.874 91.0278 241.786 90.8984 241.739ZM90.818 243.796H90.8326C90.8709 243.802 90.9076 243.816 90.9402 243.836C90.9729 243.856 91.001 243.883 91.0227 243.914C91.0873 244.001 91.1397 244.095 91.1787 244.195C91.2242 244.302 91.2632 244.411 91.2956 244.523C91.3273 244.631 91.359 244.761 91.3931 244.907H90.7644L90.7542 244.862L90.7542 244.862C90.7245 244.731 90.6993 244.62 90.684 244.52C90.6667 244.412 90.6553 244.302 90.6498 244.192C90.6433 244.1 90.6532 244.008 90.6791 243.919C90.6849 243.886 90.7017 243.857 90.7269 243.834C90.752 243.812 90.7841 243.799 90.818 243.796ZM94.9456 248.439L93.3689 242.355C93.3397 242.252 93.3957 242.169 93.5419 242.105C93.7145 242.035 93.8984 241.994 94.0854 241.985C94.2929 241.968 94.5018 241.978 94.7068 242.013C94.8561 242.028 94.9944 242.096 95.0943 242.204L96.1348 244.134C96.202 244.233 96.263 244.335 96.3176 244.441C96.3934 244.604 96.4927 244.755 96.6125 244.891C96.6734 244.957 96.7487 245.01 96.8329 245.045C96.9171 245.08 97.0083 245.097 97.0999 245.094L96.939 244.438L96.4297 242.391C96.4005 242.287 96.4638 242.204 96.6198 242.143C96.8063 242.075 97.0031 242.038 97.2022 242.032C97.4202 242.019 97.6389 242.039 97.8505 242.091C97.9325 242.106 98.01 242.138 98.0768 242.187C98.1437 242.235 98.198 242.298 98.2355 242.37C98.5117 243.417 98.7692 244.467 99.008 245.519C99.2468 246.571 99.4532 247.628 99.627 248.691C99.6443 248.761 99.6414 248.835 99.6187 248.903C99.5959 248.972 99.5541 249.033 99.4978 249.08C99.3653 249.183 99.1999 249.238 99.0299 249.236C98.8108 249.237 98.5946 249.188 98.3988 249.092C98.1575 248.973 97.9487 248.8 97.7895 248.587L96.2348 246.528C96.3371 246.948 96.4248 247.302 96.4955 247.585C96.5294 247.721 96.5627 247.852 96.5949 247.979L96.5953 247.98L96.5955 247.981C96.6303 248.118 96.6638 248.25 96.6953 248.377L96.8196 248.875C96.7944 248.94 96.7505 248.997 96.6931 249.039C96.6356 249.081 96.5671 249.106 96.4955 249.111C96.3001 249.15 96.0987 249.15 95.9033 249.111C95.6879 249.071 95.4826 248.991 95.299 248.875C95.1306 248.776 95.0051 248.621 94.9456 248.439ZM101.007 242.057C100.819 242.006 100.626 241.976 100.432 241.968C100.152 241.952 99.8709 241.981 99.6008 242.055C99.482 242.082 99.3712 242.135 99.2763 242.209C99.1814 242.284 99.1049 242.378 99.0525 242.484C99.0278 242.81 99.0483 243.138 99.1134 243.458C99.1914 244.008 99.2962 244.638 99.4351 245.346C99.574 246.053 99.7226 246.702 99.881 247.287C99.9673 247.691 100.115 248.081 100.32 248.443C100.538 248.699 100.801 248.916 101.097 249.084C101.383 249.274 101.707 249.404 102.047 249.466C102.338 249.478 102.625 249.404 102.871 249.254C103.193 249.066 103.467 248.811 103.673 248.506C103.929 248.128 104.095 247.699 104.16 247.252C104.243 246.67 104.201 246.078 104.036 245.513C103.878 244.91 103.62 244.335 103.271 243.812C103.001 243.41 102.673 243.047 102.296 242.734C102.033 242.517 101.744 242.332 101.433 242.185C101.192 242.081 101.051 242.038 101.007 242.057ZM101.026 244.645C101.002 244.485 101.065 244.409 101.214 244.409V244.407C101.362 244.423 101.503 244.48 101.619 244.572C101.8 244.699 101.954 244.859 102.072 245.044C102.227 245.282 102.334 245.546 102.389 245.822C102.453 246.069 102.453 246.328 102.389 246.574C102.345 246.741 102.244 246.889 102.104 246.994C102.054 247.033 101.996 247.061 101.934 247.074C101.872 247.088 101.807 247.087 101.745 247.072C101.684 247.05 101.63 247.013 101.589 246.963C101.548 246.914 101.522 246.854 101.514 246.792L101.026 244.645ZM105.088 248.625C104.894 248.314 104.792 247.957 104.793 247.594C104.794 247.269 104.866 246.947 105.003 246.65C105.105 246.409 105.264 246.193 105.466 246.02C105.2 245.767 104.983 245.47 104.825 245.143C104.667 244.83 104.575 244.49 104.557 244.143C104.535 243.832 104.626 243.524 104.815 243.272C105.054 243.001 105.39 242.826 105.756 242.784C105.978 242.754 106.204 242.763 106.423 242.812C106.753 242.91 107.062 243.065 107.335 243.27C107.62 243.552 107.822 243.903 107.92 244.287C108.021 244.659 108.027 245.049 107.937 245.424C107.859 245.766 107.654 246.069 107.362 246.275C107.451 246.41 107.554 246.535 107.671 246.648C107.783 246.751 107.911 246.835 108.051 246.898C108.097 246.858 108.138 246.812 108.171 246.761C108.207 246.709 108.246 246.643 108.292 246.561C108.308 246.528 108.334 246.501 108.367 246.484C108.4 246.466 108.438 246.46 108.475 246.466C108.564 246.485 108.647 246.522 108.719 246.575C108.811 246.637 108.898 246.706 108.98 246.78C109.063 246.856 109.158 246.952 109.265 247.07L109.206 247.167L109.17 247.221L109.131 247.282C109.109 247.315 109.088 247.349 109.07 247.384L109.133 247.407C109.195 247.435 109.259 247.458 109.323 247.478C109.375 247.493 109.428 247.502 109.482 247.507H109.725C109.785 247.642 109.797 247.793 109.759 247.936C109.729 248.121 109.669 248.3 109.582 248.467C109.496 248.627 109.406 248.702 109.309 248.702L109.106 248.681C109.066 248.679 109.026 248.673 108.987 248.662L108.848 248.625L108.665 248.566C108.512 248.83 108.294 249.054 108.032 249.219C107.753 249.407 107.437 249.535 107.103 249.596C106.777 249.657 106.44 249.63 106.128 249.519C105.704 249.318 105.344 249.009 105.088 248.625ZM107.193 247.797C107.052 247.713 106.916 247.621 106.786 247.521C106.621 247.379 106.466 247.227 106.321 247.065C106.289 247.106 106.262 247.141 106.243 247.172C106.222 247.205 106.203 247.24 106.187 247.275C106.1 247.468 106.078 247.681 106.124 247.886C106.162 248.043 106.258 248.182 106.394 248.276C106.524 248.364 106.682 248.405 106.84 248.391C106.965 248.379 107.085 248.338 107.191 248.273C107.305 248.192 107.409 248.097 107.498 247.99L107.193 247.797ZM105.912 244.879C106.024 245.095 106.175 245.289 106.358 245.454C106.408 245.412 106.455 245.364 106.496 245.313C106.55 245.247 106.601 245.181 106.648 245.112C106.694 245.044 106.728 244.992 106.75 244.957C106.821 244.874 106.871 244.777 106.894 244.672C106.918 244.567 106.915 244.459 106.886 244.355C106.825 244.18 106.698 244.034 106.531 243.945C106.385 243.858 106.21 243.83 106.043 243.867C105.885 243.907 105.799 244.037 105.756 244.256C105.744 244.474 105.799 244.69 105.912 244.879ZM111.528 242.61C111.339 242.559 111.144 242.529 110.948 242.521C110.665 242.508 110.381 242.541 110.109 242.62C109.989 242.647 109.877 242.7 109.78 242.774C109.683 242.848 109.604 242.942 109.549 243.049C109.52 243.376 109.536 243.705 109.598 244.028C109.654 244.57 109.766 245.202 109.897 245.915C110.029 246.627 110.173 247.276 110.324 247.863C110.407 248.27 110.55 248.662 110.75 249.028C110.971 249.284 111.234 249.502 111.53 249.672C111.818 249.863 112.143 249.994 112.485 250.057C112.78 250.069 113.071 249.994 113.321 249.842C113.65 249.655 113.932 249.398 114.145 249.092C114.408 248.713 114.582 248.282 114.654 247.83C114.746 247.248 114.711 246.653 114.552 246.085C114.401 245.478 114.147 244.9 113.799 244.375C113.531 243.969 113.203 243.604 112.824 243.292C112.56 243.072 112.269 242.886 111.957 242.738C111.715 242.634 111.572 242.591 111.528 242.61ZM111.513 245.21C111.489 245.049 111.555 244.974 111.708 244.974V244.971C111.865 244.986 112.014 245.044 112.137 245.139C112.317 245.267 112.47 245.427 112.588 245.611C112.742 245.849 112.847 246.114 112.897 246.391C112.957 246.641 112.951 246.901 112.88 247.149C112.831 247.316 112.729 247.463 112.588 247.571C112.537 247.609 112.478 247.636 112.415 247.649C112.352 247.662 112.287 247.661 112.225 247.646C112.16 247.627 112.103 247.591 112.06 247.541C112.017 247.491 111.989 247.43 111.981 247.366L111.513 245.21ZM114.724 243.587C114.925 243.453 115.165 243.385 115.409 243.393C115.676 243.391 115.938 243.466 116.162 243.608C116.279 243.684 116.379 243.782 116.454 243.898C116.529 244.013 116.578 244.143 116.598 244.278L116.891 245.655C116.899 245.702 116.909 245.75 116.918 245.8C116.93 245.859 116.942 245.921 116.954 245.985C117.013 246.304 117.078 246.651 117.156 247.021C117.234 247.391 117.32 247.752 117.417 248.104L117.69 249.212C117.705 249.288 117.696 249.366 117.664 249.437C117.633 249.508 117.58 249.568 117.512 249.609C117.34 249.726 117.137 249.793 116.927 249.802C116.681 249.818 116.436 249.758 116.228 249.63C115.973 249.461 115.787 249.21 115.704 248.922C115.434 248.101 115.191 247.292 114.973 246.495C114.755 245.698 114.588 244.911 114.471 244.136C114.456 244.031 114.471 243.923 114.516 243.826C114.561 243.729 114.633 243.646 114.724 243.587ZM120.671 243.395C120.256 243.356 119.838 243.372 119.428 243.445C119.318 243.456 119.21 243.475 119.099 243.495L119.099 243.495C119.024 243.509 118.947 243.523 118.867 243.534C118.816 243.563 118.762 243.588 118.706 243.61C118.528 243.681 118.359 243.772 118.202 243.881C117.981 244.042 117.802 244.251 117.68 244.492C117.503 244.862 117.404 245.263 117.39 245.671C117.367 246.333 117.43 246.995 117.578 247.641C117.722 248.046 117.925 248.429 118.182 248.778C118.474 249.179 118.845 249.521 119.274 249.783C119.786 250.09 120.362 250.284 120.961 250.349C121.421 250.421 121.893 250.379 122.333 250.226C122.466 250.171 122.586 250.09 122.687 249.989C122.788 249.889 122.867 249.769 122.92 249.639C123.021 249.372 123.086 249.094 123.112 248.811C123.13 248.778 123.13 248.742 123.13 248.707C123.156 248.641 123.165 248.57 123.154 248.499C123.173 248.341 123.173 248.134 123.173 247.898C123.174 247.652 123.148 247.407 123.098 247.167C123.059 246.948 122.965 246.743 122.825 246.568C122.677 246.419 122.491 246.311 122.286 246.254C122.066 246.186 121.839 246.143 121.609 246.124C121.335 246.109 121.06 246.109 120.785 246.124C120.735 246.117 120.684 246.126 120.64 246.15C120.596 246.174 120.561 246.211 120.541 246.256C120.481 246.374 120.45 246.504 120.449 246.636C120.443 246.775 120.462 246.914 120.505 247.046C120.515 247.098 120.537 247.146 120.57 247.187C120.603 247.228 120.646 247.261 120.695 247.282L120.873 247.388C120.926 247.42 120.975 247.457 121.022 247.497C121.069 247.535 121.11 247.58 121.143 247.629C121.183 247.702 121.207 247.783 121.212 247.865C121.218 247.932 121.218 248 121.212 248.068C121.214 248.085 121.214 248.103 121.212 248.12C121.141 248.485 121.017 248.695 120.836 248.754C120.734 248.78 120.626 248.782 120.523 248.758C120.42 248.735 120.324 248.687 120.244 248.62C119.781 248.271 119.455 247.78 119.321 247.228C119.247 246.791 119.247 246.345 119.321 245.907C119.339 245.759 119.393 245.617 119.478 245.492C119.562 245.366 119.675 245.262 119.808 245.185C120.052 245.049 120.4 245.051 120.851 245.185C121.011 245.266 121.178 245.331 121.351 245.381C121.488 245.426 121.639 245.42 121.772 245.365C121.846 245.319 121.91 245.258 121.958 245.187C122.007 245.116 122.04 245.036 122.055 244.952C122.039 244.43 121.902 244.05 121.645 243.813C121.38 243.569 121.036 243.421 120.671 243.395ZM123.105 244.029C123.309 243.894 123.552 243.825 123.799 243.833C124.068 243.831 124.332 243.906 124.557 244.048C124.674 244.124 124.774 244.223 124.848 244.339C124.923 244.455 124.972 244.585 124.991 244.72L125.269 246.105C125.278 246.151 125.286 246.198 125.295 246.247L125.295 246.249C125.306 246.309 125.318 246.371 125.33 246.435C125.386 246.756 125.449 247.102 125.522 247.475C125.595 247.848 125.681 248.209 125.766 248.563L126.029 249.676C126.045 249.749 126.038 249.825 126.01 249.895C125.981 249.965 125.932 250.025 125.868 250.068C125.695 250.187 125.489 250.255 125.276 250.263C125.028 250.279 124.782 250.218 124.572 250.089C124.316 249.921 124.131 249.67 124.05 249.381C123.786 248.559 123.551 247.746 123.346 246.944C123.141 246.142 122.979 245.356 122.859 244.586C122.842 244.48 122.856 244.372 122.9 244.273C122.943 244.175 123.014 244.09 123.105 244.029ZM125.279 244.558C125.298 244.741 125.332 244.922 125.382 245.1C125.404 245.228 125.469 245.344 125.567 245.433L127.604 245.494L128.701 250.573C128.718 250.637 128.756 250.694 128.808 250.736C128.86 250.778 128.925 250.804 128.993 250.809C129.172 250.837 129.354 250.833 129.532 250.797C129.706 250.768 129.877 250.718 130.039 250.648C130.18 250.585 130.248 250.523 130.248 250.467L129.629 245.456L131.162 245.489C131.158 245.44 131.158 245.39 131.162 245.341V244.805C131.156 244.61 131.125 244.416 131.069 244.228C131.056 244.155 131.023 244.087 130.974 244.03C130.926 243.973 130.863 243.929 130.792 243.902L125.235 243.834C125.245 244.121 125.26 244.362 125.279 244.558ZM134.047 243.935C134.219 243.941 134.389 243.976 134.549 244.039C134.681 244.085 134.792 244.175 134.861 244.294C135.186 244.923 135.522 245.608 135.87 246.348C136.217 247.089 136.557 247.837 136.888 248.591C137.213 249.313 137.525 249.996 137.824 250.639C137.853 250.7 137.824 250.785 137.717 250.891C137.594 251.014 137.453 251.118 137.298 251.2C137.12 251.299 136.928 251.369 136.728 251.408C136.54 251.449 136.344 251.432 136.167 251.361C136.072 251.316 135.989 251.252 135.921 251.173C135.853 251.095 135.804 251.004 135.775 250.905L135.321 249.559C135.277 249.42 135.224 249.283 135.163 249.151C135.118 249.05 135.06 248.956 134.99 248.87C134.967 248.835 134.938 248.806 134.903 248.783C134.868 248.759 134.829 248.743 134.788 248.735C134.75 248.738 134.714 248.753 134.684 248.776C134.655 248.799 134.633 248.83 134.622 248.865C134.584 248.958 134.56 249.056 134.551 249.155C134.542 249.298 134.542 249.442 134.551 249.585L134.59 250.764C134.59 251.039 134.488 251.202 134.283 251.252C134.04 251.305 133.787 251.29 133.552 251.207C133.3 251.134 133.06 251.029 132.836 250.896C132.631 250.771 132.529 250.66 132.526 250.582C132.59 249.736 132.636 248.86 132.67 247.959C132.693 247.33 132.72 246.716 132.753 246.117C132.785 245.518 132.835 244.946 132.902 244.4C132.921 244.23 133.048 244.103 133.277 244.02C133.525 243.94 133.787 243.911 134.047 243.935ZM134.366 246.136H134.352C134.316 246.139 134.282 246.153 134.255 246.176C134.227 246.198 134.208 246.228 134.198 246.261C134.168 246.348 134.153 246.438 134.154 246.53C134.153 246.641 134.158 246.752 134.171 246.862C134.171 246.945 134.189 247.032 134.21 247.134C134.218 247.172 134.227 247.213 134.235 247.256H134.893C134.868 247.105 134.841 246.976 134.812 246.862C134.784 246.749 134.75 246.637 134.71 246.528C134.674 246.426 134.624 246.33 134.561 246.242C134.539 246.21 134.511 246.183 134.477 246.163C134.443 246.142 134.406 246.129 134.366 246.124V246.136ZM137.554 246.787C137.674 247.465 137.816 248.173 137.978 248.91C138.141 249.646 138.273 250.172 138.356 250.474C138.402 250.616 138.464 250.752 138.541 250.88C138.623 251.007 138.722 251.124 138.836 251.226C138.979 251.354 139.144 251.456 139.323 251.528C139.556 251.619 139.804 251.669 140.054 251.677C140.949 251.759 141.851 251.723 142.735 251.568C142.827 251.556 142.912 251.512 142.975 251.445C143.038 251.379 143.076 251.293 143.081 251.203C143.102 250.977 143.072 250.749 142.993 250.535C142.92 250.313 142.818 250.1 142.691 249.901C142.572 249.722 142.477 249.627 142.401 249.627C142.206 249.639 141.997 249.655 141.775 249.677C141.48 249.711 141.183 249.729 140.885 249.731C140.674 249.752 140.463 249.694 140.293 249.571C140.188 249.346 140.116 249.107 140.081 248.863C140.006 248.487 139.931 248.046 139.854 247.54C139.778 247.033 139.707 246.536 139.642 246.047C139.574 245.526 139.514 245.103 139.462 244.777C139.433 244.721 139.352 244.648 139.189 244.565C139 244.471 138.803 244.392 138.599 244.329C138.378 244.258 138.15 244.206 137.92 244.174C137.738 244.14 137.551 244.148 137.374 244.197C137.308 244.216 137.253 244.258 137.219 244.315C137.185 244.372 137.175 244.44 137.191 244.504C137.213 244.662 137.252 244.919 137.31 245.278C137.369 245.636 137.425 245.983 137.476 246.315C137.507 246.483 137.53 246.63 137.548 246.749L137.554 246.787Z" fill="#FF8025"/>
</svg>
