<svg width="29" height="29" viewBox="0 0 29 29" fill="none" xmlns="http://www.w3.org/2000/svg">
<path d="M14.6583 13.51C16.456 13.51 17.9133 12.0526 17.9133 10.255C17.9133 8.45727 16.456 6.99995 14.6583 6.99995C12.8606 6.99995 11.4033 8.45727 11.4033 10.255C11.4033 12.0526 12.8606 13.51 14.6583 13.51Z" stroke="#FF8025" stroke-width="1.92889" stroke-linecap="round" stroke-linejoin="round"/>
<path d="M6.70159 15.6798C8.09979 15.6798 9.23325 14.5464 9.23325 13.1482C9.23325 11.75 8.09979 10.6165 6.70159 10.6165C5.30339 10.6165 4.16992 11.75 4.16992 13.1482C4.16992 14.5464 5.30339 15.6798 6.70159 15.6798Z" stroke="#FF8025" stroke-width="1.92889" stroke-linecap="round" stroke-linejoin="round"/>
<path d="M22.6149 15.6798C24.0131 15.6798 25.1466 14.5464 25.1466 13.1482C25.1466 11.75 24.0131 10.6165 22.6149 10.6165C21.2167 10.6165 20.0833 11.75 20.0833 13.1482C20.0833 14.5464 21.2167 15.6798 22.6149 15.6798Z" stroke="#FF8025" stroke-width="1.92889" stroke-linecap="round" stroke-linejoin="round"/>
<path d="M20.8064 18.5732C20.8064 17.9976 20.461 17.4457 19.846 17.0387C19.2311 16.6318 18.397 16.4032 17.5273 16.4032H11.7889C10.9192 16.4032 10.0851 16.6318 9.4702 17.0387C8.85524 17.4457 8.50977 17.9976 8.50977 18.5732" stroke="#FF8025" stroke-width="1.92889" stroke-linecap="round" stroke-linejoin="round"/>
<path d="M11.4033 22.1899V20.9844C11.4033 20.3449 11.1391 19.7316 10.6689 19.2794C10.1986 18.8273 9.56082 18.5732 8.89578 18.5732H4.50756C3.84251 18.5732 3.2047 18.8273 2.73445 19.2794C2.26419 19.7316 2 20.3449 2 20.9844V22.1899" stroke="#FF8025" stroke-width="1.92889" stroke-linecap="round" stroke-linejoin="round"/>
<path d="M27.3164 22.1899V20.9844C27.3164 20.3449 27.0522 19.7316 26.582 19.2794C26.1117 18.8273 25.4739 18.5732 24.8089 18.5732H20.4206C19.7556 18.5732 19.1178 18.8273 18.6475 19.2794C18.1773 19.7316 17.9131 20.3449 17.9131 20.9844V22.1899" stroke="#FF8025" stroke-width="1.92889" stroke-linecap="round" stroke-linejoin="round"/>
</svg>
