<svg width="1917" height="574" viewBox="0 0 1917 574" fill="none" xmlns="http://www.w3.org/2000/svg">
<path d="M-82.3774 426.4C-42.9922 368.383 100.908 285.83 147.053 389.909C175.466 453.982 188.37 493.619 255.15 493.619C314.555 493.619 326.231 439.656 307.108 396.495C295.594 370.514 299.75 339.278 331.365 329.684C341.876 326.491 353.196 326.368 364.201 327.437C399.204 330.838 463.549 360.066 495.568 341.532C530.652 321.221 544.203 286.207 516.922 256.256C488.065 224.581 461.851 229.998 439.947 202.916C409.723 165.51 429.751 130.719 461.447 103.361C495.544 73.9251 504.778 33.1182 409.028 -48.4879C409.028 -48.4879 381.1 -79.6162 410.984 -114.145C440.869 -148.674 543.282 -89.7872 543.282 -89.7872C543.282 -89.7872 583.839 -69.4761 613.724 -73.5383C643.608 -77.6005 680.366 -33.8777 649.179 -9.02739C563.407 59.3072 698.655 57.9993 741.655 73.8789C781.452 88.5737 791.042 141.19 734.984 194.584C617.33 306.634 630.679 424.823 723.761 428.547C815.024 432.201 877.453 449.973 903.068 527.656C955.083 685.429 781.937 566.247 722.176 596.198C503.217 705.955 575.6 569.978 575.6 569.978C575.6 569.978 587.001 553.399 592.046 526.894C612.737 418.16 482.615 417.36 472.071 473.039C463.08 520.701 429.274 536.78 409.715 569.978C387.075 608.269 302.119 633.227 272.259 606.823C242.399 580.418 212.425 602.761 212.425 602.761C144.126 653.539 113.845 593.528 113.845 593.528C104.296 376.661 -49.6548 502.651 -49.6548 502.651C-49.6548 502.651 -125.336 489.688 -82.3774 426.4Z" stroke="#EBEBEB" stroke-width="13" stroke-miterlimit="10"/>
<path d="M1285.5 615.422C1304.68 606.558 1333.55 542.142 1333.55 542.142C1333.55 542.142 1355.79 517.979 1340.97 480.112C1326.15 442.244 1295.36 358.606 1375.35 346.833C1428.58 338.999 1462.24 376.297 1477.06 461.182C1489.72 533.693 1547.13 491.193 1547.13 491.193C1570.73 479.588 1610.9 480.42 1625.14 507.652C1639.39 534.885 1613.57 568.021 1613.57 568.021C1613.57 568.021 1581.68 597.123 1617.91 615.407C1647.64 630.412 1739.52 629.704 1803.52 609.805C1830.67 601.34 1854.74 585.458 1871.32 563.296L1871.94 562.472C1877.5 554.855 1881.18 546.13 1882.68 536.959C1884.18 527.788 1883.48 518.41 1880.61 509.538C1870.59 478.296 1842.77 427.439 1768.19 429.87C1660.88 433.364 1656.97 425.43 1641.03 411.825C1629.88 402.307 1616.56 340.846 1679.55 335.405C1765.66 327.956 1753.42 286.418 1753.42 286.418C1749.2 258.631 1755.71 236.346 1780.59 229.775C1841.68 213.615 1857.49 300.408 1896.29 322.016C1935.09 343.624 1960.06 338.268 1994.12 324.517C1994.12 324.517 2076.54 293.806 2047.39 373.111C2018.76 451.001 1993.77 529.053 2076.61 528.614C2356.3 527.136 2384.64 256.592 2384.64 256.592C2384.64 256.592 2393.22 195.347 2367.27 164.92C2367.27 164.92 2319.9 94.5026 2250.97 190.491C2182.03 286.48 2116.28 280.224 2087.73 264.541C2059.18 248.859 2037.68 187.175 2076 144.936C2114.32 102.698 2163.1 96.6264 2196.05 77.8427C2216.08 66.4232 2251.28 35.989 2212.13 -12.3439C2193.41 -35.4292 2163.77 -40.8927 2180.56 -101.907C2180.56 -101.907 2178.3 -140.229 2118.64 -113.819C2058.97 -87.4096 2021.51 -110.972 2015.74 -44.3478C2015.74 -44.3478 2015.74 68.8702 1982.64 128.461C1949.55 188.052 1862.85 211.868 1824.73 152.316C1784.67 89.7393 1887.42 -5.74149 1888.15 -56.8754C1889.2 -130.748 1791.06 -138.143 1759.92 -74.2125C1678.22 93.4099 1607.92 5.04704 1547.19 -38.6303C1504.79 -69.126 1409.16 -76.4748 1394.84 -72.1425C1380.07 -67.6947 1363.95 -71.1267 1343.7 -46.7487C1339.67 -41.9238 1334.32 -23.8865 1334.11 -16.2761C1333.05 22.3225 1375.67 98.2655 1497.62 102.836C1619.58 107.407 1649.23 169.414 1650.58 204.042C1651.92 238.67 1608.8 294.075 1550.86 284.979C1492.91 275.884 1461.43 236.169 1427.15 218.032C1406.31 206.99 1371.53 198.556 1338.61 256.946C1325.01 281.07 1299.06 300.254 1270.64 288.496C1242.23 276.738 1240.61 230.544 1262.43 202.588C1284.24 174.632 1332.09 129.354 1313 100.913C1281.9 54.5496 1253.41 71.0787 1254.62 -9.4967C1254.78 -20.3237 1249.58 -32.0049 1241.71 -43.4244C1210.76 -88.1791 1151.76 -106.994 1098.24 -90.5877C1078.31 -84.4777 1056.51 -77.0597 1036.03 -68.5643C986.823 -48.139 933.011 -39.8659 879.565 -44.5094C833.959 -48.4647 788.555 -43.3628 792.898 -6.11855C795.254 14.1196 865.302 91.3322 987.259 95.4568C1109.22 99.5813 1138.86 155.879 1140.21 187.275C1141.56 218.671 1098.44 269.004 1040.49 260.724C982.545 252.445 951.065 216.431 916.784 199.933C895.934 189.93 855.115 179.81 828.244 235.231C816.839 258.762 821.504 296.93 847.818 310.25C858.836 315.821 871.517 317.36 883.754 319.661C895.991 321.962 908.647 325.448 917.502 333.82C933.339 348.787 931.62 373.511 926.026 394.088C915.533 432.687 909.689 462.575 949.515 486.83C997.946 516.317 1040.49 504.659 1054.64 485.437C1054.64 485.437 1079.98 464.983 1057.34 395.496C1035.14 327.387 1087.48 296.637 1140.24 288.419C1193.01 280.201 1234.1 313.682 1205.08 337.845C1115.71 412.287 1100.62 444.437 1126.36 462.059C1147.27 476.449 1178.58 461.059 1197.75 461.059C1206.84 461.059 1239.4 454.733 1247.79 457.981C1280.08 470.562 1276.85 497.033 1225.82 519.895C1173.9 543.15 1195.96 605.211 1195.96 605.211C1195.96 605.211 1215.19 647.926 1285.5 615.422Z" stroke="#EBEBEB" stroke-width="13" stroke-miterlimit="10"/>
<path d="M-93.8408 243.571C-30.4022 261.534 -28.1334 218.227 -8.15796 196.117C33.6258 149.914 72.0103 176.586 87.7872 192.96C113.746 219.84 129.829 264.084 180.971 291.317C232.113 318.55 291.135 286.079 301.542 256.327C311.95 226.575 305.087 164.053 192.541 119.141C79.9956 74.2283 142.78 15.8992 142.78 15.8992C168.819 -14.3982 233.501 -18.7373 233.501 -18.7373C233.501 -18.7373 339.402 -25.4726 330.876 -76.1525C322.349 -126.832 262.665 -100.483 262.665 -100.483C262.665 -100.483 179.542 -82.235 55.9669 -106.565C-67.6079 -130.895 -40.5999 -61.361 -40.5999 -61.361C-40.5999 -61.361 -37.6044 -46.3774 -6.89839 -20.3117C13.2305 -3.25459 28.0223 2.12137 42.3055 16.8284C84.7675 60.4889 54.9577 104.126 2.53222 128.41C-28.852 142.941 -140.671 156.634 -140.671 156.634C-140.671 156.634 -226.548 205.978 -93.8408 243.571Z" stroke="#EBEBEB" stroke-width="13" stroke-miterlimit="10"/>
</svg>
