<svg width="716" height="445" viewBox="0 0 716 445" fill="none" xmlns="http://www.w3.org/2000/svg">
<g clip-path="url(#clip0)">
<path d="M385.772 447.098C385.483 446.121 385.266 445.144 384.94 444.204C382.12 436.642 379.263 429.045 376.37 421.483C376.298 421.302 376.189 421.122 376.117 420.904C375.358 418.806 375.358 418.806 377.636 417.902C378.576 417.54 379.552 417.214 380.493 416.78C380.782 416.563 380.89 416.201 380.854 415.876C380.529 415.224 380.131 414.645 379.697 414.067C376.732 409.87 373.767 405.673 370.801 401.513C369.102 399.089 369.102 399.089 366.173 398.546C357.204 396.882 348.417 394.385 339.919 391.057C336.122 389.537 332.361 387.873 328.709 386.028C322.345 382.844 316.595 378.611 311.713 373.438C302.167 363.452 293.958 352.454 286.581 340.804C286.038 339.972 285.387 339.213 284.809 338.417C283.796 338.996 283.833 340.117 283.543 341.022C278.625 356.072 271.031 369.748 262.28 382.844C256.133 392.07 249.443 400.934 242.428 409.508C240.077 412.366 238.16 415.55 236.714 418.951C235.593 421.592 234.508 424.233 233.496 426.91C232.989 428.213 233.062 428.213 234.219 428.683C237.076 429.804 237.076 429.804 236.135 432.699C234.797 436.895 233.423 441.092 232.085 445.289C231.941 445.868 231.832 446.483 231.76 447.062H229.916C230.856 444.131 231.796 441.201 232.736 438.27C233.423 436.136 234.11 434.001 234.834 431.83C235.087 431.035 234.942 430.456 234.002 430.275C233.423 430.13 232.809 429.949 232.23 429.732L170.032 409.508C163.306 407.337 156.616 405.13 149.89 402.96C147.865 402.309 147.829 402.309 147.142 404.443C145.587 409.219 144.032 413.994 142.477 418.77C139.403 428.213 136.329 437.655 133.219 447.098H131.99C132.062 446.411 132.171 445.687 132.352 445C136.944 430.781 141.573 416.527 146.165 402.309C146.274 402.019 146.346 401.73 146.455 401.44C146.708 400.789 147.105 400.463 147.865 400.717C148.624 400.97 149.42 401.078 150.215 401.295C150.469 400.427 150.685 399.559 150.866 398.654C151.698 393.011 151.047 387.584 148.154 382.591C146.382 379.48 144.574 376.368 142.73 373.293C138.824 366.853 135.57 360.16 133.762 352.816C131.773 344.784 131.231 336.608 131.628 328.359C132.171 317.143 134.232 306.145 136.872 295.255C140.271 281.109 143.923 267.036 148.588 253.215C149.601 250.213 150.649 247.21 151.843 244.243C152.385 242.904 152.53 241.457 152.204 240.046C150.288 231.038 148.335 221.993 146.418 212.948C142.585 194.895 138.788 176.842 134.955 158.752C131.375 141.785 127.759 124.853 124.179 107.885C123.203 103.254 122.226 98.6594 121.286 94.0285C119.623 85.6712 124.36 78.3993 132.749 76.5541C143.164 74.2749 153.578 72.068 164.029 69.861C181.061 66.2432 198.13 62.6253 215.162 59.0436L269.404 47.6472C271.61 47.1769 273.852 46.8151 276.022 46.2363C282.241 44.572 291.427 48.1537 293.415 57.4879C294.862 64.2171 296.272 70.9464 297.682 77.6395C301.95 97.7188 306.18 117.762 310.411 137.841C312.581 148.08 314.715 158.318 316.848 168.557C316.993 169.027 317.137 169.534 317.21 170.04C317.282 171.379 317.933 171.922 319.235 172.32C321.404 172.971 322.779 174.635 323.683 176.733C325.201 180.351 325.057 183.933 323.791 187.551C323.502 188.419 323.285 189.287 323.032 190.156C323.9 190.3 324.768 190.518 325.635 190.554C328.348 190.771 330.228 192.182 331.494 194.497C333.193 197.645 333.302 200.973 332.542 204.374C331.711 207.956 329.902 211.031 327.66 213.853C327.046 214.613 326.576 215.409 327.118 216.349C327.371 216.747 327.733 217.073 328.094 217.362C328.239 217.471 328.492 217.471 328.709 217.507C332.723 218.231 334.531 221.016 335.327 224.67C336.122 228.216 335.435 231.617 333.989 234.873C333.627 235.705 333.157 236.501 332.759 237.369C332.434 238.093 332.795 238.491 333.663 238.274C337.062 237.441 340.498 236.899 343.969 236.646C348.273 236.356 352.612 236.718 356.807 237.731C357.675 237.948 358.362 237.948 359.121 237.441C363.822 234.366 368.993 234.294 374.237 235.271C380.203 236.392 385.519 238.997 390.292 242.651C391.739 243.773 393.077 244.315 395.03 244.062C400.418 243.411 405.408 245.003 410.073 247.499C415.75 250.502 420.56 254.699 424.754 259.547C433.939 270.147 440.159 282.195 443.088 295.979C445.692 308.316 448.079 320.725 449.706 333.243C451.189 344.639 452.346 356.072 452.454 367.613C452.454 368.517 452.563 369.458 452.852 370.326C454.588 375.464 456.396 380.601 458.204 385.702C458.71 387.113 458.746 387.113 460.157 386.643C460.337 386.571 460.554 386.535 460.735 386.462C461.892 386.1 463.122 384.943 464.134 385.63C465.002 386.245 465.292 387.728 465.689 388.85C472.632 407.265 479.575 425.68 486.482 444.095C486.844 445.072 487.133 446.049 487.459 446.989H485.614C485.506 446.302 485.325 445.615 485.108 444.963C478.165 426.476 471.186 407.989 464.243 389.537C463.339 387.113 463.303 387.113 460.88 388.054C434.193 398.112 407.505 408.206 380.782 418.3C379.733 418.698 378.721 419.204 377.708 419.674C377.997 420.76 378.214 421.845 378.612 422.894C381.614 430.962 384.615 438.994 387.653 447.026L385.772 447.098ZM301.479 230.025C305.855 231.219 310.267 232.413 314.642 233.607L315.402 233.534L315.149 233.028C315.004 232.015 314.859 231.002 314.678 229.989C312.509 219.641 310.339 209.331 308.133 198.983C304.553 182.124 301.009 165.301 297.429 148.442C293.596 130.388 289.799 112.335 285.966 94.2818C284.158 85.7436 282.35 77.2415 280.506 68.7033C279.746 65.194 277.323 63.2041 273.78 63.1318C272.876 63.1318 271.935 63.2041 271.031 63.4212C266.33 64.398 261.593 65.3749 256.892 66.3879C253.095 67.1838 249.298 68.0521 245.465 68.7757C243.585 69.1375 242.283 69.861 241.777 71.8147C241.379 73.298 240.692 74.6728 240.149 76.12C238.739 79.7379 236.027 81.8724 232.338 82.8854C231.543 83.1025 230.747 83.2834 229.952 83.4281C224.528 84.5858 219.103 85.7074 213.715 86.8289C205 88.674 196.285 90.5554 187.534 92.3281C183.773 93.0879 180.447 92.0749 177.626 89.3976C176.36 88.1675 175.022 87.046 173.901 85.7074C172.889 84.5135 171.768 84.3688 170.357 84.6944C166.452 85.5627 162.547 86.3586 158.641 87.1907C153.723 88.2399 148.805 89.2167 143.887 90.3021C138.824 91.4236 136.727 94.7883 137.776 99.8533C139.005 105.678 140.235 111.503 141.464 117.292C144.863 133.246 148.263 149.165 151.662 165.12C155.603 183.788 159.545 202.42 163.451 221.089C163.812 222.717 163.812 222.717 165.331 222.029C168.369 220.654 170.647 221.233 172.599 223.874C173.684 225.394 174.335 227.167 174.48 229.012C174.805 232.159 174.95 235.343 174.914 238.527C174.733 246.016 173.793 253.469 172.672 260.885C172.455 262.405 172.527 263.961 172.853 265.444C174.661 273.874 176.577 282.267 178.168 290.733C178.855 294.387 181.857 296.956 185.871 296.666C186.702 296.594 187.498 296.485 188.294 296.304C191.693 295.581 195.092 294.857 198.527 294.134C214.692 290.697 230.82 287.296 246.948 283.859C263.799 280.277 280.65 276.732 297.502 273.186L314.932 269.496C316.776 269.098 318.475 268.411 319.705 266.891C319.85 266.565 319.85 266.167 319.669 265.842C319.416 265.516 319.09 265.299 318.692 265.082C312.328 260.741 306 256.399 299.635 252.094C299.093 251.732 298.37 251.551 297.719 251.298L297.791 249.091C299.997 250.538 302.239 251.985 304.445 253.505C313.232 259.583 322.128 265.444 330.734 271.775C341.076 279.409 349.538 288.888 356.156 299.922C359.844 306.037 362.52 312.549 363.46 319.676C364.292 325.971 363.352 331.941 360.097 337.476C358.181 340.732 355.433 342.939 351.78 343.88C349.683 344.422 347.513 344.603 345.38 344.386C341.076 343.952 336.918 342.758 333.012 340.913C320.356 334.943 309.688 326.478 301.588 314.937C298.08 309.872 294.247 305.024 290.125 300.465C287.666 297.824 285.171 295.255 282.133 293.302C280.831 292.47 279.457 291.782 278.011 291.276C276.456 290.733 275.19 291.276 274.358 292.759C273.816 293.736 273.418 294.821 273.201 295.907C272.442 299.705 272.731 303.468 273.49 307.23C274.575 312.368 276.275 317.324 278.517 322.064C287.196 340.768 298.912 357.374 313.015 372.352C318.584 378.25 325.201 382.627 332.542 386.1C343.752 391.382 355.505 394.856 367.619 397.099C369.355 397.424 370.584 398.112 371.561 399.595C374.671 404.154 377.925 408.676 381.143 413.162C383.494 416.418 382.59 415.984 385.953 414.682C405.516 407.374 425.08 399.993 444.607 392.576C448.151 391.238 451.695 389.899 455.239 388.524C457.3 387.728 457.3 387.728 456.54 385.522C454.913 380.891 453.25 376.26 451.659 371.593C451.297 370.543 451.08 369.422 451.008 368.3C450.682 354.335 449.417 340.406 447.211 326.622C445.692 316.89 443.667 307.267 441.859 297.571C440.521 290.299 438.098 283.28 434.663 276.732C430.106 268.121 424.429 260.379 416.98 254.048C413.508 251.117 409.747 248.693 405.444 247.101C402.334 245.943 399.152 245.256 395.825 245.473C395.463 245.546 395.138 245.654 394.813 245.799C395.03 246.124 395.246 246.45 395.463 246.739C395.68 246.957 395.897 247.174 396.151 247.354C404.142 254.699 410.868 263.092 416.69 272.209C419.258 276.189 421.464 280.35 423.308 284.691C423.561 285.342 423.778 286.03 423.959 286.717C423.959 286.898 423.85 287.079 423.67 287.187C423.416 287.26 422.982 287.296 422.838 287.151C422.585 286.862 422.368 286.5 422.223 286.138C421.283 284.076 420.415 281.978 419.402 279.988C413.906 269.568 406.891 260.27 398.646 251.841C395.102 248.114 391.124 244.822 386.857 241.964C382.373 239.033 377.31 237.116 372.031 236.356C368.415 235.813 364.871 236.175 361.544 237.803C361.255 237.948 361.001 238.093 360.748 238.274C361.038 238.563 361.255 238.925 361.616 239.07C366.679 241.023 371.018 244.062 375.141 247.499C381.541 252.854 387.074 259.076 392.028 265.77C396.006 271.124 399.55 276.768 402.334 282.882C402.84 284.004 403.311 285.125 403.708 286.319C403.781 286.572 403.419 286.97 403.274 287.296C402.913 287.187 402.587 287.007 402.298 286.789C402.081 286.609 402.045 286.247 401.936 285.957C399.803 280.748 397.091 275.755 393.872 271.124C387.616 261.898 380.42 253.505 371.561 246.667C368.198 244.098 364.654 241.891 360.64 240.444C351.599 237.116 342.559 237.441 333.41 239.974C333.049 240.119 332.687 240.336 332.398 240.589C332.687 240.915 333.049 241.24 333.41 241.494C334.278 242 335.218 242.434 336.122 242.941C355.939 253.939 372.356 268.664 385.194 287.368C385.772 288.2 386.315 289.069 386.785 290.009C386.893 290.263 386.64 290.661 386.568 291.022C386.206 290.986 385.844 290.878 385.483 290.697C385.23 290.552 385.157 290.19 384.977 289.937C380.456 282.954 375.249 276.442 369.427 270.473C351.346 251.732 329.83 238.78 304.589 232.123C303.504 231.834 302.456 231.472 301.371 231.146C301.299 230.857 301.407 230.459 301.479 230.025ZM173.612 237.767C173.287 234.511 173.07 231.219 172.599 227.999C172.346 226.696 171.768 225.466 170.936 224.453C169.49 222.536 167.754 222.283 165.837 223.694C164.535 224.67 163.342 225.828 162.33 227.094C160.015 229.989 158.352 233.317 156.797 236.646C153.542 243.628 151.011 250.864 148.66 258.172C144.104 272.318 140.452 286.717 137.161 301.225C134.449 313.164 132.749 325.248 133.256 337.548C133.473 342.794 134.232 347.968 135.534 353.033C137.306 359.943 140.452 366.274 144.104 372.352C145.804 375.174 147.503 377.96 149.094 380.818C150.758 383.785 151.915 386.969 152.566 390.297C153.072 393.083 152.711 395.832 152.421 398.582C152.06 402.055 152.06 402.055 155.17 403.068L228.795 426.946C229.265 427.091 229.771 427.236 230.241 427.417C231.073 427.742 231.543 427.525 231.868 426.657C232.555 424.848 233.351 423.039 234.038 421.23C235.991 416.165 238.739 411.426 242.211 407.229C250.311 397.424 257.796 387.113 264.631 376.368C272.333 364.176 278.734 351.405 283.037 337.621C283.399 336.463 283.507 335.522 282.856 334.437C281.446 331.941 280.108 329.408 278.806 326.839C278.155 325.501 277.685 325.609 276.636 325.826C268.717 327.491 260.798 329.191 252.878 330.891L204.783 341.094C201.384 341.817 197.949 342.505 194.55 343.265C192.922 343.626 192.922 343.663 192.922 345.218C192.958 345.942 192.922 346.665 192.85 347.353C192.741 347.606 192.488 347.787 192.235 347.823C191.946 347.787 191.729 347.57 191.584 347.317C191.476 346.81 191.403 346.304 191.367 345.797C191.078 343.337 190.897 340.877 190.463 338.453C187.534 322.172 179.253 309.365 165.439 300.212C163.668 299.018 163.631 299.018 164.065 296.992C166.814 284.908 169.164 272.716 171.008 260.451C172.238 252.962 173.214 245.437 173.612 237.767ZM122.516 91.2789C122.624 92.0749 122.733 93.4135 123.022 94.7159C124.324 100.939 125.698 107.125 127 113.348C130.977 132.306 134.991 151.263 138.969 170.221C142.838 188.492 146.708 206.726 150.577 224.96C151.481 229.157 152.385 233.389 153.289 237.586C153.398 237.984 153.578 238.346 153.759 238.708C154.049 238.454 154.302 238.129 154.519 237.803C156.58 233.317 158.713 228.903 161.859 225.032C162.185 224.634 162.257 223.911 162.257 223.332C162.221 222.608 162.076 221.921 161.896 221.233C158.533 205.278 155.133 189.324 151.77 173.405C148.588 158.355 145.406 143.304 142.26 128.254C140.199 118.522 138.174 108.789 136.076 99.0936C135.353 95.6927 136.474 93.0517 139.041 90.881C140.235 89.9041 141.645 89.2167 143.164 88.9273C146.491 88.2399 149.781 87.5163 153.072 86.7927C159.075 85.4903 165.114 84.2602 171.117 82.9216C172.491 82.6322 173.431 82.9578 174.371 83.9708C175.782 85.4903 177.3 86.8289 178.747 88.2761C180.555 90.1212 183.122 91.098 185.726 90.9171C186.739 90.8448 187.751 90.7362 188.764 90.5192C197.189 88.7464 205.615 86.9736 214.041 85.2009C219.754 84.007 225.468 82.7769 231.181 81.5468C234.978 80.7509 237.654 78.6163 238.992 74.8899C239.535 73.3342 240.294 71.8509 240.764 70.2952C241.307 68.4863 242.428 67.7265 244.236 67.4009C248.973 66.4964 253.674 65.4111 258.375 64.4342C262.895 63.4936 267.379 62.4444 271.935 61.6846C277.323 60.7802 281.157 63.5297 282.278 68.848C284.194 77.8566 286.038 86.9013 287.955 95.946C291.318 111.901 294.717 127.856 298.08 143.774L307.627 188.889C310.737 203.542 313.811 218.194 316.884 232.811C317.137 234.077 317.752 234.692 318.982 235.126C322.055 236.284 325.021 237.659 328.058 238.925C328.42 239.07 328.818 239.25 329.215 239.395C329.902 239.612 330.409 239.142 330.264 238.418C329.649 235.415 328.998 232.413 328.348 229.374C324.551 211.32 320.717 193.267 316.884 175.214C313.304 158.355 309.76 141.531 306.217 124.672C302.167 105.533 298.116 86.3586 294.066 67.22C293.307 63.7106 292.692 60.1651 291.716 56.7281C289.98 50.5415 284.23 46.7789 277.866 47.4663C276.853 47.5749 275.841 47.7919 274.828 48.009C263.799 50.3245 252.77 52.6761 241.74 55.0277C224.781 58.6094 207.857 62.1911 190.897 65.7367C174.661 69.1736 158.424 72.6106 142.188 76.0476C138.68 76.8074 135.136 77.4224 131.701 78.4354C126.132 80.1358 122.588 85.0923 122.516 91.2789ZM342.74 299.271C342.704 298.439 342.631 297.607 342.487 296.775C341.546 292.144 340.498 287.549 339.558 282.918C339.377 281.905 338.907 280.965 338.183 280.241C333.41 275.538 327.986 271.63 322.525 267.832C321.947 267.434 321.441 267.398 320.934 267.976C319.126 270.002 316.703 270.798 314.172 271.305C299.635 274.38 285.098 277.455 270.561 280.531C245.393 285.849 220.26 291.203 195.092 296.522C192.271 297.1 189.487 297.752 186.666 298.186C181.857 298.946 178.024 296.268 176.83 291.493C176.686 290.878 176.541 290.299 176.396 289.684C174.95 282.954 173.54 276.261 172.093 269.532C171.985 269.17 171.876 268.845 171.732 268.519C171.587 268.881 171.406 269.243 171.261 269.641C171.153 270.039 171.044 270.437 170.972 270.835C169.706 277.383 168.441 283.931 167.175 290.443C166.814 292.252 166.38 294.061 166.018 295.87C165.693 297.426 165.982 298.728 167.501 299.524C167.754 299.669 168.043 299.85 168.26 300.031C180.049 308.533 187.679 319.821 191.223 333.93C191.765 336.101 192.091 338.344 192.488 340.587C192.633 341.456 193.031 341.854 193.935 341.637C194.333 341.528 194.767 341.528 195.164 341.456C199.251 340.587 203.373 339.719 207.495 338.815C223.443 335.45 239.354 332.049 255.301 328.648C262.208 327.201 269.151 325.754 276.058 324.271C277.36 323.981 277.432 323.873 276.962 322.643C275.805 319.567 274.648 316.492 273.49 313.453C273.165 312.549 272.876 312.476 272.261 313.128C271.646 313.779 271.176 314.358 270.561 314.9C266.403 318.808 261.412 320.002 256.024 318.446C249.588 316.637 245.899 312.078 244.959 305.458C244.236 299.488 247.165 293.627 252.408 290.661C258.122 287.441 263.799 287.766 269.187 291.529C269.838 291.999 270.489 292.542 271.068 293.121C271.718 293.736 272.044 293.446 272.442 292.831C274.539 289.503 276.6 288.852 280.18 290.443C281.12 290.841 282.024 291.348 282.856 291.963C284.122 292.867 285.315 293.808 286.472 294.821C291.571 299.307 295.838 304.589 299.888 310.052C301.226 311.861 302.528 313.707 303.83 315.552C305.638 318.084 305.638 318.12 308.531 317.505C313.847 316.384 319.162 315.226 324.442 314.068C327.443 313.417 330.481 312.911 333.446 312.078C339.051 310.559 342.704 305.639 342.74 299.271ZM346.537 342.975C353.082 343.084 357.132 340.551 359.844 334.582C360.387 333.352 360.821 332.122 361.182 330.819C362.701 325.428 362.267 320.038 360.784 314.756C357.421 302.889 350.406 293.265 342.234 284.365C342.089 284.257 341.908 284.148 341.727 284.076C341.619 284.329 341.583 284.583 341.547 284.872C341.583 285.27 341.691 285.668 341.8 286.066C342.559 289.792 343.427 293.483 344.078 297.209C345.452 305.132 340.642 312.259 332.795 313.996C327.914 315.081 322.996 316.058 318.078 317.107C314.678 317.831 311.279 318.554 307.88 319.314C307.229 319.459 307.084 319.857 307.591 320.363C309.254 322.064 310.845 323.8 312.581 325.392C319.596 331.796 327.263 337.187 336.158 340.66C339.449 341.998 342.884 342.975 346.537 342.975ZM270.923 300.357L271.212 300.32C271.14 299.488 271.176 298.692 271.248 297.86C271.501 296.377 270.887 295.328 269.874 294.315C264.595 288.888 255.952 288.779 250.528 294.061C247.671 296.847 246.188 300.718 246.405 304.662C246.695 310.704 250.817 315.66 256.82 317.216C262.316 318.663 268.464 316.203 271.574 311.391C272.152 310.559 272.333 309.51 272.08 308.497C271.574 305.856 271.284 303.07 270.923 300.357ZM331.566 199.996C331.277 198.983 330.987 197.247 330.3 195.655C329.071 192.833 326.612 191.603 323.538 192.037C322.381 192.182 322.092 192.507 322.272 193.629C322.453 194.823 322.742 196.053 322.996 197.247C324.044 202.167 325.057 207.087 326.105 211.972C326.142 212.152 326.25 212.406 326.359 212.406C326.576 212.406 326.756 212.333 326.901 212.189C329.541 208.86 331.277 205.098 331.566 199.996ZM334.061 227.601C334.133 225.647 333.663 223.694 332.687 221.993C331.819 220.401 330.445 219.316 328.601 219.099C328.384 219.063 327.914 219.497 327.877 219.75C327.841 220.257 327.914 220.763 328.058 221.27C328.926 225.358 329.794 229.482 330.662 233.57C331.204 235.994 331.313 236.067 331.494 235.85C332.036 235.126 332.47 234.366 332.868 233.534C333.627 231.653 334.17 229.699 334.061 227.601ZM323.357 181.545C323.032 180.351 322.742 178.651 322.128 177.059C321.585 175.576 320.428 174.418 318.982 173.875C318.801 173.803 318.439 173.694 318.403 173.731C318.222 173.948 318.15 174.201 318.15 174.49C318.548 176.48 318.945 178.506 319.379 180.496C319.958 183.101 320.537 185.67 321.115 188.274C321.188 188.419 321.296 188.6 321.404 188.709C321.549 188.564 321.73 188.455 321.838 188.311C322.851 186.393 323.104 184.259 323.357 181.545Z" fill="#464543"/>
<path d="M387.616 447.099C384.579 439.067 381.577 430.999 378.576 422.967C378.178 421.918 377.961 420.833 377.672 419.747C378.684 419.277 379.697 418.771 380.746 418.373C407.433 408.279 434.12 398.221 460.844 388.127C463.303 387.186 463.303 387.222 464.207 389.61C471.186 408.098 478.129 426.549 485.072 445.036C485.289 445.688 485.434 446.375 485.578 447.062H387.616V447.099Z" fill="#FEFEFE"/>
<path d="M133.219 447.098C136.293 437.656 139.403 428.213 142.477 418.77C144.032 413.995 145.55 409.219 147.141 404.443C147.829 402.345 147.865 402.309 149.89 402.96C156.616 405.131 163.306 407.302 170.032 409.508L232.23 429.732C232.808 429.95 233.387 430.13 234.002 430.275C234.978 430.456 235.087 431.035 234.833 431.831C234.146 433.965 233.459 436.1 232.736 438.271C231.796 441.201 230.856 444.132 229.915 447.062H133.219V447.098Z" fill="#FEFEFE"/>
<path d="M671.521 346.159L661.758 348.619C661.251 348.728 660.781 348.945 660.275 349.054C658.467 349.379 658.503 349.415 657.635 347.787C651.958 336.97 646.317 326.189 640.639 315.407C640.422 315.045 640.241 314.684 640.133 314.286C640.061 313.852 640.205 313.49 640.784 313.634C644.798 314.792 648.848 315.986 652.862 317.144C672.208 322.86 691.555 328.576 710.901 334.293C711.19 334.365 711.48 334.437 711.769 334.546C712.275 334.763 712.782 335.052 713.252 335.306C712.709 335.595 712.167 335.848 711.588 336.029C705.151 337.657 698.679 339.321 692.206 340.841C690.181 341.311 690.289 341.709 690.144 343.301C689.891 346.268 689.674 349.234 689.385 352.201C689.277 353.323 689.096 354.444 688.806 355.53C688.553 356.687 688.119 356.832 687.071 356.145C686.311 355.638 685.552 355.095 684.792 354.553L674.052 346.847C673.474 346.304 672.823 345.761 671.521 346.159ZM665.699 329.119L664.795 328.974L665.301 329.481L670.364 332.411C675.535 335.342 680.706 338.308 685.841 341.239C686.673 341.709 687.432 342.18 688.409 341.709C688.662 341.601 689.06 341.492 689.096 341.311C689.132 341.13 688.951 340.769 688.734 340.588C688.481 340.407 688.228 340.262 687.939 340.154L670.328 331.398L665.699 329.119ZM664.108 328.432C664.036 328.359 663.963 328.215 663.891 328.215C663.819 328.215 663.746 328.323 663.674 328.395L664 328.613L664.108 328.432ZM662.734 327.997L662.951 327.817L662.734 327.636L662.517 327.889L662.734 327.997Z" fill="#242324"/>
<path d="M24.1921 347.86C22.7456 348.041 21.3715 347.643 19.9973 347.245C16.0919 346.123 12.1864 345.002 8.28098 343.88C8.10017 343.808 7.8832 343.699 7.73856 343.591C7.52159 343.41 7.23229 343.193 7.19613 342.939C7.15997 342.686 7.48543 342.433 7.7024 342.36C8.82341 341.926 10.0167 341.528 11.1739 341.13C19.7442 338.236 28.3145 335.342 36.8848 332.411C42.2006 330.602 47.4802 328.757 52.7598 326.912C54.7848 326.189 56.7737 325.429 58.7626 324.741C59.4858 324.488 59.9921 324.958 59.8113 325.646C59.7028 325.935 59.5943 326.225 59.4497 326.478C57.1353 331.471 54.821 336.463 52.579 341.492C50.6624 345.761 48.782 350.067 46.9378 354.372C46.6846 354.951 46.4315 355.168 45.8167 354.987C43.864 354.408 41.9113 353.865 39.9586 353.286C36.1254 352.093 35.7638 352.237 32.9794 354.734C30.5565 356.904 27.9891 358.93 25.4578 360.993C24.843 361.499 24.2644 361.246 24.1921 360.45C23.939 357.013 23.1796 353.576 23.5412 350.103C23.6135 349.56 23.939 349.017 24.1559 348.475C24.8792 348.836 25.4578 349.162 26.3618 348.511C28.64 346.81 31.099 345.327 33.4856 343.735C33.9919 343.41 34.462 343.012 34.9321 342.614C35.0406 342.433 35.0406 342.252 34.9321 342.071C34.8236 341.962 34.5343 341.818 34.4258 341.89C33.0879 342.614 31.7499 343.337 30.4481 344.133C28.3868 345.363 26.2895 346.63 24.1921 347.86ZM36.0169 341.239C36.2339 341.347 36.4509 341.456 36.6679 341.528C36.7402 341.528 36.9571 341.167 36.8848 341.094C36.704 340.949 36.5232 340.805 36.3062 340.696C36.2701 340.841 36.1616 340.986 36.0169 341.239Z" fill="#F1F0F0"/>
<path d="M428.805 58.7543C428.805 56.9092 428.732 55.0641 428.805 53.2189C428.985 48.8775 431.191 45.8746 435.241 44.3551C437.049 43.6677 438.966 43.3059 440.846 42.8356C442.148 42.51 443.486 42.3653 444.752 42.0035C454.118 39.471 457.191 29.1962 454.841 22.7563C454.588 22.2136 454.371 21.6348 454.19 21.0197C454.118 20.658 454.226 20.26 454.479 19.9706C455.022 19.6088 455.419 20.0429 455.673 20.5132C455.781 20.6941 455.89 20.875 455.962 21.0559C459.578 29.4132 455.058 40.5925 445.873 43.2698C443.812 43.8848 441.678 44.1742 439.581 44.7169C437.99 45.0787 436.435 45.5852 434.916 46.2002C432.638 47.2132 431.264 49.0222 430.613 51.4824C430.106 53.5084 430.215 55.5344 430.359 57.5966C430.468 59.3332 430.721 61.0698 430.721 62.8063C430.757 68.4141 428.19 72.3937 423.163 74.7815C419.692 76.4458 415.967 76.9885 412.17 77.3141C408.807 77.6035 405.444 77.8929 402.117 78.4356C395.5 79.4848 392.788 84.188 392.607 90.1214C392.571 90.7364 392.607 91.3515 392.607 91.9665C392.607 92.5815 392.354 93.1242 391.811 93.0157C391.522 92.9795 391.124 92.2921 391.088 91.8941C390.799 88.8189 391.413 85.7076 392.824 82.958C394.053 80.534 396.151 78.6889 398.682 77.7844C401.611 76.699 404.612 76.3011 407.686 76.0116C411.266 75.686 414.846 75.4328 418.354 74.7454C420.307 74.3836 422.259 73.4791 423.995 72.4661C427.141 70.6933 428.949 67.9076 429.058 64.2173C429.13 62.3722 429.058 60.5271 429.058 58.6819L428.805 58.7543Z" fill="#474645"/>
<path d="M644.544 108.464C643.966 108.645 643.423 108.935 642.845 109.188L548.897 149.455C548.427 149.672 547.957 149.853 547.487 150.07C547.233 150.178 547.017 150.396 546.908 150.649C546.872 150.794 547.197 151.119 547.414 151.228C548.065 151.517 548.752 151.698 549.439 151.951C556.165 154.411 562.928 156.799 569.618 159.296C572.944 160.526 572.293 159.549 572.583 163.348C572.764 165.808 572.836 168.268 573.053 170.728C573.27 173.261 573.523 175.829 573.776 178.362H574.897C574.644 173.261 574.391 168.159 574.138 163.058C574.102 162.443 574.102 161.828 574.029 161.213C573.957 160.489 574.282 159.766 574.933 159.404L579.707 156.076C580.141 155.678 580.611 155.316 581.081 154.954C581.262 154.846 581.587 155.026 581.84 155.063C581.768 155.316 581.804 155.678 581.623 155.859C581.262 156.184 580.864 156.474 580.43 156.727L577.175 159.766L578.766 159.911C579.345 159.513 579.96 159.151 580.502 158.717C590.844 150.178 601.223 141.604 611.565 133.03C611.999 132.74 612.361 132.415 612.722 132.017C612.903 131.763 612.939 131.148 612.794 131.004C612.469 130.787 612.071 130.75 611.746 130.931C610.95 131.402 610.191 131.944 609.468 132.487C598.113 140.736 586.722 148.985 575.403 157.306C573.704 158.572 572.293 158.717 570.377 157.993C564.157 155.605 557.901 153.398 551.645 151.119C551.392 151.011 551.211 150.721 550.994 150.54C551.175 150.323 551.356 150.178 551.573 150.034C558.986 146.814 566.435 143.63 573.848 140.446C595.292 131.257 616.772 122.068 638.216 112.878C639.048 112.516 639.916 112.155 640.784 111.829C640.964 111.793 641.145 111.829 641.29 111.937C641.398 112.082 641.434 112.263 641.398 112.444C641.181 112.914 640.928 113.348 640.675 113.783L607.66 169.281C607.551 169.462 607.479 169.643 607.37 169.824C606.466 171.271 606.43 171.307 604.947 170.764C602.054 169.715 599.198 168.594 596.305 167.544C595.365 167.183 594.388 166.965 593.412 166.676C593.412 167.074 593.412 167.508 593.412 167.906C597.607 169.534 601.765 171.162 605.96 172.826C606.9 173.188 607.443 172.826 607.949 171.994C610.335 167.906 612.722 163.89 615.145 159.838C624.728 143.739 634.311 127.639 643.893 111.503C644.364 110.707 644.797 109.911 645.268 109.115C645.34 108.935 645.376 108.754 645.412 108.573C645.087 108.464 644.797 108.428 644.544 108.464ZM590.483 148.442L589.832 148.695C589.976 148.55 590.121 148.442 590.302 148.333C590.338 148.333 590.41 148.406 590.483 148.442ZM588.313 149.889L589.072 149.419L589.217 149.31C589.181 149.346 589.145 149.383 589.109 149.455L588.53 150.142L587.951 150.468L588.313 149.889ZM582.455 154.086L584.01 153L585.059 152.205L585.963 151.553L586.433 151.119L587.264 150.938L586.867 151.553L586.288 151.951L585.456 152.566L584.48 153.471L583.106 154.556L582.202 154.809C582.274 154.556 582.346 154.339 582.455 154.086Z" fill="#2B2B2A"/>
<path d="M578.839 160.996C578.694 160.924 578.766 160.345 578.766 159.983L577.175 159.838C575.873 160.381 575.475 161.358 575.584 162.769C575.801 165.953 575.946 169.1 575.946 172.284C575.946 174.418 575.656 176.553 575.476 178.724C575.439 178.941 575.222 179.122 575.114 179.303C575.042 179.013 574.969 178.724 574.897 178.398L573.776 178.362C573.957 179.99 574.101 181.618 574.391 183.21C574.571 184.223 575.475 184.404 576.235 183.716C576.777 183.246 577.247 182.703 577.754 182.197C582.021 177.819 586.288 173.442 590.519 169.028C591.35 168.16 592.146 167.544 593.412 167.906C593.412 167.508 593.412 167.074 593.412 166.676L581.153 161.901C580.321 161.647 579.562 161.322 578.839 160.996Z" fill="#2B2B2A"/>
<path d="M586.143 384.111C586.288 377.563 583.974 372.063 578.911 367.867C575.006 364.683 570.558 363.996 565.929 366.058C563.615 367.107 561.445 368.518 559.311 369.929C557.323 371.195 555.514 372.715 553.526 373.981C547.378 377.888 542.605 377.816 536.783 373.402C534.324 371.557 532.226 369.278 529.948 367.215C528.285 365.696 526.694 364.068 524.886 362.729C520.98 359.907 516.641 358.677 511.831 359.907C511.289 360.052 510.746 360.088 510.566 359.473C510.276 358.605 511.036 358.46 511.578 358.315C513.35 357.809 515.23 357.664 517.075 357.917C520.329 358.352 523.439 359.582 526.079 361.572C527.381 362.585 528.61 363.67 529.804 364.791C531.286 366.202 532.697 367.686 534.179 369.133C536.06 371.05 538.193 372.642 540.58 373.909C543.834 375.537 547.089 375.645 550.343 373.981C551.79 373.221 553.2 372.353 554.538 371.412C556.491 370.11 558.335 368.626 560.324 367.36C562.06 366.275 563.832 365.298 565.712 364.466C570.196 362.512 574.608 362.983 578.586 365.696C585.131 370.146 587.951 376.586 587.807 384.437C587.807 384.943 587.735 385.45 587.554 385.956C587.409 386.39 587.011 387.041 586.758 387.041C585.926 387.005 585.963 386.282 586.035 385.63C586.035 385.16 586.071 384.654 586.143 384.111Z" fill="#494847"/>
<path d="M114.415 271.197C114.162 276.66 113.005 281.291 110.401 285.487C109.244 287.441 107.653 289.105 105.7 290.263C101.903 292.506 98.0703 292.47 94.4541 289.901C93.0438 288.888 91.8505 287.622 90.5848 286.392C89.1745 285.017 87.9089 283.57 86.4624 282.231C85.703 281.544 84.8351 280.965 83.9311 280.495C81.1828 279.12 78.9408 279.843 77.4943 282.521C76.4818 284.33 76.084 286.428 76.4095 288.454C76.518 289.069 76.5541 289.648 76.5903 290.263C76.5903 290.371 76.301 290.552 76.1202 290.589C75.9394 290.625 75.6501 290.661 75.5416 290.552C75.3246 290.335 75.18 290.082 75.0715 289.793C74.059 286.03 74.963 282.665 77.5305 279.807C78.8323 278.252 80.9659 277.709 82.8824 278.432C84.3289 278.939 85.703 279.662 86.8964 280.603C88.3428 281.725 89.5723 283.136 90.8741 284.438C92.176 285.741 93.4055 287.115 94.8519 288.273C98.4319 291.095 102.627 290.95 106.098 288.02C107.979 286.392 109.425 284.366 110.365 282.086C111.956 278.396 112.788 274.453 112.824 270.437C112.824 269.894 112.571 269.134 113.439 268.954C114.018 268.809 114.307 269.352 114.307 270.545C114.415 270.943 114.415 271.341 114.415 271.197Z" fill="#474645"/>
<path d="M75.0717 95.8374C75.2163 96.0545 75.3971 96.2716 75.4333 96.4886C75.4333 96.7781 75.3971 97.1037 75.2886 97.3931C73.6252 103.182 71.9618 109.007 70.2983 114.795C70.0452 115.663 69.6113 115.772 69.0688 115.157C64.9826 110.454 60.8602 105.714 56.7739 101.011C56.2315 100.396 56.3761 99.9618 57.2801 99.7809C61.2579 98.8764 65.2719 97.972 69.2496 97.1037L74.0591 96.0545C74.3484 95.9459 74.6377 95.9098 75.0717 95.8374ZM72.685 98.0805C68.4903 98.9488 64.3317 99.8533 60.1369 100.758C59.269 100.939 59.0882 101.337 59.6307 101.952C62.4874 105.28 65.3804 108.572 68.2733 111.865C68.9965 112.697 69.3943 112.588 69.6836 111.539C70.9131 107.234 72.0703 102.928 73.2636 98.587C73.2274 98.3337 73.1913 98.0805 73.1551 97.8272L72.685 98.0805Z" fill="#464543"/>
<path d="M96.9131 393.518C96.9131 398.112 93.0077 402.128 88.6321 402.092C84.2204 402.02 80.2788 398.185 80.2788 393.952C80.2788 389.321 84.1119 385.377 88.5598 385.45C93.08 385.522 96.9131 389.212 96.9131 393.518ZM88.5237 386.969C85.0883 386.861 82.0146 389.972 81.8699 393.626C81.7253 397.208 84.9437 400.464 88.6683 400.5C92.1037 400.536 95.1774 397.461 95.3944 393.807C95.5752 390.334 92.3206 387.078 88.5237 386.969Z" fill="#464543"/>
<path d="M701.825 146.235C706.381 146.271 710.214 149.926 710.214 154.231C710.25 158.789 706.345 162.914 701.969 162.769C696.654 162.624 693.471 158.174 693.58 154.376C693.761 150.504 697.124 145.982 701.825 146.235ZM701.861 161.177C705.766 161.467 708.623 157.415 708.659 154.339C708.695 151.192 705.911 147.936 701.933 147.719C698.245 147.538 695.279 150.794 695.135 154.593C695.062 158.066 698.245 161.141 701.861 161.177Z" fill="#474645"/>
<path d="M24.1919 347.86C26.2893 346.593 28.3505 345.363 30.4479 344.133C31.7497 343.373 33.0877 342.614 34.4257 341.89C34.5341 341.818 34.8596 341.962 34.9319 342.071C35.0404 342.252 35.0404 342.433 34.9319 342.614C34.4618 343.012 33.9917 343.41 33.4855 343.735C31.0988 345.327 28.676 346.81 26.3616 348.511C25.4576 349.162 24.879 348.873 24.1558 348.475L24.1919 347.86Z" fill="#FDFDFD"/>
<path d="M645.955 189.107C645.955 189.831 645.34 190.446 644.617 190.446C644.617 190.446 644.617 190.446 644.581 190.446C643.93 190.446 643.387 190.156 643.279 189.433C643.17 188.565 643.857 187.696 644.581 187.696C645.34 187.769 645.919 188.348 645.955 189.107Z" fill="#494847"/>
<path d="M316.595 142.039C316.812 142.328 317.354 142.69 317.463 143.16C317.607 143.956 317.065 144.716 316.269 144.861C316.233 144.861 316.197 144.861 316.161 144.861C315.438 144.824 314.859 144.246 314.787 143.522C314.678 142.798 315.438 142.075 316.595 142.039Z" fill="#535251"/>
<path d="M546.944 295.762C546.944 295.039 547.595 294.315 548.21 294.315C549.042 294.387 549.657 295.111 549.584 295.979C549.584 296.594 549.078 297.065 548.463 297.028C548.427 297.028 548.391 297.028 548.355 297.028C547.631 297.028 546.98 296.486 546.944 295.762Z" fill="#464543"/>
<path d="M595.618 42.0398C595.329 42.2568 594.931 42.7633 594.461 42.9081C593.81 43.0528 593.159 42.6186 593.014 41.9674C592.978 41.8227 592.978 41.678 593.014 41.5333C593.123 40.9182 593.412 40.4117 594.135 40.3394C594.895 40.2308 595.618 40.9544 595.618 42.0398Z" fill="#494847"/>
<path d="M584.335 90.6279C584.118 90.3023 583.612 89.8682 583.612 89.3979C583.576 88.6019 584.625 87.806 585.276 88.0954C585.782 88.3487 586.18 88.819 586.324 89.3617C586.469 90.0129 585.384 90.7365 584.335 90.6279Z" fill="#535251"/>
<path d="M104.905 168.955C104.869 168.231 105.411 167.616 106.135 167.544C106.858 167.472 107.509 167.942 107.726 168.629C107.906 169.353 107.147 170.185 106.315 170.257C105.592 170.221 105.014 169.679 104.905 168.955Z" fill="#535251"/>
<path d="M486.012 278.577C485.867 279.59 485.072 280.132 484.349 279.915C483.734 279.734 483.228 279.373 483.228 278.649C483.228 277.817 484.24 276.913 484.855 277.274C485.361 277.636 485.723 278.251 486.012 278.577Z" fill="#535251"/>
<path d="M470.39 270.944C469.595 270.835 469.052 270.111 469.161 269.315C469.161 269.279 469.161 269.279 469.161 269.243C469.305 268.628 469.848 268.194 470.463 268.23C471.258 268.23 471.873 268.881 471.873 269.641C471.873 269.677 471.873 269.713 471.873 269.786C471.801 270.509 471.113 271.052 470.39 270.944Z" fill="#494847"/>
<path d="M457.047 261.067C456.36 261.031 455.853 260.416 455.89 259.584C455.89 258.932 456.396 258.354 457.083 258.354C457.155 258.354 457.228 258.354 457.264 258.354C457.951 258.354 458.493 258.932 458.457 259.62C458.457 259.656 458.457 259.728 458.457 259.764C458.385 260.524 457.77 261.067 457.047 261.067Z" fill="#444342"/>
<path d="M635.649 253.94C635.359 254.193 635.034 254.736 634.564 254.88C633.877 255.097 633.117 254.699 632.937 253.976C632.9 253.867 632.9 253.723 632.9 253.614C632.9 252.854 633.515 252.275 634.275 252.275C634.925 252.312 635.576 252.963 635.649 253.94Z" fill="#494847"/>
<path d="M359.41 170.692C359.121 170.909 358.723 171.379 358.253 171.488C357.566 171.632 356.915 171.162 356.806 170.511C356.77 170.366 356.77 170.221 356.806 170.077C356.915 169.353 357.566 168.847 358.289 168.919C358.976 168.991 359.446 169.643 359.41 170.692Z" fill="#494847"/>
<path d="M592.653 103.001C592.689 102.278 593.304 101.808 594.135 101.844C594.823 101.844 595.365 102.386 595.365 103.074C595.365 103.146 595.365 103.182 595.365 103.255C595.401 103.87 594.967 104.376 594.352 104.412C594.316 104.412 594.28 104.412 594.244 104.412C593.485 104.521 592.797 103.942 592.689 103.182C592.653 103.146 592.653 103.074 592.653 103.001Z" fill="#444342"/>
<path d="M645.955 206.979C645.702 206.726 645.123 206.437 644.978 205.966C644.798 205.279 645.159 204.592 645.846 204.411C645.882 204.411 645.955 204.375 645.991 204.375C646.714 204.302 647.401 204.809 647.51 205.568C647.618 206.292 647.112 206.871 645.955 206.979Z" fill="#3F3E3D"/>
<path d="M99.5528 217.218C99.5889 218.412 99.155 219.027 98.4679 219.027C97.6001 219.027 96.8407 218.339 96.913 217.58C96.9853 216.892 97.6001 216.35 98.2871 216.422C98.3233 216.422 98.3595 216.422 98.3956 216.422C98.9019 216.531 99.2997 217.001 99.5528 217.218Z" fill="#474645"/>
<path d="M635.649 158.427C634.926 158.427 634.311 157.848 634.239 157.125C634.239 156.401 634.817 155.822 635.577 155.822C636.228 155.822 636.77 156.293 636.879 156.908C636.879 157.667 636.372 158.319 635.649 158.427Z" fill="#494847"/>
<path d="M408.807 215.807C407.939 216.314 407.433 216.893 406.854 216.893C406.131 216.893 405.661 216.241 405.588 215.482C405.552 214.867 406.456 214.107 407.035 214.36C407.613 214.613 408.047 215.156 408.807 215.807Z" fill="#535251"/>
<path d="M646.57 222.898C646.244 223.115 645.81 223.585 645.34 223.657C644.617 223.694 643.966 223.115 643.93 222.391C643.966 221.631 644.906 220.799 645.557 220.98C646.353 221.233 646.533 221.885 646.57 222.898Z" fill="#494847"/>
<path d="M101.542 232.63C102.265 232.63 102.88 233.173 102.988 233.86C102.988 234.584 102.446 235.199 101.723 235.271C101 235.271 100.385 234.728 100.24 234.005C100.168 233.39 100.855 232.666 101.542 232.63Z" fill="#494847"/>
<path d="M125.77 140.699C125.734 141.532 125.047 142.219 124.179 142.183C123.456 142.147 122.95 141.532 122.986 140.844C122.986 140.808 122.986 140.772 122.986 140.736C123.13 139.976 123.89 139.288 124.468 139.578C125.047 139.867 125.445 140.41 125.77 140.699Z" fill="#535251"/>
<path d="M118.61 263.165C118.574 263.889 117.923 264.576 117.308 264.54C116.621 264.395 116.079 263.817 115.934 263.129C115.898 262.55 116.658 261.827 117.345 261.791C118.068 261.791 118.61 262.406 118.61 263.165Z" fill="#535251"/>
<path d="M500.911 286.139C500.911 286.754 500.043 287.333 499.356 287.26C498.669 287.188 497.909 286.356 498.163 285.813C498.416 285.27 498.85 284.872 499.392 284.655C500.043 284.438 500.947 285.415 500.911 286.139Z" fill="#535251"/>
<path d="M582.672 291.53C582.708 292.253 582.166 292.904 581.443 292.977C580.828 293.013 580.141 292.362 580.032 291.638C579.96 290.914 580.502 290.263 581.262 290.191C581.949 290.263 582.527 290.806 582.672 291.53Z" fill="#535251"/>
<path d="M531.72 296.015C530.925 295.871 530.31 295.147 530.382 294.351C530.491 293.628 531.033 293.374 531.684 293.338C532.371 293.302 532.986 293.845 533.022 294.568C533.022 294.604 533.022 294.604 533.022 294.641C532.95 295.328 532.299 296.052 531.72 296.015Z" fill="#474645"/>
<path d="M372.465 181.075C371.705 181.726 371.271 182.269 370.693 182.558C370.186 182.812 369.355 181.943 369.282 181.292C369.21 180.641 369.933 179.7 370.548 179.881C371.163 180.062 371.633 180.532 372.465 181.075Z" fill="#535251"/>
<path d="M604.622 27.966C604.369 28.2192 604.08 28.7981 603.646 28.979C602.959 29.2684 601.982 28.4363 601.982 27.7127C602.055 26.9891 602.597 26.4103 603.32 26.3017C603.935 26.2655 604.586 26.9168 604.622 27.966Z" fill="#535251"/>
<path d="M98.2509 199.744C98.5041 199.961 99.0826 200.25 99.2635 200.72C99.5527 201.516 98.7572 202.421 97.9616 202.349C97.3107 202.312 96.8044 201.806 96.7321 201.191C96.5875 200.431 97.0937 199.816 98.2509 199.744Z" fill="#3F3E3D"/>
<path d="M516.641 291.312C516.569 292.036 515.918 292.615 515.158 292.578C514.507 292.542 514.001 292.036 513.965 291.385C513.929 290.625 514.507 290.01 515.231 289.974C515.99 289.974 516.569 290.589 516.641 291.312Z" fill="#444342"/>
<path d="M598.33 286.066C598.258 286.754 597.462 287.405 596.811 287.224C596.197 287.115 595.727 286.537 595.763 285.922C595.799 285.198 596.414 284.619 597.137 284.619C597.86 284.691 598.403 285.343 598.33 286.066Z" fill="#535251"/>
<path d="M443.739 250.611C443.522 250.321 443.016 249.96 442.871 249.489C442.691 248.838 443.088 248.187 443.739 248.006C443.812 247.97 443.92 247.97 443.992 247.97C444.716 247.934 445.366 248.513 445.403 249.236C445.403 249.996 444.788 250.611 443.739 250.611Z" fill="#3F3E3D"/>
<path d="M625.451 266.602C625.488 267.326 624.981 267.977 624.294 268.122C623.571 268.085 622.956 267.579 622.848 266.855C622.775 266.132 623.318 265.48 624.041 265.372C624.728 265.336 625.379 265.842 625.451 266.602C625.451 266.566 625.451 266.602 625.451 266.602Z" fill="#535251"/>
<path d="M566.291 295.111C566.038 295.364 565.676 295.871 565.206 296.015C564.592 296.196 563.904 295.835 563.724 295.22C563.687 295.111 563.688 295.039 563.688 294.93C563.688 294.207 564.194 293.555 564.953 293.447C565.568 293.411 566.219 294.026 566.291 295.111Z" fill="#444342"/>
<path d="M394.885 202.891C395.753 202.891 396.295 203.361 396.295 204.049C396.331 204.772 395.753 205.388 395.03 205.388C394.234 205.46 393.728 204.99 393.656 204.157C393.547 203.542 393.945 202.964 394.56 202.855C394.668 202.891 394.777 202.891 394.885 202.891Z" fill="#494847"/>
<path d="M130.796 274.525C130.796 275.321 130.29 275.791 129.422 275.791C128.771 275.827 128.193 275.357 128.157 274.706C128.157 274.633 128.157 274.525 128.157 274.453C128.12 273.765 128.627 273.222 129.314 273.186C129.386 273.186 129.458 273.186 129.531 273.186C130.218 273.15 130.796 273.693 130.796 274.344C130.833 274.38 130.833 274.453 130.796 274.525Z" fill="#494847"/>
<path d="M418.788 228.433C418.571 228.18 418.028 227.854 417.884 227.384C417.63 226.697 418.281 225.937 418.932 225.828C419.655 225.792 420.27 226.335 420.379 227.058C420.451 227.782 419.872 228.397 418.788 228.433Z" fill="#3F3E3D"/>
<path d="M584.697 73.0086C584.589 73.7322 583.938 74.2749 583.179 74.2025C582.419 74.1664 581.985 73.5513 582.094 72.683C582.202 71.9233 582.708 71.6338 583.359 71.5977C584.083 71.5977 584.697 72.1765 584.697 72.9001C584.697 72.9363 584.697 72.9725 584.697 73.0086Z" fill="#3F3E3D"/>
<path d="M588.494 56.6922C588.494 57.4158 587.771 58.1032 587.084 57.9946C586.397 57.8861 585.963 57.5605 585.891 56.8007C585.818 56.0771 586.325 55.4259 587.048 55.3174H587.084C587.843 55.3536 588.458 55.9324 588.494 56.6922Z" fill="#535251"/>
<path d="M642.664 238.382C642.7 239.178 641.905 240.047 641.182 239.938C640.458 239.83 640.205 239.323 640.133 238.672C640.061 237.876 640.567 237.189 641.218 237.152C641.941 237.152 642.556 237.695 642.664 238.382Z" fill="#494847"/>
<path d="M102.12 184.585C102.12 185.272 101.542 185.815 100.855 185.815C100.818 185.815 100.782 185.815 100.746 185.815C100.023 185.779 99.4443 185.2 99.4443 184.476C99.4443 183.753 100.023 183.246 100.855 183.318C101.686 183.391 102.156 183.897 102.12 184.585Z" fill="#464543"/>
<path d="M433.072 238.636C432.348 239.07 431.914 239.54 431.444 239.613C430.685 239.721 430.179 239.07 430.143 238.31C430.143 237.623 430.793 237.153 431.661 237.406C432.131 237.514 432.457 238.057 433.072 238.636Z" fill="#3F3E3D"/>
<path d="M642.194 172.32C642.266 173.441 641.796 173.984 641.037 174.093C640.205 174.201 639.518 173.658 639.627 172.971C639.735 172.211 640.133 171.56 640.964 171.632C641.471 171.669 641.905 172.139 642.194 172.32Z" fill="#3F3E3D"/>
<path d="M114.162 155.497C113.873 155.207 113.15 154.809 113.005 154.267C112.788 153.507 113.475 153.037 114.198 152.783C114.705 152.602 115.356 153.145 115.428 153.76C115.573 154.556 115.066 155.316 114.271 155.461C114.235 155.497 114.198 155.497 114.162 155.497Z" fill="#494847"/>
<path d="M107.436 248.006C108.557 248.006 109.172 248.477 109.208 249.2C109.244 249.924 108.666 250.503 107.87 250.539C107.255 250.611 106.713 250.177 106.641 249.562C106.641 249.417 106.641 249.309 106.677 249.164C106.785 248.694 107.219 248.296 107.436 248.006Z" fill="#3F3E3D"/>
<path d="M628.706 5.17358C629.465 5.1374 630.08 5.68009 630.188 6.40367C630.261 7.05488 629.791 7.59757 629.176 7.7061C628.453 7.81464 627.729 7.38049 627.512 6.65692C627.44 5.93334 627.982 5.28212 628.706 5.17358Z" fill="#535251"/>
<path d="M611.421 276.298C612.144 276.298 612.722 276.877 612.722 277.6C612.722 277.636 612.722 277.673 612.722 277.673C612.686 278.324 612.397 278.83 611.638 278.903C610.914 278.975 610.227 278.432 610.155 277.709C610.083 276.985 610.625 276.37 611.348 276.298C611.348 276.298 611.384 276.298 611.421 276.298Z" fill="#3F3E3D"/>
<path d="M331.494 149.418C331.711 149.708 332.181 150.106 332.289 150.576C332.47 151.155 332.145 151.77 331.566 151.915C331.421 151.951 331.277 151.987 331.132 151.951C330.3 151.915 329.722 151.336 329.758 150.612C329.794 149.889 330.337 149.418 331.494 149.418Z" fill="#3F3E3D"/>
<path d="M616.266 15.376C616.302 16.4976 615.796 17.0764 615.037 17.0041C614.313 17.0041 613.735 16.389 613.735 15.6293C613.771 14.9419 614.35 14.4354 615.037 14.4715C615.073 14.4715 615.145 14.4715 615.181 14.5077C615.651 14.6524 616.013 15.1589 616.266 15.376Z" fill="#444342"/>
<path d="M345.127 161.177C344.44 161.249 343.789 160.742 343.716 160.055C343.716 160.019 343.716 159.983 343.716 159.946C343.716 159.259 343.969 158.753 344.693 158.644C345.416 158.535 346.103 159.006 346.284 159.693C346.392 160.417 345.85 161.104 345.127 161.177Z" fill="#3F3E3D"/>
<path d="M384.253 192.653C383.675 193.123 383.313 193.666 382.879 193.774C382.192 193.955 381.758 193.304 381.831 192.363C381.903 191.676 382.481 191.097 382.988 191.35C383.422 191.567 383.747 192.074 384.253 192.653Z" fill="#474645"/>
<path d="M301.226 231.291C302.311 231.617 303.36 231.979 304.445 232.268C329.686 238.925 351.166 251.877 369.283 270.618C375.105 276.587 380.312 283.1 384.832 290.082C385.013 290.335 385.085 290.697 385.338 290.842C385.7 290.987 386.062 291.095 386.423 291.167C386.495 290.842 386.749 290.408 386.64 290.154C386.17 289.25 385.628 288.382 385.049 287.513C372.212 268.845 355.794 254.084 335.978 243.086C335.074 242.579 334.133 242.145 333.266 241.639C332.904 241.385 332.578 241.06 332.253 240.734C332.578 240.481 332.904 240.3 333.266 240.119C342.378 237.587 351.455 237.297 360.495 240.589C364.473 242.037 368.053 244.243 371.38 246.812C380.276 253.65 387.436 262.08 393.692 271.269C396.91 275.9 399.622 280.893 401.756 286.102C401.864 286.392 401.9 286.754 402.117 286.935C402.407 287.152 402.732 287.332 403.094 287.441C403.238 287.115 403.6 286.717 403.528 286.464C403.13 285.306 402.696 284.149 402.153 283.027C399.369 276.949 395.825 271.305 391.847 265.915C386.893 259.222 381.361 252.999 374.96 247.644C370.874 244.207 366.498 241.168 361.435 239.215C361.11 239.07 360.857 238.672 360.568 238.419C360.821 238.274 361.074 238.093 361.363 237.948C364.69 236.32 368.234 235.959 371.85 236.501C377.13 237.261 382.192 239.178 386.676 242.109C390.943 244.931 394.885 248.259 398.465 251.95C406.71 260.379 413.725 269.677 419.222 280.097C420.27 282.087 421.102 284.185 422.042 286.247C422.187 286.609 422.404 286.971 422.657 287.26C422.802 287.405 423.236 287.369 423.489 287.296C423.67 287.188 423.778 287.007 423.778 286.826C423.597 286.139 423.38 285.451 423.127 284.8C421.283 280.459 419.077 276.262 416.51 272.282C410.724 263.129 403.998 254.735 395.97 247.427C395.717 247.246 395.5 247.029 395.283 246.812C395.03 246.523 394.813 246.197 394.632 245.872C394.957 245.727 395.283 245.618 395.644 245.546C398.971 245.365 402.153 246.016 405.263 247.174C409.53 248.766 413.327 251.19 416.799 254.12C424.284 260.452 429.926 268.194 434.482 276.804C437.917 283.353 440.34 290.372 441.678 297.643C443.522 307.303 445.547 316.963 447.03 326.695C449.236 340.479 450.502 354.408 450.827 368.373C450.863 369.495 451.08 370.616 451.478 371.665C453.069 376.333 454.732 380.963 456.36 385.594C457.119 387.765 457.119 387.801 455.058 388.597C451.514 389.972 447.97 391.311 444.426 392.649C424.899 400.03 405.336 407.41 385.772 414.754C382.373 416.021 383.277 416.491 380.963 413.235C377.744 408.749 374.49 404.226 371.38 399.668C370.367 398.185 369.174 397.497 367.438 397.172C355.324 394.928 343.535 391.455 332.362 386.173C325.057 382.736 318.403 378.359 312.834 372.425C298.731 357.447 287.015 340.841 278.336 322.137C276.094 317.397 274.394 312.441 273.31 307.303C272.55 303.541 272.261 299.778 273.02 295.979C273.237 294.894 273.635 293.809 274.177 292.832C275.009 291.348 276.275 290.842 277.83 291.348C279.276 291.855 280.65 292.542 281.952 293.374C284.99 295.328 287.521 297.897 289.944 300.538C294.066 305.096 297.899 309.944 301.407 315.009C309.507 326.514 320.175 335.016 332.832 340.986C336.737 342.831 340.896 344.025 345.199 344.459C347.332 344.676 349.502 344.495 351.6 343.952C355.252 343.012 358 340.805 359.917 337.549C363.171 332.013 364.111 326.044 363.28 319.749C362.34 312.622 359.627 306.109 355.975 299.995C349.357 288.961 340.896 279.446 330.553 271.848C322.055 265.553 313.16 259.656 304.372 253.614C302.203 252.094 299.961 250.683 297.719 249.2L294.826 246.957C291.029 243.99 287.159 241.096 283.435 238.057C281.88 236.718 280.433 235.271 279.095 233.715C278.191 232.666 276.853 231.472 277.577 229.953C278.228 228.614 279.891 228.65 281.157 228.687C284.013 228.723 286.87 228.904 289.727 229.265C293.596 229.808 297.393 230.604 301.226 231.291Z" fill="#FEFEFE"/>
<path d="M173.612 237.768C173.25 245.401 172.238 252.927 171.117 260.452C169.272 272.716 166.922 284.909 164.174 296.993C163.704 299.019 163.776 299.019 165.548 300.212C179.325 309.402 187.643 322.173 190.572 338.453C191.006 340.877 191.186 343.338 191.476 345.798C191.512 346.304 191.584 346.811 191.693 347.317C191.801 347.571 192.054 347.751 192.344 347.824C192.633 347.788 192.85 347.607 192.958 347.353C193.031 346.63 193.031 345.906 193.031 345.219C193.031 343.663 193.031 343.627 194.658 343.265C198.057 342.505 201.456 341.818 204.892 341.095L252.987 330.892C260.906 329.192 268.825 327.527 276.745 325.827C277.793 325.61 278.263 325.501 278.914 326.84C280.18 329.409 281.518 331.941 282.964 334.438C283.579 335.523 283.507 336.427 283.145 337.621C278.842 351.406 272.441 364.213 264.739 376.369C257.905 387.114 250.419 397.425 242.319 407.229C238.847 411.426 236.099 416.13 234.146 421.231C233.459 423.04 232.628 424.812 231.977 426.658C231.651 427.526 231.181 427.743 230.349 427.417C229.879 427.236 229.373 427.128 228.903 426.947L155.278 403.069C152.168 402.056 152.168 402.056 152.53 398.583C152.819 395.833 153.181 393.084 152.674 390.298C152.023 386.969 150.866 383.786 149.203 380.819C147.612 377.961 145.912 375.139 144.212 372.353C140.524 366.275 137.414 359.98 135.642 353.034C134.34 347.968 133.581 342.759 133.364 337.549C132.858 325.248 134.557 313.164 137.269 301.225C140.56 286.754 144.249 272.355 148.769 258.173C151.119 250.864 153.651 243.592 156.905 236.646C158.46 233.282 160.124 229.989 162.438 227.095C163.45 225.793 164.608 224.671 165.946 223.694C167.898 222.283 169.598 222.573 171.044 224.454C171.876 225.503 172.455 226.697 172.708 227.999C173.069 231.256 173.286 234.512 173.612 237.768Z" fill="#FEFEFE"/>
<path d="M122.516 91.2793C122.588 85.0928 126.168 80.1363 131.628 78.5444C135.064 77.5314 138.608 76.9163 142.115 76.1566C158.352 72.7196 174.588 69.2826 190.825 65.8456C207.749 62.2639 224.708 58.6822 241.668 55.1005C252.697 52.785 263.727 50.4334 274.756 48.0818C275.769 47.8647 276.745 47.6476 277.794 47.5391C284.158 46.8517 289.908 50.6143 291.644 56.8009C292.62 60.2379 293.271 63.7834 293.994 67.2928C297.972 86.4676 302.058 105.642 306.108 124.781C309.652 141.64 313.232 158.5 316.776 175.359C320.609 193.412 324.406 211.466 328.239 229.519C328.89 232.522 329.505 235.525 330.156 238.564C330.3 239.287 329.794 239.757 329.107 239.54C328.709 239.432 328.348 239.251 327.95 239.07C324.948 237.804 321.947 236.429 318.873 235.271C317.68 234.801 317.065 234.222 316.776 232.956C313.702 218.303 310.628 203.651 307.518 189.035L297.972 143.92C294.609 127.965 291.21 112.046 287.847 96.0911C285.93 87.0826 284.086 78.0379 282.169 68.9932C281.048 63.6387 277.215 60.9253 271.827 61.8297C267.271 62.5895 262.787 63.6387 258.266 64.5793C253.565 65.5562 248.864 66.6415 244.127 67.546C242.319 67.8716 241.198 68.6314 240.656 70.4403C240.186 71.996 239.462 73.4793 238.884 75.035C237.546 78.7615 234.87 80.8598 231.073 81.6919C225.359 82.8858 219.646 84.1159 213.932 85.346C205.507 87.1188 197.081 88.8915 188.655 90.6643C187.643 90.8814 186.63 91.0261 185.618 91.0623C183.014 91.2432 180.483 90.3025 178.638 88.4212C177.192 86.9741 175.637 85.5993 174.263 84.1159C173.323 83.1029 172.346 82.7773 171.008 83.0667C165.006 84.4054 159.003 85.6354 152.964 86.9379C149.673 87.6615 146.346 88.385 143.055 89.0724C141.537 89.3619 140.126 90.0493 138.933 91.0261C136.402 93.1968 135.245 95.8379 135.968 99.2387C138.065 108.971 140.126 118.703 142.151 128.399C145.334 143.449 148.48 158.5 151.662 173.55C155.025 189.505 158.424 205.46 161.787 221.379C161.968 222.066 162.113 222.79 162.149 223.477C162.149 224.056 162.113 224.779 161.751 225.177C158.605 229.048 156.471 233.462 154.374 237.948C154.157 238.274 153.904 238.6 153.615 238.853C153.434 238.491 153.253 238.129 153.145 237.731C152.24 233.535 151.336 229.302 150.432 225.105C146.708 206.762 142.838 188.492 138.969 170.258C134.955 151.3 130.977 132.342 127 113.385C125.698 107.162 124.324 100.975 123.022 94.7525C122.733 93.4139 122.624 92.0753 122.516 91.2793Z" fill="white"/>
<path d="M342.74 299.272C342.704 305.603 339.051 310.559 333.41 312.151C330.445 312.983 327.407 313.49 324.406 314.141C319.09 315.299 313.811 316.457 308.495 317.578C305.602 318.193 305.602 318.157 303.794 315.624C302.492 313.779 301.19 311.934 299.852 310.125C295.802 304.698 291.535 299.416 286.436 294.894C285.279 293.881 284.086 292.94 282.82 292.036C281.988 291.457 281.084 290.95 280.144 290.516C276.564 288.924 274.503 289.576 272.406 292.904C272.008 293.555 271.682 293.845 271.031 293.194C270.453 292.615 269.838 292.072 269.151 291.602C263.727 287.875 258.086 287.513 252.372 290.733C247.129 293.7 244.199 299.561 244.923 305.53C245.863 312.151 249.551 316.71 255.988 318.519C261.376 320.038 266.367 318.88 270.525 314.973C271.14 314.43 271.646 313.779 272.225 313.2C272.803 312.622 273.093 312.658 273.454 313.526C274.611 316.601 275.769 319.64 276.926 322.715C277.396 323.946 277.36 324.054 276.022 324.344C269.115 325.791 262.172 327.238 255.265 328.721C239.318 332.086 223.407 335.487 207.459 338.887C203.373 339.756 199.251 340.624 195.128 341.528C194.73 341.601 194.296 341.637 193.899 341.709C192.995 341.926 192.597 341.528 192.452 340.66C192.054 338.453 191.729 336.21 191.187 334.003C187.679 319.894 180.049 308.606 168.224 300.104C167.971 299.923 167.718 299.742 167.465 299.597C165.946 298.801 165.656 297.463 165.982 295.943C166.344 294.134 166.814 292.325 167.139 290.516C168.405 283.968 169.67 277.419 170.936 270.907C171.008 270.509 171.117 270.111 171.225 269.713C171.334 269.315 171.515 268.954 171.695 268.592C171.84 268.917 171.949 269.243 172.057 269.605C173.504 276.334 174.95 283.027 176.36 289.757C176.505 290.372 176.65 290.95 176.794 291.565C177.988 296.341 181.821 299.018 186.63 298.259C189.451 297.824 192.271 297.173 195.056 296.594C220.188 291.276 245.357 285.958 270.489 280.603C285.026 277.528 299.563 274.453 314.1 271.378C316.631 270.835 319.054 270.039 320.862 268.049C321.368 267.47 321.875 267.506 322.453 267.904C327.95 271.703 333.338 275.611 338.111 280.314C338.834 281.037 339.341 281.978 339.522 282.991C340.462 287.622 341.51 292.217 342.451 296.848C342.631 297.607 342.704 298.439 342.74 299.272Z" fill="#FDFDFD"/>
<path d="M270.923 300.357C271.285 303.107 271.574 305.856 272.116 308.57C272.369 309.546 272.189 310.596 271.61 311.464C268.536 316.276 262.353 318.736 256.856 317.289C250.817 315.733 246.731 310.776 246.441 304.735C246.008 297.209 251.757 290.733 259.279 290.263C263.257 290.046 267.126 291.529 269.874 294.387C270.887 295.4 271.502 296.413 271.248 297.933C271.176 298.765 271.176 299.561 271.212 300.393L270.923 300.357Z" fill="#FDFDFD"/>
<path d="M331.566 199.997C331.277 205.062 329.541 208.824 326.901 212.225C326.757 212.37 326.576 212.442 326.359 212.442C326.25 212.442 326.142 212.153 326.106 212.008C325.057 207.088 324.008 202.203 322.996 197.283C322.743 196.089 322.489 194.859 322.272 193.665C322.092 192.544 322.417 192.218 323.538 192.073C326.612 191.639 329.071 192.869 330.3 195.691C330.987 197.247 331.277 198.984 331.566 199.997Z" fill="#F8F8F8"/>
<path d="M334.061 227.601C334.206 229.7 333.627 231.653 332.832 233.535C332.47 234.367 332 235.127 331.457 235.85C331.277 236.067 331.168 235.995 330.626 233.571C329.722 229.483 328.854 225.358 328.022 221.27C327.877 220.764 327.841 220.257 327.841 219.751C327.877 219.497 328.348 219.063 328.565 219.099C330.445 219.316 331.783 220.366 332.651 221.994C333.627 223.694 334.133 225.648 334.061 227.601Z" fill="#F1F0F0"/>
<path d="M323.357 181.546C323.104 184.259 322.851 186.358 321.802 188.311C321.694 188.492 321.513 188.601 321.368 188.709C321.26 188.565 321.151 188.42 321.079 188.275C320.5 185.67 319.922 183.102 319.343 180.497C318.909 178.507 318.512 176.481 318.114 174.491C318.114 174.202 318.222 173.948 318.367 173.731C318.403 173.695 318.729 173.804 318.945 173.876C320.428 174.419 321.585 175.576 322.092 177.06C322.742 178.652 323.032 180.388 323.357 181.546Z" fill="#F1F0F0"/>
<path d="M315.149 233.028L315.402 233.535L314.642 233.607L315.149 233.028Z" fill="#FEFEFE"/>
<path d="M670.364 331.398L687.975 340.154C688.264 340.262 688.553 340.407 688.77 340.588C688.951 340.769 689.168 341.094 689.132 341.312C689.096 341.529 688.698 341.601 688.445 341.709C687.469 342.18 686.709 341.709 685.878 341.239C680.743 338.272 675.572 335.342 670.4 332.411L670.364 331.398Z" fill="#EAE9EA"/>
<path d="M670.364 331.398L670.4 332.411L665.338 329.481C665.446 329.372 665.591 329.228 665.7 329.119L670.364 331.398Z" fill="#A5A3A4"/>
<path d="M664.108 328.432L664 328.613L663.674 328.396C663.747 328.323 663.819 328.215 663.891 328.215C663.964 328.215 664.036 328.36 664.108 328.432Z" fill="#A5A3A4"/>
<path d="M665.301 329.481L664.795 328.975L665.699 329.119C665.555 329.228 665.446 329.373 665.301 329.481Z" fill="#A5A3A4"/>
<path d="M662.734 327.998L662.517 327.889L662.734 327.636L662.951 327.817L662.734 327.998Z" fill="#A5A3A4"/>
<path d="M36.0171 341.239L36.3427 340.696C36.5598 340.805 36.7407 340.95 36.9216 341.094C36.9577 341.13 36.7407 341.528 36.7045 341.528C36.4512 341.456 36.2342 341.348 36.0171 341.239Z" fill="#FDFDFD"/>
<path d="M73.2632 98.5876C72.0699 102.893 70.8766 107.234 69.6832 111.54C69.3939 112.589 68.9962 112.697 68.2729 111.865C65.38 108.573 62.4871 105.281 59.6303 101.952C59.0879 101.337 59.2687 100.939 60.1366 100.758C64.3313 99.8538 68.4899 98.9855 72.6846 98.0811L73.2632 98.5876Z" fill="#F8F8F8"/>
<path d="M72.6851 98.0809L73.1554 97.8276C73.1916 98.0809 73.2277 98.3341 73.2639 98.5874L72.6851 98.0809Z" fill="#F8F8F8"/>
<path d="M88.5237 386.969C92.2845 387.078 95.5752 390.334 95.3583 393.807C95.1775 397.461 92.0676 400.536 88.6322 400.5C84.9075 400.464 81.6891 397.244 81.8338 393.626C82.0146 389.972 85.0883 386.861 88.5237 386.969Z" fill="#FBFAFB"/>
<path d="M701.897 161.177C698.281 161.104 695.062 158.029 695.171 154.592C695.315 150.793 698.281 147.537 701.969 147.718C705.947 147.935 708.731 151.191 708.695 154.339C708.659 157.414 705.766 161.502 701.897 161.177Z" fill="#FBFAFB"/>
<path d="M197.84 190.011C197.949 188.89 197.84 187.732 198.166 186.683C199.431 182.522 202.071 179.519 206.302 178.253C209.412 177.312 212.594 176.661 215.74 175.938C220.007 174.997 224.274 174.129 228.542 173.224C233.098 172.283 237.654 171.307 242.211 170.33C246.261 169.462 250.311 168.521 254.397 167.653C258.953 166.676 263.51 165.735 268.066 164.758C271.14 164.107 274.286 163.709 277.287 162.768C279.421 162.081 281.338 162.37 283.254 162.949C287.81 164.396 291.137 167.11 292.186 172.066C293.705 179.194 295.187 186.357 296.706 193.484C296.959 194.642 296.815 194.968 295.766 195.257C294.5 195.619 293.199 195.836 291.897 196.125C287.449 197.066 282.965 198.043 278.517 198.983C274.069 199.924 269.585 200.792 265.137 201.733C261.846 202.42 258.592 203.144 255.337 203.831C248.901 205.206 242.428 206.545 235.991 207.92C232.013 208.752 228.071 209.656 224.094 210.525C220.622 211.284 217.187 212.189 213.679 212.731C210.425 213.238 207.387 212.225 204.82 210.163C202.397 208.173 200.625 205.785 200.082 202.529C199.54 199.273 198.6 196.017 197.949 192.725C197.768 191.82 197.913 190.879 197.913 189.975L197.84 190.011Z" fill="#F1F0F0"/>
<path d="M207.748 145.583C207.784 149.599 205.181 153.145 201.348 154.303C198.853 155.098 196.249 155.605 193.681 156.148C190.138 156.944 186.558 157.667 182.978 158.391C178.53 159.295 174.046 160.2 169.598 161.104C167.32 161.574 165.041 162.117 162.799 162.66C161.136 163.058 160.738 162.732 160.377 160.996C159.509 156.726 158.677 152.457 157.592 148.224C156.29 143.232 159.039 137.769 164.933 136.503C170.574 135.272 176.252 134.259 181.857 132.885C186.666 131.691 191.548 130.714 196.43 129.882C198.563 129.52 200.769 130.099 202.433 131.474C204.277 132.957 205.796 134.73 206.302 137.19C206.772 139.578 207.278 141.966 207.748 144.353C207.784 144.787 207.784 145.185 207.748 145.583Z" fill="#F1F0F0"/>
<path d="M226.263 157.559C226.3 156.257 226.227 154.918 227.131 153.579C228.18 152.024 229.373 151.011 231.181 150.576C234.436 149.817 237.654 148.948 240.909 148.225C244.38 147.465 247.852 146.814 251.323 146.126C257.869 144.752 264.378 143.377 270.923 142.002C273.093 141.532 275.299 141.098 277.432 140.446C280.506 139.47 284.881 141.134 286.183 144.752C286.943 146.886 287.196 149.093 287.847 151.228C288.064 151.915 288.1 152.639 288.281 153.326C288.461 154.013 288.136 154.303 287.594 154.484C286.473 154.918 285.279 155.28 284.122 155.533C277.36 156.835 270.634 158.283 263.944 159.802C256.639 161.466 249.262 162.805 241.921 164.288C239.824 164.722 237.763 165.229 235.702 165.699C230.567 166.929 226.336 163.565 226.3 158.283C226.227 158.065 226.263 157.848 226.263 157.559Z" fill="#F1F0F0"/>
<path d="M201.999 112.987L201.782 112.878L201.999 112.553C202.071 112.625 202.18 112.697 202.18 112.77C202.18 112.842 202.071 112.915 201.999 112.987Z" fill="#FEFEFE"/>
<path d="M245.646 242.145C245.682 242.037 245.718 241.964 245.791 241.892C246.623 241.241 247.31 241.168 247.419 241.711C247.6 242.434 247.093 242.76 246.442 242.905L245.646 242.145Z" fill="#212122"/>
<path d="M281.193 228.687C284.049 228.723 286.906 228.904 289.763 229.265C293.596 229.808 297.429 230.604 301.262 231.291C301.335 230.857 301.407 230.459 301.515 230.025C301.226 229.374 301.009 228.687 300.684 228.035C296.525 219.316 287.087 215.083 278.481 217.037C274.684 217.869 270.85 218.629 267.053 219.461C249.117 223.224 231.181 227.022 213.245 230.821C207.748 231.979 202.18 233.028 196.755 234.439C189.885 236.212 185.437 240.77 183.086 247.427C181.423 252.203 181.929 256.978 183.52 261.609C185.907 268.519 190.789 272.825 197.876 274.634C201.492 275.574 205 275.068 208.508 274.308C219.718 271.92 230.928 269.533 242.174 267.145C257.001 263.997 271.827 260.886 286.653 257.738C290.956 256.834 294.753 254.916 297.646 251.443L297.682 249.2L294.789 246.957C290.992 243.99 287.123 241.096 283.399 238.057C281.844 236.754 280.397 235.307 279.095 233.752C278.191 232.702 276.853 231.509 277.576 229.989C278.227 228.65 279.891 228.687 281.193 228.687Z" fill="#444342"/>
<path d="M216.588 250.684L216.366 249.475L217.481 249.27C217.938 249.186 218.287 249 218.526 248.712C218.765 248.423 218.85 248.089 218.78 247.71C218.711 247.334 218.523 247.062 218.216 246.895C217.912 246.722 217.53 246.679 217.069 246.763C216.604 246.849 216.249 247.032 216.005 247.314C215.76 247.595 215.659 247.936 215.7 248.337L214.3 248.594C214.199 247.824 214.38 247.166 214.844 246.62C215.308 246.07 215.989 245.713 216.887 245.548C217.743 245.39 218.479 245.473 219.095 245.796C219.71 246.115 220.079 246.608 220.202 247.274C220.288 247.743 220.218 248.182 219.993 248.592C219.768 249.001 219.433 249.301 218.988 249.491L218.996 249.538C219.57 249.5 220.055 249.637 220.453 249.948C220.85 250.26 221.101 250.698 221.205 251.264C221.337 251.98 221.142 252.632 220.622 253.221C220.105 253.808 219.39 254.186 218.476 254.354C217.543 254.526 216.739 254.436 216.066 254.083C215.396 253.73 214.973 253.177 214.794 252.425L216.235 252.16C216.338 252.546 216.571 252.825 216.936 252.998C217.303 253.167 217.742 253.204 218.253 253.11C218.745 253.02 219.119 252.823 219.376 252.519C219.632 252.216 219.724 251.862 219.65 251.46C219.575 251.053 219.367 250.763 219.027 250.589C218.691 250.415 218.259 250.376 217.733 250.473L216.588 250.684Z" fill="white"/>
<path d="M228.238 252.342L227.125 250.306L224.04 250.874L223.724 253.172L222.179 253.457L223.612 244.526L225.303 244.215L229.818 252.051L228.238 252.342ZM224.692 245.859L224.176 249.654L226.558 249.215L224.733 245.852L224.692 245.859Z" fill="white"/>
<path d="M232.995 246.92L237.713 250.598L235.796 250.951L231.677 247.757L231.631 247.765L232.333 251.588L230.835 251.864L229.294 243.481L230.793 243.205L231.466 246.871L231.513 246.862L234.121 242.592L235.852 242.274L232.995 246.92Z" fill="white"/>
<path d="M244.086 249.425L242.973 247.39L239.888 247.958L239.572 250.256L238.027 250.54L239.46 241.61L241.15 241.299L245.666 249.134L244.086 249.425ZM240.54 242.943L240.024 246.737L242.406 246.299L240.58 242.935L240.54 242.943Z" fill="white"/>
<path d="M247.587 244.979L247.364 243.771L248.48 243.566C248.937 243.481 249.285 243.295 249.524 243.007C249.764 242.719 249.848 242.385 249.779 242.005C249.709 241.63 249.521 241.358 249.214 241.19C248.91 241.018 248.528 240.974 248.067 241.059C247.602 241.144 247.248 241.328 247.003 241.609C246.759 241.89 246.657 242.231 246.699 242.632L245.299 242.89C245.197 242.12 245.378 241.462 245.843 240.916C246.306 240.366 246.987 240.008 247.886 239.843C248.742 239.686 249.477 239.768 250.093 240.091C250.709 240.411 251.077 240.903 251.2 241.57C251.286 242.038 251.217 242.477 250.992 242.887C250.767 243.297 250.431 243.597 249.986 243.787L249.994 243.833C250.568 243.796 251.054 243.933 251.451 244.244C251.849 244.555 252.1 244.994 252.203 245.559C252.335 246.276 252.141 246.928 251.62 247.516C251.104 248.104 250.388 248.482 249.474 248.65C248.541 248.822 247.738 248.731 247.064 248.379C246.395 248.025 245.971 247.473 245.793 246.721L247.233 246.456C247.336 246.841 247.57 247.12 247.934 247.294C248.301 247.462 248.74 247.5 249.252 247.406C249.744 247.315 250.118 247.118 250.374 246.815C250.631 246.511 250.722 246.158 250.648 245.755C250.573 245.348 250.366 245.058 250.026 244.885C249.689 244.71 249.258 244.672 248.731 244.769L247.587 244.979Z" fill="white"/>
<path d="M259.236 246.637L258.123 244.602L255.039 245.169L254.722 247.468L253.177 247.752L254.611 238.822L256.301 238.511L260.816 246.346L259.236 246.637ZM255.69 240.155L255.175 243.949L257.556 243.511L255.731 240.147L255.69 240.155Z" fill="white"/>
<path d="M264.401 245.687L262.908 245.962L261.6 238.845L259.09 239.307L258.857 238.04L265.364 236.843L265.596 238.109L263.093 238.57L264.401 245.687Z" fill="white"/>
<path d="M268.049 245.015L266.508 236.632L268.007 236.356L268.544 239.279L270.322 238.952C271.174 238.795 271.913 238.921 272.541 239.33C273.172 239.734 273.562 240.341 273.711 241.151C273.86 241.964 273.72 242.67 273.289 243.27C272.859 243.87 272.226 244.247 271.389 244.401L268.049 245.015ZM269.321 243.508L270.768 243.242C271.302 243.143 271.693 242.937 271.939 242.624C272.186 242.31 272.265 241.913 272.177 241.433C272.088 240.949 271.872 240.604 271.53 240.399C271.188 240.19 270.747 240.134 270.209 240.234L268.768 240.499L269.321 243.508Z" fill="white"/>
<path d="M319.596 265.987C319.343 265.661 319.018 265.444 318.62 265.227C312.292 260.886 305.927 256.544 299.563 252.239C299.02 251.877 298.297 251.696 297.646 251.443C294.753 254.916 290.956 256.797 286.653 257.702C271.827 260.886 257.001 263.961 242.174 267.108C230.964 269.46 219.718 271.848 208.508 274.272C204.964 275.031 201.492 275.502 197.876 274.597C190.789 272.788 185.907 268.483 183.52 261.573C181.893 256.942 181.423 252.166 183.086 247.391C185.401 240.734 189.885 236.212 196.755 234.403C202.216 232.992 207.748 231.942 213.245 230.785C231.181 226.986 249.117 223.187 267.053 219.425C270.85 218.629 274.684 217.869 278.481 217.001C287.087 215.083 296.525 219.28 300.684 227.999C300.973 228.65 301.226 229.338 301.515 229.989L314.678 233.57C314.859 233.39 315.04 233.173 315.185 232.992C315.04 231.979 314.895 230.966 314.714 229.953C312.545 219.605 310.339 209.294 308.169 198.947C304.589 182.088 301.045 165.265 297.465 148.405C293.632 130.352 289.835 112.299 286.002 94.2457C284.194 85.7075 282.386 77.2055 280.542 68.6673C279.782 65.1579 277.36 63.1681 273.816 63.0957C272.912 63.0957 271.971 63.1681 271.067 63.3851C266.366 64.362 261.629 65.3388 256.928 66.3518C253.131 67.1477 249.334 68.016 245.501 68.7396C243.621 69.1014 242.319 69.825 241.813 71.7786C241.415 73.262 240.728 74.6368 240.185 76.0839C238.775 79.7018 236.063 81.8364 232.374 82.8494C231.579 83.0303 230.783 83.2473 229.988 83.392C224.564 84.5136 219.139 85.6713 213.751 86.7929C205.036 88.638 196.321 90.5193 187.57 92.292C183.809 93.0518 180.483 92.0388 177.662 89.3616C176.396 88.1677 175.058 87.0099 173.937 85.6713C172.925 84.4774 171.804 84.3327 170.393 84.6583C166.488 85.5266 162.583 86.3225 158.677 87.1546C153.759 88.2038 148.841 89.1807 143.923 90.266C138.861 91.3876 136.763 94.7522 137.812 99.8172C139.041 105.642 140.271 111.467 141.5 117.255C144.936 133.21 148.335 149.129 151.698 165.084C155.64 183.752 159.581 202.384 163.487 221.053C163.848 222.681 163.848 222.681 165.367 221.993C168.405 220.618 170.683 221.197 172.635 223.838C173.72 225.358 174.371 227.167 174.516 229.012C174.841 232.16 174.986 235.343 174.95 238.527C174.769 246.052 173.829 253.469 172.708 260.886C172.491 262.405 172.563 263.961 172.889 265.444C174.661 273.874 176.613 282.267 178.204 290.733C178.891 294.387 181.893 296.956 185.907 296.666C186.739 296.594 187.534 296.486 188.33 296.305C191.729 295.581 195.164 294.857 198.563 294.134C214.691 290.697 230.856 287.296 246.984 283.859C263.835 280.314 280.686 276.732 297.538 273.186L314.968 269.496C316.848 269.098 318.511 268.411 319.741 266.891C319.813 266.674 319.777 266.276 319.596 265.987ZM226.263 157.559C226.299 156.22 226.227 154.918 227.131 153.579C228.18 152.023 229.373 151.01 231.181 150.576C234.436 149.816 237.654 148.948 240.909 148.225C244.38 147.465 247.852 146.85 251.323 146.126C257.868 144.788 264.378 143.413 270.923 142.002C273.129 141.531 275.334 141.097 277.432 140.446C280.506 139.469 284.881 141.134 286.183 144.751C286.942 146.886 287.195 149.093 287.846 151.227C288.063 151.915 288.1 152.675 288.28 153.326C288.461 153.977 288.136 154.303 287.593 154.484C286.472 154.918 285.279 155.279 284.122 155.533C277.36 156.835 270.633 158.282 263.944 159.802C256.639 161.466 249.262 162.805 241.921 164.288C239.824 164.722 237.763 165.229 235.701 165.699C230.566 166.929 226.335 163.564 226.299 158.282C226.263 158.065 226.263 157.848 226.263 157.559ZM215.704 175.938C219.971 174.997 224.238 174.129 228.505 173.224C233.062 172.247 237.618 171.307 242.174 170.33C246.224 169.462 250.274 168.557 254.361 167.653C258.917 166.676 263.473 165.699 268.03 164.758C271.104 164.107 274.25 163.709 277.251 162.768C279.385 162.081 281.301 162.37 283.218 162.949C287.774 164.397 291.101 167.11 292.15 172.066C293.668 179.194 295.151 186.357 296.67 193.484C296.923 194.642 296.778 194.968 295.73 195.257C294.464 195.619 293.162 195.836 291.86 196.125C287.412 197.066 282.928 198.043 278.481 198.984C274.033 199.924 269.549 200.792 265.101 201.733C261.81 202.42 258.555 203.144 255.301 203.831C248.864 205.206 242.391 206.545 235.954 207.92C231.977 208.752 228.035 209.656 224.057 210.525C220.586 211.284 217.15 212.189 213.643 212.731C210.388 213.238 207.351 212.225 204.783 210.163C202.36 208.173 200.588 205.821 200.046 202.529C199.504 199.237 198.563 196.017 197.912 192.725C197.732 191.82 197.876 190.879 197.876 189.975H197.768C197.876 188.853 197.768 187.696 198.093 186.647C199.359 182.486 201.999 179.483 206.23 178.217C209.376 177.312 212.558 176.661 215.704 175.938ZM169.598 161.14C167.32 161.611 165.042 162.153 162.8 162.696C161.136 163.094 160.738 162.768 160.377 160.996C159.509 156.727 158.677 152.457 157.592 148.225C156.29 143.232 159.003 137.769 164.933 136.503C170.574 135.309 176.252 134.26 181.857 132.885C186.666 131.691 191.548 130.714 196.43 129.882C198.563 129.52 200.769 130.099 202.433 131.474C204.277 132.957 205.796 134.73 206.302 137.19C206.772 139.578 207.278 141.966 207.748 144.353C207.785 144.751 207.785 145.186 207.748 145.584C207.785 149.599 205.181 153.145 201.348 154.303C198.853 155.062 196.249 155.605 193.682 156.148C190.138 156.944 186.558 157.667 182.978 158.391C178.53 159.331 174.046 160.236 169.598 161.14Z" fill="#FEFEFE"/>
<g clip-path="url(#clip1)">
<path d="M176.898 116.272L176.755 116.303C176.656 116.324 176.569 116.381 176.514 116.463C176.458 116.545 176.438 116.645 176.458 116.74L176.706 117.914C176.726 118.009 176.706 118.108 176.65 118.19C176.595 118.272 176.508 118.33 176.409 118.351L174.522 118.749C174.423 118.769 174.321 118.751 174.237 118.699C174.153 118.646 174.095 118.564 174.075 118.468L172.64 111.663C172.621 111.568 172.641 111.469 172.696 111.387C172.752 111.305 172.838 111.247 172.936 111.226L176.322 110.513C178.496 110.055 180.11 110.86 180.476 112.601C180.678 113.557 180.42 114.393 179.781 115.029C179.712 115.1 179.674 115.193 179.676 115.29C179.678 115.386 179.72 115.477 179.792 115.543L181.117 116.774C181.167 116.82 181.202 116.878 181.219 116.942C181.237 117.007 181.236 117.074 181.216 117.139C181.197 117.203 181.16 117.261 181.109 117.307C181.058 117.353 180.996 117.384 180.928 117.399L179.019 117.801C178.958 117.814 178.895 117.812 178.836 117.796C178.776 117.78 178.722 117.75 178.678 117.708L177.24 116.365C177.195 116.324 177.141 116.294 177.082 116.278C177.022 116.261 176.959 116.26 176.898 116.272ZM176.567 112.504L175.727 112.681C175.695 112.688 175.668 112.706 175.65 112.732C175.632 112.758 175.626 112.79 175.632 112.821L175.955 114.354C175.958 114.369 175.965 114.383 175.973 114.396C175.982 114.408 175.994 114.419 176.007 114.427C176.02 114.436 176.035 114.441 176.051 114.444C176.067 114.447 176.083 114.447 176.098 114.443L176.938 114.266C177.663 114.114 177.938 113.708 177.823 113.159C177.707 112.611 177.291 112.351 176.567 112.504Z" fill="#FF8025"/>
<path d="M187.495 114.651L185.118 115.151C185.031 115.17 184.952 115.213 184.891 115.275C184.829 115.337 184.788 115.416 184.773 115.5L184.625 116.346C184.61 116.431 184.569 116.509 184.508 116.571C184.446 116.633 184.367 116.676 184.281 116.695L182.554 117.058C182.483 117.073 182.409 117.071 182.34 117.052C182.27 117.033 182.207 116.997 182.156 116.948C182.105 116.899 182.068 116.838 182.047 116.771C182.027 116.704 182.024 116.632 182.04 116.564L183.624 109.443C183.655 109.302 183.728 109.173 183.834 109.07C183.94 108.968 184.073 108.897 184.219 108.867L185.825 108.528C185.971 108.497 186.122 108.508 186.26 108.559C186.398 108.61 186.517 108.699 186.603 108.815L190.926 114.691C190.968 114.748 190.994 114.814 191.002 114.884C191.011 114.954 191.001 115.024 190.974 115.09C190.947 115.155 190.904 115.214 190.848 115.259C190.793 115.305 190.726 115.337 190.655 115.352L188.883 115.725C188.796 115.743 188.707 115.736 188.625 115.704C188.544 115.672 188.475 115.616 188.427 115.545L187.95 114.83C187.903 114.759 187.834 114.704 187.752 114.672C187.671 114.64 187.581 114.632 187.495 114.651ZM186.581 112.771L185.698 111.452C185.685 111.431 185.665 111.415 185.642 111.406C185.618 111.396 185.592 111.394 185.567 111.399C185.542 111.404 185.519 111.417 185.502 111.435C185.484 111.453 185.473 111.476 185.469 111.501L185.194 113.063C185.19 113.083 185.192 113.103 185.198 113.121C185.204 113.14 185.215 113.157 185.23 113.17C185.245 113.184 185.263 113.194 185.282 113.199C185.302 113.204 185.323 113.205 185.343 113.2L186.5 112.956C186.52 112.952 186.539 112.944 186.555 112.931C186.571 112.918 186.583 112.902 186.592 112.884C186.6 112.865 186.603 112.846 186.601 112.826C186.599 112.806 186.593 112.787 186.581 112.771L186.581 112.771Z" fill="#FF8025"/>
<path d="M198.183 106.224L199.644 113.157C199.652 113.195 199.652 113.234 199.645 113.272C199.637 113.31 199.622 113.346 199.599 113.379C199.577 113.411 199.549 113.439 199.516 113.462C199.482 113.484 199.445 113.499 199.406 113.507L197.682 113.871C197.638 113.88 197.593 113.88 197.549 113.87C197.506 113.861 197.465 113.842 197.431 113.816L194.514 111.611C194.291 111.442 193.968 111.638 194.025 111.907L194.516 114.238C194.524 114.275 194.524 114.314 194.516 114.353C194.508 114.391 194.493 114.427 194.471 114.46C194.449 114.492 194.42 114.52 194.387 114.542C194.354 114.564 194.317 114.58 194.277 114.588L192.311 115.003C192.231 115.019 192.149 115.005 192.082 114.963C192.014 114.921 191.967 114.854 191.951 114.778L190.49 107.845C190.474 107.769 190.49 107.689 190.535 107.623C190.58 107.558 190.649 107.511 190.729 107.495L192.453 107.131C192.497 107.122 192.542 107.122 192.585 107.132C192.629 107.141 192.669 107.16 192.704 107.186L195.621 109.391C195.844 109.56 196.167 109.364 196.11 109.096L195.619 106.764C195.611 106.727 195.611 106.688 195.619 106.649C195.626 106.611 195.642 106.575 195.664 106.542C195.686 106.51 195.714 106.482 195.748 106.46C195.781 106.438 195.818 106.422 195.857 106.414L197.824 105.999C197.863 105.991 197.903 105.99 197.943 105.997C197.982 106.004 198.019 106.018 198.053 106.039C198.086 106.06 198.115 106.087 198.137 106.119C198.16 106.15 198.175 106.186 198.183 106.224Z" fill="#FF8025"/>
<path d="M199.736 105.914C199.72 105.833 199.737 105.749 199.784 105.68C199.831 105.611 199.905 105.562 199.989 105.544L203.519 104.8C206.128 104.251 208.223 105.299 208.714 107.626C209.204 109.954 207.71 111.758 205.101 112.308L201.571 113.052C201.529 113.061 201.486 113.062 201.445 113.055C201.403 113.047 201.363 113.032 201.328 113.01C201.293 112.988 201.262 112.959 201.239 112.926C201.215 112.892 201.199 112.854 201.19 112.814L199.736 105.914ZM204.573 110.357C205.677 110.125 206.302 109.332 206.06 108.185C205.818 107.037 204.927 106.564 203.823 106.797L203.035 106.962C202.994 106.971 202.955 106.988 202.919 107.011C202.884 107.034 202.854 107.064 202.831 107.098C202.807 107.133 202.791 107.171 202.783 107.212C202.775 107.252 202.775 107.293 202.783 107.333L203.406 110.286C203.414 110.326 203.431 110.364 203.454 110.397C203.478 110.431 203.508 110.459 203.544 110.481C203.579 110.503 203.619 110.518 203.66 110.526C203.702 110.533 203.744 110.532 203.786 110.523L204.573 110.357Z" fill="#FF8025"/>
<path d="M212.617 110.531C212.48 110.646 212.331 110.746 212.172 110.83C212.025 110.908 211.868 110.965 211.705 111C211.522 111.04 211.334 111.052 211.148 111.038C210.974 111.025 210.805 110.984 210.647 110.915C210.5 110.851 210.369 110.757 210.262 110.641C210.155 110.523 210.083 110.379 210.053 110.225C210.025 110.107 210.024 109.985 210.049 109.867C210.072 109.762 210.113 109.662 210.169 109.569C210.224 109.48 210.29 109.397 210.366 109.322C210.44 109.247 210.513 109.177 210.585 109.113C210.529 109.086 210.475 109.054 210.424 109.018C210.37 108.98 210.32 108.937 210.276 108.888C210.228 108.836 210.187 108.778 210.155 108.716C210.118 108.645 210.092 108.569 210.076 108.49C210.048 108.366 210.052 108.237 210.088 108.113C210.124 107.996 210.186 107.888 210.27 107.797C210.36 107.699 210.468 107.618 210.587 107.557C210.72 107.489 210.862 107.439 211.008 107.409C211.171 107.373 211.337 107.358 211.503 107.365C211.644 107.37 211.782 107.401 211.91 107.455C212.028 107.507 212.13 107.586 212.208 107.684C212.279 107.775 212.331 107.88 212.359 107.991C212.407 108.173 212.388 108.367 212.306 108.54L212.304 108.544C212.265 108.625 212.218 108.702 212.162 108.774C212.131 108.814 212.099 108.853 212.065 108.89C212.054 108.901 212.045 108.915 212.04 108.93C212.035 108.946 212.033 108.961 212.034 108.977C212.036 108.993 212.041 109.008 212.048 109.022C212.056 109.036 212.067 109.048 212.08 109.057L212.348 109.255C212.365 109.267 212.384 109.274 212.405 109.277C212.425 109.279 212.446 109.276 212.465 109.269C212.485 109.261 212.501 109.249 212.515 109.233C212.528 109.218 212.536 109.199 212.54 109.179C212.545 109.154 212.549 109.129 212.552 109.103L212.553 109.095C212.563 109.022 212.596 108.953 212.647 108.898C212.699 108.844 212.767 108.806 212.842 108.79L213.409 108.673C213.45 108.875 213.447 109.083 213.401 109.285C213.363 109.455 213.303 109.619 213.223 109.774C213.21 109.798 213.206 109.826 213.212 109.852C213.218 109.879 213.233 109.902 213.255 109.918L213.751 110.28C213.77 110.294 213.784 110.313 213.792 110.334C213.8 110.356 213.801 110.379 213.796 110.401C213.79 110.424 213.778 110.444 213.762 110.461C213.745 110.477 213.724 110.488 213.701 110.494L213.084 110.624C213.003 110.641 212.92 110.641 212.84 110.625C212.759 110.609 212.684 110.577 212.617 110.531L212.617 110.531ZM211.514 110.242C211.61 110.222 211.703 110.189 211.79 110.145C211.808 110.136 211.823 110.122 211.833 110.106C211.844 110.09 211.851 110.071 211.852 110.052C211.853 110.033 211.85 110.014 211.841 109.997C211.833 109.979 211.82 109.964 211.805 109.953L211.304 109.599C211.28 109.583 211.251 109.575 211.222 109.578C211.193 109.581 211.165 109.594 211.145 109.615C211.137 109.623 211.129 109.632 211.122 109.64C211.091 109.673 211.066 109.708 211.045 109.747C211.025 109.784 211.011 109.824 211.003 109.866C210.996 109.91 210.997 109.955 211.007 109.998C211.016 110.052 211.042 110.101 211.08 110.14C211.116 110.176 211.159 110.203 211.207 110.222C211.256 110.241 211.307 110.251 211.36 110.254C211.411 110.256 211.463 110.253 211.513 110.242L211.514 110.242ZM211.047 108.377C211.053 108.405 211.063 108.432 211.077 108.456C211.091 108.478 211.107 108.499 211.124 108.518C211.142 108.537 211.161 108.555 211.182 108.571C211.203 108.588 211.215 108.6 211.248 108.597C211.279 108.595 211.29 108.581 211.316 108.558C211.342 108.534 211.364 108.508 211.384 108.48C211.404 108.452 211.419 108.42 211.428 108.387C211.438 108.35 211.439 108.311 211.43 108.273C211.422 108.221 211.393 108.174 211.349 108.142C211.328 108.128 211.303 108.118 211.277 108.114C211.251 108.11 211.225 108.111 211.199 108.118C211.133 108.132 211.088 108.164 211.064 108.214C211.041 108.266 211.035 108.323 211.047 108.377Z" fill="#FF8025"/>
<path d="M223.194 100.653L225.008 100.271C225.04 100.264 225.073 100.264 225.104 100.269C225.136 100.275 225.166 100.287 225.193 100.303C225.22 100.32 225.243 100.342 225.261 100.368C225.279 100.394 225.292 100.422 225.298 100.453L226.782 107.496C226.789 107.526 226.789 107.558 226.783 107.588C226.777 107.619 226.764 107.649 226.747 107.675C226.729 107.701 226.706 107.724 226.679 107.742C226.652 107.76 226.622 107.772 226.591 107.779L224.776 108.161C224.745 108.168 224.712 108.169 224.68 108.163C224.649 108.157 224.619 108.146 224.592 108.129C224.565 108.112 224.542 108.09 224.524 108.064C224.506 108.039 224.493 108.01 224.487 107.979L223.003 100.937C222.996 100.906 222.996 100.875 223.002 100.844C223.008 100.813 223.02 100.784 223.038 100.758C223.056 100.731 223.079 100.708 223.106 100.691C223.133 100.673 223.163 100.66 223.194 100.653V100.653Z" fill="#FF8025"/>
<path d="M256.379 100.441L253.243 101.102L253.061 102.049C253.052 102.096 253.029 102.139 252.995 102.173C252.961 102.207 252.917 102.231 252.869 102.241L250.972 102.641C250.932 102.649 250.891 102.648 250.852 102.637C250.813 102.626 250.778 102.606 250.749 102.578C250.721 102.551 250.7 102.517 250.688 102.479C250.677 102.442 250.675 102.402 250.683 102.363L252.312 94.7949C252.33 94.7087 252.374 94.6292 252.439 94.5663C252.503 94.5034 252.585 94.4598 252.674 94.441L254.218 94.1156C254.307 94.0967 254.4 94.1035 254.484 94.1351C254.568 94.1667 254.641 94.2217 254.692 94.2933L259.237 100.561C259.26 100.593 259.274 100.63 259.279 100.669C259.283 100.708 259.278 100.748 259.263 100.785C259.248 100.821 259.223 100.854 259.192 100.88C259.161 100.905 259.124 100.923 259.084 100.932L257.186 101.331C257.139 101.341 257.089 101.338 257.044 101.32C256.999 101.303 256.961 101.273 256.934 101.234L256.379 100.441ZM253.972 99.157L254.928 98.9555C254.968 98.9469 255.006 98.929 255.038 98.9032C255.069 98.8774 255.094 98.8445 255.11 98.8075C255.125 98.7705 255.131 98.7305 255.127 98.691C255.123 98.6515 255.109 98.6137 255.086 98.581L254.089 97.0846C254.083 97.0757 254.074 97.0687 254.064 97.0646C254.054 97.0606 254.042 97.0597 254.031 97.0619C254.021 97.0642 254.011 97.0697 254.003 97.0775C253.995 97.0853 253.99 97.0952 253.988 97.1058L253.676 98.878C253.669 98.9172 253.671 98.9574 253.683 98.9951C253.695 99.0329 253.717 99.0671 253.746 99.0946C253.775 99.1222 253.811 99.1423 253.85 99.1531C253.89 99.164 253.931 99.1653 253.972 99.157Z" fill="#FF8025"/>
<path d="M259.722 92.9589L261.557 92.5722C261.587 92.5659 261.618 92.5653 261.649 92.5706C261.679 92.5759 261.708 92.587 261.733 92.6031C261.759 92.6192 261.781 92.6402 261.798 92.6647C261.816 92.6892 261.828 92.7168 261.834 92.746L262.982 98.1961C262.988 98.2226 263.004 98.2457 263.027 98.2604C263.051 98.275 263.079 98.28 263.107 98.2743L266.013 97.6619C266.074 97.6491 266.138 97.6602 266.189 97.6927C266.241 97.7252 266.277 97.7765 266.29 97.8353L266.561 99.1239C266.574 99.1827 266.561 99.2443 266.527 99.295C266.493 99.3457 266.439 99.3814 266.378 99.3944L261.303 100.464C261.242 100.477 261.179 100.465 261.127 100.433C261.075 100.4 261.039 100.349 261.027 100.29L259.539 93.2295C259.533 93.2004 259.533 93.1703 259.538 93.1409C259.544 93.1116 259.556 93.0835 259.573 93.0584C259.59 93.0333 259.612 93.0115 259.638 92.9945C259.663 92.9774 259.692 92.9653 259.722 92.9589Z" fill="#FF8025"/>
<path d="M237.251 97.6821L239.078 97.2971C239.109 97.2906 239.141 97.2901 239.172 97.2956C239.203 97.3011 239.232 97.3124 239.258 97.329C239.284 97.3455 239.307 97.367 239.324 97.3921C239.342 97.4172 239.354 97.4455 239.36 97.4753L240.849 104.538C240.855 104.568 240.855 104.599 240.849 104.629C240.843 104.659 240.831 104.687 240.814 104.713C240.797 104.739 240.774 104.761 240.748 104.778C240.722 104.796 240.693 104.808 240.662 104.814L238.835 105.199C238.804 105.206 238.772 105.206 238.741 105.201C238.711 105.196 238.681 105.184 238.655 105.168C238.629 105.151 238.606 105.13 238.589 105.105C238.571 105.08 238.559 105.052 238.553 105.022L237.065 97.959C237.058 97.9293 237.058 97.8985 237.064 97.8685C237.07 97.8385 237.081 97.8097 237.099 97.784C237.116 97.7583 237.138 97.736 237.164 97.7186C237.191 97.7011 237.22 97.6887 237.251 97.6821Z" fill="#FF8025"/>
<path d="M241.419 97.0559L241.686 98.325C241.692 98.3554 241.705 98.3843 241.723 98.4099C241.741 98.4356 241.764 98.4574 241.791 98.4743C241.818 98.4912 241.848 98.5027 241.879 98.5083C241.911 98.5138 241.943 98.5133 241.975 98.5067L243.874 98.1066L245.041 103.649C245.054 103.71 245.092 103.764 245.146 103.798C245.2 103.832 245.266 103.844 245.33 103.831L247.145 103.448C247.177 103.441 247.207 103.429 247.233 103.411C247.26 103.393 247.283 103.37 247.301 103.344C247.319 103.318 247.331 103.288 247.337 103.258C247.343 103.227 247.343 103.196 247.336 103.165L246.169 97.6232L248.078 97.2208C248.11 97.2141 248.14 97.2015 248.166 97.1836C248.193 97.1658 248.216 97.1431 248.234 97.1168C248.252 97.0905 248.264 97.0612 248.27 97.0305C248.276 96.9998 248.276 96.9683 248.269 96.9379L248.002 95.6686C247.989 95.6072 247.951 95.5536 247.897 95.5196C247.843 95.4855 247.777 95.4738 247.713 95.4869L241.61 96.7731C241.578 96.7798 241.548 96.7925 241.521 96.8103C241.495 96.8281 241.472 96.8508 241.454 96.8771C241.436 96.9033 241.424 96.9326 241.418 96.9633C241.412 96.994 241.412 97.0254 241.419 97.0559Z" fill="#FF8025"/>
<path d="M235.419 101.668C235.599 101.63 235.779 101.753 235.816 101.941C235.912 102.422 235.931 102.881 235.873 103.316C235.802 103.853 235.633 104.335 235.367 104.763C235.1 105.192 234.741 105.562 234.314 105.847C233.877 106.142 233.377 106.349 232.812 106.468C232.444 106.547 232.067 106.579 231.691 106.564C231.332 106.55 230.976 106.492 230.633 106.392C230.298 106.293 229.978 106.154 229.681 105.977C229.386 105.802 229.116 105.592 228.878 105.35C228.64 105.108 228.438 104.836 228.276 104.54C228.029 104.087 227.884 103.587 227.85 103.073C227.816 102.559 227.894 102.042 228.078 101.556C228.199 101.24 228.361 100.94 228.561 100.664C228.762 100.383 228.999 100.129 229.266 99.9054C229.83 99.4359 230.505 99.1106 231.23 98.9601C231.802 98.8396 232.357 98.8251 232.896 98.9165C233.287 98.9821 233.666 99.1003 234.022 99.2678C234.218 99.3601 234.288 99.6143 234.165 99.7942L233.51 100.757C233.488 100.792 233.459 100.822 233.424 100.845C233.39 100.868 233.351 100.885 233.311 100.894C233.27 100.903 233.228 100.904 233.187 100.897C233.146 100.89 233.107 100.875 233.072 100.853C232.904 100.751 232.72 100.675 232.528 100.625C232.226 100.546 231.909 100.541 231.578 100.611C231.302 100.667 231.042 100.779 230.813 100.939C230.591 101.095 230.403 101.292 230.259 101.518C230.112 101.751 230.011 102.007 229.962 102.275C229.908 102.564 229.914 102.859 229.977 103.145C230.034 103.431 230.149 103.704 230.314 103.947C230.467 104.172 230.663 104.367 230.891 104.52C231.114 104.669 231.366 104.773 231.632 104.826C231.906 104.88 232.189 104.878 232.464 104.818C232.978 104.71 233.354 104.535 233.592 104.295C233.822 104.062 233.952 103.783 233.981 103.456C233.982 103.452 233.981 103.448 233.98 103.444C233.979 103.441 233.977 103.437 233.974 103.434C233.971 103.432 233.967 103.43 233.963 103.428C233.959 103.427 233.955 103.427 233.951 103.427L232.505 103.727C232.324 103.765 232.144 103.641 232.105 103.451C232.058 103.229 232.025 103.072 231.959 102.75C231.92 102.56 232.035 102.376 232.216 102.338L235.419 101.668Z" fill="#FF8025"/>
<path d="M213.59 103.713L212.225 104.001C212.127 104.022 212.063 104.115 212.083 104.21L212.36 105.526C212.38 105.621 212.476 105.681 212.574 105.66L213.94 105.372C214.038 105.352 214.101 105.258 214.081 105.163L213.804 103.847C213.784 103.753 213.688 103.693 213.59 103.713Z" fill="#FF8025"/>
<path d="M215.956 104.597L214.908 104.818C214.816 104.838 214.756 104.926 214.775 105.015L214.988 106.025C215.007 106.114 215.097 106.17 215.189 106.151L216.237 105.93C216.329 105.91 216.389 105.822 216.37 105.733L216.158 104.723C216.139 104.634 216.049 104.578 215.956 104.597Z" fill="#FF8025"/>
<path d="M214.576 106.305L213.413 106.55C213.315 106.571 213.251 106.664 213.271 106.759L213.507 107.88C213.527 107.975 213.623 108.035 213.721 108.014L214.885 107.769C214.983 107.748 215.046 107.655 215.027 107.56L214.79 106.439C214.77 106.344 214.674 106.284 214.576 106.305Z" fill="#FF8025"/>
<path d="M171.65 115.572C171.608 115.542 171.579 115.498 171.568 115.448C171.558 115.398 171.566 115.346 171.592 115.301C171.858 114.839 171.948 114.304 171.846 113.79C171.619 112.624 170.469 111.846 169.261 112.023L169.257 112.024L166.81 112.537L164.576 113.006L164.296 113.065L164.274 113.069C164.11 113.104 163.965 113.2 163.872 113.337C163.779 113.474 163.746 113.64 163.779 113.799L163.783 113.82L163.787 113.837L165.107 120.103C165.124 120.182 165.156 120.256 165.203 120.322C165.25 120.389 165.309 120.445 165.379 120.489C165.448 120.532 165.526 120.562 165.608 120.576C165.69 120.59 165.774 120.589 165.856 120.571L170.564 119.579C170.564 119.579 170.616 119.567 170.646 119.561L170.657 119.559C171.939 119.319 172.778 118.121 172.52 116.897C172.408 116.365 172.099 115.894 171.65 115.572ZM165.62 119.47L164.537 114.327C164.545 114.325 164.554 114.323 164.562 114.322L166.277 113.96C166.448 113.924 166.625 113.955 166.77 114.046C166.915 114.137 167.016 114.28 167.051 114.444L167.057 114.477C167.088 114.623 167.065 114.777 166.99 114.91C166.915 115.043 166.794 115.147 166.649 115.203L166.64 115.205L165.708 115.417C165.353 115.492 165.155 115.792 165.227 116.135C165.26 116.295 165.356 116.435 165.495 116.527C165.634 116.618 165.805 116.654 165.972 116.626L168.477 116.119C168.562 116.101 168.649 116.1 168.734 116.114C168.818 116.129 168.899 116.16 168.971 116.205C169.043 116.25 169.104 116.308 169.152 116.377C169.201 116.446 169.234 116.523 169.251 116.604L169.254 116.617C169.286 116.769 169.259 116.929 169.178 117.065C169.096 117.201 168.967 117.304 168.813 117.354L168.806 117.356L168.12 117.5C167.799 117.568 167.554 117.846 167.569 118.162C167.576 118.317 167.642 118.465 167.754 118.575C167.866 118.686 168.016 118.752 168.177 118.761C168.58 118.688 168.865 118.639 168.865 118.639C169.24 118.565 169.6 118.778 169.672 119.119C169.673 119.126 169.675 119.133 169.676 119.14L166.249 119.862C166.11 119.891 165.966 119.866 165.849 119.793C165.731 119.719 165.649 119.603 165.62 119.47Z" fill="#FF8025"/>
<path d="M166.358 117.844L166.136 117.891C165.965 117.927 165.815 118.027 165.719 118.169C165.622 118.311 165.588 118.483 165.622 118.647C165.657 118.812 165.758 118.956 165.904 119.047C166.049 119.137 166.226 119.168 166.397 119.132L166.62 119.085C166.79 119.049 166.94 118.95 167.037 118.808C167.133 118.666 167.167 118.494 167.133 118.329C167.098 118.165 166.997 118.021 166.852 117.93C166.706 117.839 166.529 117.808 166.358 117.844Z" fill="#FF8025"/>
<path d="M217.209 101.918L217.209 101.915L214.418 102.503C214.359 102.515 214.303 102.539 214.253 102.572C214.203 102.605 214.16 102.647 214.126 102.696C214.093 102.745 214.07 102.8 214.058 102.857C214.047 102.914 214.047 102.973 214.059 103.03L214.305 104.199C214.321 104.27 214.365 104.332 214.428 104.372C214.491 104.411 214.567 104.424 214.641 104.409L217.12 103.886C217.138 103.882 217.157 103.882 217.175 103.885C217.193 103.888 217.21 103.895 217.226 103.904C217.241 103.914 217.255 103.927 217.265 103.941C217.275 103.956 217.282 103.972 217.286 103.99L217.643 105.682C217.646 105.699 217.646 105.717 217.643 105.735C217.639 105.753 217.632 105.769 217.622 105.784C217.612 105.799 217.599 105.812 217.583 105.823C217.568 105.833 217.551 105.84 217.533 105.844L216.722 106.015C216.686 106.022 216.651 106.037 216.62 106.057C216.589 106.078 216.562 106.104 216.542 106.135C216.521 106.165 216.507 106.199 216.5 106.235C216.492 106.27 216.493 106.307 216.5 106.342L216.797 107.751C216.804 107.786 216.797 107.823 216.776 107.853C216.756 107.884 216.724 107.905 216.687 107.913L215.435 108.177C215.361 108.192 215.297 108.235 215.255 108.297C215.213 108.358 215.198 108.433 215.212 108.504L215.459 109.673C215.471 109.729 215.494 109.783 215.528 109.831C215.562 109.879 215.605 109.919 215.655 109.951C215.705 109.982 215.761 110.004 215.82 110.014C215.879 110.024 215.94 110.023 215.999 110.01L218.778 109.425L218.777 109.422C220.863 108.919 222.197 106.909 221.768 104.874C221.341 102.844 219.317 101.544 217.209 101.918Z" fill="#FF8025"/>
</g>
</g>
<defs>
<clipPath id="clip0">
<rect width="716" height="445" fill="white"/>
</clipPath>
<clipPath id="clip1">
<rect width="103.599" height="7.75611" fill="white" transform="translate(163.653 113.2) rotate(-11.8995)"/>
</clipPath>
</defs>
</svg>
